<svg xmlns="http://www.w3.org/2000/svg" width="675" viewBox="0 0 675 180" height="180" version="1.0"><defs><clipPath id="a"><path d="M 74.078125 4.191406 L 219.585938 4.191406 L 219.585938 149.699219 L 74.078125 149.699219 Z M 74.078125 4.191406"/></clipPath><clipPath id="b"><path d="M 165 77.816406 L 176 77.816406 L 176 89 L 165 89 Z M 165 77.816406"/></clipPath><clipPath id="c"><path d="M 77.234375 118 L 222.746094 118 L 222.746094 180 L 77.234375 180 Z M 77.234375 118"/></clipPath></defs><path fill="#FFF" d="M 132.191406 77.050781 C 132.191406 74.878906 130.429688 73.117188 128.257812 73.117188 C 126.082031 73.117188 124.320312 74.878906 124.320312 77.050781 C 124.320312 79.226562 126.082031 80.988281 128.257812 80.988281 C 130.429688 80.988281 132.191406 79.226562 132.191406 77.050781"/><g clip-path="url(#a)"><path fill="#FFF" d="M 219.410156 8.371094 C 219.410156 6.269531 217.632812 4.484375 215.527344 4.484375 C 210.96875 4.484375 206.410156 4.484375 201.851562 4.484375 C 190.90625 4.484375 179.960938 4.484375 169.015625 4.484375 C 155.828125 4.484375 142.640625 4.484375 129.453125 4.484375 C 118.003906 4.484375 106.554688 4.484375 95.105469 4.484375 C 89.546875 4.484375 83.953125 4.300781 78.394531 4.484375 C 78.320312 4.488281 78.238281 4.484375 78.160156 4.484375 C 76.0625 4.484375 74.277344 6.265625 74.277344 8.371094 C 74.277344 12.929688 74.277344 17.488281 74.277344 22.042969 C 74.277344 32.988281 74.277344 43.933594 74.277344 54.878906 C 74.277344 68.066406 74.277344 81.253906 74.277344 94.441406 C 74.277344 105.890625 74.277344 117.339844 74.277344 128.792969 C 74.277344 134.347656 74.089844 139.945312 74.277344 145.5 C 74.277344 145.578125 74.277344 145.65625 74.277344 145.734375 C 74.277344 147.835938 76.054688 149.621094 78.160156 149.621094 C 89.09375 149.621094 100.03125 149.621094 110.964844 149.621094 C 112.527344 149.621094 114.085938 149.621094 115.648438 149.621094 C 116.839844 149.621094 117.742188 149.175781 118.367188 148.503906 C 119.066406 147.878906 119.53125 146.957031 119.53125 145.734375 C 119.53125 141.828125 119.53125 137.921875 119.53125 134.015625 C 119.53125 124.6875 119.53125 115.355469 119.53125 106.027344 C 119.53125 94.6875 119.53125 83.347656 119.53125 72.007812 C 119.53125 62.203125 119.53125 52.398438 119.53125 42.59375 C 119.53125 39.074219 119.628906 35.535156 119.609375 32.003906 C 130.53125 32.003906 141.457031 32.003906 152.382812 32.003906 C 155.765625 32.003906 158.589844 32.332031 161.574219 33.605469 C 166.351562 35.640625 169.945312 39.28125 172.328125 44.105469 C 173.246094 45.960938 174.003906 49.105469 174.121094 51.277344 C 174.277344 54.226562 174.023438 56.175781 173.15625 58.90625 C 171.664062 63.609375 168.230469 67.839844 163.875 70.378906 C 162.328125 71.285156 161.585938 71.617188 160.09375 72.105469 C 159.296875 72.367188 158.484375 72.585938 157.660156 72.761719 C 156.761719 72.957031 156.617188 72.984375 155.957031 73.050781 C 154.371094 73.207031 152.769531 73.167969 151.175781 73.167969 C 147.621094 73.167969 144.066406 73.167969 140.511719 73.167969 C 135.511719 73.167969 135.503906 80.9375 140.511719 80.9375 C 143.855469 80.9375 147.199219 80.9375 150.542969 80.9375 C 155.046875 80.9375 159.46875 80.722656 163.722656 79.027344 C 176.425781 73.964844 183.8125 60.730469 181.40625 47.261719 C 179.039062 34.023438 166.855469 24.335938 153.574219 24.234375 C 147.871094 24.191406 142.164062 24.234375 136.464844 24.234375 C 129.523438 24.234375 122.585938 24.234375 115.648438 24.234375 C 114.457031 24.234375 113.554688 24.679688 112.929688 25.351562 C 112.226562 25.976562 111.761719 26.894531 111.761719 28.117188 C 111.761719 32.027344 111.761719 35.933594 111.761719 39.839844 C 111.761719 49.167969 111.761719 58.496094 111.761719 67.828125 C 111.761719 79.167969 111.761719 90.507812 111.761719 101.84375 C 111.761719 111.648438 111.761719 121.457031 111.761719 131.261719 C 111.761719 134.78125 111.664062 138.320312 111.6875 141.851562 C 102.074219 141.851562 92.460938 141.851562 82.84375 141.851562 C 82.578125 141.851562 82.3125 141.851562 82.046875 141.851562 C 82.046875 138.585938 82.046875 135.324219 82.046875 132.058594 C 82.046875 121.117188 82.046875 110.171875 82.046875 99.226562 C 82.046875 86.039062 82.046875 72.851562 82.046875 59.664062 C 82.046875 48.214844 82.046875 36.765625 82.046875 25.3125 C 82.046875 21.546875 82.046875 17.785156 82.046875 14.019531 C 82.046875 13.433594 82.058594 12.84375 82.070312 12.253906 C 85.324219 12.253906 88.582031 12.253906 91.835938 12.253906 C 102.78125 12.253906 113.726562 12.253906 124.671875 12.253906 C 137.859375 12.253906 151.046875 12.253906 164.234375 12.253906 C 175.683594 12.253906 187.132812 12.253906 198.582031 12.253906 C 202.347656 12.253906 206.113281 12.253906 209.875 12.253906 C 210.460938 12.253906 211.050781 12.265625 211.640625 12.28125 C 211.640625 15.535156 211.640625 18.789062 211.640625 22.042969 C 211.640625 32.988281 211.640625 43.933594 211.640625 54.878906 C 211.640625 68.066406 211.640625 81.253906 211.640625 94.441406 C 211.640625 105.890625 211.640625 117.339844 211.640625 128.792969 C 211.640625 132.554688 211.640625 136.320312 211.640625 140.085938 C 211.640625 140.667969 211.628906 141.257812 211.617188 141.851562 C 201.230469 141.851562 190.84375 141.851562 180.460938 141.851562 C 178.78125 141.851562 177.101562 141.851562 175.421875 141.851562 C 170.421875 141.851562 170.414062 149.621094 175.421875 149.621094 C 187.113281 149.621094 198.800781 149.621094 210.488281 149.621094 C 212.167969 149.621094 213.847656 149.621094 215.527344 149.621094 C 217.628906 149.621094 219.410156 147.839844 219.410156 145.734375 C 219.410156 141.175781 219.410156 136.617188 219.410156 132.058594 C 219.410156 121.117188 219.410156 110.171875 219.410156 99.226562 C 219.410156 86.039062 219.410156 72.851562 219.410156 59.664062 C 219.410156 48.214844 219.410156 36.765625 219.410156 25.3125 C 219.410156 19.753906 219.597656 14.160156 219.410156 8.605469 C 219.410156 8.527344 219.410156 8.449219 219.410156 8.371094"/></g><path fill="#FFF" d="M 194.730469 96.914062 L 196.425781 84.902344 L 196.613281 84.902344 L 196.765625 85.902344 C 197.167969 88.582031 197.574219 91.257812 197.953125 93.929688 C 198.054688 94.632812 198.0625 95.351562 198.121094 96.074219 C 198.179688 96.792969 198.234375 96.921875 199.003906 97.027344 L 209.589844 98.519531 C 209.742188 98.566406 209.894531 98.621094 210.039062 98.683594 C 209.6875 98.765625 209.492188 98.820312 209.300781 98.851562 C 206.691406 99.261719 204.070312 99.667969 201.445312 100.066406 C 200.601562 100.1875 199.75 100.273438 198.90625 100.378906 C 198.226562 100.464844 198.21875 100.488281 198.121094 101.207031 C 197.628906 104.828125 197.148438 108.445312 196.6875 112.050781 C 196.671875 112.164062 196.617188 112.261719 196.53125 112.332031 C 196.101562 110.390625 195.855469 108.414062 195.566406 106.457031 C 195.277344 104.496094 195.027344 102.523438 194.761719 100.527344 L 183.292969 98.796875 C 184.484375 98.230469 185.773438 98.253906 186.996094 98.03125 C 188.214844 97.808594 189.550781 97.609375 190.824219 97.425781 C 192.097656 97.242188 193.40625 97.082031 194.730469 96.914062 Z M 194.730469 96.914062"/><path fill="#FFF" d="M 116.851562 127.914062 L 117.480469 123.460938 L 117.546875 123.460938 C 117.546875 123.582031 117.546875 123.703125 117.605469 123.835938 C 117.753906 124.820312 117.902344 125.816406 118.042969 126.804688 C 118.078125 127.070312 118.085938 127.339844 118.109375 127.570312 C 118.132812 127.796875 118.109375 127.890625 118.433594 127.929688 L 122.359375 128.480469 L 122.527344 128.539062 L 122.253906 128.601562 L 119.335938 129.054688 C 119.027344 129.097656 118.714844 129.128906 118.398438 129.167969 C 118.078125 129.207031 118.136719 129.167969 118.109375 129.472656 L 117.574219 133.5 C 117.566406 133.539062 117.546875 133.570312 117.515625 133.597656 C 117.355469 132.878906 117.265625 132.144531 117.160156 131.417969 C 117.058594 130.691406 116.960938 129.988281 116.859375 129.222656 L 112.609375 128.578125 C 113.054688 128.425781 113.515625 128.328125 113.984375 128.289062 C 114.460938 128.195312 114.933594 128.136719 115.40625 128.066406 C 115.878906 127.996094 116.355469 127.972656 116.851562 127.914062 Z M 116.851562 127.914062"/><g clip-path="url(#b)"><path fill="#FFF" d="M 169.773438 82.40625 L 170.433594 77.953125 L 170.515625 77.953125 C 170.515625 78.074219 170.558594 78.203125 170.574219 78.328125 C 170.722656 79.320312 170.871094 80.308594 171.011719 81.304688 C 171.011719 81.5625 171.054688 81.832031 171.078125 82.070312 C 171.101562 82.304688 171.121094 82.382812 171.402344 82.421875 L 175.328125 82.972656 L 175.496094 83.035156 C 175.40625 83.058594 175.316406 83.078125 175.222656 83.09375 L 172.308594 83.546875 C 171.996094 83.59375 171.683594 83.621094 171.367188 83.660156 C 171.046875 83.699219 171.117188 83.707031 171.078125 83.972656 L 170.515625 88.023438 C 170.507812 88.066406 170.488281 88.101562 170.457031 88.128906 C 170.292969 87.410156 170.210938 86.675781 170.101562 85.949219 C 169.988281 85.222656 169.902344 84.488281 169.804688 83.753906 L 165.546875 83.109375 C 165.996094 82.949219 166.453125 82.851562 166.925781 82.820312 C 167.398438 82.71875 167.871094 82.660156 168.347656 82.589844 C 168.820312 82.519531 169.308594 82.46875 169.773438 82.40625 Z M 169.773438 82.40625"/></g><path fill="#FFF" d="M 174.136719 96.644531 C 174.136719 96.921875 174.136719 97.191406 174.136719 97.449219 C 174.070312 98.917969 173.949219 100.386719 173.914062 101.859375 C 173.847656 104.460938 173.839844 107.054688 173.78125 109.648438 C 173.761719 110.144531 173.6875 110.632812 173.550781 111.109375 C 173.359375 111.820312 172.988281 112.097656 172.449219 112.066406 C 172.164062 112.019531 171.921875 111.894531 171.71875 111.683594 C 171.519531 111.472656 171.398438 111.21875 171.359375 110.925781 C 171.339844 110.773438 171.339844 110.625 171.359375 110.472656 C 171.351562 109.082031 171.136719 107.726562 170.710938 106.40625 C 170.28125 105.085938 169.667969 103.871094 168.863281 102.753906 C 167.578125 100.761719 165.910156 99.203125 163.859375 98.085938 C 162.640625 97.417969 161.355469 96.9375 160.003906 96.644531 C 158.167969 96.242188 156.3125 96.09375 154.4375 96.210938 C 151.550781 96.300781 148.914062 97.1875 146.53125 98.875 C 145.304688 99.75 144.300781 100.839844 143.511719 102.148438 C 142.726562 103.457031 142.222656 104.871094 142.007812 106.394531 C 141.667969 108.605469 141.855469 110.769531 142.570312 112.882812 C 142.96875 113.957031 143.503906 114.953125 144.167969 115.875 C 145.597656 117.9375 147.253906 119.777344 149.136719 121.402344 L 149.660156 121.867188 C 149.609375 122.21875 149.371094 122.242188 149.128906 122.320312 C 147.253906 122.878906 135.964844 126.734375 135.453125 126.957031 C 135.085938 127.125 134.714844 127.238281 134.246094 127.40625 C 134.019531 127.03125 133.78125 126.695312 133.589844 126.335938 C 132.726562 124.785156 132.027344 123.15625 131.484375 121.453125 C 131.046875 119.953125 130.730469 118.421875 130.546875 116.863281 C 130.3125 115.027344 130.257812 113.1875 130.382812 111.339844 C 130.566406 108.703125 131.21875 106.199219 132.335938 103.824219 C 133.632812 101.160156 135.394531 98.886719 137.625 97 C 139.523438 95.34375 141.632812 94.050781 143.945312 93.117188 C 145.226562 92.613281 146.53125 92.164062 147.839844 91.757812 C 148.753906 91.492188 149.679688 91.292969 150.617188 91.152344 C 153.160156 90.714844 155.722656 90.527344 158.300781 90.585938 C 160.351562 90.679688 162.410156 90.863281 164.460938 91.058594 C 165.859375 91.207031 167.25 91.421875 168.636719 91.65625 C 170.238281 91.910156 171.8125 92.292969 173.359375 92.804688 C 174.097656 93.066406 174.566406 93.570312 174.292969 94.808594"/><g clip-path="url(#c)"><path fill="#FFF" d="M 222.242188 130.484375 C 221.695312 128.632812 220.722656 127.058594 219.332031 125.761719 C 218.511719 124.980469 217.621094 124.300781 216.660156 123.71875 C 215.429688 122.984375 214.15625 122.347656 212.839844 121.804688 C 211.601562 121.328125 210.339844 120.921875 209.054688 120.589844 C 208.175781 120.34375 207.265625 120.183594 206.367188 119.984375 C 205.628906 119.824219 204.886719 119.625 204.105469 119.527344 C 202.875 119.367188 201.644531 119.273438 200.402344 119.160156 C 200.285156 119.160156 200.164062 119.113281 200.039062 119.105469 C 198.964844 119.035156 197.886719 118.960938 196.804688 118.898438 C 196.691406 118.898438 196.574219 118.96875 196.449219 118.976562 C 196.160156 118.992188 195.871094 118.992188 195.582031 118.976562 C 195.175781 118.914062 194.769531 118.886719 194.359375 118.890625 C 193.5625 118.957031 192.765625 118.957031 191.96875 118.890625 C 189.007812 118.753906 186.097656 119.089844 183.167969 119.242188 C 182.949219 119.265625 182.730469 119.296875 182.515625 119.34375 L 181.292969 119.496094 C 180.183594 119.617188 179.074219 119.726562 177.96875 119.855469 C 177.230469 119.9375 176.535156 120.054688 175.816406 120.167969 C 174.882812 120.3125 173.949219 120.484375 173.019531 120.636719 C 172.277344 120.757812 171.539062 120.835938 170.796875 120.980469 C 169.589844 121.21875 168.390625 121.492188 167.175781 121.746094 C 165.960938 121.996094 164.957031 122.167969 163.832031 122.386719 C 163.335938 122.488281 162.847656 122.609375 162.351562 122.726562 L 159.242188 123.488281 C 158.375 123.703125 157.507812 123.925781 156.640625 124.164062 C 155.777344 124.402344 154.878906 124.652344 153.992188 124.929688 C 153.101562 125.203125 152.304688 125.355469 151.46875 125.601562 C 150.378906 125.914062 149.296875 126.269531 148.210938 126.605469 L 144.878906 127.613281 L 143.796875 127.945312 C 140.457031 128.886719 137.179688 130.03125 133.964844 131.371094 C 133.441406 131.5625 132.914062 131.769531 132.398438 131.96875 C 132.328125 131.992188 132.265625 132.027344 132.210938 132.074219 L 131.050781 132.558594 L 130.945312 132.558594 L 128.867188 133.429688 C 128.867188 133.414062 128.867188 133.398438 128.867188 133.382812 C 128.324219 133.589844 127.84375 133.757812 127.386719 133.972656 L 122.144531 136.34375 C 119.433594 137.539062 117.621094 138.402344 117.621094 138.402344 L 117.554688 138.472656 L 116.8125 138.808594 C 113.113281 140.570312 109.410156 142.503906 105.847656 144.5625 C 102.757812 146.339844 99.695312 148.164062 96.660156 150.035156 C 94.863281 151.136719 93.109375 152.332031 91.382812 153.5625 C 89.320312 155.03125 87.289062 156.542969 85.285156 158.101562 C 83.449219 159.554688 81.722656 161.128906 80.101562 162.828125 C 79.121094 163.859375 78.234375 164.972656 77.445312 166.164062 C 77.363281 166.3125 77.300781 166.464844 77.25 166.625 C 77.371094 166.625 77.429688 166.625 77.457031 166.625 C 80.507812 164.589844 83.65625 162.722656 86.859375 160.976562 C 89.304688 159.644531 91.746094 158.328125 94.210938 157.066406 C 96.675781 155.804688 99.054688 154.648438 101.488281 153.457031 C 103.050781 152.691406 104.628906 151.972656 106.191406 151.214844 L 116.074219 146.730469 L 117.6875 145.964844 L 118.695312 145.589844 L 118.835938 145.535156 L 135.121094 139.292969 L 135.304688 139.230469 C 136.550781 138.816406 137.785156 138.417969 139.007812 138.027344 C 139.859375 137.761719 140.726562 137.554688 141.5625 137.265625 C 141.738281 137.179688 141.921875 137.15625 142.113281 137.191406 C 142.304688 137.230469 142.46875 137.320312 142.605469 137.460938 C 144.265625 138.917969 145.921875 140.363281 147.625 141.761719 C 149.625 143.417969 151.667969 145.007812 153.679688 146.636719 C 155.6875 148.234375 157.515625 150.019531 159.175781 151.992188 C 160.636719 153.664062 161.824219 155.527344 162.726562 157.578125 C 163.113281 158.511719 163.429688 159.46875 163.675781 160.449219 C 163.882812 161.3125 163.910156 162.21875 164.039062 163.105469 C 164.335938 165.375 164.046875 167.558594 163.171875 169.664062 C 162.578125 171.132812 161.757812 172.453125 160.710938 173.628906 C 159.667969 174.800781 158.460938 175.753906 157.09375 176.488281 C 155.898438 177.15625 154.640625 177.648438 153.316406 177.972656 C 152.429688 178.195312 151.488281 178.203125 150.59375 178.402344 C 148.765625 178.800781 146.953125 178.476562 145.160156 178.25 C 143.867188 178.027344 142.613281 177.675781 141.390625 177.183594 C 140.015625 176.675781 138.746094 175.964844 137.585938 175.050781 C 136.421875 174.136719 135.421875 173.0625 134.582031 171.828125 C 133.113281 169.660156 132.125 167.277344 131.621094 164.679688 C 131.207031 163.082031 131.003906 161.453125 131.011719 159.800781 C 131.011719 159.574219 130.96875 159.355469 130.886719 159.148438 C 130.820312 158.917969 130.691406 158.730469 130.5 158.585938 C 130.3125 158.445312 130.097656 158.378906 129.863281 158.382812 C 129.621094 158.371094 129.402344 158.4375 129.199219 158.578125 C 129 158.722656 128.863281 158.910156 128.785156 159.148438 C 128.609375 159.507812 128.496094 159.886719 128.4375 160.28125 C 128.304688 161.367188 128.183594 162.460938 128.140625 163.554688 C 128.074219 165.277344 127.953125 167 127.886719 168.714844 C 127.742188 172.125 127.8125 175.554688 127.8125 178.976562 C 127.835938 179.199219 127.886719 179.410156 127.96875 179.617188 C 128.144531 180.050781 128.398438 180.417969 128.738281 180.730469 C 129.074219 181.039062 129.460938 181.257812 129.894531 181.386719 C 130.753906 181.769531 131.628906 182.152344 132.507812 182.449219 C 133.480469 182.808594 134.464844 183.109375 135.46875 183.351562 C 136.644531 183.621094 137.84375 183.8125 139.042969 183.964844 C 140.628906 184.171875 142.222656 184.371094 143.8125 184.4375 C 145.65625 184.523438 147.515625 184.4375 149.351562 184.4375 C 149.863281 184.449219 150.371094 184.429688 150.882812 184.378906 C 151.984375 184.238281 153.085938 184.078125 154.191406 183.894531 C 155.222656 183.75 156.242188 183.546875 157.25 183.285156 C 158.558594 182.902344 159.855469 182.425781 161.121094 181.914062 C 164.332031 180.613281 167.160156 178.710938 169.613281 176.207031 C 171.632812 174.160156 173.226562 171.808594 174.386719 169.140625 C 175.09375 167.558594 175.585938 165.910156 175.867188 164.191406 C 176.082031 163.222656 176.242188 162.242188 176.347656 161.253906 C 176.621094 157.894531 176.371094 154.582031 175.609375 151.304688 C 175.199219 149.496094 174.625 147.746094 173.882812 146.054688 C 172.796875 143.820312 171.476562 141.738281 169.921875 139.820312 C 168.339844 137.863281 166.632812 136.027344 164.800781 134.316406 C 164.199219 133.75 163.625 133.15625 163.03125 132.574219 C 163.03125 132.511719 163.082031 132.457031 163.105469 132.398438 C 164.171875 132.214844 165.238281 131.992188 166.304688 131.855469 C 168.011719 131.625 169.722656 131.449219 171.425781 131.242188 L 171.722656 131.242188 C 172.890625 131.074219 174.0625 130.890625 175.238281 130.742188 C 176.246094 130.621094 177.265625 130.539062 178.28125 130.476562 C 179.925781 130.363281 181.570312 130.253906 183.21875 130.191406 C 184.597656 130.148438 185.980469 130.191406 187.359375 130.148438 C 190.113281 130.046875 192.84375 130.316406 195.582031 130.46875 C 195.730469 130.472656 195.875 130.488281 196.019531 130.515625 L 198.871094 131.011719 C 199.558594 131.132812 200.261719 131.179688 200.933594 131.363281 C 202.105469 131.660156 203.257812 132.023438 204.390625 132.449219 C 205.835938 132.945312 207.070312 133.769531 208.09375 134.929688 C 208.738281 135.679688 209.070312 136.554688 209.101562 137.554688 C 209.222656 139.085938 209.03125 140.574219 208.53125 142.023438 C 208.199219 142.980469 207.816406 143.914062 207.382812 144.824219 C 206.410156 146.636719 205.230469 148.292969 203.851562 149.796875 C 201.882812 151.96875 199.746094 153.945312 197.441406 155.726562 C 195.261719 157.425781 192.992188 158.980469 190.628906 160.386719 C 187.914062 161.988281 185.152344 163.503906 182.40625 165.054688 L 181.746094 165.421875 C 181.871094 165.53125 182.011719 165.558594 182.167969 165.507812 L 185.21875 164.183594 C 187.578125 163.136719 189.972656 162.15625 192.296875 161.03125 C 195.125 159.652344 197.914062 158.191406 200.683594 156.683594 C 203.914062 154.960938 207.015625 153.011719 209.980469 150.839844 C 211.351562 149.828125 212.734375 148.8125 214.023438 147.6875 C 215.484375 146.488281 216.824219 145.160156 218.035156 143.699219 C 218.878906 142.613281 219.804688 141.585938 220.546875 140.425781 C 221.382812 139.214844 221.945312 137.886719 222.234375 136.429688 C 222.375 135.582031 222.640625 134.738281 222.714844 133.882812 C 222.773438 132.714844 222.617188 131.585938 222.242188 130.484375 Z M 222.242188 130.484375"/></g><g fill="#FFF"><g><g><path d="M 3.734375 -51.421875 L 22.5 -51.421875 C 27.738281 -51.421875 31.976562 -50.066406 35.21875 -47.359375 C 38.457031 -44.660156 40.078125 -40.734375 40.078125 -35.578125 C 40.078125 -30.429688 38.4375 -26.394531 35.15625 -23.46875 C 31.875 -20.539062 27.65625 -19.078125 22.5 -19.078125 L 15.453125 -19.078125 L 15.453125 0 L 3.734375 0 Z M 15.453125 -28.421875 L 18.765625 -28.421875 C 21.378906 -28.421875 23.523438 -28.945312 25.203125 -30 C 26.890625 -31.0625 27.734375 -32.800781 27.734375 -35.21875 C 27.734375 -37.664062 26.890625 -39.421875 25.203125 -40.484375 C 23.523438 -41.546875 21.378906 -42.078125 18.765625 -42.078125 L 15.453125 -42.078125 Z M 15.453125 -28.421875" transform="translate(229.866 60.867)"/></g></g></g><g fill="#FFF"><g><g><path d="M 3.734375 -51.421875 L 22.125 -51.421875 C 27.070312 -51.421875 31.101562 -50.097656 34.21875 -47.453125 C 37.332031 -44.816406 38.890625 -41.050781 38.890625 -36.15625 C 38.890625 -32.375 37.941406 -29.203125 36.046875 -26.640625 C 34.160156 -24.085938 31.597656 -22.289062 28.359375 -21.25 L 46.0625 0 L 31.15625 0 L 15.453125 -20.3125 L 15.453125 0 L 3.734375 0 Z M 15.453125 -28.609375 L 16.828125 -28.609375 C 17.910156 -28.609375 18.820312 -28.628906 19.5625 -28.671875 C 20.3125 -28.710938 21.164062 -28.859375 22.125 -29.109375 C 23.082031 -29.359375 23.851562 -29.710938 24.4375 -30.171875 C 25.019531 -30.628906 25.515625 -31.289062 25.921875 -32.15625 C 26.335938 -33.03125 26.546875 -34.085938 26.546875 -35.328125 C 26.546875 -36.578125 26.335938 -37.640625 25.921875 -38.515625 C 25.515625 -39.390625 25.019531 -40.054688 24.4375 -40.515625 C 23.851562 -40.972656 23.082031 -41.328125 22.125 -41.578125 C 21.164062 -41.828125 20.3125 -41.972656 19.5625 -42.015625 C 18.820312 -42.054688 17.910156 -42.078125 16.828125 -42.078125 L 15.453125 -42.078125 Z M 15.453125 -28.609375" transform="translate(271.379 60.867)"/></g></g></g><g fill="#FFF"><g><g><path d="M 33.15625 -51.421875 L 33.15625 -41.140625 L 15.453125 -41.140625 L 15.453125 -30.921875 L 32.40625 -30.921875 L 32.40625 -20.625 L 15.453125 -20.625 L 15.453125 -10.28125 L 33.15625 -10.28125 L 33.15625 0 L 3.734375 0 L 3.734375 -51.421875 Z M 33.15625 -51.421875" transform="translate(316.009 60.867)"/></g></g></g><g fill="#FFF"><g><g><path d="M 22.6875 -52.359375 C 25.46875 -52.359375 28.1875 -51.953125 30.84375 -51.140625 C 33.507812 -50.328125 35.488281 -49.523438 36.78125 -48.734375 L 38.640625 -47.5 L 33.90625 -38.140625 C 33.53125 -38.390625 33.007812 -38.710938 32.34375 -39.109375 C 31.675781 -39.503906 30.425781 -40.035156 28.59375 -40.703125 C 26.769531 -41.367188 25.070312 -41.703125 23.5 -41.703125 C 21.539062 -41.703125 20.03125 -41.285156 18.96875 -40.453125 C 17.914062 -39.617188 17.390625 -38.492188 17.390625 -37.078125 C 17.390625 -36.378906 17.640625 -35.726562 18.140625 -35.125 C 18.640625 -34.519531 19.488281 -33.875 20.6875 -33.1875 C 21.894531 -32.5 22.957031 -31.945312 23.875 -31.53125 C 24.789062 -31.125 26.203125 -30.503906 28.109375 -29.671875 C 31.429688 -28.253906 34.265625 -26.328125 36.609375 -23.890625 C 38.960938 -21.460938 40.140625 -18.710938 40.140625 -15.640625 C 40.140625 -12.691406 39.609375 -10.113281 38.546875 -7.90625 C 37.484375 -5.707031 36.023438 -3.984375 34.171875 -2.734375 C 32.328125 -1.492188 30.285156 -0.570312 28.046875 0.03125 C 25.804688 0.632812 23.375 0.9375 20.75 0.9375 C 18.507812 0.9375 16.304688 0.707031 14.140625 0.25 C 11.984375 -0.207031 10.175781 -0.78125 8.71875 -1.46875 C 7.269531 -2.15625 5.960938 -2.828125 4.796875 -3.484375 C 3.628906 -4.148438 2.78125 -4.710938 2.25 -5.171875 L 1.4375 -5.859375 L 7.296875 -15.703125 C 7.796875 -15.285156 8.476562 -14.753906 9.34375 -14.109375 C 10.21875 -13.472656 11.765625 -12.613281 13.984375 -11.53125 C 16.210938 -10.445312 18.175781 -9.90625 19.875 -9.90625 C 24.820312 -9.90625 27.296875 -11.585938 27.296875 -14.953125 C 27.296875 -15.660156 27.117188 -16.316406 26.765625 -16.921875 C 26.410156 -17.523438 25.785156 -18.128906 24.890625 -18.734375 C 24.003906 -19.335938 23.21875 -19.8125 22.53125 -20.15625 C 21.84375 -20.507812 20.71875 -21.050781 19.15625 -21.78125 C 17.601562 -22.507812 16.453125 -23.0625 15.703125 -23.4375 C 12.585938 -24.96875 10.175781 -26.882812 8.46875 -29.1875 C 6.769531 -31.5 5.921875 -33.988281 5.921875 -36.65625 C 5.921875 -41.257812 7.625 -45.023438 11.03125 -47.953125 C 14.4375 -50.890625 18.320312 -52.359375 22.6875 -52.359375 Z M 22.6875 -52.359375" transform="translate(352.161 60.867)"/></g></g></g><g fill="#FFF"><g><g><path d="M 33.15625 -51.421875 L 33.15625 -41.140625 L 15.453125 -41.140625 L 15.453125 -30.921875 L 32.40625 -30.921875 L 32.40625 -20.625 L 15.453125 -20.625 L 15.453125 -10.28125 L 33.15625 -10.28125 L 33.15625 0 L 3.734375 0 L 3.734375 -51.421875 Z M 33.15625 -51.421875" transform="translate(394.048 60.867)"/></g></g></g><g fill="#FFF"><g><g><path d="M 29.859375 -51.421875 L 50.609375 0 L 38.015625 0 L 34.21875 -10.28125 L 14.640625 -10.28125 L 10.84375 0 L -1.75 0 L 19.015625 -51.421875 Z M 30.234375 -20.5625 L 24.5 -35.53125 L 24.375 -35.53125 L 18.640625 -20.5625 Z M 30.234375 -20.5625" transform="translate(430.2 60.867)"/></g></g></g><g fill="#FFF"><g><g><path d="M 3.734375 -51.421875 L 22.125 -51.421875 C 27.070312 -51.421875 31.101562 -50.097656 34.21875 -47.453125 C 37.332031 -44.816406 38.890625 -41.050781 38.890625 -36.15625 C 38.890625 -32.375 37.941406 -29.203125 36.046875 -26.640625 C 34.160156 -24.085938 31.597656 -22.289062 28.359375 -21.25 L 46.0625 0 L 31.15625 0 L 15.453125 -20.3125 L 15.453125 0 L 3.734375 0 Z M 15.453125 -28.609375 L 16.828125 -28.609375 C 17.910156 -28.609375 18.820312 -28.628906 19.5625 -28.671875 C 20.3125 -28.710938 21.164062 -28.859375 22.125 -29.109375 C 23.082031 -29.359375 23.851562 -29.710938 24.4375 -30.171875 C 25.019531 -30.628906 25.515625 -31.289062 25.921875 -32.15625 C 26.335938 -33.03125 26.546875 -34.085938 26.546875 -35.328125 C 26.546875 -36.578125 26.335938 -37.640625 25.921875 -38.515625 C 25.515625 -39.390625 25.019531 -40.054688 24.4375 -40.515625 C 23.851562 -40.972656 23.082031 -41.328125 22.125 -41.578125 C 21.164062 -41.828125 20.3125 -41.972656 19.5625 -42.015625 C 18.820312 -42.054688 17.910156 -42.078125 16.828125 -42.078125 L 15.453125 -42.078125 Z M 15.453125 -28.609375" transform="translate(479.07 60.867)"/></g></g></g><g fill="#FFF"><g><g><path d="M 22.6875 -52.359375 C 25.46875 -52.359375 28.1875 -51.953125 30.84375 -51.140625 C 33.507812 -50.328125 35.488281 -49.523438 36.78125 -48.734375 L 38.640625 -47.5 L 33.90625 -38.140625 C 33.53125 -38.390625 33.007812 -38.710938 32.34375 -39.109375 C 31.675781 -39.503906 30.425781 -40.035156 28.59375 -40.703125 C 26.769531 -41.367188 25.070312 -41.703125 23.5 -41.703125 C 21.539062 -41.703125 20.03125 -41.285156 18.96875 -40.453125 C 17.914062 -39.617188 17.390625 -38.492188 17.390625 -37.078125 C 17.390625 -36.378906 17.640625 -35.726562 18.140625 -35.125 C 18.640625 -34.519531 19.488281 -33.875 20.6875 -33.1875 C 21.894531 -32.5 22.957031 -31.945312 23.875 -31.53125 C 24.789062 -31.125 26.203125 -30.503906 28.109375 -29.671875 C 31.429688 -28.253906 34.265625 -26.328125 36.609375 -23.890625 C 38.960938 -21.460938 40.140625 -18.710938 40.140625 -15.640625 C 40.140625 -12.691406 39.609375 -10.113281 38.546875 -7.90625 C 37.484375 -5.707031 36.023438 -3.984375 34.171875 -2.734375 C 32.328125 -1.492188 30.285156 -0.570312 28.046875 0.03125 C 25.804688 0.632812 23.375 0.9375 20.75 0.9375 C 18.507812 0.9375 16.304688 0.707031 14.140625 0.25 C 11.984375 -0.207031 10.175781 -0.78125 8.71875 -1.46875 C 7.269531 -2.15625 5.960938 -2.828125 4.796875 -3.484375 C 3.628906 -4.148438 2.78125 -4.710938 2.25 -5.171875 L 1.4375 -5.859375 L 7.296875 -15.703125 C 7.796875 -15.285156 8.476562 -14.753906 9.34375 -14.109375 C 10.21875 -13.472656 11.765625 -12.613281 13.984375 -11.53125 C 16.210938 -10.445312 18.175781 -9.90625 19.875 -9.90625 C 24.820312 -9.90625 27.296875 -11.585938 27.296875 -14.953125 C 27.296875 -15.660156 27.117188 -16.316406 26.765625 -16.921875 C 26.410156 -17.523438 25.785156 -18.128906 24.890625 -18.734375 C 24.003906 -19.335938 23.21875 -19.8125 22.53125 -20.15625 C 21.84375 -20.507812 20.71875 -21.050781 19.15625 -21.78125 C 17.601562 -22.507812 16.453125 -23.0625 15.703125 -23.4375 C 12.585938 -24.96875 10.175781 -26.882812 8.46875 -29.1875 C 6.769531 -31.5 5.921875 -33.988281 5.921875 -36.65625 C 5.921875 -41.257812 7.625 -45.023438 11.03125 -47.953125 C 14.4375 -50.890625 18.320312 -52.359375 22.6875 -52.359375 Z M 22.6875 -52.359375" transform="translate(229.866 141.867)"/></g></g></g><g fill="#FFF"><g><g><path d="M 1.4375 -25.734375 C 1.4375 -33.171875 3.96875 -39.46875 9.03125 -44.625 C 14.101562 -49.78125 20.210938 -52.359375 27.359375 -52.359375 C 34.546875 -52.359375 40.65625 -49.789062 45.6875 -44.65625 C 50.71875 -39.519531 53.234375 -33.210938 53.234375 -25.734375 C 53.234375 -18.210938 50.757812 -11.882812 45.8125 -6.75 C 40.863281 -1.625 34.710938 0.9375 27.359375 0.9375 C 19.835938 0.9375 13.632812 -1.601562 8.75 -6.6875 C 3.875 -11.78125 1.4375 -18.128906 1.4375 -25.734375 Z M 14.09375 -25.734375 C 14.09375 -23.035156 14.503906 -20.570312 15.328125 -18.34375 C 16.160156 -16.125 17.613281 -14.242188 19.6875 -12.703125 C 21.769531 -11.171875 24.328125 -10.40625 27.359375 -10.40625 C 31.722656 -10.40625 35.015625 -11.898438 37.234375 -14.890625 C 39.460938 -17.890625 40.578125 -21.503906 40.578125 -25.734375 C 40.578125 -29.929688 39.441406 -33.535156 37.171875 -36.546875 C 34.910156 -39.566406 31.640625 -41.078125 27.359375 -41.078125 C 23.117188 -41.078125 19.847656 -39.566406 17.546875 -36.546875 C 15.242188 -33.535156 14.09375 -29.929688 14.09375 -25.734375 Z M 14.09375 -25.734375" transform="translate(271.753 141.867)"/></g></g></g><g fill="#FFF"><g><g><path d="M 33.46875 -51.421875 L 33.46875 -41.140625 L 15.453125 -41.140625 L 15.453125 -30.921875 L 32.09375 -30.921875 L 32.09375 -20.625 L 15.453125 -20.625 L 15.453125 0 L 3.734375 0 L 3.734375 -51.421875 Z M 33.46875 -51.421875" transform="translate(326.418 141.867)"/></g></g></g><g fill="#FFF"><g><g><path d="M 0.5 -41.140625 L 0.5 -51.421875 L 36.65625 -51.421875 L 36.65625 -41.140625 L 24.4375 -41.140625 L 24.4375 0 L 12.71875 0 L 12.71875 -41.140625 Z M 0.5 -41.140625" transform="translate(361.76 141.867)"/></g></g></g><g fill="#FFF"><g><g><path d="M 43.1875 0 L 34.96875 -28.859375 L 26.734375 0 L 13.71875 0 L -0.9375 -51.421875 L 12.09375 -51.421875 L 20.875 -16.140625 L 21.1875 -16.140625 L 30.546875 -51.421875 L 39.390625 -51.421875 L 48.734375 -16.140625 L 49.046875 -16.140625 L 57.84375 -51.421875 L 70.8125 -51.421875 L 56.15625 0 Z M 43.1875 0" transform="translate(398.91 141.867)"/></g></g></g><g fill="#FFF"><g><g><path d="M 29.859375 -51.421875 L 50.609375 0 L 38.015625 0 L 34.21875 -10.28125 L 14.640625 -10.28125 L 10.84375 0 L -1.75 0 L 19.015625 -51.421875 Z M 30.234375 -20.5625 L 24.5 -35.53125 L 24.375 -35.53125 L 18.640625 -20.5625 Z M 30.234375 -20.5625" transform="translate(468.784 141.867)"/></g></g></g><g fill="#FFF"><g><g><path d="M 3.734375 -51.421875 L 22.125 -51.421875 C 27.070312 -51.421875 31.101562 -50.097656 34.21875 -47.453125 C 37.332031 -44.816406 38.890625 -41.050781 38.890625 -36.15625 C 38.890625 -32.375 37.941406 -29.203125 36.046875 -26.640625 C 34.160156 -24.085938 31.597656 -22.289062 28.359375 -21.25 L 46.0625 0 L 31.15625 0 L 15.453125 -20.3125 L 15.453125 0 L 3.734375 0 Z M 15.453125 -28.609375 L 16.828125 -28.609375 C 17.910156 -28.609375 18.820312 -28.628906 19.5625 -28.671875 C 20.3125 -28.710938 21.164062 -28.859375 22.125 -29.109375 C 23.082031 -29.359375 23.851562 -29.710938 24.4375 -30.171875 C 25.019531 -30.628906 25.515625 -31.289062 25.921875 -32.15625 C 26.335938 -33.03125 26.546875 -34.085938 26.546875 -35.328125 C 26.546875 -36.578125 26.335938 -37.640625 25.921875 -38.515625 C 25.515625 -39.390625 25.019531 -40.054688 24.4375 -40.515625 C 23.851562 -40.972656 23.082031 -41.328125 22.125 -41.578125 C 21.164062 -41.828125 20.3125 -41.972656 19.5625 -42.015625 C 18.820312 -42.054688 17.910156 -42.078125 16.828125 -42.078125 L 15.453125 -42.078125 Z M 15.453125 -28.609375" transform="translate(517.653 141.867)"/></g></g></g><g fill="#FFF"><g><g><path d="M 33.15625 -51.421875 L 33.15625 -41.140625 L 15.453125 -41.140625 L 15.453125 -30.921875 L 32.40625 -30.921875 L 32.40625 -20.625 L 15.453125 -20.625 L 15.453125 -10.28125 L 33.15625 -10.28125 L 33.15625 0 L 3.734375 0 L 3.734375 -51.421875 Z M 33.15625 -51.421875" transform="translate(562.282 141.867)"/></g></g></g><g fill="#FFF"><g><g><path d="M 22.6875 -52.359375 C 25.46875 -52.359375 28.1875 -51.953125 30.84375 -51.140625 C 33.507812 -50.328125 35.488281 -49.523438 36.78125 -48.734375 L 38.640625 -47.5 L 33.90625 -38.140625 C 33.53125 -38.390625 33.007812 -38.710938 32.34375 -39.109375 C 31.675781 -39.503906 30.425781 -40.035156 28.59375 -40.703125 C 26.769531 -41.367188 25.070312 -41.703125 23.5 -41.703125 C 21.539062 -41.703125 20.03125 -41.285156 18.96875 -40.453125 C 17.914062 -39.617188 17.390625 -38.492188 17.390625 -37.078125 C 17.390625 -36.378906 17.640625 -35.726562 18.140625 -35.125 C 18.640625 -34.519531 19.488281 -33.875 20.6875 -33.1875 C 21.894531 -32.5 22.957031 -31.945312 23.875 -31.53125 C 24.789062 -31.125 26.203125 -30.503906 28.109375 -29.671875 C 31.429688 -28.253906 34.265625 -26.328125 36.609375 -23.890625 C 38.960938 -21.460938 40.140625 -18.710938 40.140625 -15.640625 C 40.140625 -12.691406 39.609375 -10.113281 38.546875 -7.90625 C 37.484375 -5.707031 36.023438 -3.984375 34.171875 -2.734375 C 32.328125 -1.492188 30.285156 -0.570312 28.046875 0.03125 C 25.804688 0.632812 23.375 0.9375 20.75 0.9375 C 18.507812 0.9375 16.304688 0.707031 14.140625 0.25 C 11.984375 -0.207031 10.175781 -0.78125 8.71875 -1.46875 C 7.269531 -2.15625 5.960938 -2.828125 4.796875 -3.484375 C 3.628906 -4.148438 2.78125 -4.710938 2.25 -5.171875 L 1.4375 -5.859375 L 7.296875 -15.703125 C 7.796875 -15.285156 8.476562 -14.753906 9.34375 -14.109375 C 10.21875 -13.472656 11.765625 -12.613281 13.984375 -11.53125 C 16.210938 -10.445312 18.175781 -9.90625 19.875 -9.90625 C 24.820312 -9.90625 27.296875 -11.585938 27.296875 -14.953125 C 27.296875 -15.660156 27.117188 -16.316406 26.765625 -16.921875 C 26.410156 -17.523438 25.785156 -18.128906 24.890625 -18.734375 C 24.003906 -19.335938 23.21875 -19.8125 22.53125 -20.15625 C 21.84375 -20.507812 20.71875 -21.050781 19.15625 -21.78125 C 17.601562 -22.507812 16.453125 -23.0625 15.703125 -23.4375 C 12.585938 -24.96875 10.175781 -26.882812 8.46875 -29.1875 C 6.769531 -31.5 5.921875 -33.988281 5.921875 -36.65625 C 5.921875 -41.257812 7.625 -45.023438 11.03125 -47.953125 C 14.4375 -50.890625 18.320312 -52.359375 22.6875 -52.359375 Z M 22.6875 -52.359375" transform="translate(598.435 141.867)"/></g></g></g></svg>