<svg xmlns="http://www.w3.org/2000/svg" width="375" viewBox="0 0 375 375" height="375" version="1.0"><defs><clipPath id="a"><path d="M 189 172 L 282 172 L 282 201.765625 L 189 201.765625 Z M 189 172"/></clipPath><clipPath id="b"><path d="M 93.003906 172 L 186 172 L 186 201.765625 L 93.003906 201.765625 Z M 93.003906 172"/></clipPath><clipPath id="c"><path d="M 138 96.015625 L 235 96.015625 L 235 157 L 138 157 Z M 138 96.015625"/></clipPath></defs><g fill="#FFF"><g><g><path d="M 4.65625 -3.109375 C 2.300781 -5.671875 1.125 -8.8125 1.125 -12.53125 C 1.125 -16.257812 2.300781 -19.414062 4.65625 -22 C 7.007812 -24.582031 10 -25.875 13.625 -25.875 C 16.957031 -25.875 19.703125 -24.828125 21.859375 -22.734375 L 21.859375 -25.140625 L 30.53125 -25.140625 L 30.53125 0 L 21.953125 0 L 21.953125 -2.84375 L 21.859375 -2.84375 C 19.703125 -0.457031 16.957031 0.734375 13.625 0.734375 C 10 0.734375 7.007812 -0.546875 4.65625 -3.109375 Z M 12.03125 -16.796875 C 10.90625 -15.691406 10.34375 -14.273438 10.34375 -12.546875 C 10.34375 -10.816406 10.878906 -9.398438 11.953125 -8.296875 C 13.035156 -7.203125 14.457031 -6.65625 16.21875 -6.65625 C 17.914062 -6.65625 19.3125 -7.210938 20.40625 -8.328125 C 21.5 -9.441406 22.046875 -10.847656 22.046875 -12.546875 C 22.046875 -14.273438 21.484375 -15.691406 20.359375 -16.796875 C 19.234375 -17.910156 17.851562 -18.46875 16.21875 -18.46875 C 14.550781 -18.46875 13.15625 -17.910156 12.03125 -16.796875 Z M 12.03125 -16.796875" transform="translate(75.105 271.953)"/></g></g></g><g fill="#FFF"><g><g><path d="M 16.3125 -18.765625 C 14.675781 -18.765625 13.269531 -18.160156 12.09375 -16.953125 C 10.925781 -15.742188 10.34375 -14.289062 10.34375 -12.59375 C 10.34375 -10.863281 10.925781 -9.394531 12.09375 -8.1875 C 13.269531 -6.976562 14.675781 -6.375 16.3125 -6.375 C 17.101562 -6.375 17.847656 -6.46875 18.546875 -6.65625 C 19.242188 -6.851562 19.757812 -7.050781 20.09375 -7.25 L 20.53125 -7.546875 L 23.46875 -1.515625 C 23.238281 -1.359375 22.921875 -1.15625 22.515625 -0.90625 C 22.109375 -0.65625 21.175781 -0.320312 19.71875 0.09375 C 18.269531 0.519531 16.710938 0.734375 15.046875 0.734375 C 11.347656 0.734375 8.101562 -0.5625 5.3125 -3.15625 C 2.519531 -5.757812 1.125 -8.875 1.125 -12.5 C 1.125 -16.15625 2.519531 -19.296875 5.3125 -21.921875 C 8.101562 -24.554688 11.347656 -25.875 15.046875 -25.875 C 16.710938 -25.875 18.242188 -25.675781 19.640625 -25.28125 C 21.046875 -24.894531 22.046875 -24.503906 22.640625 -24.109375 L 23.46875 -23.515625 L 20.53125 -17.59375 C 19.445312 -18.375 18.039062 -18.765625 16.3125 -18.765625 Z M 16.3125 -18.765625" transform="translate(108.57 271.953)"/></g></g></g><g fill="#FFF"><g><g><path d="M 4.65625 -3.109375 C 2.300781 -5.671875 1.125 -8.8125 1.125 -12.53125 C 1.125 -16.257812 2.300781 -19.414062 4.65625 -22 C 7.007812 -24.582031 10 -25.875 13.625 -25.875 C 16.957031 -25.875 19.703125 -24.828125 21.859375 -22.734375 L 21.859375 -25.140625 L 30.53125 -25.140625 L 30.53125 0 L 21.953125 0 L 21.953125 -2.84375 L 21.859375 -2.84375 C 19.703125 -0.457031 16.957031 0.734375 13.625 0.734375 C 10 0.734375 7.007812 -0.546875 4.65625 -3.109375 Z M 12.03125 -16.796875 C 10.90625 -15.691406 10.34375 -14.273438 10.34375 -12.546875 C 10.34375 -10.816406 10.878906 -9.398438 11.953125 -8.296875 C 13.035156 -7.203125 14.457031 -6.65625 16.21875 -6.65625 C 17.914062 -6.65625 19.3125 -7.210938 20.40625 -8.328125 C 21.5 -9.441406 22.046875 -10.847656 22.046875 -12.546875 C 22.046875 -14.273438 21.484375 -15.691406 20.359375 -16.796875 C 19.234375 -17.910156 17.851562 -18.46875 16.21875 -18.46875 C 14.550781 -18.46875 13.15625 -17.910156 12.03125 -16.796875 Z M 12.03125 -16.796875" transform="translate(132.626 271.953)"/></g></g></g><g fill="#FFF"><g><g><path d="M 28.8125 -22.015625 C 31.164062 -19.453125 32.34375 -16.304688 32.34375 -12.578125 C 32.34375 -8.859375 31.164062 -5.707031 28.8125 -3.125 C 26.457031 -0.550781 23.46875 0.734375 19.84375 0.734375 C 16.507812 0.734375 13.765625 -0.3125 11.609375 -2.40625 L 11.609375 12.734375 L 2.9375 12.734375 L 2.9375 -25.140625 L 11.515625 -25.140625 L 11.515625 -22.296875 L 11.609375 -22.296875 C 13.765625 -24.679688 16.507812 -25.875 19.84375 -25.875 C 23.46875 -25.875 26.457031 -24.585938 28.8125 -22.015625 Z M 21.4375 -8.328125 C 22.5625 -9.441406 23.125 -10.863281 23.125 -12.59375 C 23.125 -14.320312 22.582031 -15.734375 21.5 -16.828125 C 20.425781 -17.921875 19.007812 -18.46875 17.25 -18.46875 C 15.550781 -18.46875 14.15625 -17.910156 13.0625 -16.796875 C 11.96875 -15.691406 11.421875 -14.289062 11.421875 -12.59375 C 11.421875 -10.863281 11.984375 -9.441406 13.109375 -8.328125 C 14.234375 -7.210938 15.613281 -6.65625 17.25 -6.65625 C 18.914062 -6.65625 20.3125 -7.210938 21.4375 -8.328125 Z M 21.4375 -8.328125" transform="translate(166.09 271.953)"/></g></g></g><g fill="#FFF"><g><g><path d="M 11.125 -25.140625 L 11.125 -13.1875 C 11.125 -10.695312 11.5 -8.929688 12.25 -7.890625 C 13 -6.847656 14.269531 -6.328125 16.0625 -6.328125 C 17.863281 -6.328125 19.140625 -6.847656 19.890625 -7.890625 C 20.640625 -8.929688 21.015625 -10.695312 21.015625 -13.1875 L 21.015625 -25.140625 L 29.6875 -25.140625 L 29.6875 -11.078125 C 29.6875 -6.890625 28.597656 -3.875 26.421875 -2.03125 C 24.253906 -0.1875 20.800781 0.734375 16.0625 0.734375 C 11.332031 0.734375 7.878906 -0.1875 5.703125 -2.03125 C 3.535156 -3.875 2.453125 -6.890625 2.453125 -11.078125 L 2.453125 -25.140625 Z M 11.125 -25.140625" transform="translate(199.555 271.953)"/></g></g></g><g fill="#FFF"><g><g><path d="M 2.9375 0 L 2.9375 -42.140625 L 11.609375 -42.140625 L 11.609375 0 Z M 2.9375 0" transform="translate(231.696 271.953)"/></g></g></g><g fill="#FFF"><g><g><path d="M 13.859375 -25.875 C 15.296875 -25.875 16.71875 -25.707031 18.125 -25.375 C 19.53125 -25.050781 20.578125 -24.726562 21.265625 -24.40625 L 22.296875 -23.90625 L 19.453125 -18.234375 C 17.492188 -19.273438 15.628906 -19.796875 13.859375 -19.796875 C 12.878906 -19.796875 12.1875 -19.6875 11.78125 -19.46875 C 11.375 -19.257812 11.171875 -18.863281 11.171875 -18.28125 C 11.171875 -18.144531 11.1875 -18.007812 11.21875 -17.875 C 11.25 -17.75 11.3125 -17.628906 11.40625 -17.515625 C 11.507812 -17.398438 11.601562 -17.300781 11.6875 -17.21875 C 11.769531 -17.132812 11.90625 -17.046875 12.09375 -16.953125 C 12.289062 -16.859375 12.445312 -16.785156 12.5625 -16.734375 C 12.675781 -16.679688 12.863281 -16.601562 13.125 -16.5 C 13.394531 -16.40625 13.59375 -16.332031 13.71875 -16.28125 C 13.851562 -16.238281 14.070312 -16.164062 14.375 -16.0625 C 14.6875 -15.96875 14.925781 -15.90625 15.09375 -15.875 C 16.101562 -15.582031 16.984375 -15.253906 17.734375 -14.890625 C 18.484375 -14.535156 19.273438 -14.046875 20.109375 -13.421875 C 20.941406 -12.804688 21.585938 -12.023438 22.046875 -11.078125 C 22.503906 -10.128906 22.734375 -9.050781 22.734375 -7.84375 C 22.734375 -2.125 18.765625 0.734375 10.828125 0.734375 C 9.035156 0.734375 7.328125 0.457031 5.703125 -0.09375 C 4.085938 -0.65625 2.921875 -1.210938 2.203125 -1.765625 L 1.125 -2.640625 L 4.65625 -8.578125 C 4.914062 -8.347656 5.257812 -8.078125 5.6875 -7.765625 C 6.113281 -7.453125 6.878906 -7.023438 7.984375 -6.484375 C 9.097656 -5.953125 10.0625 -5.6875 10.875 -5.6875 C 12.675781 -5.6875 13.578125 -6.289062 13.578125 -7.5 C 13.578125 -8.050781 13.347656 -8.484375 12.890625 -8.796875 C 12.429688 -9.109375 11.65625 -9.457031 10.5625 -9.84375 C 9.46875 -10.238281 8.609375 -10.597656 7.984375 -10.921875 C 6.421875 -11.742188 5.179688 -12.664062 4.265625 -13.6875 C 3.347656 -14.71875 2.890625 -16.082031 2.890625 -17.78125 C 2.890625 -20.332031 3.875 -22.316406 5.84375 -23.734375 C 7.820312 -25.160156 10.492188 -25.875 13.859375 -25.875 Z M 13.859375 -25.875" transform="translate(246.248 271.953)"/></g></g></g><g fill="#FFF"><g><g><path d="M 28.375 -11.375 L 10.140625 -11.375 C 10.140625 -9.601562 10.710938 -8.289062 11.859375 -7.4375 C 13.003906 -6.59375 14.242188 -6.171875 15.578125 -6.171875 C 16.984375 -6.171875 18.09375 -6.359375 18.90625 -6.734375 C 19.726562 -7.109375 20.660156 -7.851562 21.703125 -8.96875 L 27.984375 -5.828125 C 25.367188 -1.453125 21.019531 0.734375 14.9375 0.734375 C 11.15625 0.734375 7.90625 -0.5625 5.1875 -3.15625 C 2.476562 -5.757812 1.125 -8.890625 1.125 -12.546875 C 1.125 -16.203125 2.476562 -19.335938 5.1875 -21.953125 C 7.90625 -24.566406 11.15625 -25.875 14.9375 -25.875 C 18.925781 -25.875 22.171875 -24.722656 24.671875 -22.421875 C 27.171875 -20.117188 28.421875 -16.828125 28.421875 -12.546875 C 28.421875 -11.953125 28.40625 -11.5625 28.375 -11.375 Z M 10.390625 -16.171875 L 19.9375 -16.171875 C 19.75 -17.472656 19.238281 -18.472656 18.40625 -19.171875 C 17.570312 -19.878906 16.5 -20.234375 15.1875 -20.234375 C 13.75 -20.234375 12.601562 -19.859375 11.75 -19.109375 C 10.90625 -18.359375 10.453125 -17.378906 10.390625 -16.171875 Z M 10.390625 -16.171875" transform="translate(270.354 271.953)"/></g></g></g><g fill="#FFF"><g><g><path d="M 6.640625 -2.109375 L 2.15625 -2.109375 L 1.234375 0 L -0.015625 0 L 3.8125 -8.4375 L 5 -8.4375 L 8.828125 0 L 7.5625 0 Z M 6.21875 -3.078125 L 4.390625 -7.203125 L 2.578125 -3.078125 Z M 6.21875 -3.078125" transform="translate(83.975 314.763)"/></g></g></g><g fill="#FFF"><g><g><path d="M 5.03125 0.09375 C 4.1875 0.09375 3.425781 -0.09375 2.75 -0.46875 C 2.070312 -0.84375 1.539062 -1.351562 1.15625 -2 C 0.769531 -2.65625 0.578125 -3.394531 0.578125 -4.21875 C 0.578125 -5.03125 0.769531 -5.765625 1.15625 -6.421875 C 1.539062 -7.078125 2.070312 -7.59375 2.75 -7.96875 C 3.4375 -8.34375 4.203125 -8.53125 5.046875 -8.53125 C 5.703125 -8.53125 6.300781 -8.414062 6.84375 -8.1875 C 7.394531 -7.96875 7.863281 -7.644531 8.25 -7.21875 L 7.46875 -6.453125 C 6.832031 -7.117188 6.039062 -7.453125 5.09375 -7.453125 C 4.46875 -7.453125 3.898438 -7.3125 3.390625 -7.03125 C 2.890625 -6.75 2.492188 -6.359375 2.203125 -5.859375 C 1.921875 -5.367188 1.78125 -4.820312 1.78125 -4.21875 C 1.78125 -3.601562 1.921875 -3.046875 2.203125 -2.546875 C 2.492188 -2.054688 2.890625 -1.671875 3.390625 -1.390625 C 3.898438 -1.109375 4.46875 -0.96875 5.09375 -0.96875 C 6.03125 -0.96875 6.820312 -1.304688 7.46875 -1.984375 L 8.25 -1.234375 C 7.863281 -0.796875 7.394531 -0.460938 6.84375 -0.234375 C 6.289062 -0.015625 5.6875 0.09375 5.03125 0.09375 Z M 5.03125 0.09375" transform="translate(95.977 314.763)"/></g></g></g><g fill="#FFF"><g><g><path d="M 6.640625 -2.109375 L 2.15625 -2.109375 L 1.234375 0 L -0.015625 0 L 3.8125 -8.4375 L 5 -8.4375 L 8.828125 0 L 7.5625 0 Z M 6.21875 -3.078125 L 4.390625 -7.203125 L 2.578125 -3.078125 Z M 6.21875 -3.078125" transform="translate(107.87 314.763)"/></g></g></g><g fill="#FFF"><g><g><path d="M 1.265625 -8.4375 L 4.8125 -8.4375 C 5.707031 -8.4375 6.5 -8.257812 7.1875 -7.90625 C 7.882812 -7.550781 8.421875 -7.050781 8.796875 -6.40625 C 9.179688 -5.769531 9.375 -5.039062 9.375 -4.21875 C 9.375 -3.382812 9.179688 -2.648438 8.796875 -2.015625 C 8.421875 -1.378906 7.882812 -0.882812 7.1875 -0.53125 C 6.5 -0.175781 5.707031 0 4.8125 0 L 1.265625 0 Z M 4.75 -1.046875 C 5.425781 -1.046875 6.023438 -1.175781 6.546875 -1.4375 C 7.066406 -1.707031 7.46875 -2.082031 7.75 -2.5625 C 8.03125 -3.039062 8.171875 -3.59375 8.171875 -4.21875 C 8.171875 -4.84375 8.03125 -5.394531 7.75 -5.875 C 7.46875 -6.351562 7.066406 -6.722656 6.546875 -6.984375 C 6.023438 -7.253906 5.425781 -7.390625 4.75 -7.390625 L 2.46875 -7.390625 L 2.46875 -1.046875 Z M 4.75 -1.046875" transform="translate(119.872 314.763)"/></g></g></g><g fill="#FFF"><g><g><path d="M 7.390625 -1.046875 L 7.390625 0 L 1.265625 0 L 1.265625 -8.4375 L 7.21875 -8.4375 L 7.21875 -7.390625 L 2.46875 -7.390625 L 2.46875 -4.796875 L 6.703125 -4.796875 L 6.703125 -3.765625 L 2.46875 -3.765625 L 2.46875 -1.046875 Z M 7.390625 -1.046875" transform="translate(133.005 314.763)"/></g></g></g><g fill="#FFF"><g><g><path d="M 9.078125 0 L 9.078125 -6.140625 L 6.015625 -1.03125 L 5.46875 -1.03125 L 2.421875 -6.109375 L 2.421875 0 L 1.265625 0 L 1.265625 -8.4375 L 2.25 -8.4375 L 5.765625 -2.5 L 9.234375 -8.4375 L 10.234375 -8.4375 L 10.234375 0 Z M 9.078125 0" transform="translate(144.261 314.763)"/></g></g></g><g fill="#FFF"><g><g><path d="M 1.265625 -8.4375 L 2.46875 -8.4375 L 2.46875 0 L 1.265625 0 Z M 1.265625 -8.4375" transform="translate(158.947 314.763)"/></g></g></g><g fill="#FFF"><g><g><path d="M 5.03125 0.09375 C 4.1875 0.09375 3.425781 -0.09375 2.75 -0.46875 C 2.070312 -0.84375 1.539062 -1.351562 1.15625 -2 C 0.769531 -2.65625 0.578125 -3.394531 0.578125 -4.21875 C 0.578125 -5.03125 0.769531 -5.765625 1.15625 -6.421875 C 1.539062 -7.078125 2.070312 -7.59375 2.75 -7.96875 C 3.4375 -8.34375 4.203125 -8.53125 5.046875 -8.53125 C 5.703125 -8.53125 6.300781 -8.414062 6.84375 -8.1875 C 7.394531 -7.96875 7.863281 -7.644531 8.25 -7.21875 L 7.46875 -6.453125 C 6.832031 -7.117188 6.039062 -7.453125 5.09375 -7.453125 C 4.46875 -7.453125 3.898438 -7.3125 3.390625 -7.03125 C 2.890625 -6.75 2.492188 -6.359375 2.203125 -5.859375 C 1.921875 -5.367188 1.78125 -4.820312 1.78125 -4.21875 C 1.78125 -3.601562 1.921875 -3.046875 2.203125 -2.546875 C 2.492188 -2.054688 2.890625 -1.671875 3.390625 -1.390625 C 3.898438 -1.109375 4.46875 -0.96875 5.09375 -0.96875 C 6.03125 -0.96875 6.820312 -1.304688 7.46875 -1.984375 L 8.25 -1.234375 C 7.863281 -0.796875 7.394531 -0.460938 6.84375 -0.234375 C 6.289062 -0.015625 5.6875 0.09375 5.03125 0.09375 Z M 5.03125 0.09375" transform="translate(165.87 314.763)"/></g></g></g><g fill="#FFF"><g><g><path d="M 7.390625 -1.046875 L 7.390625 0 L 1.265625 0 L 1.265625 -8.4375 L 7.21875 -8.4375 L 7.21875 -7.390625 L 2.46875 -7.390625 L 2.46875 -4.796875 L 6.703125 -4.796875 L 6.703125 -3.765625 L 2.46875 -3.765625 L 2.46875 -1.046875 Z M 7.390625 -1.046875" transform="translate(184.193 314.763)"/></g></g></g><g fill="#FFF"><g><g><path d="M 6.90625 0 L 5.078125 -2.59375 C 4.859375 -2.570312 4.679688 -2.5625 4.546875 -2.5625 L 2.46875 -2.5625 L 2.46875 0 L 1.265625 0 L 1.265625 -8.4375 L 4.546875 -8.4375 C 5.640625 -8.4375 6.5 -8.171875 7.125 -7.640625 C 7.757812 -7.117188 8.078125 -6.40625 8.078125 -5.5 C 8.078125 -4.84375 7.914062 -4.285156 7.59375 -3.828125 C 7.269531 -3.367188 6.8125 -3.035156 6.21875 -2.828125 L 8.21875 0 Z M 4.515625 -3.59375 C 5.273438 -3.59375 5.851562 -3.753906 6.25 -4.078125 C 6.65625 -4.410156 6.859375 -4.882812 6.859375 -5.5 C 6.859375 -6.101562 6.65625 -6.566406 6.25 -6.890625 C 5.851562 -7.222656 5.273438 -7.390625 4.515625 -7.390625 L 2.46875 -7.390625 L 2.46875 -3.59375 Z M 4.515625 -3.59375" transform="translate(195.45 314.763)"/></g></g></g><g fill="#FFF"><g><g><path d="M 4.546875 -8.4375 C 5.640625 -8.4375 6.5 -8.171875 7.125 -7.640625 C 7.757812 -7.117188 8.078125 -6.40625 8.078125 -5.5 C 8.078125 -4.582031 7.757812 -3.859375 7.125 -3.328125 C 6.5 -2.804688 5.640625 -2.546875 4.546875 -2.546875 L 2.46875 -2.546875 L 2.46875 0 L 1.265625 0 L 1.265625 -8.4375 Z M 4.515625 -3.609375 C 5.273438 -3.609375 5.851562 -3.769531 6.25 -4.09375 C 6.65625 -4.414062 6.859375 -4.882812 6.859375 -5.5 C 6.859375 -6.101562 6.65625 -6.566406 6.25 -6.890625 C 5.851562 -7.222656 5.273438 -7.390625 4.515625 -7.390625 L 2.46875 -7.390625 L 2.46875 -3.609375 Z M 4.515625 -3.609375" transform="translate(207.391 314.763)"/></g></g></g><g fill="#FFF"><g><g><path d="M 3.71875 0.09375 C 3.082031 0.09375 2.46875 -0.00390625 1.875 -0.203125 C 1.289062 -0.398438 0.832031 -0.65625 0.5 -0.96875 L 0.9375 -1.90625 C 1.257812 -1.613281 1.671875 -1.375 2.171875 -1.1875 C 2.671875 -1.007812 3.1875 -0.921875 3.71875 -0.921875 C 4.414062 -0.921875 4.9375 -1.039062 5.28125 -1.28125 C 5.632812 -1.519531 5.8125 -1.835938 5.8125 -2.234375 C 5.8125 -2.515625 5.710938 -2.742188 5.515625 -2.921875 C 5.328125 -3.109375 5.09375 -3.25 4.8125 -3.34375 C 4.539062 -3.445312 4.15625 -3.554688 3.65625 -3.671875 C 3.019531 -3.828125 2.503906 -3.976562 2.109375 -4.125 C 1.722656 -4.28125 1.390625 -4.515625 1.109375 -4.828125 C 0.835938 -5.148438 0.703125 -5.582031 0.703125 -6.125 C 0.703125 -6.570312 0.816406 -6.972656 1.046875 -7.328125 C 1.285156 -7.691406 1.644531 -7.984375 2.125 -8.203125 C 2.613281 -8.421875 3.210938 -8.53125 3.921875 -8.53125 C 4.421875 -8.53125 4.910156 -8.460938 5.390625 -8.328125 C 5.878906 -8.203125 6.296875 -8.019531 6.640625 -7.78125 L 6.234375 -6.8125 C 5.878906 -7.039062 5.5 -7.210938 5.09375 -7.328125 C 4.695312 -7.441406 4.304688 -7.5 3.921875 -7.5 C 3.242188 -7.5 2.734375 -7.375 2.390625 -7.125 C 2.046875 -6.882812 1.875 -6.566406 1.875 -6.171875 C 1.875 -5.878906 1.96875 -5.640625 2.15625 -5.453125 C 2.351562 -5.273438 2.59375 -5.132812 2.875 -5.03125 C 3.164062 -4.9375 3.554688 -4.832031 4.046875 -4.71875 C 4.679688 -4.570312 5.191406 -4.421875 5.578125 -4.265625 C 5.960938 -4.109375 6.289062 -3.875 6.5625 -3.5625 C 6.84375 -3.25 6.984375 -2.828125 6.984375 -2.296875 C 6.984375 -1.859375 6.863281 -1.457031 6.625 -1.09375 C 6.382812 -0.726562 6.019531 -0.4375 5.53125 -0.21875 C 5.039062 -0.0078125 4.4375 0.09375 3.71875 0.09375 Z M 3.71875 0.09375" transform="translate(225.702 314.763)"/></g></g></g><g fill="#FFF"><g><g><path d="M 4.5 -2.921875 L 4.5 0 L 3.296875 0 L 3.296875 -2.9375 L -0.046875 -8.4375 L 1.234375 -8.4375 L 3.9375 -3.984375 L 6.65625 -8.4375 L 7.84375 -8.4375 Z M 4.5 -2.921875" transform="translate(236.368 314.763)"/></g></g></g><g fill="#FFF"><g><g><path d="M 3.71875 0.09375 C 3.082031 0.09375 2.46875 -0.00390625 1.875 -0.203125 C 1.289062 -0.398438 0.832031 -0.65625 0.5 -0.96875 L 0.9375 -1.90625 C 1.257812 -1.613281 1.671875 -1.375 2.171875 -1.1875 C 2.671875 -1.007812 3.1875 -0.921875 3.71875 -0.921875 C 4.414062 -0.921875 4.9375 -1.039062 5.28125 -1.28125 C 5.632812 -1.519531 5.8125 -1.835938 5.8125 -2.234375 C 5.8125 -2.515625 5.710938 -2.742188 5.515625 -2.921875 C 5.328125 -3.109375 5.09375 -3.25 4.8125 -3.34375 C 4.539062 -3.445312 4.15625 -3.554688 3.65625 -3.671875 C 3.019531 -3.828125 2.503906 -3.976562 2.109375 -4.125 C 1.722656 -4.28125 1.390625 -4.515625 1.109375 -4.828125 C 0.835938 -5.148438 0.703125 -5.582031 0.703125 -6.125 C 0.703125 -6.570312 0.816406 -6.972656 1.046875 -7.328125 C 1.285156 -7.691406 1.644531 -7.984375 2.125 -8.203125 C 2.613281 -8.421875 3.210938 -8.53125 3.921875 -8.53125 C 4.421875 -8.53125 4.910156 -8.460938 5.390625 -8.328125 C 5.878906 -8.203125 6.296875 -8.019531 6.640625 -7.78125 L 6.234375 -6.8125 C 5.878906 -7.039062 5.5 -7.210938 5.09375 -7.328125 C 4.695312 -7.441406 4.304688 -7.5 3.921875 -7.5 C 3.242188 -7.5 2.734375 -7.375 2.390625 -7.125 C 2.046875 -6.882812 1.875 -6.566406 1.875 -6.171875 C 1.875 -5.878906 1.96875 -5.640625 2.15625 -5.453125 C 2.351562 -5.273438 2.59375 -5.132812 2.875 -5.03125 C 3.164062 -4.9375 3.554688 -4.832031 4.046875 -4.71875 C 4.679688 -4.570312 5.191406 -4.421875 5.578125 -4.265625 C 5.960938 -4.109375 6.289062 -3.875 6.5625 -3.5625 C 6.84375 -3.25 6.984375 -2.828125 6.984375 -2.296875 C 6.984375 -1.859375 6.863281 -1.457031 6.625 -1.09375 C 6.382812 -0.726562 6.019531 -0.4375 5.53125 -0.21875 C 5.039062 -0.0078125 4.4375 0.09375 3.71875 0.09375 Z M 3.71875 0.09375" transform="translate(247.347 314.763)"/></g></g></g><g fill="#FFF"><g><g><path d="M 2.9375 -7.390625 L 0.046875 -7.390625 L 0.046875 -8.4375 L 7.015625 -8.4375 L 7.015625 -7.390625 L 4.125 -7.390625 L 4.125 0 L 2.9375 0 Z M 2.9375 -7.390625" transform="translate(258.013 314.763)"/></g></g></g><g fill="#FFF"><g><g><path d="M 7.390625 -1.046875 L 7.390625 0 L 1.265625 0 L 1.265625 -8.4375 L 7.21875 -8.4375 L 7.21875 -7.390625 L 2.46875 -7.390625 L 2.46875 -4.796875 L 6.703125 -4.796875 L 6.703125 -3.765625 L 2.46875 -3.765625 L 2.46875 -1.046875 Z M 7.390625 -1.046875" transform="translate(268.27 314.763)"/></g></g></g><g fill="#FFF"><g><g><path d="M 9.078125 0 L 9.078125 -6.140625 L 6.015625 -1.03125 L 5.46875 -1.03125 L 2.421875 -6.109375 L 2.421875 0 L 1.265625 0 L 1.265625 -8.4375 L 2.25 -8.4375 L 5.765625 -2.5 L 9.234375 -8.4375 L 10.234375 -8.4375 L 10.234375 0 Z M 9.078125 0" transform="translate(279.526 314.763)"/></g></g></g><g clip-path="url(#a)"><path fill="#DA5424" d="M 197.046875 191.320312 C 229.058594 175.554688 258.101562 172.800781 272.511719 172.554688 C 277.734375 172.464844 281.984375 176.734375 281.882812 181.960938 C 281.785156 186.855469 277.890625 190.828125 273.003906 191 C 230.996094 192.488281 189.636719 201.757812 189.636719 201.757812 C 189.480469 196.992188 189.636719 195.851562 189.636719 195.851562 C 190.359375 193.8125 197.046875 191.320312 197.046875 191.320312"/></g><path fill="#DA5424" d="M 193.851562 181.097656 C 213.003906 165.109375 232.277344 158.453125 242.023438 155.910156 C 245.554688 154.988281 249.144531 157.183594 249.933594 160.753906 C 250.675781 164.09375 248.679688 167.433594 245.390625 168.355469 C 217.105469 176.292969 190.539062 189.40625 190.539062 189.40625 C 189.648438 186.195312 189.566406 185.394531 189.566406 185.394531 C 189.722656 183.890625 193.851562 181.097656 193.851562 181.097656"/><g clip-path="url(#b)"><path fill="#FAA91C" d="M 177.964844 191.320312 C 145.953125 175.554688 116.90625 172.800781 102.496094 172.554688 C 97.277344 172.464844 93.023438 176.734375 93.125 181.960938 C 93.222656 186.855469 97.121094 190.828125 102.003906 191 C 144.015625 192.488281 185.371094 201.757812 185.371094 201.757812 C 185.527344 196.992188 185.371094 195.851562 185.371094 195.851562 C 184.648438 193.8125 177.964844 191.320312 177.964844 191.320312"/></g><path fill="#FAA91C" d="M 181.15625 181.097656 C 162.007812 165.109375 142.734375 158.453125 132.984375 155.910156 C 129.453125 154.988281 125.867188 157.183594 125.074219 160.753906 C 124.335938 164.09375 126.328125 167.433594 129.617188 168.355469 C 157.90625 176.292969 184.472656 189.40625 184.472656 189.40625 C 185.363281 186.195312 185.441406 185.394531 185.441406 185.394531 C 185.289062 183.890625 181.15625 181.097656 181.15625 181.097656"/><g clip-path="url(#c)"><path fill="#4270C5" d="M 233.328125 128.054688 L 210.097656 139.984375 L 210.148438 153.371094 L 209.996094 153.394531 L 209.996094 153.699219 L 207.863281 153.683594 L 187.59375 156.464844 L 164.996094 153.699219 L 164.996094 153.371094 L 164.84375 153.371094 L 164.898438 139.679688 L 141.800781 127.390625 C 141.75 127.363281 141.699219 127.332031 141.652344 127.304688 L 141.605469 134.0625 C 142.394531 134.257812 142.957031 134.765625 142.953125 135.359375 L 142.851562 149.066406 C 142.847656 149.820312 141.921875 150.421875 140.785156 150.414062 C 139.648438 150.40625 138.734375 149.789062 138.738281 149.035156 L 138.839844 135.328125 C 138.84375 134.738281 139.410156 134.238281 140.207031 134.054688 L 140.269531 125.25 C 140.085938 124.109375 140.5625 122.875 141.707031 122.210938 L 153.207031 115.558594 L 164.109375 109.253906 L 171.507812 104.96875 L 182.40625 98.664062 L 186.292969 96.417969 C 186.757812 96.148438 187.277344 96.015625 187.792969 96.019531 C 188.3125 96.023438 188.828125 96.160156 189.289062 96.4375 L 189.804688 96.746094 L 200.707031 103.265625 L 208.105469 107.691406 L 219.003906 114.210938 L 233.492188 122.878906 C 235.488281 124.070312 235.394531 126.996094 233.328125 128.054688"/></g><path fill="#4270C5" d="M 187.59375 156.464844 L 187.828125 124.4375 L 210.140625 132.578125 L 209.984375 153.726562 L 187.59375 156.464844"/></svg>