<svg xmlns="http://www.w3.org/2000/svg" width="524.25" viewBox="0 0 524.25 1125" height="1125" version="1.0"><defs><clipPath id="a"><path d="M 116.40625 198.683594 L 406.988281 198.683594 L 406.988281 465.304688 L 116.40625 465.304688 Z M 116.40625 198.683594"/></clipPath></defs><path fill="#4270C5" d="M 261.691406 254.472656 C 299.742188 254.472656 330.59375 285.300781 330.59375 323.324219 C 330.59375 361.347656 299.742188 392.175781 261.691406 392.175781 L 193.648438 392.175781 C 201.679688 386.765625 208.960938 380.855469 215.703125 374.589844 L 215.734375 374.613281 C 201.648438 362.011719 192.800781 343.714844 192.800781 323.324219 C 192.800781 285.300781 223.652344 254.472656 261.699219 254.472656 Z M 261.691406 254.472656" fill-rule="evenodd"/><g clip-path="url(#a)"><path fill="#FAA91C" d="M 151.894531 264.550781 L 150.066406 264.550781 C 131.550781 264.550781 116.40625 279.6875 116.40625 298.183594 L 116.40625 330.796875 C 116.40625 349.347656 131.625 364.433594 150.066406 364.433594 L 168.640625 364.433594 C 163.074219 351.863281 159.976562 337.949219 159.976562 323.316406 C 159.976562 267.363281 205.332031 221.660156 261.699219 221.660156 C 318.0625 221.660156 363.421875 267.355469 363.421875 323.316406 C 363.421875 337.949219 360.335938 351.855469 354.761719 364.433594 C 342.230469 392.71875 317.167969 414.210938 286.613281 421.898438 C 281.632812 413.324219 272.335938 407.566406 261.699219 407.566406 C 245.800781 407.566406 232.90625 420.441406 232.90625 436.339844 C 232.90625 452.226562 245.800781 465.109375 261.699219 465.109375 C 274.683594 465.109375 285.667969 456.519531 289.253906 444.707031 C 331.480469 435.179688 365.570312 404.226562 379.472656 363.863281 C 395.074219 360.957031 406.988281 347.195312 406.988281 330.796875 L 406.988281 298.183594 C 406.988281 279.6875 391.84375 264.550781 373.328125 264.550781 L 371.5 264.550781 C 350.503906 225.457031 309.207031 198.878906 261.691406 198.878906 C 214.1875 198.878906 172.890625 225.457031 151.886719 264.550781 Z M 151.894531 264.550781" fill-rule="evenodd"/></g><g fill="#FFF"><g><g><path d="M 2.375 -32.734375 L 11.859375 -32.734375 C 16.410156 -32.734375 20.300781 -31.179688 23.53125 -28.078125 C 26.757812 -24.972656 28.375 -21.078125 28.375 -16.390625 C 28.375 -11.679688 26.765625 -7.769531 23.546875 -4.65625 C 20.335938 -1.550781 16.441406 0 11.859375 0 L 2.375 0 Z M 9.84375 -6.671875 L 11 -6.671875 C 13.71875 -6.671875 15.941406 -7.585938 17.671875 -9.421875 C 19.410156 -11.265625 20.289062 -13.570312 20.3125 -16.34375 C 20.3125 -19.125 19.445312 -21.441406 17.71875 -23.296875 C 15.988281 -25.148438 13.75 -26.078125 11 -26.078125 L 9.84375 -26.078125 Z M 9.84375 -6.671875" transform="translate(93.397 628.5)"/></g></g></g><g fill="#FFF"><g><g><path d="M 0.90625 -16.390625 C 0.90625 -21.128906 2.519531 -25.140625 5.75 -28.421875 C 8.976562 -31.703125 12.867188 -33.34375 17.421875 -33.34375 C 21.992188 -33.34375 25.878906 -31.707031 29.078125 -28.4375 C 32.285156 -25.164062 33.890625 -21.148438 33.890625 -16.390625 C 33.890625 -11.597656 32.316406 -7.566406 29.171875 -4.296875 C 26.023438 -1.035156 22.109375 0.59375 17.421875 0.59375 C 12.628906 0.59375 8.675781 -1.023438 5.5625 -4.265625 C 2.457031 -7.503906 0.90625 -11.546875 0.90625 -16.390625 Z M 8.96875 -16.390625 C 8.96875 -14.671875 9.234375 -13.101562 9.765625 -11.6875 C 10.296875 -10.269531 11.222656 -9.070312 12.546875 -8.09375 C 13.867188 -7.113281 15.492188 -6.625 17.421875 -6.625 C 20.203125 -6.625 22.300781 -7.578125 23.71875 -9.484375 C 25.132812 -11.390625 25.84375 -13.691406 25.84375 -16.390625 C 25.84375 -19.066406 25.117188 -21.363281 23.671875 -23.28125 C 22.234375 -25.195312 20.148438 -26.15625 17.421875 -26.15625 C 14.722656 -26.15625 12.640625 -25.195312 11.171875 -23.28125 C 9.703125 -21.363281 8.96875 -19.066406 8.96875 -16.390625 Z M 8.96875 -16.390625" transform="translate(122.682 628.5)"/></g></g></g><g fill="#FFF"><g><g><path d="M -1.1875 -32.734375 L 7.78125 -32.734375 L 14.609375 -22.265625 L 21.4375 -32.734375 L 30.40625 -32.734375 L 18.328125 -14.6875 L 18.328125 0 L 10.875 0 L 10.875 -14.6875 Z M -1.1875 -32.734375" transform="translate(168.316 628.5)"/></g></g></g><g fill="#FFF"><g><g><path d="M 0.90625 -16.390625 C 0.90625 -21.128906 2.519531 -25.140625 5.75 -28.421875 C 8.976562 -31.703125 12.867188 -33.34375 17.421875 -33.34375 C 21.992188 -33.34375 25.878906 -31.707031 29.078125 -28.4375 C 32.285156 -25.164062 33.890625 -21.148438 33.890625 -16.390625 C 33.890625 -11.597656 32.316406 -7.566406 29.171875 -4.296875 C 26.023438 -1.035156 22.109375 0.59375 17.421875 0.59375 C 12.628906 0.59375 8.675781 -1.023438 5.5625 -4.265625 C 2.457031 -7.503906 0.90625 -11.546875 0.90625 -16.390625 Z M 8.96875 -16.390625 C 8.96875 -14.671875 9.234375 -13.101562 9.765625 -11.6875 C 10.296875 -10.269531 11.222656 -9.070312 12.546875 -8.09375 C 13.867188 -7.113281 15.492188 -6.625 17.421875 -6.625 C 20.203125 -6.625 22.300781 -7.578125 23.71875 -9.484375 C 25.132812 -11.390625 25.84375 -13.691406 25.84375 -16.390625 C 25.84375 -19.066406 25.117188 -21.363281 23.671875 -23.28125 C 22.234375 -25.195312 20.148438 -26.15625 17.421875 -26.15625 C 14.722656 -26.15625 12.640625 -25.195312 11.171875 -23.28125 C 9.703125 -21.363281 8.96875 -19.066406 8.96875 -16.390625 Z M 8.96875 -16.390625" transform="translate(197.522 628.5)"/></g></g></g><g fill="#FFF"><g><g><path d="M 27.546875 -32.734375 L 27.546875 -11.625 C 27.546875 -7.601562 26.457031 -4.5625 24.28125 -2.5 C 22.113281 -0.4375 18.941406 0.59375 14.765625 0.59375 C 10.585938 0.59375 7.410156 -0.4375 5.234375 -2.5 C 3.066406 -4.5625 1.984375 -7.601562 1.984375 -11.625 L 1.984375 -32.734375 L 9.453125 -32.734375 L 9.453125 -13.8125 C 9.453125 -11.164062 9.867188 -9.328125 10.703125 -8.296875 C 11.535156 -7.265625 12.890625 -6.75 14.765625 -6.75 C 16.640625 -6.75 17.992188 -7.265625 18.828125 -8.296875 C 19.660156 -9.328125 20.078125 -11.164062 20.078125 -13.8125 L 20.078125 -32.734375 Z M 27.546875 -32.734375" transform="translate(232.323 628.5)"/></g></g></g><g fill="#FFF"><g><g><path d="M 9.84375 -13.140625 L 9.84375 0 L 2.375 0 L 2.375 -32.734375 L 9.84375 -32.734375 L 9.84375 -19.6875 L 20.40625 -19.6875 L 20.40625 -32.734375 L 27.859375 -32.734375 L 27.859375 0 L 20.40625 0 L 20.40625 -13.140625 Z M 9.84375 -13.140625" transform="translate(272.679 628.5)"/></g></g></g><g fill="#FFF"><g><g><path d="M 19.015625 -32.734375 L 32.21875 0 L 24.203125 0 L 21.78125 -6.546875 L 9.328125 -6.546875 L 6.90625 0 L -1.109375 0 L 12.109375 -32.734375 Z M 19.25 -13.09375 L 15.59375 -22.625 L 15.515625 -22.625 L 11.859375 -13.09375 Z M 19.25 -13.09375" transform="translate(302.916 628.5)"/></g></g></g><g fill="#FFF"><g><g><path d="M 12.625 0 L -1.109375 -32.734375 L 7.296875 -32.734375 L 15.5625 -11.234375 L 23.8125 -32.734375 L 32.21875 -32.734375 L 18.5 0 Z M 12.625 0" transform="translate(334.027 628.5)"/></g></g></g><g fill="#FFF"><g><g><path d="M 21.109375 -32.734375 L 21.109375 -26.1875 L 9.84375 -26.1875 L 9.84375 -19.6875 L 20.640625 -19.6875 L 20.640625 -13.140625 L 9.84375 -13.140625 L 9.84375 -6.546875 L 21.109375 -6.546875 L 21.109375 0 L 2.375 0 L 2.375 -32.734375 Z M 21.109375 -32.734375" transform="translate(365.137 628.5)"/></g></g></g><g fill="#FFF"><g><g><path d="M 19.015625 -32.734375 L 32.21875 0 L 24.203125 0 L 21.78125 -6.546875 L 9.328125 -6.546875 L 6.90625 0 L -1.109375 0 L 12.109375 -32.734375 Z M 19.25 -13.09375 L 15.59375 -22.625 L 15.515625 -22.625 L 11.859375 -13.09375 Z M 19.25 -13.09375" transform="translate(398.985 628.5)"/></g></g></g><g fill="#FFF"><g><g><path d="M 19.796875 -6.75 C 20.941406 -6.75 22.046875 -6.921875 23.109375 -7.265625 C 24.179688 -7.609375 24.972656 -7.9375 25.484375 -8.25 L 26.234375 -8.765625 L 29.40625 -2.421875 C 29.300781 -2.335938 29.15625 -2.226562 28.96875 -2.09375 C 28.78125 -1.96875 28.347656 -1.722656 27.671875 -1.359375 C 27.003906 -1.003906 26.285156 -0.695312 25.515625 -0.4375 C 24.753906 -0.175781 23.75 0.0546875 22.5 0.265625 C 21.257812 0.484375 19.976562 0.59375 18.65625 0.59375 C 15.613281 0.59375 12.726562 -0.148438 10 -1.640625 C 7.269531 -3.140625 5.070312 -5.195312 3.40625 -7.8125 C 1.738281 -10.4375 0.90625 -13.269531 0.90625 -16.3125 C 0.90625 -18.613281 1.394531 -20.820312 2.375 -22.9375 C 3.351562 -25.050781 4.65625 -26.863281 6.28125 -28.375 C 7.914062 -29.882812 9.816406 -31.085938 11.984375 -31.984375 C 14.148438 -32.890625 16.375 -33.34375 18.65625 -33.34375 C 20.769531 -33.34375 22.71875 -33.085938 24.5 -32.578125 C 26.289062 -32.078125 27.554688 -31.578125 28.296875 -31.078125 L 29.40625 -30.328125 L 26.234375 -23.96875 C 26.046875 -24.125 25.765625 -24.316406 25.390625 -24.546875 C 25.023438 -24.773438 24.285156 -25.070312 23.171875 -25.4375 C 22.066406 -25.8125 20.941406 -26 19.796875 -26 C 18.003906 -26 16.390625 -25.707031 14.953125 -25.125 C 13.523438 -24.539062 12.394531 -23.769531 11.5625 -22.8125 C 10.726562 -21.863281 10.09375 -20.835938 9.65625 -19.734375 C 9.226562 -18.640625 9.015625 -17.523438 9.015625 -16.390625 C 9.015625 -13.898438 9.945312 -11.671875 11.8125 -9.703125 C 13.675781 -7.734375 16.335938 -6.75 19.796875 -6.75 Z M 19.796875 -6.75" transform="translate(170.724 704.89)"/></g></g></g><g fill="#FFF"><g><g><path d="M 27.546875 -32.734375 L 27.546875 -11.625 C 27.546875 -7.601562 26.457031 -4.5625 24.28125 -2.5 C 22.113281 -0.4375 18.941406 0.59375 14.765625 0.59375 C 10.585938 0.59375 7.410156 -0.4375 5.234375 -2.5 C 3.066406 -4.5625 1.984375 -7.601562 1.984375 -11.625 L 1.984375 -32.734375 L 9.453125 -32.734375 L 9.453125 -13.8125 C 9.453125 -11.164062 9.867188 -9.328125 10.703125 -8.296875 C 11.535156 -7.265625 12.890625 -6.75 14.765625 -6.75 C 16.640625 -6.75 17.992188 -7.265625 18.828125 -8.296875 C 19.660156 -9.328125 20.078125 -11.164062 20.078125 -13.8125 L 20.078125 -32.734375 Z M 27.546875 -32.734375" transform="translate(200.605 704.89)"/></g></g></g><g fill="#FFF"><g><g><path d="M 14.453125 -33.34375 C 16.222656 -33.34375 17.953125 -33.082031 19.640625 -32.5625 C 21.335938 -32.050781 22.597656 -31.539062 23.421875 -31.03125 L 24.609375 -30.234375 L 21.59375 -24.28125 C 21.351562 -24.445312 21.019531 -24.65625 20.59375 -24.90625 C 20.175781 -25.15625 19.382812 -25.488281 18.21875 -25.90625 C 17.050781 -26.332031 15.96875 -26.546875 14.96875 -26.546875 C 13.71875 -26.546875 12.753906 -26.28125 12.078125 -25.75 C 11.410156 -25.226562 11.078125 -24.515625 11.078125 -23.609375 C 11.078125 -23.160156 11.234375 -22.742188 11.546875 -22.359375 C 11.867188 -21.972656 12.410156 -21.5625 13.171875 -21.125 C 13.941406 -20.695312 14.617188 -20.347656 15.203125 -20.078125 C 15.785156 -19.816406 16.6875 -19.421875 17.90625 -18.890625 C 20.019531 -17.992188 21.820312 -16.769531 23.3125 -15.21875 C 24.8125 -13.664062 25.5625 -11.914062 25.5625 -9.96875 C 25.5625 -8.082031 25.222656 -6.4375 24.546875 -5.03125 C 23.867188 -3.632812 22.941406 -2.539062 21.765625 -1.75 C 20.585938 -0.957031 19.285156 -0.367188 17.859375 0.015625 C 16.429688 0.398438 14.882812 0.59375 13.21875 0.59375 C 11.789062 0.59375 10.382812 0.445312 9 0.15625 C 7.625 -0.132812 6.472656 -0.5 5.546875 -0.9375 C 4.628906 -1.375 3.796875 -1.800781 3.046875 -2.21875 C 2.304688 -2.644531 1.765625 -3.003906 1.421875 -3.296875 L 0.90625 -3.734375 L 4.640625 -10 C 4.960938 -9.738281 5.398438 -9.398438 5.953125 -8.984375 C 6.503906 -8.578125 7.488281 -8.03125 8.90625 -7.34375 C 10.320312 -6.65625 11.570312 -6.3125 12.65625 -6.3125 C 15.8125 -6.3125 17.390625 -7.382812 17.390625 -9.53125 C 17.390625 -9.976562 17.273438 -10.390625 17.046875 -10.765625 C 16.816406 -11.148438 16.414062 -11.535156 15.84375 -11.921875 C 15.28125 -12.304688 14.78125 -12.609375 14.34375 -12.828125 C 13.90625 -13.054688 13.191406 -13.398438 12.203125 -13.859375 C 11.210938 -14.328125 10.476562 -14.679688 10 -14.921875 C 8.019531 -15.898438 6.484375 -17.125 5.390625 -18.59375 C 4.304688 -20.0625 3.765625 -21.644531 3.765625 -23.34375 C 3.765625 -26.269531 4.847656 -28.664062 7.015625 -30.53125 C 9.191406 -32.40625 11.671875 -33.34375 14.453125 -33.34375 Z M 14.453125 -33.34375" transform="translate(230.128 704.89)"/></g></g></g><g fill="#FFF"><g><g><path d="M 0.3125 -26.1875 L 0.3125 -32.734375 L 23.34375 -32.734375 L 23.34375 -26.1875 L 15.5625 -26.1875 L 15.5625 0 L 8.09375 0 L 8.09375 -26.1875 Z M 0.3125 -26.1875" transform="translate(256.794 704.89)"/></g></g></g><g fill="#FFF"><g><g><path d="M 0.90625 -16.390625 C 0.90625 -21.128906 2.519531 -25.140625 5.75 -28.421875 C 8.976562 -31.703125 12.867188 -33.34375 17.421875 -33.34375 C 21.992188 -33.34375 25.878906 -31.707031 29.078125 -28.4375 C 32.285156 -25.164062 33.890625 -21.148438 33.890625 -16.390625 C 33.890625 -11.597656 32.316406 -7.566406 29.171875 -4.296875 C 26.023438 -1.035156 22.109375 0.59375 17.421875 0.59375 C 12.628906 0.59375 8.675781 -1.023438 5.5625 -4.265625 C 2.457031 -7.503906 0.90625 -11.546875 0.90625 -16.390625 Z M 8.96875 -16.390625 C 8.96875 -14.671875 9.234375 -13.101562 9.765625 -11.6875 C 10.296875 -10.269531 11.222656 -9.070312 12.546875 -8.09375 C 13.867188 -7.113281 15.492188 -6.625 17.421875 -6.625 C 20.203125 -6.625 22.300781 -7.578125 23.71875 -9.484375 C 25.132812 -11.390625 25.84375 -13.691406 25.84375 -16.390625 C 25.84375 -19.066406 25.117188 -21.363281 23.671875 -23.28125 C 22.234375 -25.195312 20.148438 -26.15625 17.421875 -26.15625 C 14.722656 -26.15625 12.640625 -25.195312 11.171875 -23.28125 C 9.703125 -21.363281 8.96875 -19.066406 8.96875 -16.390625 Z M 8.96875 -16.390625" transform="translate(280.444 704.89)"/></g></g></g><g fill="#FFF"><g><g><path d="M 29.453125 0 L 27.90625 -19.40625 L 27.703125 -19.40625 L 21 -0.203125 L 16.546875 -0.203125 L 9.84375 -19.40625 L 9.640625 -19.40625 L 8.09375 0 L 0.640625 0 L 3.578125 -32.734375 L 11.515625 -32.734375 L 18.765625 -13.84375 L 26.03125 -32.734375 L 33.96875 -32.734375 L 36.90625 0 Z M 29.453125 0" transform="translate(315.245 704.89)"/></g></g></g><g fill="#FFF"><g><g><path d="M 2.375 -32.734375 L 14.09375 -32.734375 C 17.238281 -32.734375 19.800781 -31.894531 21.78125 -30.21875 C 23.769531 -28.539062 24.765625 -26.140625 24.765625 -23.015625 C 24.765625 -20.609375 24.160156 -18.59375 22.953125 -16.96875 C 21.753906 -15.34375 20.125 -14.195312 18.0625 -13.53125 L 29.328125 0 L 19.84375 0 L 9.84375 -12.9375 L 9.84375 0 L 2.375 0 Z M 9.84375 -18.21875 L 10.71875 -18.21875 C 11.40625 -18.21875 11.984375 -18.226562 12.453125 -18.25 C 12.929688 -18.28125 13.472656 -18.375 14.078125 -18.53125 C 14.691406 -18.6875 15.179688 -18.910156 15.546875 -19.203125 C 15.921875 -19.492188 16.238281 -19.914062 16.5 -20.46875 C 16.769531 -21.03125 16.90625 -21.707031 16.90625 -22.5 C 16.90625 -23.289062 16.769531 -23.960938 16.5 -24.515625 C 16.238281 -25.078125 15.921875 -25.503906 15.546875 -25.796875 C 15.179688 -26.085938 14.691406 -26.3125 14.078125 -26.46875 C 13.472656 -26.625 12.929688 -26.710938 12.453125 -26.734375 C 11.984375 -26.765625 11.40625 -26.78125 10.71875 -26.78125 L 9.84375 -26.78125 Z M 9.84375 -18.21875" transform="translate(96.51 781.28)"/></g></g></g><g fill="#FFF"><g><g><path d="M 21.109375 -32.734375 L 21.109375 -26.1875 L 9.84375 -26.1875 L 9.84375 -19.6875 L 20.640625 -19.6875 L 20.640625 -13.140625 L 9.84375 -13.140625 L 9.84375 -6.546875 L 21.109375 -6.546875 L 21.109375 0 L 2.375 0 L 2.375 -32.734375 Z M 21.109375 -32.734375" transform="translate(124.922 781.28)"/></g></g></g><g fill="#FFF"><g><g><path d="M 10.359375 6.859375 L 8.578125 4.171875 C 8.648438 4.066406 8.753906 3.929688 8.890625 3.765625 C 9.023438 3.609375 9.300781 3.3125 9.71875 2.875 C 10.144531 2.4375 10.554688 2.050781 10.953125 1.71875 C 11.347656 1.394531 11.8125 1.097656 12.34375 0.828125 C 12.875 0.566406 13.363281 0.4375 13.8125 0.4375 L 13.8125 0.28125 C 9.945312 -0.457031 6.828125 -2.363281 4.453125 -5.4375 C 2.085938 -8.507812 0.90625 -12.160156 0.90625 -16.390625 C 0.90625 -21.148438 2.492188 -25.164062 5.671875 -28.4375 C 8.847656 -31.707031 12.695312 -33.34375 17.21875 -33.34375 C 21.769531 -33.34375 25.617188 -31.707031 28.765625 -28.4375 C 31.921875 -25.164062 33.5 -21.148438 33.5 -16.390625 C 33.5 -12.503906 32.453125 -9.078125 30.359375 -6.109375 C 28.265625 -3.148438 25.515625 -1.15625 22.109375 -0.125 L 22.109375 0.046875 C 22.265625 0.046875 22.960938 0.171875 24.203125 0.421875 C 25.453125 0.671875 26.445312 0.796875 27.1875 0.796875 C 28.1875 0.796875 29.097656 0.613281 29.921875 0.25 C 30.742188 -0.101562 31.3125 -0.453125 31.625 -0.796875 L 32.109375 -1.34375 L 34.453125 3.6875 C 34.398438 3.820312 34.3125 3.988281 34.1875 4.1875 C 34.070312 4.382812 33.800781 4.734375 33.375 5.234375 C 32.945312 5.742188 32.472656 6.195312 31.953125 6.59375 C 31.441406 6.988281 30.753906 7.34375 29.890625 7.65625 C 29.035156 7.976562 28.117188 8.140625 27.140625 8.140625 C 25.523438 8.140625 23.550781 7.625 21.21875 6.59375 C 18.894531 5.5625 16.890625 5.046875 15.203125 5.046875 C 14.273438 5.046875 13.40625 5.195312 12.59375 5.5 C 11.789062 5.800781 11.21875 6.109375 10.875 6.421875 Z M 8.96875 -16.390625 C 8.96875 -15.117188 9.113281 -13.929688 9.40625 -12.828125 C 9.695312 -11.734375 10.148438 -10.738281 10.765625 -9.84375 C 11.390625 -8.945312 12.25 -8.238281 13.34375 -7.71875 C 14.445312 -7.195312 15.738281 -6.9375 17.21875 -6.9375 C 20 -6.9375 22.0625 -7.835938 23.40625 -9.640625 C 24.757812 -11.441406 25.4375 -13.691406 25.4375 -16.390625 C 25.4375 -19.066406 24.75 -21.3125 23.375 -23.125 C 22 -24.9375 19.945312 -25.84375 17.21875 -25.84375 C 14.519531 -25.84375 12.46875 -24.925781 11.0625 -23.09375 C 9.664062 -21.269531 8.96875 -19.035156 8.96875 -16.390625 Z M 8.96875 -16.390625" transform="translate(147.938 781.28)"/></g></g></g><g fill="#FFF"><g><g><path d="M 27.546875 -32.734375 L 27.546875 -11.625 C 27.546875 -7.601562 26.457031 -4.5625 24.28125 -2.5 C 22.113281 -0.4375 18.941406 0.59375 14.765625 0.59375 C 10.585938 0.59375 7.410156 -0.4375 5.234375 -2.5 C 3.066406 -4.5625 1.984375 -7.601562 1.984375 -11.625 L 1.984375 -32.734375 L 9.453125 -32.734375 L 9.453125 -13.8125 C 9.453125 -11.164062 9.867188 -9.328125 10.703125 -8.296875 C 11.535156 -7.265625 12.890625 -6.75 14.765625 -6.75 C 16.640625 -6.75 17.992188 -7.265625 18.828125 -8.296875 C 19.660156 -9.328125 20.078125 -11.164062 20.078125 -13.8125 L 20.078125 -32.734375 Z M 27.546875 -32.734375" transform="translate(182.341 781.28)"/></g></g></g><g fill="#FFF"><g><g><path d="M 9.84375 -32.734375 L 9.84375 0 L 2.375 0 L 2.375 -32.734375 Z M 9.84375 -32.734375" transform="translate(211.865 781.28)"/></g></g></g><g fill="#FFF"><g><g><path d="M 2.375 -32.734375 L 14.09375 -32.734375 C 17.238281 -32.734375 19.800781 -31.894531 21.78125 -30.21875 C 23.769531 -28.539062 24.765625 -26.140625 24.765625 -23.015625 C 24.765625 -20.609375 24.160156 -18.59375 22.953125 -16.96875 C 21.753906 -15.34375 20.125 -14.195312 18.0625 -13.53125 L 29.328125 0 L 19.84375 0 L 9.84375 -12.9375 L 9.84375 0 L 2.375 0 Z M 9.84375 -18.21875 L 10.71875 -18.21875 C 11.40625 -18.21875 11.984375 -18.226562 12.453125 -18.25 C 12.929688 -18.28125 13.472656 -18.375 14.078125 -18.53125 C 14.691406 -18.6875 15.179688 -18.910156 15.546875 -19.203125 C 15.921875 -19.492188 16.238281 -19.914062 16.5 -20.46875 C 16.769531 -21.03125 16.90625 -21.707031 16.90625 -22.5 C 16.90625 -23.289062 16.769531 -23.960938 16.5 -24.515625 C 16.238281 -25.078125 15.921875 -25.503906 15.546875 -25.796875 C 15.179688 -26.085938 14.691406 -26.3125 14.078125 -26.46875 C 13.472656 -26.625 12.929688 -26.710938 12.453125 -26.734375 C 11.984375 -26.765625 11.40625 -26.78125 10.71875 -26.78125 L 9.84375 -26.78125 Z M 9.84375 -18.21875" transform="translate(224.086 781.28)"/></g></g></g><g fill="#FFF"><g><g><path d="M 21.109375 -32.734375 L 21.109375 -26.1875 L 9.84375 -26.1875 L 9.84375 -19.6875 L 20.640625 -19.6875 L 20.640625 -13.140625 L 9.84375 -13.140625 L 9.84375 -6.546875 L 21.109375 -6.546875 L 21.109375 0 L 2.375 0 L 2.375 -32.734375 Z M 21.109375 -32.734375" transform="translate(252.499 781.28)"/></g></g></g><g fill="#FFF"><g><g><path d="M 29.453125 0 L 27.90625 -19.40625 L 27.703125 -19.40625 L 21 -0.203125 L 16.546875 -0.203125 L 9.84375 -19.40625 L 9.640625 -19.40625 L 8.09375 0 L 0.640625 0 L 3.578125 -32.734375 L 11.515625 -32.734375 L 18.765625 -13.84375 L 26.03125 -32.734375 L 33.96875 -32.734375 L 36.90625 0 Z M 29.453125 0" transform="translate(275.514 781.28)"/></g></g></g><g fill="#FFF"><g><g><path d="M 21.109375 -32.734375 L 21.109375 -26.1875 L 9.84375 -26.1875 L 9.84375 -19.6875 L 20.640625 -19.6875 L 20.640625 -13.140625 L 9.84375 -13.140625 L 9.84375 -6.546875 L 21.109375 -6.546875 L 21.109375 0 L 2.375 0 L 2.375 -32.734375 Z M 21.109375 -32.734375" transform="translate(313.053 781.28)"/></g></g></g><g fill="#FFF"><g><g><path d="M 9.84375 -20.3125 L 9.84375 0 L 2.375 0 L 2.375 -32.734375 L 9.84375 -32.734375 L 22.859375 -12.421875 L 22.9375 -12.421875 L 22.9375 -32.734375 L 30.40625 -32.734375 L 30.40625 0 L 22.9375 0 L 9.921875 -20.3125 Z M 9.84375 -20.3125" transform="translate(336.068 781.28)"/></g></g></g><g fill="#FFF"><g><g><path d="M 0.3125 -26.1875 L 0.3125 -32.734375 L 23.34375 -32.734375 L 23.34375 -26.1875 L 15.5625 -26.1875 L 15.5625 0 L 8.09375 0 L 8.09375 -26.1875 Z M 0.3125 -26.1875" transform="translate(368.845 781.28)"/></g></g></g><g fill="#FFF"><g><g><path d="M 6.75 -23.015625 L 0.90625 -25.84375 C 0.90625 -25.945312 0.984375 -26.226562 1.140625 -26.6875 C 1.304688 -27.15625 1.625 -27.773438 2.09375 -28.546875 C 2.570312 -29.328125 3.175781 -30.0625 3.90625 -30.75 C 4.632812 -31.445312 5.660156 -32.050781 6.984375 -32.5625 C 8.304688 -33.082031 9.800781 -33.34375 11.46875 -33.34375 C 14.539062 -33.34375 17.1875 -32.441406 19.40625 -30.640625 C 21.625 -28.835938 22.734375 -26.578125 22.734375 -23.859375 C 22.734375 -20.492188 20.5 -17.859375 16.03125 -15.953125 C 15.425781 -15.691406 15.039062 -15.328125 14.875 -14.859375 C 14.71875 -14.398438 14.640625 -13.757812 14.640625 -12.9375 L 14.640625 -10.71875 L 8.09375 -10.71875 L 8.09375 -15.046875 C 8.09375 -15.753906 8.117188 -16.3125 8.171875 -16.71875 C 8.222656 -17.132812 8.394531 -17.585938 8.6875 -18.078125 C 8.976562 -18.566406 9.40625 -19 9.96875 -19.375 C 10.382812 -19.632812 10.945312 -19.941406 11.65625 -20.296875 C 12.375 -20.648438 12.90625 -20.929688 13.25 -21.140625 C 13.59375 -21.359375 13.910156 -21.695312 14.203125 -22.15625 C 14.492188 -22.625 14.640625 -23.191406 14.640625 -23.859375 C 14.640625 -24.804688 14.328125 -25.582031 13.703125 -26.1875 C 13.085938 -26.800781 12.332031 -27.109375 11.4375 -27.109375 C 10.132812 -27.109375 9.09375 -26.691406 8.3125 -25.859375 C 7.53125 -25.023438 7.007812 -24.078125 6.75 -23.015625 Z M 11.34375 -8.5 C 12.613281 -8.5 13.691406 -8.050781 14.578125 -7.15625 C 15.472656 -6.269531 15.921875 -5.191406 15.921875 -3.921875 C 15.921875 -2.679688 15.472656 -1.617188 14.578125 -0.734375 C 13.691406 0.148438 12.613281 0.59375 11.34375 0.59375 C 10.101562 0.59375 9.039062 0.148438 8.15625 -0.734375 C 7.269531 -1.617188 6.828125 -2.679688 6.828125 -3.921875 C 6.828125 -5.191406 7.269531 -6.269531 8.15625 -7.15625 C 9.039062 -8.050781 10.101562 -8.5 11.34375 -8.5 Z M 11.34375 -8.5" transform="translate(403.328 781.28)"/></g></g></g></svg>