<svg xmlns="http://www.w3.org/2000/svg" xmlns:xlink="http://www.w3.org/1999/xlink" width="375" viewBox="0 0 375 375" height="375" version="1.0"><defs><clipPath id="a"><path d="M 121 171 L 209 171 L 209 212.964844 L 121 212.964844 Z M 121 171"/></clipPath><clipPath id="b"><path d="M 208.5625 211.328125 C 197.570312 211.824219 177.070312 213.613281 161.320312 212.722656 C 146.808594 211.847656 135.417969 202.179688 128.808594 191.339844 C 125.132812 185.265625 122.695312 178.402344 121.277344 171.261719 C 127.886719 185.269531 140.019531 190.371094 160.523438 190.800781 C 180.933594 191.207031 207.300781 182.855469 208.566406 211.332031 Z M 208.5625 211.328125" clip-rule="evenodd"/></clipPath><clipPath id="d"><path d="M 120.621094 110 L 210 110 L 210 190 L 120.621094 190 Z M 120.621094 110"/></clipPath><clipPath id="e"><path d="M 192.691406 143.808594 C 207.730469 143.71875 209.921875 150.484375 209.921875 164.585938 C 206.339844 164.613281 177.410156 164.894531 161.414062 165.019531 C 143.546875 165.144531 140.417969 183.015625 158.203125 187.992188 C 160.214844 188.550781 162.265625 188.914062 164.347656 189.082031 C 142.054688 189.070312 129.054688 184.183594 122.152344 169.5 C 118.414062 150.550781 121.59375 127.605469 131.660156 110.882812 C 124.90625 127.609375 124.25 143.253906 152.316406 143.71875 C 165.871094 143.964844 179.148438 143.871094 192.703125 143.808594 Z M 192.691406 143.808594" clip-rule="evenodd"/></clipPath><clipPath id="g"><path d="M 122 169 L 165 169 L 165 190 L 122 190 Z M 122 169"/></clipPath><clipPath id="h"><path d="M 148.199219 181.679688 C 150.050781 184.339844 153.355469 186.628906 158.203125 187.988281 C 160.214844 188.546875 162.265625 188.910156 164.347656 189.078125 C 142.054688 189.070312 129.054688 184.183594 122.152344 169.5 L 122.152344 169.46875 C 129.3125 175.898438 137.742188 179.796875 148.210938 181.6875 Z M 148.199219 181.679688" clip-rule="evenodd"/></clipPath><clipPath id="i"><path d="M 129 77.21875 L 278.871094 77.21875 L 278.871094 142 L 129 142 Z M 129 77.21875"/></clipPath><clipPath id="j"><path d="M 193.648438 77.277344 C 195.933594 77.246094 275.152344 79.597656 278.859375 77.21875 C 269.082031 95.210938 229.464844 95.394531 197.847656 97.292969 C 174.691406 98.683594 159.871094 103.105469 150.824219 120.292969 L 150.699219 120.511719 C 142.179688 136.875 145.757812 141.070312 157.335938 141.894531 C 126.058594 142.550781 126.496094 126.375 133.503906 109.03125 C 134.089844 108.074219 134.675781 107.117188 135.324219 106.15625 C 146.75 89.21875 166.230469 77.371094 193.648438 77.277344 Z M 193.648438 77.277344" clip-rule="evenodd"/></clipPath><clipPath id="l"><path d="M 129 108 L 158 108 L 158 142 L 129 142 Z M 129 108"/></clipPath><clipPath id="m"><path d="M 146.007812 134.472656 C 146.128906 139.574219 150.238281 141.367188 157.339844 141.890625 C 126.0625 142.546875 126.496094 126.371094 133.503906 109.027344 L 133.503906 108.996094 C 132.054688 119.226562 132.980469 129.742188 146.007812 134.46875 Z M 146.007812 134.472656" clip-rule="evenodd"/></clipPath><clipPath id="n"><path d="M 147 95 L 265 95 L 265 127 L 147 127 Z M 147 95"/></clipPath><clipPath id="o"><path d="M 228.109375 95.457031 C 240.050781 97.777344 251.601562 100.527344 264.140625 101.207031 C 241.230469 112.398438 230.265625 112.128906 204.886719 110.164062 C 186.113281 108.742188 162.558594 106.117188 147.828125 126.675781 C 148.667969 124.558594 149.621094 122.5 150.699219 120.496094 C 159.746094 103.125 174.597656 98.675781 197.847656 97.28125 C 207.542969 96.695312 217.976562 96.292969 228.109375 95.457031 Z M 228.109375 95.457031" clip-rule="evenodd"/></clipPath><clipPath id="q"><path d="M 147 95 L 232 95 L 232 127 L 147 127 Z M 147 95"/></clipPath><clipPath id="r"><path d="M 228.109375 95.457031 C 229.21875 95.675781 230.300781 95.894531 231.410156 96.109375 C 209.890625 98.523438 172.136719 98.644531 158.574219 116.265625 C 154.683594 118.800781 151.039062 122.203125 147.828125 126.6875 C 148.664062 124.566406 149.621094 122.503906 150.699219 120.496094 C 159.746094 103.125 174.597656 98.675781 197.847656 97.28125 C 207.542969 96.695312 217.976562 96.292969 228.109375 95.457031 Z M 228.109375 95.457031" clip-rule="evenodd"/></clipPath><clipPath id="s"><path d="M 147 109 L 247 109 L 247 129 L 147 129 Z M 147 109"/></clipPath><clipPath id="t"><path d="M 221.746094 111.164062 C 230.027344 112.832031 238.261719 114.347656 247 114.808594 C 224.953125 125.570312 214.394531 125.324219 190.003906 123.433594 C 176.511719 122.414062 160.421875 120.746094 147.238281 128.257812 C 147.40625 127.722656 147.605469 127.195312 147.828125 126.683594 C 162.554688 106.121094 186.113281 108.75 204.886719 110.171875 C 211.277344 110.667969 216.742188 111.046875 221.746094 111.164062 Z M 221.746094 111.164062" clip-rule="evenodd"/></clipPath><clipPath id="v"><path d="M 147 109 L 228 109 L 228 129 L 147 129 Z M 147 109"/></clipPath><clipPath id="w"><path d="M 221.746094 111.164062 C 223.691406 111.566406 225.632812 111.933594 227.582031 112.304688 C 206.925781 113.265625 170.894531 108.636719 156.164062 124.546875 C 153.03125 125.410156 150.054688 126.644531 147.230469 128.257812 C 147.398438 127.722656 147.59375 127.195312 147.820312 126.683594 C 162.546875 106.121094 186.105469 108.75 204.875 110.171875 C 211.269531 110.667969 216.734375 111.046875 221.734375 111.164062 Z M 221.746094 111.164062" clip-rule="evenodd"/></clipPath><linearGradient x1="202.389" gradientTransform="matrix(.21793 0 0 .2182 120.625 77.217)" xmlns:xlink="http://www.w3.org/1999/xlink" y1="623.81" x2="204.037" gradientUnits="userSpaceOnUse" y2="429.309" xlink:type="simple" xlink:actuate="onLoad" id="c" xlink:show="other"><stop stop-color="#F73B19" offset="0"/><stop stop-color="#F73B19" offset=".004"/><stop stop-color="#F73C19" offset=".008"/><stop stop-color="#F73D19" offset=".012"/><stop stop-color="#F73D19" offset=".016"/><stop stop-color="#F73E19" offset=".02"/><stop stop-color="#F73F19" offset=".023"/><stop stop-color="#F73F18" offset=".027"/><stop stop-color="#F74018" offset=".031"/><stop stop-color="#F74018" offset=".035"/><stop stop-color="#F64118" offset=".039"/><stop stop-color="#F64218" offset=".043"/><stop stop-color="#F64218" offset=".047"/><stop stop-color="#F64318" offset=".051"/><stop stop-color="#F64418" offset=".055"/><stop stop-color="#F64417" offset=".059"/><stop stop-color="#F64517" offset=".063"/><stop stop-color="#F64517" offset=".066"/><stop stop-color="#F64617" offset=".07"/><stop stop-color="#F64717" offset=".074"/><stop stop-color="#F64717" offset=".078"/><stop stop-color="#F64817" offset=".082"/><stop stop-color="#F64917" offset=".086"/><stop stop-color="#F54916" offset=".09"/><stop stop-color="#F54A16" offset=".094"/><stop stop-color="#F54A16" offset=".098"/><stop stop-color="#F54B16" offset=".102"/><stop stop-color="#F54C16" offset=".105"/><stop stop-color="#F54C16" offset=".109"/><stop stop-color="#F54D16" offset=".113"/><stop stop-color="#F54D16" offset=".117"/><stop stop-color="#F54E16" offset=".121"/><stop stop-color="#F54E15" offset=".125"/><stop stop-color="#F54F15" offset=".129"/><stop stop-color="#F54F15" offset=".133"/><stop stop-color="#F45015" offset=".137"/><stop stop-color="#F45115" offset=".141"/><stop stop-color="#F45115" offset=".145"/><stop stop-color="#F45215" offset=".148"/><stop stop-color="#F45215" offset=".152"/><stop stop-color="#F45314" offset=".156"/><stop stop-color="#F45314" offset=".16"/><stop stop-color="#F45414" offset=".164"/><stop stop-color="#F45414" offset=".168"/><stop stop-color="#F45514" offset=".172"/><stop stop-color="#F45514" offset=".176"/><stop stop-color="#F35614" offset=".18"/><stop stop-color="#F35714" offset=".184"/><stop stop-color="#F35714" offset=".188"/><stop stop-color="#F35813" offset=".191"/><stop stop-color="#F35813" offset=".195"/><stop stop-color="#F35913" offset=".199"/><stop stop-color="#F35913" offset=".203"/><stop stop-color="#F35A13" offset=".207"/><stop stop-color="#F35A13" offset=".211"/><stop stop-color="#F35B13" offset=".215"/><stop stop-color="#F35B13" offset=".219"/><stop stop-color="#F35C13" offset=".223"/><stop stop-color="#F25C12" offset=".227"/><stop stop-color="#F25D12" offset=".23"/><stop stop-color="#F25E12" offset=".234"/><stop stop-color="#F25E12" offset=".238"/><stop stop-color="#F25F12" offset=".242"/><stop stop-color="#F25F12" offset=".246"/><stop stop-color="#F26012" offset=".25"/><stop stop-color="#F26012" offset=".254"/><stop stop-color="#F26111" offset=".258"/><stop stop-color="#F26111" offset=".262"/><stop stop-color="#F26211" offset=".266"/><stop stop-color="#F16211" offset=".27"/><stop stop-color="#F16311" offset=".273"/><stop stop-color="#F16311" offset=".277"/><stop stop-color="#F16411" offset=".281"/><stop stop-color="#F16511" offset=".285"/><stop stop-color="#F16511" offset=".289"/><stop stop-color="#F16610" offset=".293"/><stop stop-color="#F16610" offset=".297"/><stop stop-color="#F16710" offset=".301"/><stop stop-color="#F16710" offset=".305"/><stop stop-color="#F16810" offset=".309"/><stop stop-color="#F16810" offset=".313"/><stop stop-color="#F06910" offset=".316"/><stop stop-color="#F06910" offset=".32"/><stop stop-color="#F06A10" offset=".324"/><stop stop-color="#F06B0F" offset=".328"/><stop stop-color="#F06B0F" offset=".332"/><stop stop-color="#F06C0F" offset=".336"/><stop stop-color="#F06C0F" offset=".344"/><stop stop-color="#F06D0F" offset=".352"/><stop stop-color="#F06E0F" offset=".359"/><stop stop-color="#F06E0E" offset=".367"/><stop stop-color="#F06F0E" offset=".375"/><stop stop-color="#EF700E" offset=".383"/><stop stop-color="#EF710E" offset=".391"/><stop stop-color="#EF720E" offset=".398"/><stop stop-color="#EF720E" offset=".406"/><stop stop-color="#EF730D" offset=".414"/><stop stop-color="#EF740D" offset=".422"/><stop stop-color="#EF750D" offset=".43"/><stop stop-color="#EF750D" offset=".438"/><stop stop-color="#EF760D" offset=".445"/><stop stop-color="#EF770C" offset=".453"/><stop stop-color="#EF780C" offset=".461"/><stop stop-color="#EE780C" offset=".469"/><stop stop-color="#EE790C" offset=".477"/><stop stop-color="#EE7A0C" offset=".484"/><stop stop-color="#EE7B0C" offset=".492"/><stop stop-color="#EE7C0B" offset=".5"/><stop stop-color="#EE7C0B" offset=".508"/><stop stop-color="#EE7D0B" offset=".516"/><stop stop-color="#EE7E0B" offset=".523"/><stop stop-color="#EE7F0B" offset=".531"/><stop stop-color="#EE7F0A" offset=".539"/><stop stop-color="#EE800A" offset=".547"/><stop stop-color="#ED810A" offset=".555"/><stop stop-color="#ED820A" offset=".563"/><stop stop-color="#ED820A" offset=".57"/><stop stop-color="#ED830A" offset=".578"/><stop stop-color="#ED8409" offset=".586"/><stop stop-color="#ED8509" offset=".594"/><stop stop-color="#ED8609" offset=".602"/><stop stop-color="#ED8609" offset=".609"/><stop stop-color="#ED8709" offset=".617"/><stop stop-color="#ED8709" offset=".625"/><stop stop-color="#ED8809" offset=".633"/><stop stop-color="#ED8808" offset=".641"/><stop stop-color="#EC8908" offset=".648"/><stop stop-color="#EC8908" offset=".656"/><stop stop-color="#EC8A08" offset=".664"/><stop stop-color="#EC8B08" offset=".672"/><stop stop-color="#EC8B08" offset=".68"/><stop stop-color="#EC8C08" offset=".688"/><stop stop-color="#EC8C08" offset=".695"/><stop stop-color="#EC8D08" offset=".703"/><stop stop-color="#EC8D08" offset=".711"/><stop stop-color="#EC8E07" offset=".719"/><stop stop-color="#EC8E07" offset=".727"/><stop stop-color="#EC8F07" offset=".734"/><stop stop-color="#EC8F07" offset=".742"/><stop stop-color="#EB9007" offset=".75"/><stop stop-color="#EB9107" offset=".758"/><stop stop-color="#EB9107" offset=".766"/><stop stop-color="#EB9207" offset=".773"/><stop stop-color="#EB9207" offset=".781"/><stop stop-color="#EB9306" offset=".789"/><stop stop-color="#EB9306" offset=".797"/><stop stop-color="#EB9406" offset=".805"/><stop stop-color="#EB9406" offset=".813"/><stop stop-color="#EB9506" offset=".82"/><stop stop-color="#EB9506" offset=".828"/><stop stop-color="#EB9606" offset=".836"/><stop stop-color="#EB9606" offset=".844"/><stop stop-color="#EB9706" offset=".852"/><stop stop-color="#EA9806" offset=".859"/><stop stop-color="#EA9805" offset=".867"/><stop stop-color="#EA9905" offset=".875"/><stop stop-color="#EA9905" offset=".883"/><stop stop-color="#EA9A05" offset=".891"/><stop stop-color="#EA9A05" offset=".906"/><stop stop-color="#EA9B05" offset=".922"/><stop stop-color="#EA9C05" offset=".938"/><stop stop-color="#EA9C05" offset=".953"/><stop stop-color="#EA9D04" offset=".969"/><stop stop-color="#EA9E04" offset=".983"/><stop stop-color="#E99E04" offset=".984"/><stop stop-color="#E99E04" offset="1"/></linearGradient><linearGradient x1="138.752" gradientTransform="matrix(.21793 0 0 .2182 120.625 77.217)" xmlns:xlink="http://www.w3.org/1999/xlink" y1="555.822" x2="276.53" gradientUnits="userSpaceOnUse" y2="112.854" xlink:type="simple" xlink:actuate="onLoad" id="f" xlink:show="other"><stop stop-color="#250055" offset="0"/><stop stop-color="#250055" offset=".031"/><stop stop-color="#250055" offset=".039"/><stop stop-color="#260056" offset=".043"/><stop stop-color="#270057" offset=".047"/><stop stop-color="#280058" offset=".051"/><stop stop-color="#29005A" offset=".055"/><stop stop-color="#2A005B" offset=".059"/><stop stop-color="#2B005C" offset=".063"/><stop stop-color="#2C005E" offset=".066"/><stop stop-color="#2D005F" offset=".07"/><stop stop-color="#2E0060" offset=".074"/><stop stop-color="#2F0062" offset=".078"/><stop stop-color="#300063" offset=".082"/><stop stop-color="#310064" offset=".086"/><stop stop-color="#320065" offset=".09"/><stop stop-color="#330067" offset=".094"/><stop stop-color="#340068" offset=".098"/><stop stop-color="#350069" offset=".102"/><stop stop-color="#35006A" offset=".105"/><stop stop-color="#36006B" offset=".109"/><stop stop-color="#37006C" offset=".113"/><stop stop-color="#38006D" offset=".117"/><stop stop-color="#39006F" offset=".121"/><stop stop-color="#3A0070" offset=".125"/><stop stop-color="#3A0071" offset=".129"/><stop stop-color="#3B0072" offset=".133"/><stop stop-color="#3C0073" offset=".137"/><stop stop-color="#3D0074" offset=".141"/><stop stop-color="#3E0075" offset=".145"/><stop stop-color="#3F0076" offset=".148"/><stop stop-color="#3F0077" offset=".152"/><stop stop-color="#400078" offset=".156"/><stop stop-color="#410079" offset=".16"/><stop stop-color="#42007B" offset=".164"/><stop stop-color="#43007C" offset=".168"/><stop stop-color="#44007D" offset=".172"/><stop stop-color="#44007E" offset=".176"/><stop stop-color="#45007F" offset=".18"/><stop stop-color="#460080" offset=".184"/><stop stop-color="#470081" offset=".188"/><stop stop-color="#480082" offset=".191"/><stop stop-color="#490083" offset=".195"/><stop stop-color="#490084" offset=".199"/><stop stop-color="#4A0086" offset=".203"/><stop stop-color="#4B0087" offset=".207"/><stop stop-color="#4C0088" offset=".211"/><stop stop-color="#4D0089" offset=".215"/><stop stop-color="#4E008A" offset=".219"/><stop stop-color="#4E008B" offset=".223"/><stop stop-color="#4F008C" offset=".227"/><stop stop-color="#50008D" offset=".23"/><stop stop-color="#51008E" offset=".234"/><stop stop-color="#52008F" offset=".238"/><stop stop-color="#530091" offset=".242"/><stop stop-color="#530092" offset=".246"/><stop stop-color="#540093" offset=".25"/><stop stop-color="#550094" offset=".254"/><stop stop-color="#560095" offset=".258"/><stop stop-color="#570096" offset=".262"/><stop stop-color="#570097" offset=".266"/><stop stop-color="#580097" offset=".27"/><stop stop-color="#590098" offset=".273"/><stop stop-color="#590099" offset=".277"/><stop stop-color="#5A009A" offset=".281"/><stop stop-color="#5B009B" offset=".285"/><stop stop-color="#5B009C" offset=".289"/><stop stop-color="#5C009D" offset=".293"/><stop stop-color="#5D009D" offset=".297"/><stop stop-color="#5D009E" offset=".301"/><stop stop-color="#5E009F" offset=".305"/><stop stop-color="#5F00A0" offset=".309"/><stop stop-color="#5F00A1" offset=".313"/><stop stop-color="#6000A2" offset=".316"/><stop stop-color="#6100A3" offset=".32"/><stop stop-color="#6100A3" offset=".324"/><stop stop-color="#6200A4" offset=".328"/><stop stop-color="#6300A5" offset=".332"/><stop stop-color="#6300A6" offset=".336"/><stop stop-color="#6400A7" offset=".34"/><stop stop-color="#6500A8" offset=".344"/><stop stop-color="#6500A9" offset=".348"/><stop stop-color="#6600A9" offset=".352"/><stop stop-color="#6700AA" offset=".355"/><stop stop-color="#6800AB" offset=".359"/><stop stop-color="#6800AC" offset=".363"/><stop stop-color="#6900AD" offset=".367"/><stop stop-color="#6A00AE" offset=".371"/><stop stop-color="#6A00AF" offset=".375"/><stop stop-color="#6B00AF" offset=".379"/><stop stop-color="#6C00B0" offset=".383"/><stop stop-color="#6C00B1" offset=".387"/><stop stop-color="#6D00B2" offset=".391"/><stop stop-color="#6E00B3" offset=".395"/><stop stop-color="#6E00B4" offset=".398"/><stop stop-color="#6F00B4" offset=".402"/><stop stop-color="#7000B5" offset=".406"/><stop stop-color="#7000B6" offset=".41"/><stop stop-color="#7100B7" offset=".414"/><stop stop-color="#7200B8" offset=".418"/><stop stop-color="#7200B9" offset=".422"/><stop stop-color="#7300BA" offset=".426"/><stop stop-color="#7400BA" offset=".43"/><stop stop-color="#7400BB" offset=".434"/><stop stop-color="#7500BC" offset=".438"/><stop stop-color="#7500BD" offset=".441"/><stop stop-color="#7600BE" offset=".445"/><stop stop-color="#7700BE" offset=".449"/><stop stop-color="#7700BF" offset=".453"/><stop stop-color="#7800C0" offset=".457"/><stop stop-color="#7800C1" offset=".461"/><stop stop-color="#7900C1" offset=".465"/><stop stop-color="#7A00C2" offset=".469"/><stop stop-color="#7A00C3" offset=".473"/><stop stop-color="#7B00C4" offset=".477"/><stop stop-color="#7B00C5" offset=".48"/><stop stop-color="#7C00C5" offset=".484"/><stop stop-color="#7D00C6" offset=".488"/><stop stop-color="#7D00C7" offset=".492"/><stop stop-color="#7E00C8" offset=".496"/><stop stop-color="#7E00C8" offset=".5"/><stop stop-color="#7F00C9" offset=".504"/><stop stop-color="#7F00CA" offset=".508"/><stop stop-color="#8000CB" offset=".512"/><stop stop-color="#8100CB" offset=".516"/><stop stop-color="#8100CC" offset=".52"/><stop stop-color="#8200CD" offset=".523"/><stop stop-color="#8200CE" offset=".527"/><stop stop-color="#8300CF" offset=".531"/><stop stop-color="#8400CF" offset=".535"/><stop stop-color="#8400D0" offset=".539"/><stop stop-color="#8500D1" offset=".543"/><stop stop-color="#8500D2" offset=".547"/><stop stop-color="#8600D2" offset=".551"/><stop stop-color="#8700D3" offset=".555"/><stop stop-color="#8700D4" offset=".559"/><stop stop-color="#8800D5" offset=".563"/><stop stop-color="#8800D5" offset=".566"/><stop stop-color="#8900D6" offset=".57"/><stop stop-color="#8900D7" offset=".574"/><stop stop-color="#8A00D8" offset=".578"/><stop stop-color="#8B00D9" offset=".582"/><stop stop-color="#8B00D9" offset=".586"/><stop stop-color="#8C00DA" offset=".59"/><stop stop-color="#8C00DA" offset=".594"/><stop stop-color="#8C00DB" offset=".598"/><stop stop-color="#8D00DB" offset=".602"/><stop stop-color="#8D00DC" offset=".605"/><stop stop-color="#8D00DC" offset=".609"/><stop stop-color="#8E00DD" offset=".613"/><stop stop-color="#8E00DD" offset=".617"/><stop stop-color="#8F00DE" offset=".621"/><stop stop-color="#8F00DE" offset=".625"/><stop stop-color="#8F00DF" offset=".629"/><stop stop-color="#9000DF" offset=".633"/><stop stop-color="#9000E0" offset=".637"/><stop stop-color="#9100E0" offset=".641"/><stop stop-color="#9100E1" offset=".645"/><stop stop-color="#9100E1" offset=".648"/><stop stop-color="#9200E2" offset=".652"/><stop stop-color="#9200E2" offset=".656"/><stop stop-color="#9200E3" offset=".66"/><stop stop-color="#9300E3" offset=".664"/><stop stop-color="#9300E4" offset=".668"/><stop stop-color="#9400E4" offset=".672"/><stop stop-color="#9400E5" offset=".676"/><stop stop-color="#9400E5" offset=".68"/><stop stop-color="#9500E6" offset=".684"/><stop stop-color="#9500E6" offset=".688"/><stop stop-color="#9600E7" offset=".691"/><stop stop-color="#9600E7" offset=".695"/><stop stop-color="#9600E8" offset=".699"/><stop stop-color="#9700E8" offset=".703"/><stop stop-color="#9700E9" offset=".707"/><stop stop-color="#9700E9" offset=".711"/><stop stop-color="#9800EA" offset=".715"/><stop stop-color="#9800EA" offset=".719"/><stop stop-color="#9900EB" offset=".723"/><stop stop-color="#9900EB" offset=".727"/><stop stop-color="#9900EC" offset=".73"/><stop stop-color="#9A00EC" offset=".734"/><stop stop-color="#9A00ED" offset=".738"/><stop stop-color="#9B00ED" offset=".742"/><stop stop-color="#9B00EE" offset=".75"/><stop stop-color="#9B00EE" offset=".758"/><stop stop-color="#9C00EF" offset=".766"/><stop stop-color="#9C00F0" offset=".773"/><stop stop-color="#9D00F0" offset=".781"/><stop stop-color="#9D00F1" offset=".789"/><stop stop-color="#9E00F2" offset=".797"/><stop stop-color="#9F00F2" offset=".805"/><stop stop-color="#9F00F3" offset=".813"/><stop stop-color="#A000F4" offset=".82"/><stop stop-color="#A000F4" offset=".828"/><stop stop-color="#A100F5" offset=".836"/><stop stop-color="#A100F6" offset=".844"/><stop stop-color="#A200F6" offset=".852"/><stop stop-color="#A200F7" offset=".859"/><stop stop-color="#A300F8" offset=".867"/><stop stop-color="#A300F8" offset=".875"/><stop stop-color="#A400F9" offset=".883"/><stop stop-color="#A400FA" offset=".891"/><stop stop-color="#A500FB" offset=".906"/><stop stop-color="#A500FC" offset=".938"/><stop stop-color="#A600FC" offset=".969"/><stop stop-color="#A700FD" offset="1"/></linearGradient><linearGradient x1="24.94" gradientTransform="matrix(.21793 0 0 .2182 120.625 77.217)" xmlns:xlink="http://www.w3.org/1999/xlink" y1="148.24" x2="726.08" gradientUnits="userSpaceOnUse" y2="148.24" xlink:type="simple" xlink:actuate="onLoad" id="k" xlink:show="other"><stop stop-color="#0D496D" offset="0"/><stop stop-color="#0D4A6E" offset=".004"/><stop stop-color="#0D4B6F" offset=".008"/><stop stop-color="#0D4C70" offset=".012"/><stop stop-color="#0E4D71" offset=".016"/><stop stop-color="#0E4E72" offset=".02"/><stop stop-color="#0E4F73" offset=".023"/><stop stop-color="#0E5074" offset=".027"/><stop stop-color="#0F5175" offset=".031"/><stop stop-color="#0F5276" offset=".035"/><stop stop-color="#0F5377" offset=".039"/><stop stop-color="#0F5478" offset=".043"/><stop stop-color="#0F557A" offset=".047"/><stop stop-color="#10567B" offset=".051"/><stop stop-color="#10577C" offset=".055"/><stop stop-color="#10587D" offset=".059"/><stop stop-color="#10597E" offset=".063"/><stop stop-color="#105A7F" offset=".066"/><stop stop-color="#115B80" offset=".07"/><stop stop-color="#115B81" offset=".074"/><stop stop-color="#115C82" offset=".078"/><stop stop-color="#115D83" offset=".082"/><stop stop-color="#115E84" offset=".086"/><stop stop-color="#125F85" offset=".09"/><stop stop-color="#126086" offset=".094"/><stop stop-color="#126186" offset=".098"/><stop stop-color="#126287" offset=".102"/><stop stop-color="#126388" offset=".105"/><stop stop-color="#136489" offset=".109"/><stop stop-color="#13648A" offset=".113"/><stop stop-color="#13658B" offset=".117"/><stop stop-color="#13668C" offset=".121"/><stop stop-color="#13678D" offset=".125"/><stop stop-color="#13688E" offset=".129"/><stop stop-color="#14698F" offset=".133"/><stop stop-color="#146A90" offset=".137"/><stop stop-color="#146B91" offset=".141"/><stop stop-color="#146C92" offset=".145"/><stop stop-color="#146D93" offset=".148"/><stop stop-color="#156D94" offset=".152"/><stop stop-color="#156E95" offset=".156"/><stop stop-color="#156F96" offset=".16"/><stop stop-color="#157097" offset=".164"/><stop stop-color="#157198" offset=".168"/><stop stop-color="#167299" offset=".172"/><stop stop-color="#16739A" offset=".176"/><stop stop-color="#16749B" offset=".18"/><stop stop-color="#16759C" offset=".184"/><stop stop-color="#16769D" offset=".188"/><stop stop-color="#17779E" offset=".191"/><stop stop-color="#17779F" offset=".195"/><stop stop-color="#1778A0" offset=".199"/><stop stop-color="#1779A1" offset=".203"/><stop stop-color="#177AA2" offset=".207"/><stop stop-color="#177BA3" offset=".211"/><stop stop-color="#187CA4" offset=".215"/><stop stop-color="#187DA5" offset=".219"/><stop stop-color="#187EA6" offset=".223"/><stop stop-color="#187FA7" offset=".227"/><stop stop-color="#1880A8" offset=".23"/><stop stop-color="#1980A9" offset=".234"/><stop stop-color="#1981AA" offset=".238"/><stop stop-color="#1982AB" offset=".242"/><stop stop-color="#1983AC" offset=".246"/><stop stop-color="#1984AD" offset=".25"/><stop stop-color="#1A85AE" offset=".254"/><stop stop-color="#1A86AE" offset=".258"/><stop stop-color="#1A87AF" offset=".262"/><stop stop-color="#1A88B0" offset=".266"/><stop stop-color="#1A89B1" offset=".27"/><stop stop-color="#1B8AB2" offset=".273"/><stop stop-color="#1B8AB3" offset=".277"/><stop stop-color="#1B8BB4" offset=".281"/><stop stop-color="#1B8CB5" offset=".285"/><stop stop-color="#1B8DB6" offset=".289"/><stop stop-color="#1B8EB7" offset=".293"/><stop stop-color="#1C8EB8" offset=".297"/><stop stop-color="#1C8FB8" offset=".301"/><stop stop-color="#1C90B9" offset=".305"/><stop stop-color="#1C91BA" offset=".309"/><stop stop-color="#1C91BB" offset=".313"/><stop stop-color="#1C92BC" offset=".316"/><stop stop-color="#1C93BC" offset=".32"/><stop stop-color="#1D94BD" offset=".324"/><stop stop-color="#1D94BE" offset=".328"/><stop stop-color="#1D95BF" offset=".332"/><stop stop-color="#1D96C0" offset=".336"/><stop stop-color="#1D97C0" offset=".34"/><stop stop-color="#1D97C1" offset=".344"/><stop stop-color="#1E98C2" offset=".348"/><stop stop-color="#1E99C3" offset=".352"/><stop stop-color="#1E9AC4" offset=".355"/><stop stop-color="#1E9AC4" offset=".359"/><stop stop-color="#1E9BC5" offset=".363"/><stop stop-color="#1E9CC6" offset=".367"/><stop stop-color="#1F9CC7" offset=".371"/><stop stop-color="#1F9DC8" offset=".375"/><stop stop-color="#1F9EC8" offset=".379"/><stop stop-color="#1F9FC9" offset=".383"/><stop stop-color="#1F9FCA" offset=".387"/><stop stop-color="#1FA0CB" offset=".391"/><stop stop-color="#1FA1CC" offset=".395"/><stop stop-color="#20A2CC" offset=".398"/><stop stop-color="#20A2CD" offset=".402"/><stop stop-color="#20A3CE" offset=".406"/><stop stop-color="#20A4CF" offset=".41"/><stop stop-color="#20A5D0" offset=".414"/><stop stop-color="#20A5D0" offset=".418"/><stop stop-color="#21A6D1" offset=".422"/><stop stop-color="#21A7D2" offset=".426"/><stop stop-color="#21A8D3" offset=".43"/><stop stop-color="#21A8D4" offset=".434"/><stop stop-color="#21A9D4" offset=".438"/><stop stop-color="#21AAD5" offset=".441"/><stop stop-color="#22ABD6" offset=".445"/><stop stop-color="#22ABD7" offset=".449"/><stop stop-color="#22ACD8" offset=".453"/><stop stop-color="#22ADD8" offset=".457"/><stop stop-color="#22ADD9" offset=".461"/><stop stop-color="#22AEDA" offset=".465"/><stop stop-color="#23AFDB" offset=".469"/><stop stop-color="#23B0DC" offset=".473"/><stop stop-color="#23B0DC" offset=".477"/><stop stop-color="#23B1DD" offset=".48"/><stop stop-color="#23B2DE" offset=".484"/><stop stop-color="#23B2DE" offset=".488"/><stop stop-color="#23B3DF" offset=".492"/><stop stop-color="#23B3E0" offset=".496"/><stop stop-color="#24B4E0" offset=".5"/><stop stop-color="#24B5E1" offset=".504"/><stop stop-color="#24B5E2" offset=".508"/><stop stop-color="#24B6E2" offset=".512"/><stop stop-color="#24B6E3" offset=".516"/><stop stop-color="#24B7E3" offset=".52"/><stop stop-color="#24B7E4" offset=".523"/><stop stop-color="#24B8E5" offset=".527"/><stop stop-color="#25B9E5" offset=".531"/><stop stop-color="#25B9E6" offset=".535"/><stop stop-color="#25BAE7" offset=".539"/><stop stop-color="#25BAE7" offset=".543"/><stop stop-color="#25BBE8" offset=".547"/><stop stop-color="#25BBE8" offset=".551"/><stop stop-color="#25BCE9" offset=".555"/><stop stop-color="#26BDEA" offset=".559"/><stop stop-color="#26BDEA" offset=".563"/><stop stop-color="#26BEEB" offset=".566"/><stop stop-color="#26BEEC" offset=".57"/><stop stop-color="#26BFEC" offset=".574"/><stop stop-color="#26BFED" offset=".578"/><stop stop-color="#26C0ED" offset=".582"/><stop stop-color="#26C1EE" offset=".586"/><stop stop-color="#27C1EF" offset=".59"/><stop stop-color="#27C2EF" offset=".594"/><stop stop-color="#27C2F0" offset=".598"/><stop stop-color="#27C3F1" offset=".602"/><stop stop-color="#27C3F1" offset=".605"/><stop stop-color="#27C4F2" offset=".609"/><stop stop-color="#27C5F2" offset=".613"/><stop stop-color="#27C5F3" offset=".617"/><stop stop-color="#28C6F4" offset=".621"/><stop stop-color="#28C6F4" offset=".625"/><stop stop-color="#28C7F5" offset=".629"/><stop stop-color="#28C7F6" offset=".633"/><stop stop-color="#28C8F6" offset=".641"/><stop stop-color="#28C9F7" offset=".648"/><stop stop-color="#28C9F8" offset=".656"/><stop stop-color="#29CAF8" offset=".664"/><stop stop-color="#29CBF9" offset=".672"/><stop stop-color="#29CBFA" offset=".68"/><stop stop-color="#29CCFA" offset=".688"/><stop stop-color="#29CDFB" offset=".695"/><stop stop-color="#29CDFC" offset=".703"/><stop stop-color="#2ACEFD" offset=".711"/><stop stop-color="#2ACFFD" offset=".719"/><stop stop-color="#2ACFFE" offset=".727"/><stop stop-color="#2AD0FF" offset=".734"/><stop stop-color="#2AD0FF" offset=".75"/><stop stop-color="#2AD0FF" offset="1"/></linearGradient><linearGradient x1="207.462" gradientTransform="matrix(.21793 0 0 .2182 120.625 77.217)" xmlns:xlink="http://www.w3.org/1999/xlink" y1="-4.496" x2="562.739" gradientUnits="userSpaceOnUse" y2="328.784" xlink:type="simple" xlink:actuate="onLoad" id="p" xlink:show="other"><stop stop-color="#000F2E" offset="0"/><stop stop-color="#000F2E" offset=".063"/><stop stop-color="#000F2E" offset=".07"/><stop stop-color="#00102F" offset=".074"/><stop stop-color="#001130" offset=".078"/><stop stop-color="#011231" offset=".082"/><stop stop-color="#011333" offset=".086"/><stop stop-color="#011434" offset=".09"/><stop stop-color="#011535" offset=".094"/><stop stop-color="#011636" offset=".098"/><stop stop-color="#021737" offset=".102"/><stop stop-color="#021838" offset=".105"/><stop stop-color="#021939" offset=".109"/><stop stop-color="#021A3A" offset=".113"/><stop stop-color="#031B3B" offset=".117"/><stop stop-color="#031C3C" offset=".121"/><stop stop-color="#031D3D" offset=".125"/><stop stop-color="#031E3E" offset=".129"/><stop stop-color="#031F3F" offset=".133"/><stop stop-color="#042040" offset=".137"/><stop stop-color="#042142" offset=".141"/><stop stop-color="#042243" offset=".145"/><stop stop-color="#042344" offset=".148"/><stop stop-color="#042445" offset=".152"/><stop stop-color="#052546" offset=".156"/><stop stop-color="#052647" offset=".16"/><stop stop-color="#052748" offset=".164"/><stop stop-color="#052849" offset=".168"/><stop stop-color="#05294A" offset=".172"/><stop stop-color="#062A4B" offset=".176"/><stop stop-color="#062B4C" offset=".18"/><stop stop-color="#062C4D" offset=".184"/><stop stop-color="#062D4E" offset=".188"/><stop stop-color="#062E50" offset=".191"/><stop stop-color="#072F51" offset=".195"/><stop stop-color="#073052" offset=".199"/><stop stop-color="#073053" offset=".203"/><stop stop-color="#073154" offset=".207"/><stop stop-color="#073255" offset=".211"/><stop stop-color="#083356" offset=".215"/><stop stop-color="#083456" offset=".219"/><stop stop-color="#083557" offset=".223"/><stop stop-color="#083658" offset=".227"/><stop stop-color="#083759" offset=".23"/><stop stop-color="#09385A" offset=".234"/><stop stop-color="#09385B" offset=".238"/><stop stop-color="#09395C" offset=".242"/><stop stop-color="#093A5D" offset=".246"/><stop stop-color="#093B5E" offset=".25"/><stop stop-color="#093C5F" offset=".254"/><stop stop-color="#0A3D60" offset=".258"/><stop stop-color="#0A3E61" offset=".262"/><stop stop-color="#0A3F62" offset=".266"/><stop stop-color="#0A4063" offset=".27"/><stop stop-color="#0A4064" offset=".273"/><stop stop-color="#0B4165" offset=".277"/><stop stop-color="#0B4266" offset=".281"/><stop stop-color="#0B4367" offset=".285"/><stop stop-color="#0B4467" offset=".289"/><stop stop-color="#0B4568" offset=".293"/><stop stop-color="#0C4669" offset=".297"/><stop stop-color="#0C476A" offset=".301"/><stop stop-color="#0C486B" offset=".305"/><stop stop-color="#0C486C" offset=".309"/><stop stop-color="#0C496D" offset=".313"/><stop stop-color="#0D4A6E" offset=".316"/><stop stop-color="#0D4B6F" offset=".32"/><stop stop-color="#0D4C70" offset=".324"/><stop stop-color="#0D4D71" offset=".328"/><stop stop-color="#0D4E72" offset=".332"/><stop stop-color="#0D4F73" offset=".336"/><stop stop-color="#0E4F74" offset=".34"/><stop stop-color="#0E5075" offset=".344"/><stop stop-color="#0E5176" offset=".348"/><stop stop-color="#0E5277" offset=".352"/><stop stop-color="#0E5378" offset=".355"/><stop stop-color="#0F5478" offset=".359"/><stop stop-color="#0F5579" offset=".363"/><stop stop-color="#0F567A" offset=".367"/><stop stop-color="#0F577B" offset=".371"/><stop stop-color="#0F577C" offset=".375"/><stop stop-color="#10587D" offset=".379"/><stop stop-color="#10597E" offset=".383"/><stop stop-color="#105A7F" offset=".387"/><stop stop-color="#105B80" offset=".391"/><stop stop-color="#105C81" offset=".395"/><stop stop-color="#105D82" offset=".398"/><stop stop-color="#115E83" offset=".402"/><stop stop-color="#115F84" offset=".406"/><stop stop-color="#115F85" offset=".41"/><stop stop-color="#116086" offset=".414"/><stop stop-color="#116187" offset=".418"/><stop stop-color="#126288" offset=".422"/><stop stop-color="#126389" offset=".426"/><stop stop-color="#126489" offset=".43"/><stop stop-color="#12658A" offset=".434"/><stop stop-color="#12668B" offset=".438"/><stop stop-color="#13678C" offset=".441"/><stop stop-color="#13678D" offset=".445"/><stop stop-color="#13688E" offset=".449"/><stop stop-color="#13698F" offset=".453"/><stop stop-color="#136A90" offset=".457"/><stop stop-color="#136B91" offset=".461"/><stop stop-color="#146C92" offset=".465"/><stop stop-color="#146C93" offset=".469"/><stop stop-color="#146D93" offset=".473"/><stop stop-color="#146E94" offset=".477"/><stop stop-color="#146F95" offset=".48"/><stop stop-color="#156F96" offset=".484"/><stop stop-color="#157097" offset=".488"/><stop stop-color="#157198" offset=".492"/><stop stop-color="#157299" offset=".496"/><stop stop-color="#157399" offset=".5"/><stop stop-color="#15739A" offset=".504"/><stop stop-color="#16749B" offset=".508"/><stop stop-color="#16759C" offset=".512"/><stop stop-color="#16769D" offset=".516"/><stop stop-color="#16769E" offset=".52"/><stop stop-color="#16779F" offset=".523"/><stop stop-color="#17789F" offset=".527"/><stop stop-color="#1779A0" offset=".531"/><stop stop-color="#177AA1" offset=".535"/><stop stop-color="#177AA2" offset=".539"/><stop stop-color="#177BA3" offset=".543"/><stop stop-color="#177CA4" offset=".547"/><stop stop-color="#187DA5" offset=".551"/><stop stop-color="#187DA5" offset=".555"/><stop stop-color="#187EA6" offset=".559"/><stop stop-color="#187FA7" offset=".563"/><stop stop-color="#1880A8" offset=".566"/><stop stop-color="#1881A9" offset=".57"/><stop stop-color="#1981AA" offset=".574"/><stop stop-color="#1982AB" offset=".578"/><stop stop-color="#1983AB" offset=".582"/><stop stop-color="#1984AC" offset=".586"/><stop stop-color="#1985AD" offset=".59"/><stop stop-color="#1A85AE" offset=".594"/><stop stop-color="#1A86AF" offset=".598"/><stop stop-color="#1A87B0" offset=".602"/><stop stop-color="#1A88B0" offset=".605"/><stop stop-color="#1A88B1" offset=".609"/><stop stop-color="#1A89B2" offset=".613"/><stop stop-color="#1B8AB3" offset=".617"/><stop stop-color="#1B8BB4" offset=".621"/><stop stop-color="#1B8CB5" offset=".625"/><stop stop-color="#1B8CB6" offset=".629"/><stop stop-color="#1B8DB6" offset=".633"/><stop stop-color="#1B8EB7" offset=".637"/><stop stop-color="#1C8FB8" offset=".641"/><stop stop-color="#1C8FB9" offset=".645"/><stop stop-color="#1C90BA" offset=".648"/><stop stop-color="#1C91BB" offset=".652"/><stop stop-color="#1C92BC" offset=".656"/><stop stop-color="#1D93BC" offset=".66"/><stop stop-color="#1D93BD" offset=".664"/><stop stop-color="#1D94BE" offset=".668"/><stop stop-color="#1D95BF" offset=".672"/><stop stop-color="#1D96C0" offset=".676"/><stop stop-color="#1D96C0" offset=".68"/><stop stop-color="#1D97C1" offset=".684"/><stop stop-color="#1E97C2" offset=".688"/><stop stop-color="#1E98C2" offset=".691"/><stop stop-color="#1E99C3" offset=".695"/><stop stop-color="#1E99C4" offset=".699"/><stop stop-color="#1E9AC5" offset=".703"/><stop stop-color="#1E9BC5" offset=".707"/><stop stop-color="#1E9BC6" offset=".711"/><stop stop-color="#1F9CC7" offset=".715"/><stop stop-color="#1F9DC7" offset=".719"/><stop stop-color="#1F9DC8" offset=".723"/><stop stop-color="#1F9EC9" offset=".727"/><stop stop-color="#1F9EC9" offset=".73"/><stop stop-color="#1F9FCA" offset=".734"/><stop stop-color="#1FA0CB" offset=".738"/><stop stop-color="#20A0CB" offset=".742"/><stop stop-color="#20A1CC" offset=".746"/><stop stop-color="#20A2CD" offset=".75"/><stop stop-color="#20A2CE" offset=".754"/><stop stop-color="#20A3CE" offset=".758"/><stop stop-color="#20A4CF" offset=".762"/><stop stop-color="#20A4D0" offset=".766"/><stop stop-color="#20A5D0" offset=".77"/><stop stop-color="#21A5D1" offset=".773"/><stop stop-color="#21A6D2" offset=".777"/><stop stop-color="#21A7D2" offset=".781"/><stop stop-color="#21A7D3" offset=".785"/><stop stop-color="#21A8D4" offset=".789"/><stop stop-color="#21A9D4" offset=".793"/><stop stop-color="#21A9D5" offset=".797"/><stop stop-color="#22AAD6" offset=".801"/><stop stop-color="#22ABD7" offset=".805"/><stop stop-color="#22ABD7" offset=".809"/><stop stop-color="#22ACD8" offset=".813"/><stop stop-color="#22ACD9" offset=".816"/><stop stop-color="#22ADD9" offset=".82"/><stop stop-color="#22AEDA" offset=".824"/><stop stop-color="#23AEDB" offset=".828"/><stop stop-color="#23AFDB" offset=".832"/><stop stop-color="#23B0DC" offset=".836"/><stop stop-color="#23B0DD" offset=".84"/><stop stop-color="#23B1DD" offset=".844"/><stop stop-color="#23B2DE" offset=".848"/><stop stop-color="#23B2DF" offset=".852"/><stop stop-color="#23B3E0" offset=".855"/><stop stop-color="#24B3E0" offset=".859"/><stop stop-color="#24B4E1" offset=".863"/><stop stop-color="#24B5E2" offset=".867"/><stop stop-color="#24B5E2" offset=".871"/><stop stop-color="#24B6E3" offset=".875"/><stop stop-color="#24B6E3" offset=".879"/><stop stop-color="#24B7E4" offset=".883"/><stop stop-color="#24B7E4" offset=".887"/><stop stop-color="#24B8E5" offset=".891"/><stop stop-color="#25B8E5" offset=".895"/><stop stop-color="#25B9E6" offset=".898"/><stop stop-color="#25B9E6" offset=".902"/><stop stop-color="#25BAE7" offset=".906"/><stop stop-color="#25BAE7" offset=".91"/><stop stop-color="#25BBE8" offset=".914"/><stop stop-color="#25BBE8" offset=".918"/><stop stop-color="#25BBE9" offset=".922"/><stop stop-color="#25BCE9" offset=".926"/><stop stop-color="#25BCEA" offset=".93"/><stop stop-color="#26BDEA" offset=".934"/><stop stop-color="#26BDEB" offset=".938"/><stop stop-color="#26BEEB" offset=".941"/><stop stop-color="#26BEEC" offset=".945"/><stop stop-color="#26BFEC" offset=".949"/><stop stop-color="#26BFED" offset=".953"/><stop stop-color="#26C0ED" offset=".957"/><stop stop-color="#26C0EE" offset=".961"/><stop stop-color="#26C1EE" offset=".965"/><stop stop-color="#26C1EF" offset=".969"/><stop stop-color="#27C2EF" offset=".973"/><stop stop-color="#27C2F0" offset=".977"/><stop stop-color="#27C3F0" offset=".98"/><stop stop-color="#27C3F1" offset=".984"/><stop stop-color="#27C3F1" offset=".988"/><stop stop-color="#27C4F2" offset=".992"/><stop stop-color="#27C4F2" offset=".996"/><stop stop-color="#27C5F3" offset="1"/></linearGradient><linearGradient x1="295.471" gradientTransform="matrix(.21793 0 0 .2182 120.625 77.217)" xmlns:xlink="http://www.w3.org/1999/xlink" y1="63.492" x2="392.889" gradientUnits="userSpaceOnUse" y2="308.319" xlink:type="simple" xlink:actuate="onLoad" id="u" xlink:show="other"><stop stop-color="#011131" offset="0"/><stop stop-color="#011231" offset=".016"/><stop stop-color="#011232" offset=".031"/><stop stop-color="#011232" offset=".047"/><stop stop-color="#011333" offset=".063"/><stop stop-color="#011333" offset=".07"/><stop stop-color="#011434" offset=".078"/><stop stop-color="#011434" offset=".086"/><stop stop-color="#011535" offset=".094"/><stop stop-color="#021636" offset=".102"/><stop stop-color="#021636" offset=".109"/><stop stop-color="#021737" offset=".117"/><stop stop-color="#021738" offset=".125"/><stop stop-color="#021838" offset=".133"/><stop stop-color="#021939" offset=".141"/><stop stop-color="#02193A" offset=".148"/><stop stop-color="#031A3A" offset=".156"/><stop stop-color="#031A3B" offset=".164"/><stop stop-color="#031B3C" offset=".172"/><stop stop-color="#031C3C" offset=".18"/><stop stop-color="#031C3D" offset=".188"/><stop stop-color="#031D3E" offset=".195"/><stop stop-color="#031D3E" offset=".203"/><stop stop-color="#041E3F" offset=".211"/><stop stop-color="#041E3F" offset=".219"/><stop stop-color="#041F40" offset=".227"/><stop stop-color="#042041" offset=".234"/><stop stop-color="#042042" offset=".242"/><stop stop-color="#042142" offset=".25"/><stop stop-color="#042243" offset=".258"/><stop stop-color="#052344" offset=".266"/><stop stop-color="#052445" offset=".273"/><stop stop-color="#052546" offset=".281"/><stop stop-color="#052647" offset=".289"/><stop stop-color="#052748" offset=".297"/><stop stop-color="#052849" offset=".305"/><stop stop-color="#06284A" offset=".313"/><stop stop-color="#06294B" offset=".32"/><stop stop-color="#062A4C" offset=".328"/><stop stop-color="#062B4D" offset=".336"/><stop stop-color="#062C4E" offset=".344"/><stop stop-color="#062D4E" offset=".352"/><stop stop-color="#062E4F" offset=".358"/><stop stop-color="#072E50" offset=".359"/><stop stop-color="#072F50" offset=".367"/><stop stop-color="#073051" offset=".375"/><stop stop-color="#073052" offset=".383"/><stop stop-color="#073153" offset=".391"/><stop stop-color="#073254" offset=".398"/><stop stop-color="#073355" offset=".406"/><stop stop-color="#083456" offset=".414"/><stop stop-color="#083557" offset=".422"/><stop stop-color="#083658" offset=".426"/><stop stop-color="#083658" offset=".43"/><stop stop-color="#083759" offset=".434"/><stop stop-color="#08375A" offset=".438"/><stop stop-color="#08385A" offset=".441"/><stop stop-color="#09395B" offset=".445"/><stop stop-color="#09395C" offset=".449"/><stop stop-color="#093A5C" offset=".453"/><stop stop-color="#093A5D" offset=".457"/><stop stop-color="#093B5E" offset=".461"/><stop stop-color="#093C5E" offset=".465"/><stop stop-color="#093C5F" offset=".469"/><stop stop-color="#0A3D60" offset=".473"/><stop stop-color="#0A3D60" offset=".477"/><stop stop-color="#0A3E61" offset=".48"/><stop stop-color="#0A3F62" offset=".484"/><stop stop-color="#0A3F62" offset=".488"/><stop stop-color="#0A4063" offset=".492"/><stop stop-color="#0A4064" offset=".496"/><stop stop-color="#0B4164" offset=".5"/><stop stop-color="#0B4265" offset=".504"/><stop stop-color="#0B4266" offset=".508"/><stop stop-color="#0B4366" offset=".512"/><stop stop-color="#0B4367" offset=".516"/><stop stop-color="#0B4468" offset=".52"/><stop stop-color="#0B4568" offset=".523"/><stop stop-color="#0C4569" offset=".527"/><stop stop-color="#0C466A" offset=".531"/><stop stop-color="#0C466A" offset=".535"/><stop stop-color="#0C476B" offset=".539"/><stop stop-color="#0C486C" offset=".543"/><stop stop-color="#0C486C" offset=".547"/><stop stop-color="#0C496D" offset=".551"/><stop stop-color="#0D496E" offset=".555"/><stop stop-color="#0D4A6E" offset=".559"/><stop stop-color="#0D4B6F" offset=".563"/><stop stop-color="#0D4B70" offset=".566"/><stop stop-color="#0D4C70" offset=".57"/><stop stop-color="#0D4C71" offset=".574"/><stop stop-color="#0D4D72" offset=".578"/><stop stop-color="#0E4E72" offset=".582"/><stop stop-color="#0E4E73" offset=".586"/><stop stop-color="#0E4F74" offset=".59"/><stop stop-color="#0E4F74" offset=".594"/><stop stop-color="#0E5075" offset=".598"/><stop stop-color="#0E5176" offset=".602"/><stop stop-color="#0E5176" offset=".605"/><stop stop-color="#0F5277" offset=".609"/><stop stop-color="#0F5278" offset=".613"/><stop stop-color="#0F5378" offset=".617"/><stop stop-color="#0F5479" offset=".621"/><stop stop-color="#0F547A" offset=".625"/><stop stop-color="#0F557A" offset=".629"/><stop stop-color="#0F567B" offset=".633"/><stop stop-color="#10577C" offset=".637"/><stop stop-color="#10577D" offset=".641"/><stop stop-color="#10587E" offset=".645"/><stop stop-color="#10597F" offset=".648"/><stop stop-color="#105A7F" offset=".652"/><stop stop-color="#105A80" offset=".656"/><stop stop-color="#115B81" offset=".66"/><stop stop-color="#115C82" offset=".664"/><stop stop-color="#115D83" offset=".668"/><stop stop-color="#115E83" offset=".672"/><stop stop-color="#115E84" offset=".676"/><stop stop-color="#115F85" offset=".68"/><stop stop-color="#126086" offset=".684"/><stop stop-color="#126187" offset=".688"/><stop stop-color="#126188" offset=".691"/><stop stop-color="#126288" offset=".695"/><stop stop-color="#126389" offset=".699"/><stop stop-color="#12648A" offset=".703"/><stop stop-color="#12648B" offset=".707"/><stop stop-color="#13658C" offset=".711"/><stop stop-color="#13668C" offset=".715"/><stop stop-color="#13678D" offset=".719"/><stop stop-color="#13678E" offset=".723"/><stop stop-color="#13688F" offset=".727"/><stop stop-color="#136990" offset=".73"/><stop stop-color="#146A91" offset=".734"/><stop stop-color="#146A91" offset=".738"/><stop stop-color="#146B92" offset=".742"/><stop stop-color="#146C93" offset=".746"/><stop stop-color="#146D94" offset=".75"/><stop stop-color="#146E95" offset=".754"/><stop stop-color="#156E95" offset=".758"/><stop stop-color="#156F96" offset=".762"/><stop stop-color="#157097" offset=".766"/><stop stop-color="#157198" offset=".77"/><stop stop-color="#157199" offset=".773"/><stop stop-color="#15729A" offset=".777"/><stop stop-color="#15739A" offset=".781"/><stop stop-color="#16749B" offset=".785"/><stop stop-color="#16749C" offset=".789"/><stop stop-color="#16759D" offset=".793"/><stop stop-color="#16769E" offset=".797"/><stop stop-color="#16779E" offset=".801"/><stop stop-color="#16779F" offset=".805"/><stop stop-color="#1778A0" offset=".809"/><stop stop-color="#1779A1" offset=".813"/><stop stop-color="#177AA2" offset=".816"/><stop stop-color="#177BA3" offset=".82"/><stop stop-color="#177BA4" offset=".824"/><stop stop-color="#187CA5" offset=".828"/><stop stop-color="#187DA6" offset=".832"/><stop stop-color="#187EA7" offset=".836"/><stop stop-color="#187FA7" offset=".84"/><stop stop-color="#1880A8" offset=".844"/><stop stop-color="#1981A9" offset=".848"/><stop stop-color="#1982AA" offset=".852"/><stop stop-color="#1983AB" offset=".855"/><stop stop-color="#1983AC" offset=".859"/><stop stop-color="#1984AD" offset=".863"/><stop stop-color="#1A85AE" offset=".867"/><stop stop-color="#1A86AF" offset=".871"/><stop stop-color="#1A87B0" offset=".875"/><stop stop-color="#1A88B1" offset=".879"/><stop stop-color="#1A89B2" offset=".883"/><stop stop-color="#1B8AB3" offset=".887"/><stop stop-color="#1B8BB4" offset=".891"/><stop stop-color="#1B8BB5" offset=".895"/><stop stop-color="#1B8CB6" offset=".898"/><stop stop-color="#1B8DB7" offset=".902"/><stop stop-color="#1C8EB8" offset=".906"/><stop stop-color="#1C8FB9" offset=".91"/><stop stop-color="#1C90BA" offset=".914"/><stop stop-color="#1C91BB" offset=".918"/><stop stop-color="#1C92BC" offset=".922"/><stop stop-color="#1D93BD" offset=".926"/><stop stop-color="#1D93BE" offset=".93"/><stop stop-color="#1D94BF" offset=".934"/><stop stop-color="#1D95BF" offset=".938"/><stop stop-color="#1E96C0" offset=".941"/><stop stop-color="#1E97C1" offset=".945"/><stop stop-color="#1E98C2" offset=".949"/><stop stop-color="#1E99C3" offset=".953"/><stop stop-color="#1E9AC4" offset=".957"/><stop stop-color="#1F9BC5" offset=".961"/><stop stop-color="#1F9BC6" offset=".965"/><stop stop-color="#1F9CC7" offset=".969"/><stop stop-color="#1F9DC8" offset=".973"/><stop stop-color="#1F9EC9" offset=".977"/><stop stop-color="#209FCA" offset=".98"/><stop stop-color="#20A0CB" offset=".984"/><stop stop-color="#20A1CC" offset=".988"/><stop stop-color="#20A2CD" offset=".992"/><stop stop-color="#20A3CE" offset=".996"/><stop stop-color="#21A3CF" offset="1"/></linearGradient></defs><g clip-path="url(#a)"><g clip-path="url(#b)"><path fill="url(#c)" d="M 121.277344 171.261719 L 121.277344 212.964844 L 208.566406 212.964844 L 208.566406 171.261719 Z M 121.277344 171.261719"/></g></g><g clip-path="url(#d)"><g clip-path="url(#e)"><path fill="url(#f)" d="M 120.621094 110.882812 L 120.621094 189.082031 L 209.921875 189.082031 L 209.921875 110.882812 Z M 120.621094 110.882812"/></g></g><g clip-path="url(#g)"><g clip-path="url(#h)"><path fill="#250055" d="M 122.152344 169.46875 L 122.152344 189.078125 L 164.347656 189.078125 L 164.347656 169.46875 Z M 122.152344 169.46875"/></g></g><g clip-path="url(#i)"><g clip-path="url(#j)"><path fill="url(#k)" d="M 126.058594 77.21875 L 126.058594 142.550781 L 278.859375 142.550781 L 278.859375 77.21875 Z M 126.058594 77.21875"/></g></g><g clip-path="url(#l)"><g clip-path="url(#m)"><path fill="#000F2E" d="M 126.0625 108.996094 L 126.0625 142.546875 L 157.339844 142.546875 L 157.339844 108.996094 Z M 126.0625 108.996094"/></g></g><g clip-path="url(#n)"><g clip-path="url(#o)"><path fill="url(#p)" d="M 147.828125 95.457031 L 147.828125 126.675781 L 264.140625 126.675781 L 264.140625 95.457031 Z M 147.828125 95.457031"/></g></g><g clip-path="url(#q)"><g clip-path="url(#r)"><path fill="#000F2E" d="M 147.828125 95.457031 L 147.828125 126.6875 L 231.410156 126.6875 L 231.410156 95.457031 Z M 147.828125 95.457031"/></g></g><g clip-path="url(#s)"><g clip-path="url(#t)"><path fill="url(#u)" d="M 147.238281 106.121094 L 147.238281 128.257812 L 247 128.257812 L 247 106.121094 Z M 147.238281 106.121094"/></g></g><g clip-path="url(#v)"><g clip-path="url(#w)"><path fill="#000F2E" d="M 147.230469 106.121094 L 147.230469 128.257812 L 227.582031 128.257812 L 227.582031 106.121094 Z M 147.230469 106.121094"/></g></g><g fill="#FFF"><g><g><path d="M 24.890625 -9.96875 L 8.90625 -9.96875 C 8.90625 -8.425781 9.40625 -7.28125 10.40625 -6.53125 C 11.40625 -5.789062 12.492188 -5.421875 13.671875 -5.421875 C 14.898438 -5.421875 15.875 -5.582031 16.59375 -5.90625 C 17.3125 -6.238281 18.128906 -6.894531 19.046875 -7.875 L 24.546875 -5.109375 C 22.253906 -1.273438 18.441406 0.640625 13.109375 0.640625 C 9.785156 0.640625 6.929688 -0.492188 4.546875 -2.765625 C 2.171875 -5.046875 0.984375 -7.789062 0.984375 -11 C 0.984375 -14.21875 2.171875 -16.972656 4.546875 -19.265625 C 6.929688 -21.554688 9.785156 -22.703125 13.109375 -22.703125 C 16.609375 -22.703125 19.453125 -21.691406 21.640625 -19.671875 C 23.835938 -17.648438 24.9375 -14.765625 24.9375 -11.015625 C 24.9375 -10.492188 24.921875 -10.144531 24.890625 -9.96875 Z M 9.109375 -14.1875 L 17.5 -14.1875 C 17.332031 -15.332031 16.878906 -16.210938 16.140625 -16.828125 C 15.410156 -17.453125 14.472656 -17.765625 13.328125 -17.765625 C 12.066406 -17.765625 11.0625 -17.429688 10.3125 -16.765625 C 9.570312 -16.109375 9.171875 -15.25 9.109375 -14.1875 Z M 9.109375 -14.1875" transform="translate(67.471 280.78)"/></g></g></g><g fill="#FFF"><g><g><path d="M 2.578125 0 L 2.578125 -22.0625 L 10.1875 -22.0625 L 10.1875 -19.734375 L 10.28125 -19.734375 C 12.257812 -21.710938 14.363281 -22.703125 16.59375 -22.703125 C 18.195312 -22.703125 19.703125 -22.367188 21.109375 -21.703125 C 22.515625 -21.046875 23.578125 -20.03125 24.296875 -18.65625 C 26.535156 -21.351562 28.972656 -22.703125 31.609375 -22.703125 C 33.953125 -22.703125 35.96875 -22.039062 37.65625 -20.71875 C 39.351562 -19.40625 40.203125 -17.34375 40.203125 -14.53125 L 40.203125 0 L 32.59375 0 L 32.59375 -12.46875 C 32.59375 -13.644531 32.269531 -14.625 31.625 -15.40625 C 30.976562 -16.195312 30.007812 -16.59375 28.71875 -16.59375 C 27.601562 -16.59375 26.75 -16.253906 26.15625 -15.578125 C 25.570312 -14.910156 25.253906 -14.101562 25.203125 -13.15625 L 25.203125 0 L 17.59375 0 L 17.59375 -12.46875 C 17.59375 -13.644531 17.269531 -14.625 16.625 -15.40625 C 15.976562 -16.195312 15.007812 -16.59375 13.71875 -16.59375 C 12.539062 -16.59375 11.65625 -16.226562 11.0625 -15.5 C 10.476562 -14.769531 10.1875 -13.90625 10.1875 -12.90625 L 10.1875 0 Z M 2.578125 0" transform="translate(99.762 280.78)"/></g></g></g><g fill="#FFF"><g><g><path d="M 25.28125 -19.328125 C 27.34375 -17.078125 28.375 -14.316406 28.375 -11.046875 C 28.375 -7.785156 27.34375 -5.019531 25.28125 -2.75 C 23.21875 -0.488281 20.597656 0.640625 17.421875 0.640625 C 14.492188 0.640625 12.082031 -0.273438 10.1875 -2.109375 L 10.1875 11.1875 L 2.578125 11.1875 L 2.578125 -22.0625 L 10.109375 -22.0625 L 10.109375 -19.5625 L 10.1875 -19.5625 C 12.082031 -21.65625 14.492188 -22.703125 17.421875 -22.703125 C 20.597656 -22.703125 23.21875 -21.578125 25.28125 -19.328125 Z M 18.8125 -7.296875 C 19.800781 -8.273438 20.296875 -9.523438 20.296875 -11.046875 C 20.296875 -12.566406 19.820312 -13.804688 18.875 -14.765625 C 17.925781 -15.734375 16.679688 -16.21875 15.140625 -16.21875 C 13.648438 -16.21875 12.421875 -15.726562 11.453125 -14.75 C 10.492188 -13.769531 10.015625 -12.535156 10.015625 -11.046875 C 10.015625 -9.523438 10.507812 -8.273438 11.5 -7.296875 C 12.488281 -6.328125 13.703125 -5.84375 15.140625 -5.84375 C 16.597656 -5.84375 17.820312 -6.328125 18.8125 -7.296875 Z M 18.8125 -7.296875" transform="translate(148.477 280.78)"/></g></g></g><g fill="#FFF"><g><g><path d="M 4.078125 -2.734375 C 2.015625 -4.984375 0.984375 -7.738281 0.984375 -11 C 0.984375 -14.269531 2.015625 -17.035156 4.078125 -19.296875 C 6.148438 -21.566406 8.773438 -22.703125 11.953125 -22.703125 C 14.878906 -22.703125 17.285156 -21.785156 19.171875 -19.953125 L 19.171875 -36.984375 L 26.78125 -36.984375 L 26.78125 0 L 19.265625 0 L 19.265625 -2.5 L 19.171875 -2.5 C 17.285156 -0.40625 14.878906 0.640625 11.953125 0.640625 C 8.773438 0.640625 6.148438 -0.484375 4.078125 -2.734375 Z M 10.5625 -14.75 C 9.570312 -13.769531 9.078125 -12.519531 9.078125 -11 C 9.078125 -9.488281 9.546875 -8.25 10.484375 -7.28125 C 11.429688 -6.320312 12.679688 -5.84375 14.234375 -5.84375 C 15.722656 -5.84375 16.945312 -6.328125 17.90625 -7.296875 C 18.863281 -8.273438 19.34375 -9.515625 19.34375 -11.015625 C 19.34375 -12.523438 18.847656 -13.769531 17.859375 -14.75 C 16.878906 -15.726562 15.671875 -16.21875 14.234375 -16.21875 C 12.773438 -16.21875 11.550781 -15.726562 10.5625 -14.75 Z M 10.5625 -14.75" transform="translate(184.207 280.78)"/></g></g></g><g fill="#FFF"><g><g><path d="M 24.890625 -9.96875 L 8.90625 -9.96875 C 8.90625 -8.425781 9.40625 -7.28125 10.40625 -6.53125 C 11.40625 -5.789062 12.492188 -5.421875 13.671875 -5.421875 C 14.898438 -5.421875 15.875 -5.582031 16.59375 -5.90625 C 17.3125 -6.238281 18.128906 -6.894531 19.046875 -7.875 L 24.546875 -5.109375 C 22.253906 -1.273438 18.441406 0.640625 13.109375 0.640625 C 9.785156 0.640625 6.929688 -0.492188 4.546875 -2.765625 C 2.171875 -5.046875 0.984375 -7.789062 0.984375 -11 C 0.984375 -14.21875 2.171875 -16.972656 4.546875 -19.265625 C 6.929688 -21.554688 9.785156 -22.703125 13.109375 -22.703125 C 16.609375 -22.703125 19.453125 -21.691406 21.640625 -19.671875 C 23.835938 -17.648438 24.9375 -14.765625 24.9375 -11.015625 C 24.9375 -10.492188 24.921875 -10.144531 24.890625 -9.96875 Z M 9.109375 -14.1875 L 17.5 -14.1875 C 17.332031 -15.332031 16.878906 -16.210938 16.140625 -16.828125 C 15.410156 -17.453125 14.472656 -17.765625 13.328125 -17.765625 C 12.066406 -17.765625 11.0625 -17.429688 10.3125 -16.765625 C 9.570312 -16.109375 9.171875 -15.25 9.109375 -14.1875 Z M 9.109375 -14.1875" transform="translate(219.938 280.78)"/></g></g></g><g fill="#FFF"><g><g><path d="M 12.171875 -22.703125 C 13.429688 -22.703125 14.675781 -22.554688 15.90625 -22.265625 C 17.144531 -21.984375 18.0625 -21.695312 18.65625 -21.40625 L 19.5625 -20.984375 L 17.078125 -16 C 15.347656 -16.914062 13.710938 -17.375 12.171875 -17.375 C 11.304688 -17.375 10.691406 -17.28125 10.328125 -17.09375 C 9.972656 -16.90625 9.796875 -16.550781 9.796875 -16.03125 C 9.796875 -15.914062 9.8125 -15.800781 9.84375 -15.6875 C 9.875 -15.570312 9.929688 -15.460938 10.015625 -15.359375 C 10.097656 -15.265625 10.175781 -15.179688 10.25 -15.109375 C 10.320312 -15.035156 10.441406 -14.957031 10.609375 -14.875 C 10.785156 -14.789062 10.925781 -14.726562 11.03125 -14.6875 C 11.132812 -14.644531 11.300781 -14.578125 11.53125 -14.484375 C 11.757812 -14.398438 11.929688 -14.335938 12.046875 -14.296875 C 12.160156 -14.253906 12.351562 -14.1875 12.625 -14.09375 C 12.894531 -14.007812 13.101562 -13.957031 13.25 -13.9375 C 14.132812 -13.675781 14.90625 -13.382812 15.5625 -13.0625 C 16.226562 -12.75 16.925781 -12.320312 17.65625 -11.78125 C 18.382812 -11.238281 18.945312 -10.550781 19.34375 -9.71875 C 19.75 -8.882812 19.953125 -7.9375 19.953125 -6.875 C 19.953125 -1.863281 16.46875 0.640625 9.5 0.640625 C 7.925781 0.640625 6.425781 0.398438 5 -0.078125 C 3.582031 -0.566406 2.5625 -1.054688 1.9375 -1.546875 L 0.984375 -2.328125 L 4.078125 -7.53125 C 4.304688 -7.320312 4.609375 -7.082031 4.984375 -6.8125 C 5.359375 -6.539062 6.03125 -6.164062 7 -5.6875 C 7.976562 -5.21875 8.828125 -4.984375 9.546875 -4.984375 C 11.117188 -4.984375 11.90625 -5.515625 11.90625 -6.578125 C 11.90625 -7.066406 11.703125 -7.445312 11.296875 -7.71875 C 10.898438 -7.988281 10.222656 -8.296875 9.265625 -8.640625 C 8.304688 -8.984375 7.554688 -9.300781 7.015625 -9.59375 C 5.628906 -10.300781 4.535156 -11.109375 3.734375 -12.015625 C 2.929688 -12.921875 2.53125 -14.117188 2.53125 -15.609375 C 2.53125 -17.847656 3.394531 -19.585938 5.125 -20.828125 C 6.863281 -22.078125 9.210938 -22.703125 12.171875 -22.703125 Z M 12.171875 -22.703125" transform="translate(252.228 280.78)"/></g></g></g><g fill="#FFF"><g><g><path d="M 27.78125 -22.0625 L 17.28125 -11.53125 L 28.8125 0 L 19 0 L 10.1875 -8.8125 L 10.1875 0 L 2.578125 0 L 2.578125 -36.984375 L 10.1875 -36.984375 L 10.1875 -14.359375 L 17.890625 -22.0625 Z M 27.78125 -22.0625" transform="translate(279.746 280.78)"/></g></g></g><g fill="#FFF"><g><g><path d="M 7.359375 -1.046875 L 7.359375 0 L 1.265625 0 L 1.265625 -8.40625 L 7.1875 -8.40625 L 7.1875 -7.359375 L 2.453125 -7.359375 L 2.453125 -4.78125 L 6.671875 -4.78125 L 6.671875 -3.75 L 2.453125 -3.75 L 2.453125 -1.046875 Z M 7.359375 -1.046875" transform="translate(67.42 317.7)"/></g></g></g><g fill="#FFF"><g><g><path d="M 9.046875 -6.421875 C 9.847656 -6.421875 10.484375 -6.1875 10.953125 -5.71875 C 11.421875 -5.257812 11.65625 -4.570312 11.65625 -3.65625 L 11.65625 0 L 10.5 0 L 10.5 -3.53125 C 10.5 -4.144531 10.351562 -4.609375 10.0625 -4.921875 C 9.78125 -5.234375 9.378906 -5.390625 8.859375 -5.390625 C 8.273438 -5.390625 7.8125 -5.207031 7.46875 -4.84375 C 7.125 -4.476562 6.953125 -3.957031 6.953125 -3.28125 L 6.953125 0 L 5.796875 0 L 5.796875 -3.53125 C 5.796875 -4.144531 5.648438 -4.609375 5.359375 -4.921875 C 5.078125 -5.234375 4.675781 -5.390625 4.15625 -5.390625 C 3.570312 -5.390625 3.109375 -5.207031 2.765625 -4.84375 C 2.421875 -4.476562 2.25 -3.957031 2.25 -3.28125 L 2.25 0 L 1.09375 0 L 1.09375 -6.359375 L 2.203125 -6.359375 L 2.203125 -5.40625 C 2.429688 -5.738281 2.734375 -5.988281 3.109375 -6.15625 C 3.484375 -6.332031 3.910156 -6.421875 4.390625 -6.421875 C 4.890625 -6.421875 5.328125 -6.316406 5.703125 -6.109375 C 6.085938 -5.910156 6.382812 -5.625 6.59375 -5.25 C 6.832031 -5.613281 7.164062 -5.898438 7.59375 -6.109375 C 8.03125 -6.316406 8.515625 -6.421875 9.046875 -6.421875 Z M 9.046875 -6.421875" transform="translate(80.62 317.7)"/></g></g></g><g fill="#FFF"><g><g><path d="M 4.46875 -6.421875 C 5.082031 -6.421875 5.632812 -6.285156 6.125 -6.015625 C 6.613281 -5.742188 6.992188 -5.363281 7.265625 -4.875 C 7.546875 -4.382812 7.6875 -3.820312 7.6875 -3.1875 C 7.6875 -2.539062 7.546875 -1.972656 7.265625 -1.484375 C 6.992188 -0.992188 6.613281 -0.609375 6.125 -0.328125 C 5.632812 -0.0546875 5.082031 0.078125 4.46875 0.078125 C 4.007812 0.078125 3.585938 -0.0078125 3.203125 -0.1875 C 2.828125 -0.363281 2.507812 -0.617188 2.25 -0.953125 L 2.25 2.328125 L 1.09375 2.328125 L 1.09375 -6.359375 L 2.203125 -6.359375 L 2.203125 -5.359375 C 2.453125 -5.703125 2.769531 -5.960938 3.15625 -6.140625 C 3.550781 -6.328125 3.988281 -6.421875 4.46875 -6.421875 Z M 4.375 -0.9375 C 4.78125 -0.9375 5.144531 -1.03125 5.46875 -1.21875 C 5.789062 -1.40625 6.046875 -1.664062 6.234375 -2 C 6.421875 -2.34375 6.515625 -2.738281 6.515625 -3.1875 C 6.515625 -3.625 6.421875 -4.007812 6.234375 -4.34375 C 6.046875 -4.6875 5.789062 -4.945312 5.46875 -5.125 C 5.144531 -5.3125 4.78125 -5.40625 4.375 -5.40625 C 3.96875 -5.40625 3.601562 -5.3125 3.28125 -5.125 C 2.957031 -4.9375 2.703125 -4.675781 2.515625 -4.34375 C 2.328125 -4.007812 2.234375 -3.625 2.234375 -3.1875 C 2.234375 -2.738281 2.320312 -2.34375 2.5 -2 C 2.6875 -1.664062 2.941406 -1.40625 3.265625 -1.21875 C 3.597656 -1.03125 3.96875 -0.9375 4.375 -0.9375 Z M 4.375 -0.9375" transform="translate(98.464 317.7)"/></g></g></g><g fill="#FFF"><g><g><path d="M 1.09375 -8.90625 L 2.25 -8.90625 L 2.25 0 L 1.09375 0 Z M 1.09375 -8.90625" transform="translate(111.808 317.7)"/></g></g></g><g fill="#FFF"><g><g><path d="M 3.8125 0.078125 C 3.1875 0.078125 2.617188 -0.0625 2.109375 -0.34375 C 1.609375 -0.625 1.210938 -1.007812 0.921875 -1.5 C 0.640625 -2 0.5 -2.5625 0.5 -3.1875 C 0.5 -3.800781 0.640625 -4.351562 0.921875 -4.84375 C 1.210938 -5.34375 1.609375 -5.726562 2.109375 -6 C 2.617188 -6.28125 3.1875 -6.421875 3.8125 -6.421875 C 4.445312 -6.421875 5.015625 -6.28125 5.515625 -6 C 6.015625 -5.726562 6.40625 -5.34375 6.6875 -4.84375 C 6.96875 -4.351562 7.109375 -3.800781 7.109375 -3.1875 C 7.109375 -2.5625 6.96875 -2 6.6875 -1.5 C 6.40625 -1.007812 6.015625 -0.625 5.515625 -0.34375 C 5.015625 -0.0625 4.445312 0.078125 3.8125 0.078125 Z M 3.8125 -0.9375 C 4.21875 -0.9375 4.582031 -1.03125 4.90625 -1.21875 C 5.238281 -1.40625 5.492188 -1.664062 5.671875 -2 C 5.859375 -2.34375 5.953125 -2.738281 5.953125 -3.1875 C 5.953125 -3.625 5.859375 -4.007812 5.671875 -4.34375 C 5.492188 -4.6875 5.238281 -4.945312 4.90625 -5.125 C 4.582031 -5.3125 4.21875 -5.40625 3.8125 -5.40625 C 3.40625 -5.40625 3.039062 -5.3125 2.71875 -5.125 C 2.394531 -4.945312 2.140625 -4.6875 1.953125 -4.34375 C 1.765625 -4.007812 1.671875 -3.625 1.671875 -3.1875 C 1.671875 -2.738281 1.765625 -2.34375 1.953125 -2 C 2.140625 -1.664062 2.394531 -1.40625 2.71875 -1.21875 C 3.039062 -1.03125 3.40625 -0.9375 3.8125 -0.9375 Z M 3.8125 -0.9375" transform="translate(120.316 317.7)"/></g></g></g><g fill="#FFF"><g><g><path d="M 6.71875 -6.359375 L 3.640625 0.640625 C 3.367188 1.285156 3.050781 1.738281 2.6875 2 C 2.320312 2.269531 1.882812 2.40625 1.375 2.40625 C 1.0625 2.40625 0.757812 2.351562 0.46875 2.25 C 0.175781 2.144531 -0.0664062 2 -0.265625 1.8125 L 0.234375 0.953125 C 0.554688 1.265625 0.9375 1.421875 1.375 1.421875 C 1.644531 1.421875 1.875 1.34375 2.0625 1.1875 C 2.257812 1.039062 2.429688 0.789062 2.578125 0.4375 L 2.78125 -0.015625 L -0.03125 -6.359375 L 1.171875 -6.359375 L 3.390625 -1.265625 L 5.59375 -6.359375 Z M 6.71875 -6.359375" transform="translate(133.096 317.7)"/></g></g></g><g fill="#FFF"><g><g><path d="M 6.84375 -3.140625 C 6.84375 -3.054688 6.832031 -2.941406 6.8125 -2.796875 L 1.65625 -2.796875 C 1.726562 -2.234375 1.972656 -1.78125 2.390625 -1.4375 C 2.816406 -1.101562 3.335938 -0.9375 3.953125 -0.9375 C 4.710938 -0.9375 5.328125 -1.191406 5.796875 -1.703125 L 6.4375 -0.953125 C 6.144531 -0.617188 5.785156 -0.363281 5.359375 -0.1875 C 4.929688 -0.0078125 4.453125 0.078125 3.921875 0.078125 C 3.253906 0.078125 2.660156 -0.0546875 2.140625 -0.328125 C 1.617188 -0.609375 1.210938 -1 0.921875 -1.5 C 0.640625 -2 0.5 -2.5625 0.5 -3.1875 C 0.5 -3.800781 0.632812 -4.351562 0.90625 -4.84375 C 1.1875 -5.34375 1.566406 -5.726562 2.046875 -6 C 2.535156 -6.28125 3.085938 -6.421875 3.703125 -6.421875 C 4.304688 -6.421875 4.84375 -6.28125 5.3125 -6 C 5.789062 -5.726562 6.164062 -5.34375 6.4375 -4.84375 C 6.707031 -4.351562 6.84375 -3.785156 6.84375 -3.140625 Z M 3.703125 -5.453125 C 3.148438 -5.453125 2.6875 -5.28125 2.3125 -4.9375 C 1.9375 -4.601562 1.71875 -4.164062 1.65625 -3.625 L 5.734375 -3.625 C 5.671875 -4.15625 5.453125 -4.59375 5.078125 -4.9375 C 4.710938 -5.28125 4.253906 -5.453125 3.703125 -5.453125 Z M 3.703125 -5.453125" transform="translate(144.964 317.7)"/></g></g></g><g fill="#FFF"><g><g><path d="M 6.84375 -3.140625 C 6.84375 -3.054688 6.832031 -2.941406 6.8125 -2.796875 L 1.65625 -2.796875 C 1.726562 -2.234375 1.972656 -1.78125 2.390625 -1.4375 C 2.816406 -1.101562 3.335938 -0.9375 3.953125 -0.9375 C 4.710938 -0.9375 5.328125 -1.191406 5.796875 -1.703125 L 6.4375 -0.953125 C 6.144531 -0.617188 5.785156 -0.363281 5.359375 -0.1875 C 4.929688 -0.0078125 4.453125 0.078125 3.921875 0.078125 C 3.253906 0.078125 2.660156 -0.0546875 2.140625 -0.328125 C 1.617188 -0.609375 1.210938 -1 0.921875 -1.5 C 0.640625 -2 0.5 -2.5625 0.5 -3.1875 C 0.5 -3.800781 0.632812 -4.351562 0.90625 -4.84375 C 1.1875 -5.34375 1.566406 -5.726562 2.046875 -6 C 2.535156 -6.28125 3.085938 -6.421875 3.703125 -6.421875 C 4.304688 -6.421875 4.84375 -6.28125 5.3125 -6 C 5.789062 -5.726562 6.164062 -5.34375 6.4375 -4.84375 C 6.707031 -4.351562 6.84375 -3.785156 6.84375 -3.140625 Z M 3.703125 -5.453125 C 3.148438 -5.453125 2.6875 -5.28125 2.3125 -4.9375 C 1.9375 -4.601562 1.71875 -4.164062 1.65625 -3.625 L 5.734375 -3.625 C 5.671875 -4.15625 5.453125 -4.59375 5.078125 -4.9375 C 4.710938 -5.28125 4.253906 -5.453125 3.703125 -5.453125 Z M 3.703125 -5.453125" transform="translate(157.468 317.7)"/></g></g></g><g fill="#FFF"><g><g><path d="M 9.046875 0 L 9.03125 -6.125 L 6 -1.015625 L 5.453125 -1.015625 L 2.40625 -6.078125 L 2.40625 0 L 1.265625 0 L 1.265625 -8.40625 L 2.25 -8.40625 L 5.75 -2.5 L 9.203125 -8.40625 L 10.1875 -8.40625 L 10.203125 0 Z M 9.046875 0" transform="translate(178.36 317.7)"/></g></g></g><g fill="#FFF"><g><g><path d="M 3.40625 -6.421875 C 4.289062 -6.421875 4.960938 -6.203125 5.421875 -5.765625 C 5.890625 -5.335938 6.125 -4.695312 6.125 -3.84375 L 6.125 0 L 5.046875 0 L 5.046875 -0.84375 C 4.847656 -0.539062 4.570312 -0.3125 4.21875 -0.15625 C 3.863281 0 3.441406 0.078125 2.953125 0.078125 C 2.242188 0.078125 1.671875 -0.09375 1.234375 -0.4375 C 0.804688 -0.78125 0.59375 -1.234375 0.59375 -1.796875 C 0.59375 -2.359375 0.796875 -2.804688 1.203125 -3.140625 C 1.617188 -3.484375 2.269531 -3.65625 3.15625 -3.65625 L 4.984375 -3.65625 L 4.984375 -3.890625 C 4.984375 -4.378906 4.835938 -4.753906 4.546875 -5.015625 C 4.253906 -5.285156 3.832031 -5.421875 3.28125 -5.421875 C 2.90625 -5.421875 2.535156 -5.359375 2.171875 -5.234375 C 1.804688 -5.109375 1.503906 -4.941406 1.265625 -4.734375 L 0.78125 -5.609375 C 1.101562 -5.867188 1.492188 -6.066406 1.953125 -6.203125 C 2.410156 -6.347656 2.894531 -6.421875 3.40625 -6.421875 Z M 3.140625 -0.8125 C 3.578125 -0.8125 3.957031 -0.910156 4.28125 -1.109375 C 4.601562 -1.304688 4.835938 -1.582031 4.984375 -1.9375 L 4.984375 -2.828125 L 3.203125 -2.828125 C 2.222656 -2.828125 1.734375 -2.5 1.734375 -1.84375 C 1.734375 -1.53125 1.859375 -1.28125 2.109375 -1.09375 C 2.359375 -0.90625 2.703125 -0.8125 3.140625 -0.8125 Z M 3.140625 -0.8125" transform="translate(194.98 317.7)"/></g></g></g><g fill="#FFF"><g><g><path d="M 4.484375 -6.421875 C 5.296875 -6.421875 5.9375 -6.1875 6.40625 -5.71875 C 6.882812 -5.25 7.125 -4.5625 7.125 -3.65625 L 7.125 0 L 5.96875 0 L 5.96875 -3.53125 C 5.96875 -4.144531 5.820312 -4.609375 5.53125 -4.921875 C 5.238281 -5.234375 4.816406 -5.390625 4.265625 -5.390625 C 3.640625 -5.390625 3.144531 -5.207031 2.78125 -4.84375 C 2.425781 -4.476562 2.25 -3.957031 2.25 -3.28125 L 2.25 0 L 1.09375 0 L 1.09375 -6.359375 L 2.203125 -6.359375 L 2.203125 -5.40625 C 2.429688 -5.726562 2.742188 -5.976562 3.140625 -6.15625 C 3.535156 -6.332031 3.984375 -6.421875 4.484375 -6.421875 Z M 4.484375 -6.421875" transform="translate(207.316 317.7)"/></g></g></g><g fill="#FFF"><g><g><path d="M 3.40625 -6.421875 C 4.289062 -6.421875 4.960938 -6.203125 5.421875 -5.765625 C 5.890625 -5.335938 6.125 -4.695312 6.125 -3.84375 L 6.125 0 L 5.046875 0 L 5.046875 -0.84375 C 4.847656 -0.539062 4.570312 -0.3125 4.21875 -0.15625 C 3.863281 0 3.441406 0.078125 2.953125 0.078125 C 2.242188 0.078125 1.671875 -0.09375 1.234375 -0.4375 C 0.804688 -0.78125 0.59375 -1.234375 0.59375 -1.796875 C 0.59375 -2.359375 0.796875 -2.804688 1.203125 -3.140625 C 1.617188 -3.484375 2.269531 -3.65625 3.15625 -3.65625 L 4.984375 -3.65625 L 4.984375 -3.890625 C 4.984375 -4.378906 4.835938 -4.753906 4.546875 -5.015625 C 4.253906 -5.285156 3.832031 -5.421875 3.28125 -5.421875 C 2.90625 -5.421875 2.535156 -5.359375 2.171875 -5.234375 C 1.804688 -5.109375 1.503906 -4.941406 1.265625 -4.734375 L 0.78125 -5.609375 C 1.101562 -5.867188 1.492188 -6.066406 1.953125 -6.203125 C 2.410156 -6.347656 2.894531 -6.421875 3.40625 -6.421875 Z M 3.140625 -0.8125 C 3.578125 -0.8125 3.957031 -0.910156 4.28125 -1.109375 C 4.601562 -1.304688 4.835938 -1.582031 4.984375 -1.9375 L 4.984375 -2.828125 L 3.203125 -2.828125 C 2.222656 -2.828125 1.734375 -2.5 1.734375 -1.84375 C 1.734375 -1.53125 1.859375 -1.28125 2.109375 -1.09375 C 2.359375 -0.90625 2.703125 -0.8125 3.140625 -0.8125 Z M 3.140625 -0.8125" transform="translate(220.648 317.7)"/></g></g></g><g fill="#FFF"><g><g><path d="M 7.171875 -6.359375 L 7.171875 -0.859375 C 7.171875 0.242188 6.894531 1.0625 6.34375 1.59375 C 5.789062 2.132812 4.96875 2.40625 3.875 2.40625 C 3.269531 2.40625 2.695312 2.320312 2.15625 2.15625 C 1.613281 1.988281 1.175781 1.753906 0.84375 1.453125 L 1.390625 0.5625 C 1.691406 0.820312 2.054688 1.023438 2.484375 1.171875 C 2.921875 1.316406 3.375 1.390625 3.84375 1.390625 C 4.582031 1.390625 5.128906 1.210938 5.484375 0.859375 C 5.847656 0.515625 6.03125 -0.0195312 6.03125 -0.75 L 6.03125 -1.25 C 5.75 -0.914062 5.410156 -0.664062 5.015625 -0.5 C 4.617188 -0.34375 4.191406 -0.265625 3.734375 -0.265625 C 3.117188 -0.265625 2.566406 -0.394531 2.078125 -0.65625 C 1.585938 -0.914062 1.203125 -1.28125 0.921875 -1.75 C 0.640625 -2.21875 0.5 -2.75 0.5 -3.34375 C 0.5 -3.945312 0.640625 -4.484375 0.921875 -4.953125 C 1.203125 -5.421875 1.585938 -5.78125 2.078125 -6.03125 C 2.566406 -6.289062 3.117188 -6.421875 3.734375 -6.421875 C 4.210938 -6.421875 4.65625 -6.332031 5.0625 -6.15625 C 5.476562 -5.976562 5.816406 -5.71875 6.078125 -5.375 L 6.078125 -6.359375 Z M 3.859375 -1.265625 C 4.273438 -1.265625 4.648438 -1.351562 4.984375 -1.53125 C 5.316406 -1.707031 5.578125 -1.953125 5.765625 -2.265625 C 5.953125 -2.585938 6.046875 -2.945312 6.046875 -3.34375 C 6.046875 -3.957031 5.84375 -4.453125 5.4375 -4.828125 C 5.03125 -5.210938 4.503906 -5.40625 3.859375 -5.40625 C 3.210938 -5.40625 2.6875 -5.210938 2.28125 -4.828125 C 1.875 -4.453125 1.671875 -3.957031 1.671875 -3.34375 C 1.671875 -2.945312 1.765625 -2.585938 1.953125 -2.265625 C 2.140625 -1.953125 2.398438 -1.707031 2.734375 -1.53125 C 3.066406 -1.351562 3.441406 -1.265625 3.859375 -1.265625 Z M 3.859375 -1.265625" transform="translate(232.984 317.7)"/></g></g></g><g fill="#FFF"><g><g><path d="M 6.84375 -3.140625 C 6.84375 -3.054688 6.832031 -2.941406 6.8125 -2.796875 L 1.65625 -2.796875 C 1.726562 -2.234375 1.972656 -1.78125 2.390625 -1.4375 C 2.816406 -1.101562 3.335938 -0.9375 3.953125 -0.9375 C 4.710938 -0.9375 5.328125 -1.191406 5.796875 -1.703125 L 6.4375 -0.953125 C 6.144531 -0.617188 5.785156 -0.363281 5.359375 -0.1875 C 4.929688 -0.0078125 4.453125 0.078125 3.921875 0.078125 C 3.253906 0.078125 2.660156 -0.0546875 2.140625 -0.328125 C 1.617188 -0.609375 1.210938 -1 0.921875 -1.5 C 0.640625 -2 0.5 -2.5625 0.5 -3.1875 C 0.5 -3.800781 0.632812 -4.351562 0.90625 -4.84375 C 1.1875 -5.34375 1.566406 -5.726562 2.046875 -6 C 2.535156 -6.28125 3.085938 -6.421875 3.703125 -6.421875 C 4.304688 -6.421875 4.84375 -6.28125 5.3125 -6 C 5.789062 -5.726562 6.164062 -5.34375 6.4375 -4.84375 C 6.707031 -4.351562 6.84375 -3.785156 6.84375 -3.140625 Z M 3.703125 -5.453125 C 3.148438 -5.453125 2.6875 -5.28125 2.3125 -4.9375 C 1.9375 -4.601562 1.71875 -4.164062 1.65625 -3.625 L 5.734375 -3.625 C 5.671875 -4.15625 5.453125 -4.59375 5.078125 -4.9375 C 4.710938 -5.28125 4.253906 -5.453125 3.703125 -5.453125 Z M 3.703125 -5.453125" transform="translate(246.424 317.7)"/></g></g></g><g fill="#FFF"><g><g><path d="M 9.046875 -6.421875 C 9.847656 -6.421875 10.484375 -6.1875 10.953125 -5.71875 C 11.421875 -5.257812 11.65625 -4.570312 11.65625 -3.65625 L 11.65625 0 L 10.5 0 L 10.5 -3.53125 C 10.5 -4.144531 10.351562 -4.609375 10.0625 -4.921875 C 9.78125 -5.234375 9.378906 -5.390625 8.859375 -5.390625 C 8.273438 -5.390625 7.8125 -5.207031 7.46875 -4.84375 C 7.125 -4.476562 6.953125 -3.957031 6.953125 -3.28125 L 6.953125 0 L 5.796875 0 L 5.796875 -3.53125 C 5.796875 -4.144531 5.648438 -4.609375 5.359375 -4.921875 C 5.078125 -5.234375 4.675781 -5.390625 4.15625 -5.390625 C 3.570312 -5.390625 3.109375 -5.207031 2.765625 -4.84375 C 2.421875 -4.476562 2.25 -3.957031 2.25 -3.28125 L 2.25 0 L 1.09375 0 L 1.09375 -6.359375 L 2.203125 -6.359375 L 2.203125 -5.40625 C 2.429688 -5.738281 2.734375 -5.988281 3.109375 -6.15625 C 3.484375 -6.332031 3.910156 -6.421875 4.390625 -6.421875 C 4.890625 -6.421875 5.328125 -6.316406 5.703125 -6.109375 C 6.085938 -5.910156 6.382812 -5.625 6.59375 -5.25 C 6.832031 -5.613281 7.164062 -5.898438 7.59375 -6.109375 C 8.03125 -6.316406 8.515625 -6.421875 9.046875 -6.421875 Z M 9.046875 -6.421875" transform="translate(258.928 317.7)"/></g></g></g><g fill="#FFF"><g><g><path d="M 6.84375 -3.140625 C 6.84375 -3.054688 6.832031 -2.941406 6.8125 -2.796875 L 1.65625 -2.796875 C 1.726562 -2.234375 1.972656 -1.78125 2.390625 -1.4375 C 2.816406 -1.101562 3.335938 -0.9375 3.953125 -0.9375 C 4.710938 -0.9375 5.328125 -1.191406 5.796875 -1.703125 L 6.4375 -0.953125 C 6.144531 -0.617188 5.785156 -0.363281 5.359375 -0.1875 C 4.929688 -0.0078125 4.453125 0.078125 3.921875 0.078125 C 3.253906 0.078125 2.660156 -0.0546875 2.140625 -0.328125 C 1.617188 -0.609375 1.210938 -1 0.921875 -1.5 C 0.640625 -2 0.5 -2.5625 0.5 -3.1875 C 0.5 -3.800781 0.632812 -4.351562 0.90625 -4.84375 C 1.1875 -5.34375 1.566406 -5.726562 2.046875 -6 C 2.535156 -6.28125 3.085938 -6.421875 3.703125 -6.421875 C 4.304688 -6.421875 4.84375 -6.28125 5.3125 -6 C 5.789062 -5.726562 6.164062 -5.34375 6.4375 -4.84375 C 6.707031 -4.351562 6.84375 -3.785156 6.84375 -3.140625 Z M 3.703125 -5.453125 C 3.148438 -5.453125 2.6875 -5.28125 2.3125 -4.9375 C 1.9375 -4.601562 1.71875 -4.164062 1.65625 -3.625 L 5.734375 -3.625 C 5.671875 -4.15625 5.453125 -4.59375 5.078125 -4.9375 C 4.710938 -5.28125 4.253906 -5.453125 3.703125 -5.453125 Z M 3.703125 -5.453125" transform="translate(276.772 317.7)"/></g></g></g><g fill="#FFF"><g><g><path d="M 4.484375 -6.421875 C 5.296875 -6.421875 5.9375 -6.1875 6.40625 -5.71875 C 6.882812 -5.25 7.125 -4.5625 7.125 -3.65625 L 7.125 0 L 5.96875 0 L 5.96875 -3.53125 C 5.96875 -4.144531 5.820312 -4.609375 5.53125 -4.921875 C 5.238281 -5.234375 4.816406 -5.390625 4.265625 -5.390625 C 3.640625 -5.390625 3.144531 -5.207031 2.78125 -4.84375 C 2.425781 -4.476562 2.25 -3.957031 2.25 -3.28125 L 2.25 0 L 1.09375 0 L 1.09375 -6.359375 L 2.203125 -6.359375 L 2.203125 -5.40625 C 2.429688 -5.726562 2.742188 -5.976562 3.140625 -6.15625 C 3.535156 -6.332031 3.984375 -6.421875 4.484375 -6.421875 Z M 4.484375 -6.421875" transform="translate(289.276 317.7)"/></g></g></g><g fill="#FFF"><g><g><path d="M 4.671875 -0.375 C 4.503906 -0.226562 4.296875 -0.113281 4.046875 -0.03125 C 3.796875 0.0390625 3.539062 0.078125 3.28125 0.078125 C 2.632812 0.078125 2.132812 -0.09375 1.78125 -0.4375 C 1.4375 -0.78125 1.265625 -1.273438 1.265625 -1.921875 L 1.265625 -5.40625 L 0.1875 -5.40625 L 0.1875 -6.359375 L 1.265625 -6.359375 L 1.265625 -7.75 L 2.40625 -7.75 L 2.40625 -6.359375 L 4.234375 -6.359375 L 4.234375 -5.40625 L 2.40625 -5.40625 L 2.40625 -1.96875 C 2.40625 -1.625 2.488281 -1.359375 2.65625 -1.171875 C 2.832031 -0.992188 3.082031 -0.90625 3.40625 -0.90625 C 3.757812 -0.90625 4.0625 -1.003906 4.3125 -1.203125 Z M 4.671875 -0.375" transform="translate(302.608 317.7)"/></g></g></g><g fill="#FFF"><g><g><path d="M 3.703125 0.09375 C 3.078125 0.09375 2.46875 0 1.875 -0.1875 C 1.289062 -0.382812 0.828125 -0.640625 0.484375 -0.953125 L 0.9375 -1.890625 C 1.257812 -1.609375 1.671875 -1.375 2.171875 -1.1875 C 2.671875 -1.007812 3.179688 -0.921875 3.703125 -0.921875 C 4.398438 -0.921875 4.921875 -1.035156 5.265625 -1.265625 C 5.609375 -1.503906 5.78125 -1.820312 5.78125 -2.21875 C 5.78125 -2.507812 5.6875 -2.742188 5.5 -2.921875 C 5.3125 -3.097656 5.078125 -3.234375 4.796875 -3.328125 C 4.523438 -3.429688 4.140625 -3.539062 3.640625 -3.65625 C 3.003906 -3.8125 2.492188 -3.960938 2.109375 -4.109375 C 1.722656 -4.265625 1.390625 -4.5 1.109375 -4.8125 C 0.835938 -5.132812 0.703125 -5.5625 0.703125 -6.09375 C 0.703125 -6.539062 0.816406 -6.941406 1.046875 -7.296875 C 1.285156 -7.660156 1.644531 -7.953125 2.125 -8.171875 C 2.601562 -8.390625 3.195312 -8.5 3.90625 -8.5 C 4.40625 -8.5 4.894531 -8.429688 5.375 -8.296875 C 5.851562 -8.171875 6.265625 -7.988281 6.609375 -7.75 L 6.21875 -6.796875 C 5.863281 -7.015625 5.484375 -7.179688 5.078125 -7.296875 C 4.679688 -7.410156 4.289062 -7.46875 3.90625 -7.46875 C 3.226562 -7.46875 2.71875 -7.34375 2.375 -7.09375 C 2.039062 -6.851562 1.875 -6.535156 1.875 -6.140625 C 1.875 -5.859375 1.96875 -5.625 2.15625 -5.4375 C 2.351562 -5.257812 2.59375 -5.117188 2.875 -5.015625 C 3.15625 -4.921875 3.539062 -4.816406 4.03125 -4.703125 C 4.664062 -4.546875 5.171875 -4.390625 5.546875 -4.234375 C 5.929688 -4.085938 6.257812 -3.859375 6.53125 -3.546875 C 6.8125 -3.234375 6.953125 -2.816406 6.953125 -2.296875 C 6.953125 -1.847656 6.832031 -1.441406 6.59375 -1.078125 C 6.351562 -0.722656 5.988281 -0.4375 5.5 -0.21875 C 5.019531 -0.0078125 4.421875 0.09375 3.703125 0.09375 Z M 3.703125 0.09375" transform="translate(152.017 334.2)"/></g></g></g><g fill="#FFF"><g><g><path d="M 6.71875 -6.359375 L 3.640625 0.640625 C 3.367188 1.285156 3.050781 1.738281 2.6875 2 C 2.320312 2.269531 1.882812 2.40625 1.375 2.40625 C 1.0625 2.40625 0.757812 2.351562 0.46875 2.25 C 0.175781 2.144531 -0.0664062 2 -0.265625 1.8125 L 0.234375 0.953125 C 0.554688 1.265625 0.9375 1.421875 1.375 1.421875 C 1.644531 1.421875 1.875 1.34375 2.0625 1.1875 C 2.257812 1.039062 2.429688 0.789062 2.578125 0.4375 L 2.78125 -0.015625 L -0.03125 -6.359375 L 1.171875 -6.359375 L 3.390625 -1.265625 L 5.59375 -6.359375 Z M 6.71875 -6.359375" transform="translate(164.63 334.2)"/></g></g></g><g fill="#FFF"><g><g><path d="M 2.921875 0.078125 C 2.398438 0.078125 1.898438 0.0078125 1.421875 -0.125 C 0.941406 -0.269531 0.5625 -0.453125 0.28125 -0.671875 L 0.765625 -1.578125 C 1.046875 -1.378906 1.382812 -1.21875 1.78125 -1.09375 C 2.1875 -0.976562 2.59375 -0.921875 3 -0.921875 C 4.007812 -0.921875 4.515625 -1.207031 4.515625 -1.78125 C 4.515625 -1.976562 4.445312 -2.128906 4.3125 -2.234375 C 4.175781 -2.347656 4.003906 -2.429688 3.796875 -2.484375 C 3.585938 -2.535156 3.296875 -2.59375 2.921875 -2.65625 C 2.410156 -2.738281 1.992188 -2.832031 1.671875 -2.9375 C 1.347656 -3.039062 1.066406 -3.21875 0.828125 -3.46875 C 0.597656 -3.71875 0.484375 -4.066406 0.484375 -4.515625 C 0.484375 -5.085938 0.722656 -5.546875 1.203125 -5.890625 C 1.691406 -6.242188 2.335938 -6.421875 3.140625 -6.421875 C 3.566406 -6.421875 3.988281 -6.367188 4.40625 -6.265625 C 4.832031 -6.160156 5.179688 -6.019531 5.453125 -5.84375 L 4.96875 -4.9375 C 4.445312 -5.269531 3.832031 -5.4375 3.125 -5.4375 C 2.644531 -5.4375 2.273438 -5.351562 2.015625 -5.1875 C 1.753906 -5.03125 1.625 -4.820312 1.625 -4.5625 C 1.625 -4.351562 1.695312 -4.1875 1.84375 -4.0625 C 1.988281 -3.945312 2.164062 -3.859375 2.375 -3.796875 C 2.59375 -3.742188 2.894531 -3.679688 3.28125 -3.609375 C 3.789062 -3.523438 4.203125 -3.429688 4.515625 -3.328125 C 4.828125 -3.234375 5.09375 -3.0625 5.3125 -2.8125 C 5.539062 -2.570312 5.65625 -2.238281 5.65625 -1.8125 C 5.65625 -1.238281 5.410156 -0.78125 4.921875 -0.4375 C 4.429688 -0.09375 3.765625 0.078125 2.921875 0.078125 Z M 2.921875 0.078125" transform="translate(176.498 334.2)"/></g></g></g><g fill="#FFF"><g><g><path d="M 4.671875 -0.375 C 4.503906 -0.226562 4.296875 -0.113281 4.046875 -0.03125 C 3.796875 0.0390625 3.539062 0.078125 3.28125 0.078125 C 2.632812 0.078125 2.132812 -0.09375 1.78125 -0.4375 C 1.4375 -0.78125 1.265625 -1.273438 1.265625 -1.921875 L 1.265625 -5.40625 L 0.1875 -5.40625 L 0.1875 -6.359375 L 1.265625 -6.359375 L 1.265625 -7.75 L 2.40625 -7.75 L 2.40625 -6.359375 L 4.234375 -6.359375 L 4.234375 -5.40625 L 2.40625 -5.40625 L 2.40625 -1.96875 C 2.40625 -1.625 2.488281 -1.359375 2.65625 -1.171875 C 2.832031 -0.992188 3.082031 -0.90625 3.40625 -0.90625 C 3.757812 -0.90625 4.0625 -1.003906 4.3125 -1.203125 Z M 4.671875 -0.375" transform="translate(187.67 334.2)"/></g></g></g><g fill="#FFF"><g><g><path d="M 6.84375 -3.140625 C 6.84375 -3.054688 6.832031 -2.941406 6.8125 -2.796875 L 1.65625 -2.796875 C 1.726562 -2.234375 1.972656 -1.78125 2.390625 -1.4375 C 2.816406 -1.101562 3.335938 -0.9375 3.953125 -0.9375 C 4.710938 -0.9375 5.328125 -1.191406 5.796875 -1.703125 L 6.4375 -0.953125 C 6.144531 -0.617188 5.785156 -0.363281 5.359375 -0.1875 C 4.929688 -0.0078125 4.453125 0.078125 3.921875 0.078125 C 3.253906 0.078125 2.660156 -0.0546875 2.140625 -0.328125 C 1.617188 -0.609375 1.210938 -1 0.921875 -1.5 C 0.640625 -2 0.5 -2.5625 0.5 -3.1875 C 0.5 -3.800781 0.632812 -4.351562 0.90625 -4.84375 C 1.1875 -5.34375 1.566406 -5.726562 2.046875 -6 C 2.535156 -6.28125 3.085938 -6.421875 3.703125 -6.421875 C 4.304688 -6.421875 4.84375 -6.28125 5.3125 -6 C 5.789062 -5.726562 6.164062 -5.34375 6.4375 -4.84375 C 6.707031 -4.351562 6.84375 -3.785156 6.84375 -3.140625 Z M 3.703125 -5.453125 C 3.148438 -5.453125 2.6875 -5.28125 2.3125 -4.9375 C 1.9375 -4.601562 1.71875 -4.164062 1.65625 -3.625 L 5.734375 -3.625 C 5.671875 -4.15625 5.453125 -4.59375 5.078125 -4.9375 C 4.710938 -5.28125 4.253906 -5.453125 3.703125 -5.453125 Z M 3.703125 -5.453125" transform="translate(197.798 334.2)"/></g></g></g><g fill="#FFF"><g><g><path d="M 9.046875 -6.421875 C 9.847656 -6.421875 10.484375 -6.1875 10.953125 -5.71875 C 11.421875 -5.257812 11.65625 -4.570312 11.65625 -3.65625 L 11.65625 0 L 10.5 0 L 10.5 -3.53125 C 10.5 -4.144531 10.351562 -4.609375 10.0625 -4.921875 C 9.78125 -5.234375 9.378906 -5.390625 8.859375 -5.390625 C 8.273438 -5.390625 7.8125 -5.207031 7.46875 -4.84375 C 7.125 -4.476562 6.953125 -3.957031 6.953125 -3.28125 L 6.953125 0 L 5.796875 0 L 5.796875 -3.53125 C 5.796875 -4.144531 5.648438 -4.609375 5.359375 -4.921875 C 5.078125 -5.234375 4.675781 -5.390625 4.15625 -5.390625 C 3.570312 -5.390625 3.109375 -5.207031 2.765625 -4.84375 C 2.421875 -4.476562 2.25 -3.957031 2.25 -3.28125 L 2.25 0 L 1.09375 0 L 1.09375 -6.359375 L 2.203125 -6.359375 L 2.203125 -5.40625 C 2.429688 -5.738281 2.734375 -5.988281 3.109375 -6.15625 C 3.484375 -6.332031 3.910156 -6.421875 4.390625 -6.421875 C 4.890625 -6.421875 5.328125 -6.316406 5.703125 -6.109375 C 6.085938 -5.910156 6.382812 -5.625 6.59375 -5.25 C 6.832031 -5.613281 7.164062 -5.898438 7.59375 -6.109375 C 8.03125 -6.316406 8.515625 -6.421875 9.046875 -6.421875 Z M 9.046875 -6.421875" transform="translate(210.302 334.2)"/></g></g></g></svg>