<svg xmlns="http://www.w3.org/2000/svg" xmlns:xlink="http://www.w3.org/1999/xlink" width="200" zoomAndPan="magnify" viewBox="0 0 150 149.999998" height="200" preserveAspectRatio="xMidYMid meet" version="1.0"><defs><clipPath id="id1"><path d="M 20.8125 20.8125 L 136.3125 20.8125 L 136.3125 136.3125 L 20.8125 136.3125 Z M 20.8125 20.8125 " clip-rule="nonzero"/></clipPath><clipPath id="id2"><path d="M 38 20.8125 L 46 20.8125 L 46 33 L 38 33 Z M 38 20.8125 " clip-rule="nonzero"/></clipPath><clipPath id="id3"><path d="M 75 20.8125 L 82 20.8125 L 82 33 L 75 33 Z M 75 20.8125 " clip-rule="nonzero"/></clipPath><clipPath id="id4"><path d="M 111 20.8125 L 119 20.8125 L 119 33 L 111 33 Z M 111 20.8125 " clip-rule="nonzero"/></clipPath><clipPath id="id5"><path d="M 4.289062 6.515625 L 64.289062 6.515625 L 64.289062 94.265625 L 4.289062 94.265625 Z M 4.289062 6.515625 " clip-rule="nonzero"/></clipPath><clipPath id="id6"><path d="M 141 135 L 141.332031 135 L 141.332031 136 L 141 136 Z M 141 135 " clip-rule="nonzero"/></clipPath><clipPath id="id7"><path d="M 101.582031 116 L 141.332031 116 L 141.332031 142.5 L 101.582031 142.5 Z M 101.582031 116 " clip-rule="nonzero"/></clipPath></defs><g clip-path="url(#id1)"><path fill="rgb(100%, 100%, 100%)" d="M 43.792969 20.808594 L 43.792969 22.625 L 77.035156 22.625 L 77.035156 20.808594 Z M 116.386719 20.808594 L 116.386719 22.625 L 134.5 22.625 L 134.5 134.5 L 22.625 134.5 L 22.625 22.625 L 40.738281 22.625 L 40.738281 20.808594 L 20.8125 20.808594 L 20.8125 136.3125 L 136.316406 136.3125 L 136.316406 20.808594 Z M 80.089844 20.808594 L 80.089844 22.625 L 113.332031 22.625 L 113.332031 20.808594 L 80.089844 20.808594 " fill-opacity="1" fill-rule="nonzero"/></g><path fill="rgb(100%, 100%, 100%)" d="M 135.40625 50.871094 L 21.71875 50.871094 L 21.71875 49.054688 L 135.40625 49.054688 L 135.40625 50.871094 " fill-opacity="1" fill-rule="nonzero"/><path fill="rgb(100%, 100%, 100%)" d="M 45.609375 30.222656 C 45.050781 29.886719 44.441406 29.632812 43.792969 29.476562 L 43.792969 31.367188 C 44.488281 31.605469 45.109375 32.007812 45.609375 32.523438 C 46.429688 33.363281 46.929688 34.511719 46.929688 35.773438 C 46.929688 38.347656 44.839844 40.441406 42.265625 40.441406 C 39.695312 40.441406 37.601562 38.347656 37.601562 35.773438 C 37.601562 34.511719 38.105469 33.363281 38.921875 32.523438 C 39.421875 32.007812 40.042969 31.605469 40.738281 31.367188 L 40.738281 29.476562 C 40.089844 29.632812 39.480469 29.886719 38.921875 30.222656 C 37.042969 31.359375 35.785156 33.421875 35.785156 35.773438 C 35.785156 39.347656 38.691406 42.253906 42.265625 42.253906 C 45.839844 42.253906 48.746094 39.347656 48.746094 35.773438 C 48.746094 33.421875 47.488281 31.359375 45.609375 30.222656 " fill-opacity="1" fill-rule="nonzero"/><path fill="rgb(100%, 100%, 100%)" d="M 81.90625 30.222656 C 81.351562 29.886719 80.738281 29.632812 80.089844 29.476562 L 80.089844 31.367188 C 80.785156 31.605469 81.40625 32.007812 81.90625 32.523438 C 82.722656 33.363281 83.230469 34.511719 83.230469 35.773438 C 83.230469 38.347656 81.132812 40.441406 78.5625 40.441406 C 75.988281 40.441406 73.898438 38.347656 73.898438 35.773438 C 73.898438 34.511719 74.398438 33.363281 75.21875 32.523438 C 75.722656 32.007812 76.339844 31.605469 77.035156 31.367188 L 77.035156 29.476562 C 76.386719 29.632812 75.777344 29.886719 75.21875 30.222656 C 73.339844 31.359375 72.082031 33.421875 72.082031 35.773438 C 72.082031 39.347656 74.988281 42.253906 78.5625 42.253906 C 82.136719 42.253906 85.042969 39.347656 85.042969 35.773438 C 85.042969 33.421875 83.785156 31.359375 81.90625 30.222656 " fill-opacity="1" fill-rule="nonzero"/><path fill="rgb(100%, 100%, 100%)" d="M 118.203125 30.222656 C 117.644531 29.886719 117.035156 29.632812 116.386719 29.476562 L 116.386719 31.367188 C 117.082031 31.605469 117.703125 32.007812 118.203125 32.523438 C 119.023438 33.363281 119.523438 34.511719 119.523438 35.773438 C 119.523438 38.347656 117.433594 40.441406 114.859375 40.441406 C 112.289062 40.441406 110.195312 38.347656 110.195312 35.773438 C 110.195312 34.511719 110.699219 33.363281 111.515625 32.523438 C 112.015625 32.007812 112.636719 31.605469 113.332031 31.367188 L 113.332031 29.476562 C 112.683594 29.632812 112.074219 29.886719 111.515625 30.222656 C 109.636719 31.359375 108.378906 33.421875 108.378906 35.773438 C 108.378906 39.347656 111.285156 42.253906 114.859375 42.253906 C 118.433594 42.253906 121.339844 39.347656 121.339844 35.773438 C 121.339844 33.421875 120.082031 31.359375 118.203125 30.222656 " fill-opacity="1" fill-rule="nonzero"/><path fill="rgb(100%, 100%, 100%)" d="M 72.761719 76.507812 L 61.378906 76.507812 L 61.378906 65.125 L 72.761719 65.125 Z M 59.5625 63.3125 L 59.5625 78.324219 L 74.574219 78.324219 L 74.574219 63.3125 L 59.5625 63.3125 " fill-opacity="1" fill-rule="nonzero"/><path fill="rgb(100%, 100%, 100%)" d="M 95.746094 76.507812 L 84.367188 76.507812 L 84.367188 65.125 L 95.746094 65.125 Z M 82.550781 63.3125 L 82.550781 78.324219 L 97.5625 78.324219 L 97.5625 63.3125 L 82.550781 63.3125 " fill-opacity="1" fill-rule="nonzero"/><path fill="rgb(100%, 100%, 100%)" d="M 118.738281 76.507812 L 107.351562 76.507812 L 107.351562 65.125 L 118.738281 65.125 Z M 105.539062 63.3125 L 105.539062 78.324219 L 120.550781 78.324219 L 120.550781 63.3125 L 105.539062 63.3125 " fill-opacity="1" fill-rule="nonzero"/><path fill="rgb(100%, 100%, 100%)" d="M 49.769531 98.289062 L 38.390625 98.289062 L 38.390625 86.90625 L 49.769531 86.90625 Z M 36.574219 85.089844 L 36.574219 100.101562 L 51.585938 100.101562 L 51.585938 85.089844 L 36.574219 85.089844 " fill-opacity="1" fill-rule="nonzero"/><path fill="rgb(100%, 100%, 100%)" d="M 72.761719 98.289062 L 61.378906 98.289062 L 61.378906 86.90625 L 72.761719 86.90625 Z M 59.5625 85.089844 L 59.5625 100.101562 L 74.574219 100.101562 L 74.574219 85.089844 L 59.5625 85.089844 " fill-opacity="1" fill-rule="nonzero"/><path fill="rgb(100%, 100%, 100%)" d="M 95.746094 98.289062 L 84.367188 98.289062 L 84.367188 86.90625 L 95.746094 86.90625 Z M 82.550781 85.089844 L 82.550781 100.101562 L 97.5625 100.101562 L 97.5625 85.089844 L 82.550781 85.089844 " fill-opacity="1" fill-rule="nonzero"/><path fill="rgb(100%, 100%, 100%)" d="M 118.738281 98.289062 L 107.351562 98.289062 L 107.351562 86.90625 L 118.738281 86.90625 Z M 105.539062 85.089844 L 105.539062 100.101562 L 120.550781 100.101562 L 120.550781 85.089844 L 105.539062 85.089844 " fill-opacity="1" fill-rule="nonzero"/><path fill="rgb(100%, 100%, 100%)" d="M 49.769531 120.066406 L 38.390625 120.066406 L 38.390625 108.683594 L 49.769531 108.683594 Z M 36.574219 106.867188 L 36.574219 121.882812 L 51.585938 121.882812 L 51.585938 106.867188 L 36.574219 106.867188 " fill-opacity="1" fill-rule="nonzero"/><path fill="rgb(100%, 100%, 100%)" d="M 72.761719 120.066406 L 61.378906 120.066406 L 61.378906 108.683594 L 72.761719 108.683594 Z M 59.5625 106.867188 L 59.5625 121.882812 L 74.574219 121.882812 L 74.574219 106.867188 L 59.5625 106.867188 " fill-opacity="1" fill-rule="nonzero"/><path fill="rgb(100%, 100%, 100%)" d="M 95.746094 120.066406 L 84.367188 120.066406 L 84.367188 108.683594 L 95.746094 108.683594 Z M 82.550781 106.867188 L 82.550781 121.882812 L 97.5625 121.882812 L 97.5625 106.867188 L 82.550781 106.867188 " fill-opacity="1" fill-rule="nonzero"/><g clip-path="url(#id2)"><path fill="rgb(100%, 100%, 100%)" d="M 38.921875 20.808594 L 38.921875 32.523438 C 39.421875 32.007812 40.042969 31.605469 40.738281 31.367188 L 40.738281 20.808594 Z M 43.792969 20.808594 L 43.792969 31.367188 C 44.488281 31.605469 45.109375 32.007812 45.609375 32.523438 L 45.609375 20.808594 L 43.792969 20.808594 " fill-opacity="1" fill-rule="nonzero"/></g><g clip-path="url(#id3)"><path fill="rgb(100%, 100%, 100%)" d="M 75.21875 20.808594 L 75.21875 32.523438 C 75.722656 32.007812 76.339844 31.605469 77.035156 31.367188 L 77.035156 20.808594 Z M 80.089844 20.808594 L 80.089844 31.367188 C 80.785156 31.605469 81.40625 32.007812 81.90625 32.523438 L 81.90625 20.808594 L 80.089844 20.808594 " fill-opacity="1" fill-rule="nonzero"/></g><g clip-path="url(#id4)"><path fill="rgb(100%, 100%, 100%)" d="M 111.515625 32.523438 C 112.015625 32.007812 112.636719 31.605469 113.332031 31.367188 L 113.332031 20.808594 L 111.515625 20.808594 Z M 116.386719 20.808594 L 116.386719 31.367188 C 117.082031 31.605469 117.703125 32.007812 118.203125 32.523438 L 118.203125 20.808594 L 116.386719 20.808594 " fill-opacity="1" fill-rule="nonzero"/></g><g clip-path="url(#id5)"><path fill="rgb(100%, 100%, 100%)" d="M 44.210938 14.804688 L 58.695312 14.804688 L 64.242188 6.515625 L 9.867188 6.515625 L 4.320312 14.804688 L 13.757812 14.804688 C 23.320312 14.804688 32.144531 15.539062 35.671875 23.492188 L 9.867188 23.492188 L 4.320312 31.78125 L 36.714844 31.78125 C 36.710938 31.800781 36.710938 31.816406 36.710938 31.835938 C 36.710938 37.792969 31.734375 46.933594 15.289062 46.933594 L 7.335938 46.921875 L 7.34375 54.667969 L 39.207031 94.265625 L 53.394531 94.265625 L 20.417969 53.300781 C 33.992188 52.574219 46.722656 45.03125 48.558594 31.78125 L 58.695312 31.78125 L 64.242188 23.492188 L 48.414062 23.492188 C 47.773438 20.296875 46.386719 17.207031 44.210938 14.804688 Z M 44.210938 14.804688 " fill-opacity="1" fill-rule="nonzero"/></g><path fill="rgb(100%, 100%, 100%)" d="M 121.457031 115.675781 C 127.265625 115.675781 131.976562 109.933594 131.976562 102.847656 C 131.976562 95.765625 130.429688 90.023438 121.457031 90.023438 C 112.480469 90.023438 110.933594 95.765625 110.933594 102.847656 C 110.933594 109.933594 115.644531 115.675781 121.457031 115.675781 Z M 121.457031 115.675781 " fill-opacity="1" fill-rule="nonzero"/><g clip-path="url(#id6)"><path fill="rgb(100%, 100%, 100%)" d="M 141.328125 135.597656 C 141.332031 135.480469 141.332031 134.777344 141.328125 135.597656 Z M 141.328125 135.597656 " fill-opacity="1" fill-rule="nonzero"/></g><g clip-path="url(#id7)"><path fill="rgb(100%, 100%, 100%)" d="M 141.308594 134.742188 C 141.113281 122.402344 139.507812 118.886719 127.21875 116.660156 C 127.21875 116.660156 125.488281 118.871094 121.457031 118.871094 C 117.425781 118.871094 115.695312 116.660156 115.695312 116.660156 C 103.539062 118.863281 101.835938 122.328125 101.613281 134.34375 C 101.59375 135.324219 101.585938 135.375 101.582031 135.261719 C 101.582031 135.472656 101.585938 135.867188 101.585938 136.558594 C 101.585938 136.558594 104.511719 142.476562 121.457031 142.476562 C 138.402344 142.476562 141.328125 136.558594 141.328125 136.558594 C 141.328125 136.113281 141.328125 135.808594 141.328125 135.597656 C 141.328125 135.667969 141.320312 135.53125 141.308594 134.742188 Z M 141.308594 134.742188 " fill-opacity="1" fill-rule="nonzero"/></g></svg>