<svg xmlns="http://www.w3.org/2000/svg" width="1440" viewBox="0 0 1440 810" height="810" version="1.0"><g fill="#FFF"><g><g><path d="M 65.625 -100.8125 L 65.625 -80.65625 L 30.3125 -80.65625 L 30.3125 -60.609375 L 62.9375 -60.609375 L 62.9375 -40.453125 L 30.3125 -40.453125 L 30.3125 0 L 7.328125 0 L 7.328125 -100.8125 Z M 65.625 -100.8125" transform="translate(332.175 235.73)"/></g></g></g><g fill="#FFF"><g><g><path d="M 84.8125 -100.8125 L 84.8125 -35.8125 C 84.8125 -23.425781 81.46875 -14.054688 74.78125 -7.703125 C 68.101562 -1.347656 58.328125 1.828125 45.453125 1.828125 C 32.585938 1.828125 22.8125 -1.347656 16.125 -7.703125 C 9.445312 -14.054688 6.109375 -23.425781 6.109375 -35.8125 L 6.109375 -100.8125 L 29.078125 -100.8125 L 29.078125 -42.53125 C 29.078125 -34.382812 30.359375 -28.722656 32.921875 -25.546875 C 35.492188 -22.367188 39.671875 -20.78125 45.453125 -20.78125 C 51.242188 -20.78125 55.421875 -22.367188 57.984375 -25.546875 C 60.546875 -28.722656 61.828125 -34.382812 61.828125 -42.53125 L 61.828125 -100.8125 Z M 84.8125 -100.8125" transform="translate(499.223 235.73)"/></g></g></g><g fill="#FFF"><g><g><path d="M 90.671875 0 L 85.90625 -59.75 L 85.296875 -59.75 L 64.640625 -0.609375 L 50.953125 -0.609375 L 30.3125 -59.75 L 29.703125 -59.75 L 24.921875 0 L 1.953125 0 L 11 -100.8125 L 35.4375 -100.8125 L 57.796875 -42.65625 L 80.171875 -100.8125 L 104.609375 -100.8125 L 113.65625 0 Z M 90.671875 0" transform="translate(687.9 235.73)"/></g></g></g><g fill="#FFF"><g><g><path d="M 65.015625 -100.8125 L 65.015625 -80.65625 L 30.3125 -80.65625 L 30.3125 -60.609375 L 63.546875 -60.609375 L 63.546875 -40.453125 L 30.3125 -40.453125 L 30.3125 -20.15625 L 65.015625 -20.15625 L 65.015625 0 L 7.328125 0 L 7.328125 -100.8125 Z M 65.015625 -100.8125" transform="translate(901.259 235.73)"/></g></g></g><g fill="#FFF"><g><g><path d="M 7.328125 -100.8125 L 43.375 -100.8125 C 53.070312 -100.8125 60.972656 -98.222656 67.078125 -93.046875 C 73.191406 -87.878906 76.25 -80.488281 76.25 -70.875 C 76.25 -63.457031 74.394531 -57.242188 70.6875 -52.234375 C 66.988281 -47.222656 61.960938 -43.703125 55.609375 -41.671875 L 90.3125 0 L 61.09375 0 L 30.3125 -39.84375 L 30.3125 0 L 7.328125 0 Z M 30.3125 -56.09375 L 33 -56.09375 C 35.113281 -56.09375 36.90625 -56.128906 38.375 -56.203125 C 39.84375 -56.285156 41.507812 -56.570312 43.375 -57.0625 C 45.25 -57.550781 46.753906 -58.242188 47.890625 -59.140625 C 49.035156 -60.035156 50.015625 -61.335938 50.828125 -63.046875 C 51.648438 -64.765625 52.0625 -66.84375 52.0625 -69.28125 C 52.0625 -71.726562 51.648438 -73.804688 50.828125 -75.515625 C 50.015625 -77.234375 49.035156 -78.539062 47.890625 -79.4375 C 46.753906 -80.332031 45.25 -81.023438 43.375 -81.515625 C 41.507812 -82.003906 39.84375 -82.285156 38.375 -82.359375 C 36.90625 -82.441406 35.113281 -82.484375 33 -82.484375 L 30.3125 -82.484375 Z M 30.3125 -56.09375" transform="translate(1069.895 235.73)"/></g></g></g><path stroke-linecap="round" transform="matrix(-2.00017 3.4644 -3.46104 -1.99823 353.612 255.591)" fill="none" d="M 0.50003 -0.000306891 L 80.918754 -0.000117671" stroke="#FFF"/><path stroke-linecap="round" transform="matrix(-2.00017 3.4644 -3.46104 -1.99823 185.76 546.32)" fill="#FFF" stroke-linejoin="round" d="M -2.499932 -1.500214 L -0.500371 -0.000101925 L -2.500273 1.499893 Z M -2.499932 -1.500214" stroke="#FFF"/><path stroke-linecap="round" transform="matrix(-.79844 3.92315 -3.91618 -.79702 535.034 255.592)" fill="none" d="M 0.500094 -0.000441456 L 47.910001 -0.0000189284" stroke="#FFF"/><path stroke-linecap="round" transform="matrix(-.79844 3.92315 -3.91618 -.79702 494.386 455.32)" fill="#FFF" stroke-linejoin="round" d="M -2.500326 -1.500354 L -0.499869 -0.0000625746 L -2.500149 1.499979 Z M -2.500326 -1.500354" stroke="#FFF"/><path stroke-linecap="round" transform="matrix(0 3.99383 -3.99647 0 742.892 267.68)" fill="none" d="M 0.499631 0.000364284 L 82.457003 0.000364284" stroke="#FFF"/><path stroke-linecap="round" transform="matrix(0 3.99383 -3.99647 0 742.892 608.982)" fill="#FFF" stroke-linejoin="round" d="M -2.500304 -1.499985 L -0.50015 0.000364284 L -2.500304 1.499736 Z M -2.500304 -1.499985" stroke="#FFF"/><path stroke-linecap="round" transform="matrix(.68154 3.93567 -3.93786 .68192 951.886 255.594)" fill="none" d="M 0.500039 0.0000636328 L 47.630081 0.000101433" stroke="#FFF"/><path stroke-linecap="round" transform="matrix(.68154 3.93567 -3.93786 .68192 986.393 454.857)" fill="#FFF" stroke-linejoin="round" d="M -2.499748 -1.499515 L -0.499641 0.000318846 L -2.500393 1.500101 Z M -2.499748 -1.499515" stroke="#FFF"/><path stroke-linecap="round" transform="matrix(1.9795 3.47625 -3.47289 1.97758 1119.338 255.594)" fill="none" d="M 0.500003 0.00000683119 L 80.920684 0.000178911" stroke="#FFF"/><path stroke-linecap="round" transform="matrix(1.9795 3.47625 -3.47289 1.97758 1285.458 547.322)" fill="#FFF" stroke-linejoin="round" d="M -2.500133 -1.500157 L -0.500284 -0.000341834 L -2.49986 1.499802 Z M -2.500133 -1.500157" stroke="#FFF"/><g fill="#FFF"><g><g><path d="M 22.875 -29.003906 L 22.875 -32.800781 L 5.148438 -32.800781 L 5.148438 0 L 9.410156 0 L 9.410156 -14.511719 L 21.152344 -14.511719 L 21.152344 -18.289062 L 9.410156 -18.289062 L 9.410156 -29.003906 Z M 22.875 -29.003906" transform="translate(35.869 625.59)"/></g></g></g><g fill="#FFF"><g><g><path d="M 16.375 0.441406 C 23.15625 0.441406 28.351562 -3.65625 28.351562 -10.878906 L 28.351562 -32.800781 L 24.179688 -32.800781 L 24.179688 -11.460938 C 24.179688 -6.011719 20.734375 -3.355469 16.375 -3.355469 C 12.019531 -3.355469 8.644531 -5.964844 8.644531 -11.460938 L 8.644531 -32.800781 L 4.472656 -32.800781 L 4.472656 -10.878906 C 4.472656 -3.65625 9.644531 0.441406 16.375 0.441406 Z M 16.375 0.441406" transform="translate(60.631 625.59)"/></g></g></g><g fill="#FFF"><g><g><path d="M 27.1875 -32.800781 L 27.1875 -6.382812 L 9.503906 -32.800781 L 5.148438 -32.800781 L 5.148438 0 L 9.25 0 L 9.25 -26.535156 L 26.929688 0 L 31.332031 0 L 31.332031 -32.800781 Z M 27.1875 -32.800781" transform="translate(93.454 625.59)"/></g></g></g><g fill="#FFF"><g><g><path d="M 19.195312 0.441406 C 25.671875 0.441406 31.125 -2.75 33.6875 -8.269531 L 29.84375 -9.832031 C 27.839844 -5.777344 23.878906 -3.539062 19.195312 -3.539062 C 12.394531 -3.539062 7.011719 -8.199219 7.011719 -16.421875 C 7.011719 -24.601562 12.394531 -29.257812 19.195312 -29.257812 C 23.878906 -29.257812 27.839844 -27 29.84375 -22.945312 L 33.6875 -24.53125 C 31.125 -30.027344 25.671875 -33.242188 19.195312 -33.242188 C 9.949219 -33.242188 2.867188 -26.882812 2.867188 -16.421875 C 2.867188 -5.917969 9.949219 0.441406 19.195312 0.441406 Z M 19.195312 0.441406" transform="translate(129.933 625.59)"/></g></g></g><g fill="#FFF"><g><g><path d="M 22.292969 -32.800781 L 1.304688 -32.800781 L 1.304688 -29.003906 L 9.738281 -29.003906 L 9.738281 0 L 13.882812 0 L 13.882812 -29.003906 L 22.292969 -29.003906 Z M 22.292969 -32.800781" transform="translate(165.621 625.59)"/></g></g></g><g fill="#FFF"><g><g><path d="M 5.148438 0 L 9.316406 0 L 9.316406 -32.800781 L 5.148438 -32.800781 Z M 5.148438 0" transform="translate(189.219 625.59)"/></g></g></g><g fill="#FFF"><g><g><path d="M 19.195312 0.441406 C 28.351562 0.441406 35.480469 -5.917969 35.480469 -16.421875 C 35.480469 -26.882812 28.351562 -33.242188 19.195312 -33.242188 C 9.949219 -33.242188 2.867188 -26.882812 2.867188 -16.421875 C 2.867188 -5.917969 9.949219 0.441406 19.195312 0.441406 Z M 19.195312 -3.496094 C 12.394531 -3.496094 7.011719 -8.152344 7.011719 -16.421875 C 7.011719 -24.601562 12.394531 -29.257812 19.195312 -29.257812 C 25.953125 -29.257812 31.308594 -24.601562 31.308594 -16.421875 C 31.308594 -8.152344 25.953125 -3.496094 19.195312 -3.496094 Z M 19.195312 -3.496094" transform="translate(203.685 625.59)"/></g></g></g><g fill="#FFF"><g><g><path d="M 27.1875 -32.800781 L 27.1875 -6.382812 L 9.503906 -32.800781 L 5.148438 -32.800781 L 5.148438 0 L 9.25 0 L 9.25 -26.535156 L 26.929688 0 L 31.332031 0 L 31.332031 -32.800781 Z M 27.1875 -32.800781" transform="translate(242.028 625.59)"/></g></g></g><g fill="#FFF"><g><g><path d="M 26.207031 0 L 30.5625 0 L 18.472656 -32.800781 L 13.488281 -32.800781 L 1.398438 0 L 5.753906 0 L 8.550781 -7.851562 L 23.390625 -7.851562 Z M 9.878906 -11.53125 L 15.980469 -28.605469 L 22.085938 -11.53125 Z M 9.878906 -11.53125" transform="translate(278.508 625.59)"/></g></g></g><g fill="#FFF"><g><g><path d="M 9.316406 -3.796875 L 9.316406 -32.800781 L 5.148438 -32.800781 L 5.148438 0 L 20.710938 0 L 20.710938 -3.796875 Z M 9.316406 -3.796875" transform="translate(310.468 625.59)"/></g></g></g><g fill="#FFF"><g><g><path d="M 16.375 0.441406 C 23.15625 0.441406 28.351562 -3.65625 28.351562 -10.878906 L 28.351562 -32.800781 L 24.179688 -32.800781 L 24.179688 -11.460938 C 24.179688 -6.011719 20.734375 -3.355469 16.375 -3.355469 C 12.019531 -3.355469 8.644531 -5.964844 8.644531 -11.460938 L 8.644531 -32.800781 L 4.472656 -32.800781 L 4.472656 -10.878906 C 4.472656 -3.65625 9.644531 0.441406 16.375 0.441406 Z M 16.375 0.441406" transform="translate(417.763 535.023)"/></g></g></g><g fill="#FFF"><g><g><path d="M 15.304688 0.441406 C 21.710938 0.441406 26.882812 -2.585938 26.882812 -8.875 C 26.882812 -15.539062 20.894531 -17.074219 15.609375 -18.472656 C 11.34375 -19.570312 7.617188 -20.59375 7.617188 -24.25 C 7.617188 -28.117188 11.066406 -29.632812 14.464844 -29.632812 C 18.265625 -29.632812 21.480469 -27.953125 22.480469 -24.273438 L 26.371094 -25.277344 C 25.136719 -30.773438 20.082031 -33.242188 14.304688 -33.242188 C 8.480469 -33.242188 3.425781 -30.238281 3.425781 -24.179688 C 3.425781 -18.125 8.503906 -16.5625 13.628906 -15.1875 C 18.195312 -13.953125 22.550781 -12.882812 22.621094 -8.757812 C 22.691406 -4.636719 19.078125 -3.144531 15.375 -3.144531 C 10.925781 -3.144531 7.546875 -5.335938 6.546875 -9.226562 L 2.445312 -8.246094 C 3.5625 -2.820312 8.480469 0.441406 15.304688 0.441406 Z M 15.304688 0.441406" transform="translate(450.585 535.023)"/></g></g></g><g fill="#FFF"><g><g><path d="M 26.207031 0 L 30.5625 0 L 18.472656 -32.800781 L 13.488281 -32.800781 L 1.398438 0 L 5.753906 0 L 8.550781 -7.851562 L 23.390625 -7.851562 Z M 9.878906 -11.53125 L 15.980469 -28.605469 L 22.085938 -11.53125 Z M 9.878906 -11.53125" transform="translate(480.193 535.023)"/></g></g></g><g fill="#FFF"><g><g><path d="M 20.710938 -17.121094 C 23.34375 -18.378906 24.785156 -20.964844 24.785156 -24.109375 C 24.785156 -29.234375 20.941406 -32.800781 15.09375 -32.800781 L 5.148438 -32.800781 L 5.148438 0 L 17.914062 0 C 23.574219 0 27.1875 -3.679688 27.1875 -8.898438 C 27.1875 -13.417969 24.578125 -16.144531 20.710938 -17.121094 Z M 20.871094 -23.855469 C 20.871094 -20.871094 18.847656 -18.425781 15.839844 -18.425781 L 9.179688 -18.425781 L 9.179688 -29.144531 L 15.074219 -29.144531 C 18.707031 -29.144531 20.871094 -26.835938 20.871094 -23.855469 Z M 17.214844 -3.703125 L 9.179688 -3.703125 L 9.179688 -14.980469 L 16.914062 -14.980469 C 20.851562 -14.980469 23.132812 -12.511719 23.132812 -9.316406 C 23.132812 -6.289062 20.964844 -3.703125 17.214844 -3.703125 Z M 17.214844 -3.703125" transform="translate(512.154 535.023)"/></g></g></g><g fill="#FFF"><g><g><path d="M 9.316406 -3.796875 L 9.316406 -32.800781 L 5.148438 -32.800781 L 5.148438 0 L 20.710938 0 L 20.710938 -3.796875 Z M 9.316406 -3.796875" transform="translate(541.948 535.023)"/></g></g></g><g fill="#FFF"><g><g><path d="M 22.738281 -29.003906 L 22.738281 -32.800781 L 5.148438 -32.800781 L 5.148438 0 L 22.738281 0 L 22.738281 -3.796875 L 9.410156 -3.796875 L 9.410156 -14.511719 L 21.152344 -14.511719 L 21.152344 -18.265625 L 9.410156 -18.265625 L 9.410156 -29.003906 Z M 22.738281 -29.003906" transform="translate(563.985 535.023)"/></g></g></g><g fill="#FFF"><g><g><path d="M 39.835938 0 L 37.367188 -32.800781 L 31.820312 -32.800781 L 21.851562 -7.222656 L 11.902344 -32.800781 L 6.40625 -32.800781 L 3.914062 0 L 7.992188 0 L 10.203125 -26.976562 L 20.617188 0 L 23.109375 0 L 33.59375 -27.070312 L 35.78125 0 Z M 39.835938 0" transform="translate(573.623 697.357)"/></g></g></g><g fill="#FFF"><g><g><path d="M 26.207031 0 L 30.5625 0 L 18.472656 -32.800781 L 13.488281 -32.800781 L 1.398438 0 L 5.753906 0 L 8.550781 -7.851562 L 23.390625 -7.851562 Z M 9.878906 -11.53125 L 15.980469 -28.605469 L 22.085938 -11.53125 Z M 9.878906 -11.53125" transform="translate(617.371 697.357)"/></g></g></g><g fill="#FFF"><g><g><path d="M 5.148438 0 L 9.316406 0 L 9.316406 -32.800781 L 5.148438 -32.800781 Z M 5.148438 0" transform="translate(649.332 697.357)"/></g></g></g><g fill="#FFF"><g><g><path d="M 27.1875 -32.800781 L 27.1875 -6.382812 L 9.503906 -32.800781 L 5.148438 -32.800781 L 5.148438 0 L 9.25 0 L 9.25 -26.535156 L 26.929688 0 L 31.332031 0 L 31.332031 -32.800781 Z M 27.1875 -32.800781" transform="translate(663.798 697.357)"/></g></g></g><g fill="#FFF"><g><g><path d="M 22.292969 -32.800781 L 1.304688 -32.800781 L 1.304688 -29.003906 L 9.738281 -29.003906 L 9.738281 0 L 13.882812 0 L 13.882812 -29.003906 L 22.292969 -29.003906 Z M 22.292969 -32.800781" transform="translate(700.277 697.357)"/></g></g></g><g fill="#FFF"><g><g><path d="M 26.207031 0 L 30.5625 0 L 18.472656 -32.800781 L 13.488281 -32.800781 L 1.398438 0 L 5.753906 0 L 8.550781 -7.851562 L 23.390625 -7.851562 Z M 9.878906 -11.53125 L 15.980469 -28.605469 L 22.085938 -11.53125 Z M 9.878906 -11.53125" transform="translate(723.875 697.357)"/></g></g></g><g fill="#FFF"><g><g><path d="M 5.148438 0 L 9.316406 0 L 9.316406 -32.800781 L 5.148438 -32.800781 Z M 5.148438 0" transform="translate(755.836 697.357)"/></g></g></g><g fill="#FFF"><g><g><path d="M 27.1875 -32.800781 L 27.1875 -6.382812 L 9.503906 -32.800781 L 5.148438 -32.800781 L 5.148438 0 L 9.25 0 L 9.25 -26.535156 L 26.929688 0 L 31.332031 0 L 31.332031 -32.800781 Z M 27.1875 -32.800781" transform="translate(770.302 697.357)"/></g></g></g><g fill="#FFF"><g><g><path d="M 26.207031 0 L 30.5625 0 L 18.472656 -32.800781 L 13.488281 -32.800781 L 1.398438 0 L 5.753906 0 L 8.550781 -7.851562 L 23.390625 -7.851562 Z M 9.878906 -11.53125 L 15.980469 -28.605469 L 22.085938 -11.53125 Z M 9.878906 -11.53125" transform="translate(806.781 697.357)"/></g></g></g><g fill="#FFF"><g><g><path d="M 20.710938 -17.121094 C 23.34375 -18.378906 24.785156 -20.964844 24.785156 -24.109375 C 24.785156 -29.234375 20.941406 -32.800781 15.09375 -32.800781 L 5.148438 -32.800781 L 5.148438 0 L 17.914062 0 C 23.574219 0 27.1875 -3.679688 27.1875 -8.898438 C 27.1875 -13.417969 24.578125 -16.144531 20.710938 -17.121094 Z M 20.871094 -23.855469 C 20.871094 -20.871094 18.847656 -18.425781 15.839844 -18.425781 L 9.179688 -18.425781 L 9.179688 -29.144531 L 15.074219 -29.144531 C 18.707031 -29.144531 20.871094 -26.835938 20.871094 -23.855469 Z M 17.214844 -3.703125 L 9.179688 -3.703125 L 9.179688 -14.980469 L 16.914062 -14.980469 C 20.851562 -14.980469 23.132812 -12.511719 23.132812 -9.316406 C 23.132812 -6.289062 20.964844 -3.703125 17.214844 -3.703125 Z M 17.214844 -3.703125" transform="translate(838.742 697.357)"/></g></g></g><g fill="#FFF"><g><g><path d="M 9.316406 -3.796875 L 9.316406 -32.800781 L 5.148438 -32.800781 L 5.148438 0 L 20.710938 0 L 20.710938 -3.796875 Z M 9.316406 -3.796875" transform="translate(868.536 697.357)"/></g></g></g><g fill="#FFF"><g><g><path d="M 22.738281 -29.003906 L 22.738281 -32.800781 L 5.148438 -32.800781 L 5.148438 0 L 22.738281 0 L 22.738281 -3.796875 L 9.410156 -3.796875 L 9.410156 -14.511719 L 21.152344 -14.511719 L 21.152344 -18.265625 L 9.410156 -18.265625 L 9.410156 -29.003906 Z M 22.738281 -29.003906" transform="translate(890.573 697.357)"/></g></g></g><g fill="#FFF"><g><g><path d="M 22.738281 -29.003906 L 22.738281 -32.800781 L 5.148438 -32.800781 L 5.148438 0 L 22.738281 0 L 22.738281 -3.796875 L 9.410156 -3.796875 L 9.410156 -14.511719 L 21.152344 -14.511719 L 21.152344 -18.265625 L 9.410156 -18.265625 L 9.410156 -29.003906 Z M 22.738281 -29.003906" transform="translate(875.693 535.023)"/></g></g></g><g fill="#FFF"><g><g><path d="M 22.875 -29.003906 L 22.875 -32.800781 L 5.148438 -32.800781 L 5.148438 0 L 9.410156 0 L 9.410156 -14.511719 L 21.152344 -14.511719 L 21.152344 -18.289062 L 9.410156 -18.289062 L 9.410156 -29.003906 Z M 22.875 -29.003906" transform="translate(901.271 535.023)"/></g></g></g><g fill="#FFF"><g><g><path d="M 22.875 -29.003906 L 22.875 -32.800781 L 5.148438 -32.800781 L 5.148438 0 L 9.410156 0 L 9.410156 -14.511719 L 21.152344 -14.511719 L 21.152344 -18.289062 L 9.410156 -18.289062 L 9.410156 -29.003906 Z M 22.875 -29.003906" transform="translate(926.033 535.023)"/></g></g></g><g fill="#FFF"><g><g><path d="M 5.148438 0 L 9.316406 0 L 9.316406 -32.800781 L 5.148438 -32.800781 Z M 5.148438 0" transform="translate(950.796 535.023)"/></g></g></g><g fill="#FFF"><g><g><path d="M 19.195312 0.441406 C 25.671875 0.441406 31.125 -2.75 33.6875 -8.269531 L 29.84375 -9.832031 C 27.839844 -5.777344 23.878906 -3.539062 19.195312 -3.539062 C 12.394531 -3.539062 7.011719 -8.199219 7.011719 -16.421875 C 7.011719 -24.601562 12.394531 -29.257812 19.195312 -29.257812 C 23.878906 -29.257812 27.839844 -27 29.84375 -22.945312 L 33.6875 -24.53125 C 31.125 -30.027344 25.671875 -33.242188 19.195312 -33.242188 C 9.949219 -33.242188 2.867188 -26.882812 2.867188 -16.421875 C 2.867188 -5.917969 9.949219 0.441406 19.195312 0.441406 Z M 19.195312 0.441406" transform="translate(965.262 535.023)"/></g></g></g><g fill="#FFF"><g><g><path d="M 5.148438 0 L 9.316406 0 L 9.316406 -32.800781 L 5.148438 -32.800781 Z M 5.148438 0" transform="translate(1000.95 535.023)"/></g></g></g><g fill="#FFF"><g><g><path d="M 22.738281 -29.003906 L 22.738281 -32.800781 L 5.148438 -32.800781 L 5.148438 0 L 22.738281 0 L 22.738281 -3.796875 L 9.410156 -3.796875 L 9.410156 -14.511719 L 21.152344 -14.511719 L 21.152344 -18.265625 L 9.410156 -18.265625 L 9.410156 -29.003906 Z M 22.738281 -29.003906" transform="translate(1015.416 535.023)"/></g></g></g><g fill="#FFF"><g><g><path d="M 27.1875 -32.800781 L 27.1875 -6.382812 L 9.503906 -32.800781 L 5.148438 -32.800781 L 5.148438 0 L 9.25 0 L 9.25 -26.535156 L 26.929688 0 L 31.332031 0 L 31.332031 -32.800781 Z M 27.1875 -32.800781" transform="translate(1040.993 535.023)"/></g></g></g><g fill="#FFF"><g><g><path d="M 22.292969 -32.800781 L 1.304688 -32.800781 L 1.304688 -29.003906 L 9.738281 -29.003906 L 9.738281 0 L 13.882812 0 L 13.882812 -29.003906 L 22.292969 -29.003906 Z M 22.292969 -32.800781" transform="translate(1077.473 535.023)"/></g></g></g><g fill="#FFF"><g><g><path d="M 27.769531 0 L 19.589844 -13.183594 C 21.269531 -13.582031 22.621094 -14.257812 23.714844 -15.1875 C 25.953125 -16.914062 27.046875 -19.730469 27.046875 -23.273438 C 27.046875 -26.8125 25.882812 -29.328125 23.527344 -30.84375 C 21.617188 -32.171875 18.917969 -32.800781 15.234375 -32.800781 L 5.148438 -32.800781 L 5.148438 0 L 9.316406 0 L 9.316406 -12.742188 L 15.515625 -12.742188 L 22.898438 0 Z M 9.316406 -29.191406 L 14.699219 -29.191406 C 17.566406 -29.191406 19.636719 -28.886719 21.035156 -27.746094 C 22.132812 -26.835938 22.785156 -25.347656 22.785156 -23.109375 C 22.785156 -20.78125 22.175781 -19.21875 21.105469 -18.171875 C 19.777344 -16.820312 17.636719 -16.375 14.699219 -16.375 L 9.316406 -16.375 Z M 9.316406 -29.191406" transform="translate(1202.32 640.558)"/></g></g></g><g fill="#FFF"><g><g><path d="M 22.738281 -29.003906 L 22.738281 -32.800781 L 5.148438 -32.800781 L 5.148438 0 L 22.738281 0 L 22.738281 -3.796875 L 9.410156 -3.796875 L 9.410156 -14.511719 L 21.152344 -14.511719 L 21.152344 -18.265625 L 9.410156 -18.265625 L 9.410156 -29.003906 Z M 22.738281 -29.003906" transform="translate(1232.673 640.558)"/></g></g></g><g fill="#FFF"><g><g><path d="M 9.316406 -3.796875 L 9.316406 -32.800781 L 5.148438 -32.800781 L 5.148438 0 L 20.710938 0 L 20.710938 -3.796875 Z M 9.316406 -3.796875" transform="translate(1258.25 640.558)"/></g></g></g><g fill="#FFF"><g><g><path d="M 5.148438 0 L 9.316406 0 L 9.316406 -32.800781 L 5.148438 -32.800781 Z M 5.148438 0" transform="translate(1280.287 640.558)"/></g></g></g><g fill="#FFF"><g><g><path d="M 26.207031 0 L 30.5625 0 L 18.472656 -32.800781 L 13.488281 -32.800781 L 1.398438 0 L 5.753906 0 L 8.550781 -7.851562 L 23.390625 -7.851562 Z M 9.878906 -11.53125 L 15.980469 -28.605469 L 22.085938 -11.53125 Z M 9.878906 -11.53125" transform="translate(1294.753 640.558)"/></g></g></g><g fill="#FFF"><g><g><path d="M 20.710938 -17.121094 C 23.34375 -18.378906 24.785156 -20.964844 24.785156 -24.109375 C 24.785156 -29.234375 20.941406 -32.800781 15.09375 -32.800781 L 5.148438 -32.800781 L 5.148438 0 L 17.914062 0 C 23.574219 0 27.1875 -3.679688 27.1875 -8.898438 C 27.1875 -13.417969 24.578125 -16.144531 20.710938 -17.121094 Z M 20.871094 -23.855469 C 20.871094 -20.871094 18.847656 -18.425781 15.839844 -18.425781 L 9.179688 -18.425781 L 9.179688 -29.144531 L 15.074219 -29.144531 C 18.707031 -29.144531 20.871094 -26.835938 20.871094 -23.855469 Z M 17.214844 -3.703125 L 9.179688 -3.703125 L 9.179688 -14.980469 L 16.914062 -14.980469 C 20.851562 -14.980469 23.132812 -12.511719 23.132812 -9.316406 C 23.132812 -6.289062 20.964844 -3.703125 17.214844 -3.703125 Z M 17.214844 -3.703125" transform="translate(1326.714 640.558)"/></g></g></g><g fill="#FFF"><g><g><path d="M 9.316406 -3.796875 L 9.316406 -32.800781 L 5.148438 -32.800781 L 5.148438 0 L 20.710938 0 L 20.710938 -3.796875 Z M 9.316406 -3.796875" transform="translate(1356.508 640.558)"/></g></g></g><g fill="#FFF"><g><g><path d="M 22.738281 -29.003906 L 22.738281 -32.800781 L 5.148438 -32.800781 L 5.148438 0 L 22.738281 0 L 22.738281 -3.796875 L 9.410156 -3.796875 L 9.410156 -14.511719 L 21.152344 -14.511719 L 21.152344 -18.265625 L 9.410156 -18.265625 L 9.410156 -29.003906 Z M 22.738281 -29.003906" transform="translate(1378.545 640.558)"/></g></g></g></svg>