<svg xmlns="http://www.w3.org/2000/svg" xmlns:xlink="http://www.w3.org/1999/xlink" width="375" viewBox="0 0 375 375" height="375" version="1.0"><defs><clipPath id="a"><path d="M 132 80 L 158 80 L 158 209 L 132 209 Z M 132 80"/></clipPath><clipPath id="b"><path d="M 132.222656 208.042969 C 155.160156 199.617188 157.308594 193.59375 157.308594 168.597656 L 157.308594 80.640625 C 142.972656 87.59375 132.222656 90.570312 132.222656 115.601562 Z M 132.222656 208.042969" clip-rule="evenodd"/></clipPath><clipPath id="d"><path d="M 132 148 L 158 148 L 158 166 L 132 166 Z M 132 148"/></clipPath><clipPath id="e"><path d="M 157.308594 155.335938 L 157.308594 148.304688 C 148.960938 151.785156 140.066406 156.230469 132.222656 161.644531 L 132.222656 165.917969 C 141.253906 161.253906 147.417969 158.636719 157.308594 155.339844 Z M 157.308594 155.335938" clip-rule="evenodd"/></clipPath><clipPath id="f"><path d="M 197 67.730469 L 246 67.730469 L 246 213.230469 L 197 213.230469 Z M 197 67.730469"/></clipPath><clipPath id="g"><path d="M 237.480469 96.558594 C 261.960938 72.605469 221.785156 56.433594 205.082031 77.519531 C 199.851562 84.152344 197.484375 93.941406 197.484375 102.871094 L 197.484375 213.214844 C 219.203125 196.683594 222.574219 191.878906 222.574219 166.851562 L 222.574219 101.613281 C 222.574219 91.644531 225.976562 86.699219 229.8125 85.371094 C 233.757812 84.007812 238.949219 87.703125 237.480469 96.558594 Z M 237.480469 96.558594" clip-rule="evenodd"/></clipPath><clipPath id="i"><path d="M 197 136 L 223 136 L 223 161 L 197 161 Z M 197 136"/></clipPath><clipPath id="j"><path d="M 197.484375 153.503906 L 197.484375 160.460938 C 206.160156 155.15625 214.257812 149.988281 222.574219 144.179688 L 222.574219 136.148438 C 214.007812 142.816406 205.082031 148.773438 197.484375 153.503906 Z M 197.484375 153.503906" clip-rule="evenodd"/></clipPath><clipPath id="l"><path d="M 229 68 L 246 68 L 246 97 L 229 97 Z M 229 68"/></clipPath><clipPath id="m"><path d="M 237.480469 96.558594 C 252.640625 81.75 243.003906 69.882812 229.496094 68.015625 C 241.789062 71.457031 240.957031 81.03125 236.59375 88.457031 C 237.597656 90.355469 238.0625 93.042969 237.492188 96.550781 Z M 237.480469 96.558594" clip-rule="evenodd"/></clipPath><clipPath id="n"><path d="M 118.496094 68 L 256.496094 68 L 256.496094 174 L 118.496094 174 Z M 118.496094 68"/></clipPath><clipPath id="o"><path d="M 237.230469 68.769531 C 268.238281 85.121094 222.753906 110.292969 204.296875 123.203125 L 207.554688 107.175781 C 192.324219 111.144531 131.21875 142.710938 118.496094 173.65625 C 137.132812 152.035156 178.238281 140.09375 186.339844 139.484375 L 184.082031 161.320312 C 208.375 148.164062 294.433594 94.058594 237.230469 68.769531 Z M 237.230469 68.769531" clip-rule="evenodd"/></clipPath><clipPath id="q"><path d="M 118.496094 94 L 256.496094 94 L 256.496094 174 L 118.496094 174 Z M 118.496094 94"/></clipPath><clipPath id="r"><path d="M 118.496094 173.65625 C 137.132812 152.035156 178.238281 140.09375 186.339844 139.484375 L 184.082031 161.320312 C 201.820312 151.710938 252.390625 120.332031 256.261719 94.230469 C 245.367188 117.5 221.207031 127.757812 194.617188 140.164062 L 196.734375 124.859375 C 175.589844 130.125 139.855469 145.769531 118.496094 173.65625 Z M 118.496094 173.65625" clip-rule="evenodd"/></clipPath><linearGradient x1="112.048" gradientTransform="matrix(.2247 0 0 .22482 118.495 67.754)" xmlns:xlink="http://www.w3.org/1999/xlink" y1="624.855" x2="121.589" gradientUnits="userSpaceOnUse" y2="56.451" xlink:type="simple" xlink:actuate="onLoad" id="c" xlink:show="other"><stop stop-color="#3F0077" offset="0"/><stop stop-color="#3F0077" offset=".004"/><stop stop-color="#400078" offset=".008"/><stop stop-color="#400078" offset=".012"/><stop stop-color="#410079" offset=".016"/><stop stop-color="#410079" offset=".02"/><stop stop-color="#42007A" offset=".023"/><stop stop-color="#42007A" offset=".027"/><stop stop-color="#42007B" offset=".031"/><stop stop-color="#43007C" offset=".035"/><stop stop-color="#43007C" offset=".039"/><stop stop-color="#44007D" offset=".043"/><stop stop-color="#44007D" offset=".047"/><stop stop-color="#45007E" offset=".051"/><stop stop-color="#45007E" offset=".055"/><stop stop-color="#45007F" offset=".059"/><stop stop-color="#460080" offset=".063"/><stop stop-color="#460080" offset=".066"/><stop stop-color="#470081" offset=".07"/><stop stop-color="#470081" offset=".074"/><stop stop-color="#480082" offset=".078"/><stop stop-color="#480082" offset=".082"/><stop stop-color="#480083" offset=".086"/><stop stop-color="#490083" offset=".09"/><stop stop-color="#490084" offset=".094"/><stop stop-color="#4A0085" offset=".098"/><stop stop-color="#4A0085" offset=".102"/><stop stop-color="#4B0086" offset=".105"/><stop stop-color="#4B0086" offset=".109"/><stop stop-color="#4B0087" offset=".113"/><stop stop-color="#4C0087" offset=".117"/><stop stop-color="#4C0088" offset=".121"/><stop stop-color="#4D0089" offset=".125"/><stop stop-color="#4D0089" offset=".129"/><stop stop-color="#4E008A" offset=".133"/><stop stop-color="#4E008A" offset=".137"/><stop stop-color="#4F008B" offset=".141"/><stop stop-color="#4F008B" offset=".145"/><stop stop-color="#4F008C" offset=".148"/><stop stop-color="#50008D" offset=".152"/><stop stop-color="#50008D" offset=".156"/><stop stop-color="#51008E" offset=".16"/><stop stop-color="#51008E" offset=".164"/><stop stop-color="#52008F" offset=".168"/><stop stop-color="#52008F" offset=".172"/><stop stop-color="#520090" offset=".176"/><stop stop-color="#530090" offset=".18"/><stop stop-color="#530091" offset=".184"/><stop stop-color="#540092" offset=".188"/><stop stop-color="#540092" offset=".191"/><stop stop-color="#550093" offset=".195"/><stop stop-color="#550093" offset=".199"/><stop stop-color="#550094" offset=".203"/><stop stop-color="#560094" offset=".207"/><stop stop-color="#560095" offset=".211"/><stop stop-color="#570096" offset=".215"/><stop stop-color="#570096" offset=".219"/><stop stop-color="#580097" offset=".223"/><stop stop-color="#580097" offset=".227"/><stop stop-color="#580098" offset=".23"/><stop stop-color="#590098" offset=".234"/><stop stop-color="#590099" offset=".238"/><stop stop-color="#5A0099" offset=".242"/><stop stop-color="#5A009A" offset=".246"/><stop stop-color="#5B009B" offset=".25"/><stop stop-color="#5B009B" offset=".254"/><stop stop-color="#5C009C" offset=".258"/><stop stop-color="#5C009C" offset=".262"/><stop stop-color="#5C009D" offset=".266"/><stop stop-color="#5D009D" offset=".27"/><stop stop-color="#5D009E" offset=".273"/><stop stop-color="#5E009F" offset=".277"/><stop stop-color="#5E009F" offset=".281"/><stop stop-color="#5F00A0" offset=".285"/><stop stop-color="#5F00A0" offset=".289"/><stop stop-color="#5F00A1" offset=".293"/><stop stop-color="#6000A1" offset=".297"/><stop stop-color="#6000A2" offset=".301"/><stop stop-color="#6100A2" offset=".305"/><stop stop-color="#6100A3" offset=".309"/><stop stop-color="#6200A4" offset=".313"/><stop stop-color="#6200A4" offset=".316"/><stop stop-color="#6200A5" offset=".32"/><stop stop-color="#6300A5" offset=".324"/><stop stop-color="#6300A6" offset=".328"/><stop stop-color="#6400A6" offset=".332"/><stop stop-color="#6400A7" offset=".336"/><stop stop-color="#6500A8" offset=".34"/><stop stop-color="#6500A8" offset=".344"/><stop stop-color="#6500A9" offset=".348"/><stop stop-color="#6600A9" offset=".352"/><stop stop-color="#60A" offset=".355"/><stop stop-color="#6700AA" offset=".359"/><stop stop-color="#6700AB" offset=".363"/><stop stop-color="#6800AB" offset=".367"/><stop stop-color="#6800AC" offset=".371"/><stop stop-color="#6900AD" offset=".375"/><stop stop-color="#6900AD" offset=".379"/><stop stop-color="#6900AE" offset=".383"/><stop stop-color="#6A00AE" offset=".387"/><stop stop-color="#6A00AF" offset=".391"/><stop stop-color="#6B00AF" offset=".395"/><stop stop-color="#6B00B0" offset=".398"/><stop stop-color="#6C00B1" offset=".402"/><stop stop-color="#6C00B1" offset=".406"/><stop stop-color="#6C00B2" offset=".41"/><stop stop-color="#6D00B2" offset=".414"/><stop stop-color="#6D00B3" offset=".418"/><stop stop-color="#6E00B3" offset=".422"/><stop stop-color="#6E00B4" offset=".426"/><stop stop-color="#6F00B4" offset=".43"/><stop stop-color="#6F00B5" offset=".434"/><stop stop-color="#6F00B6" offset=".438"/><stop stop-color="#7000B6" offset=".441"/><stop stop-color="#7000B7" offset=".445"/><stop stop-color="#7100B7" offset=".449"/><stop stop-color="#7100B8" offset=".453"/><stop stop-color="#7200B8" offset=".457"/><stop stop-color="#7200B9" offset=".461"/><stop stop-color="#7300BA" offset=".465"/><stop stop-color="#7300BA" offset=".469"/><stop stop-color="#7300BB" offset=".473"/><stop stop-color="#7400BB" offset=".477"/><stop stop-color="#7400BC" offset=".48"/><stop stop-color="#7500BC" offset=".484"/><stop stop-color="#7500BD" offset=".488"/><stop stop-color="#7600BD" offset=".492"/><stop stop-color="#7600BE" offset=".496"/><stop stop-color="#7600BF" offset=".5"/><stop stop-color="#7700BF" offset=".504"/><stop stop-color="#7700C0" offset=".508"/><stop stop-color="#7800C0" offset=".512"/><stop stop-color="#7800C1" offset=".516"/><stop stop-color="#7900C1" offset=".52"/><stop stop-color="#7900C2" offset=".523"/><stop stop-color="#7900C3" offset=".527"/><stop stop-color="#7A00C3" offset=".531"/><stop stop-color="#7A00C4" offset=".535"/><stop stop-color="#7B00C4" offset=".539"/><stop stop-color="#7B00C5" offset=".543"/><stop stop-color="#7C00C5" offset=".547"/><stop stop-color="#7C00C6" offset=".551"/><stop stop-color="#7C00C6" offset=".555"/><stop stop-color="#7D00C7" offset=".559"/><stop stop-color="#7D00C8" offset=".563"/><stop stop-color="#7E00C8" offset=".566"/><stop stop-color="#7E00C9" offset=".57"/><stop stop-color="#7F00C9" offset=".574"/><stop stop-color="#7F00CA" offset=".578"/><stop stop-color="#8000CA" offset=".582"/><stop stop-color="#8000CB" offset=".586"/><stop stop-color="#8000CC" offset=".59"/><stop stop-color="#8100CC" offset=".594"/><stop stop-color="#8100CD" offset=".598"/><stop stop-color="#8200CD" offset=".602"/><stop stop-color="#8200CE" offset=".605"/><stop stop-color="#8300CE" offset=".609"/><stop stop-color="#8300CF" offset=".613"/><stop stop-color="#8300CF" offset=".617"/><stop stop-color="#8400D0" offset=".621"/><stop stop-color="#8400D1" offset=".625"/><stop stop-color="#8500D1" offset=".629"/><stop stop-color="#8500D2" offset=".633"/><stop stop-color="#8600D2" offset=".637"/><stop stop-color="#8600D3" offset=".641"/><stop stop-color="#8600D3" offset=".645"/><stop stop-color="#8700D4" offset=".648"/><stop stop-color="#8700D5" offset=".652"/><stop stop-color="#8800D5" offset=".656"/><stop stop-color="#8800D6" offset=".66"/><stop stop-color="#8900D6" offset=".664"/><stop stop-color="#8900D7" offset=".668"/><stop stop-color="#8900D7" offset=".672"/><stop stop-color="#8A00D8" offset=".676"/><stop stop-color="#8A00D8" offset=".68"/><stop stop-color="#8B00D9" offset=".684"/><stop stop-color="#8B00DA" offset=".688"/><stop stop-color="#8C00DA" offset=".691"/><stop stop-color="#8C00DB" offset=".695"/><stop stop-color="#8D00DB" offset=".699"/><stop stop-color="#8D00DC" offset=".703"/><stop stop-color="#8D00DC" offset=".707"/><stop stop-color="#8E00DD" offset=".711"/><stop stop-color="#8E00DE" offset=".715"/><stop stop-color="#8F00DE" offset=".719"/><stop stop-color="#8F00DF" offset=".723"/><stop stop-color="#9000DF" offset=".727"/><stop stop-color="#9000E0" offset=".73"/><stop stop-color="#9000E0" offset=".734"/><stop stop-color="#9100E1" offset=".738"/><stop stop-color="#9100E1" offset=".742"/><stop stop-color="#9200E2" offset=".746"/><stop stop-color="#9200E3" offset=".75"/><stop stop-color="#9300E3" offset=".754"/><stop stop-color="#9300E4" offset=".758"/><stop stop-color="#9300E4" offset=".762"/><stop stop-color="#9400E5" offset=".766"/><stop stop-color="#9400E5" offset=".77"/><stop stop-color="#9500E6" offset=".773"/><stop stop-color="#9500E7" offset=".777"/><stop stop-color="#9600E7" offset=".781"/><stop stop-color="#9600E8" offset=".785"/><stop stop-color="#9700E8" offset=".789"/><stop stop-color="#9700E9" offset=".793"/><stop stop-color="#9700E9" offset=".797"/><stop stop-color="#9800EA" offset=".801"/><stop stop-color="#9800EA" offset=".805"/><stop stop-color="#9900EB" offset=".809"/><stop stop-color="#9900EC" offset=".813"/><stop stop-color="#9A00EC" offset=".816"/><stop stop-color="#9A00ED" offset=".82"/><stop stop-color="#9A00ED" offset=".824"/><stop stop-color="#9B00EE" offset=".828"/><stop stop-color="#9B00EE" offset=".832"/><stop stop-color="#9C00EF" offset=".836"/><stop stop-color="#9C00F0" offset=".84"/><stop stop-color="#9D00F0" offset=".844"/><stop stop-color="#9D00F1" offset=".848"/><stop stop-color="#9D00F1" offset=".852"/><stop stop-color="#9E00F2" offset=".855"/><stop stop-color="#9E00F2" offset=".859"/><stop stop-color="#9F00F3" offset=".863"/><stop stop-color="#9F00F3" offset=".867"/><stop stop-color="#A000F4" offset=".871"/><stop stop-color="#A000F5" offset=".875"/><stop stop-color="#A000F5" offset=".879"/><stop stop-color="#A100F6" offset=".883"/><stop stop-color="#A100F6" offset=".887"/><stop stop-color="#A200F7" offset=".891"/><stop stop-color="#A200F7" offset=".895"/><stop stop-color="#A300F8" offset=".898"/><stop stop-color="#A300F9" offset=".902"/><stop stop-color="#A400F9" offset=".906"/><stop stop-color="#A400FA" offset=".91"/><stop stop-color="#A400FA" offset=".914"/><stop stop-color="#A500FB" offset=".918"/><stop stop-color="#A500FB" offset=".922"/><stop stop-color="#A600FC" offset=".926"/><stop stop-color="#A600FD" offset=".93"/><stop stop-color="#A700FD" offset=".934"/><stop stop-color="#A700FE" offset=".938"/><stop stop-color="#A700FE" offset=".941"/><stop stop-color="#A800FF" offset=".945"/><stop stop-color="#A800FF" offset=".953"/><stop stop-color="#A800FF" offset=".969"/><stop stop-color="#A800FF" offset=".997"/><stop stop-color="#A800FF" offset="1"/></linearGradient><linearGradient x1="594.882" gradientTransform="matrix(.2247 0 0 .22482 118.495 67.754)" xmlns:xlink="http://www.w3.org/1999/xlink" y1="-11.285" x2="247.776" gradientUnits="userSpaceOnUse" y2="586.777" xlink:type="simple" xlink:actuate="onLoad" id="h" xlink:show="other"><stop stop-color="#052546" offset="0"/><stop stop-color="#052748" offset=".004"/><stop stop-color="#062849" offset=".008"/><stop stop-color="#06294A" offset=".012"/><stop stop-color="#062A4C" offset=".016"/><stop stop-color="#062C4D" offset=".02"/><stop stop-color="#072D4E" offset=".023"/><stop stop-color="#072E50" offset=".027"/><stop stop-color="#072F51" offset=".031"/><stop stop-color="#083152" offset=".035"/><stop stop-color="#083254" offset=".039"/><stop stop-color="#083355" offset=".043"/><stop stop-color="#083456" offset=".047"/><stop stop-color="#093558" offset=".051"/><stop stop-color="#093759" offset=".055"/><stop stop-color="#09385A" offset=".059"/><stop stop-color="#09395C" offset=".063"/><stop stop-color="#0A3A5D" offset=".066"/><stop stop-color="#0A3C5E" offset=".07"/><stop stop-color="#0A3D5F" offset=".074"/><stop stop-color="#0B3E61" offset=".078"/><stop stop-color="#0B3F62" offset=".082"/><stop stop-color="#0B4063" offset=".086"/><stop stop-color="#0B4265" offset=".09"/><stop stop-color="#0C4366" offset=".094"/><stop stop-color="#0C4467" offset=".098"/><stop stop-color="#0C4568" offset=".102"/><stop stop-color="#0C466A" offset=".105"/><stop stop-color="#0D486B" offset=".109"/><stop stop-color="#0D496C" offset=".113"/><stop stop-color="#0D4A6E" offset=".117"/><stop stop-color="#0D4B6F" offset=".121"/><stop stop-color="#0E4C70" offset=".125"/><stop stop-color="#0E4E72" offset=".129"/><stop stop-color="#0E4F73" offset=".133"/><stop stop-color="#0E5074" offset=".137"/><stop stop-color="#0F5175" offset=".141"/><stop stop-color="#0F5277" offset=".145"/><stop stop-color="#0F5478" offset=".148"/><stop stop-color="#105579" offset=".152"/><stop stop-color="#10567B" offset=".156"/><stop stop-color="#10577C" offset=".16"/><stop stop-color="#10587D" offset=".164"/><stop stop-color="#115A7E" offset=".168"/><stop stop-color="#115B80" offset=".172"/><stop stop-color="#115C81" offset=".176"/><stop stop-color="#115D82" offset=".18"/><stop stop-color="#115E83" offset=".184"/><stop stop-color="#125F84" offset=".188"/><stop stop-color="#126085" offset=".191"/><stop stop-color="#126186" offset=".195"/><stop stop-color="#126287" offset=".199"/><stop stop-color="#136388" offset=".203"/><stop stop-color="#136489" offset=".207"/><stop stop-color="#13658A" offset=".211"/><stop stop-color="#13658B" offset=".215"/><stop stop-color="#13668C" offset=".219"/><stop stop-color="#14678D" offset=".223"/><stop stop-color="#14688E" offset=".227"/><stop stop-color="#14698F" offset=".23"/><stop stop-color="#146A90" offset=".234"/><stop stop-color="#146B91" offset=".238"/><stop stop-color="#156C92" offset=".242"/><stop stop-color="#156D93" offset=".246"/><stop stop-color="#156E94" offset=".25"/><stop stop-color="#156F95" offset=".254"/><stop stop-color="#157096" offset=".258"/><stop stop-color="#167197" offset=".262"/><stop stop-color="#167298" offset=".266"/><stop stop-color="#167399" offset=".27"/><stop stop-color="#16739A" offset=".273"/><stop stop-color="#16749B" offset=".277"/><stop stop-color="#17759C" offset=".281"/><stop stop-color="#17769E" offset=".285"/><stop stop-color="#17779F" offset=".289"/><stop stop-color="#1778A0" offset=".293"/><stop stop-color="#1779A1" offset=".297"/><stop stop-color="#187AA2" offset=".301"/><stop stop-color="#187BA3" offset=".305"/><stop stop-color="#187CA4" offset=".309"/><stop stop-color="#187DA5" offset=".313"/><stop stop-color="#197EA6" offset=".316"/><stop stop-color="#197FA7" offset=".32"/><stop stop-color="#1980A8" offset=".324"/><stop stop-color="#1980A9" offset=".328"/><stop stop-color="#1981A9" offset=".332"/><stop stop-color="#1982AA" offset=".336"/><stop stop-color="#1A83AB" offset=".34"/><stop stop-color="#1A84AC" offset=".344"/><stop stop-color="#1A84AD" offset=".348"/><stop stop-color="#1A85AE" offset=".352"/><stop stop-color="#1A86AE" offset=".355"/><stop stop-color="#1A87AF" offset=".359"/><stop stop-color="#1B87B0" offset=".363"/><stop stop-color="#1B88B1" offset=".367"/><stop stop-color="#1B89B2" offset=".371"/><stop stop-color="#1B8AB3" offset=".375"/><stop stop-color="#1B8AB3" offset=".379"/><stop stop-color="#1B8BB4" offset=".383"/><stop stop-color="#1B8CB5" offset=".387"/><stop stop-color="#1C8DB6" offset=".391"/><stop stop-color="#1C8DB7" offset=".395"/><stop stop-color="#1C8EB8" offset=".398"/><stop stop-color="#1C8FB8" offset=".402"/><stop stop-color="#1C90B9" offset=".406"/><stop stop-color="#1C90BA" offset=".41"/><stop stop-color="#1D91BB" offset=".414"/><stop stop-color="#1D92BC" offset=".418"/><stop stop-color="#1D93BC" offset=".422"/><stop stop-color="#1D93BD" offset=".426"/><stop stop-color="#1D94BE" offset=".43"/><stop stop-color="#1D95BF" offset=".434"/><stop stop-color="#1E96C0" offset=".438"/><stop stop-color="#1E96C1" offset=".441"/><stop stop-color="#1E97C1" offset=".445"/><stop stop-color="#1E98C2" offset=".449"/><stop stop-color="#1E99C3" offset=".453"/><stop stop-color="#1E99C4" offset=".457"/><stop stop-color="#1F9AC5" offset=".461"/><stop stop-color="#1F9BC6" offset=".465"/><stop stop-color="#1F9CC6" offset=".469"/><stop stop-color="#1F9CC7" offset=".473"/><stop stop-color="#1F9DC8" offset=".477"/><stop stop-color="#1F9EC9" offset=".48"/><stop stop-color="#1F9EC9" offset=".484"/><stop stop-color="#1F9FCA" offset=".488"/><stop stop-color="#209FCA" offset=".492"/><stop stop-color="#20A0CB" offset=".496"/><stop stop-color="#20A0CB" offset=".5"/><stop stop-color="#20A1CC" offset=".504"/><stop stop-color="#20A1CD" offset=".508"/><stop stop-color="#20A2CD" offset=".512"/><stop stop-color="#20A2CE" offset=".516"/><stop stop-color="#20A3CE" offset=".52"/><stop stop-color="#21A3CF" offset=".523"/><stop stop-color="#21A4D0" offset=".527"/><stop stop-color="#21A5D0" offset=".531"/><stop stop-color="#21A5D1" offset=".535"/><stop stop-color="#21A6D1" offset=".539"/><stop stop-color="#21A6D2" offset=".543"/><stop stop-color="#21A7D2" offset=".547"/><stop stop-color="#21A7D3" offset=".551"/><stop stop-color="#21A8D4" offset=".555"/><stop stop-color="#22A8D4" offset=".559"/><stop stop-color="#22A9D5" offset=".563"/><stop stop-color="#22A9D5" offset=".566"/><stop stop-color="#22AAD6" offset=".57"/><stop stop-color="#22AAD6" offset=".574"/><stop stop-color="#22ABD7" offset=".578"/><stop stop-color="#22ABD8" offset=".582"/><stop stop-color="#22ACD8" offset=".586"/><stop stop-color="#22ACD9" offset=".59"/><stop stop-color="#23ADD9" offset=".594"/><stop stop-color="#23ADDA" offset=".598"/><stop stop-color="#23AEDA" offset=".602"/><stop stop-color="#23AEDB" offset=".605"/><stop stop-color="#23AFDC" offset=".609"/><stop stop-color="#23B0DC" offset=".613"/><stop stop-color="#23B0DD" offset=".617"/><stop stop-color="#23B1DD" offset=".621"/><stop stop-color="#24B1DE" offset=".625"/><stop stop-color="#24B2DE" offset=".629"/><stop stop-color="#24B2DF" offset=".633"/><stop stop-color="#24B3DF" offset=".637"/><stop stop-color="#24B3E0" offset=".641"/><stop stop-color="#24B4E0" offset=".648"/><stop stop-color="#24B4E1" offset=".656"/><stop stop-color="#24B5E2" offset=".664"/><stop stop-color="#24B6E3" offset=".672"/><stop stop-color="#25B7E4" offset=".68"/><stop stop-color="#25B7E5" offset=".688"/><stop stop-color="#25B8E5" offset=".695"/><stop stop-color="#25B9E6" offset=".703"/><stop stop-color="#25BAE7" offset=".711"/><stop stop-color="#25BAE8" offset=".719"/><stop stop-color="#26BBE9" offset=".727"/><stop stop-color="#26BCE9" offset=".734"/><stop stop-color="#26BDEA" offset=".742"/><stop stop-color="#26BEEB" offset=".75"/><stop stop-color="#26BEEC" offset=".758"/><stop stop-color="#26BFED" offset=".766"/><stop stop-color="#26C0EE" offset=".773"/><stop stop-color="#27C1EE" offset=".781"/><stop stop-color="#27C1EF" offset=".789"/><stop stop-color="#27C2F0" offset=".797"/><stop stop-color="#27C3F1" offset=".805"/><stop stop-color="#27C3F1" offset=".809"/><stop stop-color="#27C4F2" offset=".813"/><stop stop-color="#27C4F2" offset=".828"/><stop stop-color="#27C5F3" offset=".844"/><stop stop-color="#28C6F4" offset=".859"/><stop stop-color="#28C7F5" offset=".875"/><stop stop-color="#28C8F6" offset=".891"/><stop stop-color="#28C8F7" offset=".906"/><stop stop-color="#28C9F8" offset=".922"/><stop stop-color="#28CAF9" offset=".938"/><stop stop-color="#29CBFA" offset=".953"/><stop stop-color="#29CCFB" offset=".969"/><stop stop-color="#29CDFC" offset="1"/></linearGradient><linearGradient x1="351.54" gradientTransform="matrix(.2247 0 0 .22482 118.495 67.754)" xmlns:xlink="http://www.w3.org/1999/xlink" y1="358.28" x2="463.19" gradientUnits="userSpaceOnUse" y2="358.28" xlink:type="simple" xlink:actuate="onLoad" id="k" xlink:show="other"><stop stop-color="#000F2E" offset="0"/><stop stop-color="#000F2E" offset=".063"/><stop stop-color="#00102F" offset=".125"/><stop stop-color="#001130" offset=".188"/><stop stop-color="#011230" offset=".25"/><stop stop-color="#011231" offset=".313"/><stop stop-color="#011332" offset=".344"/><stop stop-color="#011332" offset=".375"/><stop stop-color="#011433" offset=".391"/><stop stop-color="#011433" offset=".406"/><stop stop-color="#011534" offset=".422"/><stop stop-color="#011534" offset=".438"/><stop stop-color="#011635" offset=".453"/><stop stop-color="#021635" offset=".469"/><stop stop-color="#021636" offset=".484"/><stop stop-color="#021736" offset=".5"/><stop stop-color="#021737" offset=".516"/><stop stop-color="#021837" offset=".531"/><stop stop-color="#021838" offset=".547"/><stop stop-color="#021938" offset=".563"/><stop stop-color="#021939" offset=".578"/><stop stop-color="#02193A" offset=".594"/><stop stop-color="#021A3A" offset=".609"/><stop stop-color="#021A3B" offset=".625"/><stop stop-color="#021B3B" offset=".641"/><stop stop-color="#031B3C" offset=".656"/><stop stop-color="#031C3C" offset=".672"/><stop stop-color="#031C3D" offset=".688"/><stop stop-color="#031D3D" offset=".703"/><stop stop-color="#031D3E" offset=".719"/><stop stop-color="#031D3E" offset=".734"/><stop stop-color="#031E3F" offset=".75"/><stop stop-color="#031E3F" offset=".766"/><stop stop-color="#031F40" offset=".781"/><stop stop-color="#042041" offset=".797"/><stop stop-color="#042142" offset=".813"/><stop stop-color="#042142" offset=".828"/><stop stop-color="#042243" offset=".844"/><stop stop-color="#042344" offset=".859"/><stop stop-color="#042445" offset=".875"/><stop stop-color="#052446" offset=".891"/><stop stop-color="#052546" offset=".906"/><stop stop-color="#052647" offset=".922"/><stop stop-color="#052748" offset=".938"/><stop stop-color="#052749" offset=".953"/><stop stop-color="#052849" offset=".969"/><stop stop-color="#06294A" offset=".984"/><stop stop-color="#06294B" offset="1"/></linearGradient><linearGradient x1="54.777" gradientTransform="matrix(.2247 0 0 .22482 118.495 67.754)" xmlns:xlink="http://www.w3.org/1999/xlink" y1="-39.696" x2="525.011" gradientUnits="userSpaceOnUse" y2="542.994" xlink:type="simple" xlink:actuate="onLoad" id="p" xlink:show="other"><stop stop-color="#FF0824" offset="0"/><stop stop-color="#FF0924" offset=".004"/><stop stop-color="#FF0924" offset=".008"/><stop stop-color="#FF0A23" offset=".012"/><stop stop-color="#FF0C23" offset=".016"/><stop stop-color="#FE0D23" offset=".02"/><stop stop-color="#FE0E23" offset=".023"/><stop stop-color="#FE0F23" offset=".027"/><stop stop-color="#FE1022" offset=".031"/><stop stop-color="#FE1122" offset=".035"/><stop stop-color="#FE1222" offset=".039"/><stop stop-color="#FE1322" offset=".043"/><stop stop-color="#FD1422" offset=".047"/><stop stop-color="#FD1521" offset=".051"/><stop stop-color="#FD1721" offset=".055"/><stop stop-color="#FD1821" offset=".059"/><stop stop-color="#FD1921" offset=".063"/><stop stop-color="#FD1A21" offset=".066"/><stop stop-color="#FC1B20" offset=".07"/><stop stop-color="#FC1C20" offset=".074"/><stop stop-color="#FC1D20" offset=".078"/><stop stop-color="#FC1E20" offset=".082"/><stop stop-color="#FC1F20" offset=".086"/><stop stop-color="#FC211F" offset=".09"/><stop stop-color="#FC221F" offset=".094"/><stop stop-color="#FB231F" offset=".098"/><stop stop-color="#FB241F" offset=".102"/><stop stop-color="#FB251E" offset=".105"/><stop stop-color="#FB261E" offset=".109"/><stop stop-color="#FB271E" offset=".113"/><stop stop-color="#FB281E" offset=".117"/><stop stop-color="#FB291E" offset=".121"/><stop stop-color="#FA2A1D" offset=".125"/><stop stop-color="#FA2B1D" offset=".129"/><stop stop-color="#FA2C1D" offset=".133"/><stop stop-color="#FA2D1D" offset=".137"/><stop stop-color="#FA2E1D" offset=".141"/><stop stop-color="#FA2F1C" offset=".145"/><stop stop-color="#FA301C" offset=".148"/><stop stop-color="#F9311C" offset=".152"/><stop stop-color="#F9321C" offset=".156"/><stop stop-color="#F9331C" offset=".16"/><stop stop-color="#F9331B" offset=".164"/><stop stop-color="#F9341B" offset=".168"/><stop stop-color="#F9351B" offset=".172"/><stop stop-color="#F8361B" offset=".176"/><stop stop-color="#F8371A" offset=".18"/><stop stop-color="#F8381A" offset=".184"/><stop stop-color="#F8391A" offset=".188"/><stop stop-color="#F83A1A" offset=".191"/><stop stop-color="#F83B1A" offset=".195"/><stop stop-color="#F83C19" offset=".199"/><stop stop-color="#F73D19" offset=".203"/><stop stop-color="#F73E19" offset=".207"/><stop stop-color="#F73F19" offset=".211"/><stop stop-color="#F74019" offset=".215"/><stop stop-color="#F74118" offset=".219"/><stop stop-color="#F74218" offset=".223"/><stop stop-color="#F64318" offset=".227"/><stop stop-color="#F64418" offset=".23"/><stop stop-color="#F64517" offset=".234"/><stop stop-color="#F64617" offset=".238"/><stop stop-color="#F64717" offset=".242"/><stop stop-color="#F64717" offset=".246"/><stop stop-color="#F64817" offset=".25"/><stop stop-color="#F54916" offset=".254"/><stop stop-color="#F54A16" offset=".258"/><stop stop-color="#F54B16" offset=".262"/><stop stop-color="#F54C16" offset=".266"/><stop stop-color="#F54D16" offset=".27"/><stop stop-color="#F54E15" offset=".273"/><stop stop-color="#F44F15" offset=".277"/><stop stop-color="#F45015" offset=".281"/><stop stop-color="#F45115" offset=".285"/><stop stop-color="#F45214" offset=".289"/><stop stop-color="#F45314" offset=".293"/><stop stop-color="#F45414" offset=".297"/><stop stop-color="#F45514" offset=".301"/><stop stop-color="#F35614" offset=".305"/><stop stop-color="#F35713" offset=".309"/><stop stop-color="#F35813" offset=".313"/><stop stop-color="#F35913" offset=".316"/><stop stop-color="#F35913" offset=".32"/><stop stop-color="#F35A13" offset=".324"/><stop stop-color="#F35B13" offset=".328"/><stop stop-color="#F25C12" offset=".332"/><stop stop-color="#F25D12" offset=".336"/><stop stop-color="#F25D12" offset=".34"/><stop stop-color="#F25E12" offset=".344"/><stop stop-color="#F25F12" offset=".348"/><stop stop-color="#F26012" offset=".352"/><stop stop-color="#F26111" offset=".355"/><stop stop-color="#F26211" offset=".359"/><stop stop-color="#F16211" offset=".363"/><stop stop-color="#F16311" offset=".367"/><stop stop-color="#F16411" offset=".371"/><stop stop-color="#F16511" offset=".375"/><stop stop-color="#F16610" offset=".379"/><stop stop-color="#F16610" offset=".383"/><stop stop-color="#F16710" offset=".387"/><stop stop-color="#F16810" offset=".391"/><stop stop-color="#F06910" offset=".395"/><stop stop-color="#F06A10" offset=".398"/><stop stop-color="#F06B0F" offset=".402"/><stop stop-color="#F06B0F" offset=".406"/><stop stop-color="#F06C0F" offset=".41"/><stop stop-color="#F06D0F" offset=".414"/><stop stop-color="#F06E0F" offset=".418"/><stop stop-color="#F06F0E" offset=".422"/><stop stop-color="#EF6F0E" offset=".426"/><stop stop-color="#EF700E" offset=".43"/><stop stop-color="#EF710E" offset=".434"/><stop stop-color="#EF720E" offset=".438"/><stop stop-color="#EF730E" offset=".441"/><stop stop-color="#EF740D" offset=".445"/><stop stop-color="#EF740D" offset=".449"/><stop stop-color="#EF750D" offset=".453"/><stop stop-color="#EE760D" offset=".457"/><stop stop-color="#EE770D" offset=".461"/><stop stop-color="#EE780D" offset=".465"/><stop stop-color="#EE790C" offset=".469"/><stop stop-color="#EE790C" offset=".473"/><stop stop-color="#EE7A0C" offset=".477"/><stop stop-color="#EE7B0C" offset=".48"/><stop stop-color="#EE7C0C" offset=".484"/><stop stop-color="#ED7D0C" offset=".488"/><stop stop-color="#ED7D0B" offset=".492"/><stop stop-color="#ED7E0B" offset=".496"/><stop stop-color="#ED7F0B" offset=".5"/><stop stop-color="#ED800B" offset=".504"/><stop stop-color="#ED810B" offset=".508"/><stop stop-color="#ED810B" offset=".512"/><stop stop-color="#ED820B" offset=".516"/><stop stop-color="#ED820A" offset=".52"/><stop stop-color="#EC830A" offset=".523"/><stop stop-color="#EC840A" offset=".527"/><stop stop-color="#EC840A" offset=".531"/><stop stop-color="#EC850A" offset=".535"/><stop stop-color="#EC860A" offset=".539"/><stop stop-color="#EC860A" offset=".543"/><stop stop-color="#EC870A" offset=".547"/><stop stop-color="#EC8809" offset=".551"/><stop stop-color="#EC8809" offset=".555"/><stop stop-color="#EC8909" offset=".559"/><stop stop-color="#EC8A09" offset=".563"/><stop stop-color="#EC8A09" offset=".566"/><stop stop-color="#EB8B09" offset=".57"/><stop stop-color="#EB8B09" offset=".574"/><stop stop-color="#EB8C08" offset=".578"/><stop stop-color="#EB8D08" offset=".582"/><stop stop-color="#EB8D08" offset=".586"/><stop stop-color="#EB8E08" offset=".59"/><stop stop-color="#EB8F08" offset=".594"/><stop stop-color="#EB8F08" offset=".598"/><stop stop-color="#EB9008" offset=".602"/><stop stop-color="#EB9107" offset=".605"/><stop stop-color="#EB9107" offset=".609"/><stop stop-color="#EA9207" offset=".613"/><stop stop-color="#EA9307" offset=".617"/><stop stop-color="#EA9307" offset=".621"/><stop stop-color="#EA9407" offset=".625"/><stop stop-color="#EA9407" offset=".629"/><stop stop-color="#EA9507" offset=".633"/><stop stop-color="#EA9606" offset=".637"/><stop stop-color="#EA9606" offset=".641"/><stop stop-color="#EA9706" offset=".645"/><stop stop-color="#EA9806" offset=".648"/><stop stop-color="#EA9806" offset=".652"/><stop stop-color="#E99906" offset=".656"/><stop stop-color="#E99A06" offset=".66"/><stop stop-color="#E99A05" offset=".664"/><stop stop-color="#E99B05" offset=".668"/><stop stop-color="#E99C05" offset=".672"/><stop stop-color="#E99C05" offset=".676"/><stop stop-color="#E99D05" offset=".68"/><stop stop-color="#E99D05" offset=".688"/><stop stop-color="#E99E05" offset=".695"/><stop stop-color="#E99F04" offset=".703"/><stop stop-color="#E99F04" offset=".711"/><stop stop-color="#E9A004" offset=".719"/><stop stop-color="#E8A104" offset=".727"/><stop stop-color="#E8A204" offset=".734"/><stop stop-color="#E8A303" offset=".742"/><stop stop-color="#E8A303" offset=".75"/><stop stop-color="#E8A403" offset=".758"/><stop stop-color="#E8A503" offset=".766"/><stop stop-color="#E8A603" offset=".773"/><stop stop-color="#E8A703" offset=".781"/><stop stop-color="#E8A802" offset=".789"/><stop stop-color="#E8A802" offset=".797"/><stop stop-color="#E7A902" offset=".805"/><stop stop-color="#E7AA02" offset=".813"/><stop stop-color="#E7AB02" offset=".82"/><stop stop-color="#E7AC01" offset=".828"/><stop stop-color="#E7AC01" offset=".836"/><stop stop-color="#E7AD01" offset=".844"/><stop stop-color="#E7AE01" offset=".859"/><stop stop-color="#E7AF01" offset=".875"/><stop stop-color="#E7AF01" offset=".891"/><stop stop-color="#E6B000" offset=".906"/><stop stop-color="#E6B100" offset=".922"/><stop stop-color="#E6B200" offset=".938"/><stop stop-color="#E6B300" offset="1"/></linearGradient><linearGradient x1="187.781" gradientTransform="matrix(.2247 0 0 .22482 118.495 67.754)" xmlns:xlink="http://www.w3.org/1999/xlink" y1="32.573" x2="425.34" gradientUnits="userSpaceOnUse" y2="556.236" xlink:type="simple" xlink:actuate="onLoad" id="s" xlink:show="other"><stop stop-color="#FF0824" offset="0"/><stop stop-color="#FF0824" offset=".125"/><stop stop-color="#FF0824" offset=".141"/><stop stop-color="#FF0824" offset=".148"/><stop stop-color="#FF0924" offset=".152"/><stop stop-color="#FF0A23" offset=".156"/><stop stop-color="#FF0B23" offset=".16"/><stop stop-color="#FE0C23" offset=".164"/><stop stop-color="#FE0D23" offset=".168"/><stop stop-color="#FE0E23" offset=".172"/><stop stop-color="#FE0F23" offset=".176"/><stop stop-color="#FE0F22" offset=".18"/><stop stop-color="#FE1022" offset=".184"/><stop stop-color="#FE1122" offset=".188"/><stop stop-color="#FE1222" offset=".191"/><stop stop-color="#FD1322" offset=".195"/><stop stop-color="#FD1421" offset=".199"/><stop stop-color="#FD1521" offset=".203"/><stop stop-color="#FD1621" offset=".207"/><stop stop-color="#FD1621" offset=".211"/><stop stop-color="#FD1721" offset=".215"/><stop stop-color="#FD1821" offset=".219"/><stop stop-color="#FD1920" offset=".223"/><stop stop-color="#FC1A20" offset=".227"/><stop stop-color="#FC1B20" offset=".23"/><stop stop-color="#FC1C20" offset=".234"/><stop stop-color="#FC1D20" offset=".238"/><stop stop-color="#FC1D1F" offset=".242"/><stop stop-color="#FC1E1F" offset=".246"/><stop stop-color="#FC1F1F" offset=".25"/><stop stop-color="#FC201F" offset=".254"/><stop stop-color="#FB211F" offset=".258"/><stop stop-color="#FB221F" offset=".262"/><stop stop-color="#FB231E" offset=".266"/><stop stop-color="#FB241E" offset=".27"/><stop stop-color="#FB251E" offset=".273"/><stop stop-color="#FB251E" offset=".277"/><stop stop-color="#FB261E" offset=".281"/><stop stop-color="#FB271D" offset=".285"/><stop stop-color="#FA281D" offset=".289"/><stop stop-color="#FA291D" offset=".293"/><stop stop-color="#FA2A1D" offset=".297"/><stop stop-color="#FA2B1D" offset=".301"/><stop stop-color="#FA2C1D" offset=".305"/><stop stop-color="#FA2C1C" offset=".309"/><stop stop-color="#FA2D1C" offset=".313"/><stop stop-color="#FA2E1C" offset=".316"/><stop stop-color="#F92F1C" offset=".32"/><stop stop-color="#F9301C" offset=".324"/><stop stop-color="#F9311B" offset=".328"/><stop stop-color="#F9321B" offset=".332"/><stop stop-color="#F9331B" offset=".336"/><stop stop-color="#F9331B" offset=".34"/><stop stop-color="#F9341B" offset=".344"/><stop stop-color="#F9351B" offset=".348"/><stop stop-color="#F8361A" offset=".352"/><stop stop-color="#F8361A" offset=".355"/><stop stop-color="#F8371A" offset=".359"/><stop stop-color="#F8381A" offset=".363"/><stop stop-color="#F8391A" offset=".367"/><stop stop-color="#F83A1A" offset=".371"/><stop stop-color="#F83A19" offset=".375"/><stop stop-color="#F83B19" offset=".379"/><stop stop-color="#F83C19" offset=".383"/><stop stop-color="#F73D19" offset=".387"/><stop stop-color="#F73D19" offset=".391"/><stop stop-color="#F73E19" offset=".395"/><stop stop-color="#F73F18" offset=".398"/><stop stop-color="#F74018" offset=".402"/><stop stop-color="#F74118" offset=".406"/><stop stop-color="#F74118" offset=".41"/><stop stop-color="#F74218" offset=".414"/><stop stop-color="#F74318" offset=".418"/><stop stop-color="#F64417" offset=".422"/><stop stop-color="#F64417" offset=".426"/><stop stop-color="#F64517" offset=".43"/><stop stop-color="#F64617" offset=".434"/><stop stop-color="#F64717" offset=".438"/><stop stop-color="#F64817" offset=".441"/><stop stop-color="#F64816" offset=".445"/><stop stop-color="#F64916" offset=".449"/><stop stop-color="#F64A16" offset=".453"/><stop stop-color="#F54B16" offset=".457"/><stop stop-color="#F54B16" offset=".461"/><stop stop-color="#F54C16" offset=".465"/><stop stop-color="#F54D15" offset=".469"/><stop stop-color="#F54E15" offset=".473"/><stop stop-color="#F54F15" offset=".477"/><stop stop-color="#F54F15" offset=".48"/><stop stop-color="#F55015" offset=".484"/><stop stop-color="#F55115" offset=".488"/><stop stop-color="#F45214" offset=".492"/><stop stop-color="#F45214" offset=".496"/><stop stop-color="#F45314" offset=".5"/><stop stop-color="#F45414" offset=".504"/><stop stop-color="#F45514" offset=".508"/><stop stop-color="#F45614" offset=".512"/><stop stop-color="#F45613" offset=".516"/><stop stop-color="#F45713" offset=".52"/><stop stop-color="#F45813" offset=".523"/><stop stop-color="#F35913" offset=".527"/><stop stop-color="#F35913" offset=".531"/><stop stop-color="#F35A13" offset=".535"/><stop stop-color="#F35B12" offset=".539"/><stop stop-color="#F35C12" offset=".543"/><stop stop-color="#F35D12" offset=".547"/><stop stop-color="#F35D12" offset=".551"/><stop stop-color="#F35E12" offset=".555"/><stop stop-color="#F35F11" offset=".559"/><stop stop-color="#F26011" offset=".563"/><stop stop-color="#F26011" offset=".566"/><stop stop-color="#F26111" offset=".57"/><stop stop-color="#F26211" offset=".574"/><stop stop-color="#F26311" offset=".578"/><stop stop-color="#F26310" offset=".582"/><stop stop-color="#F26410" offset=".586"/><stop stop-color="#F26510" offset=".59"/><stop stop-color="#F26610" offset=".594"/><stop stop-color="#F16710" offset=".598"/><stop stop-color="#F16710" offset=".602"/><stop stop-color="#F1680F" offset=".605"/><stop stop-color="#F1690F" offset=".609"/><stop stop-color="#F16A0F" offset=".613"/><stop stop-color="#F16A0F" offset=".617"/><stop stop-color="#F16B0F" offset=".621"/><stop stop-color="#F16C0F" offset=".625"/><stop stop-color="#F16C0F" offset=".629"/><stop stop-color="#F16D0E" offset=".633"/><stop stop-color="#F06E0E" offset=".637"/><stop stop-color="#F06E0E" offset=".641"/><stop stop-color="#F06F0E" offset=".645"/><stop stop-color="#F0700E" offset=".648"/><stop stop-color="#F0700E" offset=".652"/><stop stop-color="#F0710E" offset=".656"/><stop stop-color="#F0720D" offset=".66"/><stop stop-color="#F0720D" offset=".664"/><stop stop-color="#F0730D" offset=".668"/><stop stop-color="#F0740D" offset=".672"/><stop stop-color="#EF740D" offset=".676"/><stop stop-color="#EF750D" offset=".68"/><stop stop-color="#EF760D" offset=".684"/><stop stop-color="#EF760D" offset=".688"/><stop stop-color="#EF770C" offset=".691"/><stop stop-color="#EF780C" offset=".695"/><stop stop-color="#EF780C" offset=".699"/><stop stop-color="#EF790C" offset=".703"/><stop stop-color="#EF7A0C" offset=".707"/><stop stop-color="#EF7A0C" offset=".711"/><stop stop-color="#EE7B0C" offset=".715"/><stop stop-color="#EE7C0B" offset=".719"/><stop stop-color="#EE7C0B" offset=".723"/><stop stop-color="#EE7D0B" offset=".727"/><stop stop-color="#EE7E0B" offset=".73"/><stop stop-color="#EE7E0B" offset=".734"/><stop stop-color="#EE7F0B" offset=".738"/><stop stop-color="#EE800B" offset=".742"/><stop stop-color="#EE800A" offset=".746"/><stop stop-color="#EE810A" offset=".75"/><stop stop-color="#EE820A" offset=".754"/><stop stop-color="#ED820A" offset=".758"/><stop stop-color="#ED830A" offset=".762"/><stop stop-color="#ED840A" offset=".766"/><stop stop-color="#ED840A" offset=".77"/><stop stop-color="#ED850A" offset=".773"/><stop stop-color="#ED8609" offset=".777"/><stop stop-color="#ED8609" offset=".781"/><stop stop-color="#ED8709" offset=".785"/><stop stop-color="#ED8809" offset=".789"/><stop stop-color="#ED8809" offset=".793"/><stop stop-color="#EC8909" offset=".797"/><stop stop-color="#EC8A09" offset=".801"/><stop stop-color="#EC8A08" offset=".805"/><stop stop-color="#EC8B08" offset=".809"/><stop stop-color="#EC8C08" offset=".813"/><stop stop-color="#EC8C08" offset=".816"/><stop stop-color="#EC8D08" offset=".82"/><stop stop-color="#EC8E08" offset=".824"/><stop stop-color="#EC8E08" offset=".828"/><stop stop-color="#EC8F07" offset=".832"/><stop stop-color="#EB9007" offset=".836"/><stop stop-color="#EB9007" offset=".84"/><stop stop-color="#EB9107" offset=".844"/><stop stop-color="#EB9207" offset=".848"/><stop stop-color="#EB9207" offset=".852"/><stop stop-color="#EB9307" offset=".855"/><stop stop-color="#EB9307" offset=".859"/><stop stop-color="#EB9407" offset=".863"/><stop stop-color="#EB9406" offset=".867"/><stop stop-color="#EB9506" offset=".871"/><stop stop-color="#EB9506" offset=".875"/><stop stop-color="#EA9606" offset=".879"/><stop stop-color="#EA9606" offset=".883"/><stop stop-color="#EA9706" offset=".887"/><stop stop-color="#EA9806" offset=".891"/><stop stop-color="#EA9806" offset=".895"/><stop stop-color="#EA9906" offset=".898"/><stop stop-color="#EA9905" offset=".902"/><stop stop-color="#EA9A05" offset=".906"/><stop stop-color="#EA9A05" offset=".91"/><stop stop-color="#EA9B05" offset=".914"/><stop stop-color="#EA9B05" offset=".918"/><stop stop-color="#E99C05" offset=".922"/><stop stop-color="#E99C05" offset=".926"/><stop stop-color="#E99D05" offset=".93"/><stop stop-color="#E99D05" offset=".934"/><stop stop-color="#E99E05" offset=".938"/><stop stop-color="#E99E04" offset=".941"/><stop stop-color="#E99F04" offset=".945"/><stop stop-color="#E99F04" offset=".949"/><stop stop-color="#E9A004" offset=".953"/><stop stop-color="#E9A004" offset=".957"/><stop stop-color="#E9A104" offset=".961"/><stop stop-color="#E9A104" offset=".965"/><stop stop-color="#E8A204" offset=".969"/><stop stop-color="#E8A204" offset=".973"/><stop stop-color="#E8A303" offset=".977"/><stop stop-color="#E8A303" offset=".98"/><stop stop-color="#E8A403" offset=".984"/><stop stop-color="#E8A403" offset=".988"/><stop stop-color="#E8A503" offset=".992"/><stop stop-color="#E8A503" offset=".996"/><stop stop-color="#E8A603" offset="1"/></linearGradient></defs><g clip-path="url(#a)"><g clip-path="url(#b)"><path fill="url(#c)" d="M 132.222656 80.640625 L 132.222656 208.042969 L 157.308594 208.042969 L 157.308594 80.640625 Z M 132.222656 80.640625"/></g></g><g clip-path="url(#d)"><g clip-path="url(#e)"><path fill="#250055" d="M 132.222656 148.304688 L 132.222656 165.917969 L 157.308594 165.917969 L 157.308594 148.304688 Z M 132.222656 148.304688"/></g></g><g clip-path="url(#f)"><g clip-path="url(#g)"><path fill="url(#h)" d="M 197.484375 67.730469 L 197.484375 213.214844 L 256.496094 213.214844 L 256.496094 67.730469 Z M 197.484375 67.730469"/></g></g><g clip-path="url(#i)"><g clip-path="url(#j)"><path fill="url(#k)" d="M 197.484375 136.148438 L 197.484375 160.460938 L 222.574219 160.460938 L 222.574219 136.148438 Z M 197.484375 136.148438"/></g></g><g clip-path="url(#l)"><g clip-path="url(#m)"><path fill="#000F2E" d="M 229.496094 68.015625 L 229.496094 96.558594 L 252.640625 96.558594 L 252.640625 68.015625 Z M 229.496094 68.015625"/></g></g><g clip-path="url(#n)"><g clip-path="url(#o)"><path fill="url(#p)" d="M 118.496094 68.769531 L 118.496094 173.65625 L 256.496094 173.65625 L 256.496094 68.769531 Z M 118.496094 68.769531"/></g></g><g clip-path="url(#q)"><g clip-path="url(#r)"><path fill="url(#s)" d="M 118.496094 94.230469 L 118.496094 173.65625 L 256.261719 173.65625 L 256.261719 94.230469 Z M 118.496094 94.230469"/></g></g><g fill="#FFF"><g><g><path d="M 2.578125 0 L 2.578125 -36.984375 L 10.1875 -36.984375 L 10.1875 -19.734375 L 10.28125 -19.734375 C 12.257812 -21.710938 14.363281 -22.703125 16.59375 -22.703125 C 17.6875 -22.703125 18.769531 -22.554688 19.84375 -22.265625 C 20.914062 -21.984375 21.945312 -21.539062 22.9375 -20.9375 C 23.925781 -20.332031 24.726562 -19.476562 25.34375 -18.375 C 25.957031 -17.28125 26.265625 -16 26.265625 -14.53125 L 26.265625 0 L 18.65625 0 L 18.65625 -12.46875 C 18.65625 -13.613281 18.289062 -14.613281 17.5625 -15.46875 C 16.832031 -16.332031 15.878906 -16.765625 14.703125 -16.765625 C 13.554688 -16.765625 12.515625 -16.320312 11.578125 -15.4375 C 10.648438 -14.550781 10.1875 -13.5625 10.1875 -12.46875 L 10.1875 0 Z M 2.578125 0" transform="translate(102.753 273.486)"/></g></g></g><g fill="#FFF"><g><g><path d="M 3.3125 -34.359375 C 4.195312 -35.242188 5.253906 -35.6875 6.484375 -35.6875 C 7.722656 -35.6875 8.785156 -35.242188 9.671875 -34.359375 C 10.566406 -33.472656 11.015625 -32.410156 11.015625 -31.171875 C 11.015625 -29.941406 10.566406 -28.878906 9.671875 -27.984375 C 8.785156 -27.097656 7.722656 -26.65625 6.484375 -26.65625 C 5.253906 -26.65625 4.195312 -27.097656 3.3125 -27.984375 C 2.425781 -28.878906 1.984375 -29.941406 1.984375 -31.171875 C 1.984375 -32.410156 2.425781 -33.472656 3.3125 -34.359375 Z M 2.578125 -22.0625 L 2.578125 0 L 10.1875 0 L 10.1875 -22.0625 Z M 2.578125 -22.0625" transform="translate(149.32 273.486)"/></g></g></g><g fill="#FFF"><g><g><path d="M 2.578125 0 L 2.578125 -22.0625 L 10.1875 -22.0625 L 10.1875 -18.875 L 10.28125 -18.875 C 10.332031 -18.988281 10.421875 -19.128906 10.546875 -19.296875 C 10.679688 -19.472656 10.960938 -19.773438 11.390625 -20.203125 C 11.828125 -20.640625 12.285156 -21.03125 12.765625 -21.375 C 13.253906 -21.71875 13.882812 -22.023438 14.65625 -22.296875 C 15.4375 -22.566406 16.226562 -22.703125 17.03125 -22.703125 C 17.863281 -22.703125 18.679688 -22.585938 19.484375 -22.359375 C 20.285156 -22.128906 20.867188 -21.898438 21.234375 -21.671875 L 21.84375 -21.328125 L 18.65625 -14.875 C 17.71875 -15.675781 16.398438 -16.078125 14.703125 -16.078125 C 13.785156 -16.078125 13 -15.875 12.34375 -15.46875 C 11.6875 -15.070312 11.21875 -14.585938 10.9375 -14.015625 C 10.664062 -13.441406 10.472656 -12.953125 10.359375 -12.546875 C 10.242188 -12.148438 10.1875 -11.835938 10.1875 -11.609375 L 10.1875 0 Z M 2.578125 0" transform="translate(180.45 273.486)"/></g></g></g><g fill="#FFF"><g><g><path d="M 3.3125 -34.359375 C 4.195312 -35.242188 5.253906 -35.6875 6.484375 -35.6875 C 7.722656 -35.6875 8.785156 -35.242188 9.671875 -34.359375 C 10.566406 -33.472656 11.015625 -32.410156 11.015625 -31.171875 C 11.015625 -29.941406 10.566406 -28.878906 9.671875 -27.984375 C 8.785156 -27.097656 7.722656 -26.65625 6.484375 -26.65625 C 5.253906 -26.65625 4.195312 -27.097656 3.3125 -27.984375 C 2.425781 -28.878906 1.984375 -29.941406 1.984375 -31.171875 C 1.984375 -32.410156 2.425781 -33.472656 3.3125 -34.359375 Z M 2.578125 -22.0625 L 2.578125 0 L 10.1875 0 L 10.1875 -22.0625 Z M 2.578125 -22.0625" transform="translate(220.008 273.486)"/></g></g></g><g fill="#FFF"><g><g><path d="M 14.3125 -16.46875 C 12.882812 -16.46875 11.65625 -15.9375 10.625 -14.875 C 9.59375 -13.8125 9.078125 -12.535156 9.078125 -11.046875 C 9.078125 -9.523438 9.59375 -8.234375 10.625 -7.171875 C 11.65625 -6.117188 12.882812 -5.59375 14.3125 -5.59375 C 15 -5.59375 15.648438 -5.675781 16.265625 -5.84375 C 16.890625 -6.019531 17.34375 -6.191406 17.625 -6.359375 L 18.015625 -6.625 L 20.59375 -1.328125 C 20.394531 -1.191406 20.113281 -1.015625 19.75 -0.796875 C 19.394531 -0.578125 18.578125 -0.285156 17.296875 0.078125 C 16.023438 0.453125 14.660156 0.640625 13.203125 0.640625 C 9.960938 0.640625 7.113281 -0.492188 4.65625 -2.765625 C 2.207031 -5.046875 0.984375 -7.78125 0.984375 -10.96875 C 0.984375 -14.175781 2.207031 -16.929688 4.65625 -19.234375 C 7.113281 -21.546875 9.960938 -22.703125 13.203125 -22.703125 C 14.660156 -22.703125 16.003906 -22.53125 17.234375 -22.1875 C 18.472656 -21.84375 19.347656 -21.5 19.859375 -21.15625 L 20.59375 -20.640625 L 18.015625 -15.4375 C 17.066406 -16.125 15.832031 -16.46875 14.3125 -16.46875 Z M 14.3125 -16.46875" transform="translate(251.139 273.486)"/></g></g></g><g fill="#FFF"><g><g><path d="M 6.875 0 L 5.0625 -2.578125 C 4.84375 -2.566406 4.664062 -2.5625 4.53125 -2.5625 L 2.453125 -2.5625 L 2.453125 0 L 1.265625 0 L 1.265625 -8.40625 L 4.53125 -8.40625 C 5.625 -8.40625 6.484375 -8.144531 7.109375 -7.625 C 7.734375 -7.101562 8.046875 -6.382812 8.046875 -5.46875 C 8.046875 -4.820312 7.882812 -4.269531 7.5625 -3.8125 C 7.238281 -3.351562 6.78125 -3.019531 6.1875 -2.8125 L 8.1875 0 Z M 4.5 -3.578125 C 5.257812 -3.578125 5.835938 -3.738281 6.234375 -4.0625 C 6.640625 -4.394531 6.84375 -4.863281 6.84375 -5.46875 C 6.84375 -6.082031 6.640625 -6.550781 6.234375 -6.875 C 5.835938 -7.195312 5.257812 -7.359375 4.5 -7.359375 L 2.453125 -7.359375 L 2.453125 -3.578125 Z M 4.5 -3.578125" transform="translate(60.077 297.986)"/></g></g></g><g fill="#FFF"><g><g><path d="M 6.84375 -3.140625 C 6.84375 -3.054688 6.832031 -2.941406 6.8125 -2.796875 L 1.65625 -2.796875 C 1.726562 -2.234375 1.972656 -1.78125 2.390625 -1.4375 C 2.816406 -1.101562 3.335938 -0.9375 3.953125 -0.9375 C 4.710938 -0.9375 5.328125 -1.191406 5.796875 -1.703125 L 6.4375 -0.953125 C 6.144531 -0.617188 5.785156 -0.363281 5.359375 -0.1875 C 4.929688 -0.0078125 4.453125 0.078125 3.921875 0.078125 C 3.253906 0.078125 2.660156 -0.0546875 2.140625 -0.328125 C 1.617188 -0.609375 1.210938 -1 0.921875 -1.5 C 0.640625 -2 0.5 -2.5625 0.5 -3.1875 C 0.5 -3.800781 0.632812 -4.351562 0.90625 -4.84375 C 1.1875 -5.34375 1.566406 -5.726562 2.046875 -6 C 2.535156 -6.28125 3.085938 -6.421875 3.703125 -6.421875 C 4.304688 -6.421875 4.84375 -6.28125 5.3125 -6 C 5.789062 -5.726562 6.164062 -5.34375 6.4375 -4.84375 C 6.707031 -4.351562 6.84375 -3.785156 6.84375 -3.140625 Z M 3.703125 -5.453125 C 3.148438 -5.453125 2.6875 -5.28125 2.3125 -4.9375 C 1.9375 -4.601562 1.71875 -4.164062 1.65625 -3.625 L 5.734375 -3.625 C 5.671875 -4.15625 5.453125 -4.59375 5.078125 -4.9375 C 4.710938 -5.28125 4.253906 -5.453125 3.703125 -5.453125 Z M 3.703125 -5.453125" transform="translate(70.337 297.986)"/></g></g></g><g fill="#FFF"><g><g><path d="M 3.859375 0.078125 C 3.210938 0.078125 2.632812 -0.0625 2.125 -0.34375 C 1.625 -0.625 1.226562 -1.007812 0.9375 -1.5 C 0.644531 -2 0.5 -2.5625 0.5 -3.1875 C 0.5 -3.800781 0.644531 -4.351562 0.9375 -4.84375 C 1.226562 -5.34375 1.625 -5.726562 2.125 -6 C 2.632812 -6.28125 3.210938 -6.421875 3.859375 -6.421875 C 4.441406 -6.421875 4.957031 -6.300781 5.40625 -6.0625 C 5.851562 -5.832031 6.203125 -5.5 6.453125 -5.0625 L 5.578125 -4.5 C 5.378906 -4.800781 5.128906 -5.023438 4.828125 -5.171875 C 4.535156 -5.328125 4.210938 -5.40625 3.859375 -5.40625 C 3.441406 -5.40625 3.066406 -5.3125 2.734375 -5.125 C 2.398438 -4.945312 2.140625 -4.6875 1.953125 -4.34375 C 1.765625 -4.007812 1.671875 -3.625 1.671875 -3.1875 C 1.671875 -2.738281 1.765625 -2.34375 1.953125 -2 C 2.140625 -1.65625 2.398438 -1.390625 2.734375 -1.203125 C 3.066406 -1.023438 3.441406 -0.9375 3.859375 -0.9375 C 4.210938 -0.9375 4.535156 -1.007812 4.828125 -1.15625 C 5.128906 -1.3125 5.378906 -1.539062 5.578125 -1.84375 L 6.453125 -1.296875 C 6.203125 -0.859375 5.851562 -0.519531 5.40625 -0.28125 C 4.957031 -0.0390625 4.441406 0.078125 3.859375 0.078125 Z M 3.859375 0.078125" transform="translate(79.217 297.986)"/></g></g></g><g fill="#FFF"><g><g><path d="M 2.203125 -5.296875 C 2.398438 -5.660156 2.691406 -5.9375 3.078125 -6.125 C 3.472656 -6.320312 3.953125 -6.421875 4.515625 -6.421875 L 4.515625 -5.296875 C 4.453125 -5.304688 4.363281 -5.3125 4.25 -5.3125 C 3.625 -5.3125 3.132812 -5.125 2.78125 -4.75 C 2.425781 -4.382812 2.25 -3.859375 2.25 -3.171875 L 2.25 0 L 1.09375 0 L 1.09375 -6.359375 L 2.203125 -6.359375 Z M 2.203125 -5.296875" transform="translate(87.605 297.986)"/></g></g></g><g fill="#FFF"><g><g><path d="M 7.015625 -6.359375 L 7.015625 0 L 5.921875 0 L 5.921875 -0.953125 C 5.691406 -0.628906 5.382812 -0.375 5 -0.1875 C 4.625 -0.0078125 4.210938 0.078125 3.765625 0.078125 C 2.921875 0.078125 2.253906 -0.15625 1.765625 -0.625 C 1.273438 -1.09375 1.03125 -1.785156 1.03125 -2.703125 L 1.03125 -6.359375 L 2.1875 -6.359375 L 2.1875 -2.828125 C 2.1875 -2.210938 2.332031 -1.742188 2.625 -1.421875 C 2.925781 -1.109375 3.351562 -0.953125 3.90625 -0.953125 C 4.507812 -0.953125 4.988281 -1.132812 5.34375 -1.5 C 5.695312 -1.875 5.875 -2.398438 5.875 -3.078125 L 5.875 -6.359375 Z M 7.015625 -6.359375" transform="translate(94.06 297.986)"/></g></g></g><g fill="#FFF"><g><g><path d="M 1.09375 -6.359375 L 2.25 -6.359375 L 2.25 0 L 1.09375 0 Z M 1.671875 -7.578125 C 1.441406 -7.578125 1.253906 -7.648438 1.109375 -7.796875 C 0.960938 -7.941406 0.890625 -8.117188 0.890625 -8.328125 C 0.890625 -8.535156 0.960938 -8.710938 1.109375 -8.859375 C 1.253906 -9.003906 1.441406 -9.078125 1.671875 -9.078125 C 1.890625 -9.078125 2.070312 -9.003906 2.21875 -8.859375 C 2.375 -8.722656 2.453125 -8.554688 2.453125 -8.359375 C 2.453125 -8.140625 2.375 -7.953125 2.21875 -7.796875 C 2.070312 -7.648438 1.890625 -7.578125 1.671875 -7.578125 Z M 1.671875 -7.578125" transform="translate(103.72 297.986)"/></g></g></g><g fill="#FFF"><g><g><path d="M 4.671875 -0.375 C 4.503906 -0.226562 4.296875 -0.113281 4.046875 -0.03125 C 3.796875 0.0390625 3.539062 0.078125 3.28125 0.078125 C 2.632812 0.078125 2.132812 -0.09375 1.78125 -0.4375 C 1.4375 -0.78125 1.265625 -1.273438 1.265625 -1.921875 L 1.265625 -5.40625 L 0.1875 -5.40625 L 0.1875 -6.359375 L 1.265625 -6.359375 L 1.265625 -7.75 L 2.40625 -7.75 L 2.40625 -6.359375 L 4.234375 -6.359375 L 4.234375 -5.40625 L 2.40625 -5.40625 L 2.40625 -1.96875 C 2.40625 -1.625 2.488281 -1.359375 2.65625 -1.171875 C 2.832031 -0.992188 3.082031 -0.90625 3.40625 -0.90625 C 3.757812 -0.90625 4.0625 -1.003906 4.3125 -1.203125 Z M 4.671875 -0.375" transform="translate(108.605 297.986)"/></g></g></g><g fill="#FFF"><g><g><path d="M 9.046875 -6.421875 C 9.847656 -6.421875 10.484375 -6.1875 10.953125 -5.71875 C 11.421875 -5.257812 11.65625 -4.570312 11.65625 -3.65625 L 11.65625 0 L 10.5 0 L 10.5 -3.53125 C 10.5 -4.144531 10.351562 -4.609375 10.0625 -4.921875 C 9.78125 -5.234375 9.378906 -5.390625 8.859375 -5.390625 C 8.273438 -5.390625 7.8125 -5.207031 7.46875 -4.84375 C 7.125 -4.476562 6.953125 -3.957031 6.953125 -3.28125 L 6.953125 0 L 5.796875 0 L 5.796875 -3.53125 C 5.796875 -4.144531 5.648438 -4.609375 5.359375 -4.921875 C 5.078125 -5.234375 4.675781 -5.390625 4.15625 -5.390625 C 3.570312 -5.390625 3.109375 -5.207031 2.765625 -4.84375 C 2.421875 -4.476562 2.25 -3.957031 2.25 -3.28125 L 2.25 0 L 1.09375 0 L 1.09375 -6.359375 L 2.203125 -6.359375 L 2.203125 -5.40625 C 2.429688 -5.738281 2.734375 -5.988281 3.109375 -6.15625 C 3.484375 -6.332031 3.910156 -6.421875 4.390625 -6.421875 C 4.890625 -6.421875 5.328125 -6.316406 5.703125 -6.109375 C 6.085938 -5.910156 6.382812 -5.625 6.59375 -5.25 C 6.832031 -5.613281 7.164062 -5.898438 7.59375 -6.109375 C 8.03125 -6.316406 8.515625 -6.421875 9.046875 -6.421875 Z M 9.046875 -6.421875" transform="translate(115.109 297.986)"/></g></g></g><g fill="#FFF"><g><g><path d="M 6.84375 -3.140625 C 6.84375 -3.054688 6.832031 -2.941406 6.8125 -2.796875 L 1.65625 -2.796875 C 1.726562 -2.234375 1.972656 -1.78125 2.390625 -1.4375 C 2.816406 -1.101562 3.335938 -0.9375 3.953125 -0.9375 C 4.710938 -0.9375 5.328125 -1.191406 5.796875 -1.703125 L 6.4375 -0.953125 C 6.144531 -0.617188 5.785156 -0.363281 5.359375 -0.1875 C 4.929688 -0.0078125 4.453125 0.078125 3.921875 0.078125 C 3.253906 0.078125 2.660156 -0.0546875 2.140625 -0.328125 C 1.617188 -0.609375 1.210938 -1 0.921875 -1.5 C 0.640625 -2 0.5 -2.5625 0.5 -3.1875 C 0.5 -3.800781 0.632812 -4.351562 0.90625 -4.84375 C 1.1875 -5.34375 1.566406 -5.726562 2.046875 -6 C 2.535156 -6.28125 3.085938 -6.421875 3.703125 -6.421875 C 4.304688 -6.421875 4.84375 -6.28125 5.3125 -6 C 5.789062 -5.726562 6.164062 -5.34375 6.4375 -4.84375 C 6.707031 -4.351562 6.84375 -3.785156 6.84375 -3.140625 Z M 3.703125 -5.453125 C 3.148438 -5.453125 2.6875 -5.28125 2.3125 -4.9375 C 1.9375 -4.601562 1.71875 -4.164062 1.65625 -3.625 L 5.734375 -3.625 C 5.671875 -4.15625 5.453125 -4.59375 5.078125 -4.9375 C 4.710938 -5.28125 4.253906 -5.453125 3.703125 -5.453125 Z M 3.703125 -5.453125" transform="translate(129.329 297.986)"/></g></g></g><g fill="#FFF"><g><g><path d="M 4.484375 -6.421875 C 5.296875 -6.421875 5.9375 -6.1875 6.40625 -5.71875 C 6.882812 -5.25 7.125 -4.5625 7.125 -3.65625 L 7.125 0 L 5.96875 0 L 5.96875 -3.53125 C 5.96875 -4.144531 5.820312 -4.609375 5.53125 -4.921875 C 5.238281 -5.234375 4.816406 -5.390625 4.265625 -5.390625 C 3.640625 -5.390625 3.144531 -5.207031 2.78125 -4.84375 C 2.425781 -4.476562 2.25 -3.957031 2.25 -3.28125 L 2.25 0 L 1.09375 0 L 1.09375 -6.359375 L 2.203125 -6.359375 L 2.203125 -5.40625 C 2.429688 -5.726562 2.742188 -5.976562 3.140625 -6.15625 C 3.535156 -6.332031 3.984375 -6.421875 4.484375 -6.421875 Z M 4.484375 -6.421875" transform="translate(138.209 297.986)"/></g></g></g><g fill="#FFF"><g><g><path d="M 4.671875 -0.375 C 4.503906 -0.226562 4.296875 -0.113281 4.046875 -0.03125 C 3.796875 0.0390625 3.539062 0.078125 3.28125 0.078125 C 2.632812 0.078125 2.132812 -0.09375 1.78125 -0.4375 C 1.4375 -0.78125 1.265625 -1.273438 1.265625 -1.921875 L 1.265625 -5.40625 L 0.1875 -5.40625 L 0.1875 -6.359375 L 1.265625 -6.359375 L 1.265625 -7.75 L 2.40625 -7.75 L 2.40625 -6.359375 L 4.234375 -6.359375 L 4.234375 -5.40625 L 2.40625 -5.40625 L 2.40625 -1.96875 C 2.40625 -1.625 2.488281 -1.359375 2.65625 -1.171875 C 2.832031 -0.992188 3.082031 -0.90625 3.40625 -0.90625 C 3.757812 -0.90625 4.0625 -1.003906 4.3125 -1.203125 Z M 4.671875 -0.375" transform="translate(147.917 297.986)"/></g></g></g><g fill="#FFF"><g><g><path d="M 9.046875 0 L 9.03125 -6.125 L 6 -1.015625 L 5.453125 -1.015625 L 2.40625 -6.078125 L 2.40625 0 L 1.265625 0 L 1.265625 -8.40625 L 2.25 -8.40625 L 5.75 -2.5 L 9.203125 -8.40625 L 10.1875 -8.40625 L 10.203125 0 Z M 9.046875 0" transform="translate(159.185 297.986)"/></g></g></g><g fill="#FFF"><g><g><path d="M 3.40625 -6.421875 C 4.289062 -6.421875 4.960938 -6.203125 5.421875 -5.765625 C 5.890625 -5.335938 6.125 -4.695312 6.125 -3.84375 L 6.125 0 L 5.046875 0 L 5.046875 -0.84375 C 4.847656 -0.539062 4.570312 -0.3125 4.21875 -0.15625 C 3.863281 0 3.441406 0.078125 2.953125 0.078125 C 2.242188 0.078125 1.671875 -0.09375 1.234375 -0.4375 C 0.804688 -0.78125 0.59375 -1.234375 0.59375 -1.796875 C 0.59375 -2.359375 0.796875 -2.804688 1.203125 -3.140625 C 1.617188 -3.484375 2.269531 -3.65625 3.15625 -3.65625 L 4.984375 -3.65625 L 4.984375 -3.890625 C 4.984375 -4.378906 4.835938 -4.753906 4.546875 -5.015625 C 4.253906 -5.285156 3.832031 -5.421875 3.28125 -5.421875 C 2.90625 -5.421875 2.535156 -5.359375 2.171875 -5.234375 C 1.804688 -5.109375 1.503906 -4.941406 1.265625 -4.734375 L 0.78125 -5.609375 C 1.101562 -5.867188 1.492188 -6.066406 1.953125 -6.203125 C 2.410156 -6.347656 2.894531 -6.421875 3.40625 -6.421875 Z M 3.140625 -0.8125 C 3.578125 -0.8125 3.957031 -0.910156 4.28125 -1.109375 C 4.601562 -1.304688 4.835938 -1.582031 4.984375 -1.9375 L 4.984375 -2.828125 L 3.203125 -2.828125 C 2.222656 -2.828125 1.734375 -2.5 1.734375 -1.84375 C 1.734375 -1.53125 1.859375 -1.28125 2.109375 -1.09375 C 2.359375 -0.90625 2.703125 -0.8125 3.140625 -0.8125 Z M 3.140625 -0.8125" transform="translate(172.18 297.986)"/></g></g></g><g fill="#FFF"><g><g><path d="M 4.484375 -6.421875 C 5.296875 -6.421875 5.9375 -6.1875 6.40625 -5.71875 C 6.882812 -5.25 7.125 -4.5625 7.125 -3.65625 L 7.125 0 L 5.96875 0 L 5.96875 -3.53125 C 5.96875 -4.144531 5.820312 -4.609375 5.53125 -4.921875 C 5.238281 -5.234375 4.816406 -5.390625 4.265625 -5.390625 C 3.640625 -5.390625 3.144531 -5.207031 2.78125 -4.84375 C 2.425781 -4.476562 2.25 -3.957031 2.25 -3.28125 L 2.25 0 L 1.09375 0 L 1.09375 -6.359375 L 2.203125 -6.359375 L 2.203125 -5.40625 C 2.429688 -5.726562 2.742188 -5.976562 3.140625 -6.15625 C 3.535156 -6.332031 3.984375 -6.421875 4.484375 -6.421875 Z M 4.484375 -6.421875" transform="translate(180.893 297.986)"/></g></g></g><g fill="#FFF"><g><g><path d="M 3.40625 -6.421875 C 4.289062 -6.421875 4.960938 -6.203125 5.421875 -5.765625 C 5.890625 -5.335938 6.125 -4.695312 6.125 -3.84375 L 6.125 0 L 5.046875 0 L 5.046875 -0.84375 C 4.847656 -0.539062 4.570312 -0.3125 4.21875 -0.15625 C 3.863281 0 3.441406 0.078125 2.953125 0.078125 C 2.242188 0.078125 1.671875 -0.09375 1.234375 -0.4375 C 0.804688 -0.78125 0.59375 -1.234375 0.59375 -1.796875 C 0.59375 -2.359375 0.796875 -2.804688 1.203125 -3.140625 C 1.617188 -3.484375 2.269531 -3.65625 3.15625 -3.65625 L 4.984375 -3.65625 L 4.984375 -3.890625 C 4.984375 -4.378906 4.835938 -4.753906 4.546875 -5.015625 C 4.253906 -5.285156 3.832031 -5.421875 3.28125 -5.421875 C 2.90625 -5.421875 2.535156 -5.359375 2.171875 -5.234375 C 1.804688 -5.109375 1.503906 -4.941406 1.265625 -4.734375 L 0.78125 -5.609375 C 1.101562 -5.867188 1.492188 -6.066406 1.953125 -6.203125 C 2.410156 -6.347656 2.894531 -6.421875 3.40625 -6.421875 Z M 3.140625 -0.8125 C 3.578125 -0.8125 3.957031 -0.910156 4.28125 -1.109375 C 4.601562 -1.304688 4.835938 -1.582031 4.984375 -1.9375 L 4.984375 -2.828125 L 3.203125 -2.828125 C 2.222656 -2.828125 1.734375 -2.5 1.734375 -1.84375 C 1.734375 -1.53125 1.859375 -1.28125 2.109375 -1.09375 C 2.359375 -0.90625 2.703125 -0.8125 3.140625 -0.8125 Z M 3.140625 -0.8125" transform="translate(190.6 297.986)"/></g></g></g><g fill="#FFF"><g><g><path d="M 7.171875 -6.359375 L 7.171875 -0.859375 C 7.171875 0.242188 6.894531 1.0625 6.34375 1.59375 C 5.789062 2.132812 4.96875 2.40625 3.875 2.40625 C 3.269531 2.40625 2.695312 2.320312 2.15625 2.15625 C 1.613281 1.988281 1.175781 1.753906 0.84375 1.453125 L 1.390625 0.5625 C 1.691406 0.820312 2.054688 1.023438 2.484375 1.171875 C 2.921875 1.316406 3.375 1.390625 3.84375 1.390625 C 4.582031 1.390625 5.128906 1.210938 5.484375 0.859375 C 5.847656 0.515625 6.03125 -0.0195312 6.03125 -0.75 L 6.03125 -1.25 C 5.75 -0.914062 5.410156 -0.664062 5.015625 -0.5 C 4.617188 -0.34375 4.191406 -0.265625 3.734375 -0.265625 C 3.117188 -0.265625 2.566406 -0.394531 2.078125 -0.65625 C 1.585938 -0.914062 1.203125 -1.28125 0.921875 -1.75 C 0.640625 -2.21875 0.5 -2.75 0.5 -3.34375 C 0.5 -3.945312 0.640625 -4.484375 0.921875 -4.953125 C 1.203125 -5.421875 1.585938 -5.78125 2.078125 -6.03125 C 2.566406 -6.289062 3.117188 -6.421875 3.734375 -6.421875 C 4.210938 -6.421875 4.65625 -6.332031 5.0625 -6.15625 C 5.476562 -5.976562 5.816406 -5.71875 6.078125 -5.375 L 6.078125 -6.359375 Z M 3.859375 -1.265625 C 4.273438 -1.265625 4.648438 -1.351562 4.984375 -1.53125 C 5.316406 -1.707031 5.578125 -1.953125 5.765625 -2.265625 C 5.953125 -2.585938 6.046875 -2.945312 6.046875 -3.34375 C 6.046875 -3.957031 5.84375 -4.453125 5.4375 -4.828125 C 5.03125 -5.210938 4.503906 -5.40625 3.859375 -5.40625 C 3.210938 -5.40625 2.6875 -5.210938 2.28125 -4.828125 C 1.875 -4.453125 1.671875 -3.957031 1.671875 -3.34375 C 1.671875 -2.945312 1.765625 -2.585938 1.953125 -2.265625 C 2.140625 -1.953125 2.398438 -1.707031 2.734375 -1.53125 C 3.066406 -1.351562 3.441406 -1.265625 3.859375 -1.265625 Z M 3.859375 -1.265625" transform="translate(199.313 297.986)"/></g></g></g><g fill="#FFF"><g><g><path d="M 6.84375 -3.140625 C 6.84375 -3.054688 6.832031 -2.941406 6.8125 -2.796875 L 1.65625 -2.796875 C 1.726562 -2.234375 1.972656 -1.78125 2.390625 -1.4375 C 2.816406 -1.101562 3.335938 -0.9375 3.953125 -0.9375 C 4.710938 -0.9375 5.328125 -1.191406 5.796875 -1.703125 L 6.4375 -0.953125 C 6.144531 -0.617188 5.785156 -0.363281 5.359375 -0.1875 C 4.929688 -0.0078125 4.453125 0.078125 3.921875 0.078125 C 3.253906 0.078125 2.660156 -0.0546875 2.140625 -0.328125 C 1.617188 -0.609375 1.210938 -1 0.921875 -1.5 C 0.640625 -2 0.5 -2.5625 0.5 -3.1875 C 0.5 -3.800781 0.632812 -4.351562 0.90625 -4.84375 C 1.1875 -5.34375 1.566406 -5.726562 2.046875 -6 C 2.535156 -6.28125 3.085938 -6.421875 3.703125 -6.421875 C 4.304688 -6.421875 4.84375 -6.28125 5.3125 -6 C 5.789062 -5.726562 6.164062 -5.34375 6.4375 -4.84375 C 6.707031 -4.351562 6.84375 -3.785156 6.84375 -3.140625 Z M 3.703125 -5.453125 C 3.148438 -5.453125 2.6875 -5.28125 2.3125 -4.9375 C 1.9375 -4.601562 1.71875 -4.164062 1.65625 -3.625 L 5.734375 -3.625 C 5.671875 -4.15625 5.453125 -4.59375 5.078125 -4.9375 C 4.710938 -5.28125 4.253906 -5.453125 3.703125 -5.453125 Z M 3.703125 -5.453125" transform="translate(209.129 297.986)"/></g></g></g><g fill="#FFF"><g><g><path d="M 9.046875 -6.421875 C 9.847656 -6.421875 10.484375 -6.1875 10.953125 -5.71875 C 11.421875 -5.257812 11.65625 -4.570312 11.65625 -3.65625 L 11.65625 0 L 10.5 0 L 10.5 -3.53125 C 10.5 -4.144531 10.351562 -4.609375 10.0625 -4.921875 C 9.78125 -5.234375 9.378906 -5.390625 8.859375 -5.390625 C 8.273438 -5.390625 7.8125 -5.207031 7.46875 -4.84375 C 7.125 -4.476562 6.953125 -3.957031 6.953125 -3.28125 L 6.953125 0 L 5.796875 0 L 5.796875 -3.53125 C 5.796875 -4.144531 5.648438 -4.609375 5.359375 -4.921875 C 5.078125 -5.234375 4.675781 -5.390625 4.15625 -5.390625 C 3.570312 -5.390625 3.109375 -5.207031 2.765625 -4.84375 C 2.421875 -4.476562 2.25 -3.957031 2.25 -3.28125 L 2.25 0 L 1.09375 0 L 1.09375 -6.359375 L 2.203125 -6.359375 L 2.203125 -5.40625 C 2.429688 -5.738281 2.734375 -5.988281 3.109375 -6.15625 C 3.484375 -6.332031 3.910156 -6.421875 4.390625 -6.421875 C 4.890625 -6.421875 5.328125 -6.316406 5.703125 -6.109375 C 6.085938 -5.910156 6.382812 -5.625 6.59375 -5.25 C 6.832031 -5.613281 7.164062 -5.898438 7.59375 -6.109375 C 8.03125 -6.316406 8.515625 -6.421875 9.046875 -6.421875 Z M 9.046875 -6.421875" transform="translate(218.009 297.986)"/></g></g></g><g fill="#FFF"><g><g><path d="M 6.84375 -3.140625 C 6.84375 -3.054688 6.832031 -2.941406 6.8125 -2.796875 L 1.65625 -2.796875 C 1.726562 -2.234375 1.972656 -1.78125 2.390625 -1.4375 C 2.816406 -1.101562 3.335938 -0.9375 3.953125 -0.9375 C 4.710938 -0.9375 5.328125 -1.191406 5.796875 -1.703125 L 6.4375 -0.953125 C 6.144531 -0.617188 5.785156 -0.363281 5.359375 -0.1875 C 4.929688 -0.0078125 4.453125 0.078125 3.921875 0.078125 C 3.253906 0.078125 2.660156 -0.0546875 2.140625 -0.328125 C 1.617188 -0.609375 1.210938 -1 0.921875 -1.5 C 0.640625 -2 0.5 -2.5625 0.5 -3.1875 C 0.5 -3.800781 0.632812 -4.351562 0.90625 -4.84375 C 1.1875 -5.34375 1.566406 -5.726562 2.046875 -6 C 2.535156 -6.28125 3.085938 -6.421875 3.703125 -6.421875 C 4.304688 -6.421875 4.84375 -6.28125 5.3125 -6 C 5.789062 -5.726562 6.164062 -5.34375 6.4375 -4.84375 C 6.707031 -4.351562 6.84375 -3.785156 6.84375 -3.140625 Z M 3.703125 -5.453125 C 3.148438 -5.453125 2.6875 -5.28125 2.3125 -4.9375 C 1.9375 -4.601562 1.71875 -4.164062 1.65625 -3.625 L 5.734375 -3.625 C 5.671875 -4.15625 5.453125 -4.59375 5.078125 -4.9375 C 4.710938 -5.28125 4.253906 -5.453125 3.703125 -5.453125 Z M 3.703125 -5.453125" transform="translate(232.229 297.986)"/></g></g></g><g fill="#FFF"><g><g><path d="M 4.484375 -6.421875 C 5.296875 -6.421875 5.9375 -6.1875 6.40625 -5.71875 C 6.882812 -5.25 7.125 -4.5625 7.125 -3.65625 L 7.125 0 L 5.96875 0 L 5.96875 -3.53125 C 5.96875 -4.144531 5.820312 -4.609375 5.53125 -4.921875 C 5.238281 -5.234375 4.816406 -5.390625 4.265625 -5.390625 C 3.640625 -5.390625 3.144531 -5.207031 2.78125 -4.84375 C 2.425781 -4.476562 2.25 -3.957031 2.25 -3.28125 L 2.25 0 L 1.09375 0 L 1.09375 -6.359375 L 2.203125 -6.359375 L 2.203125 -5.40625 C 2.429688 -5.726562 2.742188 -5.976562 3.140625 -6.15625 C 3.535156 -6.332031 3.984375 -6.421875 4.484375 -6.421875 Z M 4.484375 -6.421875" transform="translate(241.109 297.986)"/></g></g></g><g fill="#FFF"><g><g><path d="M 4.671875 -0.375 C 4.503906 -0.226562 4.296875 -0.113281 4.046875 -0.03125 C 3.796875 0.0390625 3.539062 0.078125 3.28125 0.078125 C 2.632812 0.078125 2.132812 -0.09375 1.78125 -0.4375 C 1.4375 -0.78125 1.265625 -1.273438 1.265625 -1.921875 L 1.265625 -5.40625 L 0.1875 -5.40625 L 0.1875 -6.359375 L 1.265625 -6.359375 L 1.265625 -7.75 L 2.40625 -7.75 L 2.40625 -6.359375 L 4.234375 -6.359375 L 4.234375 -5.40625 L 2.40625 -5.40625 L 2.40625 -1.96875 C 2.40625 -1.625 2.488281 -1.359375 2.65625 -1.171875 C 2.832031 -0.992188 3.082031 -0.90625 3.40625 -0.90625 C 3.757812 -0.90625 4.0625 -1.003906 4.3125 -1.203125 Z M 4.671875 -0.375" transform="translate(250.817 297.986)"/></g></g></g><g fill="#FFF"><g><g><path d="M 3.703125 0.09375 C 3.078125 0.09375 2.46875 0 1.875 -0.1875 C 1.289062 -0.382812 0.828125 -0.640625 0.484375 -0.953125 L 0.9375 -1.890625 C 1.257812 -1.609375 1.671875 -1.375 2.171875 -1.1875 C 2.671875 -1.007812 3.179688 -0.921875 3.703125 -0.921875 C 4.398438 -0.921875 4.921875 -1.035156 5.265625 -1.265625 C 5.609375 -1.503906 5.78125 -1.820312 5.78125 -2.21875 C 5.78125 -2.507812 5.6875 -2.742188 5.5 -2.921875 C 5.3125 -3.097656 5.078125 -3.234375 4.796875 -3.328125 C 4.523438 -3.429688 4.140625 -3.539062 3.640625 -3.65625 C 3.003906 -3.8125 2.492188 -3.960938 2.109375 -4.109375 C 1.722656 -4.265625 1.390625 -4.5 1.109375 -4.8125 C 0.835938 -5.132812 0.703125 -5.5625 0.703125 -6.09375 C 0.703125 -6.539062 0.816406 -6.941406 1.046875 -7.296875 C 1.285156 -7.660156 1.644531 -7.953125 2.125 -8.171875 C 2.601562 -8.390625 3.195312 -8.5 3.90625 -8.5 C 4.40625 -8.5 4.894531 -8.429688 5.375 -8.296875 C 5.851562 -8.171875 6.265625 -7.988281 6.609375 -7.75 L 6.21875 -6.796875 C 5.863281 -7.015625 5.484375 -7.179688 5.078125 -7.296875 C 4.679688 -7.410156 4.289062 -7.46875 3.90625 -7.46875 C 3.226562 -7.46875 2.71875 -7.34375 2.375 -7.09375 C 2.039062 -6.851562 1.875 -6.535156 1.875 -6.140625 C 1.875 -5.859375 1.96875 -5.625 2.15625 -5.4375 C 2.351562 -5.257812 2.59375 -5.117188 2.875 -5.015625 C 3.15625 -4.921875 3.539062 -4.816406 4.03125 -4.703125 C 4.664062 -4.546875 5.171875 -4.390625 5.546875 -4.234375 C 5.929688 -4.085938 6.257812 -3.859375 6.53125 -3.546875 C 6.8125 -3.234375 6.953125 -2.816406 6.953125 -2.296875 C 6.953125 -1.847656 6.832031 -1.441406 6.59375 -1.078125 C 6.351562 -0.722656 5.988281 -0.4375 5.5 -0.21875 C 5.019531 -0.0078125 4.421875 0.09375 3.703125 0.09375 Z M 3.703125 0.09375" transform="translate(262.085 297.986)"/></g></g></g><g fill="#FFF"><g><g><path d="M 6.71875 -6.359375 L 3.640625 0.640625 C 3.367188 1.285156 3.050781 1.738281 2.6875 2 C 2.320312 2.269531 1.882812 2.40625 1.375 2.40625 C 1.0625 2.40625 0.757812 2.351562 0.46875 2.25 C 0.175781 2.144531 -0.0664062 2 -0.265625 1.8125 L 0.234375 0.953125 C 0.554688 1.265625 0.9375 1.421875 1.375 1.421875 C 1.644531 1.421875 1.875 1.34375 2.0625 1.1875 C 2.257812 1.039062 2.429688 0.789062 2.578125 0.4375 L 2.78125 -0.015625 L -0.03125 -6.359375 L 1.171875 -6.359375 L 3.390625 -1.265625 L 5.59375 -6.359375 Z M 6.71875 -6.359375" transform="translate(271.073 297.986)"/></g></g></g><g fill="#FFF"><g><g><path d="M 2.921875 0.078125 C 2.398438 0.078125 1.898438 0.0078125 1.421875 -0.125 C 0.941406 -0.269531 0.5625 -0.453125 0.28125 -0.671875 L 0.765625 -1.578125 C 1.046875 -1.378906 1.382812 -1.21875 1.78125 -1.09375 C 2.1875 -0.976562 2.59375 -0.921875 3 -0.921875 C 4.007812 -0.921875 4.515625 -1.207031 4.515625 -1.78125 C 4.515625 -1.976562 4.445312 -2.128906 4.3125 -2.234375 C 4.175781 -2.347656 4.003906 -2.429688 3.796875 -2.484375 C 3.585938 -2.535156 3.296875 -2.59375 2.921875 -2.65625 C 2.410156 -2.738281 1.992188 -2.832031 1.671875 -2.9375 C 1.347656 -3.039062 1.066406 -3.21875 0.828125 -3.46875 C 0.597656 -3.71875 0.484375 -4.066406 0.484375 -4.515625 C 0.484375 -5.085938 0.722656 -5.546875 1.203125 -5.890625 C 1.691406 -6.242188 2.335938 -6.421875 3.140625 -6.421875 C 3.566406 -6.421875 3.988281 -6.367188 4.40625 -6.265625 C 4.832031 -6.160156 5.179688 -6.019531 5.453125 -5.84375 L 4.96875 -4.9375 C 4.445312 -5.269531 3.832031 -5.4375 3.125 -5.4375 C 2.644531 -5.4375 2.273438 -5.351562 2.015625 -5.1875 C 1.753906 -5.03125 1.625 -4.820312 1.625 -4.5625 C 1.625 -4.351562 1.695312 -4.1875 1.84375 -4.0625 C 1.988281 -3.945312 2.164062 -3.859375 2.375 -3.796875 C 2.59375 -3.742188 2.894531 -3.679688 3.28125 -3.609375 C 3.789062 -3.523438 4.203125 -3.429688 4.515625 -3.328125 C 4.828125 -3.234375 5.09375 -3.0625 5.3125 -2.8125 C 5.539062 -2.570312 5.65625 -2.238281 5.65625 -1.8125 C 5.65625 -1.238281 5.410156 -0.78125 4.921875 -0.4375 C 4.429688 -0.09375 3.765625 0.078125 2.921875 0.078125 Z M 2.921875 0.078125" transform="translate(279.317 297.986)"/></g></g></g><g fill="#FFF"><g><g><path d="M 4.671875 -0.375 C 4.503906 -0.226562 4.296875 -0.113281 4.046875 -0.03125 C 3.796875 0.0390625 3.539062 0.078125 3.28125 0.078125 C 2.632812 0.078125 2.132812 -0.09375 1.78125 -0.4375 C 1.4375 -0.78125 1.265625 -1.273438 1.265625 -1.921875 L 1.265625 -5.40625 L 0.1875 -5.40625 L 0.1875 -6.359375 L 1.265625 -6.359375 L 1.265625 -7.75 L 2.40625 -7.75 L 2.40625 -6.359375 L 4.234375 -6.359375 L 4.234375 -5.40625 L 2.40625 -5.40625 L 2.40625 -1.96875 C 2.40625 -1.625 2.488281 -1.359375 2.65625 -1.171875 C 2.832031 -0.992188 3.082031 -0.90625 3.40625 -0.90625 C 3.757812 -0.90625 4.0625 -1.003906 4.3125 -1.203125 Z M 4.671875 -0.375" transform="translate(286.865 297.986)"/></g></g></g><g fill="#FFF"><g><g><path d="M 6.84375 -3.140625 C 6.84375 -3.054688 6.832031 -2.941406 6.8125 -2.796875 L 1.65625 -2.796875 C 1.726562 -2.234375 1.972656 -1.78125 2.390625 -1.4375 C 2.816406 -1.101562 3.335938 -0.9375 3.953125 -0.9375 C 4.710938 -0.9375 5.328125 -1.191406 5.796875 -1.703125 L 6.4375 -0.953125 C 6.144531 -0.617188 5.785156 -0.363281 5.359375 -0.1875 C 4.929688 -0.0078125 4.453125 0.078125 3.921875 0.078125 C 3.253906 0.078125 2.660156 -0.0546875 2.140625 -0.328125 C 1.617188 -0.609375 1.210938 -1 0.921875 -1.5 C 0.640625 -2 0.5 -2.5625 0.5 -3.1875 C 0.5 -3.800781 0.632812 -4.351562 0.90625 -4.84375 C 1.1875 -5.34375 1.566406 -5.726562 2.046875 -6 C 2.535156 -6.28125 3.085938 -6.421875 3.703125 -6.421875 C 4.304688 -6.421875 4.84375 -6.28125 5.3125 -6 C 5.789062 -5.726562 6.164062 -5.34375 6.4375 -4.84375 C 6.707031 -4.351562 6.84375 -3.785156 6.84375 -3.140625 Z M 3.703125 -5.453125 C 3.148438 -5.453125 2.6875 -5.28125 2.3125 -4.9375 C 1.9375 -4.601562 1.71875 -4.164062 1.65625 -3.625 L 5.734375 -3.625 C 5.671875 -4.15625 5.453125 -4.59375 5.078125 -4.9375 C 4.710938 -5.28125 4.253906 -5.453125 3.703125 -5.453125 Z M 3.703125 -5.453125" transform="translate(293.369 297.986)"/></g></g></g><g fill="#FFF"><g><g><path d="M 9.046875 -6.421875 C 9.847656 -6.421875 10.484375 -6.1875 10.953125 -5.71875 C 11.421875 -5.257812 11.65625 -4.570312 11.65625 -3.65625 L 11.65625 0 L 10.5 0 L 10.5 -3.53125 C 10.5 -4.144531 10.351562 -4.609375 10.0625 -4.921875 C 9.78125 -5.234375 9.378906 -5.390625 8.859375 -5.390625 C 8.273438 -5.390625 7.8125 -5.207031 7.46875 -4.84375 C 7.125 -4.476562 6.953125 -3.957031 6.953125 -3.28125 L 6.953125 0 L 5.796875 0 L 5.796875 -3.53125 C 5.796875 -4.144531 5.648438 -4.609375 5.359375 -4.921875 C 5.078125 -5.234375 4.675781 -5.390625 4.15625 -5.390625 C 3.570312 -5.390625 3.109375 -5.207031 2.765625 -4.84375 C 2.421875 -4.476562 2.25 -3.957031 2.25 -3.28125 L 2.25 0 L 1.09375 0 L 1.09375 -6.359375 L 2.203125 -6.359375 L 2.203125 -5.40625 C 2.429688 -5.738281 2.734375 -5.988281 3.109375 -6.15625 C 3.484375 -6.332031 3.910156 -6.421875 4.390625 -6.421875 C 4.890625 -6.421875 5.328125 -6.316406 5.703125 -6.109375 C 6.085938 -5.910156 6.382812 -5.625 6.59375 -5.25 C 6.832031 -5.613281 7.164062 -5.898438 7.59375 -6.109375 C 8.03125 -6.316406 8.515625 -6.421875 9.046875 -6.421875 Z M 9.046875 -6.421875" transform="translate(302.249 297.986)"/></g></g></g></svg>