<svg xmlns="http://www.w3.org/2000/svg" width="375" viewBox="0 0 375 375" height="375" version="1.0"><defs><clipPath id="a"><path d="M 124.871094 55.191406 L 250 55.191406 L 250 187 L 124.871094 187 Z M 124.871094 55.191406"/></clipPath><clipPath id="b"><path d="M 180 149 L 237 149 L 237 202.941406 L 180 202.941406 Z M 180 149"/></clipPath></defs><g fill="#FFF"><g><g><path d="M 2.234375 0 L 2.234375 -19.109375 L 8.828125 -19.109375 L 8.828125 -17.09375 L 8.90625 -17.09375 C 10.613281 -18.8125 12.4375 -19.671875 14.375 -19.671875 C 15.769531 -19.671875 17.070312 -19.382812 18.28125 -18.8125 C 19.5 -18.238281 20.421875 -17.359375 21.046875 -16.171875 C 22.984375 -18.503906 25.09375 -19.671875 27.375 -19.671875 C 29.414062 -19.671875 31.164062 -19.097656 32.625 -17.953125 C 34.09375 -16.804688 34.828125 -15.019531 34.828125 -12.59375 L 34.828125 0 L 28.234375 0 L 28.234375 -10.796875 C 28.234375 -11.816406 27.953125 -12.664062 27.390625 -13.34375 C 26.835938 -14.03125 26.003906 -14.375 24.890625 -14.375 C 23.921875 -14.375 23.179688 -14.082031 22.671875 -13.5 C 22.160156 -12.914062 21.878906 -12.21875 21.828125 -11.40625 L 21.828125 0 L 15.234375 0 L 15.234375 -10.796875 C 15.234375 -11.816406 14.953125 -12.664062 14.390625 -13.34375 C 13.835938 -14.03125 13 -14.375 11.875 -14.375 C 10.863281 -14.375 10.101562 -14.054688 9.59375 -13.421875 C 9.082031 -12.796875 8.828125 -12.046875 8.828125 -11.171875 L 8.828125 0 Z M 2.234375 0" transform="translate(55.459 267.546)"/></g></g></g><g fill="#FFF"><g><g><path d="M 21.5625 -8.640625 L 7.703125 -8.640625 C 7.703125 -7.296875 8.132812 -6.300781 9 -5.65625 C 9.875 -5.007812 10.820312 -4.6875 11.84375 -4.6875 C 12.914062 -4.6875 13.757812 -4.828125 14.375 -5.109375 C 15 -5.398438 15.707031 -5.96875 16.5 -6.8125 L 21.265625 -4.4375 C 19.285156 -1.101562 15.984375 0.5625 11.359375 0.5625 C 8.484375 0.5625 6.015625 -0.421875 3.953125 -2.390625 C 1.890625 -4.367188 0.859375 -6.75 0.859375 -9.53125 C 0.859375 -12.3125 1.890625 -14.695312 3.953125 -16.6875 C 6.015625 -18.675781 8.484375 -19.671875 11.359375 -19.671875 C 14.390625 -19.671875 16.851562 -18.796875 18.75 -17.046875 C 20.65625 -15.296875 21.609375 -12.789062 21.609375 -9.53125 C 21.609375 -9.082031 21.59375 -8.785156 21.5625 -8.640625 Z M 7.890625 -12.296875 L 15.15625 -12.296875 C 15.007812 -13.285156 14.617188 -14.046875 13.984375 -14.578125 C 13.347656 -15.117188 12.535156 -15.390625 11.546875 -15.390625 C 10.453125 -15.390625 9.582031 -15.101562 8.9375 -14.53125 C 8.289062 -13.957031 7.941406 -13.210938 7.890625 -12.296875 Z M 7.890625 -12.296875" transform="translate(94.042 267.546)"/></g></g></g><g fill="#FFF"><g><g><path d="M 3.53125 -2.359375 C 1.75 -4.316406 0.859375 -6.707031 0.859375 -9.53125 C 0.859375 -12.363281 1.75 -14.757812 3.53125 -16.71875 C 5.320312 -18.6875 7.597656 -19.671875 10.359375 -19.671875 C 12.890625 -19.671875 14.972656 -18.875 16.609375 -17.28125 L 16.609375 -32.03125 L 23.203125 -32.03125 L 23.203125 0 L 16.6875 0 L 16.6875 -2.15625 L 16.609375 -2.15625 C 14.972656 -0.34375 12.890625 0.5625 10.359375 0.5625 C 7.597656 0.5625 5.320312 -0.410156 3.53125 -2.359375 Z M 9.140625 -12.78125 C 8.285156 -11.9375 7.859375 -10.851562 7.859375 -9.53125 C 7.859375 -8.21875 8.265625 -7.144531 9.078125 -6.3125 C 9.898438 -5.476562 10.984375 -5.0625 12.328125 -5.0625 C 13.617188 -5.0625 14.679688 -5.484375 15.515625 -6.328125 C 16.347656 -7.171875 16.765625 -8.238281 16.765625 -9.53125 C 16.765625 -10.851562 16.332031 -11.9375 15.46875 -12.78125 C 14.613281 -13.625 13.566406 -14.046875 12.328125 -14.046875 C 11.066406 -14.046875 10.003906 -13.625 9.140625 -12.78125 Z M 9.140625 -12.78125" transform="translate(118.399 267.546)"/></g></g></g><g fill="#FFF"><g><g><path d="M 2.859375 -29.765625 C 3.628906 -30.535156 4.546875 -30.921875 5.609375 -30.921875 C 6.679688 -30.921875 7.601562 -30.535156 8.375 -29.765625 C 9.144531 -28.992188 9.53125 -28.070312 9.53125 -27 C 9.53125 -25.9375 9.144531 -25.019531 8.375 -24.25 C 7.601562 -23.476562 6.679688 -23.09375 5.609375 -23.09375 C 4.546875 -23.09375 3.628906 -23.476562 2.859375 -24.25 C 2.097656 -25.019531 1.71875 -25.9375 1.71875 -27 C 1.71875 -28.070312 2.097656 -28.992188 2.859375 -29.765625 Z M 2.234375 -19.109375 L 2.234375 0 L 8.828125 0 L 8.828125 -19.109375 Z M 2.234375 -19.109375" transform="translate(145.735 267.546)"/></g></g></g><g fill="#FFF"><g><g><path d="M 12.40625 -14.265625 C 11.164062 -14.265625 10.097656 -13.804688 9.203125 -12.890625 C 8.304688 -11.972656 7.859375 -10.867188 7.859375 -9.578125 C 7.859375 -8.253906 8.304688 -7.132812 9.203125 -6.21875 C 10.097656 -5.300781 11.164062 -4.84375 12.40625 -4.84375 C 13 -4.84375 13.5625 -4.914062 14.09375 -5.0625 C 14.632812 -5.21875 15.023438 -5.367188 15.265625 -5.515625 L 15.609375 -5.734375 L 17.84375 -1.15625 C 17.664062 -1.03125 17.421875 -0.875 17.109375 -0.6875 C 16.804688 -0.5 16.097656 -0.242188 14.984375 0.078125 C 13.878906 0.398438 12.695312 0.5625 11.4375 0.5625 C 8.625 0.5625 6.15625 -0.421875 4.03125 -2.390625 C 1.914062 -4.367188 0.859375 -6.738281 0.859375 -9.5 C 0.859375 -12.28125 1.914062 -14.671875 4.03125 -16.671875 C 6.15625 -18.671875 8.625 -19.671875 11.4375 -19.671875 C 12.695312 -19.671875 13.859375 -19.519531 14.921875 -19.21875 C 15.992188 -18.925781 16.753906 -18.628906 17.203125 -18.328125 L 17.84375 -17.875 L 15.609375 -13.375 C 14.785156 -13.96875 13.71875 -14.265625 12.40625 -14.265625 Z M 12.40625 -14.265625" transform="translate(158.882 267.546)"/></g></g></g><g fill="#FFF"><g><g><path d="M 4.03125 -2.265625 C 1.914062 -4.160156 0.859375 -6.582031 0.859375 -9.53125 C 0.859375 -12.488281 1.960938 -14.914062 4.171875 -16.8125 C 6.378906 -18.71875 9.109375 -19.671875 12.359375 -19.671875 C 15.566406 -19.671875 18.269531 -18.710938 20.46875 -16.796875 C 22.664062 -14.890625 23.765625 -12.46875 23.765625 -9.53125 C 23.765625 -6.601562 22.691406 -4.1875 20.546875 -2.28125 C 18.398438 -0.382812 15.671875 0.5625 12.359375 0.5625 C 8.929688 0.5625 6.15625 -0.378906 4.03125 -2.265625 Z M 9.140625 -12.78125 C 8.285156 -11.9375 7.859375 -10.851562 7.859375 -9.53125 C 7.859375 -8.21875 8.265625 -7.144531 9.078125 -6.3125 C 9.898438 -5.476562 10.984375 -5.0625 12.328125 -5.0625 C 13.617188 -5.0625 14.679688 -5.484375 15.515625 -6.328125 C 16.347656 -7.171875 16.765625 -8.238281 16.765625 -9.53125 C 16.765625 -10.851562 16.332031 -11.9375 15.46875 -12.78125 C 14.613281 -13.625 13.566406 -14.046875 12.328125 -14.046875 C 11.066406 -14.046875 10.003906 -13.625 9.140625 -12.78125 Z M 9.140625 -12.78125" transform="translate(179.068 267.546)"/></g></g></g><g fill="#FFF"><g><g><path d="M 2.234375 0 L 2.234375 -19.109375 L 8.828125 -19.109375 L 8.828125 -17.09375 L 8.90625 -17.09375 C 10.613281 -18.8125 12.4375 -19.671875 14.375 -19.671875 C 15.769531 -19.671875 17.070312 -19.382812 18.28125 -18.8125 C 19.5 -18.238281 20.421875 -17.359375 21.046875 -16.171875 C 22.984375 -18.503906 25.09375 -19.671875 27.375 -19.671875 C 29.414062 -19.671875 31.164062 -19.097656 32.625 -17.953125 C 34.09375 -16.804688 34.828125 -15.019531 34.828125 -12.59375 L 34.828125 0 L 28.234375 0 L 28.234375 -10.796875 C 28.234375 -11.816406 27.953125 -12.664062 27.390625 -13.34375 C 26.835938 -14.03125 26.003906 -14.375 24.890625 -14.375 C 23.921875 -14.375 23.179688 -14.082031 22.671875 -13.5 C 22.160156 -12.914062 21.878906 -12.21875 21.828125 -11.40625 L 21.828125 0 L 15.234375 0 L 15.234375 -10.796875 C 15.234375 -11.816406 14.953125 -12.664062 14.390625 -13.34375 C 13.835938 -14.03125 13 -14.375 11.875 -14.375 C 10.863281 -14.375 10.101562 -14.054688 9.59375 -13.421875 C 9.082031 -12.796875 8.828125 -12.046875 8.828125 -11.171875 L 8.828125 0 Z M 2.234375 0" transform="translate(205.585 267.546)"/></g></g></g><g fill="#FFF"><g><g><path d="M 3.53125 -2.359375 C 1.75 -4.316406 0.859375 -6.707031 0.859375 -9.53125 C 0.859375 -12.363281 1.75 -14.757812 3.53125 -16.71875 C 5.320312 -18.6875 7.597656 -19.671875 10.359375 -19.671875 C 12.890625 -19.671875 14.972656 -18.875 16.609375 -17.28125 L 16.609375 -19.109375 L 23.203125 -19.109375 L 23.203125 0 L 16.6875 0 L 16.6875 -2.15625 L 16.609375 -2.15625 C 14.972656 -0.34375 12.890625 0.5625 10.359375 0.5625 C 7.597656 0.5625 5.320312 -0.410156 3.53125 -2.359375 Z M 9.140625 -12.78125 C 8.285156 -11.9375 7.859375 -10.851562 7.859375 -9.53125 C 7.859375 -8.21875 8.265625 -7.144531 9.078125 -6.3125 C 9.898438 -5.476562 10.984375 -5.0625 12.328125 -5.0625 C 13.617188 -5.0625 14.679688 -5.484375 15.515625 -6.328125 C 16.347656 -7.171875 16.765625 -8.238281 16.765625 -9.53125 C 16.765625 -10.851562 16.332031 -11.9375 15.46875 -12.78125 C 14.613281 -13.625 13.566406 -14.046875 12.328125 -14.046875 C 11.066406 -14.046875 10.003906 -13.625 9.140625 -12.78125 Z M 9.140625 -12.78125" transform="translate(244.168 267.546)"/></g></g></g><g fill="#FFF"><g><g><path d="M 3.359375 -19.109375 L 3.359375 -26.21875 L 9.953125 -26.21875 L 9.953125 -19.109375 L 13.96875 -19.109375 L 13.96875 -14.078125 L 9.953125 -14.078125 L 9.953125 -8.015625 C 9.953125 -6.242188 10.445312 -5.359375 11.4375 -5.359375 C 11.6875 -5.359375 11.945312 -5.40625 12.21875 -5.5 C 12.488281 -5.601562 12.695312 -5.707031 12.84375 -5.8125 L 13.078125 -5.953125 L 14.71875 -0.640625 C 13.300781 0.160156 11.6875 0.5625 9.875 0.5625 C 8.632812 0.5625 7.566406 0.34375 6.671875 -0.09375 C 5.773438 -0.53125 5.097656 -1.113281 4.640625 -1.84375 C 4.179688 -2.570312 3.851562 -3.335938 3.65625 -4.140625 C 3.457031 -4.953125 3.359375 -5.820312 3.359375 -6.75 L 3.359375 -14.078125 L 0.59375 -14.078125 L 0.59375 -19.109375 Z M 3.359375 -19.109375" transform="translate(271.504 267.546)"/></g></g></g><g fill="#FFF"><g><g><path d="M 2.859375 -29.765625 C 3.628906 -30.535156 4.546875 -30.921875 5.609375 -30.921875 C 6.679688 -30.921875 7.601562 -30.535156 8.375 -29.765625 C 9.144531 -28.992188 9.53125 -28.070312 9.53125 -27 C 9.53125 -25.9375 9.144531 -25.019531 8.375 -24.25 C 7.601562 -23.476562 6.679688 -23.09375 5.609375 -23.09375 C 4.546875 -23.09375 3.628906 -23.476562 2.859375 -24.25 C 2.097656 -25.019531 1.71875 -25.9375 1.71875 -27 C 1.71875 -28.070312 2.097656 -28.992188 2.859375 -29.765625 Z M 2.234375 -19.109375 L 2.234375 0 L 8.828125 0 L 8.828125 -19.109375 Z M 2.234375 -19.109375" transform="translate(288.114 267.546)"/></g></g></g><g fill="#FFF"><g><g><path d="M 12.40625 -14.265625 C 11.164062 -14.265625 10.097656 -13.804688 9.203125 -12.890625 C 8.304688 -11.972656 7.859375 -10.867188 7.859375 -9.578125 C 7.859375 -8.253906 8.304688 -7.132812 9.203125 -6.21875 C 10.097656 -5.300781 11.164062 -4.84375 12.40625 -4.84375 C 13 -4.84375 13.5625 -4.914062 14.09375 -5.0625 C 14.632812 -5.21875 15.023438 -5.367188 15.265625 -5.515625 L 15.609375 -5.734375 L 17.84375 -1.15625 C 17.664062 -1.03125 17.421875 -0.875 17.109375 -0.6875 C 16.804688 -0.5 16.097656 -0.242188 14.984375 0.078125 C 13.878906 0.398438 12.695312 0.5625 11.4375 0.5625 C 8.625 0.5625 6.15625 -0.421875 4.03125 -2.390625 C 1.914062 -4.367188 0.859375 -6.738281 0.859375 -9.5 C 0.859375 -12.28125 1.914062 -14.671875 4.03125 -16.671875 C 6.15625 -18.671875 8.625 -19.671875 11.4375 -19.671875 C 12.695312 -19.671875 13.859375 -19.519531 14.921875 -19.21875 C 15.992188 -18.925781 16.753906 -18.628906 17.203125 -18.328125 L 17.84375 -17.875 L 15.609375 -13.375 C 14.785156 -13.96875 13.71875 -14.265625 12.40625 -14.265625 Z M 12.40625 -14.265625" transform="translate(301.261 267.546)"/></g></g></g><g fill="#FFF"><g><g><path d="M 8.65625 -8.65625 L 8.65625 0 L 7.75 0 L 7.75 -4 L 2.328125 -4 L 2.328125 0 L 1.40625 0 L 1.40625 -8.65625 L 2.328125 -8.65625 L 2.328125 -4.796875 L 7.75 -4.796875 L 7.75 -8.65625 Z M 8.65625 -8.65625" transform="translate(100.298 291.481)"/></g></g></g><g fill="#FFF"><g><g><path d="M 5.203125 0.078125 C 4.335938 0.078125 3.554688 -0.113281 2.859375 -0.5 C 2.160156 -0.882812 1.613281 -1.410156 1.21875 -2.078125 C 0.832031 -2.742188 0.640625 -3.492188 0.640625 -4.328125 C 0.640625 -5.160156 0.832031 -5.910156 1.21875 -6.578125 C 1.613281 -7.253906 2.160156 -7.78125 2.859375 -8.15625 C 3.554688 -8.539062 4.335938 -8.734375 5.203125 -8.734375 C 6.054688 -8.734375 6.828125 -8.539062 7.515625 -8.15625 C 8.203125 -7.78125 8.742188 -7.253906 9.140625 -6.578125 C 9.535156 -5.910156 9.734375 -5.160156 9.734375 -4.328125 C 9.734375 -3.492188 9.535156 -2.738281 9.140625 -2.0625 C 8.742188 -1.394531 8.203125 -0.867188 7.515625 -0.484375 C 6.828125 -0.109375 6.054688 0.078125 5.203125 0.078125 Z M 5.203125 -0.75 C 5.878906 -0.75 6.492188 -0.898438 7.046875 -1.203125 C 7.609375 -1.515625 8.046875 -1.941406 8.359375 -2.484375 C 8.671875 -3.035156 8.828125 -3.648438 8.828125 -4.328125 C 8.828125 -5.003906 8.671875 -5.613281 8.359375 -6.15625 C 8.046875 -6.707031 7.609375 -7.140625 7.046875 -7.453125 C 6.492188 -7.765625 5.878906 -7.921875 5.203125 -7.921875 C 4.515625 -7.921875 3.890625 -7.765625 3.328125 -7.453125 C 2.773438 -7.140625 2.335938 -6.707031 2.015625 -6.15625 C 1.703125 -5.613281 1.546875 -5.003906 1.546875 -4.328125 C 1.546875 -3.648438 1.703125 -3.035156 2.015625 -2.484375 C 2.335938 -1.941406 2.773438 -1.515625 3.328125 -1.203125 C 3.890625 -0.898438 4.515625 -0.75 5.203125 -0.75 Z M 5.203125 -0.75" transform="translate(113.676 291.481)"/></g></g></g><g fill="#FFF"><g><g><path d="M 3.796875 0.078125 C 3.148438 0.078125 2.53125 -0.0234375 1.9375 -0.234375 C 1.351562 -0.441406 0.898438 -0.710938 0.578125 -1.046875 L 0.9375 -1.75 C 1.25 -1.4375 1.664062 -1.179688 2.1875 -0.984375 C 2.707031 -0.796875 3.242188 -0.703125 3.796875 -0.703125 C 4.578125 -0.703125 5.160156 -0.84375 5.546875 -1.125 C 5.929688 -1.414062 6.125 -1.785156 6.125 -2.234375 C 6.125 -2.585938 6.019531 -2.863281 5.8125 -3.0625 C 5.601562 -3.269531 5.34375 -3.429688 5.03125 -3.546875 C 4.726562 -3.660156 4.304688 -3.78125 3.765625 -3.90625 C 3.109375 -4.070312 2.585938 -4.226562 2.203125 -4.375 C 1.816406 -4.53125 1.484375 -4.765625 1.203125 -5.078125 C 0.929688 -5.398438 0.796875 -5.828125 0.796875 -6.359375 C 0.796875 -6.796875 0.910156 -7.191406 1.140625 -7.546875 C 1.367188 -7.910156 1.722656 -8.195312 2.203125 -8.40625 C 2.679688 -8.625 3.273438 -8.734375 3.984375 -8.734375 C 4.484375 -8.734375 4.96875 -8.664062 5.4375 -8.53125 C 5.914062 -8.394531 6.328125 -8.207031 6.671875 -7.96875 L 6.359375 -7.234375 C 5.992188 -7.472656 5.601562 -7.648438 5.1875 -7.765625 C 4.78125 -7.890625 4.378906 -7.953125 3.984375 -7.953125 C 3.222656 -7.953125 2.648438 -7.804688 2.265625 -7.515625 C 1.890625 -7.222656 1.703125 -6.847656 1.703125 -6.390625 C 1.703125 -6.035156 1.804688 -5.753906 2.015625 -5.546875 C 2.222656 -5.335938 2.484375 -5.175781 2.796875 -5.0625 C 3.117188 -4.957031 3.546875 -4.835938 4.078125 -4.703125 C 4.710938 -4.546875 5.226562 -4.390625 5.625 -4.234375 C 6.019531 -4.085938 6.351562 -3.859375 6.625 -3.546875 C 6.894531 -3.234375 7.03125 -2.816406 7.03125 -2.296875 C 7.03125 -1.859375 6.910156 -1.457031 6.671875 -1.09375 C 6.441406 -0.738281 6.082031 -0.453125 5.59375 -0.234375 C 5.101562 -0.0234375 4.503906 0.078125 3.796875 0.078125 Z M 3.796875 0.078125" transform="translate(127.376 291.481)"/></g></g></g><g fill="#FFF"><g><g><path d="M 4.65625 -8.65625 C 5.757812 -8.65625 6.625 -8.390625 7.25 -7.859375 C 7.875 -7.335938 8.1875 -6.613281 8.1875 -5.6875 C 8.1875 -4.769531 7.875 -4.046875 7.25 -3.515625 C 6.625 -2.992188 5.757812 -2.734375 4.65625 -2.734375 L 2.328125 -2.734375 L 2.328125 0 L 1.40625 0 L 1.40625 -8.65625 Z M 4.625 -3.546875 C 5.488281 -3.546875 6.144531 -3.734375 6.59375 -4.109375 C 7.050781 -4.484375 7.28125 -5.007812 7.28125 -5.6875 C 7.28125 -6.394531 7.050781 -6.9375 6.59375 -7.3125 C 6.144531 -7.6875 5.488281 -7.875 4.625 -7.875 L 2.328125 -7.875 L 2.328125 -3.546875 Z M 4.625 -3.546875" transform="translate(138.304 291.481)"/></g></g></g><g fill="#FFF"><g><g><path d="M 1.40625 -8.65625 L 2.328125 -8.65625 L 2.328125 0 L 1.40625 0 Z M 1.40625 -8.65625" transform="translate(150.506 291.481)"/></g></g></g><g fill="#FFF"><g><g><path d="M 3.09375 -7.875 L 0.046875 -7.875 L 0.046875 -8.65625 L 7.046875 -8.65625 L 7.046875 -7.875 L 4.015625 -7.875 L 4.015625 0 L 3.09375 0 Z M 3.09375 -7.875" transform="translate(157.561 291.481)"/></g></g></g><g fill="#FFF"><g><g><path d="M 6.84375 -2.3125 L 2.015625 -2.3125 L 0.984375 0 L 0.03125 0 L 3.984375 -8.65625 L 4.890625 -8.65625 L 8.84375 0 L 7.890625 0 Z M 6.515625 -3.0625 L 4.4375 -7.703125 L 2.34375 -3.0625 Z M 6.515625 -3.0625" transform="translate(167.982 291.481)"/></g></g></g><g fill="#FFF"><g><g><path d="M 1.40625 -8.65625 L 2.328125 -8.65625 L 2.328125 -0.796875 L 7.171875 -0.796875 L 7.171875 0 L 1.40625 0 Z M 1.40625 -8.65625" transform="translate(180.172 291.481)"/></g></g></g><g fill="#FFF"><g><g><path d="M 7.609375 0.140625 L 6.40625 -1.09375 C 5.675781 -0.3125 4.710938 0.078125 3.515625 0.078125 C 2.953125 0.078125 2.445312 -0.015625 2 -0.203125 C 1.5625 -0.390625 1.21875 -0.648438 0.96875 -0.984375 C 0.726562 -1.316406 0.609375 -1.695312 0.609375 -2.125 C 0.609375 -2.644531 0.769531 -3.109375 1.09375 -3.515625 C 1.425781 -3.929688 1.988281 -4.367188 2.78125 -4.828125 C 2.375 -5.253906 2.09375 -5.617188 1.9375 -5.921875 C 1.78125 -6.222656 1.703125 -6.539062 1.703125 -6.875 C 1.703125 -7.425781 1.898438 -7.867188 2.296875 -8.203125 C 2.691406 -8.546875 3.222656 -8.71875 3.890625 -8.71875 C 4.503906 -8.71875 4.992188 -8.566406 5.359375 -8.265625 C 5.722656 -7.960938 5.90625 -7.539062 5.90625 -7 C 5.90625 -6.570312 5.757812 -6.1875 5.46875 -5.84375 C 5.175781 -5.5 4.675781 -5.125 3.96875 -4.71875 L 6.34375 -2.265625 C 6.613281 -2.734375 6.8125 -3.289062 6.9375 -3.9375 L 7.640625 -3.71875 C 7.484375 -2.9375 7.226562 -2.269531 6.875 -1.71875 L 8.125 -0.453125 Z M 3.890625 -8.0625 C 3.460938 -8.0625 3.125 -7.953125 2.875 -7.734375 C 2.632812 -7.523438 2.515625 -7.242188 2.515625 -6.890625 C 2.515625 -6.640625 2.578125 -6.394531 2.703125 -6.15625 C 2.835938 -5.925781 3.097656 -5.613281 3.484375 -5.21875 C 4.117188 -5.582031 4.550781 -5.890625 4.78125 -6.140625 C 5.019531 -6.398438 5.140625 -6.679688 5.140625 -6.984375 C 5.140625 -7.316406 5.03125 -7.578125 4.8125 -7.765625 C 4.59375 -7.960938 4.285156 -8.0625 3.890625 -8.0625 Z M 3.5625 -0.65625 C 4.519531 -0.65625 5.296875 -0.984375 5.890625 -1.640625 L 3.28125 -4.3125 C 2.59375 -3.925781 2.117188 -3.578125 1.859375 -3.265625 C 1.597656 -2.953125 1.46875 -2.601562 1.46875 -2.21875 C 1.46875 -1.75 1.660156 -1.367188 2.046875 -1.078125 C 2.429688 -0.796875 2.9375 -0.65625 3.5625 -0.65625 Z M 3.5625 -0.65625" transform="translate(197.338 291.481)"/></g></g></g><g fill="#FFF"><g><g><path d="M 5.171875 0.078125 C 4.316406 0.078125 3.539062 -0.109375 2.84375 -0.484375 C 2.15625 -0.867188 1.613281 -1.394531 1.21875 -2.0625 C 0.832031 -2.738281 0.640625 -3.492188 0.640625 -4.328125 C 0.640625 -5.160156 0.832031 -5.910156 1.21875 -6.578125 C 1.613281 -7.253906 2.15625 -7.78125 2.84375 -8.15625 C 3.539062 -8.539062 4.320312 -8.734375 5.1875 -8.734375 C 5.832031 -8.734375 6.425781 -8.625 6.96875 -8.40625 C 7.507812 -8.195312 7.972656 -7.882812 8.359375 -7.46875 L 7.765625 -6.890625 C 7.085938 -7.578125 6.234375 -7.921875 5.203125 -7.921875 C 4.523438 -7.921875 3.90625 -7.765625 3.34375 -7.453125 C 2.78125 -7.140625 2.335938 -6.707031 2.015625 -6.15625 C 1.703125 -5.613281 1.546875 -5.003906 1.546875 -4.328125 C 1.546875 -3.648438 1.703125 -3.039062 2.015625 -2.5 C 2.335938 -1.957031 2.78125 -1.53125 3.34375 -1.21875 C 3.90625 -0.90625 4.523438 -0.75 5.203125 -0.75 C 6.242188 -0.75 7.097656 -1.09375 7.765625 -1.78125 L 8.359375 -1.203125 C 7.972656 -0.785156 7.503906 -0.46875 6.953125 -0.25 C 6.410156 -0.03125 5.816406 0.078125 5.171875 0.078125 Z M 5.171875 0.078125" transform="translate(215.493 291.481)"/></g></g></g><g fill="#FFF"><g><g><path d="M 1.40625 -8.65625 L 2.328125 -8.65625 L 2.328125 -0.796875 L 7.171875 -0.796875 L 7.171875 0 L 1.40625 0 Z M 1.40625 -8.65625" transform="translate(227.708 291.481)"/></g></g></g><g fill="#FFF"><g><g><path d="M 1.40625 -8.65625 L 2.328125 -8.65625 L 2.328125 0 L 1.40625 0 Z M 1.40625 -8.65625" transform="translate(238.314 291.481)"/></g></g></g><g fill="#FFF"><g><g><path d="M 8.65625 -8.65625 L 8.65625 0 L 7.890625 0 L 2.328125 -7.03125 L 2.328125 0 L 1.40625 0 L 1.40625 -8.65625 L 2.171875 -8.65625 L 7.75 -1.640625 L 7.75 -8.65625 Z M 8.65625 -8.65625" transform="translate(245.369 291.481)"/></g></g></g><g fill="#FFF"><g><g><path d="M 1.40625 -8.65625 L 2.328125 -8.65625 L 2.328125 0 L 1.40625 0 Z M 1.40625 -8.65625" transform="translate(258.747 291.481)"/></g></g></g><g fill="#FFF"><g><g><path d="M 5.171875 0.078125 C 4.316406 0.078125 3.539062 -0.109375 2.84375 -0.484375 C 2.15625 -0.867188 1.613281 -1.394531 1.21875 -2.0625 C 0.832031 -2.738281 0.640625 -3.492188 0.640625 -4.328125 C 0.640625 -5.160156 0.832031 -5.910156 1.21875 -6.578125 C 1.613281 -7.253906 2.15625 -7.78125 2.84375 -8.15625 C 3.539062 -8.539062 4.320312 -8.734375 5.1875 -8.734375 C 5.832031 -8.734375 6.425781 -8.625 6.96875 -8.40625 C 7.507812 -8.195312 7.972656 -7.882812 8.359375 -7.46875 L 7.765625 -6.890625 C 7.085938 -7.578125 6.234375 -7.921875 5.203125 -7.921875 C 4.523438 -7.921875 3.90625 -7.765625 3.34375 -7.453125 C 2.78125 -7.140625 2.335938 -6.707031 2.015625 -6.15625 C 1.703125 -5.613281 1.546875 -5.003906 1.546875 -4.328125 C 1.546875 -3.648438 1.703125 -3.039062 2.015625 -2.5 C 2.335938 -1.957031 2.78125 -1.53125 3.34375 -1.21875 C 3.90625 -0.90625 4.523438 -0.75 5.203125 -0.75 C 6.242188 -0.75 7.097656 -1.09375 7.765625 -1.78125 L 8.359375 -1.203125 C 7.972656 -0.785156 7.503906 -0.46875 6.953125 -0.25 C 6.410156 -0.03125 5.816406 0.078125 5.171875 0.078125 Z M 5.171875 0.078125" transform="translate(265.802 291.481)"/></g></g></g><g fill="#FFF"><g><g><path d="M 10.40625 -8.65625 L 10.40625 0 L 9.53125 0 L 9.53125 -6.9375 L 6.125 -1.09375 L 5.6875 -1.09375 L 2.296875 -6.890625 L 2.296875 0 L 1.40625 0 L 1.40625 -8.65625 L 2.171875 -8.65625 L 5.921875 -2.234375 L 9.65625 -8.65625 Z M 10.40625 -8.65625" transform="translate(86.833 308.731)"/></g></g></g><g fill="#FFF"><g><g><path d="M 6.84375 -2.3125 L 2.015625 -2.3125 L 0.984375 0 L 0.03125 0 L 3.984375 -8.65625 L 4.890625 -8.65625 L 8.84375 0 L 7.890625 0 Z M 6.515625 -3.0625 L 4.4375 -7.703125 L 2.34375 -3.0625 Z M 6.515625 -3.0625" transform="translate(101.968 308.731)"/></g></g></g><g fill="#FFF"><g><g><path d="M 8.65625 -8.65625 L 8.65625 0 L 7.890625 0 L 2.328125 -7.03125 L 2.328125 0 L 1.40625 0 L 1.40625 -8.65625 L 2.171875 -8.65625 L 7.75 -1.640625 L 7.75 -8.65625 Z M 8.65625 -8.65625" transform="translate(114.159 308.731)"/></g></g></g><g fill="#FFF"><g><g><path d="M 6.84375 -2.3125 L 2.015625 -2.3125 L 0.984375 0 L 0.03125 0 L 3.984375 -8.65625 L 4.890625 -8.65625 L 8.84375 0 L 7.890625 0 Z M 6.515625 -3.0625 L 4.4375 -7.703125 L 2.34375 -3.0625 Z M 6.515625 -3.0625" transform="translate(127.537 308.731)"/></g></g></g><g fill="#FFF"><g><g><path d="M 7.515625 -4.328125 L 8.390625 -4.328125 L 8.390625 -1.03125 C 7.984375 -0.675781 7.503906 -0.398438 6.953125 -0.203125 C 6.398438 -0.015625 5.816406 0.078125 5.203125 0.078125 C 4.335938 0.078125 3.554688 -0.109375 2.859375 -0.484375 C 2.171875 -0.867188 1.628906 -1.394531 1.234375 -2.0625 C 0.835938 -2.738281 0.640625 -3.492188 0.640625 -4.328125 C 0.640625 -5.160156 0.835938 -5.910156 1.234375 -6.578125 C 1.628906 -7.253906 2.171875 -7.78125 2.859375 -8.15625 C 3.554688 -8.539062 4.34375 -8.734375 5.21875 -8.734375 C 5.882812 -8.734375 6.492188 -8.628906 7.046875 -8.421875 C 7.597656 -8.210938 8.0625 -7.898438 8.4375 -7.484375 L 7.875 -6.90625 C 7.1875 -7.582031 6.316406 -7.921875 5.265625 -7.921875 C 4.554688 -7.921875 3.921875 -7.765625 3.359375 -7.453125 C 2.796875 -7.140625 2.351562 -6.707031 2.03125 -6.15625 C 1.707031 -5.613281 1.546875 -5.003906 1.546875 -4.328125 C 1.546875 -3.648438 1.707031 -3.039062 2.03125 -2.5 C 2.351562 -1.957031 2.789062 -1.53125 3.34375 -1.21875 C 3.90625 -0.90625 4.539062 -0.75 5.25 -0.75 C 6.132812 -0.75 6.890625 -0.96875 7.515625 -1.40625 Z M 7.515625 -4.328125" transform="translate(139.727 308.731)"/></g></g></g><g fill="#FFF"><g><g><path d="M 7.53125 -0.796875 L 7.53125 0 L 1.40625 0 L 1.40625 -8.65625 L 7.34375 -8.65625 L 7.34375 -7.875 L 2.328125 -7.875 L 2.328125 -4.796875 L 6.8125 -4.796875 L 6.8125 -4.015625 L 2.328125 -4.015625 L 2.328125 -0.796875 Z M 7.53125 -0.796875" transform="translate(152.61 308.731)"/></g></g></g><g fill="#FFF"><g><g><path d="M 10.40625 -8.65625 L 10.40625 0 L 9.53125 0 L 9.53125 -6.9375 L 6.125 -1.09375 L 5.6875 -1.09375 L 2.296875 -6.890625 L 2.296875 0 L 1.40625 0 L 1.40625 -8.65625 L 2.171875 -8.65625 L 5.921875 -2.234375 L 9.65625 -8.65625 Z M 10.40625 -8.65625" transform="translate(164.206 308.731)"/></g></g></g><g fill="#FFF"><g><g><path d="M 7.53125 -0.796875 L 7.53125 0 L 1.40625 0 L 1.40625 -8.65625 L 7.34375 -8.65625 L 7.34375 -7.875 L 2.328125 -7.875 L 2.328125 -4.796875 L 6.8125 -4.796875 L 6.8125 -4.015625 L 2.328125 -4.015625 L 2.328125 -0.796875 Z M 7.53125 -0.796875" transform="translate(179.342 308.731)"/></g></g></g><g fill="#FFF"><g><g><path d="M 8.65625 -8.65625 L 8.65625 0 L 7.890625 0 L 2.328125 -7.03125 L 2.328125 0 L 1.40625 0 L 1.40625 -8.65625 L 2.171875 -8.65625 L 7.75 -1.640625 L 7.75 -8.65625 Z M 8.65625 -8.65625" transform="translate(190.938 308.731)"/></g></g></g><g fill="#FFF"><g><g><path d="M 3.09375 -7.875 L 0.046875 -7.875 L 0.046875 -8.65625 L 7.046875 -8.65625 L 7.046875 -7.875 L 4.015625 -7.875 L 4.015625 0 L 3.09375 0 Z M 3.09375 -7.875" transform="translate(204.316 308.731)"/></g></g></g><g fill="#FFF"><g><g><path d="M 3.796875 0.078125 C 3.148438 0.078125 2.53125 -0.0234375 1.9375 -0.234375 C 1.351562 -0.441406 0.898438 -0.710938 0.578125 -1.046875 L 0.9375 -1.75 C 1.25 -1.4375 1.664062 -1.179688 2.1875 -0.984375 C 2.707031 -0.796875 3.242188 -0.703125 3.796875 -0.703125 C 4.578125 -0.703125 5.160156 -0.84375 5.546875 -1.125 C 5.929688 -1.414062 6.125 -1.785156 6.125 -2.234375 C 6.125 -2.585938 6.019531 -2.863281 5.8125 -3.0625 C 5.601562 -3.269531 5.34375 -3.429688 5.03125 -3.546875 C 4.726562 -3.660156 4.304688 -3.78125 3.765625 -3.90625 C 3.109375 -4.070312 2.585938 -4.226562 2.203125 -4.375 C 1.816406 -4.53125 1.484375 -4.765625 1.203125 -5.078125 C 0.929688 -5.398438 0.796875 -5.828125 0.796875 -6.359375 C 0.796875 -6.796875 0.910156 -7.191406 1.140625 -7.546875 C 1.367188 -7.910156 1.722656 -8.195312 2.203125 -8.40625 C 2.679688 -8.625 3.273438 -8.734375 3.984375 -8.734375 C 4.484375 -8.734375 4.96875 -8.664062 5.4375 -8.53125 C 5.914062 -8.394531 6.328125 -8.207031 6.671875 -7.96875 L 6.359375 -7.234375 C 5.992188 -7.472656 5.601562 -7.648438 5.1875 -7.765625 C 4.78125 -7.890625 4.378906 -7.953125 3.984375 -7.953125 C 3.222656 -7.953125 2.648438 -7.804688 2.265625 -7.515625 C 1.890625 -7.222656 1.703125 -6.847656 1.703125 -6.390625 C 1.703125 -6.035156 1.804688 -5.753906 2.015625 -5.546875 C 2.222656 -5.335938 2.484375 -5.175781 2.796875 -5.0625 C 3.117188 -4.957031 3.546875 -4.835938 4.078125 -4.703125 C 4.710938 -4.546875 5.226562 -4.390625 5.625 -4.234375 C 6.019531 -4.085938 6.351562 -3.859375 6.625 -3.546875 C 6.894531 -3.234375 7.03125 -2.816406 7.03125 -2.296875 C 7.03125 -1.859375 6.910156 -1.457031 6.671875 -1.09375 C 6.441406 -0.738281 6.082031 -0.453125 5.59375 -0.234375 C 5.101562 -0.0234375 4.503906 0.078125 3.796875 0.078125 Z M 3.796875 0.078125" transform="translate(221.296 308.731)"/></g></g></g><g fill="#FFF"><g><g><path d="M 4.375 -3 L 4.375 0 L 3.484375 0 L 3.484375 -3 L 0.015625 -8.65625 L 0.984375 -8.65625 L 3.953125 -3.796875 L 6.9375 -8.65625 L 7.84375 -8.65625 Z M 4.375 -3" transform="translate(232.224 308.731)"/></g></g></g><g fill="#FFF"><g><g><path d="M 3.796875 0.078125 C 3.148438 0.078125 2.53125 -0.0234375 1.9375 -0.234375 C 1.351562 -0.441406 0.898438 -0.710938 0.578125 -1.046875 L 0.9375 -1.75 C 1.25 -1.4375 1.664062 -1.179688 2.1875 -0.984375 C 2.707031 -0.796875 3.242188 -0.703125 3.796875 -0.703125 C 4.578125 -0.703125 5.160156 -0.84375 5.546875 -1.125 C 5.929688 -1.414062 6.125 -1.785156 6.125 -2.234375 C 6.125 -2.585938 6.019531 -2.863281 5.8125 -3.0625 C 5.601562 -3.269531 5.34375 -3.429688 5.03125 -3.546875 C 4.726562 -3.660156 4.304688 -3.78125 3.765625 -3.90625 C 3.109375 -4.070312 2.585938 -4.226562 2.203125 -4.375 C 1.816406 -4.53125 1.484375 -4.765625 1.203125 -5.078125 C 0.929688 -5.398438 0.796875 -5.828125 0.796875 -6.359375 C 0.796875 -6.796875 0.910156 -7.191406 1.140625 -7.546875 C 1.367188 -7.910156 1.722656 -8.195312 2.203125 -8.40625 C 2.679688 -8.625 3.273438 -8.734375 3.984375 -8.734375 C 4.484375 -8.734375 4.96875 -8.664062 5.4375 -8.53125 C 5.914062 -8.394531 6.328125 -8.207031 6.671875 -7.96875 L 6.359375 -7.234375 C 5.992188 -7.472656 5.601562 -7.648438 5.1875 -7.765625 C 4.78125 -7.890625 4.378906 -7.953125 3.984375 -7.953125 C 3.222656 -7.953125 2.648438 -7.804688 2.265625 -7.515625 C 1.890625 -7.222656 1.703125 -6.847656 1.703125 -6.390625 C 1.703125 -6.035156 1.804688 -5.753906 2.015625 -5.546875 C 2.222656 -5.335938 2.484375 -5.175781 2.796875 -5.0625 C 3.117188 -4.957031 3.546875 -4.835938 4.078125 -4.703125 C 4.710938 -4.546875 5.226562 -4.390625 5.625 -4.234375 C 6.019531 -4.085938 6.351562 -3.859375 6.625 -3.546875 C 6.894531 -3.234375 7.03125 -2.816406 7.03125 -2.296875 C 7.03125 -1.859375 6.910156 -1.457031 6.671875 -1.09375 C 6.441406 -0.738281 6.082031 -0.453125 5.59375 -0.234375 C 5.101562 -0.0234375 4.503906 0.078125 3.796875 0.078125 Z M 3.796875 0.078125" transform="translate(243.4 308.731)"/></g></g></g><g fill="#FFF"><g><g><path d="M 3.09375 -7.875 L 0.046875 -7.875 L 0.046875 -8.65625 L 7.046875 -8.65625 L 7.046875 -7.875 L 4.015625 -7.875 L 4.015625 0 L 3.09375 0 Z M 3.09375 -7.875" transform="translate(254.328 308.731)"/></g></g></g><g fill="#FFF"><g><g><path d="M 7.53125 -0.796875 L 7.53125 0 L 1.40625 0 L 1.40625 -8.65625 L 7.34375 -8.65625 L 7.34375 -7.875 L 2.328125 -7.875 L 2.328125 -4.796875 L 6.8125 -4.796875 L 6.8125 -4.015625 L 2.328125 -4.015625 L 2.328125 -0.796875 Z M 7.53125 -0.796875" transform="translate(264.748 308.731)"/></g></g></g><g fill="#FFF"><g><g><path d="M 10.40625 -8.65625 L 10.40625 0 L 9.53125 0 L 9.53125 -6.9375 L 6.125 -1.09375 L 5.6875 -1.09375 L 2.296875 -6.890625 L 2.296875 0 L 1.40625 0 L 1.40625 -8.65625 L 2.171875 -8.65625 L 5.921875 -2.234375 L 9.65625 -8.65625 Z M 10.40625 -8.65625" transform="translate(276.344 308.731)"/></g></g></g><g clip-path="url(#a)"><path fill="#DA5424" d="M 227.519531 148.355469 C 234.066406 148.355469 239.394531 153.671875 239.394531 160.207031 C 239.394531 166.742188 234.066406 172.0625 227.519531 172.0625 C 220.96875 172.0625 215.640625 166.742188 215.640625 160.207031 C 215.640625 153.671875 220.96875 148.355469 227.519531 148.355469 Z M 197.175781 57.902344 C 191.824219 60.269531 188.109375 64.21875 186.425781 69.328125 C 184.515625 75.132812 185.105469 81.578125 188.085938 87.46875 C 189.585938 90.425781 191.492188 93.140625 193.476562 95.898438 C 195.417969 98.585938 197.496094 101.328125 199.664062 104.054688 C 199.742188 104.15625 199.835938 104.238281 199.941406 104.296875 C 205.460938 112.53125 208.375 122.132812 208.375 132.078125 C 208.375 137.941406 207.371094 143.679688 205.382812 149.136719 L 202.773438 149.136719 L 202.773438 118.015625 L 179.96875 118.015625 L 179.96875 149.136719 L 147.136719 149.136719 L 147.136719 172.488281 L 179.96875 172.488281 L 179.96875 177.179688 C 173.160156 180.457031 165.847656 182.117188 158.226562 182.117188 C 146.375 182.117188 134.875 177.917969 125.84375 170.289062 L 124.914062 171.214844 C 125.367188 171.753906 125.851562 172.304688 126.351562 172.84375 L 126.390625 172.882812 C 135.910156 181.617188 148.28125 186.425781 161.222656 186.425781 C 168.03125 186.425781 174.648438 185.121094 180.882812 182.546875 C 187.84375 179.671875 194.214844 175.203125 199.308594 169.617188 C 204.425781 164 208.292969 157.214844 210.484375 149.988281 C 211.949219 145.175781 212.695312 140.15625 212.695312 135.066406 C 212.695312 122.699219 208.222656 110.753906 200.109375 101.425781 C 197.992188 98.71875 195.992188 96.039062 194.164062 93.457031 C 192.03125 90.445312 190.355469 87.859375 189.117188 85.023438 C 186.339844 78.652344 186.753906 71.140625 190.179688 65.886719 C 192.660156 62.078125 197.484375 59.171875 203.082031 58.113281 C 208.207031 57.140625 214.289062 57.597656 219.769531 59.359375 C 232.117188 63.335938 239.078125 75.949219 242.128906 83.113281 C 246.765625 94.007812 248.539062 106.566406 247.253906 119.4375 C 246.40625 127.929688 243.574219 139.738281 234.945312 148.019531 C 232.777344 146.699219 230.234375 145.941406 227.519531 145.941406 C 219.632812 145.941406 213.21875 152.339844 213.21875 160.207031 C 213.21875 168.074219 219.632812 174.476562 227.519531 174.476562 C 235.402344 174.476562 241.816406 168.074219 241.816406 160.207031 C 241.816406 155.773438 239.777344 151.804688 236.585938 149.183594 C 237.449219 148.339844 238.261719 147.472656 238.996094 146.597656 C 245.410156 138.949219 249.058594 127.992188 249.542969 114.910156 C 250.066406 100.9375 247.230469 87.804688 241.347656 76.929688 C 238.292969 71.285156 234.59375 66.613281 230.34375 63.042969 C 225.902344 59.308594 220.515625 56.976562 214.328125 56.121094 C 207.699219 55.199219 201.929688 55.796875 197.175781 57.902344"/></g><g clip-path="url(#b)"><path fill="#FAA91C" d="M 227.519531 151.117188 C 222.488281 151.117188 218.410156 155.1875 218.410156 160.207031 C 218.410156 165.230469 222.488281 169.296875 227.519531 169.296875 C 232.546875 169.296875 236.625 165.230469 236.625 160.207031 C 236.625 155.1875 232.546875 151.117188 227.519531 151.117188 Z M 215.421875 149.796875 L 213.65625 149.796875 C 211.679688 158.125 207.644531 165.65625 202.113281 171.828125 L 216.582031 171.828125 C 213.480469 168.921875 211.542969 164.789062 211.542969 160.207031 C 211.542969 156.230469 213.003906 152.589844 215.421875 149.796875 Z M 180.628906 202.953125 L 180.628906 186.054688 C 188.984375 183.207031 196.359375 178.257812 202.113281 171.828125 L 202.113281 202.953125 L 180.628906 202.953125"/></g></svg>