<svg xmlns="http://www.w3.org/2000/svg" xmlns:xlink="http://www.w3.org/1999/xlink" width="200" zoomAndPan="magnify" viewBox="0 0 150 149.999998" height="200" preserveAspectRatio="xMidYMid meet" version="1.0"><defs><clipPath id="id1"><path d="M 8.242188 7.5 L 143.242188 7.5 L 143.242188 142.5 L 8.242188 142.5 Z M 8.242188 7.5 " clip-rule="nonzero"/></clipPath><clipPath id="id2"><path d="M 8.242188 78.847656 L 42.742188 78.847656 L 42.742188 129.847656 L 8.242188 129.847656 Z M 8.242188 78.847656 " clip-rule="nonzero"/></clipPath><clipPath id="id3"><path d="M 100.953125 7.5 L 142.953125 7.5 L 142.953125 49.5 L 100.953125 49.5 Z M 100.953125 7.5 " clip-rule="nonzero"/></clipPath></defs><path fill="rgb(100%, 100%, 100%)" d="M 109.359375 117.308594 C 109.515625 115.890625 110.148438 114.632812 111.105469 113.871094 C 111.5 113.546875 112.125 113.1875 112.894531 113.1875 C 112.984375 113.1875 113.070312 113.195312 113.167969 113.203125 C 114.984375 113.398438 116.289062 115.617188 116.027344 118.03125 C 115.871094 119.453125 115.238281 120.707031 114.28125 121.46875 C 113.84375 121.828125 113.132812 122.25 112.21875 122.136719 C 110.402344 121.941406 109.097656 119.722656 109.359375 117.308594 Z M 104.894531 116.820312 C 104.359375 121.75 107.429688 126.136719 111.726562 126.601562 C 111.984375 126.636719 112.238281 126.644531 112.484375 126.644531 C 114.125 126.644531 115.738281 126.066406 117.097656 124.980469 C 118.976562 123.46875 120.214844 121.117188 120.492188 118.519531 C 121.027344 113.597656 117.957031 109.210938 113.660156 108.738281 C 111.761719 108.507812 109.859375 109.105469 108.289062 110.359375 C 106.410156 111.871094 105.171875 114.230469 104.894531 116.820312 " fill-opacity="1" fill-rule="nonzero"/><g clip-path="url(#id1)"><path fill="rgb(100%, 100%, 100%)" d="M 130.539062 137.894531 L 130.539062 140.140625 L 130.539062 137.894531 L 86.863281 137.894531 L 94.847656 101.953125 L 138.527344 101.953125 Z M 73.382812 137.894531 L 73.382812 133.402344 L 83.253906 133.402344 L 82.472656 136.921875 C 82.402344 137.246094 82.378906 137.570312 82.367188 137.894531 Z M 55.414062 137.894531 L 55.414062 103.816406 C 55.414062 96.59375 61.285156 90.722656 68.503906 90.722656 L 73.699219 90.722656 C 74.707031 94.585938 78.191406 97.460938 82.367188 97.460938 C 86.546875 97.460938 90.027344 94.585938 91.039062 90.722656 L 96.234375 90.722656 C 101.042969 90.722656 105.359375 93.398438 107.628906 97.460938 L 94.847656 97.460938 C 92.722656 97.460938 90.925781 98.910156 90.460938 100.980469 L 84.253906 128.910156 L 73.382812 128.910156 C 70.910156 128.910156 68.890625 130.929688 68.890625 133.402344 L 68.890625 137.894531 Z M 82.367188 86.230469 C 84 86.230469 85.484375 86.003906 86.863281 85.632812 L 86.863281 88.476562 C 86.863281 90.953125 84.84375 92.96875 82.367188 92.96875 C 79.894531 92.96875 77.875 90.953125 77.875 88.476562 L 77.875 85.632812 C 79.253906 86.003906 80.738281 86.230469 82.367188 86.230469 Z M 68.863281 67.945312 C 68.707031 66.839844 67.757812 66.015625 66.644531 66.015625 C 66.011719 66.015625 65.714844 65.785156 65.511719 65.558594 C 64.433594 64.382812 64.320312 61.363281 64.441406 60.039062 C 64.453125 59.933594 64.601562 59.320312 64.925781 59.230469 C 65.453125 60.09375 66.390625 60.355469 67.355469 60.082031 C 68.320312 59.800781 68.890625 58.792969 68.890625 57.792969 L 68.890625 52.539062 C 68.890625 46.34375 73.929688 41.304688 80.121094 41.304688 L 84.617188 41.304688 C 90.808594 41.304688 95.847656 46.34375 95.847656 52.539062 L 95.847656 57.792969 C 95.847656 58.742188 96.503906 59.609375 97.390625 59.925781 C 98.285156 60.269531 99.339844 60.011719 99.953125 59.292969 C 100.121094 59.320312 100.277344 59.855469 100.304688 60.09375 C 100.417969 61.3125 100.304688 64.375 99.234375 65.558594 C 99.023438 65.785156 98.722656 66.015625 98.09375 66.015625 C 96.976562 66.015625 96.03125 66.839844 95.871094 67.945312 C 95.785156 68.507812 93.765625 81.738281 82.367188 81.738281 C 71.03125 81.738281 68.953125 68.5 68.863281 67.945312 Z M 55.414062 48.046875 C 52.941406 48.046875 50.921875 50.0625 50.921875 52.539062 L 50.921875 55.636719 C 50.921875 56.328125 50.464844 56.6875 50.273438 56.8125 C 50.070312 56.933594 49.542969 57.195312 48.910156 56.878906 L 32.179688 48.5 C 31.566406 48.203125 30.890625 48.046875 30.167969 48.046875 L 14.980469 48.046875 C 13.746094 48.046875 12.734375 47.035156 12.734375 45.796875 L 12.734375 14.351562 C 12.734375 13.113281 13.746094 12.105469 14.980469 12.105469 L 68.890625 12.105469 C 70.128906 12.105469 71.136719 13.113281 71.136719 14.351562 L 71.136719 39.65625 C 68.257812 41.664062 66.09375 44.605469 65.058594 48.046875 Z M 138.527344 97.460938 L 112.570312 97.460938 C 109.972656 90.785156 103.515625 86.230469 96.234375 86.230469 L 91.355469 86.230469 L 91.355469 83.632812 C 96.417969 80.316406 99.039062 74.5 100.003906 70.21875 C 100.980469 69.910156 101.839844 69.359375 102.550781 68.585938 C 105.253906 65.621094 104.832031 60.277344 104.777344 59.722656 C 104.628906 57.679688 103.289062 55.285156 100.699219 54.863281 C 100.574219 54.835938 100.453125 54.828125 100.339844 54.808594 L 100.339844 52.539062 C 100.339844 43.867188 93.285156 36.8125 84.617188 36.8125 L 80.121094 36.8125 C 78.5625 36.8125 77.058594 37.050781 75.628906 37.472656 L 75.628906 14.351562 C 75.628906 10.628906 72.613281 7.613281 68.890625 7.613281 L 14.980469 7.613281 C 11.261719 7.613281 8.242188 10.628906 8.242188 14.351562 L 8.242188 45.796875 C 8.242188 49.519531 11.261719 52.539062 14.980469 52.539062 L 30.167969 52.519531 L 46.921875 60.910156 C 47.753906 61.320312 48.640625 61.523438 49.535156 61.523438 C 50.613281 61.523438 51.695312 61.214844 52.648438 60.628906 C 54.378906 59.539062 55.414062 57.679688 55.414062 55.636719 L 55.414062 52.539062 L 64.398438 52.539062 L 64.398438 54.808594 C 64.285156 54.820312 64.171875 54.835938 64.058594 54.855469 C 61.449219 55.285156 60.109375 57.679688 59.960938 59.671875 C 59.90625 60.277344 59.492188 65.621094 62.1875 68.585938 C 62.898438 69.359375 63.757812 69.910156 64.730469 70.21875 C 65.699219 74.5 68.320312 80.316406 73.382812 83.632812 L 73.382812 86.230469 L 68.503906 86.230469 C 58.808594 86.230469 50.921875 94.121094 50.921875 103.816406 L 50.921875 137.894531 C 50.921875 140.371094 52.941406 142.386719 55.414062 142.386719 L 130.539062 142.386719 C 132.664062 142.386719 134.460938 140.941406 134.929688 138.867188 L 142.914062 102.929688 C 143.210938 101.59375 142.886719 100.207031 142.027344 99.136719 C 141.167969 98.078125 139.894531 97.460938 138.527344 97.460938 " fill-opacity="1" fill-rule="nonzero"/></g><path fill="rgb(100%, 100%, 100%)" d="M 32.292969 21.746094 C 31.414062 20.871094 29.996094 20.871094 29.117188 21.746094 L 22.378906 28.488281 C 21.5 29.363281 21.5 30.785156 22.378906 31.664062 L 29.117188 38.402344 C 29.554688 38.839844 30.125 39.058594 30.707031 39.058594 C 31.285156 39.058594 31.855469 38.839844 32.292969 38.402344 C 33.171875 37.523438 33.171875 36.101562 32.292969 35.226562 L 27.144531 30.074219 L 32.292969 24.925781 C 33.171875 24.046875 33.171875 22.625 32.292969 21.746094 " fill-opacity="1" fill-rule="nonzero"/><path fill="rgb(100%, 100%, 100%)" d="M 54.757812 21.746094 C 53.878906 20.871094 52.457031 20.871094 51.578125 21.746094 C 50.703125 22.625 50.703125 24.046875 51.578125 24.925781 L 56.730469 30.074219 L 51.578125 35.226562 C 50.703125 36.101562 50.703125 37.523438 51.578125 38.402344 C 52.019531 38.839844 52.589844 39.058594 53.167969 39.058594 C 53.746094 39.058594 54.316406 38.839844 54.757812 38.402344 L 61.496094 31.664062 C 62.371094 30.785156 62.371094 29.363281 61.496094 28.488281 L 54.757812 21.746094 " fill-opacity="1" fill-rule="nonzero"/><path fill="rgb(100%, 100%, 100%)" d="M 44.894531 21.203125 C 43.707031 20.816406 42.445312 21.449219 42.050781 22.625 L 37.558594 36.101562 C 37.171875 37.277344 37.804688 38.550781 38.980469 38.945312 C 39.214844 39.023438 39.453125 39.058594 39.691406 39.058594 C 40.628906 39.058594 41.507812 38.464844 41.824219 37.523438 L 46.316406 24.046875 C 46.699219 22.871094 46.070312 21.597656 44.894531 21.203125 " fill-opacity="1" fill-rule="nonzero"/><g clip-path="url(#id2)"><path fill="rgb(100%, 100%, 100%)" d="M 31.199219 83.664062 L 39.523438 83.664062 L 42.714844 78.847656 L 11.453125 78.847656 L 8.261719 83.664062 L 13.691406 83.664062 C 19.1875 83.664062 24.257812 84.089844 26.289062 88.710938 L 11.453125 88.710938 L 8.261719 93.53125 L 26.886719 93.53125 C 26.886719 93.542969 26.886719 93.550781 26.886719 93.5625 C 26.886719 97.023438 24.023438 102.335938 14.570312 102.335938 L 9.996094 102.332031 L 10.003906 106.832031 L 28.320312 129.847656 L 36.476562 129.847656 L 17.519531 106.039062 C 25.320312 105.613281 32.640625 101.230469 33.695312 93.53125 L 39.523438 93.53125 L 42.714844 88.710938 L 33.613281 88.710938 C 33.246094 86.855469 32.449219 85.058594 31.199219 83.664062 Z M 31.199219 83.664062 " fill-opacity="1" fill-rule="nonzero"/></g><g clip-path="url(#id3)"><path fill="rgb(100%, 100%, 100%)" d="M 121.941406 7.5 C 110.339844 7.5 100.953125 16.898438 100.953125 28.5 C 100.953125 40.101562 110.339844 49.5 121.941406 49.5 C 133.546875 49.5 142.953125 40.101562 142.953125 28.5 C 142.953125 16.898438 133.546875 7.5 121.941406 7.5 Z M 121.953125 45.300781 C 112.671875 45.300781 105.152344 37.78125 105.152344 28.5 C 105.152344 19.21875 112.671875 11.699219 121.953125 11.699219 C 131.234375 11.699219 138.753906 19.21875 138.753906 28.5 C 138.753906 37.78125 131.234375 45.300781 121.953125 45.300781 Z M 121.953125 45.300781 " fill-opacity="1" fill-rule="nonzero"/></g><path fill="rgb(100%, 100%, 100%)" d="M 123.003906 18 L 119.851562 18 L 119.851562 30.601562 L 130.867188 37.214844 L 132.453125 34.632812 L 123.003906 29.023438 Z M 123.003906 18 " fill-opacity="1" fill-rule="nonzero"/></svg>