<svg xmlns="http://www.w3.org/2000/svg" width="375" viewBox="0 0 375 375" height="375" version="1.0"><defs><clipPath id="a"><path d="M 122.636719 114.089844 L 208 114.089844 L 208 199.550781 L 122.636719 199.550781 Z M 122.636719 114.089844"/></clipPath></defs><g clip-path="url(#a)"><path fill="#FAA91C" d="M 126.742188 126.738281 L 135.039062 118.441406 C 140.503906 112.964844 149.464844 112.964844 154.929688 118.441406 L 203.675781 167.238281 C 209.144531 172.710938 209.144531 181.6875 203.675781 187.160156 L 195.386719 195.449219 C 189.90625 200.929688 180.949219 200.929688 175.492188 195.449219 L 126.742188 146.660156 C 121.269531 141.179688 121.269531 132.21875 126.742188 126.738281" fill-rule="evenodd"/></g><path fill="#4270C5" d="M 158.988281 95.789062 L 178.890625 75.871094 C 183.445312 71.304688 190.894531 71.304688 195.457031 75.871094 L 215.355469 95.789062 C 219.921875 100.359375 219.921875 107.824219 215.355469 112.386719 L 195.457031 132.300781 C 190.894531 136.859375 183.445312 136.859375 178.890625 132.300781 L 158.988281 112.386719 C 154.429688 107.824219 154.429688 100.359375 158.988281 95.789062" fill-rule="evenodd"/><path fill="#DA5424" d="M 197.613281 139.4375 L 222.476562 114.535156 C 225.769531 111.257812 231.132812 111.257812 234.410156 114.535156 L 249.007812 129.152344 C 252.296875 132.433594 252.296875 137.816406 249.007812 141.101562 L 224.140625 165.996094 C 220.855469 169.277344 215.484375 169.277344 212.199219 165.996094 L 197.613281 151.390625 C 194.328125 148.105469 194.328125 142.722656 197.613281 139.4375" fill-rule="evenodd"/><g fill="#FFF"><g><g><path d="M 15 -27.984375 C 16.550781 -27.984375 18.085938 -27.804688 19.609375 -27.453125 C 21.128906 -27.097656 22.257812 -26.742188 23 -26.390625 L 24.109375 -25.859375 L 21.046875 -19.71875 C 18.921875 -20.84375 16.90625 -21.40625 15 -21.40625 C 13.9375 -21.40625 13.179688 -21.289062 12.734375 -21.0625 C 12.296875 -20.832031 12.078125 -20.398438 12.078125 -19.765625 C 12.078125 -19.628906 12.09375 -19.488281 12.125 -19.34375 C 12.164062 -19.207031 12.238281 -19.078125 12.34375 -18.953125 C 12.457031 -18.828125 12.554688 -18.71875 12.640625 -18.625 C 12.722656 -18.539062 12.867188 -18.441406 13.078125 -18.328125 C 13.296875 -18.222656 13.46875 -18.144531 13.59375 -18.09375 C 13.71875 -18.039062 13.921875 -17.960938 14.203125 -17.859375 C 14.484375 -17.753906 14.691406 -17.675781 14.828125 -17.625 C 14.972656 -17.570312 15.210938 -17.488281 15.546875 -17.375 C 15.890625 -17.269531 16.148438 -17.203125 16.328125 -17.171875 C 17.421875 -16.847656 18.375 -16.492188 19.1875 -16.109375 C 20 -15.722656 20.851562 -15.191406 21.75 -14.515625 C 22.65625 -13.847656 23.351562 -13 23.84375 -11.96875 C 24.34375 -10.945312 24.59375 -9.785156 24.59375 -8.484375 C 24.59375 -2.296875 20.300781 0.796875 11.71875 0.796875 C 9.769531 0.796875 7.921875 0.5 6.171875 -0.09375 C 4.421875 -0.695312 3.160156 -1.300781 2.390625 -1.90625 L 1.21875 -2.859375 L 5.03125 -9.28125 C 5.3125 -9.03125 5.679688 -8.734375 6.140625 -8.390625 C 6.609375 -8.054688 7.441406 -7.597656 8.640625 -7.015625 C 9.835938 -6.429688 10.878906 -6.140625 11.765625 -6.140625 C 13.710938 -6.140625 14.6875 -6.796875 14.6875 -8.109375 C 14.6875 -8.710938 14.4375 -9.179688 13.9375 -9.515625 C 13.445312 -9.847656 12.609375 -10.222656 11.421875 -10.640625 C 10.234375 -11.066406 9.304688 -11.457031 8.640625 -11.8125 C 6.941406 -12.695312 5.597656 -13.695312 4.609375 -14.8125 C 3.617188 -15.925781 3.125 -17.398438 3.125 -19.234375 C 3.125 -21.992188 4.191406 -24.140625 6.328125 -25.671875 C 8.472656 -27.210938 11.363281 -27.984375 15 -27.984375 Z M 15 -27.984375" transform="translate(91.77 259.5)"/></g></g></g><g fill="#FFF"><g><g><path d="M 5.75 -3.234375 C 2.726562 -5.921875 1.21875 -9.363281 1.21875 -13.5625 C 1.21875 -17.769531 2.789062 -21.222656 5.9375 -23.921875 C 9.082031 -26.628906 12.96875 -27.984375 17.59375 -27.984375 C 22.15625 -27.984375 26 -26.625 29.125 -23.90625 C 32.25 -21.1875 33.8125 -17.738281 33.8125 -13.5625 C 33.8125 -9.394531 32.28125 -5.957031 29.21875 -3.25 C 26.164062 -0.550781 22.289062 0.796875 17.59375 0.796875 C 12.71875 0.796875 8.769531 -0.546875 5.75 -3.234375 Z M 13.015625 -18.171875 C 11.796875 -16.972656 11.1875 -15.4375 11.1875 -13.5625 C 11.1875 -11.695312 11.769531 -10.171875 12.9375 -8.984375 C 14.101562 -7.796875 15.640625 -7.203125 17.546875 -7.203125 C 19.378906 -7.203125 20.882812 -7.800781 22.0625 -9 C 23.25 -10.207031 23.84375 -11.726562 23.84375 -13.5625 C 23.84375 -15.4375 23.234375 -16.972656 22.015625 -18.171875 C 20.796875 -19.378906 19.304688 -19.984375 17.546875 -19.984375 C 15.742188 -19.984375 14.234375 -19.378906 13.015625 -18.171875 Z M 13.015625 -18.171875" transform="translate(117.842 259.5)"/></g></g></g><g fill="#FFF"><g><g><path d="M 17.65625 -20.296875 C 15.882812 -20.296875 14.363281 -19.640625 13.09375 -18.328125 C 11.820312 -17.023438 11.1875 -15.457031 11.1875 -13.625 C 11.1875 -11.75 11.820312 -10.15625 13.09375 -8.84375 C 14.363281 -7.539062 15.882812 -6.890625 17.65625 -6.890625 C 18.5 -6.890625 19.300781 -6.992188 20.0625 -7.203125 C 20.820312 -7.421875 21.378906 -7.632812 21.734375 -7.84375 L 22.203125 -8.15625 L 25.390625 -1.640625 C 25.140625 -1.460938 24.789062 -1.238281 24.34375 -0.96875 C 23.90625 -0.707031 22.898438 -0.347656 21.328125 0.109375 C 19.753906 0.566406 18.066406 0.796875 16.265625 0.796875 C 12.273438 0.796875 8.769531 -0.601562 5.75 -3.40625 C 2.726562 -6.21875 1.21875 -9.585938 1.21875 -13.515625 C 1.21875 -17.472656 2.726562 -20.875 5.75 -23.71875 C 8.769531 -26.5625 12.273438 -27.984375 16.265625 -27.984375 C 18.066406 -27.984375 19.726562 -27.769531 21.25 -27.34375 C 22.769531 -26.925781 23.847656 -26.503906 24.484375 -26.078125 L 25.390625 -25.4375 L 22.203125 -19.03125 C 21.035156 -19.875 19.519531 -20.296875 17.65625 -20.296875 Z M 17.65625 -20.296875" transform="translate(152.87 259.5)"/></g></g></g><g fill="#FFF"><g><g><path d="M 5.03125 -3.359375 C 2.488281 -6.140625 1.21875 -9.539062 1.21875 -13.5625 C 1.21875 -17.59375 2.488281 -21.003906 5.03125 -23.796875 C 7.570312 -26.585938 10.804688 -27.984375 14.734375 -27.984375 C 18.335938 -27.984375 21.304688 -26.851562 23.640625 -24.59375 L 23.640625 -27.1875 L 33.015625 -27.1875 L 33.015625 0 L 23.75 0 L 23.75 -3.078125 L 23.640625 -3.078125 C 21.304688 -0.492188 18.335938 0.796875 14.734375 0.796875 C 10.804688 0.796875 7.570312 -0.585938 5.03125 -3.359375 Z M 13.015625 -18.171875 C 11.796875 -16.972656 11.1875 -15.4375 11.1875 -13.5625 C 11.1875 -11.695312 11.769531 -10.171875 12.9375 -8.984375 C 14.101562 -7.796875 15.640625 -7.203125 17.546875 -7.203125 C 19.378906 -7.203125 20.882812 -7.800781 22.0625 -9 C 23.25 -10.207031 23.84375 -11.726562 23.84375 -13.5625 C 23.84375 -15.4375 23.234375 -16.972656 22.015625 -18.171875 C 20.796875 -19.378906 19.304688 -19.984375 17.546875 -19.984375 C 15.742188 -19.984375 14.234375 -19.378906 13.015625 -18.171875 Z M 13.015625 -18.171875" transform="translate(178.889 259.5)"/></g></g></g><g fill="#FFF"><g><g><path d="M 1.96875 6.671875 L 9.640625 2.921875 C 11.054688 5.242188 13.515625 6.40625 17.015625 6.40625 C 18.640625 6.40625 20.148438 5.882812 21.546875 4.84375 C 22.941406 3.800781 23.640625 2.203125 23.640625 0.046875 L 23.640625 -1.96875 C 21.972656 -0.125 19.003906 0.796875 14.734375 0.796875 C 10.804688 0.796875 7.570312 -0.585938 5.03125 -3.359375 C 2.488281 -6.140625 1.21875 -9.539062 1.21875 -13.5625 C 1.21875 -17.59375 2.488281 -21.003906 5.03125 -23.796875 C 7.570312 -26.585938 10.804688 -27.984375 14.734375 -27.984375 C 18.234375 -27.984375 21.148438 -26.90625 23.484375 -24.75 L 23.640625 -24.75 L 23.640625 -27.1875 L 33.015625 -27.1875 L 33.015625 0.734375 C 33.015625 5.148438 31.546875 8.5625 28.609375 10.96875 C 25.679688 13.375 21.816406 14.578125 17.015625 14.578125 C 9.242188 14.578125 4.226562 11.941406 1.96875 6.671875 Z M 13.015625 -18.171875 C 11.796875 -16.972656 11.1875 -15.4375 11.1875 -13.5625 C 11.1875 -11.695312 11.769531 -10.171875 12.9375 -8.984375 C 14.101562 -7.796875 15.640625 -7.203125 17.546875 -7.203125 C 19.378906 -7.203125 20.882812 -7.800781 22.0625 -9 C 23.25 -10.207031 23.84375 -11.726562 23.84375 -13.5625 C 23.84375 -15.4375 23.234375 -16.972656 22.015625 -18.171875 C 20.796875 -19.378906 19.304688 -19.984375 17.546875 -19.984375 C 15.742188 -19.984375 14.234375 -19.378906 13.015625 -18.171875 Z M 13.015625 -18.171875" transform="translate(215.082 259.5)"/></g></g></g><g fill="#FFF"><g><g><path d="M 30.6875 -12.296875 L 10.96875 -12.296875 C 10.96875 -10.390625 11.585938 -8.972656 12.828125 -8.046875 C 14.066406 -7.128906 15.410156 -6.671875 16.859375 -6.671875 C 18.378906 -6.671875 19.578125 -6.875 20.453125 -7.28125 C 21.335938 -7.6875 22.347656 -8.492188 23.484375 -9.703125 L 30.265625 -6.3125 C 27.429688 -1.570312 22.734375 0.796875 16.171875 0.796875 C 12.066406 0.796875 8.546875 -0.601562 5.609375 -3.40625 C 2.679688 -6.21875 1.21875 -9.601562 1.21875 -13.5625 C 1.21875 -17.519531 2.679688 -20.910156 5.609375 -23.734375 C 8.546875 -26.566406 12.066406 -27.984375 16.171875 -27.984375 C 20.472656 -27.984375 23.972656 -26.738281 26.671875 -24.25 C 29.378906 -21.757812 30.734375 -18.195312 30.734375 -13.5625 C 30.734375 -12.925781 30.71875 -12.503906 30.6875 -12.296875 Z M 11.234375 -17.484375 L 21.578125 -17.484375 C 21.359375 -18.898438 20.796875 -19.988281 19.890625 -20.75 C 18.992188 -21.507812 17.84375 -21.890625 16.4375 -21.890625 C 14.875 -21.890625 13.632812 -21.484375 12.71875 -20.671875 C 11.800781 -19.859375 11.304688 -18.796875 11.234375 -17.484375 Z M 11.234375 -17.484375" transform="translate(251.276 259.5)"/></g></g></g><g fill="#FFF"><g><g><path d="M 7.3125 -0.765625 L 7.3125 0 L 1.375 0 L 1.375 -8.40625 L 7.125 -8.40625 L 7.125 -7.625 L 2.25 -7.625 L 2.25 -4.640625 L 6.59375 -4.640625 L 6.59375 -3.890625 L 2.25 -3.890625 L 2.25 -0.765625 Z M 7.3125 -0.765625" transform="translate(64.355 300.399)"/></g></g></g><g fill="#FFF"><g><g><path d="M 5.015625 0.078125 C 4.179688 0.078125 3.429688 -0.101562 2.765625 -0.46875 C 2.097656 -0.84375 1.570312 -1.351562 1.1875 -2 C 0.8125 -2.65625 0.625 -3.390625 0.625 -4.203125 C 0.625 -5.003906 0.8125 -5.734375 1.1875 -6.390625 C 1.570312 -7.046875 2.097656 -7.554688 2.765625 -7.921875 C 3.441406 -8.285156 4.195312 -8.46875 5.03125 -8.46875 C 5.65625 -8.46875 6.226562 -8.363281 6.75 -8.15625 C 7.28125 -7.945312 7.726562 -7.644531 8.09375 -7.25 L 7.53125 -6.6875 C 6.875 -7.351562 6.046875 -7.6875 5.046875 -7.6875 C 4.390625 -7.6875 3.785156 -7.53125 3.234375 -7.21875 C 2.691406 -6.914062 2.265625 -6.5 1.953125 -5.96875 C 1.648438 -5.445312 1.5 -4.859375 1.5 -4.203125 C 1.5 -3.546875 1.648438 -2.953125 1.953125 -2.421875 C 2.265625 -1.890625 2.691406 -1.472656 3.234375 -1.171875 C 3.785156 -0.867188 4.390625 -0.71875 5.046875 -0.71875 C 6.054688 -0.71875 6.882812 -1.054688 7.53125 -1.734375 L 8.09375 -1.15625 C 7.726562 -0.757812 7.28125 -0.453125 6.75 -0.234375 C 6.21875 -0.0234375 5.640625 0.078125 5.015625 0.078125 Z M 5.015625 0.078125" transform="translate(76.007 300.399)"/></g></g></g><g fill="#FFF"><g><g><path d="M 5.046875 0.078125 C 4.210938 0.078125 3.457031 -0.109375 2.78125 -0.484375 C 2.101562 -0.859375 1.570312 -1.367188 1.1875 -2.015625 C 0.8125 -2.660156 0.625 -3.390625 0.625 -4.203125 C 0.625 -5.003906 0.8125 -5.726562 1.1875 -6.375 C 1.570312 -7.03125 2.101562 -7.539062 2.78125 -7.90625 C 3.457031 -8.28125 4.210938 -8.46875 5.046875 -8.46875 C 5.867188 -8.46875 6.613281 -8.285156 7.28125 -7.921875 C 7.957031 -7.554688 8.484375 -7.046875 8.859375 -6.390625 C 9.242188 -5.734375 9.4375 -5.003906 9.4375 -4.203125 C 9.4375 -3.390625 9.242188 -2.65625 8.859375 -2 C 8.484375 -1.351562 7.957031 -0.84375 7.28125 -0.46875 C 6.613281 -0.101562 5.867188 0.078125 5.046875 0.078125 Z M 5.046875 -0.71875 C 5.703125 -0.71875 6.296875 -0.867188 6.828125 -1.171875 C 7.367188 -1.472656 7.789062 -1.890625 8.09375 -2.421875 C 8.40625 -2.953125 8.5625 -3.546875 8.5625 -4.203125 C 8.5625 -4.859375 8.40625 -5.453125 8.09375 -5.984375 C 7.789062 -6.515625 7.367188 -6.929688 6.828125 -7.234375 C 6.296875 -7.535156 5.703125 -7.6875 5.046875 -7.6875 C 4.378906 -7.6875 3.773438 -7.535156 3.234375 -7.234375 C 2.691406 -6.929688 2.265625 -6.515625 1.953125 -5.984375 C 1.648438 -5.453125 1.5 -4.859375 1.5 -4.203125 C 1.5 -3.546875 1.648438 -2.953125 1.953125 -2.421875 C 2.265625 -1.890625 2.691406 -1.472656 3.234375 -1.171875 C 3.773438 -0.867188 4.378906 -0.71875 5.046875 -0.71875 Z M 5.046875 -0.71875" transform="translate(88.26 300.399)"/></g></g></g><g fill="#FFF"><g><g><path d="M 10.09375 -8.40625 L 10.09375 0 L 9.234375 0 L 9.234375 -6.71875 L 5.9375 -1.0625 L 5.515625 -1.0625 L 2.21875 -6.6875 L 2.21875 0 L 1.375 0 L 1.375 -8.40625 L 2.09375 -8.40625 L 5.75 -2.171875 L 9.359375 -8.40625 Z M 10.09375 -8.40625" transform="translate(101.951 300.399)"/></g></g></g><g fill="#FFF"><g><g><path d="M 3.6875 0.078125 C 3.0625 0.078125 2.460938 -0.0195312 1.890625 -0.21875 C 1.316406 -0.425781 0.875 -0.691406 0.5625 -1.015625 L 0.90625 -1.703125 C 1.21875 -1.398438 1.625 -1.15625 2.125 -0.96875 C 2.625 -0.78125 3.144531 -0.6875 3.6875 -0.6875 C 4.4375 -0.6875 5 -0.820312 5.375 -1.09375 C 5.75 -1.375 5.9375 -1.734375 5.9375 -2.171875 C 5.9375 -2.503906 5.832031 -2.769531 5.625 -2.96875 C 5.425781 -3.175781 5.175781 -3.332031 4.875 -3.4375 C 4.582031 -3.539062 4.171875 -3.660156 3.640625 -3.796875 C 3.015625 -3.953125 2.515625 -4.101562 2.140625 -4.25 C 1.765625 -4.394531 1.441406 -4.617188 1.171875 -4.921875 C 0.898438 -5.234375 0.765625 -5.648438 0.765625 -6.171875 C 0.765625 -6.585938 0.875 -6.96875 1.09375 -7.3125 C 1.320312 -7.664062 1.664062 -7.945312 2.125 -8.15625 C 2.59375 -8.363281 3.171875 -8.46875 3.859375 -8.46875 C 4.335938 -8.46875 4.804688 -8.398438 5.265625 -8.265625 C 5.734375 -8.140625 6.132812 -7.960938 6.46875 -7.734375 L 6.171875 -7.015625 C 5.816406 -7.253906 5.4375 -7.429688 5.03125 -7.546875 C 4.632812 -7.660156 4.242188 -7.71875 3.859375 -7.71875 C 3.128906 -7.71875 2.578125 -7.570312 2.203125 -7.28125 C 1.828125 -7 1.640625 -6.632812 1.640625 -6.1875 C 1.640625 -5.851562 1.738281 -5.582031 1.9375 -5.375 C 2.144531 -5.175781 2.40625 -5.019531 2.71875 -4.90625 C 3.03125 -4.800781 3.441406 -4.6875 3.953125 -4.5625 C 4.578125 -4.40625 5.078125 -4.253906 5.453125 -4.109375 C 5.835938 -3.960938 6.160156 -3.738281 6.421875 -3.4375 C 6.679688 -3.132812 6.8125 -2.726562 6.8125 -2.21875 C 6.8125 -1.789062 6.695312 -1.40625 6.46875 -1.0625 C 6.238281 -0.71875 5.890625 -0.441406 5.421875 -0.234375 C 4.953125 -0.0234375 4.375 0.078125 3.6875 0.078125 Z M 3.6875 0.078125" transform="translate(123.803 300.399)"/></g></g></g><g fill="#FFF"><g><g><path d="M 6.640625 -2.25 L 1.953125 -2.25 L 0.953125 0 L 0.03125 0 L 3.859375 -8.40625 L 4.734375 -8.40625 L 8.578125 0 L 7.640625 0 Z M 6.3125 -2.96875 L 4.296875 -7.46875 L 2.28125 -2.96875 Z M 6.3125 -2.96875" transform="translate(134.807 300.399)"/></g></g></g><g fill="#FFF"><g><g><path d="M 6.640625 -2.25 L 1.953125 -2.25 L 0.953125 0 L 0.03125 0 L 3.859375 -8.40625 L 4.734375 -8.40625 L 8.578125 0 L 7.640625 0 Z M 6.3125 -2.96875 L 4.296875 -7.46875 L 2.28125 -2.96875 Z M 6.3125 -2.96875" transform="translate(147.035 300.399)"/></g></g></g><g fill="#FFF"><g><g><path d="M 3.6875 0.078125 C 3.0625 0.078125 2.460938 -0.0195312 1.890625 -0.21875 C 1.316406 -0.425781 0.875 -0.691406 0.5625 -1.015625 L 0.90625 -1.703125 C 1.21875 -1.398438 1.625 -1.15625 2.125 -0.96875 C 2.625 -0.78125 3.144531 -0.6875 3.6875 -0.6875 C 4.4375 -0.6875 5 -0.820312 5.375 -1.09375 C 5.75 -1.375 5.9375 -1.734375 5.9375 -2.171875 C 5.9375 -2.503906 5.832031 -2.769531 5.625 -2.96875 C 5.425781 -3.175781 5.175781 -3.332031 4.875 -3.4375 C 4.582031 -3.539062 4.171875 -3.660156 3.640625 -3.796875 C 3.015625 -3.953125 2.515625 -4.101562 2.140625 -4.25 C 1.765625 -4.394531 1.441406 -4.617188 1.171875 -4.921875 C 0.898438 -5.234375 0.765625 -5.648438 0.765625 -6.171875 C 0.765625 -6.585938 0.875 -6.96875 1.09375 -7.3125 C 1.320312 -7.664062 1.664062 -7.945312 2.125 -8.15625 C 2.59375 -8.363281 3.171875 -8.46875 3.859375 -8.46875 C 4.335938 -8.46875 4.804688 -8.398438 5.265625 -8.265625 C 5.734375 -8.140625 6.132812 -7.960938 6.46875 -7.734375 L 6.171875 -7.015625 C 5.816406 -7.253906 5.4375 -7.429688 5.03125 -7.546875 C 4.632812 -7.660156 4.242188 -7.71875 3.859375 -7.71875 C 3.128906 -7.71875 2.578125 -7.570312 2.203125 -7.28125 C 1.828125 -7 1.640625 -6.632812 1.640625 -6.1875 C 1.640625 -5.851562 1.738281 -5.582031 1.9375 -5.375 C 2.144531 -5.175781 2.40625 -5.019531 2.71875 -4.90625 C 3.03125 -4.800781 3.441406 -4.6875 3.953125 -4.5625 C 4.578125 -4.40625 5.078125 -4.253906 5.453125 -4.109375 C 5.835938 -3.960938 6.160156 -3.738281 6.421875 -3.4375 C 6.679688 -3.132812 6.8125 -2.726562 6.8125 -2.21875 C 6.8125 -1.789062 6.695312 -1.40625 6.46875 -1.0625 C 6.238281 -0.71875 5.890625 -0.441406 5.421875 -0.234375 C 4.953125 -0.0234375 4.375 0.078125 3.6875 0.078125 Z M 3.6875 0.078125" transform="translate(159.263 300.399)"/></g></g></g><g fill="#FFF"><g><g><path d="M 7.375 0.125 L 6.21875 -1.0625 C 5.5 -0.300781 4.5625 0.078125 3.40625 0.078125 C 2.863281 0.078125 2.378906 -0.0078125 1.953125 -0.1875 C 1.523438 -0.375 1.191406 -0.628906 0.953125 -0.953125 C 0.710938 -1.273438 0.59375 -1.644531 0.59375 -2.0625 C 0.59375 -2.5625 0.75 -3.007812 1.0625 -3.40625 C 1.382812 -3.8125 1.929688 -4.238281 2.703125 -4.6875 C 2.296875 -5.09375 2.015625 -5.441406 1.859375 -5.734375 C 1.710938 -6.035156 1.640625 -6.347656 1.640625 -6.671875 C 1.640625 -7.203125 1.832031 -7.628906 2.21875 -7.953125 C 2.601562 -8.285156 3.117188 -8.453125 3.765625 -8.453125 C 4.367188 -8.453125 4.84375 -8.304688 5.1875 -8.015625 C 5.539062 -7.722656 5.71875 -7.316406 5.71875 -6.796875 C 5.71875 -6.378906 5.578125 -6.003906 5.296875 -5.671875 C 5.023438 -5.335938 4.546875 -4.972656 3.859375 -4.578125 L 6.15625 -2.203125 C 6.414062 -2.648438 6.601562 -3.1875 6.71875 -3.8125 L 7.421875 -3.59375 C 7.265625 -2.84375 7.015625 -2.203125 6.671875 -1.671875 L 7.875 -0.4375 Z M 3.765625 -7.828125 C 3.347656 -7.828125 3.019531 -7.722656 2.78125 -7.515625 C 2.550781 -7.304688 2.4375 -7.03125 2.4375 -6.6875 C 2.4375 -6.4375 2.5 -6.195312 2.625 -5.96875 C 2.75 -5.75 3.003906 -5.445312 3.390625 -5.0625 C 3.992188 -5.414062 4.410156 -5.71875 4.640625 -5.96875 C 4.867188 -6.21875 4.984375 -6.488281 4.984375 -6.78125 C 4.984375 -7.101562 4.875 -7.359375 4.65625 -7.546875 C 4.445312 -7.734375 4.148438 -7.828125 3.765625 -7.828125 Z M 3.453125 -0.640625 C 4.378906 -0.640625 5.132812 -0.953125 5.71875 -1.578125 L 3.1875 -4.1875 C 2.519531 -3.8125 2.054688 -3.472656 1.796875 -3.171875 C 1.546875 -2.867188 1.421875 -2.523438 1.421875 -2.140625 C 1.421875 -1.691406 1.609375 -1.328125 1.984375 -1.046875 C 2.359375 -0.773438 2.847656 -0.640625 3.453125 -0.640625 Z M 3.453125 -0.640625" transform="translate(170.267 300.399)"/></g></g></g><g fill="#FFF"><g><g><path d="M 1.375 -8.40625 L 4.78125 -8.40625 C 5.675781 -8.40625 6.460938 -8.222656 7.140625 -7.859375 C 7.816406 -7.503906 8.34375 -7.007812 8.71875 -6.375 C 9.09375 -5.738281 9.28125 -5.015625 9.28125 -4.203125 C 9.28125 -3.378906 9.09375 -2.648438 8.71875 -2.015625 C 8.34375 -1.378906 7.816406 -0.882812 7.140625 -0.53125 C 6.460938 -0.175781 5.675781 0 4.78125 0 L 1.375 0 Z M 4.734375 -0.765625 C 5.472656 -0.765625 6.117188 -0.910156 6.671875 -1.203125 C 7.222656 -1.492188 7.648438 -1.894531 7.953125 -2.40625 C 8.253906 -2.925781 8.40625 -3.523438 8.40625 -4.203125 C 8.40625 -4.867188 8.253906 -5.457031 7.953125 -5.96875 C 7.648438 -6.488281 7.222656 -6.894531 6.671875 -7.1875 C 6.117188 -7.476562 5.472656 -7.625 4.734375 -7.625 L 2.25 -7.625 L 2.25 -0.765625 Z M 4.734375 -0.765625" transform="translate(188.687 300.399)"/></g></g></g><g fill="#FFF"><g><g><path d="M 6.640625 -2.25 L 1.953125 -2.25 L 0.953125 0 L 0.03125 0 L 3.859375 -8.40625 L 4.734375 -8.40625 L 8.578125 0 L 7.640625 0 Z M 6.3125 -2.96875 L 4.296875 -7.46875 L 2.28125 -2.96875 Z M 6.3125 -2.96875" transform="translate(202.223 300.399)"/></g></g></g><g fill="#FFF"><g><g><path d="M 3.6875 0.078125 C 3.0625 0.078125 2.460938 -0.0195312 1.890625 -0.21875 C 1.316406 -0.425781 0.875 -0.691406 0.5625 -1.015625 L 0.90625 -1.703125 C 1.21875 -1.398438 1.625 -1.15625 2.125 -0.96875 C 2.625 -0.78125 3.144531 -0.6875 3.6875 -0.6875 C 4.4375 -0.6875 5 -0.820312 5.375 -1.09375 C 5.75 -1.375 5.9375 -1.734375 5.9375 -2.171875 C 5.9375 -2.503906 5.832031 -2.769531 5.625 -2.96875 C 5.425781 -3.175781 5.175781 -3.332031 4.875 -3.4375 C 4.582031 -3.539062 4.171875 -3.660156 3.640625 -3.796875 C 3.015625 -3.953125 2.515625 -4.101562 2.140625 -4.25 C 1.765625 -4.394531 1.441406 -4.617188 1.171875 -4.921875 C 0.898438 -5.234375 0.765625 -5.648438 0.765625 -6.171875 C 0.765625 -6.585938 0.875 -6.96875 1.09375 -7.3125 C 1.320312 -7.664062 1.664062 -7.945312 2.125 -8.15625 C 2.59375 -8.363281 3.171875 -8.46875 3.859375 -8.46875 C 4.335938 -8.46875 4.804688 -8.398438 5.265625 -8.265625 C 5.734375 -8.140625 6.132812 -7.960938 6.46875 -7.734375 L 6.171875 -7.015625 C 5.816406 -7.253906 5.4375 -7.429688 5.03125 -7.546875 C 4.632812 -7.660156 4.242188 -7.71875 3.859375 -7.71875 C 3.128906 -7.71875 2.578125 -7.570312 2.203125 -7.28125 C 1.828125 -7 1.640625 -6.632812 1.640625 -6.1875 C 1.640625 -5.851562 1.738281 -5.582031 1.9375 -5.375 C 2.144531 -5.175781 2.40625 -5.019531 2.71875 -4.90625 C 3.03125 -4.800781 3.441406 -4.6875 3.953125 -4.5625 C 4.578125 -4.40625 5.078125 -4.253906 5.453125 -4.109375 C 5.835938 -3.960938 6.160156 -3.738281 6.421875 -3.4375 C 6.679688 -3.132812 6.8125 -2.726562 6.8125 -2.21875 C 6.8125 -1.789062 6.695312 -1.40625 6.46875 -1.0625 C 6.238281 -0.71875 5.890625 -0.441406 5.421875 -0.234375 C 4.953125 -0.0234375 4.375 0.078125 3.6875 0.078125 Z M 3.6875 0.078125" transform="translate(214.452 300.399)"/></g></g></g><g fill="#FFF"><g><g><path d="M 8.390625 -8.40625 L 8.390625 0 L 7.515625 0 L 7.515625 -3.875 L 2.25 -3.875 L 2.25 0 L 1.375 0 L 1.375 -8.40625 L 2.25 -8.40625 L 2.25 -4.65625 L 7.515625 -4.65625 L 7.515625 -8.40625 Z M 8.390625 -8.40625" transform="translate(225.456 300.399)"/></g></g></g><g fill="#FFF"><g><g><path d="M 6.65625 -4.328125 C 7.207031 -4.210938 7.632812 -3.972656 7.9375 -3.609375 C 8.238281 -3.253906 8.390625 -2.800781 8.390625 -2.25 C 8.390625 -1.519531 8.125 -0.960938 7.59375 -0.578125 C 7.0625 -0.191406 6.273438 0 5.234375 0 L 1.375 0 L 1.375 -8.40625 L 4.984375 -8.40625 C 5.921875 -8.40625 6.644531 -8.210938 7.15625 -7.828125 C 7.675781 -7.453125 7.9375 -6.921875 7.9375 -6.234375 C 7.9375 -5.773438 7.820312 -5.382812 7.59375 -5.0625 C 7.375 -4.738281 7.0625 -4.492188 6.65625 -4.328125 Z M 2.25 -7.671875 L 2.25 -4.625 L 4.9375 -4.625 C 5.613281 -4.625 6.132812 -4.753906 6.5 -5.015625 C 6.875 -5.273438 7.0625 -5.648438 7.0625 -6.140625 C 7.0625 -6.640625 6.875 -7.019531 6.5 -7.28125 C 6.132812 -7.539062 5.613281 -7.671875 4.9375 -7.671875 Z M 5.21875 -0.734375 C 5.96875 -0.734375 6.535156 -0.859375 6.921875 -1.109375 C 7.304688 -1.367188 7.5 -1.769531 7.5 -2.3125 C 7.5 -3.363281 6.738281 -3.890625 5.21875 -3.890625 L 2.25 -3.890625 L 2.25 -0.734375 Z M 5.21875 -0.734375" transform="translate(238.836 300.399)"/></g></g></g><g fill="#FFF"><g><g><path d="M 5.046875 0.078125 C 4.210938 0.078125 3.457031 -0.109375 2.78125 -0.484375 C 2.101562 -0.859375 1.570312 -1.367188 1.1875 -2.015625 C 0.8125 -2.660156 0.625 -3.390625 0.625 -4.203125 C 0.625 -5.003906 0.8125 -5.726562 1.1875 -6.375 C 1.570312 -7.03125 2.101562 -7.539062 2.78125 -7.90625 C 3.457031 -8.28125 4.210938 -8.46875 5.046875 -8.46875 C 5.867188 -8.46875 6.613281 -8.285156 7.28125 -7.921875 C 7.957031 -7.554688 8.484375 -7.046875 8.859375 -6.390625 C 9.242188 -5.734375 9.4375 -5.003906 9.4375 -4.203125 C 9.4375 -3.390625 9.242188 -2.65625 8.859375 -2 C 8.484375 -1.351562 7.957031 -0.84375 7.28125 -0.46875 C 6.613281 -0.101562 5.867188 0.078125 5.046875 0.078125 Z M 5.046875 -0.71875 C 5.703125 -0.71875 6.296875 -0.867188 6.828125 -1.171875 C 7.367188 -1.472656 7.789062 -1.890625 8.09375 -2.421875 C 8.40625 -2.953125 8.5625 -3.546875 8.5625 -4.203125 C 8.5625 -4.859375 8.40625 -5.453125 8.09375 -5.984375 C 7.789062 -6.515625 7.367188 -6.929688 6.828125 -7.234375 C 6.296875 -7.535156 5.703125 -7.6875 5.046875 -7.6875 C 4.378906 -7.6875 3.773438 -7.535156 3.234375 -7.234375 C 2.691406 -6.929688 2.265625 -6.515625 1.953125 -5.984375 C 1.648438 -5.453125 1.5 -4.859375 1.5 -4.203125 C 1.5 -3.546875 1.648438 -2.953125 1.953125 -2.421875 C 2.265625 -1.890625 2.691406 -1.472656 3.234375 -1.171875 C 3.773438 -0.867188 4.378906 -0.71875 5.046875 -0.71875 Z M 5.046875 -0.71875" transform="translate(251.508 300.399)"/></g></g></g><g fill="#FFF"><g><g><path d="M 6.640625 -2.25 L 1.953125 -2.25 L 0.953125 0 L 0.03125 0 L 3.859375 -8.40625 L 4.734375 -8.40625 L 8.578125 0 L 7.640625 0 Z M 6.3125 -2.96875 L 4.296875 -7.46875 L 2.28125 -2.96875 Z M 6.3125 -2.96875" transform="translate(265.2 300.399)"/></g></g></g><g fill="#FFF"><g><g><path d="M 7.109375 0 L 5.1875 -2.703125 C 4.96875 -2.671875 4.742188 -2.65625 4.515625 -2.65625 L 2.25 -2.65625 L 2.25 0 L 1.375 0 L 1.375 -8.40625 L 4.515625 -8.40625 C 5.585938 -8.40625 6.425781 -8.144531 7.03125 -7.625 C 7.632812 -7.113281 7.9375 -6.410156 7.9375 -5.515625 C 7.9375 -4.859375 7.769531 -4.304688 7.4375 -3.859375 C 7.113281 -3.410156 6.644531 -3.082031 6.03125 -2.875 L 8.078125 0 Z M 4.484375 -3.421875 C 5.316406 -3.421875 5.953125 -3.601562 6.390625 -3.96875 C 6.835938 -4.34375 7.0625 -4.859375 7.0625 -5.515625 C 7.0625 -6.203125 6.835938 -6.722656 6.390625 -7.078125 C 5.953125 -7.441406 5.316406 -7.625 4.484375 -7.625 L 2.25 -7.625 L 2.25 -3.421875 Z M 4.484375 -3.421875" transform="translate(277.428 300.399)"/></g></g></g><g fill="#FFF"><g><g><path d="M 1.375 -8.40625 L 4.78125 -8.40625 C 5.675781 -8.40625 6.460938 -8.222656 7.140625 -7.859375 C 7.816406 -7.503906 8.34375 -7.007812 8.71875 -6.375 C 9.09375 -5.738281 9.28125 -5.015625 9.28125 -4.203125 C 9.28125 -3.378906 9.09375 -2.648438 8.71875 -2.015625 C 8.34375 -1.378906 7.816406 -0.882812 7.140625 -0.53125 C 6.460938 -0.175781 5.675781 0 4.78125 0 L 1.375 0 Z M 4.734375 -0.765625 C 5.472656 -0.765625 6.117188 -0.910156 6.671875 -1.203125 C 7.222656 -1.492188 7.648438 -1.894531 7.953125 -2.40625 C 8.253906 -2.925781 8.40625 -3.523438 8.40625 -4.203125 C 8.40625 -4.867188 8.253906 -5.457031 7.953125 -5.96875 C 7.648438 -6.488281 7.222656 -6.894531 6.671875 -7.1875 C 6.117188 -7.476562 5.472656 -7.625 4.734375 -7.625 L 2.25 -7.625 L 2.25 -0.765625 Z M 4.734375 -0.765625" transform="translate(289.728 300.399)"/></g></g></g><g fill="#FFF"><g><g><path d="M 3.6875 0.078125 C 3.0625 0.078125 2.460938 -0.0195312 1.890625 -0.21875 C 1.316406 -0.425781 0.875 -0.691406 0.5625 -1.015625 L 0.90625 -1.703125 C 1.21875 -1.398438 1.625 -1.15625 2.125 -0.96875 C 2.625 -0.78125 3.144531 -0.6875 3.6875 -0.6875 C 4.4375 -0.6875 5 -0.820312 5.375 -1.09375 C 5.75 -1.375 5.9375 -1.734375 5.9375 -2.171875 C 5.9375 -2.503906 5.832031 -2.769531 5.625 -2.96875 C 5.425781 -3.175781 5.175781 -3.332031 4.875 -3.4375 C 4.582031 -3.539062 4.171875 -3.660156 3.640625 -3.796875 C 3.015625 -3.953125 2.515625 -4.101562 2.140625 -4.25 C 1.765625 -4.394531 1.441406 -4.617188 1.171875 -4.921875 C 0.898438 -5.234375 0.765625 -5.648438 0.765625 -6.171875 C 0.765625 -6.585938 0.875 -6.96875 1.09375 -7.3125 C 1.320312 -7.664062 1.664062 -7.945312 2.125 -8.15625 C 2.59375 -8.363281 3.171875 -8.46875 3.859375 -8.46875 C 4.335938 -8.46875 4.804688 -8.398438 5.265625 -8.265625 C 5.734375 -8.140625 6.132812 -7.960938 6.46875 -7.734375 L 6.171875 -7.015625 C 5.816406 -7.253906 5.4375 -7.429688 5.03125 -7.546875 C 4.632812 -7.660156 4.242188 -7.71875 3.859375 -7.71875 C 3.128906 -7.71875 2.578125 -7.570312 2.203125 -7.28125 C 1.828125 -7 1.640625 -6.632812 1.640625 -6.1875 C 1.640625 -5.851562 1.738281 -5.582031 1.9375 -5.375 C 2.144531 -5.175781 2.40625 -5.019531 2.71875 -4.90625 C 3.03125 -4.800781 3.441406 -4.6875 3.953125 -4.5625 C 4.578125 -4.40625 5.078125 -4.253906 5.453125 -4.109375 C 5.835938 -3.960938 6.160156 -3.738281 6.421875 -3.4375 C 6.679688 -3.132812 6.8125 -2.726562 6.8125 -2.21875 C 6.8125 -1.789062 6.695312 -1.40625 6.46875 -1.0625 C 6.238281 -0.71875 5.890625 -0.441406 5.421875 -0.234375 C 4.953125 -0.0234375 4.375 0.078125 3.6875 0.078125 Z M 3.6875 0.078125" transform="translate(303.264 300.399)"/></g></g></g></svg>