<svg xmlns="http://www.w3.org/2000/svg" xmlns:xlink="http://www.w3.org/1999/xlink" width="200" zoomAndPan="magnify" viewBox="0 0 150 38.999999" height="52" preserveAspectRatio="xMidYMid meet" version="1.0"><defs><g/><clipPath id="id1"><path d="M 7 5.050781 L 30 5.050781 L 30 33 L 7 33 Z M 7 5.050781 " clip-rule="nonzero"/></clipPath><clipPath id="id2"><path d="M 6.578125 5.050781 L 30.578125 5.050781 L 30.578125 33.550781 L 6.578125 33.550781 Z M 6.578125 5.050781 " clip-rule="nonzero"/></clipPath><clipPath id="id3"><path d="M 16.328125 15.226562 L 21 15.226562 L 21 19.359375 L 16.328125 19.359375 Z M 16.328125 15.226562 " clip-rule="nonzero"/></clipPath><clipPath id="id4"><path d="M 17 16 L 22.621094 16 L 22.621094 19 L 17 19 Z M 17 16 " clip-rule="nonzero"/></clipPath><clipPath id="id5"><path d="M 14.160156 14.132812 L 23.699219 14.132812 L 23.699219 16.296875 L 14.160156 16.296875 Z M 14.160156 14.132812 " clip-rule="nonzero"/></clipPath><clipPath id="id6"><path d="M 13.554688 9.132812 L 18 9.132812 L 18 14 L 13.554688 14 Z M 13.554688 9.132812 " clip-rule="nonzero"/></clipPath><clipPath id="id7"><path d="M 20 9.132812 L 23.390625 9.132812 L 23.390625 12 L 20 12 Z M 20 9.132812 " clip-rule="nonzero"/></clipPath><clipPath id="id8"><path d="M 17 9.132812 L 20 9.132812 L 20 12 L 17 12 Z M 17 9.132812 " clip-rule="nonzero"/></clipPath><clipPath id="id9"><path d="M 14 9.132812 L 23 9.132812 L 23 16 L 14 16 Z M 14 9.132812 " clip-rule="nonzero"/></clipPath><clipPath id="id10"><path d="M 15 15 L 22 15 L 22 16.707031 L 15 16.707031 Z M 15 15 " clip-rule="nonzero"/></clipPath><clipPath id="id11"><path d="M 13.554688 9.132812 L 16 9.132812 L 16 12 L 13.554688 12 Z M 13.554688 9.132812 " clip-rule="nonzero"/></clipPath><clipPath id="id12"><path d="M 21 9.132812 L 23.390625 9.132812 L 23.390625 12 L 21 12 Z M 21 9.132812 " clip-rule="nonzero"/></clipPath><clipPath id="id13"><path d="M 13.554688 11 L 15 11 L 15 13 L 13.554688 13 Z M 13.554688 11 " clip-rule="nonzero"/></clipPath><clipPath id="id14"><path d="M 22 11 L 23.390625 11 L 23.390625 13 L 22 13 Z M 22 11 " clip-rule="nonzero"/></clipPath><clipPath id="id15"><path d="M 16 9.132812 L 18 9.132812 L 18 11 L 16 11 Z M 16 9.132812 " clip-rule="nonzero"/></clipPath><clipPath id="id16"><path d="M 19 9.132812 L 21 9.132812 L 21 11 L 19 11 Z M 19 9.132812 " clip-rule="nonzero"/></clipPath><clipPath id="id17"><path d="M 18 15 L 20 15 L 20 16.707031 L 18 16.707031 Z M 18 15 " clip-rule="nonzero"/></clipPath></defs><g fill="#000000" fill-opacity="1"><g transform="translate(35.123437, 27.127348)"><g><path d="M 0.5 -9 C 0.5 -11.59375 1.382812 -13.789062 3.15625 -15.59375 C 4.925781 -17.394531 7.0625 -18.296875 9.5625 -18.296875 C 12.070312 -18.296875 14.203125 -17.398438 15.953125 -15.609375 C 17.710938 -13.816406 18.59375 -11.613281 18.59375 -9 C 18.59375 -6.363281 17.726562 -4.148438 16 -2.359375 C 14.28125 -0.566406 12.132812 0.328125 9.5625 0.328125 C 6.9375 0.328125 4.769531 -0.5625 3.0625 -2.34375 C 1.351562 -4.125 0.5 -6.34375 0.5 -9 Z M 4.921875 -9 C 4.921875 -8.050781 5.066406 -7.1875 5.359375 -6.40625 C 5.648438 -5.632812 6.15625 -4.976562 6.875 -4.4375 C 7.601562 -3.90625 8.5 -3.640625 9.5625 -3.640625 C 11.082031 -3.640625 12.226562 -4.160156 13 -5.203125 C 13.78125 -6.253906 14.171875 -7.519531 14.171875 -9 C 14.171875 -10.46875 13.773438 -11.726562 12.984375 -12.78125 C 12.203125 -13.832031 11.0625 -14.359375 9.5625 -14.359375 C 8.082031 -14.359375 6.9375 -13.832031 6.125 -12.78125 C 5.320312 -11.726562 4.921875 -10.46875 4.921875 -9 Z M 4.921875 -9 "/></g></g></g><g fill="#000000" fill-opacity="1"><g transform="translate(54.228946, 27.127348)"><g><path d="M 5.40625 -11.15625 L 5.40625 0 L 1.3125 0 L 1.3125 -17.96875 L 5.40625 -17.96875 L 12.546875 -6.8125 L 12.59375 -6.8125 L 12.59375 -17.96875 L 16.6875 -17.96875 L 16.6875 0 L 12.59375 0 L 5.4375 -11.15625 Z M 5.40625 -11.15625 "/></g></g></g><g fill="#000000" fill-opacity="1"><g transform="translate(72.223418, 27.127348)"><g><path d="M 11.59375 -17.96875 L 11.59375 -14.375 L 5.40625 -14.375 L 5.40625 -10.796875 L 11.328125 -10.796875 L 11.328125 -7.203125 L 5.40625 -7.203125 L 5.40625 -3.59375 L 11.59375 -3.59375 L 11.59375 0 L 1.3125 0 L 1.3125 -17.96875 Z M 11.59375 -17.96875 "/></g></g></g><g fill="#000000" fill-opacity="1"><g transform="translate(84.858758, 27.127348)"><g><path d="M 7.921875 -18.296875 C 8.898438 -18.296875 9.851562 -18.15625 10.78125 -17.875 C 11.707031 -17.59375 12.394531 -17.3125 12.84375 -17.03125 L 13.5 -16.59375 L 11.84375 -13.328125 C 11.71875 -13.410156 11.535156 -13.519531 11.296875 -13.65625 C 11.066406 -13.800781 10.632812 -13.988281 10 -14.21875 C 9.363281 -14.457031 8.769531 -14.578125 8.21875 -14.578125 C 7.53125 -14.578125 7 -14.429688 6.625 -14.140625 C 6.257812 -13.847656 6.078125 -13.453125 6.078125 -12.953125 C 6.078125 -12.710938 6.160156 -12.484375 6.328125 -12.265625 C 6.503906 -12.054688 6.800781 -11.832031 7.21875 -11.59375 C 7.644531 -11.351562 8.019531 -11.160156 8.34375 -11.015625 C 8.664062 -10.867188 9.160156 -10.65625 9.828125 -10.375 C 10.984375 -9.875 11.972656 -9.195312 12.796875 -8.34375 C 13.617188 -7.5 14.03125 -6.539062 14.03125 -5.46875 C 14.03125 -4.4375 13.84375 -3.535156 13.46875 -2.765625 C 13.101562 -1.992188 12.597656 -1.390625 11.953125 -0.953125 C 11.304688 -0.523438 10.585938 -0.207031 9.796875 0 C 9.015625 0.21875 8.164062 0.328125 7.25 0.328125 C 6.46875 0.328125 5.695312 0.242188 4.9375 0.078125 C 4.1875 -0.078125 3.554688 -0.273438 3.046875 -0.515625 C 2.535156 -0.753906 2.078125 -0.988281 1.671875 -1.21875 C 1.265625 -1.445312 0.96875 -1.644531 0.78125 -1.8125 L 0.5 -2.046875 L 2.546875 -5.484375 C 2.722656 -5.335938 2.960938 -5.148438 3.265625 -4.921875 C 3.566406 -4.703125 4.109375 -4.40625 4.890625 -4.03125 C 5.671875 -3.65625 6.359375 -3.46875 6.953125 -3.46875 C 8.679688 -3.46875 9.546875 -4.054688 9.546875 -5.234375 C 9.546875 -5.472656 9.484375 -5.695312 9.359375 -5.90625 C 9.234375 -6.125 9.015625 -6.335938 8.703125 -6.546875 C 8.390625 -6.753906 8.113281 -6.921875 7.875 -7.046875 C 7.632812 -7.171875 7.238281 -7.359375 6.6875 -7.609375 C 6.144531 -7.867188 5.742188 -8.0625 5.484375 -8.1875 C 4.398438 -8.726562 3.554688 -9.398438 2.953125 -10.203125 C 2.359375 -11.003906 2.0625 -11.875 2.0625 -12.8125 C 2.0625 -14.414062 2.65625 -15.726562 3.84375 -16.75 C 5.039062 -17.78125 6.398438 -18.296875 7.921875 -18.296875 Z M 7.921875 -18.296875 "/></g></g></g><g fill="#000000" fill-opacity="1"><g transform="translate(99.498337, 27.127348)"><g><path d="M 0.171875 -14.375 L 0.171875 -17.96875 L 12.8125 -17.96875 L 12.8125 -14.375 L 8.53125 -14.375 L 8.53125 0 L 4.4375 0 L 4.4375 -14.375 Z M 0.171875 -14.375 "/></g></g></g><g fill="#000000" fill-opacity="1"><g transform="translate(112.482242, 27.127348)"><g><path d="M 0.5 -9 C 0.5 -11.59375 1.382812 -13.789062 3.15625 -15.59375 C 4.925781 -17.394531 7.0625 -18.296875 9.5625 -18.296875 C 12.070312 -18.296875 14.203125 -17.398438 15.953125 -15.609375 C 17.710938 -13.816406 18.59375 -11.613281 18.59375 -9 C 18.59375 -6.363281 17.726562 -4.148438 16 -2.359375 C 14.28125 -0.566406 12.132812 0.328125 9.5625 0.328125 C 6.9375 0.328125 4.769531 -0.5625 3.0625 -2.34375 C 1.351562 -4.125 0.5 -6.34375 0.5 -9 Z M 4.921875 -9 C 4.921875 -8.050781 5.066406 -7.1875 5.359375 -6.40625 C 5.648438 -5.632812 6.15625 -4.976562 6.875 -4.4375 C 7.601562 -3.90625 8.5 -3.640625 9.5625 -3.640625 C 11.082031 -3.640625 12.226562 -4.160156 13 -5.203125 C 13.78125 -6.253906 14.171875 -7.519531 14.171875 -9 C 14.171875 -10.46875 13.773438 -11.726562 12.984375 -12.78125 C 12.203125 -13.832031 11.0625 -14.359375 9.5625 -14.359375 C 8.082031 -14.359375 6.9375 -13.832031 6.125 -12.78125 C 5.320312 -11.726562 4.921875 -10.46875 4.921875 -9 Z M 4.921875 -9 "/></g></g></g><g fill="#000000" fill-opacity="1"><g transform="translate(131.587751, 27.127348)"><g><path d="M 1.3125 -17.96875 L 7.859375 -17.96875 C 9.691406 -17.96875 11.171875 -17.492188 12.296875 -16.546875 C 13.429688 -15.609375 14 -14.238281 14 -12.4375 C 14 -10.632812 13.425781 -9.222656 12.28125 -8.203125 C 11.132812 -7.179688 9.660156 -6.671875 7.859375 -6.671875 L 5.40625 -6.671875 L 5.40625 0 L 1.3125 0 Z M 5.40625 -9.9375 L 6.5625 -9.9375 C 7.46875 -9.9375 8.210938 -10.117188 8.796875 -10.484375 C 9.390625 -10.859375 9.6875 -11.46875 9.6875 -12.3125 C 9.6875 -13.164062 9.390625 -13.773438 8.796875 -14.140625 C 8.210938 -14.515625 7.46875 -14.703125 6.5625 -14.703125 L 5.40625 -14.703125 Z M 5.40625 -9.9375 "/></g></g></g><g clip-path="url(#id1)"><path fill="#fbbc05" d="M 18.582031 5.71875 L 7.277344 5.71875 L 7.277344 18.5625 C 8.851562 28.691406 18.582031 32.828125 18.582031 32.828125 C 18.582031 32.828125 28.308594 28.691406 29.882812 18.5625 L 29.882812 5.71875 Z M 18.582031 5.71875 " fill-opacity="1" fill-rule="nonzero"/></g><g clip-path="url(#id2)"><path fill="#000000" d="M 18.582031 33.554688 L 18.320312 33.441406 C 17.90625 33.269531 8.230469 29.039062 6.617188 18.664062 L 6.609375 18.5625 L 6.609375 5.050781 L 30.550781 5.050781 L 30.542969 18.664062 C 28.929688 29.039062 19.253906 33.269531 18.84375 33.441406 Z M 7.949219 18.507812 C 9.324219 27.210938 17.050781 31.351562 18.578125 32.09375 C 20.109375 31.351562 27.835938 27.191406 29.214844 18.507812 L 29.214844 6.386719 L 7.949219 6.386719 Z M 7.949219 18.507812 " fill-opacity="1" fill-rule="nonzero"/></g><path fill="#000000" d="M 18.582031 30.964844 L 18.515625 30.9375 C 18.429688 30.898438 9.855469 27.15625 8.472656 18.253906 L 8.472656 6.765625 L 28.691406 6.765625 L 28.691406 18.230469 C 27.304688 27.15625 18.734375 30.898438 18.644531 30.9375 Z M 8.804688 7.097656 L 8.804688 18.230469 C 10.09375 26.511719 17.785156 30.234375 18.582031 30.601562 C 19.375 30.234375 27.066406 26.507812 28.359375 18.203125 L 28.355469 7.097656 Z M 8.804688 7.097656 " fill-opacity="1" fill-rule="nonzero"/><g clip-path="url(#id3)"><path fill="#000000" d="M 16.757812 17.472656 C 16.75 17.414062 16.746094 17.355469 16.746094 17.292969 C 16.746094 17.230469 16.75 17.171875 16.757812 17.113281 L 16.328125 16.898438 C 16.363281 16.730469 16.414062 16.570312 16.484375 16.421875 L 16.960938 16.496094 C 17.023438 16.390625 17.09375 16.292969 17.175781 16.203125 L 16.957031 15.78125 C 17.082031 15.667969 17.21875 15.570312 17.367188 15.488281 L 17.707031 15.824219 C 17.816406 15.773438 17.933594 15.738281 18.054688 15.710938 L 18.128906 15.242188 C 18.210938 15.234375 18.296875 15.226562 18.382812 15.226562 C 18.46875 15.226562 18.550781 15.234375 18.636719 15.242188 L 18.710938 15.710938 C 18.832031 15.738281 18.949219 15.773438 19.058594 15.824219 L 19.398438 15.488281 C 19.546875 15.570312 19.683594 15.667969 19.808594 15.78125 L 19.589844 16.203125 C 19.671875 16.292969 19.742188 16.390625 19.804688 16.496094 L 20.277344 16.421875 C 20.324219 16.515625 20.363281 16.613281 20.390625 16.71875 L 19.363281 16.71875 C 19.164062 16.386719 18.796875 16.167969 18.382812 16.167969 C 17.753906 16.167969 17.242188 16.671875 17.242188 17.292969 C 17.242188 17.914062 17.753906 18.417969 18.382812 18.417969 C 18.796875 18.417969 19.164062 18.199219 19.363281 17.867188 L 20.390625 17.867188 C 20.363281 17.96875 20.324219 18.070312 20.277344 18.164062 L 19.804688 18.089844 C 19.742188 18.195312 19.671875 18.292969 19.589844 18.378906 L 19.808594 18.804688 C 19.683594 18.917969 19.546875 19.015625 19.398438 19.097656 L 19.058594 18.761719 C 18.949219 18.8125 18.832031 18.847656 18.710938 18.875 L 18.636719 19.34375 C 18.550781 19.351562 18.46875 19.359375 18.382812 19.359375 C 18.296875 19.359375 18.210938 19.351562 18.128906 19.34375 L 18.054688 18.875 C 17.933594 18.847656 17.816406 18.8125 17.707031 18.761719 L 17.367188 19.097656 C 17.21875 19.015625 17.082031 18.917969 16.957031 18.804688 L 17.175781 18.378906 C 17.09375 18.292969 17.023438 18.195312 16.960938 18.089844 L 16.484375 18.164062 C 16.414062 18.015625 16.363281 17.855469 16.328125 17.6875 L 16.757812 17.472656 " fill-opacity="1" fill-rule="nonzero"/></g><g clip-path="url(#id4)"><path fill="#000000" d="M 21.5 17.265625 L 21.730469 16.867188 C 21.742188 16.851562 21.757812 16.839844 21.78125 16.839844 L 22.621094 16.839844 C 22.472656 16.621094 22.21875 16.476562 21.929688 16.476562 C 21.625 16.476562 21.359375 16.636719 21.214844 16.882812 L 17.734375 16.882812 C 17.679688 16.882812 17.628906 16.929688 17.628906 16.984375 C 17.628906 17.042969 17.679688 17.089844 17.734375 17.089844 L 19.511719 17.089844 C 19.546875 17.089844 19.574219 17.117188 19.574219 17.148438 C 19.574219 17.179688 19.546875 17.207031 19.511719 17.207031 L 18.296875 17.207031 C 18.25 17.207031 18.210938 17.246094 18.210938 17.292969 C 18.210938 17.339844 18.25 17.378906 18.296875 17.378906 L 19.511719 17.378906 C 19.546875 17.378906 19.574219 17.402344 19.574219 17.4375 C 19.574219 17.46875 19.546875 17.496094 19.511719 17.496094 L 18.964844 17.496094 C 18.90625 17.496094 18.859375 17.542969 18.859375 17.597656 C 18.859375 17.65625 18.90625 17.703125 18.964844 17.703125 L 21.214844 17.703125 C 21.359375 17.945312 21.625 18.109375 21.929688 18.109375 C 22.21875 18.109375 22.472656 17.964844 22.621094 17.746094 L 21.78125 17.746094 C 21.757812 17.746094 21.742188 17.734375 21.730469 17.714844 L 21.5 17.320312 C 21.488281 17.304688 21.488281 17.28125 21.5 17.265625 " fill-opacity="1" fill-rule="nonzero"/></g><g clip-path="url(#id5)"><path fill="#fbbc05" d="M 14.160156 14.132812 L 23.695312 14.132812 L 23.695312 16.296875 L 14.160156 16.296875 L 14.160156 14.132812 " fill-opacity="1" fill-rule="nonzero"/></g><path fill="#000000" d="M 20.410156 12.832031 C 20.371094 12.734375 20.351562 12.632812 20.351562 12.527344 C 20.351562 12.089844 20.683594 11.730469 21.109375 11.679688 L 19.785156 10.515625 C 19.789062 10.554688 19.789062 10.59375 19.789062 10.632812 C 19.789062 11.210938 19.320312 11.679688 18.742188 11.679688 C 18.164062 11.679688 17.691406 11.210938 17.691406 10.632812 C 17.691406 10.621094 17.691406 10.605469 17.695312 10.59375 L 16.253906 12.03125 C 16.367188 12.007812 16.484375 11.996094 16.601562 11.996094 C 17.488281 11.996094 18.21875 12.667969 18.308594 13.527344 L 18.710938 12.75 C 18.753906 12.671875 18.804688 12.597656 18.871094 12.535156 C 19.019531 12.410156 19.203125 12.367188 19.417969 12.457031 Z M 17.523438 11.386719 C 17.617188 11.386719 17.691406 11.460938 17.691406 11.554688 C 17.691406 11.648438 17.617188 11.726562 17.523438 11.726562 C 17.425781 11.726562 17.351562 11.648438 17.351562 11.554688 C 17.351562 11.460938 17.425781 11.386719 17.523438 11.386719 Z M 20.003906 11.863281 C 20.152344 11.863281 20.269531 11.980469 20.269531 12.125 C 20.269531 12.269531 20.152344 12.386719 20.003906 12.386719 C 19.859375 12.386719 19.742188 12.269531 19.742188 12.125 C 19.742188 11.980469 19.859375 11.863281 20.003906 11.863281 " fill-opacity="1" fill-rule="evenodd"/><g clip-path="url(#id6)"><path fill="#000000" d="M 17.289062 10.378906 L 16.34375 9.441406 C 16.269531 9.367188 16.152344 9.363281 16.074219 9.433594 L 13.753906 11.554688 C 13.648438 11.652344 13.691406 11.761719 13.761719 11.855469 L 14.226562 11.457031 C 14.476562 11.242188 14.859375 11.488281 14.757812 11.808594 C 15.089844 11.753906 15.273438 12.167969 15.023438 12.382812 L 14.515625 12.816406 L 14.800781 13.179688 C 14.898438 12.871094 15.066406 12.597656 15.300781 12.363281 Z M 16.210938 9.890625 C 16.355469 9.890625 16.476562 10.007812 16.476562 10.15625 C 16.476562 10.304688 16.355469 10.421875 16.210938 10.421875 C 16.0625 10.421875 15.941406 10.304688 15.941406 10.15625 C 15.941406 10.007812 16.0625 9.890625 16.210938 9.890625 " fill-opacity="1" fill-rule="evenodd"/></g><path fill="#000000" d="M 22.457031 12.84375 L 21.667969 13.851562 C 21.632812 13.898438 21.585938 13.921875 21.527344 13.925781 C 21.472656 13.929688 21.421875 13.910156 21.378906 13.871094 L 21.105469 13.597656 L 21.234375 13.597656 C 21.511719 13.597656 21.777344 13.488281 21.976562 13.292969 C 22.140625 13.128906 22.242188 12.914062 22.273438 12.6875 L 22.457031 12.84375 " fill-opacity="1" fill-rule="evenodd"/><g clip-path="url(#id7)"><path fill="#000000" d="M 20.007812 10.082031 L 20.65625 9.441406 C 20.730469 9.367188 20.847656 9.363281 20.921875 9.433594 L 23.242188 11.554688 C 23.316406 11.625 23.328125 11.738281 23.265625 11.816406 L 23.210938 11.882812 L 22.714844 11.457031 C 22.578125 11.339844 22.367188 11.355469 22.25 11.492188 C 22.171875 11.582031 22.152344 11.699219 22.183594 11.808594 C 22.15625 11.800781 22.125 11.800781 22.09375 11.804688 L 21.972656 11.820312 C 21.949219 11.792969 21.925781 11.769531 21.898438 11.746094 Z M 20.808594 9.664062 C 20.742188 9.664062 20.6875 9.71875 20.6875 9.785156 C 20.6875 9.851562 20.742188 9.90625 20.808594 9.90625 C 20.878906 9.90625 20.933594 9.851562 20.933594 9.785156 C 20.933594 9.71875 20.878906 9.664062 20.808594 9.664062 " fill-opacity="1" fill-rule="evenodd"/></g><path fill="#000000" d="M 16.628906 12.207031 C 17.472656 12.207031 18.160156 12.890625 18.160156 13.734375 C 18.160156 14.578125 17.472656 15.265625 16.628906 15.265625 C 15.78125 15.265625 15.09375 14.578125 15.09375 13.734375 C 15.09375 12.890625 15.78125 12.207031 16.628906 12.207031 Z M 16.628906 12.714844 C 16.0625 12.714844 15.605469 13.171875 15.605469 13.734375 C 15.605469 14.296875 16.0625 14.753906 16.628906 14.753906 C 17.191406 14.753906 17.648438 14.296875 17.648438 13.734375 C 17.648438 13.171875 17.191406 12.714844 16.628906 12.714844 Z M 16.628906 13.1875 C 16.324219 13.1875 16.078125 13.433594 16.078125 13.734375 C 16.078125 14.039062 16.324219 14.285156 16.628906 14.285156 C 16.929688 14.285156 17.175781 14.039062 17.175781 13.734375 C 17.175781 13.433594 16.929688 13.1875 16.628906 13.1875 " fill-opacity="1" fill-rule="evenodd"/><g clip-path="url(#id8)"><path fill="#000000" d="M 18.765625 9.796875 C 19.246094 9.796875 19.632812 10.183594 19.632812 10.660156 C 19.632812 11.136719 19.246094 11.523438 18.765625 11.523438 C 18.289062 11.523438 17.902344 11.136719 17.902344 10.660156 C 17.902344 10.183594 18.289062 9.796875 18.765625 9.796875 Z M 18.765625 10.351562 C 18.597656 10.351562 18.457031 10.488281 18.457031 10.660156 C 18.457031 10.832031 18.597656 10.96875 18.765625 10.96875 C 18.9375 10.96875 19.078125 10.832031 19.078125 10.660156 C 19.078125 10.488281 18.9375 10.351562 18.765625 10.351562 Z M 18.765625 9.953125 C 18.699219 9.953125 18.644531 10.007812 18.644531 10.074219 C 18.644531 10.144531 18.699219 10.199219 18.765625 10.199219 C 18.835938 10.199219 18.890625 10.144531 18.890625 10.074219 C 18.890625 10.007812 18.835938 9.953125 18.765625 9.953125 Z M 18.765625 11.121094 C 18.699219 11.121094 18.644531 11.175781 18.644531 11.246094 C 18.644531 11.3125 18.699219 11.367188 18.765625 11.367188 C 18.835938 11.367188 18.890625 11.3125 18.890625 11.246094 C 18.890625 11.175781 18.835938 11.121094 18.765625 11.121094 Z M 19.476562 10.660156 C 19.476562 10.59375 19.421875 10.539062 19.351562 10.539062 C 19.285156 10.539062 19.230469 10.59375 19.230469 10.660156 C 19.230469 10.726562 19.285156 10.78125 19.351562 10.78125 C 19.421875 10.78125 19.476562 10.726562 19.476562 10.660156 Z M 18.304688 10.660156 C 18.304688 10.59375 18.25 10.539062 18.183594 10.539062 C 18.113281 10.539062 18.058594 10.59375 18.058594 10.660156 C 18.058594 10.726562 18.113281 10.785156 18.183594 10.785156 C 18.25 10.785156 18.304688 10.726562 18.304688 10.660156 Z M 19.269531 10.160156 C 19.21875 10.113281 19.140625 10.113281 19.09375 10.160156 C 19.046875 10.207031 19.046875 10.285156 19.09375 10.335938 C 19.140625 10.382812 19.21875 10.382812 19.269531 10.335938 C 19.316406 10.285156 19.316406 10.207031 19.269531 10.160156 Z M 18.441406 10.988281 C 18.394531 10.9375 18.316406 10.9375 18.265625 10.988281 C 18.21875 11.035156 18.21875 11.113281 18.265625 11.160156 C 18.316406 11.207031 18.394531 11.207031 18.441406 11.160156 C 18.488281 11.113281 18.488281 11.035156 18.441406 10.988281 Z M 18.265625 10.160156 C 18.21875 10.207031 18.21875 10.285156 18.265625 10.335938 C 18.316406 10.382812 18.394531 10.382812 18.441406 10.335938 C 18.488281 10.285156 18.488281 10.207031 18.441406 10.160156 C 18.394531 10.113281 18.316406 10.113281 18.265625 10.160156 Z M 19.09375 10.988281 C 19.046875 11.035156 19.046875 11.113281 19.09375 11.160156 C 19.140625 11.207031 19.21875 11.207031 19.269531 11.160156 C 19.316406 11.113281 19.316406 11.035156 19.269531 10.988281 C 19.21875 10.9375 19.140625 10.9375 19.09375 10.988281 " fill-opacity="1" fill-rule="evenodd"/></g><path fill="#000000" d="M 21.234375 11.882812 C 21.605469 11.882812 21.902344 12.183594 21.902344 12.554688 C 21.902344 12.921875 21.605469 13.222656 21.234375 13.222656 C 20.863281 13.222656 20.5625 12.921875 20.5625 12.554688 C 20.5625 12.183594 20.863281 11.882812 21.234375 11.882812 Z M 21.234375 12.417969 C 21.160156 12.417969 21.097656 12.480469 21.097656 12.554688 C 21.097656 12.628906 21.160156 12.6875 21.234375 12.6875 C 21.308594 12.6875 21.367188 12.628906 21.367188 12.554688 C 21.367188 12.480469 21.308594 12.417969 21.234375 12.417969 Z M 21.207031 12.003906 C 21.195312 12.003906 21.1875 12.007812 21.179688 12.019531 C 21.171875 12.027344 21.167969 12.035156 21.167969 12.046875 L 21.191406 12.273438 C 21.195312 12.292969 21.210938 12.308594 21.230469 12.308594 L 21.238281 12.308594 C 21.257812 12.308594 21.273438 12.292969 21.273438 12.273438 L 21.296875 12.046875 C 21.300781 12.035156 21.296875 12.027344 21.289062 12.019531 C 21.28125 12.007812 21.269531 12.003906 21.261719 12.003906 Z M 21.207031 13.101562 L 21.261719 13.101562 C 21.269531 13.101562 21.28125 13.097656 21.289062 13.089844 C 21.296875 13.078125 21.300781 13.070312 21.296875 13.058594 L 21.273438 12.832031 C 21.273438 12.8125 21.257812 12.796875 21.238281 12.796875 L 21.230469 12.796875 C 21.210938 12.796875 21.195312 12.8125 21.191406 12.832031 L 21.167969 13.058594 C 21.167969 13.070312 21.171875 13.078125 21.179688 13.089844 C 21.1875 13.097656 21.195312 13.101562 21.207031 13.101562 Z M 21.78125 12.527344 C 21.78125 12.515625 21.777344 12.503906 21.769531 12.5 C 21.761719 12.492188 21.75 12.488281 21.738281 12.488281 L 21.511719 12.511719 C 21.492188 12.511719 21.476562 12.53125 21.476562 12.550781 L 21.476562 12.554688 C 21.476562 12.578125 21.492188 12.59375 21.511719 12.59375 L 21.738281 12.617188 C 21.75 12.621094 21.761719 12.617188 21.769531 12.609375 C 21.777344 12.601562 21.78125 12.589844 21.78125 12.578125 Z M 20.683594 12.527344 L 20.683594 12.578125 C 20.683594 12.589844 20.6875 12.601562 20.699219 12.609375 C 20.707031 12.617188 20.714844 12.621094 20.726562 12.617188 L 20.953125 12.59375 C 20.972656 12.59375 20.988281 12.578125 20.988281 12.554688 L 20.988281 12.550781 C 20.988281 12.53125 20.972656 12.511719 20.953125 12.511719 L 20.726562 12.488281 C 20.714844 12.488281 20.707031 12.492188 20.699219 12.5 C 20.6875 12.503906 20.683594 12.515625 20.683594 12.527344 Z M 20.828125 12.183594 C 20.820312 12.191406 20.816406 12.203125 20.816406 12.214844 C 20.816406 12.226562 20.820312 12.234375 20.828125 12.242188 L 21.007812 12.386719 C 21.023438 12.398438 21.042969 12.398438 21.058594 12.382812 L 21.0625 12.378906 C 21.078125 12.363281 21.078125 12.34375 21.066406 12.328125 L 20.921875 12.148438 C 20.914062 12.140625 20.90625 12.136719 20.894531 12.136719 C 20.882812 12.136719 20.871094 12.140625 20.863281 12.148438 Z M 21.601562 12.960938 L 21.640625 12.921875 C 21.648438 12.914062 21.652344 12.902344 21.652344 12.890625 C 21.652344 12.882812 21.644531 12.871094 21.636719 12.863281 L 21.460938 12.722656 C 21.445312 12.707031 21.421875 12.710938 21.410156 12.722656 L 21.402344 12.726562 C 21.390625 12.742188 21.386719 12.765625 21.402344 12.78125 L 21.546875 12.957031 C 21.550781 12.964844 21.5625 12.96875 21.574219 12.96875 C 21.585938 12.972656 21.59375 12.96875 21.601562 12.960938 Z M 21.601562 12.148438 C 21.59375 12.140625 21.585938 12.136719 21.574219 12.136719 C 21.5625 12.136719 21.550781 12.140625 21.546875 12.148438 L 21.402344 12.328125 C 21.386719 12.34375 21.390625 12.363281 21.402344 12.378906 L 21.410156 12.382812 C 21.421875 12.398438 21.445312 12.398438 21.460938 12.386719 L 21.636719 12.242188 C 21.644531 12.234375 21.652344 12.226562 21.652344 12.214844 C 21.652344 12.203125 21.648438 12.191406 21.640625 12.183594 Z M 20.828125 12.921875 L 20.863281 12.960938 C 20.871094 12.96875 20.882812 12.972656 20.894531 12.96875 C 20.90625 12.96875 20.914062 12.964844 20.921875 12.957031 L 21.066406 12.78125 C 21.078125 12.765625 21.078125 12.742188 21.0625 12.726562 L 21.058594 12.722656 C 21.042969 12.710938 21.023438 12.707031 21.007812 12.71875 L 20.828125 12.863281 C 20.820312 12.871094 20.816406 12.882812 20.816406 12.890625 C 20.816406 12.902344 20.820312 12.914062 20.828125 12.921875 " fill-opacity="1" fill-rule="evenodd"/><path fill="#000000" d="M 19.242188 13.15625 C 19.324219 13.15625 19.394531 13.089844 19.394531 13.003906 C 19.394531 12.917969 19.324219 12.847656 19.242188 12.847656 C 19.15625 12.847656 19.085938 12.917969 19.085938 13.003906 C 19.085938 13.089844 19.15625 13.15625 19.242188 13.15625 " fill-opacity="1" fill-rule="evenodd"/><g clip-path="url(#id9)"><path fill="#000000" d="M 18.171875 14.5625 C 17.640625 15.589844 16.222656 15.8125 15.386719 14.972656 C 14.683594 14.273438 14.707031 13.179688 15.410156 12.472656 L 17.921875 9.964844 C 18.148438 9.738281 18.433594 9.574219 18.765625 9.574219 C 19.082031 9.574219 19.367188 9.707031 19.589844 9.921875 L 21.796875 11.863281 C 22.472656 12.457031 22.027344 13.445312 21.234375 13.445312 C 21.089844 13.445312 20.964844 13.394531 20.867188 13.359375 L 19.277344 12.765625 C 19.148438 12.734375 19.074219 12.816406 19.019531 12.925781 Z M 17.464844 15.121094 C 17.714844 14.972656 17.917969 14.761719 18.050781 14.5 L 18.898438 12.863281 C 18.96875 12.730469 19.0625 12.625 19.230469 12.625 C 19.257812 12.625 19.285156 12.628906 19.308594 12.636719 C 19.394531 12.65625 20.6875 13.148438 20.882812 13.21875 C 20.984375 13.257812 21.105469 13.308594 21.234375 13.308594 C 21.902344 13.308594 22.289062 12.476562 21.707031 11.964844 L 19.496094 10.019531 C 19.28125 9.832031 19.070312 9.710938 18.765625 9.710938 C 18.46875 9.710938 18.21875 9.859375 18.019531 10.058594 L 15.507812 12.566406 C 14.433594 13.640625 15.214844 15.351562 16.628906 15.351562 C 16.933594 15.351562 17.21875 15.269531 17.464844 15.121094 " fill-opacity="1" fill-rule="evenodd"/></g><g clip-path="url(#id10)"><path fill="#000000" d="M 16.175781 16.703125 L 20.824219 16.703125 C 20.964844 16.703125 21.078125 16.589844 21.078125 16.449219 L 21.078125 16.285156 C 21.078125 16.234375 21.035156 16.1875 20.980469 16.1875 L 20.949219 16.1875 C 20.863281 16.1875 20.789062 16.117188 20.789062 16.027344 C 20.789062 15.941406 20.863281 15.867188 20.949219 15.867188 L 20.980469 15.867188 C 21.035156 15.867188 21.078125 15.824219 21.078125 15.769531 L 21.078125 15.605469 C 21.078125 15.46875 20.964844 15.351562 20.824219 15.351562 L 19.207031 15.351562 C 19.339844 15.441406 19.425781 15.59375 19.425781 15.765625 C 19.425781 16.042969 19.203125 16.269531 18.925781 16.269531 C 18.648438 16.269531 18.421875 16.042969 18.421875 15.765625 C 18.421875 15.59375 18.511719 15.441406 18.644531 15.351562 L 17.699219 15.351562 C 17.675781 15.367188 17.652344 15.382812 17.628906 15.398438 C 17.324219 15.578125 16.980469 15.671875 16.628906 15.671875 C 16.386719 15.671875 16.148438 15.625 15.929688 15.542969 C 15.921875 15.5625 15.917969 15.585938 15.917969 15.605469 L 15.917969 15.769531 C 15.917969 15.824219 15.964844 15.867188 16.015625 15.867188 L 16.046875 15.867188 C 16.136719 15.867188 16.210938 15.941406 16.210938 16.027344 C 16.210938 16.117188 16.136719 16.1875 16.046875 16.1875 L 16.015625 16.1875 C 15.964844 16.1875 15.917969 16.234375 15.917969 16.285156 L 15.917969 16.449219 C 15.917969 16.589844 16.035156 16.703125 16.175781 16.703125 Z M 16.171875 16.402344 C 16.21875 16.402344 16.257812 16.4375 16.257812 16.484375 C 16.257812 16.53125 16.21875 16.570312 16.171875 16.570312 C 16.125 16.570312 16.085938 16.53125 16.085938 16.484375 C 16.085938 16.4375 16.125 16.402344 16.171875 16.402344 Z M 20.828125 16.402344 C 20.875 16.402344 20.910156 16.4375 20.910156 16.484375 C 20.910156 16.53125 20.875 16.570312 20.828125 16.570312 C 20.78125 16.570312 20.742188 16.53125 20.742188 16.484375 C 20.742188 16.4375 20.78125 16.402344 20.828125 16.402344 " fill-opacity="1" fill-rule="evenodd"/></g><g clip-path="url(#id11)"><path fill="#000000" d="M 13.734375 11.265625 L 15.796875 9.425781 C 15.824219 9.398438 15.835938 9.359375 15.824219 9.320312 C 15.8125 9.285156 15.777344 9.257812 15.738281 9.257812 L 15.3125 9.222656 C 15.285156 9.21875 15.261719 9.230469 15.242188 9.246094 L 13.59375 10.71875 C 13.570312 10.738281 13.558594 10.761719 13.5625 10.792969 L 13.570312 11.195312 C 13.574219 11.234375 13.59375 11.265625 13.628906 11.28125 C 13.664062 11.296875 13.703125 11.289062 13.734375 11.265625 " fill-opacity="1" fill-rule="evenodd"/></g><g clip-path="url(#id12)"><path fill="#000000" d="M 23.210938 11.265625 L 21.148438 9.425781 C 21.117188 9.398438 21.109375 9.359375 21.121094 9.320312 C 21.132812 9.285156 21.164062 9.257812 21.207031 9.257812 L 21.628906 9.222656 C 21.65625 9.21875 21.683594 9.230469 21.703125 9.246094 L 23.351562 10.71875 C 23.375 10.738281 23.386719 10.761719 23.382812 10.792969 L 23.371094 11.195312 C 23.371094 11.234375 23.351562 11.265625 23.3125 11.28125 C 23.277344 11.296875 23.242188 11.289062 23.210938 11.265625 " fill-opacity="1" fill-rule="evenodd"/></g><path fill="#000000" d="M 21.171875 13.960938 L 20.554688 13.40625 L 19.535156 13.023438 C 19.492188 13.25 19.226562 13.351562 19.042969 13.214844 L 18.296875 14.664062 C 18.273438 14.746094 18.039062 15.03125 17.945312 15.121094 L 17.890625 15.171875 L 20.886719 15.152344 L 21.25 14.304688 C 21.300781 14.191406 21.261719 14.046875 21.171875 13.960938 " fill-opacity="1" fill-rule="evenodd"/><g clip-path="url(#id13)"><path fill="#000000" d="M 13.75 12.042969 L 14.316406 11.558594 C 14.398438 11.488281 14.519531 11.5 14.589844 11.578125 C 14.660156 11.660156 14.652344 11.785156 14.570312 11.855469 L 14.003906 12.339844 C 13.921875 12.40625 13.800781 12.398438 13.730469 12.316406 C 13.660156 12.238281 13.671875 12.113281 13.75 12.042969 " fill-opacity="1" fill-rule="evenodd"/></g><path fill="#000000" d="M 14.117188 12.46875 L 14.683594 11.984375 C 14.765625 11.914062 14.886719 11.925781 14.957031 12.003906 C 15.027344 12.085938 15.019531 12.210938 14.9375 12.277344 L 14.371094 12.765625 C 14.289062 12.832031 14.167969 12.824219 14.097656 12.742188 C 14.027344 12.664062 14.035156 12.539062 14.117188 12.46875 " fill-opacity="1" fill-rule="evenodd"/><g clip-path="url(#id14)"><path fill="#000000" d="M 23.191406 12.042969 L 22.625 11.558594 C 22.546875 11.488281 22.421875 11.5 22.351562 11.578125 C 22.28125 11.660156 22.292969 11.785156 22.371094 11.855469 L 22.9375 12.339844 C 23.019531 12.40625 23.140625 12.398438 23.210938 12.316406 C 23.28125 12.238281 23.273438 12.113281 23.191406 12.042969 " fill-opacity="1" fill-rule="evenodd"/></g><path fill="#000000" d="M 22.824219 12.46875 L 22.261719 11.984375 C 22.21875 11.949219 22.164062 11.933594 22.109375 11.941406 C 22.144531 11.992188 22.179688 12.046875 22.207031 12.101562 C 22.273438 12.238281 22.308594 12.386719 22.3125 12.539062 L 22.570312 12.765625 C 22.652344 12.832031 22.777344 12.824219 22.847656 12.742188 C 22.914062 12.664062 22.90625 12.539062 22.824219 12.46875 " fill-opacity="1" fill-rule="evenodd"/><g clip-path="url(#id15)"><path fill="#000000" d="M 17.167969 9.132812 L 17.601562 9.132812 C 17.726562 9.132812 17.828125 9.226562 17.828125 9.347656 L 17.828125 9.867188 L 17.398438 10.296875 L 16.941406 9.84375 L 16.941406 9.347656 C 16.941406 9.226562 17.042969 9.132812 17.167969 9.132812 " fill-opacity="1" fill-rule="evenodd"/></g><g clip-path="url(#id16)"><path fill="#000000" d="M 19.394531 9.132812 L 19.828125 9.132812 C 19.953125 9.132812 20.054688 9.226562 20.054688 9.347656 L 20.054688 9.84375 L 19.890625 10.003906 L 19.679688 9.820312 C 19.558594 9.703125 19.414062 9.605469 19.257812 9.539062 C 19.226562 9.527344 19.199219 9.515625 19.171875 9.507812 L 19.171875 9.347656 C 19.171875 9.226562 19.269531 9.132812 19.394531 9.132812 " fill-opacity="1" fill-rule="evenodd"/></g><path fill="#000000" d="M 22.285156 13.289062 C 22.398438 13.578125 22.609375 13.851562 22.582031 14.226562 C 22.542969 14.796875 22.011719 15.113281 21.441406 15.070312 C 21.316406 15.0625 21.210938 15.035156 21.097656 15.007812 L 21.25 14.648438 C 21.484375 14.695312 21.695312 14.722656 21.921875 14.605469 C 22.226562 14.445312 22.265625 14.125 22.105469 13.820312 C 22.074219 13.761719 22.042969 13.699219 22.011719 13.636719 L 22.285156 13.289062 " fill-opacity="1" fill-rule="evenodd"/><g clip-path="url(#id17)"><path fill="#000000" d="M 18.925781 16.117188 C 19.117188 16.117188 19.277344 15.960938 19.277344 15.765625 C 19.277344 15.574219 19.117188 15.417969 18.925781 15.417969 C 18.730469 15.417969 18.574219 15.574219 18.574219 15.765625 C 18.574219 15.960938 18.730469 16.117188 18.925781 16.117188 " fill-opacity="1" fill-rule="evenodd"/></g><g fill="#000000" fill-opacity="1"><g transform="translate(11.206835, 23.598124)"><g><path d="M 0.0625 -1.203125 C 0.0625 -1.554688 0.179688 -1.851562 0.421875 -2.09375 C 0.660156 -2.332031 0.945312 -2.453125 1.28125 -2.453125 C 1.613281 -2.453125 1.898438 -2.332031 2.140625 -2.09375 C 2.378906 -1.851562 2.5 -1.554688 2.5 -1.203125 C 2.5 -0.847656 2.378906 -0.550781 2.140625 -0.3125 C 1.910156 -0.0703125 1.625 0.046875 1.28125 0.046875 C 0.925781 0.046875 0.632812 -0.0703125 0.40625 -0.3125 C 0.175781 -0.550781 0.0625 -0.847656 0.0625 -1.203125 Z M 0.65625 -1.203125 C 0.65625 -1.078125 0.675781 -0.960938 0.71875 -0.859375 C 0.757812 -0.753906 0.828125 -0.664062 0.921875 -0.59375 C 1.015625 -0.519531 1.132812 -0.484375 1.28125 -0.484375 C 1.488281 -0.484375 1.644531 -0.550781 1.75 -0.6875 C 1.851562 -0.832031 1.90625 -1.003906 1.90625 -1.203125 C 1.90625 -1.398438 1.847656 -1.566406 1.734375 -1.703125 C 1.628906 -1.847656 1.476562 -1.921875 1.28125 -1.921875 C 1.082031 -1.921875 0.925781 -1.847656 0.8125 -1.703125 C 0.707031 -1.566406 0.65625 -1.398438 0.65625 -1.203125 Z M 0.65625 -1.203125 "/></g></g></g><g fill="#000000" fill-opacity="1"><g transform="translate(13.764166, 23.598124)"><g><path d="M 0.71875 -1.5 L 0.71875 0 L 0.171875 0 L 0.171875 -2.40625 L 0.71875 -2.40625 L 1.6875 -0.921875 L 1.6875 -2.40625 L 2.234375 -2.40625 L 2.234375 0 L 1.6875 0 L 0.734375 -1.5 Z M 0.71875 -1.5 "/></g></g></g><g fill="#000000" fill-opacity="1"><g transform="translate(16.172781, 23.598124)"><g><path d="M 1.546875 -2.40625 L 1.546875 -1.921875 L 0.71875 -1.921875 L 0.71875 -1.453125 L 1.515625 -1.453125 L 1.515625 -0.96875 L 0.71875 -0.96875 L 0.71875 -0.484375 L 1.546875 -0.484375 L 1.546875 0 L 0.171875 0 L 0.171875 -2.40625 Z M 1.546875 -2.40625 "/></g></g></g><g fill="#000000" fill-opacity="1"><g transform="translate(17.86406, 23.598124)"><g><path d="M 1.0625 -2.453125 C 1.195312 -2.453125 1.328125 -2.429688 1.453125 -2.390625 C 1.578125 -2.359375 1.664062 -2.320312 1.71875 -2.28125 L 1.8125 -2.21875 L 1.59375 -1.78125 C 1.570312 -1.800781 1.546875 -1.816406 1.515625 -1.828125 C 1.484375 -1.847656 1.425781 -1.875 1.34375 -1.90625 C 1.257812 -1.9375 1.175781 -1.953125 1.09375 -1.953125 C 1.007812 -1.953125 0.941406 -1.929688 0.890625 -1.890625 C 0.835938 -1.859375 0.8125 -1.804688 0.8125 -1.734375 C 0.8125 -1.703125 0.820312 -1.671875 0.84375 -1.640625 C 0.875 -1.617188 0.914062 -1.585938 0.96875 -1.546875 C 1.03125 -1.515625 1.082031 -1.488281 1.125 -1.46875 C 1.164062 -1.457031 1.226562 -1.429688 1.3125 -1.390625 C 1.46875 -1.328125 1.597656 -1.238281 1.703125 -1.125 C 1.816406 -1.007812 1.875 -0.878906 1.875 -0.734375 C 1.875 -0.597656 1.847656 -0.476562 1.796875 -0.375 C 1.753906 -0.269531 1.6875 -0.1875 1.59375 -0.125 C 1.507812 -0.0703125 1.414062 -0.03125 1.3125 0 C 1.207031 0.03125 1.09375 0.046875 0.96875 0.046875 C 0.863281 0.046875 0.757812 0.0351562 0.65625 0.015625 C 0.5625 -0.00390625 0.476562 -0.03125 0.40625 -0.0625 C 0.34375 -0.09375 0.28125 -0.125 0.21875 -0.15625 C 0.164062 -0.1875 0.128906 -0.21875 0.109375 -0.25 L 0.0625 -0.28125 L 0.34375 -0.734375 C 0.363281 -0.710938 0.394531 -0.6875 0.4375 -0.65625 C 0.476562 -0.625 0.550781 -0.582031 0.65625 -0.53125 C 0.757812 -0.488281 0.851562 -0.46875 0.9375 -0.46875 C 1.164062 -0.46875 1.28125 -0.546875 1.28125 -0.703125 C 1.28125 -0.734375 1.269531 -0.757812 1.25 -0.78125 C 1.238281 -0.8125 1.210938 -0.84375 1.171875 -0.875 C 1.128906 -0.90625 1.09375 -0.925781 1.0625 -0.9375 C 1.03125 -0.957031 0.972656 -0.984375 0.890625 -1.015625 C 0.816406 -1.054688 0.765625 -1.082031 0.734375 -1.09375 C 0.585938 -1.164062 0.472656 -1.253906 0.390625 -1.359375 C 0.316406 -1.472656 0.28125 -1.59375 0.28125 -1.71875 C 0.28125 -1.9375 0.359375 -2.113281 0.515625 -2.25 C 0.671875 -2.382812 0.851562 -2.453125 1.0625 -2.453125 Z M 1.0625 -2.453125 "/></g></g></g><g fill="#000000" fill-opacity="1"><g transform="translate(19.823611, 23.598124)"><g><path d="M 0.015625 -1.921875 L 0.015625 -2.40625 L 1.71875 -2.40625 L 1.71875 -1.921875 L 1.140625 -1.921875 L 1.140625 0 L 0.59375 0 L 0.59375 -1.921875 Z M 0.015625 -1.921875 "/></g></g></g><g fill="#000000" fill-opacity="1"><g transform="translate(21.561547, 23.598124)"><g><path d="M 0.0625 -1.203125 C 0.0625 -1.554688 0.179688 -1.851562 0.421875 -2.09375 C 0.660156 -2.332031 0.945312 -2.453125 1.28125 -2.453125 C 1.613281 -2.453125 1.898438 -2.332031 2.140625 -2.09375 C 2.378906 -1.851562 2.5 -1.554688 2.5 -1.203125 C 2.5 -0.847656 2.378906 -0.550781 2.140625 -0.3125 C 1.910156 -0.0703125 1.625 0.046875 1.28125 0.046875 C 0.925781 0.046875 0.632812 -0.0703125 0.40625 -0.3125 C 0.175781 -0.550781 0.0625 -0.847656 0.0625 -1.203125 Z M 0.65625 -1.203125 C 0.65625 -1.078125 0.675781 -0.960938 0.71875 -0.859375 C 0.757812 -0.753906 0.828125 -0.664062 0.921875 -0.59375 C 1.015625 -0.519531 1.132812 -0.484375 1.28125 -0.484375 C 1.488281 -0.484375 1.644531 -0.550781 1.75 -0.6875 C 1.851562 -0.832031 1.90625 -1.003906 1.90625 -1.203125 C 1.90625 -1.398438 1.847656 -1.566406 1.734375 -1.703125 C 1.628906 -1.847656 1.476562 -1.921875 1.28125 -1.921875 C 1.082031 -1.921875 0.925781 -1.847656 0.8125 -1.703125 C 0.707031 -1.566406 0.65625 -1.398438 0.65625 -1.203125 Z M 0.65625 -1.203125 "/></g></g></g><g fill="#000000" fill-opacity="1"><g transform="translate(24.118879, 23.598124)"><g><path d="M 0.171875 -2.40625 L 1.0625 -2.40625 C 1.300781 -2.40625 1.492188 -2.34375 1.640625 -2.21875 C 1.796875 -2.09375 1.875 -1.910156 1.875 -1.671875 C 1.875 -1.429688 1.796875 -1.238281 1.640625 -1.09375 C 1.492188 -0.957031 1.300781 -0.890625 1.0625 -0.890625 L 0.71875 -0.890625 L 0.71875 0 L 0.171875 0 Z M 0.71875 -1.328125 L 0.875 -1.328125 C 1 -1.328125 1.097656 -1.351562 1.171875 -1.40625 C 1.253906 -1.457031 1.296875 -1.539062 1.296875 -1.65625 C 1.296875 -1.769531 1.253906 -1.847656 1.171875 -1.890625 C 1.097656 -1.941406 1 -1.96875 0.875 -1.96875 L 0.71875 -1.96875 Z M 0.71875 -1.328125 "/></g></g></g></svg>