<svg xmlns="http://www.w3.org/2000/svg" xmlns:xlink="http://www.w3.org/1999/xlink" width="200" zoomAndPan="magnify" viewBox="0 0 150 38.999999" height="52" preserveAspectRatio="xMidYMid meet" version="1.0"><defs><g/></defs><g fill="#bf0a30" fill-opacity="1"><g transform="translate(3.703127, 21.483123)"><g><path d="M 0.328125 0 L 6.6875 0 L 6.6875 -0.109375 C 5.785156 -0.21875 5.015625 -0.460938 5.015625 -1.253906 L 5.015625 -14.144531 C 5.015625 -14.9375 5.785156 -15.179688 6.6875 -15.289062 L 6.6875 -15.398438 L 0.328125 -15.398438 L 0.328125 -15.289062 C 1.230469 -15.179688 2 -14.9375 2 -14.144531 L 2 -1.253906 C 2 -0.460938 1.230469 -0.21875 0.328125 -0.109375 Z M 0.328125 0 "/></g></g></g><g fill="#000000" fill-opacity="1"><g transform="translate(10.710939, 21.483123)"><g><path d="M 15.550781 -2.441406 L 15.398438 -2.550781 C 14.453125 -1.386719 12.714844 -0.8125 11.109375 -0.8125 C 7.015625 -0.8125 4.265625 -4.640625 4.265625 -9.128906 C 4.265625 -13.242188 6.335938 -15.246094 9.019531 -15.246094 C 12.382812 -15.246094 13.769531 -12.1875 12.625 -9.128906 L 12.691406 -9.105469 L 15.882812 -13.394531 C 14.871094 -14.628906 13.089844 -15.707031 10.25 -15.707031 C 5.71875 -15.707031 0.988281 -12.933594 0.988281 -7.65625 C 0.988281 -3.058594 4.664062 0.308594 9.613281 0.308594 C 12.671875 0.308594 14.605469 -0.945312 15.550781 -2.441406 Z M 15.550781 -2.441406 "/></g></g></g><g fill="#000000" fill-opacity="1"><g transform="translate(27.251987, 21.483123)"><g><path d="M 15.640625 -2.773438 L 11 -14.496094 C 10.535156 -15.640625 10.492188 -15.902344 10.492188 -16.035156 L 7.898438 -14.648438 L 7.480469 -14.410156 L 7.523438 -13.769531 L 2.707031 -2.660156 C 1.890625 -0.769531 1.363281 -0.351562 0.441406 -0.0898438 L 0.441406 0 L 4.488281 0 L 4.488281 -0.0898438 C 3.253906 -0.351562 2.375 -0.746094 3.191406 -2.640625 L 3.671875 -3.738281 L 12.078125 -3.738281 L 12.515625 -2.640625 C 13.285156 -0.703125 12.40625 -0.21875 10.867188 -0.0898438 L 10.867188 0 L 17.816406 0 L 17.816406 -0.0898438 C 16.828125 -0.21875 16.433594 -0.746094 15.640625 -2.773438 Z M 3.828125 -4.136719 L 8.027344 -13.835938 L 11.921875 -4.136719 Z M 3.828125 -4.136719 "/></g></g></g><g fill="#000000" fill-opacity="1"><g transform="translate(45.508734, 21.483123)"><g><path d="M 15.550781 -2.441406 L 15.398438 -2.550781 C 14.453125 -1.386719 12.714844 -0.8125 11.109375 -0.8125 C 7.015625 -0.8125 4.265625 -4.640625 4.265625 -9.128906 C 4.265625 -13.242188 6.335938 -15.246094 9.019531 -15.246094 C 12.382812 -15.246094 13.769531 -12.1875 12.625 -9.128906 L 12.691406 -9.105469 L 15.882812 -13.394531 C 14.871094 -14.628906 13.089844 -15.707031 10.25 -15.707031 C 5.71875 -15.707031 0.988281 -12.933594 0.988281 -7.65625 C 0.988281 -3.058594 4.664062 0.308594 9.613281 0.308594 C 12.671875 0.308594 14.605469 -0.945312 15.550781 -2.441406 Z M 15.550781 -2.441406 "/></g></g></g><g fill="#000000" fill-opacity="1"><g transform="translate(62.049783, 21.483123)"><g><path d="M 12.078125 -15.398438 L 12.078125 -15.289062 C 12.980469 -15.179688 13.75 -14.496094 13.75 -11.503906 L 13.75 -4.507812 L 5.300781 -14.472656 C 4.992188 -14.9375 4.773438 -15.179688 4.640625 -15.398438 L 0.21875 -15.398438 C 0.925781 -15.046875 1.472656 -14.539062 2.222656 -13.660156 L 2.222656 -3.453125 C 2.222656 -0.460938 1.453125 -0.21875 0.550781 -0.109375 L 0.550781 0 L 4.332031 0 L 4.332031 -0.109375 C 3.429688 -0.21875 2.660156 -0.902344 2.660156 -3.894531 L 2.660156 -13.132812 L 14.230469 0.617188 L 14.277344 0.570312 C 14.230469 -0.21875 14.167969 -1.363281 14.167969 -3.652344 L 14.167969 -11.945312 C 14.167969 -14.9375 14.9375 -15.179688 15.839844 -15.289062 L 15.839844 -15.398438 Z M 12.078125 -15.398438 "/></g></g></g><g fill="#bf0a30" fill-opacity="1"><g transform="translate(78.210934, 21.483123)"><g><path d="M 0.328125 0 L 6.6875 0 L 6.6875 -0.109375 C 5.785156 -0.21875 5.015625 -0.460938 5.015625 -1.253906 L 5.015625 -14.144531 C 5.015625 -14.9375 5.785156 -15.179688 6.6875 -15.289062 L 6.6875 -15.398438 L 0.328125 -15.398438 L 0.328125 -15.289062 C 1.230469 -15.179688 2 -14.9375 2 -14.144531 L 2 -1.253906 C 2 -0.460938 1.230469 -0.21875 0.328125 -0.109375 Z M 0.328125 0 "/></g></g></g><g fill="#000000" fill-opacity="1"><g transform="translate(85.218746, 21.483123)"><g/></g></g><g fill="#0a9b31" fill-opacity="1"><g transform="translate(89.613277, 21.483123)"><g><path d="M 12.671875 -5.410156 C 11.921875 -2.96875 11.460938 -2.441406 8.292969 -2.398438 L 2.925781 -2.375 L 3.894531 -3.101562 C 7.765625 -6.050781 12.273438 -8.601562 12.273438 -12.097656 C 12.273438 -14.34375 10.425781 -15.707031 7.457031 -15.707031 C 4.332031 -15.707031 1.980469 -14.1875 0.878906 -13.132812 L 3.367188 -9.085938 L 3.429688 -9.085938 C 2.640625 -11.8125 3.34375 -15.222656 6.226562 -15.265625 C 8.511719 -15.308594 9.4375 -13.132812 9.4375 -11.308594 C 9.4375 -8.140625 6.796875 -5.652344 3.585938 -3.367188 L 1.210938 -1.671875 L 1.496094 0 L 11.175781 0 L 11.964844 0.484375 L 12.78125 -5.367188 Z M 12.671875 -5.410156 "/></g></g></g><g fill="#0a9b31" fill-opacity="1"><g transform="translate(103.492808, 21.483123)"><g><path d="M 7.609375 -15.707031 C 3.695312 -15.707031 0.988281 -12.890625 0.988281 -7.722656 C 0.988281 -2.550781 3.695312 0.308594 7.589844 0.308594 C 11.460938 0.308594 14.167969 -2.507812 14.167969 -7.675781 C 14.167969 -12.867188 11.460938 -15.707031 7.609375 -15.707031 Z M 8.578125 -0.0664062 C 5.5 -0.0664062 3.804688 -5.5 3.804688 -9.988281 C 3.804688 -13.375 4.773438 -15.332031 6.578125 -15.332031 C 9.65625 -15.332031 11.351562 -9.941406 11.351562 -5.476562 C 11.351562 -2.046875 10.382812 -0.0664062 8.578125 -0.0664062 Z M 8.578125 -0.0664062 "/></g></g></g><g fill="#0a9b31" fill-opacity="1"><g transform="translate(118.648103, 21.483123)"><g><path d="M 12.671875 -5.410156 C 11.921875 -2.96875 11.460938 -2.441406 8.292969 -2.398438 L 2.925781 -2.375 L 3.894531 -3.101562 C 7.765625 -6.050781 12.273438 -8.601562 12.273438 -12.097656 C 12.273438 -14.34375 10.425781 -15.707031 7.457031 -15.707031 C 4.332031 -15.707031 1.980469 -14.1875 0.878906 -13.132812 L 3.367188 -9.085938 L 3.429688 -9.085938 C 2.640625 -11.8125 3.34375 -15.222656 6.226562 -15.265625 C 8.511719 -15.308594 9.4375 -13.132812 9.4375 -11.308594 C 9.4375 -8.140625 6.796875 -5.652344 3.585938 -3.367188 L 1.210938 -1.671875 L 1.496094 0 L 11.175781 0 L 11.964844 0.484375 L 12.78125 -5.367188 Z M 12.671875 -5.410156 "/></g></g></g><g fill="#0a9b31" fill-opacity="1"><g transform="translate(132.527634, 21.483123)"><g><path d="M 8.160156 -8.359375 C 7.917969 -8.359375 7.699219 -8.359375 7.5 -8.335938 C 9.699219 -9.152344 11.703125 -10.382812 11.703125 -12.515625 C 11.703125 -14.011719 10.710938 -15.707031 7.566406 -15.707031 C 4.796875 -15.707031 1.890625 -14.34375 0.769531 -13.21875 L 3.058594 -9.613281 L 3.125 -9.613281 C 2.597656 -12.207031 2.816406 -15.15625 5.742188 -15.15625 C 8.09375 -15.15625 8.863281 -13.332031 8.863281 -11.878906 C 8.863281 -9.722656 7.148438 -8.316406 4.730469 -7.898438 L 5.039062 -7.566406 L 5.9375 -7.832031 C 7.808594 -8.269531 9.855469 -8.183594 9.855469 -5.191406 C 9.855469 -2.53125 8.359375 -0.417969 5.234375 -0.417969 C 3.738281 -0.417969 2.066406 -0.878906 1.210938 -1.824219 L 1.078125 -1.695312 C 1.914062 -0.59375 4.003906 0.308594 6.136719 0.308594 C 9.261719 0.308594 12.78125 -1.628906 12.78125 -4.992188 C 12.78125 -7.589844 10.425781 -8.359375 8.160156 -8.359375 Z M 8.160156 -8.359375 "/></g></g></g><g fill="#000000" fill-opacity="1"><g transform="translate(13.434711, 34.341597)"><g><path d="M 1.796875 0 L 0.796875 0 L 0.796875 -7.875 L 1.796875 -7.875 Z M 1.796875 0 "/></g></g></g><g fill="#000000" fill-opacity="1"><g transform="translate(16.02888, 34.341597)"><g><path d="M 0.609375 -5.390625 L 1.578125 -5.390625 L 1.578125 -4.640625 L 1.625 -4.640625 C 1.78125 -4.898438 2.015625 -5.117188 2.328125 -5.296875 C 2.648438 -5.472656 2.984375 -5.5625 3.328125 -5.5625 C 3.992188 -5.5625 4.503906 -5.375 4.859375 -5 C 5.210938 -4.625 5.390625 -4.085938 5.390625 -3.390625 L 5.390625 0 L 4.375 0 L 4.375 -3.328125 C 4.351562 -4.203125 3.910156 -4.640625 3.046875 -4.640625 C 2.640625 -4.640625 2.300781 -4.472656 2.03125 -4.140625 C 1.757812 -3.816406 1.625 -3.429688 1.625 -2.984375 L 1.625 0 L 0.609375 0 Z M 0.609375 -5.390625 "/></g></g></g><g fill="#000000" fill-opacity="1"><g transform="translate(21.986663, 34.341597)"><g><path d="M 2.75 0.09375 C 2.3125 0.09375 1.945312 -0.0390625 1.65625 -0.3125 C 1.363281 -0.582031 1.210938 -0.960938 1.203125 -1.453125 L 1.203125 -4.46875 L 0.265625 -4.46875 L 0.265625 -5.390625 L 1.203125 -5.390625 L 1.203125 -7.046875 L 2.21875 -7.046875 L 2.21875 -5.390625 L 3.546875 -5.390625 L 3.546875 -4.46875 L 2.21875 -4.46875 L 2.21875 -1.78125 C 2.21875 -1.425781 2.285156 -1.179688 2.421875 -1.046875 C 2.566406 -0.921875 2.726562 -0.859375 2.90625 -0.859375 C 2.988281 -0.859375 3.066406 -0.863281 3.140625 -0.875 C 3.210938 -0.894531 3.285156 -0.921875 3.359375 -0.953125 L 3.671875 -0.0625 C 3.410156 0.0390625 3.101562 0.09375 2.75 0.09375 Z M 2.75 0.09375 "/></g></g></g><g fill="#000000" fill-opacity="1"><g transform="translate(25.877917, 34.341597)"><g><path d="M 3.03125 0.171875 C 2.238281 0.171875 1.585938 -0.0976562 1.078125 -0.640625 C 0.566406 -1.179688 0.3125 -1.863281 0.3125 -2.6875 C 0.3125 -3.507812 0.554688 -4.191406 1.046875 -4.734375 C 1.546875 -5.285156 2.1875 -5.5625 2.96875 -5.5625 C 3.769531 -5.5625 4.40625 -5.300781 4.875 -4.78125 C 5.351562 -4.269531 5.59375 -3.550781 5.59375 -2.625 L 5.578125 -2.515625 L 1.34375 -2.515625 C 1.351562 -1.984375 1.523438 -1.554688 1.859375 -1.234375 C 2.203125 -0.910156 2.609375 -0.75 3.078125 -0.75 C 3.722656 -0.75 4.226562 -1.070312 4.59375 -1.71875 L 5.5 -1.28125 C 5.257812 -0.820312 4.921875 -0.460938 4.484375 -0.203125 C 4.054688 0.046875 3.570312 0.171875 3.03125 0.171875 Z M 1.421875 -3.34375 L 4.515625 -3.34375 C 4.484375 -3.71875 4.328125 -4.023438 4.046875 -4.265625 C 3.773438 -4.515625 3.410156 -4.640625 2.953125 -4.640625 C 2.566406 -4.640625 2.234375 -4.519531 1.953125 -4.28125 C 1.679688 -4.050781 1.503906 -3.738281 1.421875 -3.34375 Z M 1.421875 -3.34375 "/></g></g></g><g fill="#000000" fill-opacity="1"><g transform="translate(31.769747, 34.341597)"><g><path d="M 1.625 0 L 0.609375 0 L 0.609375 -5.390625 L 1.578125 -5.390625 L 1.578125 -4.515625 L 1.625 -4.515625 C 1.726562 -4.796875 1.9375 -5.035156 2.25 -5.234375 C 2.570312 -5.441406 2.890625 -5.546875 3.203125 -5.546875 C 3.492188 -5.546875 3.742188 -5.5 3.953125 -5.40625 L 3.640625 -4.4375 C 3.515625 -4.488281 3.316406 -4.515625 3.046875 -4.515625 C 2.660156 -4.515625 2.328125 -4.359375 2.046875 -4.046875 C 1.765625 -3.742188 1.625 -3.382812 1.625 -2.96875 Z M 1.625 0 "/></g></g></g><g fill="#000000" fill-opacity="1"><g transform="translate(35.759924, 34.341597)"><g><path d="M 0.609375 -5.390625 L 1.578125 -5.390625 L 1.578125 -4.640625 L 1.625 -4.640625 C 1.78125 -4.898438 2.015625 -5.117188 2.328125 -5.296875 C 2.648438 -5.472656 2.984375 -5.5625 3.328125 -5.5625 C 3.992188 -5.5625 4.503906 -5.375 4.859375 -5 C 5.210938 -4.625 5.390625 -4.085938 5.390625 -3.390625 L 5.390625 0 L 4.375 0 L 4.375 -3.328125 C 4.351562 -4.203125 3.910156 -4.640625 3.046875 -4.640625 C 2.640625 -4.640625 2.300781 -4.472656 2.03125 -4.140625 C 1.757812 -3.816406 1.625 -3.429688 1.625 -2.984375 L 1.625 0 L 0.609375 0 Z M 0.609375 -5.390625 "/></g></g></g><g fill="#000000" fill-opacity="1"><g transform="translate(41.717706, 34.341597)"><g><path d="M 1.359375 -1.65625 C 1.359375 -1.382812 1.46875 -1.160156 1.6875 -0.984375 C 1.914062 -0.804688 2.175781 -0.71875 2.46875 -0.71875 C 2.894531 -0.71875 3.273438 -0.875 3.609375 -1.1875 C 3.941406 -1.507812 4.109375 -1.882812 4.109375 -2.3125 C 3.796875 -2.5625 3.359375 -2.6875 2.796875 -2.6875 C 2.378906 -2.6875 2.035156 -2.585938 1.765625 -2.390625 C 1.492188 -2.191406 1.359375 -1.945312 1.359375 -1.65625 Z M 2.65625 -5.5625 C 3.40625 -5.5625 3.992188 -5.359375 4.421875 -4.953125 C 4.859375 -4.554688 5.078125 -4.015625 5.078125 -3.328125 L 5.078125 0 L 4.109375 0 L 4.109375 -0.75 L 4.0625 -0.75 C 3.644531 -0.132812 3.085938 0.171875 2.390625 0.171875 C 1.796875 0.171875 1.300781 0 0.90625 -0.34375 C 0.507812 -0.695312 0.3125 -1.140625 0.3125 -1.671875 C 0.3125 -2.234375 0.519531 -2.675781 0.9375 -3 C 1.363281 -3.332031 1.925781 -3.5 2.625 -3.5 C 3.226562 -3.5 3.722656 -3.390625 4.109375 -3.171875 L 4.109375 -3.40625 C 4.109375 -3.75 3.96875 -4.039062 3.6875 -4.28125 C 3.414062 -4.53125 3.09375 -4.65625 2.71875 -4.65625 C 2.15625 -4.65625 1.707031 -4.421875 1.375 -3.953125 L 0.484375 -4.515625 C 0.972656 -5.210938 1.695312 -5.5625 2.65625 -5.5625 Z M 2.65625 -5.5625 "/></g></g></g><g fill="#000000" fill-opacity="1"><g transform="translate(47.323743, 34.341597)"><g><path d="M 2.75 0.09375 C 2.3125 0.09375 1.945312 -0.0390625 1.65625 -0.3125 C 1.363281 -0.582031 1.210938 -0.960938 1.203125 -1.453125 L 1.203125 -4.46875 L 0.265625 -4.46875 L 0.265625 -5.390625 L 1.203125 -5.390625 L 1.203125 -7.046875 L 2.21875 -7.046875 L 2.21875 -5.390625 L 3.546875 -5.390625 L 3.546875 -4.46875 L 2.21875 -4.46875 L 2.21875 -1.78125 C 2.21875 -1.425781 2.285156 -1.179688 2.421875 -1.046875 C 2.566406 -0.921875 2.726562 -0.859375 2.90625 -0.859375 C 2.988281 -0.859375 3.066406 -0.863281 3.140625 -0.875 C 3.210938 -0.894531 3.285156 -0.921875 3.359375 -0.953125 L 3.671875 -0.0625 C 3.410156 0.0390625 3.101562 0.09375 2.75 0.09375 Z M 2.75 0.09375 "/></g></g></g><g fill="#000000" fill-opacity="1"><g transform="translate(51.214997, 34.341597)"><g><path d="M 1.921875 -7.25 C 1.921875 -7.050781 1.847656 -6.878906 1.703125 -6.734375 C 1.566406 -6.597656 1.398438 -6.53125 1.203125 -6.53125 C 1.003906 -6.53125 0.835938 -6.597656 0.703125 -6.734375 C 0.566406 -6.878906 0.5 -7.050781 0.5 -7.25 C 0.5 -7.445312 0.566406 -7.613281 0.703125 -7.75 C 0.835938 -7.894531 1.003906 -7.96875 1.203125 -7.96875 C 1.398438 -7.96875 1.566406 -7.894531 1.703125 -7.75 C 1.847656 -7.613281 1.921875 -7.445312 1.921875 -7.25 Z M 1.71875 -5.390625 L 1.71875 0 L 0.703125 0 L 0.703125 -5.390625 Z M 1.71875 -5.390625 "/></g></g></g><g fill="#000000" fill-opacity="1"><g transform="translate(53.633282, 34.341597)"><g><path d="M 0.3125 -2.6875 C 0.3125 -3.519531 0.570312 -4.207031 1.09375 -4.75 C 1.613281 -5.289062 2.273438 -5.5625 3.078125 -5.5625 C 3.878906 -5.5625 4.539062 -5.289062 5.0625 -4.75 C 5.59375 -4.207031 5.859375 -3.519531 5.859375 -2.6875 C 5.859375 -1.851562 5.59375 -1.171875 5.0625 -0.640625 C 4.539062 -0.0976562 3.878906 0.171875 3.078125 0.171875 C 2.273438 0.171875 1.613281 -0.0976562 1.09375 -0.640625 C 0.570312 -1.179688 0.3125 -1.863281 0.3125 -2.6875 Z M 1.3125 -2.6875 C 1.3125 -2.113281 1.484375 -1.644531 1.828125 -1.28125 C 2.160156 -0.925781 2.578125 -0.75 3.078125 -0.75 C 3.578125 -0.75 3.992188 -0.925781 4.328125 -1.28125 C 4.671875 -1.644531 4.84375 -2.113281 4.84375 -2.6875 C 4.84375 -3.257812 4.671875 -3.726562 4.328125 -4.09375 C 3.984375 -4.457031 3.566406 -4.640625 3.078125 -4.640625 C 2.585938 -4.640625 2.171875 -4.457031 1.828125 -4.09375 C 1.484375 -3.726562 1.3125 -3.257812 1.3125 -2.6875 Z M 1.3125 -2.6875 "/></g></g></g><g fill="#000000" fill-opacity="1"><g transform="translate(59.788933, 34.341597)"><g><path d="M 0.609375 -5.390625 L 1.578125 -5.390625 L 1.578125 -4.640625 L 1.625 -4.640625 C 1.78125 -4.898438 2.015625 -5.117188 2.328125 -5.296875 C 2.648438 -5.472656 2.984375 -5.5625 3.328125 -5.5625 C 3.992188 -5.5625 4.503906 -5.375 4.859375 -5 C 5.210938 -4.625 5.390625 -4.085938 5.390625 -3.390625 L 5.390625 0 L 4.375 0 L 4.375 -3.328125 C 4.351562 -4.203125 3.910156 -4.640625 3.046875 -4.640625 C 2.640625 -4.640625 2.300781 -4.472656 2.03125 -4.140625 C 1.757812 -3.816406 1.625 -3.429688 1.625 -2.984375 L 1.625 0 L 0.609375 0 Z M 0.609375 -5.390625 "/></g></g></g><g fill="#000000" fill-opacity="1"><g transform="translate(65.746715, 34.341597)"><g><path d="M 1.359375 -1.65625 C 1.359375 -1.382812 1.46875 -1.160156 1.6875 -0.984375 C 1.914062 -0.804688 2.175781 -0.71875 2.46875 -0.71875 C 2.894531 -0.71875 3.273438 -0.875 3.609375 -1.1875 C 3.941406 -1.507812 4.109375 -1.882812 4.109375 -2.3125 C 3.796875 -2.5625 3.359375 -2.6875 2.796875 -2.6875 C 2.378906 -2.6875 2.035156 -2.585938 1.765625 -2.390625 C 1.492188 -2.191406 1.359375 -1.945312 1.359375 -1.65625 Z M 2.65625 -5.5625 C 3.40625 -5.5625 3.992188 -5.359375 4.421875 -4.953125 C 4.859375 -4.554688 5.078125 -4.015625 5.078125 -3.328125 L 5.078125 0 L 4.109375 0 L 4.109375 -0.75 L 4.0625 -0.75 C 3.644531 -0.132812 3.085938 0.171875 2.390625 0.171875 C 1.796875 0.171875 1.300781 0 0.90625 -0.34375 C 0.507812 -0.695312 0.3125 -1.140625 0.3125 -1.671875 C 0.3125 -2.234375 0.519531 -2.675781 0.9375 -3 C 1.363281 -3.332031 1.925781 -3.5 2.625 -3.5 C 3.226562 -3.5 3.722656 -3.390625 4.109375 -3.171875 L 4.109375 -3.40625 C 4.109375 -3.75 3.96875 -4.039062 3.6875 -4.28125 C 3.414062 -4.53125 3.09375 -4.65625 2.71875 -4.65625 C 2.15625 -4.65625 1.707031 -4.421875 1.375 -3.953125 L 0.484375 -4.515625 C 0.972656 -5.210938 1.695312 -5.5625 2.65625 -5.5625 Z M 2.65625 -5.5625 "/></g></g></g><g fill="#000000" fill-opacity="1"><g transform="translate(71.352752, 34.341597)"><g><path d="M 1.625 -7.875 L 1.625 0 L 0.609375 0 L 0.609375 -7.875 Z M 1.625 -7.875 "/></g></g></g><g fill="#000000" fill-opacity="1"><g transform="translate(73.595164, 34.341597)"><g/></g></g><g fill="#000000" fill-opacity="1"><g transform="translate(76.01345, 34.341597)"><g><path d="M 4.5 0.171875 C 3.332031 0.171875 2.359375 -0.21875 1.578125 -1 C 0.796875 -1.78125 0.40625 -2.757812 0.40625 -3.9375 C 0.40625 -5.113281 0.796875 -6.085938 1.578125 -6.859375 C 2.347656 -7.648438 3.320312 -8.046875 4.5 -8.046875 C 5.6875 -8.046875 6.648438 -7.617188 7.390625 -6.765625 L 6.671875 -6.0625 C 6.097656 -6.738281 5.375 -7.078125 4.5 -7.078125 C 3.625 -7.078125 2.894531 -6.785156 2.3125 -6.203125 C 1.726562 -5.617188 1.4375 -4.863281 1.4375 -3.9375 C 1.4375 -3.007812 1.726562 -2.253906 2.3125 -1.671875 C 2.894531 -1.085938 3.625 -0.796875 4.5 -0.796875 C 5.414062 -0.796875 6.210938 -1.179688 6.890625 -1.953125 L 7.625 -1.234375 C 7.25 -0.785156 6.789062 -0.4375 6.25 -0.1875 C 5.707031 0.0507812 5.125 0.171875 4.5 0.171875 Z M 4.5 0.171875 "/></g></g></g><g fill="#000000" fill-opacity="1"><g transform="translate(84.026785, 34.341597)"><g><path d="M 0.3125 -2.6875 C 0.3125 -3.519531 0.570312 -4.207031 1.09375 -4.75 C 1.613281 -5.289062 2.273438 -5.5625 3.078125 -5.5625 C 3.878906 -5.5625 4.539062 -5.289062 5.0625 -4.75 C 5.59375 -4.207031 5.859375 -3.519531 5.859375 -2.6875 C 5.859375 -1.851562 5.59375 -1.171875 5.0625 -0.640625 C 4.539062 -0.0976562 3.878906 0.171875 3.078125 0.171875 C 2.273438 0.171875 1.613281 -0.0976562 1.09375 -0.640625 C 0.570312 -1.179688 0.3125 -1.863281 0.3125 -2.6875 Z M 1.3125 -2.6875 C 1.3125 -2.113281 1.484375 -1.644531 1.828125 -1.28125 C 2.160156 -0.925781 2.578125 -0.75 3.078125 -0.75 C 3.578125 -0.75 3.992188 -0.925781 4.328125 -1.28125 C 4.671875 -1.644531 4.84375 -2.113281 4.84375 -2.6875 C 4.84375 -3.257812 4.671875 -3.726562 4.328125 -4.09375 C 3.984375 -4.457031 3.566406 -4.640625 3.078125 -4.640625 C 2.585938 -4.640625 2.171875 -4.457031 1.828125 -4.09375 C 1.484375 -3.726562 1.3125 -3.257812 1.3125 -2.6875 Z M 1.3125 -2.6875 "/></g></g></g><g fill="#000000" fill-opacity="1"><g transform="translate(90.182436, 34.341597)"><g><path d="M 0.609375 -5.390625 L 1.578125 -5.390625 L 1.578125 -4.640625 L 1.625 -4.640625 C 1.78125 -4.898438 2.015625 -5.117188 2.328125 -5.296875 C 2.648438 -5.472656 2.984375 -5.5625 3.328125 -5.5625 C 3.992188 -5.5625 4.503906 -5.375 4.859375 -5 C 5.210938 -4.625 5.390625 -4.085938 5.390625 -3.390625 L 5.390625 0 L 4.375 0 L 4.375 -3.328125 C 4.351562 -4.203125 3.910156 -4.640625 3.046875 -4.640625 C 2.640625 -4.640625 2.300781 -4.472656 2.03125 -4.140625 C 1.757812 -3.816406 1.625 -3.429688 1.625 -2.984375 L 1.625 0 L 0.609375 0 Z M 0.609375 -5.390625 "/></g></g></g><g fill="#000000" fill-opacity="1"><g transform="translate(96.140218, 34.341597)"><g><path d="M 3.109375 -7.96875 C 3.472656 -7.96875 3.769531 -7.90625 4 -7.78125 L 3.734375 -6.890625 C 3.554688 -6.972656 3.359375 -7.015625 3.140625 -7.015625 C 2.890625 -7.015625 2.679688 -6.925781 2.515625 -6.75 C 2.359375 -6.582031 2.28125 -6.359375 2.28125 -6.078125 L 2.28125 -5.390625 L 3.703125 -5.390625 L 3.703125 -4.46875 L 2.28125 -4.46875 L 2.28125 0 L 1.28125 0 L 1.28125 -4.46875 L 0.265625 -4.46875 L 0.265625 -5.390625 L 1.28125 -5.390625 L 1.28125 -6.171875 C 1.28125 -6.703125 1.445312 -7.132812 1.78125 -7.46875 C 2.125 -7.800781 2.566406 -7.96875 3.109375 -7.96875 Z M 3.109375 -7.96875 "/></g></g></g><g fill="#000000" fill-opacity="1"><g transform="translate(100.185361, 34.341597)"><g><path d="M 3.03125 0.171875 C 2.238281 0.171875 1.585938 -0.0976562 1.078125 -0.640625 C 0.566406 -1.179688 0.3125 -1.863281 0.3125 -2.6875 C 0.3125 -3.507812 0.554688 -4.191406 1.046875 -4.734375 C 1.546875 -5.285156 2.1875 -5.5625 2.96875 -5.5625 C 3.769531 -5.5625 4.40625 -5.300781 4.875 -4.78125 C 5.351562 -4.269531 5.59375 -3.550781 5.59375 -2.625 L 5.578125 -2.515625 L 1.34375 -2.515625 C 1.351562 -1.984375 1.523438 -1.554688 1.859375 -1.234375 C 2.203125 -0.910156 2.609375 -0.75 3.078125 -0.75 C 3.722656 -0.75 4.226562 -1.070312 4.59375 -1.71875 L 5.5 -1.28125 C 5.257812 -0.820312 4.921875 -0.460938 4.484375 -0.203125 C 4.054688 0.046875 3.570312 0.171875 3.03125 0.171875 Z M 1.421875 -3.34375 L 4.515625 -3.34375 C 4.484375 -3.71875 4.328125 -4.023438 4.046875 -4.265625 C 3.773438 -4.515625 3.410156 -4.640625 2.953125 -4.640625 C 2.566406 -4.640625 2.234375 -4.519531 1.953125 -4.28125 C 1.679688 -4.050781 1.503906 -3.738281 1.421875 -3.34375 Z M 1.421875 -3.34375 "/></g></g></g><g fill="#000000" fill-opacity="1"><g transform="translate(106.077191, 34.341597)"><g><path d="M 1.625 0 L 0.609375 0 L 0.609375 -5.390625 L 1.578125 -5.390625 L 1.578125 -4.515625 L 1.625 -4.515625 C 1.726562 -4.796875 1.9375 -5.035156 2.25 -5.234375 C 2.570312 -5.441406 2.890625 -5.546875 3.203125 -5.546875 C 3.492188 -5.546875 3.742188 -5.5 3.953125 -5.40625 L 3.640625 -4.4375 C 3.515625 -4.488281 3.316406 -4.515625 3.046875 -4.515625 C 2.660156 -4.515625 2.328125 -4.359375 2.046875 -4.046875 C 1.765625 -3.742188 1.625 -3.382812 1.625 -2.96875 Z M 1.625 0 "/></g></g></g><g fill="#000000" fill-opacity="1"><g transform="translate(110.067368, 34.341597)"><g><path d="M 3.03125 0.171875 C 2.238281 0.171875 1.585938 -0.0976562 1.078125 -0.640625 C 0.566406 -1.179688 0.3125 -1.863281 0.3125 -2.6875 C 0.3125 -3.507812 0.554688 -4.191406 1.046875 -4.734375 C 1.546875 -5.285156 2.1875 -5.5625 2.96875 -5.5625 C 3.769531 -5.5625 4.40625 -5.300781 4.875 -4.78125 C 5.351562 -4.269531 5.59375 -3.550781 5.59375 -2.625 L 5.578125 -2.515625 L 1.34375 -2.515625 C 1.351562 -1.984375 1.523438 -1.554688 1.859375 -1.234375 C 2.203125 -0.910156 2.609375 -0.75 3.078125 -0.75 C 3.722656 -0.75 4.226562 -1.070312 4.59375 -1.71875 L 5.5 -1.28125 C 5.257812 -0.820312 4.921875 -0.460938 4.484375 -0.203125 C 4.054688 0.046875 3.570312 0.171875 3.03125 0.171875 Z M 1.421875 -3.34375 L 4.515625 -3.34375 C 4.484375 -3.71875 4.328125 -4.023438 4.046875 -4.265625 C 3.773438 -4.515625 3.410156 -4.640625 2.953125 -4.640625 C 2.566406 -4.640625 2.234375 -4.519531 1.953125 -4.28125 C 1.679688 -4.050781 1.503906 -3.738281 1.421875 -3.34375 Z M 1.421875 -3.34375 "/></g></g></g><g fill="#000000" fill-opacity="1"><g transform="translate(115.959198, 34.341597)"><g><path d="M 0.609375 -5.390625 L 1.578125 -5.390625 L 1.578125 -4.640625 L 1.625 -4.640625 C 1.78125 -4.898438 2.015625 -5.117188 2.328125 -5.296875 C 2.648438 -5.472656 2.984375 -5.5625 3.328125 -5.5625 C 3.992188 -5.5625 4.503906 -5.375 4.859375 -5 C 5.210938 -4.625 5.390625 -4.085938 5.390625 -3.390625 L 5.390625 0 L 4.375 0 L 4.375 -3.328125 C 4.351562 -4.203125 3.910156 -4.640625 3.046875 -4.640625 C 2.640625 -4.640625 2.300781 -4.472656 2.03125 -4.140625 C 1.757812 -3.816406 1.625 -3.429688 1.625 -2.984375 L 1.625 0 L 0.609375 0 Z M 0.609375 -5.390625 "/></g></g></g><g fill="#000000" fill-opacity="1"><g transform="translate(121.91698, 34.341597)"><g><path d="M 3.078125 0.171875 C 2.273438 0.171875 1.613281 -0.0976562 1.09375 -0.640625 C 0.570312 -1.191406 0.3125 -1.875 0.3125 -2.6875 C 0.3125 -3.519531 0.570312 -4.207031 1.09375 -4.75 C 1.613281 -5.289062 2.273438 -5.5625 3.078125 -5.5625 C 3.628906 -5.5625 4.109375 -5.421875 4.515625 -5.140625 C 4.929688 -4.867188 5.238281 -4.492188 5.4375 -4.015625 L 4.515625 -3.625 C 4.234375 -4.300781 3.734375 -4.640625 3.015625 -4.640625 C 2.554688 -4.640625 2.15625 -4.453125 1.8125 -4.078125 C 1.476562 -3.703125 1.3125 -3.238281 1.3125 -2.6875 C 1.3125 -2.144531 1.476562 -1.6875 1.8125 -1.3125 C 2.15625 -0.9375 2.554688 -0.75 3.015625 -0.75 C 3.753906 -0.75 4.273438 -1.085938 4.578125 -1.765625 L 5.484375 -1.375 C 5.285156 -0.894531 4.972656 -0.515625 4.546875 -0.234375 C 4.128906 0.0351562 3.640625 0.171875 3.078125 0.171875 Z M 3.078125 0.171875 "/></g></g></g><g fill="#000000" fill-opacity="1"><g transform="translate(127.654922, 34.341597)"><g><path d="M 3.03125 0.171875 C 2.238281 0.171875 1.585938 -0.0976562 1.078125 -0.640625 C 0.566406 -1.179688 0.3125 -1.863281 0.3125 -2.6875 C 0.3125 -3.507812 0.554688 -4.191406 1.046875 -4.734375 C 1.546875 -5.285156 2.1875 -5.5625 2.96875 -5.5625 C 3.769531 -5.5625 4.40625 -5.300781 4.875 -4.78125 C 5.351562 -4.269531 5.59375 -3.550781 5.59375 -2.625 L 5.578125 -2.515625 L 1.34375 -2.515625 C 1.351562 -1.984375 1.523438 -1.554688 1.859375 -1.234375 C 2.203125 -0.910156 2.609375 -0.75 3.078125 -0.75 C 3.722656 -0.75 4.226562 -1.070312 4.59375 -1.71875 L 5.5 -1.28125 C 5.257812 -0.820312 4.921875 -0.460938 4.484375 -0.203125 C 4.054688 0.046875 3.570312 0.171875 3.03125 0.171875 Z M 1.421875 -3.34375 L 4.515625 -3.34375 C 4.484375 -3.71875 4.328125 -4.023438 4.046875 -4.265625 C 3.773438 -4.515625 3.410156 -4.640625 2.953125 -4.640625 C 2.566406 -4.640625 2.234375 -4.519531 1.953125 -4.28125 C 1.679688 -4.050781 1.503906 -3.738281 1.421875 -3.34375 Z M 1.421875 -3.34375 "/></g></g></g></svg>