<svg xmlns="http://www.w3.org/2000/svg" xmlns:xlink="http://www.w3.org/1999/xlink" width="200" zoomAndPan="magnify" viewBox="0 0 150 38.999999" height="52" preserveAspectRatio="xMidYMid meet" version="1.0"><defs><g/><clipPath id="ef49a8ab1b"><path d="M 10 8.671875 L 13 8.671875 L 13 11 L 10 11 Z M 10 8.671875 " clip-rule="nonzero"/></clipPath><clipPath id="62a81778b7"><path d="M 10 28 L 13 28 L 13 30.421875 L 10 30.421875 Z M 10 28 " clip-rule="nonzero"/></clipPath><clipPath id="1057c89f9e"><path d="M 21 18 L 22.636719 18 L 22.636719 21 L 21 21 Z M 21 18 " clip-rule="nonzero"/></clipPath><clipPath id="baca34c67f"><path d="M 0.886719 18 L 3 18 L 3 21 L 0.886719 21 Z M 0.886719 18 " clip-rule="nonzero"/></clipPath></defs><g fill="#000000" fill-opacity="1"><g transform="translate(23.125569, 26.499222)"><g><path d="M 3.875 -0.65625 L 10.640625 -0.65625 L 2.8125 -14.1875 L 2.8125 0 L 2.171875 0 L 2.171875 -15.296875 L 2.921875 -15.296875 L 11.109375 -1.15625 L 11.109375 -15.296875 L 11.765625 -15.296875 L 11.765625 0 L 3.875 0 Z M 3.875 -0.65625 "/></g></g></g><g fill="#000000" fill-opacity="1"><g transform="translate(38.155698, 26.499222)"><g><path d="M 10.5625 -1.296875 C 9.757812 -0.285156 8.445312 0.21875 6.625 0.21875 C 4.800781 0.21875 3.492188 -0.296875 2.703125 -1.328125 C 1.921875 -2.367188 1.53125 -4.039062 1.53125 -6.34375 C 1.53125 -8.644531 1.921875 -10.3125 2.703125 -11.34375 C 3.492188 -12.375 4.800781 -12.890625 6.625 -12.890625 C 8.738281 -12.890625 10.175781 -12.203125 10.9375 -10.828125 L 5.578125 -6.34375 L 4.546875 -6.34375 L 10.078125 -10.953125 C 9.429688 -11.804688 8.28125 -12.234375 6.625 -12.234375 C 5.894531 -12.234375 5.28125 -12.15625 4.78125 -12 C 4.289062 -11.851562 3.835938 -11.570312 3.421875 -11.15625 C 3.003906 -10.738281 2.691406 -10.132812 2.484375 -9.34375 C 2.285156 -8.550781 2.1875 -7.550781 2.1875 -6.34375 C 2.1875 -5.132812 2.285156 -4.128906 2.484375 -3.328125 C 2.691406 -2.535156 3.003906 -1.929688 3.421875 -1.515625 C 3.835938 -1.097656 4.289062 -0.8125 4.78125 -0.65625 C 5.28125 -0.507812 5.894531 -0.4375 6.625 -0.4375 C 8.28125 -0.4375 9.429688 -0.867188 10.078125 -1.734375 Z M 10.5625 -1.296875 "/></g></g></g><g fill="#000000" fill-opacity="1"><g transform="translate(51.241591, 26.499222)"><g><path d="M 2.515625 -12.671875 L 2.515625 -6.34375 C 2.515625 -4.164062 2.859375 -2.632812 3.546875 -1.75 C 4.242188 -0.875 5.195312 -0.4375 6.40625 -0.4375 C 7.613281 -0.4375 8.5625 -0.875 9.25 -1.75 C 9.945312 -2.632812 10.296875 -4.164062 10.296875 -6.34375 L 10.296875 -12.671875 L 10.953125 -12.671875 L 10.953125 -6.34375 C 10.953125 -1.96875 9.4375 0.21875 6.40625 0.21875 C 3.375 0.21875 1.859375 -1.96875 1.859375 -6.34375 L 1.859375 -12.671875 Z M 2.515625 -12.671875 "/></g></g></g><g fill="#000000" fill-opacity="1"><g transform="translate(65.157611, 26.499222)"><g><path d="M 7.40625 -6.359375 L 10.390625 0 L 9.65625 0 L 6.59375 -6.5625 C 6.625 -6.570312 6.753906 -6.628906 6.984375 -6.734375 C 7.210938 -6.847656 7.367188 -6.929688 7.453125 -6.984375 C 7.535156 -7.035156 7.679688 -7.125 7.890625 -7.25 C 8.097656 -7.382812 8.25 -7.515625 8.34375 -7.640625 C 8.445312 -7.765625 8.5625 -7.910156 8.6875 -8.078125 C 8.8125 -8.242188 8.898438 -8.429688 8.953125 -8.640625 C 9.015625 -8.859375 9.046875 -9.085938 9.046875 -9.328125 C 9.046875 -10.253906 8.609375 -10.929688 7.734375 -11.359375 C 6.859375 -11.796875 5.773438 -12.015625 4.484375 -12.015625 L 2.734375 -12.015625 L 2.734375 0 L 2.078125 0 L 2.078125 -12.671875 L 4.484375 -12.671875 C 6.203125 -12.671875 7.5 -12.375 8.375 -11.78125 C 9.257812 -11.1875 9.703125 -10.367188 9.703125 -9.328125 C 9.703125 -8.660156 9.472656 -8.066406 9.015625 -7.546875 C 8.566406 -7.035156 8.03125 -6.640625 7.40625 -6.359375 Z M 7.40625 -6.359375 "/></g></g></g><g fill="#000000" fill-opacity="1"><g transform="translate(77.544447, 26.499222)"><g><path d="M 8.453125 -12 C 7.960938 -12.15625 7.351562 -12.234375 6.625 -12.234375 C 5.894531 -12.234375 5.28125 -12.15625 4.78125 -12 C 4.289062 -11.851562 3.835938 -11.570312 3.421875 -11.15625 C 3.003906 -10.738281 2.691406 -10.132812 2.484375 -9.34375 C 2.285156 -8.550781 2.1875 -7.550781 2.1875 -6.34375 C 2.1875 -5.132812 2.285156 -4.128906 2.484375 -3.328125 C 2.691406 -2.535156 3.003906 -1.929688 3.421875 -1.515625 C 3.835938 -1.097656 4.289062 -0.8125 4.78125 -0.65625 C 5.28125 -0.507812 5.894531 -0.4375 6.625 -0.4375 C 7.351562 -0.4375 7.960938 -0.507812 8.453125 -0.65625 C 8.953125 -0.8125 9.410156 -1.097656 9.828125 -1.515625 C 10.242188 -1.929688 10.550781 -2.535156 10.75 -3.328125 C 10.957031 -4.128906 11.0625 -5.132812 11.0625 -6.34375 C 11.0625 -7.550781 10.957031 -8.550781 10.75 -9.34375 C 10.550781 -10.132812 10.242188 -10.738281 9.828125 -11.15625 C 9.410156 -11.570312 8.953125 -11.851562 8.453125 -12 Z M 10.53125 -1.328125 C 9.75 -0.296875 8.445312 0.21875 6.625 0.21875 C 4.800781 0.21875 3.492188 -0.296875 2.703125 -1.328125 C 1.921875 -2.367188 1.53125 -4.039062 1.53125 -6.34375 C 1.53125 -8.644531 1.921875 -10.3125 2.703125 -11.34375 C 3.492188 -12.375 4.800781 -12.890625 6.625 -12.890625 C 8.445312 -12.890625 9.75 -12.375 10.53125 -11.34375 C 11.320312 -10.3125 11.71875 -8.644531 11.71875 -6.34375 C 11.71875 -4.039062 11.320312 -2.367188 10.53125 -1.328125 Z M 10.53125 -1.328125 "/></g></g></g><g fill="#000000" fill-opacity="1"><g transform="translate(91.897368, 26.499222)"><g><path d="M 5.65625 0 L 2.171875 0 L 2.171875 -15.296875 L 4.828125 -15.296875 C 6.753906 -15.296875 8.203125 -14.941406 9.171875 -14.234375 C 10.148438 -13.535156 10.640625 -12.539062 10.640625 -11.25 C 10.640625 -9.800781 10.03125 -8.734375 8.8125 -8.046875 C 10.582031 -7.367188 11.46875 -6.109375 11.46875 -4.265625 C 11.46875 -2.953125 10.988281 -1.910156 10.03125 -1.140625 C 9.070312 -0.378906 7.613281 0 5.65625 0 Z M 5.65625 -0.65625 C 6.34375 -0.65625 6.96875 -0.707031 7.53125 -0.8125 C 8.101562 -0.925781 8.648438 -1.109375 9.171875 -1.359375 C 9.691406 -1.617188 10.097656 -1.992188 10.390625 -2.484375 C 10.679688 -2.984375 10.828125 -3.578125 10.828125 -4.265625 C 10.828125 -5.816406 10.070312 -6.875 8.5625 -7.4375 L 7.25 -7.90625 L 8.484375 -8.609375 C 9.484375 -9.160156 9.984375 -10.039062 9.984375 -11.25 C 9.984375 -13.507812 8.265625 -14.640625 4.828125 -14.640625 L 2.8125 -14.640625 L 2.8125 -0.65625 Z M 5.65625 -0.65625 "/></g></g></g><g fill="#000000" fill-opacity="1"><g transform="translate(105.660462, 26.499222)"><g><path d="M 7.40625 -6.359375 L 10.390625 0 L 9.65625 0 L 6.59375 -6.5625 C 6.625 -6.570312 6.753906 -6.628906 6.984375 -6.734375 C 7.210938 -6.847656 7.367188 -6.929688 7.453125 -6.984375 C 7.535156 -7.035156 7.679688 -7.125 7.890625 -7.25 C 8.097656 -7.382812 8.25 -7.515625 8.34375 -7.640625 C 8.445312 -7.765625 8.5625 -7.910156 8.6875 -8.078125 C 8.8125 -8.242188 8.898438 -8.429688 8.953125 -8.640625 C 9.015625 -8.859375 9.046875 -9.085938 9.046875 -9.328125 C 9.046875 -10.253906 8.609375 -10.929688 7.734375 -11.359375 C 6.859375 -11.796875 5.773438 -12.015625 4.484375 -12.015625 L 2.734375 -12.015625 L 2.734375 0 L 2.078125 0 L 2.078125 -12.671875 L 4.484375 -12.671875 C 6.203125 -12.671875 7.5 -12.375 8.375 -11.78125 C 9.257812 -11.1875 9.703125 -10.367188 9.703125 -9.328125 C 9.703125 -8.660156 9.472656 -8.066406 9.015625 -7.546875 C 8.566406 -7.035156 8.03125 -6.640625 7.40625 -6.359375 Z M 7.40625 -6.359375 "/></g></g></g><g fill="#000000" fill-opacity="1"><g transform="translate(118.047294, 26.499222)"><g><path d="M 3.234375 -0.65625 L 10.359375 -0.65625 L 5.875 -11.21875 L 1.109375 0 L 0.421875 0 L 5.875 -12.890625 L 11.34375 0 L 3.234375 0 Z M 3.234375 -0.65625 "/></g></g></g><g fill="#000000" fill-opacity="1"><g transform="translate(130.914725, 26.499222)"><g><path d="M 2.078125 -12.671875 L 2.734375 -12.671875 L 2.734375 0 L 2.078125 0 Z M 2.078125 -12.671875 "/></g></g></g><g fill="#000000" fill-opacity="1"><g transform="translate(136.835341, 26.499222)"><g><path d="M 2.078125 0 L 2.078125 -12.671875 L 2.734375 -12.671875 L 9.859375 -1.203125 L 9.859375 -12.671875 L 10.515625 -12.671875 L 10.515625 0 L 9.859375 0 L 2.734375 -11.5 L 2.734375 0 Z M 2.078125 0 "/></g></g></g><path fill="#5271ff" d="M 15.265625 21.800781 C 15.65625 21.363281 15.660156 20.710938 15.296875 20.269531 C 15.71875 19.722656 16.058594 19.140625 16.3125 18.53125 C 16.628906 17.757812 16.804688 16.945312 16.835938 16.105469 C 16.871094 15.15625 16.714844 14.398438 16.597656 13.988281 C 16.859375 13.714844 16.921875 13.292969 16.722656 12.953125 C 16.480469 12.535156 15.949219 12.390625 15.53125 12.632812 C 15.117188 12.875 14.972656 13.40625 15.214844 13.824219 C 15.441406 14.21875 15.929688 14.367188 16.335938 14.179688 C 16.4375 14.589844 16.566406 15.277344 16.53125 16.109375 C 16.515625 16.523438 16.457031 17 16.324219 17.515625 C 16.273438 17.375 16.21875 17.230469 16.152344 17.089844 C 15.847656 16.410156 15.472656 15.933594 15.25 15.683594 C 15.335938 15.402344 15.234375 15.085938 14.976562 14.914062 C 14.660156 14.703125 14.238281 14.789062 14.027344 15.101562 C 13.820312 15.417969 13.90625 15.839844 14.21875 16.050781 C 14.515625 16.246094 14.910156 16.183594 15.128906 15.910156 C 15.347656 16.160156 15.675781 16.597656 15.941406 17.195312 C 16.035156 17.410156 16.128906 17.65625 16.207031 17.929688 C 15.984375 18.605469 15.632812 19.332031 15.074219 20.058594 C 14.589844 19.710938 13.914062 19.777344 13.507812 20.230469 C 13.070312 20.714844 13.113281 21.460938 13.597656 21.894531 C 14.085938 22.328125 14.832031 22.289062 15.265625 21.800781 " fill-opacity="1" fill-rule="nonzero"/><path fill="#5271ff" d="M 11.5625 23.707031 C 12.140625 23.828125 12.707031 23.503906 12.90625 22.96875 C 13.59375 23.0625 14.265625 23.066406 14.917969 22.976562 C 15.742188 22.867188 16.539062 22.613281 17.277344 22.21875 C 18.121094 21.777344 18.695312 21.261719 18.996094 20.957031 C 19.363281 21.046875 19.757812 20.890625 19.957031 20.546875 C 20.195312 20.128906 20.054688 19.597656 19.636719 19.355469 C 19.21875 19.113281 18.6875 19.257812 18.445312 19.675781 C 18.21875 20.070312 18.332031 20.566406 18.699219 20.824219 C 18.394531 21.117188 17.863281 21.570312 17.125 21.960938 C 16.761719 22.152344 16.316406 22.339844 15.800781 22.484375 C 15.902344 22.367188 15.996094 22.246094 16.085938 22.121094 C 16.523438 21.515625 16.75 20.953125 16.851562 20.636719 C 17.140625 20.570312 17.363281 20.324219 17.382812 20.011719 C 17.40625 19.636719 17.121094 19.3125 16.746094 19.289062 C 16.367188 19.265625 16.042969 19.550781 16.019531 19.925781 C 15.996094 20.28125 16.25 20.59375 16.597656 20.644531 C 16.488281 20.957031 16.273438 21.460938 15.886719 21.992188 C 15.75 22.179688 15.585938 22.382812 15.386719 22.585938 C 14.691406 22.734375 13.882812 22.789062 12.976562 22.671875 C 13.035156 22.078125 12.640625 21.523438 12.042969 21.398438 C 11.40625 21.265625 10.78125 21.675781 10.648438 22.3125 C 10.515625 22.949219 10.925781 23.574219 11.5625 23.707031 " fill-opacity="1" fill-rule="nonzero"/><path fill="#5271ff" d="M 8.058594 21.453125 C 8.242188 22.015625 8.808594 22.34375 9.371094 22.25 C 9.632812 22.890625 9.96875 23.476562 10.371094 23.996094 C 10.878906 24.65625 11.496094 25.214844 12.207031 25.660156 C 13.011719 26.167969 13.746094 26.410156 14.160156 26.515625 C 14.265625 26.878906 14.597656 27.140625 14.996094 27.140625 C 15.476562 27.140625 15.867188 26.753906 15.867188 26.269531 C 15.867188 25.789062 15.476562 25.398438 14.996094 25.398438 C 14.539062 25.398438 14.167969 25.75 14.125 26.191406 C 13.71875 26.078125 13.0625 25.84375 12.355469 25.398438 C 12.007812 25.179688 11.621094 24.890625 11.238281 24.515625 C 11.390625 24.542969 11.542969 24.566406 11.695312 24.582031 C 12.4375 24.65625 13.039062 24.570312 13.367188 24.5 C 13.566406 24.71875 13.890625 24.785156 14.171875 24.648438 C 14.507812 24.480469 14.648438 24.070312 14.480469 23.734375 C 14.3125 23.394531 13.902344 23.257812 13.5625 23.425781 C 13.242188 23.582031 13.101562 23.957031 13.230469 24.285156 C 12.902344 24.34375 12.359375 24.410156 11.710938 24.34375 C 11.476562 24.320312 11.21875 24.277344 10.945312 24.207031 C 10.46875 23.675781 10.015625 23.007812 9.664062 22.160156 C 10.207031 21.917969 10.488281 21.296875 10.300781 20.71875 C 10.097656 20.097656 9.429688 19.761719 8.8125 19.964844 C 8.191406 20.167969 7.855469 20.835938 8.058594 21.453125 " fill-opacity="1" fill-rule="nonzero"/><path fill="#5271ff" d="M 8.261719 17.292969 C 7.867188 17.734375 7.863281 18.386719 8.226562 18.828125 C 7.804688 19.375 7.464844 19.957031 7.214844 20.566406 C 6.898438 21.335938 6.722656 22.152344 6.691406 22.988281 C 6.652344 23.941406 6.8125 24.695312 6.925781 25.105469 C 6.664062 25.378906 6.605469 25.800781 6.800781 26.144531 C 7.042969 26.5625 7.574219 26.703125 7.992188 26.464844 C 8.410156 26.222656 8.550781 25.691406 8.3125 25.273438 C 8.082031 24.878906 7.59375 24.730469 7.191406 24.917969 C 7.085938 24.507812 6.960938 23.820312 6.992188 22.988281 C 7.007812 22.574219 7.066406 22.097656 7.199219 21.578125 C 7.25 21.722656 7.308594 21.867188 7.371094 22.007812 C 7.679688 22.6875 8.050781 23.164062 8.273438 23.414062 C 8.1875 23.695312 8.289062 24.011719 8.550781 24.183594 C 8.863281 24.394531 9.289062 24.308594 9.496094 23.992188 C 9.707031 23.679688 9.621094 23.253906 9.304688 23.046875 C 9.007812 22.847656 8.613281 22.914062 8.394531 23.1875 C 8.179688 22.933594 7.851562 22.496094 7.582031 21.898438 C 7.488281 21.6875 7.394531 21.441406 7.320312 21.167969 C 7.539062 20.492188 7.894531 19.765625 8.449219 19.035156 C 8.933594 19.386719 9.613281 19.320312 10.019531 18.867188 C 10.453125 18.378906 10.410156 17.636719 9.925781 17.199219 C 9.441406 16.765625 8.695312 16.808594 8.261719 17.292969 " fill-opacity="1" fill-rule="nonzero"/><path fill="#5271ff" d="M 11.964844 15.386719 C 11.386719 15.269531 10.820312 15.59375 10.617188 16.128906 C 9.933594 16.035156 9.257812 16.03125 8.605469 16.117188 C 7.78125 16.230469 6.988281 16.484375 6.246094 16.875 C 5.402344 17.320312 4.828125 17.835938 4.53125 18.140625 C 4.164062 18.050781 3.765625 18.207031 3.570312 18.550781 C 3.328125 18.96875 3.472656 19.5 3.886719 19.742188 C 4.304688 19.980469 4.839844 19.839844 5.078125 19.421875 C 5.304688 19.027344 5.191406 18.53125 4.824219 18.273438 C 5.128906 17.976562 5.660156 17.527344 6.398438 17.136719 C 6.765625 16.945312 7.207031 16.757812 7.722656 16.613281 C 7.621094 16.730469 7.527344 16.851562 7.4375 16.976562 C 7 17.582031 6.777344 18.144531 6.671875 18.460938 C 6.382812 18.527344 6.160156 18.773438 6.140625 19.082031 C 6.117188 19.460938 6.402344 19.785156 6.78125 19.808594 C 7.15625 19.832031 7.480469 19.546875 7.503906 19.171875 C 7.527344 18.8125 7.273438 18.503906 6.925781 18.453125 C 7.039062 18.136719 7.253906 17.636719 7.636719 17.105469 C 7.773438 16.914062 7.9375 16.714844 8.136719 16.511719 C 8.832031 16.363281 9.640625 16.304688 10.550781 16.425781 C 10.488281 17.015625 10.886719 17.574219 11.480469 17.695312 C 12.117188 17.832031 12.742188 17.421875 12.875 16.785156 C 13.011719 16.144531 12.601562 15.523438 11.964844 15.386719 " fill-opacity="1" fill-rule="nonzero"/><path fill="#5271ff" d="M 15.464844 17.644531 C 15.28125 17.082031 14.71875 16.753906 14.152344 16.847656 C 13.890625 16.207031 13.558594 15.621094 13.152344 15.101562 C 12.644531 14.441406 12.027344 13.878906 11.320312 13.433594 C 10.511719 12.929688 9.777344 12.6875 9.367188 12.582031 C 9.261719 12.21875 8.925781 11.953125 8.53125 11.953125 C 8.046875 11.953125 7.660156 12.34375 7.660156 12.824219 C 7.660156 13.308594 8.046875 13.695312 8.53125 13.695312 C 8.984375 13.695312 9.359375 13.347656 9.398438 12.902344 C 9.804688 13.019531 10.464844 13.253906 11.167969 13.699219 C 11.519531 13.917969 11.902344 14.207031 12.285156 14.582031 C 12.132812 14.554688 11.980469 14.53125 11.828125 14.515625 C 11.085938 14.441406 10.488281 14.527344 10.160156 14.597656 C 9.960938 14.378906 9.632812 14.308594 9.355469 14.449219 C 9.015625 14.617188 8.878906 15.023438 9.046875 15.363281 C 9.214844 15.703125 9.625 15.839844 9.960938 15.671875 C 10.28125 15.511719 10.421875 15.136719 10.292969 14.8125 C 10.621094 14.75 11.164062 14.6875 11.816406 14.753906 C 12.046875 14.777344 12.304688 14.820312 12.582031 14.890625 C 13.054688 15.417969 13.507812 16.089844 13.859375 16.9375 C 13.316406 17.179688 13.035156 17.800781 13.226562 18.378906 C 13.429688 19 14.09375 19.335938 14.714844 19.132812 C 15.332031 18.929688 15.667969 18.261719 15.464844 17.644531 " fill-opacity="1" fill-rule="nonzero"/><g clip-path="url(#ef49a8ab1b)"><path fill="#5271ff" d="M 12.554688 9.464844 C 12.554688 9.902344 12.199219 10.257812 11.761719 10.257812 C 11.324219 10.257812 10.972656 9.902344 10.972656 9.464844 C 10.972656 9.027344 11.324219 8.671875 11.761719 8.671875 C 12.199219 8.671875 12.554688 9.027344 12.554688 9.464844 " fill-opacity="1" fill-rule="nonzero"/></g><g clip-path="url(#62a81778b7)"><path fill="#5271ff" d="M 12.554688 29.632812 C 12.554688 30.070312 12.199219 30.421875 11.761719 30.421875 C 11.324219 30.421875 10.972656 30.070312 10.972656 29.632812 C 10.972656 29.195312 11.324219 28.839844 11.761719 28.839844 C 12.199219 28.839844 12.554688 29.195312 12.554688 29.632812 " fill-opacity="1" fill-rule="nonzero"/></g><g clip-path="url(#1057c89f9e)"><path fill="#5271ff" d="M 21.847656 20.339844 C 21.410156 20.339844 21.054688 19.984375 21.054688 19.546875 C 21.054688 19.109375 21.410156 18.757812 21.847656 18.757812 C 22.28125 18.757812 22.636719 19.109375 22.636719 19.546875 C 22.636719 19.984375 22.28125 20.339844 21.847656 20.339844 " fill-opacity="1" fill-rule="nonzero"/></g><g clip-path="url(#baca34c67f)"><path fill="#5271ff" d="M 1.679688 20.339844 C 1.242188 20.339844 0.886719 19.984375 0.886719 19.546875 C 0.886719 19.109375 1.242188 18.757812 1.679688 18.757812 C 2.117188 18.757812 2.472656 19.109375 2.472656 19.546875 C 2.472656 19.984375 2.117188 20.339844 1.679688 20.339844 " fill-opacity="1" fill-rule="nonzero"/></g><path fill="#5271ff" d="M 19.453125 12.976562 C 19.144531 13.289062 18.640625 13.289062 18.332031 12.976562 C 18.023438 12.667969 18.023438 12.167969 18.332031 11.859375 C 18.640625 11.550781 19.144531 11.550781 19.453125 11.859375 C 19.761719 12.167969 19.761719 12.667969 19.453125 12.976562 " fill-opacity="1" fill-rule="nonzero"/><path fill="#5271ff" d="M 5.191406 27.238281 C 4.882812 27.546875 4.382812 27.546875 4.074219 27.238281 C 3.761719 26.929688 3.761719 26.425781 4.074219 26.117188 C 4.382812 25.808594 4.882812 25.808594 5.191406 26.117188 C 5.5 26.425781 5.5 26.929688 5.191406 27.238281 " fill-opacity="1" fill-rule="nonzero"/><path fill="#5271ff" d="M 18.332031 27.238281 C 18.023438 26.929688 18.023438 26.425781 18.332031 26.117188 C 18.640625 25.808594 19.144531 25.808594 19.453125 26.117188 C 19.761719 26.425781 19.761719 26.929688 19.453125 27.238281 C 19.144531 27.546875 18.640625 27.546875 18.332031 27.238281 " fill-opacity="1" fill-rule="nonzero"/><path fill="#5271ff" d="M 4.074219 12.976562 C 3.761719 12.667969 3.761719 12.167969 4.074219 11.859375 C 4.382812 11.550781 4.882812 11.550781 5.191406 11.859375 C 5.5 12.167969 5.5 12.667969 5.191406 12.976562 C 4.882812 13.289062 4.382812 13.289062 4.074219 12.976562 " fill-opacity="1" fill-rule="nonzero"/><path fill="#5271ff" d="M 16.464844 10.59375 C 16.292969 10.996094 15.828125 11.183594 15.425781 11.007812 C 15.023438 10.835938 14.839844 10.371094 15.011719 9.96875 C 15.183594 9.566406 15.648438 9.382812 16.050781 9.554688 C 16.453125 9.726562 16.640625 10.191406 16.464844 10.59375 " fill-opacity="1" fill-rule="nonzero"/><path fill="#5271ff" d="M 8.515625 29.125 C 8.339844 29.527344 7.875 29.714844 7.472656 29.542969 C 7.070312 29.371094 6.886719 28.902344 7.058594 28.503906 C 7.230469 28.101562 7.695312 27.914062 8.097656 28.085938 C 8.5 28.257812 8.6875 28.726562 8.515625 29.125 " fill-opacity="1" fill-rule="nonzero"/><path fill="#5271ff" d="M 20.714844 24.253906 C 20.316406 24.078125 20.128906 23.613281 20.300781 23.210938 C 20.472656 22.8125 20.9375 22.625 21.339844 22.796875 C 21.742188 22.96875 21.929688 23.433594 21.757812 23.835938 C 21.582031 24.238281 21.117188 24.425781 20.714844 24.253906 " fill-opacity="1" fill-rule="nonzero"/><path fill="#5271ff" d="M 2.183594 16.300781 C 1.78125 16.128906 1.597656 15.660156 1.769531 15.257812 C 1.941406 14.859375 2.40625 14.671875 2.808594 14.84375 C 3.210938 15.015625 3.394531 15.480469 3.222656 15.882812 C 3.050781 16.285156 2.585938 16.472656 2.183594 16.300781 " fill-opacity="1" fill-rule="nonzero"/><path fill="#5271ff" d="M 21.421875 16.542969 C 21.015625 16.707031 20.554688 16.507812 20.390625 16.101562 C 20.230469 15.695312 20.425781 15.234375 20.832031 15.074219 C 21.238281 14.910156 21.699219 15.109375 21.863281 15.515625 C 22.023438 15.921875 21.828125 16.382812 21.421875 16.542969 " fill-opacity="1" fill-rule="nonzero"/><path fill="#5271ff" d="M 2.691406 24.023438 C 2.285156 24.1875 1.824219 23.988281 1.664062 23.582031 C 1.5 23.175781 1.699219 22.714844 2.105469 22.554688 C 2.511719 22.390625 2.972656 22.589844 3.132812 22.996094 C 3.296875 23.402344 3.097656 23.863281 2.691406 24.023438 " fill-opacity="1" fill-rule="nonzero"/><path fill="#5271ff" d="M 12.363281 11.90625 C 12.363281 12.238281 12.09375 12.507812 11.761719 12.507812 C 11.429688 12.507812 11.164062 12.238281 11.164062 11.90625 C 11.164062 11.574219 11.429688 11.304688 11.761719 11.304688 C 12.09375 11.304688 12.363281 11.574219 12.363281 11.90625 " fill-opacity="1" fill-rule="nonzero"/><path fill="#5271ff" d="M 12.363281 27.191406 C 12.363281 27.523438 12.09375 27.789062 11.761719 27.789062 C 11.429688 27.789062 11.164062 27.523438 11.164062 27.191406 C 11.164062 26.859375 11.429688 26.589844 11.761719 26.589844 C 12.09375 26.589844 12.363281 26.859375 12.363281 27.191406 " fill-opacity="1" fill-rule="nonzero"/><path fill="#5271ff" d="M 16.742188 25.375 C 16.507812 25.140625 16.507812 24.761719 16.742188 24.527344 C 16.976562 24.292969 17.355469 24.292969 17.589844 24.527344 C 17.824219 24.761719 17.824219 25.140625 17.589844 25.375 C 17.355469 25.609375 16.976562 25.609375 16.742188 25.375 " fill-opacity="1" fill-rule="nonzero"/><path fill="#5271ff" d="M 5.933594 14.570312 C 5.699219 14.335938 5.699219 13.953125 5.933594 13.71875 C 6.167969 13.484375 6.546875 13.484375 6.78125 13.71875 C 7.015625 13.953125 7.015625 14.335938 6.78125 14.570312 C 6.546875 14.804688 6.167969 14.804688 5.933594 14.570312 " fill-opacity="1" fill-rule="nonzero"/><path fill="#5271ff" d="M 19.082031 17.269531 C 18.773438 17.394531 18.425781 17.242188 18.300781 16.9375 C 18.179688 16.628906 18.328125 16.277344 18.636719 16.15625 C 18.945312 16.03125 19.292969 16.183594 19.417969 16.492188 C 19.539062 16.796875 19.390625 17.148438 19.082031 17.269531 " fill-opacity="1" fill-rule="nonzero"/><path fill="#5271ff" d="M 4.886719 22.941406 C 4.582031 23.0625 4.230469 22.914062 4.109375 22.605469 C 3.984375 22.296875 4.136719 21.949219 4.441406 21.824219 C 4.75 21.703125 5.101562 21.851562 5.222656 22.160156 C 5.34375 22.46875 5.195312 22.816406 4.886719 22.941406 " fill-opacity="1" fill-rule="nonzero"/><path fill="#5271ff" d="M 14.769531 29.207031 C 14.605469 28.800781 14.804688 28.339844 15.210938 28.175781 C 15.617188 28.015625 16.074219 28.210938 16.238281 28.617188 C 16.398438 29.023438 16.203125 29.484375 15.796875 29.648438 C 15.390625 29.808594 14.929688 29.613281 14.769531 29.207031 " fill-opacity="1" fill-rule="nonzero"/><path fill="#5271ff" d="M 7.285156 10.476562 C 7.125 10.070312 7.324219 9.613281 7.726562 9.449219 C 8.132812 9.285156 8.59375 9.484375 8.757812 9.890625 C 8.917969 10.296875 8.722656 10.757812 8.316406 10.917969 C 7.910156 11.082031 7.449219 10.882812 7.285156 10.476562 " fill-opacity="1" fill-rule="nonzero"/></svg>