<svg xmlns="http://www.w3.org/2000/svg" xmlns:xlink="http://www.w3.org/1999/xlink" width="200" zoomAndPan="magnify" viewBox="0 0 150 38.999999" height="52" preserveAspectRatio="xMidYMid meet" version="1.0"><defs><g/><clipPath id="id1"><path d="M 34 9.523438 L 39 9.523438 L 39 26.773438 L 34 26.773438 Z M 34 9.523438 " clip-rule="nonzero"/></clipPath><clipPath id="id2"><path d="M 27.898438 15 L 45.148438 15 L 45.148438 21 L 27.898438 21 Z M 27.898438 15 " clip-rule="nonzero"/></clipPath></defs><path fill="#002868" d="M 27.328125 3.910156 C 26.59375 4.027344 25.625 4.21875 25.164062 4.351562 C 24.554688 4.523438 24.238281 4.625 23.363281 4.953125 C 22.488281 5.285156 19.8125 6.773438 19.570312 7.0625 C 19.546875 7.085938 19.265625 7.320312 18.945312 7.570312 C 18.207031 8.136719 16.785156 9.5625 16.167969 10.332031 C 15.738281 10.863281 15.308594 11.539062 15.054688 12.046875 C 14.140625 13.929688 13.59375 15.605469 13.265625 17.496094 C 13.046875 18.75 13.070312 21.621094 13.304688 22.984375 C 13.59375 24.699219 14.085938 26.394531 14.695312 27.851562 C 15.0625 28.714844 16.207031 30.941406 16.511719 31.386719 C 16.644531 31.582031 16.753906 31.757812 16.753906 31.78125 C 16.753906 31.8125 16.824219 31.921875 16.910156 32.03125 C 17.128906 32.3125 17.105469 32.132812 16.808594 31.230469 C 16.542969 30.453125 16.292969 29.492188 16.136719 28.707031 C 15.894531 27.414062 15.855469 26.933594 15.855469 25.046875 C 15.855469 23.085938 15.886719 22.679688 16.183594 21.234375 C 16.253906 20.914062 16.332031 20.507812 16.363281 20.335938 C 16.628906 19.046875 17.792969 16.289062 18.601562 15.042969 C 18.765625 14.785156 18.945312 14.496094 19 14.40625 C 19.046875 14.3125 19.125 14.1875 19.171875 14.132812 C 19.21875 14.078125 19.484375 13.726562 19.757812 13.359375 C 21 11.695312 22.753906 10.082031 24.6875 8.8125 C 26.429688 7.675781 29.019531 6.59375 30.953125 6.207031 C 31.210938 6.160156 31.5625 6.082031 31.734375 6.050781 C 32.703125 5.839844 33.511719 5.777344 35.253906 5.777344 C 37.171875 5.785156 38.09375 5.878906 39.4375 6.207031 C 39.589844 6.246094 39.894531 6.316406 40.105469 6.371094 C 40.621094 6.484375 41.785156 6.875 42.347656 7.109375 C 42.859375 7.320312 43.210938 7.367188 42.882812 7.179688 C 42.664062 7.054688 42.6875 7.070312 41.542969 6.53125 C 38.773438 5.234375 35.722656 4.320312 32.757812 3.910156 C 31.679688 3.761719 28.292969 3.761719 27.328125 3.910156 Z M 27.328125 3.910156 " fill-opacity="1" fill-rule="nonzero"/><path fill="#002868" d="M 55.554688 3.957031 C 55.554688 4.027344 55.609375 4.234375 55.679688 4.421875 C 57.09375 8.339844 57.179688 13.058594 55.90625 16.894531 C 54.914062 19.886719 53.503906 22.214844 51.367188 24.417969 C 50.085938 25.742188 48.496094 26.980469 46.988281 27.835938 C 46.558594 28.078125 45.015625 28.816406 44.679688 28.933594 C 44.53125 28.988281 44.335938 29.066406 44.25 29.105469 C 43.695312 29.339844 41.964844 29.828125 41.238281 29.960938 C 39.46875 30.273438 39.210938 30.296875 37.367188 30.296875 C 35.511719 30.289062 34.386719 30.179688 33.140625 29.867188 C 32.96875 29.820312 32.703125 29.75 32.554688 29.71875 C 31.773438 29.523438 30.515625 29.105469 30.191406 28.933594 C 30.027344 28.847656 29.894531 28.839844 29.894531 28.917969 C 29.894531 29.027344 31.953125 29.960938 33.257812 30.460938 C 35.074219 31.144531 37.171875 31.726562 38.734375 31.976562 C 39.054688 32.023438 39.5 32.101562 39.714844 32.148438 C 40.324219 32.265625 43.59375 32.3125 44.5625 32.21875 C 45.5 32.125 46.464844 31.96875 47.113281 31.789062 C 47.347656 31.726562 47.730469 31.621094 47.964844 31.558594 C 48.199219 31.488281 48.757812 31.300781 49.1875 31.128906 C 51.863281 30.09375 54.394531 28.21875 56.390625 25.804688 C 57.515625 24.449219 58.675781 21.816406 59.152344 19.558594 C 59.636719 17.246094 59.660156 15.339844 59.238281 12.628906 C 59.097656 11.75 58.472656 9.539062 58.175781 8.890625 C 58.121094 8.757812 57.996094 8.472656 57.902344 8.238281 C 57.746094 7.832031 57.570312 7.445312 57.289062 6.828125 C 57.023438 6.253906 55.898438 4.273438 55.78125 4.179688 C 55.757812 4.15625 55.695312 4.074219 55.648438 3.988281 C 55.578125 3.863281 55.5625 3.855469 55.554688 3.957031 Z M 55.554688 3.957031 " fill-opacity="1" fill-rule="nonzero"/><path fill="#002868" d="M 32.945312 6.640625 C 31.6875 6.796875 30.484375 7.03125 29.777344 7.257812 C 28.777344 7.582031 27.441406 8.183594 27.148438 8.433594 C 27.085938 8.496094 27 8.542969 26.960938 8.542969 C 26.804688 8.542969 25.773438 9.382812 25.195312 9.980469 C 23.800781 11.421875 22.949219 12.980469 22.574219 14.769531 C 22.394531 15.632812 22.394531 17.207031 22.574219 18.15625 C 22.878906 19.738281 23.582031 21.386719 24.625 22.945312 C 25.132812 23.707031 25.75 24.496094 25.75 24.378906 C 25.75 24.339844 25.625 23.996094 25.46875 23.609375 C 25.078125 22.632812 25.070312 22.625 24.984375 22.363281 C 24.914062 22.152344 24.859375 21.949219 24.6875 21.195312 C 24.261719 19.347656 24.398438 16.902344 25.03125 15.003906 C 25.742188 12.863281 26.765625 11.375 28.253906 10.363281 C 28.917969 9.910156 30.089844 9.28125 30.796875 9.007812 C 31.054688 8.90625 31.304688 8.804688 31.34375 8.773438 C 31.421875 8.722656 33.273438 8.136719 33.808594 7.996094 C 35.253906 7.621094 36.695312 7.398438 38.421875 7.289062 C 39.714844 7.210938 40.113281 7.164062 40.050781 7.101562 C 40.019531 7.070312 39.800781 7.03125 38.070312 6.78125 C 37.320312 6.671875 33.550781 6.570312 32.945312 6.640625 Z M 32.945312 6.640625 " fill-opacity="1" fill-rule="nonzero"/><path fill="#002868" d="M 40.324219 7.273438 C 40.394531 7.289062 40.519531 7.289062 40.597656 7.273438 C 40.667969 7.25 40.605469 7.234375 40.457031 7.234375 C 40.308594 7.234375 40.246094 7.25 40.324219 7.273438 Z M 40.324219 7.273438 " fill-opacity="1" fill-rule="nonzero"/><path fill="#002868" d="M 42.277344 7.582031 C 42.347656 7.597656 42.457031 7.597656 42.511719 7.582031 C 42.5625 7.5625 42.503906 7.546875 42.371094 7.546875 C 42.246094 7.546875 42.199219 7.5625 42.277344 7.582031 Z M 42.277344 7.582031 " fill-opacity="1" fill-rule="nonzero"/><path fill="#002868" d="M 42.804688 7.683594 C 42.804688 7.722656 42.898438 7.761719 43.007812 7.761719 C 43.117188 7.761719 43.1875 7.730469 43.15625 7.683594 C 43.132812 7.636719 43.039062 7.605469 42.953125 7.605469 C 42.875 7.605469 42.804688 7.636719 42.804688 7.683594 Z M 42.804688 7.683594 " fill-opacity="1" fill-rule="nonzero"/><path fill="#002868" d="M 43.3125 7.839844 C 43.28125 7.886719 43.351562 7.917969 43.46875 7.917969 C 43.585938 7.917969 43.65625 7.886719 43.625 7.839844 C 43.601562 7.792969 43.53125 7.761719 43.46875 7.761719 C 43.40625 7.761719 43.335938 7.792969 43.3125 7.839844 Z M 43.3125 7.839844 " fill-opacity="1" fill-rule="nonzero"/><path fill="#002868" d="M 43.78125 7.996094 C 43.804688 8.035156 43.882812 8.074219 43.945312 8.074219 C 44.007812 8.074219 44.054688 8.035156 44.054688 7.996094 C 44.054688 7.949219 43.984375 7.917969 43.890625 7.917969 C 43.804688 7.917969 43.757812 7.949219 43.78125 7.996094 Z M 43.78125 7.996094 " fill-opacity="1" fill-rule="nonzero"/><path fill="#002868" d="M 34.785156 9.59375 L 34.589844 9.78125 L 34.589844 15.695312 L 28.503906 15.742188 L 28.097656 16.117188 L 28.097656 19.964844 L 28.300781 20.152344 L 28.503906 20.335938 L 34.589844 20.382812 L 34.589844 26.300781 L 34.785156 26.488281 L 34.972656 26.683594 L 36.921875 26.683594 C 38.726562 26.683594 38.890625 26.675781 39.054688 26.535156 L 39.242188 26.386719 L 39.28125 23.398438 L 39.320312 20.414062 L 42.371094 20.375 C 44.054688 20.351562 45.429688 20.320312 45.4375 20.3125 C 45.800781 19.949219 45.777344 20.082031 45.777344 18.015625 C 45.777344 16.125 45.769531 16.070312 45.605469 15.929688 C 45.515625 15.84375 45.4375 15.773438 45.429688 15.765625 C 45.421875 15.757812 44.054688 15.726562 42.371094 15.703125 L 39.320312 15.664062 L 39.28125 12.683594 L 39.242188 9.695312 L 39.054688 9.546875 C 38.890625 9.40625 38.726562 9.398438 36.921875 9.398438 L 34.972656 9.398438 Z M 34.785156 9.59375 " fill-opacity="1" fill-rule="nonzero"/><path fill="#002868" d="M 46.871094 11.703125 C 46.871094 11.734375 47.019531 12.117188 47.199219 12.542969 C 47.699219 13.757812 47.925781 14.667969 48.121094 16.296875 C 48.277344 17.550781 48.089844 19.402344 47.667969 20.84375 C 47.230469 22.292969 46.355469 23.894531 45.523438 24.746094 C 45.179688 25.101562 44.054688 25.980469 43.945312 25.980469 C 43.90625 25.980469 43.789062 26.042969 43.679688 26.121094 C 42.71875 26.792969 40.691406 27.578125 38.421875 28.171875 C 37.117188 28.503906 34.386719 28.863281 33.085938 28.863281 C 32.453125 28.863281 32.382812 28.972656 32.96875 29.050781 C 33.1875 29.074219 33.574219 29.136719 33.808594 29.175781 C 34.636719 29.316406 36.828125 29.484375 37.796875 29.476562 C 38.78125 29.476562 40.667969 29.324219 41.316406 29.183594 C 42.214844 28.988281 42.417969 28.933594 43.078125 28.722656 C 45.3125 27.984375 46.957031 26.816406 48.402344 24.929688 C 48.890625 24.292969 49.382812 23.382812 49.71875 22.496094 C 50.140625 21.378906 50.359375 19.449219 50.164062 18.5625 C 50.125 18.382812 50.046875 18.023438 50 17.769531 C 49.820312 16.824219 49.335938 15.464844 48.84375 14.535156 C 48.269531 13.460938 46.871094 11.445312 46.871094 11.703125 Z M 46.871094 11.703125 " fill-opacity="1" fill-rule="nonzero"/><path fill="#002868" d="M 28.535156 27.984375 C 28.449219 28.070312 28.488281 28.164062 28.597656 28.164062 C 28.660156 28.164062 28.730469 28.132812 28.753906 28.09375 C 28.808594 28.015625 28.605469 27.914062 28.535156 27.984375 Z M 28.535156 27.984375 " fill-opacity="1" fill-rule="nonzero"/><path fill="#002868" d="M 28.878906 28.164062 C 28.878906 28.203125 28.972656 28.242188 29.097656 28.234375 C 29.285156 28.234375 29.292969 28.226562 29.152344 28.164062 C 28.941406 28.070312 28.878906 28.070312 28.878906 28.164062 Z M 28.878906 28.164062 " fill-opacity="1" fill-rule="nonzero"/><path fill="#002868" d="M 29.347656 28.316406 C 29.347656 28.355469 29.464844 28.394531 29.605469 28.394531 C 29.792969 28.394531 29.824219 28.371094 29.738281 28.316406 C 29.582031 28.21875 29.347656 28.21875 29.347656 28.316406 Z M 29.347656 28.316406 " fill-opacity="1" fill-rule="nonzero"/><path fill="#002868" d="M 29.996094 28.527344 C 30.066406 28.542969 30.191406 28.542969 30.269531 28.527344 C 30.339844 28.503906 30.277344 28.488281 30.128906 28.488281 C 29.980469 28.488281 29.917969 28.503906 29.996094 28.527344 Z M 29.996094 28.527344 " fill-opacity="1" fill-rule="nonzero"/><path fill="#002868" d="M 29.644531 28.839844 C 29.699219 28.863281 29.769531 28.855469 29.792969 28.832031 C 29.824219 28.808594 29.777344 28.785156 29.691406 28.792969 C 29.605469 28.792969 29.582031 28.816406 29.644531 28.839844 Z M 29.644531 28.839844 " fill-opacity="1" fill-rule="nonzero"/><g fill="#bf0a30" fill-opacity="1"><g transform="translate(64.058837, 15.19831)"><g><path d="M 3.125 -4.15625 L 3.125 0 L 0.75 0 L 0.75 -10.375 L 3.125 -10.375 L 3.125 -6.234375 L 6.46875 -6.234375 L 6.46875 -10.375 L 8.828125 -10.375 L 8.828125 0 L 6.46875 0 L 6.46875 -4.15625 Z M 3.125 -4.15625 "/></g></g></g><g fill="#bf0a30" fill-opacity="1"><g transform="translate(75.340063, 15.19831)"><g><path d="M 0.296875 -5.1875 C 0.296875 -6.695312 0.804688 -7.96875 1.828125 -9 C 2.847656 -10.039062 4.078125 -10.5625 5.515625 -10.5625 C 6.972656 -10.5625 8.207031 -10.039062 9.21875 -9 C 10.226562 -7.96875 10.734375 -6.695312 10.734375 -5.1875 C 10.734375 -3.675781 10.234375 -2.398438 9.234375 -1.359375 C 8.242188 -0.328125 7.003906 0.1875 5.515625 0.1875 C 4.003906 0.1875 2.753906 -0.320312 1.765625 -1.34375 C 0.785156 -2.375 0.296875 -3.65625 0.296875 -5.1875 Z M 2.84375 -5.1875 C 2.84375 -4.644531 2.925781 -4.148438 3.09375 -3.703125 C 3.257812 -3.253906 3.550781 -2.875 3.96875 -2.5625 C 4.394531 -2.25 4.910156 -2.09375 5.515625 -2.09375 C 6.398438 -2.09375 7.066406 -2.394531 7.515625 -3 C 7.960938 -3.601562 8.1875 -4.332031 8.1875 -5.1875 C 8.1875 -6.039062 7.957031 -6.769531 7.5 -7.375 C 7.039062 -7.976562 6.378906 -8.28125 5.515625 -8.28125 C 4.660156 -8.28125 4 -7.976562 3.53125 -7.375 C 3.070312 -6.769531 2.84375 -6.039062 2.84375 -5.1875 Z M 2.84375 -5.1875 "/></g></g></g><g fill="#bf0a30" fill-opacity="1"><g transform="translate(88.067318, 15.19831)"><g><path d="M 3.125 -10.375 L 3.125 -2.078125 L 6.6875 -2.078125 L 6.6875 0 L 0.75 0 L 0.75 -10.375 Z M 3.125 -10.375 "/></g></g></g><g fill="#bf0a30" fill-opacity="1"><g transform="translate(96.871426, 15.19831)"><g><path d="M 3.125 -10.375 L 3.125 0 L 0.75 0 L 0.75 -10.375 Z M 3.125 -10.375 "/></g></g></g><g fill="#bf0a30" fill-opacity="1"><g transform="translate(102.44396, 15.19831)"><g><path d="M 4.578125 -10.5625 C 5.140625 -10.5625 5.6875 -10.476562 6.21875 -10.3125 C 6.757812 -10.15625 7.160156 -10 7.421875 -9.84375 L 7.796875 -9.578125 L 6.84375 -7.703125 C 6.769531 -7.742188 6.664062 -7.804688 6.53125 -7.890625 C 6.394531 -7.972656 6.140625 -8.082031 5.765625 -8.21875 C 5.398438 -8.351562 5.054688 -8.421875 4.734375 -8.421875 C 4.347656 -8.421875 4.046875 -8.332031 3.828125 -8.15625 C 3.617188 -7.988281 3.515625 -7.765625 3.515625 -7.484375 C 3.515625 -7.335938 3.5625 -7.203125 3.65625 -7.078125 C 3.757812 -6.960938 3.929688 -6.832031 4.171875 -6.6875 C 4.421875 -6.550781 4.632812 -6.441406 4.8125 -6.359375 C 5 -6.273438 5.285156 -6.148438 5.671875 -5.984375 C 6.335938 -5.703125 6.90625 -5.316406 7.375 -4.828125 C 7.851562 -4.335938 8.09375 -3.78125 8.09375 -3.15625 C 8.09375 -2.5625 7.984375 -2.039062 7.765625 -1.59375 C 7.554688 -1.15625 7.265625 -0.804688 6.890625 -0.546875 C 6.523438 -0.296875 6.113281 -0.113281 5.65625 0 C 5.207031 0.125 4.71875 0.1875 4.1875 0.1875 C 3.738281 0.1875 3.296875 0.140625 2.859375 0.046875 C 2.421875 -0.046875 2.054688 -0.160156 1.765625 -0.296875 C 1.472656 -0.429688 1.207031 -0.566406 0.96875 -0.703125 C 0.726562 -0.835938 0.554688 -0.953125 0.453125 -1.046875 L 0.296875 -1.1875 L 1.46875 -3.171875 C 1.570312 -3.085938 1.710938 -2.976562 1.890625 -2.84375 C 2.066406 -2.71875 2.378906 -2.546875 2.828125 -2.328125 C 3.273438 -2.109375 3.671875 -2 4.015625 -2 C 5.015625 -2 5.515625 -2.335938 5.515625 -3.015625 C 5.515625 -3.160156 5.476562 -3.289062 5.40625 -3.40625 C 5.332031 -3.53125 5.203125 -3.65625 5.015625 -3.78125 C 4.835938 -3.90625 4.679688 -4 4.546875 -4.0625 C 4.410156 -4.132812 4.179688 -4.242188 3.859375 -4.390625 C 3.546875 -4.535156 3.316406 -4.648438 3.171875 -4.734375 C 2.535156 -5.035156 2.046875 -5.421875 1.703125 -5.890625 C 1.359375 -6.359375 1.1875 -6.859375 1.1875 -7.390625 C 1.1875 -8.328125 1.53125 -9.085938 2.21875 -9.671875 C 2.90625 -10.265625 3.691406 -10.5625 4.578125 -10.5625 Z M 4.578125 -10.5625 "/></g></g></g><g fill="#bf0a30" fill-opacity="1"><g transform="translate(112.593501, 15.19831)"><g><path d="M 0.09375 -8.296875 L 0.09375 -10.375 L 7.390625 -10.375 L 7.390625 -8.296875 L 4.9375 -8.296875 L 4.9375 0 L 2.5625 0 L 2.5625 -8.296875 Z M 0.09375 -8.296875 "/></g></g></g><g fill="#bf0a30" fill-opacity="1"><g transform="translate(121.787404, 15.19831)"><g><path d="M 3.125 -10.375 L 3.125 0 L 0.75 0 L 0.75 -10.375 Z M 3.125 -10.375 "/></g></g></g><g fill="#bf0a30" fill-opacity="1"><g transform="translate(127.359938, 15.19831)"><g><path d="M 6.28125 -2.140625 C 6.632812 -2.140625 6.984375 -2.191406 7.328125 -2.296875 C 7.671875 -2.410156 7.921875 -2.515625 8.078125 -2.609375 L 8.3125 -2.78125 L 9.3125 -0.765625 C 9.28125 -0.742188 9.234375 -0.710938 9.171875 -0.671875 C 9.117188 -0.628906 8.984375 -0.550781 8.765625 -0.4375 C 8.554688 -0.320312 8.328125 -0.222656 8.078125 -0.140625 C 7.835938 -0.0546875 7.519531 0.015625 7.125 0.078125 C 6.738281 0.148438 6.332031 0.1875 5.90625 0.1875 C 4.945312 0.1875 4.035156 -0.046875 3.171875 -0.515625 C 2.304688 -0.992188 1.609375 -1.644531 1.078125 -2.46875 C 0.554688 -3.300781 0.296875 -4.203125 0.296875 -5.171875 C 0.296875 -5.898438 0.445312 -6.597656 0.75 -7.265625 C 1.0625 -7.941406 1.472656 -8.515625 1.984375 -8.984375 C 2.503906 -9.460938 3.109375 -9.84375 3.796875 -10.125 C 4.484375 -10.414062 5.1875 -10.5625 5.90625 -10.5625 C 6.582031 -10.5625 7.203125 -10.484375 7.765625 -10.328125 C 8.328125 -10.171875 8.726562 -10.007812 8.96875 -9.84375 L 9.3125 -9.609375 L 8.3125 -7.59375 C 8.25 -7.644531 8.160156 -7.707031 8.046875 -7.78125 C 7.929688 -7.851562 7.695312 -7.945312 7.34375 -8.0625 C 6.988281 -8.175781 6.632812 -8.234375 6.28125 -8.234375 C 5.707031 -8.234375 5.191406 -8.140625 4.734375 -7.953125 C 4.285156 -7.773438 3.925781 -7.535156 3.65625 -7.234375 C 3.394531 -6.929688 3.195312 -6.601562 3.0625 -6.25 C 2.925781 -5.90625 2.859375 -5.550781 2.859375 -5.1875 C 2.859375 -4.40625 3.148438 -3.703125 3.734375 -3.078125 C 4.328125 -2.453125 5.175781 -2.140625 6.28125 -2.140625 Z M 6.28125 -2.140625 "/></g></g></g><g fill="#002868" fill-opacity="1"><g transform="translate(64.058837, 32.448308)"><g><path d="M 3.125 -4.15625 L 3.125 0 L 0.75 0 L 0.75 -10.375 L 3.125 -10.375 L 3.125 -6.234375 L 6.46875 -6.234375 L 6.46875 -10.375 L 8.828125 -10.375 L 8.828125 0 L 6.46875 0 L 6.46875 -4.15625 Z M 3.125 -4.15625 "/></g></g></g><g fill="#002868" fill-opacity="1"><g transform="translate(75.340063, 32.448308)"><g><path d="M 6.6875 -10.375 L 6.6875 -8.296875 L 3.125 -8.296875 L 3.125 -6.234375 L 6.546875 -6.234375 L 6.546875 -4.15625 L 3.125 -4.15625 L 3.125 -2.078125 L 6.6875 -2.078125 L 6.6875 0 L 0.75 0 L 0.75 -10.375 Z M 6.6875 -10.375 "/></g></g></g><g fill="#002868" fill-opacity="1"><g transform="translate(84.332779, 32.448308)"><g><path d="M 6.03125 -10.375 L 10.21875 0 L 7.671875 0 L 6.90625 -2.078125 L 2.953125 -2.078125 L 2.1875 0 L -0.359375 0 L 3.84375 -10.375 Z M 6.09375 -4.15625 L 4.9375 -7.171875 L 4.921875 -7.171875 L 3.765625 -4.15625 Z M 6.09375 -4.15625 "/></g></g></g><g fill="#002868" fill-opacity="1"><g transform="translate(95.890633, 32.448308)"><g><path d="M 3.125 -10.375 L 3.125 -2.078125 L 6.6875 -2.078125 L 6.6875 0 L 0.75 0 L 0.75 -10.375 Z M 3.125 -10.375 "/></g></g></g><g fill="#002868" fill-opacity="1"><g transform="translate(104.694738, 32.448308)"><g><path d="M 3.125 -10.375 L 3.125 0 L 0.75 0 L 0.75 -10.375 Z M 3.125 -10.375 "/></g></g></g><g fill="#002868" fill-opacity="1"><g transform="translate(110.267273, 32.448308)"><g><path d="M 3.125 -6.4375 L 3.125 0 L 0.75 0 L 0.75 -10.375 L 3.125 -10.375 L 7.25 -3.9375 L 7.265625 -3.9375 L 7.265625 -10.375 L 9.640625 -10.375 L 9.640625 0 L 7.265625 0 L 3.140625 -6.4375 Z M 3.125 -6.4375 "/></g></g></g><g fill="#002868" fill-opacity="1"><g transform="translate(122.353246, 32.448308)"><g><path d="M 10.140625 -5.8125 L 10.140625 -3.5625 C 9.867188 -2.320312 9.28125 -1.382812 8.375 -0.75 C 7.46875 -0.125 6.457031 0.1875 5.34375 0.1875 C 3.945312 0.1875 2.753906 -0.332031 1.765625 -1.375 C 0.785156 -2.425781 0.296875 -3.695312 0.296875 -5.1875 C 0.296875 -6.695312 0.773438 -7.96875 1.734375 -9 C 2.703125 -10.039062 3.90625 -10.5625 5.34375 -10.5625 C 7.03125 -10.5625 8.363281 -9.972656 9.34375 -8.796875 L 7.796875 -7.09375 C 7.242188 -7.976562 6.472656 -8.421875 5.484375 -8.421875 C 4.753906 -8.421875 4.128906 -8.101562 3.609375 -7.46875 C 3.097656 -6.84375 2.84375 -6.082031 2.84375 -5.1875 C 2.84375 -4.300781 3.097656 -3.546875 3.609375 -2.921875 C 4.128906 -2.296875 4.753906 -1.984375 5.484375 -1.984375 C 6.085938 -1.984375 6.613281 -2.164062 7.0625 -2.53125 C 7.507812 -2.894531 7.734375 -3.378906 7.734375 -3.984375 L 5.34375 -3.984375 L 5.34375 -5.8125 Z M 10.140625 -5.8125 "/></g></g></g><g clip-path="url(#id1)"><path fill="#bf0a30" d="M 34.1875 9.523438 L 38.867188 9.523438 L 38.867188 26.773438 L 34.1875 26.773438 Z M 34.1875 9.523438 " fill-opacity="1" fill-rule="nonzero"/></g><g clip-path="url(#id2)"><path fill="#bf0a30" d="M 27.902344 20.488281 L 27.902344 15.808594 L 45.152344 15.808594 L 45.152344 20.488281 Z M 27.902344 20.488281 " fill-opacity="1" fill-rule="nonzero"/></g></svg>