<svg xmlns="http://www.w3.org/2000/svg" xmlns:xlink="http://www.w3.org/1999/xlink" width="200" zoomAndPan="magnify" viewBox="0 0 150 38.999999" height="52" preserveAspectRatio="xMidYMid meet" version="1.0"><defs><g/><clipPath id="id1"><path d="M 12.632812 5.992188 L 35.882812 5.992188 L 35.882812 35.992188 L 12.632812 35.992188 Z M 12.632812 5.992188 " clip-rule="nonzero"/></clipPath><clipPath id="id2"><path d="M 0 8.660156 L 21.09375 8.660156 L 21.09375 29.660156 L 0 29.660156 Z M 0 8.660156 " clip-rule="nonzero"/></clipPath></defs><g clip-path="url(#id1)"><path fill="#000000" d="M 12.632812 5.992188 L 12.632812 35.992188 L 35.882812 35.992188 L 35.882812 5.992188 L 12.632812 5.992188 M 35.289062 35.40625 L 13.214844 35.40625 L 13.214844 6.570312 L 35.289062 6.570312 L 35.289062 35.40625 " fill-opacity="1" fill-rule="nonzero"/></g><g clip-path="url(#id2)"><path fill="#ffffff" d="M -7.40625 8.660156 L 21.09375 8.660156 L 21.09375 29.660156 L -7.40625 29.660156 L -7.40625 8.660156 " fill-opacity="1" fill-rule="nonzero"/></g><g fill="#000000" fill-opacity="1"><g transform="translate(6.125326, 26.973564)"><g><path d="M 15.019531 -5.046875 C 13.078125 -1.871094 11.585938 -0.378906 8.527344 -0.378906 L 5.402344 -0.378906 L 5.402344 -8.101562 L 7.390625 -8.101562 C 10.328125 -8.101562 11.441406 -7.460938 12.011719 -5.308594 L 12.011719 -11.300781 C 11.441406 -9.121094 10.328125 -8.480469 7.390625 -8.480469 L 5.402344 -8.480469 L 5.402344 -16.203125 L 8.386719 -16.203125 C 11.441406 -16.203125 12.367188 -15.019531 14.167969 -12.367188 L 14.261719 -12.414062 L 13.386719 -16.582031 L 0.355469 -16.582031 L 0.355469 -16.464844 C 1.328125 -16.347656 2.15625 -16.085938 2.15625 -15.234375 L 2.15625 -1.824219 C 2.15625 -0.972656 1.328125 -0.472656 0.355469 -0.117188 L 0.355469 0 L 12.910156 0 L 13.71875 0.519531 L 13.859375 0 L 15.113281 -5 Z M 15.019531 -5.046875 "/></g></g></g><g fill="#000000" fill-opacity="1"><g transform="translate(20.183934, 32.20089)"><g><path d="M 18.597656 -16.464844 L 18.597656 -16.582031 L 11.75 -16.582031 L 11.75 -16.464844 C 12.722656 -16.347656 13.550781 -16.085938 13.550781 -15.234375 L 13.550781 -8.386719 L 5.402344 -8.386719 L 5.402344 -15.234375 C 5.402344 -16.085938 6.230469 -16.347656 7.203125 -16.464844 L 7.203125 -16.582031 L 0.355469 -16.582031 L 0.355469 -16.464844 C 1.328125 -16.347656 2.15625 -16.085938 2.15625 -15.234375 L 2.15625 -1.351562 C 2.15625 -0.496094 1.328125 -0.238281 0.355469 -0.117188 L 0.355469 0 L 7.203125 0 L 7.203125 -0.117188 C 6.230469 -0.238281 5.402344 -0.496094 5.402344 -1.351562 L 5.402344 -7.984375 L 13.550781 -7.984375 L 13.550781 -1.351562 C 13.550781 -0.496094 12.722656 -0.238281 11.75 -0.117188 L 11.75 0 L 18.597656 0 L 18.597656 -0.117188 C 17.625 -0.238281 16.796875 -0.496094 16.796875 -1.351562 L 16.796875 -15.234375 C 16.796875 -16.085938 17.625 -16.347656 18.597656 -16.464844 Z M 18.597656 -16.464844 "/></g></g></g><path stroke-linecap="round" transform="matrix(0.748154, 0, 0, 0.75, 17.008953, 2.422926)" fill="none" stroke-linejoin="miter" d="M 3.501889 -0.00140166 L 15.557601 -0.00140166 " stroke="#000000" stroke-width="1" stroke-opacity="1" stroke-miterlimit="4"/><path stroke-linecap="butt" transform="matrix(0.748154, 0, 0, 0.75, 17.008953, 2.422926)" fill="none" stroke-linejoin="round" d="M 0.499709 -0.00140166 L 1.998188 -1.501402 L 3.501889 -0.00140166 L 1.998188 1.498598 Z M 0.499709 -0.00140166 " stroke="#000000" stroke-width="1" stroke-opacity="1" stroke-miterlimit="4"/><path stroke-linecap="butt" transform="matrix(0.748154, 0, 0, 0.75, 31.26524, 2.422926)" fill="none" stroke-linejoin="round" d="M -0.500719 -0.00140166 L -1.999199 -1.501402 L -3.497678 -0.00140166 L -1.999199 1.498598 Z M -0.500719 -0.00140166 " stroke="#000000" stroke-width="1" stroke-opacity="1" stroke-miterlimit="4"/><g fill="#000000" fill-opacity="1"><g transform="translate(40.510103, 24.374998)"><g><path d="M 3.875 -9.390625 L 3.875 -6.40625 L 7.78125 -6.40625 L 7.78125 -4.796875 L 3.875 -4.796875 L 3.875 -1.640625 L 8.609375 -1.640625 L 8.609375 0 L 1.640625 0 L 1.640625 -11.015625 L 8.5625 -11.015625 L 8.328125 -9.390625 Z M 3.875 -9.390625 "/></g></g></g><g fill="#000000" fill-opacity="1"><g transform="translate(50.065633, 24.374998)"><g><path d="M 0.453125 -11.015625 L 2.890625 -11.015625 L 4.78125 -7.265625 L 6.703125 -11.015625 L 9.0625 -11.015625 L 6.078125 -5.953125 L 9.375 0 L 6.9375 0 L 4.75 -4.453125 L 2.5625 0 L 0.1875 0 L 3.421875 -5.859375 Z M 0.453125 -11.015625 "/></g></g></g><g fill="#000000" fill-opacity="1"><g transform="translate(59.621163, 24.374998)"><g><path d="M 6.765625 -7.484375 C 6.765625 -7.929688 6.679688 -8.296875 6.515625 -8.578125 C 6.347656 -8.859375 6.101562 -9.0625 5.78125 -9.1875 C 5.457031 -9.320312 5.0625 -9.390625 4.59375 -9.390625 L 3.484375 -9.390625 L 3.484375 -5.453125 L 4.671875 -5.453125 C 5.097656 -5.453125 5.46875 -5.519531 5.78125 -5.65625 C 6.09375 -5.789062 6.332031 -6.003906 6.5 -6.296875 C 6.675781 -6.597656 6.765625 -6.992188 6.765625 -7.484375 Z M 9.09375 -7.5 C 9.09375 -6.644531 8.910156 -5.941406 8.546875 -5.390625 C 8.179688 -4.847656 7.671875 -4.445312 7.015625 -4.1875 C 6.367188 -3.925781 5.613281 -3.796875 4.75 -3.796875 L 3.484375 -3.796875 L 3.484375 0 L 1.265625 0 L 1.265625 -11.015625 L 4.53125 -11.015625 C 5.96875 -11.015625 7.085938 -10.722656 7.890625 -10.140625 C 8.691406 -9.566406 9.09375 -8.6875 9.09375 -7.5 Z M 9.09375 -7.5 "/></g></g></g><g fill="#000000" fill-opacity="1"><g transform="translate(69.176693, 24.374998)"><g><path d="M 3.875 -9.390625 L 3.875 -6.40625 L 7.78125 -6.40625 L 7.78125 -4.796875 L 3.875 -4.796875 L 3.875 -1.640625 L 8.609375 -1.640625 L 8.609375 0 L 1.640625 0 L 1.640625 -11.015625 L 8.5625 -11.015625 L 8.328125 -9.390625 Z M 3.875 -9.390625 "/></g></g></g><g fill="#000000" fill-opacity="1"><g transform="translate(78.732223, 24.374998)"><g><path d="M 8.828125 -7.75 C 8.828125 -7.21875 8.722656 -6.753906 8.515625 -6.359375 C 8.304688 -5.960938 8.019531 -5.628906 7.65625 -5.359375 C 7.300781 -5.085938 6.90625 -4.875 6.46875 -4.71875 L 9.46875 0 L 6.921875 0 L 4.34375 -4.375 L 3.375 -4.375 L 3.375 0 L 1.140625 0 L 1.140625 -11.015625 L 4.40625 -11.015625 C 5.863281 -11.015625 6.960938 -10.742188 7.703125 -10.203125 C 8.453125 -9.671875 8.828125 -8.851562 8.828125 -7.75 Z M 6.515625 -7.75 C 6.515625 -8.332031 6.34375 -8.753906 6 -9.015625 C 5.65625 -9.285156 5.144531 -9.421875 4.46875 -9.421875 L 3.375 -9.421875 L 3.375 -5.9375 L 4.53125 -5.9375 C 5.164062 -5.9375 5.65625 -6.078125 6 -6.359375 C 6.34375 -6.648438 6.515625 -7.113281 6.515625 -7.75 Z M 6.515625 -7.75 "/></g></g></g><g fill="#000000" fill-opacity="1"><g transform="translate(88.287753, 24.374998)"><g><path d="M 5.875 -9.28125 L 5.875 0 L 3.65625 0 L 3.65625 -9.28125 L 0.453125 -9.28125 L 0.453125 -11.015625 L 9.1875 -11.015625 L 8.953125 -9.28125 Z M 5.875 -9.28125 "/></g></g></g><g fill="#000000" fill-opacity="1"><g transform="translate(97.843283, 24.374998)"><g><path d="M 8.890625 -3.171875 C 8.890625 -2.503906 8.71875 -1.910156 8.375 -1.390625 C 8.03125 -0.878906 7.535156 -0.476562 6.890625 -0.1875 C 6.242188 0.101562 5.460938 0.25 4.546875 0.25 C 3.578125 0.25 2.75 0.109375 2.0625 -0.171875 C 1.382812 -0.460938 0.8125 -0.835938 0.34375 -1.296875 L 1.515625 -2.59375 C 1.910156 -2.238281 2.351562 -1.957031 2.84375 -1.75 C 3.34375 -1.550781 3.898438 -1.453125 4.515625 -1.453125 C 4.898438 -1.453125 5.25 -1.507812 5.5625 -1.625 C 5.875 -1.75 6.117188 -1.925781 6.296875 -2.15625 C 6.484375 -2.394531 6.578125 -2.679688 6.578125 -3.015625 C 6.578125 -3.316406 6.515625 -3.570312 6.390625 -3.78125 C 6.265625 -3.988281 6.046875 -4.171875 5.734375 -4.328125 C 5.429688 -4.492188 5.003906 -4.660156 4.453125 -4.828125 C 3.628906 -5.078125 2.953125 -5.351562 2.421875 -5.65625 C 1.898438 -5.957031 1.515625 -6.3125 1.265625 -6.71875 C 1.015625 -7.132812 0.890625 -7.625 0.890625 -8.1875 C 0.890625 -8.820312 1.0625 -9.367188 1.40625 -9.828125 C 1.757812 -10.285156 2.238281 -10.640625 2.84375 -10.890625 C 3.445312 -11.140625 4.117188 -11.265625 4.859375 -11.265625 C 5.679688 -11.265625 6.40625 -11.144531 7.03125 -10.90625 C 7.65625 -10.675781 8.203125 -10.335938 8.671875 -9.890625 L 7.5625 -8.640625 C 7.1875 -8.960938 6.78125 -9.203125 6.34375 -9.359375 C 5.914062 -9.515625 5.472656 -9.59375 5.015625 -9.59375 C 4.660156 -9.59375 4.347656 -9.546875 4.078125 -9.453125 C 3.804688 -9.359375 3.59375 -9.21875 3.4375 -9.03125 C 3.28125 -8.84375 3.203125 -8.609375 3.203125 -8.328125 C 3.203125 -8.066406 3.269531 -7.847656 3.40625 -7.671875 C 3.550781 -7.492188 3.800781 -7.328125 4.15625 -7.171875 C 4.507812 -7.015625 4.992188 -6.84375 5.609375 -6.65625 C 6.265625 -6.445312 6.835938 -6.203125 7.328125 -5.921875 C 7.828125 -5.648438 8.210938 -5.296875 8.484375 -4.859375 C 8.753906 -4.421875 8.890625 -3.859375 8.890625 -3.171875 Z M 8.890625 -3.171875 "/></g></g></g><g fill="#000000" fill-opacity="1"><g transform="translate(107.398813, 24.374998)"><g/></g></g><g fill="#000000" fill-opacity="1"><g transform="translate(116.954342, 24.374998)"><g><path d="M 6.34375 0 L 6.34375 -4.828125 L 3.21875 -4.828125 L 3.21875 0 L 0.984375 0 L 0.984375 -11.015625 L 3.21875 -11.015625 L 3.21875 -6.65625 L 6.34375 -6.65625 L 6.34375 -11.015625 L 8.578125 -11.015625 L 8.578125 0 Z M 6.34375 0 "/></g></g></g><g fill="#000000" fill-opacity="1"><g transform="translate(126.509872, 24.374998)"><g><path d="M 8.734375 -11.015625 L 8.734375 -3.65625 C 8.734375 -2.90625 8.582031 -2.234375 8.28125 -1.640625 C 7.976562 -1.054688 7.53125 -0.59375 6.9375 -0.25 C 6.351562 0.0820312 5.628906 0.25 4.765625 0.25 C 3.898438 0.25 3.175781 0.0859375 2.59375 -0.234375 C 2.007812 -0.566406 1.566406 -1.023438 1.265625 -1.609375 C 0.972656 -2.203125 0.828125 -2.882812 0.828125 -3.65625 L 0.828125 -11.015625 L 3.046875 -11.015625 L 3.046875 -4.3125 C 3.046875 -3.363281 3.171875 -2.648438 3.421875 -2.171875 C 3.671875 -1.703125 4.117188 -1.46875 4.765625 -1.46875 C 5.429688 -1.46875 5.882812 -1.703125 6.125 -2.171875 C 6.375 -2.648438 6.5 -3.363281 6.5 -4.3125 L 6.5 -11.015625 Z M 8.734375 -11.015625 "/></g></g></g><g fill="#000000" fill-opacity="1"><g transform="translate(136.065402, 24.374998)"><g><path d="M 6.640625 -3.265625 C 6.640625 -3.703125 6.550781 -4.039062 6.375 -4.28125 C 6.207031 -4.53125 5.972656 -4.707031 5.671875 -4.8125 C 5.367188 -4.914062 5.023438 -4.96875 4.640625 -4.96875 L 3.328125 -4.96875 L 3.328125 -1.671875 L 4.546875 -1.671875 C 4.804688 -1.671875 5.0625 -1.691406 5.3125 -1.734375 C 5.5625 -1.773438 5.785156 -1.847656 5.984375 -1.953125 C 6.179688 -2.066406 6.335938 -2.226562 6.453125 -2.4375 C 6.578125 -2.644531 6.640625 -2.921875 6.640625 -3.265625 Z M 6.21875 -8.015625 C 6.21875 -8.503906 6.0625 -8.859375 5.75 -9.078125 C 5.445312 -9.296875 4.988281 -9.40625 4.375 -9.40625 L 3.328125 -9.40625 L 3.328125 -6.53125 L 4.484375 -6.53125 C 5.078125 -6.53125 5.515625 -6.644531 5.796875 -6.875 C 6.078125 -7.113281 6.21875 -7.492188 6.21875 -8.015625 Z M 8.9375 -3.203125 C 8.9375 -2.578125 8.816406 -2.054688 8.578125 -1.640625 C 8.335938 -1.222656 8.007812 -0.894531 7.59375 -0.65625 C 7.175781 -0.414062 6.703125 -0.242188 6.171875 -0.140625 C 5.648438 -0.046875 5.101562 0 4.53125 0 L 1.09375 0 L 1.09375 -11.015625 L 4.34375 -11.015625 C 4.882812 -11.015625 5.398438 -10.96875 5.890625 -10.875 C 6.378906 -10.789062 6.816406 -10.640625 7.203125 -10.421875 C 7.597656 -10.210938 7.90625 -9.925781 8.125 -9.5625 C 8.351562 -9.195312 8.46875 -8.75 8.46875 -8.21875 C 8.46875 -7.769531 8.367188 -7.382812 8.171875 -7.0625 C 7.984375 -6.738281 7.734375 -6.472656 7.421875 -6.265625 C 7.117188 -6.066406 6.789062 -5.925781 6.4375 -5.84375 C 6.832031 -5.769531 7.222656 -5.640625 7.609375 -5.453125 C 7.992188 -5.273438 8.3125 -5.003906 8.5625 -4.640625 C 8.8125 -4.285156 8.9375 -3.804688 8.9375 -3.203125 Z M 8.9375 -3.203125 "/></g></g></g></svg>