<svg xmlns="http://www.w3.org/2000/svg" xmlns:xlink="http://www.w3.org/1999/xlink" width="100" zoomAndPan="magnify" viewBox="0 0 75 74.999997" height="100" preserveAspectRatio="xMidYMid meet" version="1.0"><defs><clipPath id="id1"><path d="M 32 35 L 38 35 L 38 42.976562 L 32 42.976562 Z M 32 35 " clip-rule="nonzero"/></clipPath></defs><path fill="#080808" d="M 4.222656 41.492188 L 4.222656 32.761719 L 7.371094 32.761719 C 8.347656 32.761719 9.167969 32.96875 9.855469 33.398438 C 10.53125 33.816406 11.046875 34.363281 11.382812 35.035156 C 11.722656 35.703125 11.902344 36.40625 11.902344 37.132812 C 11.90625 37.871094 11.730469 38.570312 11.382812 39.230469 C 11.046875 39.898438 10.527344 40.4375 9.855469 40.863281 C 9.179688 41.28125 8.347656 41.503906 7.367188 41.503906 L 4.804688 41.503906 C 4.636719 41.492188 4.230469 41.492188 4.222656 41.492188 Z M 4.222656 41.492188 " fill-opacity="1" fill-rule="nonzero"/><path fill="#3ddc97" d="M 5.492188 34.726562 L 8.683594 34.726562 C 8.820312 34.726562 8.9375 34.773438 9.035156 34.867188 C 9.128906 34.964844 9.179688 35.078125 9.179688 35.210938 C 9.179688 35.34375 9.128906 35.457031 9.035156 35.550781 C 8.9375 35.644531 8.820312 35.691406 8.683594 35.691406 L 5.492188 35.691406 Z M 5.492188 34.726562 " fill-opacity="1" fill-rule="nonzero"/><path fill="#f12a1f" d="M 5.492188 38.546875 L 9.40625 38.546875 C 9.542969 38.546875 9.664062 38.589844 9.761719 38.683594 C 9.863281 38.78125 9.910156 38.894531 9.910156 39.03125 C 9.910156 39.167969 9.863281 39.28125 9.761719 39.378906 C 9.664062 39.472656 9.542969 39.519531 9.40625 39.515625 L 5.492188 39.515625 Z M 5.492188 38.546875 " fill-opacity="1" fill-rule="nonzero"/><path fill="#ffb400" d="M 5.492188 36.636719 L 7.707031 36.636719 C 7.84375 36.636719 7.960938 36.683594 8.054688 36.777344 C 8.152344 36.875 8.203125 36.988281 8.203125 37.121094 C 8.203125 37.253906 8.152344 37.367188 8.054688 37.460938 C 7.960938 37.558594 7.84375 37.605469 7.707031 37.605469 L 5.492188 37.605469 Z M 5.492188 36.636719 " fill-opacity="1" fill-rule="nonzero"/><path fill="#080808" d="M 20.058594 33.324219 L 20.058594 39.964844 L 19.316406 39.964844 L 19.28125 39.113281 C 19.097656 39.421875 18.84375 39.65625 18.519531 39.828125 C 18.199219 39.988281 17.855469 40.070312 17.492188 40.074219 C 16.777344 40.074219 16.207031 39.859375 15.746094 39.421875 C 15.285156 38.988281 15.066406 38.402344 15.066406 37.644531 C 15.066406 36.882812 15.289062 36.28125 15.746094 35.863281 C 16.207031 35.429688 16.777344 35.226562 17.492188 35.226562 C 17.859375 35.226562 18.210938 35.308594 18.535156 35.476562 C 18.871094 35.644531 19.125 35.863281 19.28125 36.171875 L 19.28125 33.324219 Z M 17.539062 35.910156 C 17.046875 35.910156 16.652344 36.0625 16.332031 36.359375 C 16.015625 36.652344 15.859375 37.070312 15.859375 37.613281 C 15.859375 38.136719 16.015625 38.558594 16.332031 38.851562 C 16.652344 39.160156 17.0625 39.300781 17.539062 39.300781 C 18.03125 39.300781 18.425781 39.144531 18.761719 38.820312 C 19.078125 38.511719 19.25 38.09375 19.25 37.582031 C 19.25 37.085938 19.09375 36.683594 18.761719 36.375 C 18.410156 36.082031 18.015625 35.910156 17.539062 35.910156 Z M 17.539062 35.910156 " fill-opacity="1" fill-rule="nonzero"/><path fill="#080808" d="M 25.800781 39.222656 C 25.5625 39.5 25.261719 39.703125 24.878906 39.84375 C 24.507812 39.984375 24.121094 40.054688 23.722656 40.058594 C 22.976562 40.058594 22.359375 39.84375 21.898438 39.394531 C 21.441406 38.945312 21.203125 38.355469 21.203125 37.613281 C 21.203125 36.898438 21.441406 36.328125 21.898438 35.863281 C 22.359375 35.398438 22.960938 35.179688 23.691406 35.179688 C 24.46875 35.179688 25.085938 35.414062 25.546875 35.890625 C 26.007812 36.371094 26.179688 37.039062 26.101562 37.9375 L 22.027344 37.9375 C 22.074219 38.355469 22.25 38.695312 22.582031 38.957031 C 22.898438 39.222656 23.292969 39.34375 23.769531 39.34375 C 24.066406 39.347656 24.351562 39.292969 24.625 39.191406 C 24.910156 39.082031 25.132812 38.941406 25.292969 38.757812 Z M 25.339844 37.289062 C 25.324219 36.839844 25.167969 36.496094 24.882812 36.25 C 24.597656 36 24.199219 35.878906 23.722656 35.878906 C 23.296875 35.878906 22.914062 36 22.597656 36.25 C 22.28125 36.496094 22.089844 36.839844 22.027344 37.269531 Z M 25.339844 37.289062 " fill-opacity="1" fill-rule="nonzero"/><path fill="#080808" d="M 31.492188 39.222656 C 31.253906 39.5 30.953125 39.703125 30.574219 39.84375 C 30.199219 39.984375 29.816406 40.054688 29.414062 40.058594 C 28.671875 40.058594 28.050781 39.84375 27.59375 39.394531 C 27.132812 38.945312 26.894531 38.355469 26.894531 37.613281 C 26.894531 36.898438 27.132812 36.328125 27.59375 35.863281 C 28.050781 35.398438 28.652344 35.179688 29.382812 35.179688 C 30.160156 35.179688 30.777344 35.414062 31.238281 35.890625 C 31.699219 36.371094 31.871094 37.039062 31.792969 37.9375 L 27.71875 37.9375 C 27.765625 38.355469 27.941406 38.695312 28.273438 38.957031 C 28.589844 39.222656 28.988281 39.34375 29.460938 39.34375 C 29.757812 39.347656 30.042969 39.292969 30.320312 39.191406 C 30.605469 39.082031 30.828125 38.941406 30.984375 38.757812 Z M 31.03125 37.289062 C 31.015625 36.839844 30.859375 36.496094 30.574219 36.25 C 30.285156 36 29.890625 35.878906 29.414062 35.878906 C 28.988281 35.878906 28.605469 36 28.289062 36.25 C 27.972656 36.496094 27.78125 36.839844 27.71875 37.269531 Z M 31.03125 37.289062 " fill-opacity="1" fill-rule="nonzero"/><g clip-path="url(#id1)"><path fill="#080808" d="M 32.890625 35.304688 L 33.648438 35.304688 L 33.679688 36.203125 C 33.867188 35.886719 34.128906 35.644531 34.457031 35.476562 C 34.789062 35.300781 35.140625 35.214844 35.519531 35.210938 C 36.214844 35.226562 36.785156 35.460938 37.230469 35.894531 C 37.675781 36.34375 37.898438 36.914062 37.898438 37.628906 C 37.898438 38.355469 37.675781 38.945312 37.214844 39.394531 C 36.757812 39.839844 36.183594 40.058594 35.457031 40.058594 C 35.089844 40.058594 34.738281 39.980469 34.410156 39.828125 C 34.074219 39.667969 33.824219 39.433594 33.648438 39.113281 L 33.648438 42.164062 L 32.871094 42.164062 L 32.871094 35.304688 Z M 36.648438 38.882812 C 36.964844 38.574219 37.125 38.167969 37.125 37.644531 C 37.125 37.132812 36.964844 36.714844 36.648438 36.417969 C 36.332031 36.125 35.933594 35.96875 35.425781 35.96875 C 34.917969 35.96875 34.523438 36.125 34.207031 36.449219 C 33.890625 36.761719 33.746094 37.164062 33.746094 37.660156 C 33.746094 38.136719 33.90625 38.542969 34.222656 38.851562 C 34.539062 39.175781 34.933594 39.332031 35.425781 39.347656 C 35.933594 39.347656 36.328125 39.191406 36.644531 38.882812 Z M 36.648438 38.882812 " fill-opacity="1" fill-rule="nonzero"/></g><path fill="#080808" d="M 42.164062 36.328125 C 41.816406 36.015625 41.371094 35.878906 40.816406 35.878906 C 40.46875 35.878906 40.183594 35.925781 39.960938 36.046875 C 39.738281 36.171875 39.628906 36.34375 39.628906 36.558594 C 39.628906 36.929688 40.039062 37.164062 40.816406 37.257812 C 41.039062 37.289062 41.230469 37.300781 41.371094 37.332031 C 41.515625 37.363281 41.6875 37.410156 41.894531 37.472656 C 42.101562 37.535156 42.257812 37.613281 42.386719 37.71875 C 42.511719 37.8125 42.609375 37.953125 42.703125 38.109375 C 42.796875 38.277344 42.828125 38.464844 42.828125 38.695312 C 42.828125 39.144531 42.625 39.484375 42.242188 39.730469 C 41.863281 39.980469 41.386719 40.105469 40.816406 40.105469 C 39.863281 40.105469 39.152344 39.8125 38.675781 39.222656 L 39.136719 38.683594 C 39.53125 39.160156 40.101562 39.410156 40.847656 39.410156 C 41.140625 39.414062 41.421875 39.355469 41.6875 39.238281 C 41.925781 39.132812 42.050781 38.945312 42.070312 38.683594 C 42.070312 38.449219 41.972656 38.277344 41.734375 38.171875 C 41.496094 38.0625 41.195312 37.984375 40.769531 37.9375 C 40.53125 37.910156 40.300781 37.871094 40.070312 37.816406 C 39.867188 37.761719 39.671875 37.691406 39.484375 37.597656 C 39.292969 37.511719 39.140625 37.382812 39.023438 37.210938 C 38.914062 37.039062 38.867188 36.839844 38.867188 36.589844 C 38.867188 36.28125 38.960938 36.003906 39.167969 35.800781 C 39.371094 35.585938 39.609375 35.429688 39.894531 35.351562 C 40.183594 35.261719 40.484375 35.230469 40.816406 35.230469 C 41.5625 35.230469 42.164062 35.429688 42.640625 35.847656 Z M 42.164062 36.328125 " fill-opacity="1" fill-rule="nonzero"/><path fill="#080808" d="M 44.320312 35.863281 C 44.796875 35.398438 45.382812 35.179688 46.097656 35.179688 C 46.824219 35.179688 47.429688 35.414062 47.886719 35.863281 C 48.347656 36.3125 48.585938 36.914062 48.585938 37.644531 C 48.585938 38.355469 48.347656 38.929688 47.886719 39.378906 C 47.410156 39.828125 46.828125 40.058594 46.097656 40.058594 C 45.382812 40.058594 44.78125 39.828125 44.320312 39.378906 C 43.84375 38.929688 43.621094 38.339844 43.621094 37.644531 C 43.621094 36.914062 43.84375 36.328125 44.320312 35.863281 Z M 47.332031 36.375 C 47.015625 36.046875 46.601562 35.878906 46.113281 35.878906 C 45.621094 35.878906 45.207031 36.03125 44.890625 36.359375 C 44.574219 36.683594 44.414062 37.101562 44.414062 37.613281 C 44.414062 38.109375 44.574219 38.511719 44.890625 38.820312 C 45.207031 39.128906 45.617188 39.300781 46.113281 39.300781 C 46.605469 39.300781 47.015625 39.144531 47.332031 38.820312 C 47.648438 38.511719 47.824219 38.09375 47.824219 37.613281 C 47.808594 37.117188 47.652344 36.699219 47.332031 36.375 Z M 47.332031 36.375 " fill-opacity="1" fill-rule="nonzero"/><path fill="#080808" d="M 53.46875 39.964844 L 53.4375 39.222656 C 53.027344 39.765625 52.472656 40.027344 51.773438 40.042969 C 51.15625 40.042969 50.648438 39.84375 50.265625 39.457031 C 49.886719 39.066406 49.695312 38.542969 49.695312 37.859375 L 49.695312 35.273438 L 50.488281 35.273438 L 50.488281 37.859375 C 50.488281 38.308594 50.617188 38.664062 50.871094 38.929688 C 51.125 39.191406 51.488281 39.316406 51.929688 39.316406 C 52.359375 39.316406 52.722656 39.160156 52.992188 38.867188 C 53.257812 38.574219 53.402344 38.214844 53.402344 37.78125 L 53.402344 35.273438 L 54.199219 35.273438 L 54.199219 39.964844 Z M 53.46875 39.964844 " fill-opacity="1" fill-rule="nonzero"/><path fill="#080808" d="M 56.402344 35.273438 L 56.464844 35.96875 C 56.75 35.460938 57.242188 35.195312 57.941406 35.195312 C 58.355469 35.175781 58.726562 35.292969 59.050781 35.550781 L 58.6875 36.21875 C 58.433594 36.042969 58.15625 35.953125 57.847656 35.953125 C 57.457031 35.949219 57.125 36.078125 56.84375 36.34375 C 56.574219 36.605469 56.433594 36.929688 56.433594 37.347656 L 56.433594 39.949219 L 55.640625 39.949219 L 55.640625 35.273438 Z M 56.402344 35.273438 " fill-opacity="1" fill-rule="nonzero"/><path fill="#080808" d="M 63.648438 39.332031 C 63.15625 39.8125 62.554688 40.058594 61.855469 40.058594 C 61.144531 40.058594 60.558594 39.84375 60.066406 39.40625 C 59.589844 38.972656 59.351562 38.386719 59.351562 37.625 C 59.351562 36.867188 59.589844 36.28125 60.066406 35.847656 C 60.539062 35.414062 61.144531 35.195312 61.855469 35.195312 C 62.523438 35.195312 63.109375 35.425781 63.601562 35.890625 L 63.09375 36.40625 C 62.761719 36.097656 62.367188 35.925781 61.871094 35.925781 C 61.378906 35.925781 60.96875 36.082031 60.652344 36.390625 C 60.316406 36.699219 60.160156 37.101562 60.160156 37.613281 C 60.160156 38.140625 60.320312 38.558594 60.652344 38.851562 C 60.984375 39.144531 61.382812 39.300781 61.871094 39.300781 C 62.378906 39.300781 62.792969 39.132812 63.125 38.804688 Z M 63.648438 39.332031 " fill-opacity="1" fill-rule="nonzero"/><path fill="#080808" d="M 68.847656 39.222656 C 68.613281 39.5 68.308594 39.703125 67.929688 39.84375 C 67.558594 39.984375 67.171875 40.054688 66.773438 40.058594 C 66.027344 40.058594 65.40625 39.84375 64.949219 39.394531 C 64.488281 38.945312 64.25 38.355469 64.25 37.613281 C 64.25 36.898438 64.488281 36.328125 64.949219 35.863281 C 65.40625 35.398438 66.007812 35.179688 66.742188 35.179688 C 67.519531 35.179688 68.136719 35.414062 68.59375 35.890625 C 69.054688 36.371094 69.230469 37.039062 69.152344 37.9375 L 65.074219 37.9375 C 65.125 38.355469 65.296875 38.695312 65.628906 38.957031 C 65.949219 39.222656 66.34375 39.34375 66.820312 39.34375 C 67.113281 39.347656 67.402344 39.292969 67.675781 39.191406 C 67.960938 39.082031 68.183594 38.941406 68.34375 38.757812 Z M 68.390625 37.289062 C 68.375 36.839844 68.214844 36.496094 67.929688 36.25 C 67.644531 36 67.246094 35.878906 66.773438 35.878906 C 66.34375 35.878906 65.964844 36 65.648438 36.25 C 65.328125 36.496094 65.140625 36.839844 65.074219 37.269531 Z M 68.390625 37.289062 " fill-opacity="1" fill-rule="nonzero"/></svg>