<svg xmlns="http://www.w3.org/2000/svg" xmlns:xlink="http://www.w3.org/1999/xlink" width="100" zoomAndPan="magnify" viewBox="0 0 75 74.999997" height="100" preserveAspectRatio="xMidYMid meet" version="1.0"><defs><clipPath id="id1"><path d="M 6 17.035156 L 69 17.035156 L 69 39 L 6 39 Z M 6 17.035156 " clip-rule="nonzero"/></clipPath><clipPath id="id2"><path d="M 3 42 L 72 42 L 72 58.285156 L 3 58.285156 Z M 3 42 " clip-rule="nonzero"/></clipPath></defs><g clip-path="url(#id1)"><path fill="#252f3e" d="M 22.429688 32.015625 C 22.429688 32.863281 22.519531 33.550781 22.679688 34.054688 C 22.859375 34.5625 23.085938 35.113281 23.40625 35.707031 C 23.519531 35.890625 23.5625 36.074219 23.5625 36.234375 C 23.5625 36.464844 23.425781 36.695312 23.132812 36.925781 L 21.703125 37.886719 C 21.496094 38.027344 21.292969 38.09375 21.109375 38.09375 C 20.882812 38.09375 20.65625 37.980469 20.429688 37.773438 C 20.113281 37.429688 19.839844 37.0625 19.613281 36.695312 C 19.386719 36.304688 19.15625 35.867188 18.90625 35.339844 C 17.136719 37.453125 14.910156 38.507812 12.230469 38.507812 C 10.324219 38.507812 8.800781 37.957031 7.6875 36.855469 C 6.574219 35.753906 6.007812 34.285156 6.007812 32.449219 C 6.007812 30.5 6.6875 28.917969 8.074219 27.722656 C 9.460938 26.53125 11.300781 25.933594 13.640625 25.933594 C 14.410156 25.933594 15.207031 26.003906 16.046875 26.117188 C 16.886719 26.234375 17.75 26.417969 18.65625 26.621094 L 18.65625 24.949219 C 18.65625 23.203125 18.292969 21.988281 17.589844 21.277344 C 16.863281 20.566406 15.636719 20.222656 13.886719 20.222656 C 13.09375 20.222656 12.277344 20.3125 11.433594 20.519531 C 10.59375 20.726562 9.777344 20.976562 8.984375 21.300781 C 8.621094 21.460938 8.347656 21.550781 8.1875 21.597656 C 8.027344 21.644531 7.914062 21.667969 7.824219 21.667969 C 7.507812 21.667969 7.347656 21.4375 7.347656 20.957031 L 7.347656 19.832031 C 7.347656 19.464844 7.394531 19.1875 7.507812 19.027344 C 7.621094 18.867188 7.824219 18.707031 8.140625 18.546875 C 8.9375 18.132812 9.890625 17.789062 11.003906 17.515625 C 12.117188 17.214844 13.296875 17.078125 14.546875 17.078125 C 17.25 17.078125 19.226562 17.699219 20.496094 18.9375 C 21.746094 20.175781 22.382812 22.054688 22.382812 24.582031 L 22.382812 32.015625 Z M 13.207031 35.5 C 13.957031 35.5 14.730469 35.363281 15.546875 35.089844 C 16.363281 34.8125 17.089844 34.308594 17.703125 33.621094 C 18.066406 33.183594 18.339844 32.703125 18.476562 32.152344 C 18.613281 31.601562 18.703125 30.9375 18.703125 30.15625 L 18.703125 29.191406 C 18.042969 29.03125 17.339844 28.894531 16.613281 28.800781 C 15.886719 28.710938 15.183594 28.664062 14.480469 28.664062 C 12.957031 28.664062 11.84375 28.960938 11.09375 29.582031 C 10.34375 30.203125 9.980469 31.074219 9.980469 32.222656 C 9.980469 33.300781 10.253906 34.101562 10.820312 34.652344 C 11.367188 35.226562 12.164062 35.5 13.207031 35.5 Z M 31.445312 37.980469 C 31.035156 37.980469 30.761719 37.910156 30.582031 37.75 C 30.402344 37.613281 30.242188 37.292969 30.105469 36.855469 L 24.765625 19.121094 C 24.632812 18.660156 24.5625 18.363281 24.5625 18.203125 C 24.5625 17.835938 24.746094 17.628906 25.109375 17.628906 L 27.335938 17.628906 C 27.765625 17.628906 28.0625 17.699219 28.21875 17.859375 C 28.402344 17.996094 28.539062 18.316406 28.675781 18.753906 L 32.488281 33.941406 L 36.035156 18.753906 C 36.144531 18.292969 36.28125 17.996094 36.464844 17.859375 C 36.648438 17.71875 36.964844 17.628906 37.371094 17.628906 L 39.1875 17.628906 C 39.621094 17.628906 39.914062 17.699219 40.097656 17.859375 C 40.28125 17.996094 40.4375 18.316406 40.527344 18.753906 L 44.121094 34.125 L 48.046875 18.753906 C 48.183594 18.292969 48.34375 17.996094 48.503906 17.859375 C 48.683594 17.71875 48.980469 17.628906 49.386719 17.628906 L 51.5 17.628906 C 51.863281 17.628906 52.066406 17.8125 52.066406 18.203125 C 52.066406 18.316406 52.042969 18.433594 52.023438 18.570312 C 52 18.707031 51.953125 18.890625 51.863281 19.144531 L 46.390625 36.878906 C 46.253906 37.339844 46.09375 37.636719 45.910156 37.773438 C 45.730469 37.910156 45.433594 38.003906 45.050781 38.003906 L 43.097656 38.003906 C 42.664062 38.003906 42.371094 37.933594 42.1875 37.773438 C 42.003906 37.613281 41.847656 37.316406 41.757812 36.855469 L 38.234375 22.058594 L 34.738281 36.832031 C 34.625 37.292969 34.488281 37.589844 34.308594 37.75 C 34.125 37.910156 33.808594 37.980469 33.398438 37.980469 Z M 60.628906 38.597656 C 59.449219 38.597656 58.269531 38.460938 57.132812 38.1875 C 55.996094 37.910156 55.109375 37.613281 54.519531 37.269531 C 54.15625 37.0625 53.90625 36.832031 53.816406 36.625 C 53.726562 36.417969 53.679688 36.191406 53.679688 35.984375 L 53.679688 34.8125 C 53.679688 34.332031 53.863281 34.101562 54.203125 34.101562 C 54.339844 34.101562 54.476562 34.125 54.613281 34.171875 C 54.75 34.21875 54.953125 34.308594 55.179688 34.402344 C 55.953125 34.746094 56.792969 35.019531 57.675781 35.203125 C 58.585938 35.386719 59.472656 35.480469 60.378906 35.480469 C 61.8125 35.480469 62.921875 35.226562 63.695312 34.722656 C 64.46875 34.21875 64.875 33.484375 64.875 32.542969 C 64.875 31.898438 64.671875 31.371094 64.265625 30.9375 C 63.855469 30.5 63.082031 30.109375 61.96875 29.742188 L 58.675781 28.710938 C 57.015625 28.183594 55.792969 27.402344 55.042969 26.371094 C 54.292969 25.359375 53.90625 24.238281 53.90625 23.042969 C 53.90625 22.078125 54.109375 21.230469 54.519531 20.496094 C 54.929688 19.761719 55.472656 19.121094 56.15625 18.613281 C 56.839844 18.085938 57.609375 17.699219 58.519531 17.421875 C 59.425781 17.148438 60.378906 17.03125 61.378906 17.03125 C 61.878906 17.03125 62.398438 17.054688 62.902344 17.125 C 63.421875 17.191406 63.902344 17.285156 64.378906 17.375 C 64.832031 17.492188 65.261719 17.605469 65.671875 17.742188 C 66.082031 17.882812 66.398438 18.019531 66.625 18.15625 C 66.945312 18.339844 67.171875 18.523438 67.304688 18.730469 C 67.441406 18.914062 67.511719 19.164062 67.511719 19.488281 L 67.511719 20.566406 C 67.511719 21.046875 67.332031 21.300781 66.988281 21.300781 C 66.808594 21.300781 66.511719 21.207031 66.128906 21.023438 C 64.832031 20.425781 63.378906 20.128906 61.765625 20.128906 C 60.472656 20.128906 59.449219 20.335938 58.746094 20.773438 C 58.042969 21.207031 57.675781 21.875 57.675781 22.8125 C 57.675781 23.457031 57.90625 24.007812 58.359375 24.441406 C 58.8125 24.878906 59.652344 25.316406 60.855469 25.703125 L 64.082031 26.738281 C 65.71875 27.265625 66.898438 28 67.601562 28.941406 C 68.304688 29.878906 68.648438 30.960938 68.648438 32.152344 C 68.648438 33.140625 68.441406 34.035156 68.054688 34.8125 C 67.648438 35.59375 67.101562 36.28125 66.398438 36.832031 C 65.695312 37.40625 64.855469 37.820312 63.875 38.117188 C 62.855469 38.4375 61.789062 38.597656 60.628906 38.597656 Z M 60.628906 38.597656 " fill-opacity="1" fill-rule="nonzero"/></g><g clip-path="url(#id2)"><path fill="#ff9900" d="M 64.921875 49.75 C 57.449219 55.324219 46.59375 58.285156 37.261719 58.285156 C 24.175781 58.285156 12.390625 53.398438 3.488281 45.273438 C 2.78125 44.632812 3.417969 43.761719 4.257812 44.265625 C 13.886719 49.910156 25.765625 53.332031 38.054688 53.332031 C 46.34375 53.332031 55.453125 51.585938 63.832031 48.007812 C 65.082031 47.433594 66.148438 48.832031 64.921875 49.75 Z M 68.035156 46.171875 C 67.082031 44.929688 61.71875 45.574219 59.289062 45.875 C 58.5625 45.964844 58.449219 45.320312 59.109375 44.839844 C 63.378906 41.8125 70.394531 42.683594 71.210938 43.691406 C 72.03125 44.726562 70.988281 51.8125 66.988281 55.210938 C 66.375 55.738281 65.785156 55.464844 66.058594 54.777344 C 66.964844 52.503906 68.988281 47.386719 68.035156 46.171875 Z M 68.035156 46.171875 " fill-opacity="1" fill-rule="nonzero"/></g></svg>