<svg xmlns="http://www.w3.org/2000/svg" xmlns:xlink="http://www.w3.org/1999/xlink" width="150" zoomAndPan="magnify" viewBox="0 0 112.5 112.499997" height="150" preserveAspectRatio="xMidYMid meet" version="1.0"><defs><clipPath id="id1"><path d="M 2.292969 2.292969 L 110.292969 2.292969 L 110.292969 110.292969 L 2.292969 110.292969 Z M 2.292969 2.292969 " clip-rule="nonzero"/></clipPath></defs><g clip-path="url(#id1)"><path fill="#563d7c" d="M 2.292969 96.367188 C 2.292969 104.058594 8.527344 110.292969 16.21875 110.292969 L 96.367188 110.292969 C 104.054688 110.292969 110.292969 104.058594 110.292969 96.367188 L 110.292969 16.21875 C 110.292969 8.527344 104.054688 2.292969 96.367188 2.292969 L 16.21875 2.292969 C 8.527344 2.292969 2.292969 8.527344 2.292969 16.21875 Z M 2.292969 96.367188 " fill-opacity="1" fill-rule="nonzero"/></g><path fill="#ffffff" d="M 47.078125 50.066406 L 47.078125 34.769531 L 60.539062 34.769531 C 61.824219 34.769531 63.058594 34.878906 64.25 35.089844 C 65.4375 35.304688 66.492188 35.6875 67.410156 36.234375 C 68.324219 36.785156 69.058594 37.546875 69.605469 38.523438 C 70.15625 39.503906 70.429688 40.753906 70.429688 42.28125 C 70.429688 45.027344 69.605469 47.011719 67.957031 48.234375 C 66.3125 49.453125 64.203125 50.066406 61.636719 50.066406 Z M 32.699219 23.597656 L 32.699219 88.988281 L 64.386719 88.988281 C 67.316406 88.988281 70.171875 88.621094 72.949219 87.886719 C 75.726562 87.15625 78.199219 86.027344 80.367188 84.5 C 82.539062 82.972656 84.257812 81.003906 85.539062 78.59375 C 86.824219 76.179688 87.464844 73.328125 87.464844 70.027344 C 87.464844 65.941406 86.472656 62.441406 84.492188 59.542969 C 82.503906 56.640625 79.5 54.613281 75.464844 53.453125 C 78.398438 52.046875 80.613281 50.246094 82.105469 48.046875 C 83.605469 45.851562 84.351562 43.105469 84.351562 39.808594 C 84.351562 36.753906 83.847656 34.191406 82.839844 32.113281 C 81.832031 30.039062 80.414062 28.375 78.585938 27.121094 C 76.75 25.871094 74.550781 24.96875 71.992188 24.421875 C 69.425781 23.871094 66.585938 23.597656 63.472656 23.597656 Z M 47.078125 77.816406 L 47.078125 59.867188 L 62.738281 59.867188 C 65.851562 59.867188 68.355469 60.582031 70.246094 62.015625 C 72.140625 63.453125 73.085938 65.847656 73.085938 69.207031 C 73.085938 70.914062 72.796875 72.320312 72.21875 73.421875 C 71.636719 74.515625 70.859375 75.386719 69.882812 76.027344 C 68.90625 76.667969 67.777344 77.128906 66.492188 77.402344 C 65.210938 77.675781 63.871094 77.816406 62.464844 77.816406 Z M 47.078125 77.816406 " fill-opacity="1" fill-rule="nonzero"/></svg>