<svg xmlns="http://www.w3.org/2000/svg" xmlns:xlink="http://www.w3.org/1999/xlink" width="540" zoomAndPan="magnify" viewBox="0 0 404.88 237" height="316" preserveAspectRatio="xMidYMid meet" version="1.0"><defs><filter x="0%" y="0%" width="100%" height="100%" id="id1"><feColorMatrix values="0 0 0 0 1 0 0 0 0 1 0 0 0 0 1 0 0 0 1 0" color-interpolation-filters="sRGB"/></filter><g/><mask id="id2"><g filter="url(#id1)"><rect x="-40.488" width="485.856" fill="#000000" y="-23.7" height="284.4" fill-opacity="0.2471"/></g></mask><clipPath id="id3"><path d="M 0.675781 1 L 380.722656 1 L 380.722656 2 L 0.675781 2 Z M 0.675781 1 " clip-rule="nonzero"/></clipPath><clipPath id="id4"><rect x="0" width="381" y="0" height="3"/></clipPath><mask id="id5"><g filter="url(#id1)"><rect x="-40.488" width="485.856" fill="#000000" y="-23.7" height="284.4" fill-opacity="0.2471"/></g></mask><clipPath id="id6"><path d="M 0.675781 0.171875 L 380.722656 0.171875 L 380.722656 1.851562 L 0.675781 1.851562 Z M 0.675781 0.171875 " clip-rule="nonzero"/></clipPath><clipPath id="id7"><rect x="0" width="381" y="0" height="2"/></clipPath><mask id="id8"><g filter="url(#id1)"><rect x="-40.488" width="485.856" fill="#000000" y="-23.7" height="284.4" fill-opacity="0.2471"/></g></mask><clipPath id="id9"><path d="M 0.675781 0.160156 L 380.722656 0.160156 L 380.722656 1.597656 L 0.675781 1.597656 Z M 0.675781 0.160156 " clip-rule="nonzero"/></clipPath><clipPath id="id10"><rect x="0" width="381" y="0" height="2"/></clipPath><mask id="id11"><g filter="url(#id1)"><rect x="-40.488" width="485.856" fill="#000000" y="-23.7" height="284.4" fill-opacity="0.2471"/></g></mask><clipPath id="id12"><path d="M 0.675781 0.382812 L 380.722656 0.382812 L 380.722656 2 L 0.675781 2 Z M 0.675781 0.382812 " clip-rule="nonzero"/></clipPath><clipPath id="id13"><rect x="0" width="381" y="0" height="3"/></clipPath><mask id="id14"><g filter="url(#id1)"><rect x="-40.488" width="485.856" fill="#000000" y="-23.7" height="284.4" fill-opacity="0.6"/></g></mask><clipPath id="id15"><path d="M 0.675781 1 L 380.722656 1 L 380.722656 1.808594 L 0.675781 1.808594 Z M 0.675781 1 " clip-rule="nonzero"/></clipPath><clipPath id="id16"><rect x="0" width="381" y="0" height="2"/></clipPath></defs><g fill="#000000" fill-opacity="1"><g transform="translate(58.578511, 10.448593)"><g><path d="M 3.671875 0 L 3.078125 -1.53125 L 1.15625 -1.53125 L 0.5625 0 L 0 0 L 1.890625 -4.8125 L 2.359375 -4.8125 L 4.25 0 Z M 2.90625 -2.03125 L 2.34375 -3.515625 C 2.269531 -3.703125 2.195312 -3.929688 2.125 -4.203125 C 2.070312 -3.992188 2.003906 -3.765625 1.921875 -3.515625 L 1.359375 -2.03125 Z M 2.90625 -2.03125 "/></g></g></g><g fill="#000000" fill-opacity="1"><g transform="translate(62.827262, 10.448593)"><g><path d="M 4.40625 0 L 3.765625 0 L 1.140625 -4.03125 L 1.125 -4.03125 C 1.15625 -3.550781 1.171875 -3.113281 1.171875 -2.71875 L 1.171875 0 L 0.65625 0 L 0.65625 -4.796875 L 1.296875 -4.796875 L 3.90625 -0.78125 L 3.9375 -0.78125 C 3.925781 -0.84375 3.910156 -1.035156 3.890625 -1.359375 C 3.878906 -1.679688 3.878906 -1.910156 3.890625 -2.046875 L 3.890625 -4.796875 L 4.40625 -4.796875 Z M 4.40625 0 "/></g></g></g><g fill="#000000" fill-opacity="1"><g transform="translate(67.889047, 10.448593)"><g><path d="M 4.484375 -2.4375 C 4.484375 -1.644531 4.269531 -1.039062 3.84375 -0.625 C 3.414062 -0.207031 2.796875 0 1.984375 0 L 0.65625 0 L 0.65625 -4.796875 L 2.125 -4.796875 C 2.875 -4.796875 3.453125 -4.585938 3.859375 -4.171875 C 4.273438 -3.765625 4.484375 -3.1875 4.484375 -2.4375 Z M 3.890625 -2.421875 C 3.890625 -3.046875 3.734375 -3.515625 3.421875 -3.828125 C 3.109375 -4.148438 2.644531 -4.3125 2.03125 -4.3125 L 1.21875 -4.3125 L 1.21875 -0.484375 L 1.890625 -0.484375 C 2.554688 -0.484375 3.054688 -0.644531 3.390625 -0.96875 C 3.722656 -1.300781 3.890625 -1.785156 3.890625 -2.421875 Z M 3.890625 -2.421875 "/></g></g></g><g fill="#000000" fill-opacity="1"><g transform="translate(72.783639, 10.448593)"><g><path d="M 1.21875 -2 L 1.21875 0 L 0.65625 0 L 0.65625 -4.796875 L 1.96875 -4.796875 C 2.5625 -4.796875 3 -4.679688 3.28125 -4.453125 C 3.5625 -4.234375 3.703125 -3.894531 3.703125 -3.4375 C 3.703125 -2.800781 3.378906 -2.375 2.734375 -2.15625 L 4.03125 0 L 3.375 0 L 2.21875 -2 Z M 1.21875 -2.46875 L 1.984375 -2.46875 C 2.378906 -2.46875 2.664062 -2.546875 2.84375 -2.703125 C 3.03125 -2.859375 3.125 -3.09375 3.125 -3.40625 C 3.125 -3.726562 3.03125 -3.957031 2.84375 -4.09375 C 2.65625 -4.238281 2.351562 -4.3125 1.9375 -4.3125 L 1.21875 -4.3125 Z M 1.21875 -2.46875 "/></g></g></g><g fill="#000000" fill-opacity="1"><g transform="translate(76.93404, 10.448593)"><g><path d="M 4.828125 -2.40625 C 4.828125 -1.632812 4.628906 -1.03125 4.234375 -0.59375 C 3.847656 -0.15625 3.3125 0.0625 2.625 0.0625 C 1.914062 0.0625 1.367188 -0.148438 0.984375 -0.578125 C 0.597656 -1.015625 0.40625 -1.625 0.40625 -2.40625 C 0.40625 -3.1875 0.597656 -3.789062 0.984375 -4.21875 C 1.367188 -4.65625 1.914062 -4.875 2.625 -4.875 C 3.3125 -4.875 3.847656 -4.65625 4.234375 -4.21875 C 4.628906 -3.78125 4.828125 -3.175781 4.828125 -2.40625 Z M 1 -2.40625 C 1 -1.757812 1.132812 -1.265625 1.40625 -0.921875 C 1.6875 -0.585938 2.09375 -0.421875 2.625 -0.421875 C 3.15625 -0.421875 3.554688 -0.585938 3.828125 -0.921875 C 4.097656 -1.253906 4.234375 -1.75 4.234375 -2.40625 C 4.234375 -3.050781 4.097656 -3.539062 3.828125 -3.875 C 3.554688 -4.207031 3.15625 -4.375 2.625 -4.375 C 2.09375 -4.375 1.6875 -4.203125 1.40625 -3.859375 C 1.132812 -3.523438 1 -3.039062 1 -2.40625 Z M 1 -2.40625 "/></g></g></g><g fill="#000000" fill-opacity="1"><g transform="translate(82.163025, 10.448593)"><g><path d="M 0.65625 0 L 0.65625 -4.796875 L 1.21875 -4.796875 L 1.21875 0 Z M 0.65625 0 "/></g></g></g><g fill="#000000" fill-opacity="1"><g transform="translate(84.034972, 10.448593)"><g><path d="M 4.484375 -2.4375 C 4.484375 -1.644531 4.269531 -1.039062 3.84375 -0.625 C 3.414062 -0.207031 2.796875 0 1.984375 0 L 0.65625 0 L 0.65625 -4.796875 L 2.125 -4.796875 C 2.875 -4.796875 3.453125 -4.585938 3.859375 -4.171875 C 4.273438 -3.765625 4.484375 -3.1875 4.484375 -2.4375 Z M 3.890625 -2.421875 C 3.890625 -3.046875 3.734375 -3.515625 3.421875 -3.828125 C 3.109375 -4.148438 2.644531 -4.3125 2.03125 -4.3125 L 1.21875 -4.3125 L 1.21875 -0.484375 L 1.890625 -0.484375 C 2.554688 -0.484375 3.054688 -0.644531 3.390625 -0.96875 C 3.722656 -1.300781 3.890625 -1.785156 3.890625 -2.421875 Z M 3.890625 -2.421875 "/></g></g></g><g fill="#000000" fill-opacity="1"><g transform="translate(126.253683, 10.448593)"><g><path d="M 4.84375 0 L 4.296875 0 L 3.328125 -3.21875 C 3.273438 -3.351562 3.222656 -3.53125 3.171875 -3.75 C 3.117188 -3.96875 3.085938 -4.097656 3.078125 -4.140625 C 3.035156 -3.847656 2.960938 -3.53125 2.859375 -3.1875 L 1.921875 0 L 1.359375 0 L 0.09375 -4.796875 L 0.671875 -4.796875 L 1.4375 -1.828125 C 1.539062 -1.410156 1.617188 -1.035156 1.671875 -0.703125 C 1.722656 -1.109375 1.804688 -1.5 1.921875 -1.875 L 2.78125 -4.796875 L 3.375 -4.796875 L 4.28125 -1.859375 C 4.382812 -1.515625 4.472656 -1.128906 4.546875 -0.703125 C 4.585938 -1.015625 4.664062 -1.394531 4.78125 -1.84375 L 5.53125 -4.796875 L 6.125 -4.796875 Z M 4.84375 0 "/></g></g></g><g fill="#000000" fill-opacity="1"><g transform="translate(132.469449, 10.448593)"><g><path d="M 3.328125 0 L 0.65625 0 L 0.65625 -4.796875 L 3.328125 -4.796875 L 3.328125 -4.296875 L 1.21875 -4.296875 L 1.21875 -2.75 L 3.203125 -2.75 L 3.203125 -2.265625 L 1.21875 -2.265625 L 1.21875 -0.5 L 3.328125 -0.5 Z M 3.328125 0 "/></g></g></g><g fill="#000000" fill-opacity="1"><g transform="translate(136.203503, 10.448593)"><g><path d="M 0.65625 -4.796875 L 2.015625 -4.796875 C 2.648438 -4.796875 3.109375 -4.695312 3.390625 -4.5 C 3.679688 -4.3125 3.828125 -4.015625 3.828125 -3.609375 C 3.828125 -3.328125 3.742188 -3.09375 3.578125 -2.90625 C 3.421875 -2.71875 3.191406 -2.597656 2.890625 -2.546875 L 2.890625 -2.515625 C 3.617188 -2.390625 3.984375 -2.003906 3.984375 -1.359375 C 3.984375 -0.929688 3.835938 -0.597656 3.546875 -0.359375 C 3.253906 -0.117188 2.847656 0 2.328125 0 L 0.65625 0 Z M 1.21875 -2.75 L 2.140625 -2.75 C 2.523438 -2.75 2.804688 -2.804688 2.984375 -2.921875 C 3.160156 -3.046875 3.25 -3.253906 3.25 -3.546875 C 3.25 -3.816406 3.148438 -4.007812 2.953125 -4.125 C 2.765625 -4.25 2.457031 -4.3125 2.03125 -4.3125 L 1.21875 -4.3125 Z M 1.21875 -2.265625 L 1.21875 -0.46875 L 2.21875 -0.46875 C 2.601562 -0.46875 2.894531 -0.539062 3.09375 -0.6875 C 3.289062 -0.84375 3.390625 -1.082031 3.390625 -1.40625 C 3.390625 -1.695312 3.285156 -1.910156 3.078125 -2.046875 C 2.878906 -2.191406 2.578125 -2.265625 2.171875 -2.265625 Z M 1.21875 -2.265625 "/></g></g></g><g fill="#000000" fill-opacity="1"><g transform="translate(177.872397, 10.448593)"><g><path d="M 4.296875 0 L 3.75 0 L 3.75 -2.25 L 1.21875 -2.25 L 1.21875 0 L 0.65625 0 L 0.65625 -4.796875 L 1.21875 -4.796875 L 1.21875 -2.75 L 3.75 -2.75 L 3.75 -4.796875 L 4.296875 -4.796875 Z M 4.296875 0 "/></g></g></g><g fill="#000000" fill-opacity="1"><g transform="translate(182.826, 10.448593)"><g><path d="M 1.875 -2.390625 L 3.15625 -4.796875 L 3.765625 -4.796875 L 2.15625 -1.859375 L 2.15625 0 L 1.59375 0 L 1.59375 -1.828125 L 0 -4.796875 L 0.609375 -4.796875 Z M 1.875 -2.390625 "/></g></g></g><g fill="#000000" fill-opacity="1"><g transform="translate(186.586281, 10.448593)"><g><path d="M 0.65625 -4.796875 L 2.015625 -4.796875 C 2.648438 -4.796875 3.109375 -4.695312 3.390625 -4.5 C 3.679688 -4.3125 3.828125 -4.015625 3.828125 -3.609375 C 3.828125 -3.328125 3.742188 -3.09375 3.578125 -2.90625 C 3.421875 -2.71875 3.191406 -2.597656 2.890625 -2.546875 L 2.890625 -2.515625 C 3.617188 -2.390625 3.984375 -2.003906 3.984375 -1.359375 C 3.984375 -0.929688 3.835938 -0.597656 3.546875 -0.359375 C 3.253906 -0.117188 2.847656 0 2.328125 0 L 0.65625 0 Z M 1.21875 -2.75 L 2.140625 -2.75 C 2.523438 -2.75 2.804688 -2.804688 2.984375 -2.921875 C 3.160156 -3.046875 3.25 -3.253906 3.25 -3.546875 C 3.25 -3.816406 3.148438 -4.007812 2.953125 -4.125 C 2.765625 -4.25 2.457031 -4.3125 2.03125 -4.3125 L 1.21875 -4.3125 Z M 1.21875 -2.265625 L 1.21875 -0.46875 L 2.21875 -0.46875 C 2.601562 -0.46875 2.894531 -0.539062 3.09375 -0.6875 C 3.289062 -0.84375 3.390625 -1.082031 3.390625 -1.40625 C 3.390625 -1.695312 3.285156 -1.910156 3.078125 -2.046875 C 2.878906 -2.191406 2.578125 -2.265625 2.171875 -2.265625 Z M 1.21875 -2.265625 "/></g></g></g><g fill="#000000" fill-opacity="1"><g transform="translate(190.936666, 10.448593)"><g><path d="M 1.21875 -2 L 1.21875 0 L 0.65625 0 L 0.65625 -4.796875 L 1.96875 -4.796875 C 2.5625 -4.796875 3 -4.679688 3.28125 -4.453125 C 3.5625 -4.234375 3.703125 -3.894531 3.703125 -3.4375 C 3.703125 -2.800781 3.378906 -2.375 2.734375 -2.15625 L 4.03125 0 L 3.375 0 L 2.21875 -2 Z M 1.21875 -2.46875 L 1.984375 -2.46875 C 2.378906 -2.46875 2.664062 -2.546875 2.84375 -2.703125 C 3.03125 -2.859375 3.125 -3.09375 3.125 -3.40625 C 3.125 -3.726562 3.03125 -3.957031 2.84375 -4.09375 C 2.65625 -4.238281 2.351562 -4.3125 1.9375 -4.3125 L 1.21875 -4.3125 Z M 1.21875 -2.46875 "/></g></g></g><g fill="#000000" fill-opacity="1"><g transform="translate(195.087067, 10.448593)"><g><path d="M 0.65625 0 L 0.65625 -4.796875 L 1.21875 -4.796875 L 1.21875 0 Z M 0.65625 0 "/></g></g></g><g fill="#000000" fill-opacity="1"><g transform="translate(196.959014, 10.448593)"><g><path d="M 4.484375 -2.4375 C 4.484375 -1.644531 4.269531 -1.039062 3.84375 -0.625 C 3.414062 -0.207031 2.796875 0 1.984375 0 L 0.65625 0 L 0.65625 -4.796875 L 2.125 -4.796875 C 2.875 -4.796875 3.453125 -4.585938 3.859375 -4.171875 C 4.273438 -3.765625 4.484375 -3.1875 4.484375 -2.4375 Z M 3.890625 -2.421875 C 3.890625 -3.046875 3.734375 -3.515625 3.421875 -3.828125 C 3.109375 -4.148438 2.644531 -4.3125 2.03125 -4.3125 L 1.21875 -4.3125 L 1.21875 -0.484375 L 1.890625 -0.484375 C 2.554688 -0.484375 3.054688 -0.644531 3.390625 -0.96875 C 3.722656 -1.300781 3.890625 -1.785156 3.890625 -2.421875 Z M 3.890625 -2.421875 "/></g></g></g><g fill="#000000" fill-opacity="1"><g transform="translate(239.173566, 10.448593)"><g><path d="M 2.71875 -4.359375 C 2.1875 -4.359375 1.765625 -4.179688 1.453125 -3.828125 C 1.148438 -3.484375 1 -3.003906 1 -2.390625 C 1 -1.765625 1.144531 -1.28125 1.4375 -0.9375 C 1.738281 -0.601562 2.160156 -0.4375 2.703125 -0.4375 C 3.035156 -0.4375 3.414062 -0.492188 3.84375 -0.609375 L 3.84375 -0.125 C 3.519531 0 3.113281 0.0625 2.625 0.0625 C 1.914062 0.0625 1.367188 -0.148438 0.984375 -0.578125 C 0.597656 -1.003906 0.40625 -1.613281 0.40625 -2.40625 C 0.40625 -2.894531 0.5 -3.328125 0.6875 -3.703125 C 0.875 -4.078125 1.140625 -4.363281 1.484375 -4.5625 C 1.835938 -4.757812 2.25 -4.859375 2.71875 -4.859375 C 3.21875 -4.859375 3.65625 -4.769531 4.03125 -4.59375 L 3.796875 -4.109375 C 3.429688 -4.273438 3.070312 -4.359375 2.71875 -4.359375 Z M 2.71875 -4.359375 "/></g></g></g><g fill="#000000" fill-opacity="1"><g transform="translate(243.409204, 10.448593)"><g><path d="M 3.6875 -1.796875 C 3.6875 -1.210938 3.535156 -0.753906 3.234375 -0.421875 C 2.941406 -0.0976562 2.535156 0.0625 2.015625 0.0625 C 1.691406 0.0625 1.40625 -0.0078125 1.15625 -0.15625 C 0.90625 -0.3125 0.710938 -0.53125 0.578125 -0.8125 C 0.441406 -1.09375 0.375 -1.421875 0.375 -1.796875 C 0.375 -2.390625 0.519531 -2.847656 0.8125 -3.171875 C 1.101562 -3.492188 1.507812 -3.65625 2.03125 -3.65625 C 2.539062 -3.65625 2.941406 -3.488281 3.234375 -3.15625 C 3.535156 -2.820312 3.6875 -2.367188 3.6875 -1.796875 Z M 0.9375 -1.796875 C 0.9375 -1.335938 1.03125 -0.988281 1.21875 -0.75 C 1.40625 -0.507812 1.675781 -0.390625 2.03125 -0.390625 C 2.382812 -0.390625 2.648438 -0.507812 2.828125 -0.75 C 3.015625 -0.988281 3.109375 -1.335938 3.109375 -1.796875 C 3.109375 -2.253906 3.015625 -2.601562 2.828125 -2.84375 C 2.648438 -3.082031 2.378906 -3.203125 2.015625 -3.203125 C 1.660156 -3.203125 1.390625 -3.082031 1.203125 -2.84375 C 1.023438 -2.613281 0.9375 -2.265625 0.9375 -1.796875 Z M 0.9375 -1.796875 "/></g></g></g><g fill="#000000" fill-opacity="1"><g transform="translate(247.464537, 10.448593)"><g><path d="M 3.03125 0 L 3.03125 -2.328125 C 3.03125 -2.617188 2.960938 -2.835938 2.828125 -2.984375 C 2.703125 -3.128906 2.5 -3.203125 2.21875 -3.203125 C 1.832031 -3.203125 1.550781 -3.097656 1.375 -2.890625 C 1.207031 -2.691406 1.125 -2.359375 1.125 -1.890625 L 1.125 0 L 0.578125 0 L 0.578125 -3.59375 L 1.015625 -3.59375 L 1.109375 -3.109375 L 1.140625 -3.109375 C 1.242188 -3.285156 1.394531 -3.421875 1.59375 -3.515625 C 1.800781 -3.609375 2.03125 -3.65625 2.28125 -3.65625 C 2.707031 -3.65625 3.03125 -3.550781 3.25 -3.34375 C 3.46875 -3.132812 3.578125 -2.800781 3.578125 -2.34375 L 3.578125 0 Z M 3.03125 0 "/></g></g></g><g fill="#000000" fill-opacity="1"><g transform="translate(251.585437, 10.448593)"><g><path d="M 2.890625 -0.984375 C 2.890625 -0.648438 2.765625 -0.390625 2.515625 -0.203125 C 2.273438 -0.0234375 1.925781 0.0625 1.46875 0.0625 C 1 0.0625 0.628906 -0.0078125 0.359375 -0.15625 L 0.359375 -0.671875 C 0.523438 -0.578125 0.707031 -0.503906 0.90625 -0.453125 C 1.101562 -0.410156 1.296875 -0.390625 1.484375 -0.390625 C 1.765625 -0.390625 1.984375 -0.429688 2.140625 -0.515625 C 2.296875 -0.609375 2.375 -0.75 2.375 -0.9375 C 2.375 -1.070312 2.3125 -1.1875 2.1875 -1.28125 C 2.0625 -1.382812 1.828125 -1.503906 1.484375 -1.640625 C 1.148438 -1.765625 0.910156 -1.875 0.765625 -1.96875 C 0.617188 -2.0625 0.507812 -2.164062 0.4375 -2.28125 C 0.375 -2.40625 0.34375 -2.550781 0.34375 -2.71875 C 0.34375 -3.007812 0.460938 -3.238281 0.703125 -3.40625 C 0.941406 -3.570312 1.269531 -3.65625 1.6875 -3.65625 C 2.070312 -3.65625 2.453125 -3.578125 2.828125 -3.421875 L 2.625 -2.984375 C 2.269531 -3.128906 1.941406 -3.203125 1.640625 -3.203125 C 1.390625 -3.203125 1.195312 -3.160156 1.0625 -3.078125 C 0.925781 -3.003906 0.859375 -2.894531 0.859375 -2.75 C 0.859375 -2.65625 0.882812 -2.570312 0.9375 -2.5 C 0.988281 -2.4375 1.066406 -2.375 1.171875 -2.3125 C 1.285156 -2.25 1.5 -2.160156 1.8125 -2.046875 C 2.238281 -1.890625 2.523438 -1.734375 2.671875 -1.578125 C 2.816406 -1.421875 2.890625 -1.222656 2.890625 -0.984375 Z M 2.890625 -0.984375 "/></g></g></g><g fill="#000000" fill-opacity="1"><g transform="translate(254.788397, 10.448593)"><g><path d="M 1.09375 -3.59375 L 1.09375 -1.265625 C 1.09375 -0.972656 1.15625 -0.753906 1.28125 -0.609375 C 1.414062 -0.460938 1.628906 -0.390625 1.921875 -0.390625 C 2.296875 -0.390625 2.566406 -0.488281 2.734375 -0.6875 C 2.910156 -0.894531 3 -1.234375 3 -1.703125 L 3 -3.59375 L 3.546875 -3.59375 L 3.546875 0 L 3.09375 0 L 3.015625 -0.484375 L 2.984375 -0.484375 C 2.878906 -0.304688 2.726562 -0.171875 2.53125 -0.078125 C 2.332031 0.015625 2.101562 0.0625 1.84375 0.0625 C 1.40625 0.0625 1.078125 -0.0390625 0.859375 -0.25 C 0.640625 -0.457031 0.53125 -0.789062 0.53125 -1.25 L 0.53125 -3.59375 Z M 1.09375 -3.59375 "/></g></g></g><g fill="#000000" fill-opacity="1"><g transform="translate(258.909297, 10.448593)"><g><path d="M 1.125 0 L 0.578125 0 L 0.578125 -5.109375 L 1.125 -5.109375 Z M 1.125 0 "/></g></g></g><g fill="#000000" fill-opacity="1"><g transform="translate(260.607487, 10.448593)"><g><path d="M 1.734375 -0.390625 C 1.835938 -0.390625 1.929688 -0.394531 2.015625 -0.40625 C 2.109375 -0.414062 2.179688 -0.429688 2.234375 -0.453125 L 2.234375 -0.03125 C 2.171875 0 2.082031 0.0195312 1.96875 0.03125 C 1.851562 0.0507812 1.75 0.0625 1.65625 0.0625 C 0.957031 0.0625 0.609375 -0.300781 0.609375 -1.03125 L 0.609375 -3.171875 L 0.109375 -3.171875 L 0.109375 -3.4375 L 0.609375 -3.65625 L 0.84375 -4.421875 L 1.15625 -4.421875 L 1.15625 -3.59375 L 2.203125 -3.59375 L 2.203125 -3.171875 L 1.15625 -3.171875 L 1.15625 -1.0625 C 1.15625 -0.84375 1.207031 -0.675781 1.3125 -0.5625 C 1.414062 -0.445312 1.554688 -0.390625 1.734375 -0.390625 Z M 1.734375 -0.390625 "/></g></g></g><g fill="#000000" fill-opacity="1"><g transform="translate(262.977744, 10.448593)"><g><path d="M 2.78125 0 L 2.6875 -0.515625 L 2.65625 -0.515625 C 2.476562 -0.285156 2.296875 -0.128906 2.109375 -0.046875 C 1.929688 0.0234375 1.710938 0.0625 1.453125 0.0625 C 1.097656 0.0625 0.816406 -0.0234375 0.609375 -0.203125 C 0.410156 -0.390625 0.3125 -0.65625 0.3125 -1 C 0.3125 -1.71875 0.890625 -2.097656 2.046875 -2.140625 L 2.65625 -2.15625 L 2.65625 -2.375 C 2.65625 -2.65625 2.59375 -2.863281 2.46875 -3 C 2.351562 -3.132812 2.160156 -3.203125 1.890625 -3.203125 C 1.597656 -3.203125 1.257812 -3.109375 0.875 -2.921875 L 0.71875 -3.34375 C 0.894531 -3.4375 1.085938 -3.507812 1.296875 -3.5625 C 1.503906 -3.625 1.710938 -3.65625 1.921875 -3.65625 C 2.359375 -3.65625 2.675781 -3.554688 2.875 -3.359375 C 3.082031 -3.171875 3.1875 -2.867188 3.1875 -2.453125 L 3.1875 0 Z M 1.5625 -0.390625 C 1.894531 -0.390625 2.15625 -0.476562 2.34375 -0.65625 C 2.539062 -0.84375 2.640625 -1.101562 2.640625 -1.4375 L 2.640625 -1.765625 L 2.109375 -1.75 C 1.671875 -1.726562 1.351562 -1.65625 1.15625 -1.53125 C 0.96875 -1.414062 0.875 -1.234375 0.875 -0.984375 C 0.875 -0.785156 0.929688 -0.632812 1.046875 -0.53125 C 1.171875 -0.4375 1.34375 -0.390625 1.5625 -0.390625 Z M 1.5625 -0.390625 "/></g></g></g><g fill="#000000" fill-opacity="1"><g transform="translate(266.711798, 10.448593)"><g><path d="M 3.03125 0 L 3.03125 -2.328125 C 3.03125 -2.617188 2.960938 -2.835938 2.828125 -2.984375 C 2.703125 -3.128906 2.5 -3.203125 2.21875 -3.203125 C 1.832031 -3.203125 1.550781 -3.097656 1.375 -2.890625 C 1.207031 -2.691406 1.125 -2.359375 1.125 -1.890625 L 1.125 0 L 0.578125 0 L 0.578125 -3.59375 L 1.015625 -3.59375 L 1.109375 -3.109375 L 1.140625 -3.109375 C 1.242188 -3.285156 1.394531 -3.421875 1.59375 -3.515625 C 1.800781 -3.609375 2.03125 -3.65625 2.28125 -3.65625 C 2.707031 -3.65625 3.03125 -3.550781 3.25 -3.34375 C 3.46875 -3.132812 3.578125 -2.800781 3.578125 -2.34375 L 3.578125 0 Z M 3.03125 0 "/></g></g></g><g fill="#000000" fill-opacity="1"><g transform="translate(270.832698, 10.448593)"><g><path d="M 2.015625 0.0625 C 1.492188 0.0625 1.085938 -0.09375 0.796875 -0.40625 C 0.515625 -0.726562 0.375 -1.1875 0.375 -1.78125 C 0.375 -2.375 0.519531 -2.832031 0.8125 -3.15625 C 1.101562 -3.488281 1.515625 -3.65625 2.046875 -3.65625 C 2.222656 -3.65625 2.394531 -3.632812 2.5625 -3.59375 C 2.738281 -3.5625 2.875 -3.519531 2.96875 -3.46875 L 2.8125 -3.015625 C 2.6875 -3.054688 2.550781 -3.09375 2.40625 -3.125 C 2.269531 -3.15625 2.144531 -3.171875 2.03125 -3.171875 C 1.300781 -3.171875 0.9375 -2.707031 0.9375 -1.78125 C 0.9375 -1.34375 1.023438 -1.003906 1.203125 -0.765625 C 1.378906 -0.523438 1.644531 -0.40625 2 -0.40625 C 2.300781 -0.40625 2.609375 -0.472656 2.921875 -0.609375 L 2.921875 -0.125 C 2.679688 0 2.378906 0.0625 2.015625 0.0625 Z M 2.015625 0.0625 "/></g></g></g><g fill="#000000" fill-opacity="1"><g transform="translate(274.029102, 10.448593)"><g><path d="M 0 -3.59375 L 0.59375 -3.59375 L 1.375 -1.546875 C 1.550781 -1.078125 1.660156 -0.738281 1.703125 -0.53125 L 1.71875 -0.53125 C 1.75 -0.644531 1.8125 -0.835938 1.90625 -1.109375 C 2 -1.378906 2.296875 -2.207031 2.796875 -3.59375 L 3.375 -3.59375 L 1.828125 0.5 C 1.679688 0.90625 1.503906 1.191406 1.296875 1.359375 C 1.085938 1.523438 0.835938 1.609375 0.546875 1.609375 C 0.378906 1.609375 0.210938 1.59375 0.046875 1.5625 L 0.046875 1.125 C 0.171875 1.144531 0.304688 1.15625 0.453125 1.15625 C 0.828125 1.15625 1.09375 0.945312 1.25 0.53125 L 1.453125 0.015625 Z M 0 -3.59375 "/></g></g></g><g fill="#000000" fill-opacity="1"><g transform="translate(314.738509, 10.448593)"><g><path d="M 4.828125 -2.40625 C 4.828125 -1.632812 4.628906 -1.03125 4.234375 -0.59375 C 3.847656 -0.15625 3.3125 0.0625 2.625 0.0625 C 1.914062 0.0625 1.367188 -0.148438 0.984375 -0.578125 C 0.597656 -1.015625 0.40625 -1.625 0.40625 -2.40625 C 0.40625 -3.1875 0.597656 -3.789062 0.984375 -4.21875 C 1.367188 -4.65625 1.914062 -4.875 2.625 -4.875 C 3.3125 -4.875 3.847656 -4.65625 4.234375 -4.21875 C 4.628906 -3.78125 4.828125 -3.175781 4.828125 -2.40625 Z M 1 -2.40625 C 1 -1.757812 1.132812 -1.265625 1.40625 -0.921875 C 1.6875 -0.585938 2.09375 -0.421875 2.625 -0.421875 C 3.15625 -0.421875 3.554688 -0.585938 3.828125 -0.921875 C 4.097656 -1.253906 4.234375 -1.75 4.234375 -2.40625 C 4.234375 -3.050781 4.097656 -3.539062 3.828125 -3.875 C 3.554688 -4.207031 3.15625 -4.375 2.625 -4.375 C 2.09375 -4.375 1.6875 -4.203125 1.40625 -3.859375 C 1.132812 -3.523438 1 -3.039062 1 -2.40625 Z M 1 -2.40625 "/></g></g></g><g fill="#000000" fill-opacity="1"><g transform="translate(319.967494, 10.448593)"><g><path d="M 1.09375 -3.59375 L 1.09375 -1.265625 C 1.09375 -0.972656 1.15625 -0.753906 1.28125 -0.609375 C 1.414062 -0.460938 1.628906 -0.390625 1.921875 -0.390625 C 2.296875 -0.390625 2.566406 -0.488281 2.734375 -0.6875 C 2.910156 -0.894531 3 -1.234375 3 -1.703125 L 3 -3.59375 L 3.546875 -3.59375 L 3.546875 0 L 3.09375 0 L 3.015625 -0.484375 L 2.984375 -0.484375 C 2.878906 -0.304688 2.726562 -0.171875 2.53125 -0.078125 C 2.332031 0.015625 2.101562 0.0625 1.84375 0.0625 C 1.40625 0.0625 1.078125 -0.0390625 0.859375 -0.25 C 0.640625 -0.457031 0.53125 -0.789062 0.53125 -1.25 L 0.53125 -3.59375 Z M 1.09375 -3.59375 "/></g></g></g><g fill="#000000" fill-opacity="1"><g transform="translate(324.088394, 10.448593)"><g><path d="M 1.734375 -0.390625 C 1.835938 -0.390625 1.929688 -0.394531 2.015625 -0.40625 C 2.109375 -0.414062 2.179688 -0.429688 2.234375 -0.453125 L 2.234375 -0.03125 C 2.171875 0 2.082031 0.0195312 1.96875 0.03125 C 1.851562 0.0507812 1.75 0.0625 1.65625 0.0625 C 0.957031 0.0625 0.609375 -0.300781 0.609375 -1.03125 L 0.609375 -3.171875 L 0.109375 -3.171875 L 0.109375 -3.4375 L 0.609375 -3.65625 L 0.84375 -4.421875 L 1.15625 -4.421875 L 1.15625 -3.59375 L 2.203125 -3.59375 L 2.203125 -3.171875 L 1.15625 -3.171875 L 1.15625 -1.0625 C 1.15625 -0.84375 1.207031 -0.675781 1.3125 -0.5625 C 1.414062 -0.445312 1.554688 -0.390625 1.734375 -0.390625 Z M 1.734375 -0.390625 "/></g></g></g><g fill="#000000" fill-opacity="1"><g transform="translate(326.458652, 10.448593)"><g><path d="M 2.890625 -0.984375 C 2.890625 -0.648438 2.765625 -0.390625 2.515625 -0.203125 C 2.273438 -0.0234375 1.925781 0.0625 1.46875 0.0625 C 1 0.0625 0.628906 -0.0078125 0.359375 -0.15625 L 0.359375 -0.671875 C 0.523438 -0.578125 0.707031 -0.503906 0.90625 -0.453125 C 1.101562 -0.410156 1.296875 -0.390625 1.484375 -0.390625 C 1.765625 -0.390625 1.984375 -0.429688 2.140625 -0.515625 C 2.296875 -0.609375 2.375 -0.75 2.375 -0.9375 C 2.375 -1.070312 2.3125 -1.1875 2.1875 -1.28125 C 2.0625 -1.382812 1.828125 -1.503906 1.484375 -1.640625 C 1.148438 -1.765625 0.910156 -1.875 0.765625 -1.96875 C 0.617188 -2.0625 0.507812 -2.164062 0.4375 -2.28125 C 0.375 -2.40625 0.34375 -2.550781 0.34375 -2.71875 C 0.34375 -3.007812 0.460938 -3.238281 0.703125 -3.40625 C 0.941406 -3.570312 1.269531 -3.65625 1.6875 -3.65625 C 2.070312 -3.65625 2.453125 -3.578125 2.828125 -3.421875 L 2.625 -2.984375 C 2.269531 -3.128906 1.941406 -3.203125 1.640625 -3.203125 C 1.390625 -3.203125 1.195312 -3.160156 1.0625 -3.078125 C 0.925781 -3.003906 0.859375 -2.894531 0.859375 -2.75 C 0.859375 -2.65625 0.882812 -2.570312 0.9375 -2.5 C 0.988281 -2.4375 1.066406 -2.375 1.171875 -2.3125 C 1.285156 -2.25 1.5 -2.160156 1.8125 -2.046875 C 2.238281 -1.890625 2.523438 -1.734375 2.671875 -1.578125 C 2.816406 -1.421875 2.890625 -1.222656 2.890625 -0.984375 Z M 2.890625 -0.984375 "/></g></g></g><g fill="#000000" fill-opacity="1"><g transform="translate(329.661612, 10.448593)"><g><path d="M 3.6875 -1.796875 C 3.6875 -1.210938 3.535156 -0.753906 3.234375 -0.421875 C 2.941406 -0.0976562 2.535156 0.0625 2.015625 0.0625 C 1.691406 0.0625 1.40625 -0.0078125 1.15625 -0.15625 C 0.90625 -0.3125 0.710938 -0.53125 0.578125 -0.8125 C 0.441406 -1.09375 0.375 -1.421875 0.375 -1.796875 C 0.375 -2.390625 0.519531 -2.847656 0.8125 -3.171875 C 1.101562 -3.492188 1.507812 -3.65625 2.03125 -3.65625 C 2.539062 -3.65625 2.941406 -3.488281 3.234375 -3.15625 C 3.535156 -2.820312 3.6875 -2.367188 3.6875 -1.796875 Z M 0.9375 -1.796875 C 0.9375 -1.335938 1.03125 -0.988281 1.21875 -0.75 C 1.40625 -0.507812 1.675781 -0.390625 2.03125 -0.390625 C 2.382812 -0.390625 2.648438 -0.507812 2.828125 -0.75 C 3.015625 -0.988281 3.109375 -1.335938 3.109375 -1.796875 C 3.109375 -2.253906 3.015625 -2.601562 2.828125 -2.84375 C 2.648438 -3.082031 2.378906 -3.203125 2.015625 -3.203125 C 1.660156 -3.203125 1.390625 -3.082031 1.203125 -2.84375 C 1.023438 -2.613281 0.9375 -2.265625 0.9375 -1.796875 Z M 0.9375 -1.796875 "/></g></g></g><g fill="#000000" fill-opacity="1"><g transform="translate(333.716945, 10.448593)"><g><path d="M 1.09375 -3.59375 L 1.09375 -1.265625 C 1.09375 -0.972656 1.15625 -0.753906 1.28125 -0.609375 C 1.414062 -0.460938 1.628906 -0.390625 1.921875 -0.390625 C 2.296875 -0.390625 2.566406 -0.488281 2.734375 -0.6875 C 2.910156 -0.894531 3 -1.234375 3 -1.703125 L 3 -3.59375 L 3.546875 -3.59375 L 3.546875 0 L 3.09375 0 L 3.015625 -0.484375 L 2.984375 -0.484375 C 2.878906 -0.304688 2.726562 -0.171875 2.53125 -0.078125 C 2.332031 0.015625 2.101562 0.0625 1.84375 0.0625 C 1.40625 0.0625 1.078125 -0.0390625 0.859375 -0.25 C 0.640625 -0.457031 0.53125 -0.789062 0.53125 -1.25 L 0.53125 -3.59375 Z M 1.09375 -3.59375 "/></g></g></g><g fill="#000000" fill-opacity="1"><g transform="translate(337.837845, 10.448593)"><g><path d="M 2.21875 -3.65625 C 2.375 -3.65625 2.515625 -3.644531 2.640625 -3.625 L 2.578125 -3.109375 C 2.421875 -3.148438 2.285156 -3.171875 2.171875 -3.171875 C 1.878906 -3.171875 1.628906 -3.050781 1.421875 -2.8125 C 1.222656 -2.570312 1.125 -2.273438 1.125 -1.921875 L 1.125 0 L 0.578125 0 L 0.578125 -3.59375 L 1.03125 -3.59375 L 1.09375 -2.921875 L 1.109375 -2.921875 C 1.242188 -3.160156 1.40625 -3.34375 1.59375 -3.46875 C 1.78125 -3.59375 1.988281 -3.65625 2.21875 -3.65625 Z M 2.21875 -3.65625 "/></g></g></g><g fill="#000000" fill-opacity="1"><g transform="translate(340.578552, 10.448593)"><g><path d="M 2.015625 0.0625 C 1.492188 0.0625 1.085938 -0.09375 0.796875 -0.40625 C 0.515625 -0.726562 0.375 -1.1875 0.375 -1.78125 C 0.375 -2.375 0.519531 -2.832031 0.8125 -3.15625 C 1.101562 -3.488281 1.515625 -3.65625 2.046875 -3.65625 C 2.222656 -3.65625 2.394531 -3.632812 2.5625 -3.59375 C 2.738281 -3.5625 2.875 -3.519531 2.96875 -3.46875 L 2.8125 -3.015625 C 2.6875 -3.054688 2.550781 -3.09375 2.40625 -3.125 C 2.269531 -3.15625 2.144531 -3.171875 2.03125 -3.171875 C 1.300781 -3.171875 0.9375 -2.707031 0.9375 -1.78125 C 0.9375 -1.34375 1.023438 -1.003906 1.203125 -0.765625 C 1.378906 -0.523438 1.644531 -0.40625 2 -0.40625 C 2.300781 -0.40625 2.609375 -0.472656 2.921875 -0.609375 L 2.921875 -0.125 C 2.679688 0 2.378906 0.0625 2.015625 0.0625 Z M 2.015625 0.0625 "/></g></g></g><g fill="#000000" fill-opacity="1"><g transform="translate(343.774955, 10.448593)"><g><path d="M 1.125 0 L 0.578125 0 L 0.578125 -3.59375 L 1.125 -3.59375 Z M 0.53125 -4.5625 C 0.53125 -4.6875 0.5625 -4.78125 0.625 -4.84375 C 0.6875 -4.90625 0.765625 -4.9375 0.859375 -4.9375 C 0.941406 -4.9375 1.015625 -4.90625 1.078125 -4.84375 C 1.140625 -4.78125 1.171875 -4.6875 1.171875 -4.5625 C 1.171875 -4.445312 1.140625 -4.359375 1.078125 -4.296875 C 1.015625 -4.234375 0.941406 -4.203125 0.859375 -4.203125 C 0.765625 -4.203125 0.6875 -4.234375 0.625 -4.296875 C 0.5625 -4.359375 0.53125 -4.445312 0.53125 -4.5625 Z M 0.53125 -4.5625 "/></g></g></g><g fill="#000000" fill-opacity="1"><g transform="translate(345.473144, 10.448593)"><g><path d="M 3.03125 0 L 3.03125 -2.328125 C 3.03125 -2.617188 2.960938 -2.835938 2.828125 -2.984375 C 2.703125 -3.128906 2.5 -3.203125 2.21875 -3.203125 C 1.832031 -3.203125 1.550781 -3.097656 1.375 -2.890625 C 1.207031 -2.691406 1.125 -2.359375 1.125 -1.890625 L 1.125 0 L 0.578125 0 L 0.578125 -3.59375 L 1.015625 -3.59375 L 1.109375 -3.109375 L 1.140625 -3.109375 C 1.242188 -3.285156 1.394531 -3.421875 1.59375 -3.515625 C 1.800781 -3.609375 2.03125 -3.65625 2.28125 -3.65625 C 2.707031 -3.65625 3.03125 -3.550781 3.25 -3.34375 C 3.46875 -3.132812 3.578125 -2.800781 3.578125 -2.34375 L 3.578125 0 Z M 3.03125 0 "/></g></g></g><g fill="#000000" fill-opacity="1"><g transform="translate(349.594045, 10.448593)"><g><path d="M 3.515625 -3.59375 L 3.515625 -3.25 L 2.859375 -3.171875 C 2.921875 -3.097656 2.972656 -3 3.015625 -2.875 C 3.066406 -2.75 3.09375 -2.609375 3.09375 -2.453125 C 3.09375 -2.097656 2.972656 -1.816406 2.734375 -1.609375 C 2.492188 -1.398438 2.160156 -1.296875 1.734375 -1.296875 C 1.628906 -1.296875 1.53125 -1.304688 1.4375 -1.328125 C 1.207031 -1.203125 1.09375 -1.046875 1.09375 -0.859375 C 1.09375 -0.765625 1.128906 -0.691406 1.203125 -0.640625 C 1.285156 -0.597656 1.425781 -0.578125 1.625 -0.578125 L 2.265625 -0.578125 C 2.648438 -0.578125 2.945312 -0.492188 3.15625 -0.328125 C 3.363281 -0.160156 3.46875 0.078125 3.46875 0.390625 C 3.46875 0.785156 3.304688 1.085938 2.984375 1.296875 C 2.671875 1.503906 2.207031 1.609375 1.59375 1.609375 C 1.125 1.609375 0.757812 1.519531 0.5 1.34375 C 0.25 1.175781 0.125 0.929688 0.125 0.609375 C 0.125 0.390625 0.191406 0.195312 0.328125 0.03125 C 0.472656 -0.125 0.671875 -0.226562 0.921875 -0.28125 C 0.835938 -0.320312 0.765625 -0.382812 0.703125 -0.46875 C 0.640625 -0.5625 0.609375 -0.664062 0.609375 -0.78125 C 0.609375 -0.914062 0.640625 -1.03125 0.703125 -1.125 C 0.773438 -1.21875 0.890625 -1.3125 1.046875 -1.40625 C 0.859375 -1.488281 0.703125 -1.617188 0.578125 -1.796875 C 0.460938 -1.984375 0.40625 -2.195312 0.40625 -2.4375 C 0.40625 -2.820312 0.523438 -3.117188 0.765625 -3.328125 C 1.003906 -3.546875 1.335938 -3.65625 1.765625 -3.65625 C 1.953125 -3.65625 2.125 -3.632812 2.28125 -3.59375 Z M 0.65625 0.609375 C 0.65625 0.796875 0.734375 0.941406 0.890625 1.046875 C 1.054688 1.148438 1.296875 1.203125 1.609375 1.203125 C 2.066406 1.203125 2.40625 1.128906 2.625 0.984375 C 2.84375 0.847656 2.953125 0.664062 2.953125 0.4375 C 2.953125 0.238281 2.890625 0.101562 2.765625 0.03125 C 2.648438 -0.0390625 2.425781 -0.078125 2.09375 -0.078125 L 1.4375 -0.078125 C 1.1875 -0.078125 0.992188 -0.0195312 0.859375 0.09375 C 0.722656 0.207031 0.65625 0.378906 0.65625 0.609375 Z M 0.953125 -2.4375 C 0.953125 -2.1875 1.019531 -2 1.15625 -1.875 C 1.300781 -1.75 1.5 -1.6875 1.75 -1.6875 C 2.28125 -1.6875 2.546875 -1.941406 2.546875 -2.453125 C 2.546875 -2.992188 2.28125 -3.265625 1.75 -3.265625 C 1.488281 -3.265625 1.289062 -3.191406 1.15625 -3.046875 C 1.019531 -2.910156 0.953125 -2.707031 0.953125 -2.4375 Z M 0.953125 -2.4375 "/></g></g></g><path fill="#0a9b31" d="M 51.117188 10.785156 L 51.117188 4.574219 C 51.117188 4.40625 51.054688 4.257812 50.933594 4.136719 C 50.8125 4.015625 50.667969 3.953125 50.496094 3.953125 L 44.277344 3.953125 C 44.105469 3.953125 43.957031 4.015625 43.835938 4.136719 C 43.714844 4.257812 43.65625 4.40625 43.65625 4.574219 L 43.65625 10.785156 C 43.65625 10.957031 43.714844 11.101562 43.835938 11.222656 C 43.957031 11.34375 44.105469 11.40625 44.277344 11.40625 L 50.496094 11.40625 C 50.667969 11.40625 50.8125 11.34375 50.933594 11.222656 C 51.054688 11.101562 51.117188 10.957031 51.117188 10.785156 Z M 51.117188 10.785156 " fill-opacity="1" fill-rule="nonzero"/><path fill="#347df6" d="M 118.792969 10.785156 L 118.792969 4.574219 C 118.792969 4.40625 118.730469 4.257812 118.609375 4.136719 C 118.488281 4.015625 118.339844 3.953125 118.167969 3.953125 L 111.953125 3.953125 C 111.78125 3.953125 111.632812 4.015625 111.511719 4.136719 C 111.390625 4.257812 111.328125 4.40625 111.328125 4.574219 L 111.328125 10.785156 C 111.328125 10.957031 111.390625 11.101562 111.511719 11.222656 C 111.632812 11.34375 111.78125 11.40625 111.953125 11.40625 L 118.167969 11.40625 C 118.339844 11.40625 118.488281 11.34375 118.609375 11.222656 C 118.730469 11.101562 118.792969 10.957031 118.792969 10.785156 Z M 118.792969 10.785156 " fill-opacity="1" fill-rule="nonzero"/><path fill="#ea4335" d="M 170.410156 10.785156 L 170.410156 4.574219 C 170.410156 4.40625 170.351562 4.257812 170.226562 4.136719 C 170.105469 4.015625 169.960938 3.953125 169.789062 3.953125 L 163.570312 3.953125 C 163.398438 3.953125 163.25 4.015625 163.128906 4.136719 C 163.007812 4.257812 162.949219 4.40625 162.949219 4.574219 L 162.949219 10.785156 C 162.949219 10.957031 163.007812 11.101562 163.128906 11.222656 C 163.25 11.34375 163.398438 11.40625 163.570312 11.40625 L 169.789062 11.40625 C 169.960938 11.40625 170.105469 11.34375 170.226562 11.222656 C 170.351562 11.101562 170.410156 10.957031 170.410156 10.785156 Z M 170.410156 10.785156 " fill-opacity="1" fill-rule="nonzero"/><path fill="#ffbd59" d="M 231.710938 10.785156 L 231.710938 4.574219 C 231.710938 4.40625 231.652344 4.257812 231.53125 4.136719 C 231.40625 4.015625 231.261719 3.953125 231.089844 3.953125 L 224.871094 3.953125 C 224.699219 3.953125 224.554688 4.015625 224.429688 4.136719 C 224.308594 4.257812 224.25 4.40625 224.25 4.574219 L 224.25 10.785156 C 224.25 10.957031 224.308594 11.101562 224.429688 11.222656 C 224.554688 11.34375 224.699219 11.40625 224.871094 11.40625 L 231.089844 11.40625 C 231.261719 11.40625 231.40625 11.34375 231.53125 11.222656 C 231.652344 11.101562 231.710938 10.957031 231.710938 10.785156 Z M 231.710938 10.785156 " fill-opacity="1" fill-rule="nonzero"/><path fill="#d65bad" d="M 307.277344 10.785156 L 307.277344 4.574219 C 307.277344 4.40625 307.214844 4.257812 307.09375 4.136719 C 306.972656 4.015625 306.828125 3.953125 306.65625 3.953125 L 300.4375 3.953125 C 300.265625 3.953125 300.117188 4.015625 299.996094 4.136719 C 299.875 4.257812 299.8125 4.40625 299.8125 4.574219 L 299.8125 10.785156 C 299.8125 10.957031 299.875 11.101562 299.996094 11.222656 C 300.117188 11.34375 300.265625 11.40625 300.4375 11.40625 L 306.65625 11.40625 C 306.828125 11.40625 306.972656 11.34375 307.09375 11.222656 C 307.214844 11.101562 307.277344 10.957031 307.277344 10.785156 Z M 307.277344 10.785156 " fill-opacity="1" fill-rule="nonzero"/><g fill="#000000" fill-opacity="1"><g transform="translate(52.126096, 229.796421)"><g><path d="M -0.046875 1.265625 C -0.242188 1.265625 -0.40625 1.234375 -0.53125 1.171875 L -0.53125 0.703125 C -0.375 0.742188 -0.210938 0.765625 -0.046875 0.765625 C 0.171875 0.765625 0.335938 0.695312 0.453125 0.5625 C 0.566406 0.4375 0.625 0.25 0.625 0 L 0.625 -4.796875 L 1.1875 -4.796875 L 1.1875 -0.046875 C 1.1875 0.367188 1.078125 0.691406 0.859375 0.921875 C 0.648438 1.148438 0.347656 1.265625 -0.046875 1.265625 Z M -0.046875 1.265625 "/></g></g></g><g fill="#000000" fill-opacity="1"><g transform="translate(53.919363, 229.796421)"><g><path d="M 3.671875 0 L 3.078125 -1.53125 L 1.15625 -1.53125 L 0.5625 0 L 0 0 L 1.890625 -4.8125 L 2.359375 -4.8125 L 4.25 0 Z M 2.90625 -2.03125 L 2.34375 -3.515625 C 2.269531 -3.703125 2.195312 -3.929688 2.125 -4.203125 C 2.070312 -3.992188 2.003906 -3.765625 1.921875 -3.515625 L 1.359375 -2.03125 Z M 2.90625 -2.03125 "/></g></g></g><g fill="#000000" fill-opacity="1"><g transform="translate(58.168114, 229.796421)"><g><path d="M 4.40625 0 L 3.765625 0 L 1.140625 -4.03125 L 1.125 -4.03125 C 1.15625 -3.550781 1.171875 -3.113281 1.171875 -2.71875 L 1.171875 0 L 0.65625 0 L 0.65625 -4.796875 L 1.296875 -4.796875 L 3.90625 -0.78125 L 3.9375 -0.78125 C 3.925781 -0.84375 3.910156 -1.035156 3.890625 -1.359375 C 3.878906 -1.679688 3.878906 -1.910156 3.890625 -2.046875 L 3.890625 -4.796875 L 4.40625 -4.796875 Z M 4.40625 0 "/></g></g></g><g fill="#000000" fill-opacity="1"><g transform="translate(127.892988, 229.796421)"><g><path d="M 1.21875 0 L 0.65625 0 L 0.65625 -4.796875 L 3.328125 -4.796875 L 3.328125 -4.296875 L 1.21875 -4.296875 L 1.21875 -2.546875 L 3.203125 -2.546875 L 3.203125 -2.046875 L 1.21875 -2.046875 Z M 1.21875 0 "/></g></g></g><g fill="#000000" fill-opacity="1"><g transform="translate(131.358216, 229.796421)"><g><path d="M 3.328125 0 L 0.65625 0 L 0.65625 -4.796875 L 3.328125 -4.796875 L 3.328125 -4.296875 L 1.21875 -4.296875 L 1.21875 -2.75 L 3.203125 -2.75 L 3.203125 -2.265625 L 1.21875 -2.265625 L 1.21875 -0.5 L 3.328125 -0.5 Z M 3.328125 0 "/></g></g></g><g fill="#000000" fill-opacity="1"><g transform="translate(135.09227, 229.796421)"><g><path d="M 0.65625 -4.796875 L 2.015625 -4.796875 C 2.648438 -4.796875 3.109375 -4.695312 3.390625 -4.5 C 3.679688 -4.3125 3.828125 -4.015625 3.828125 -3.609375 C 3.828125 -3.328125 3.742188 -3.09375 3.578125 -2.90625 C 3.421875 -2.71875 3.191406 -2.597656 2.890625 -2.546875 L 2.890625 -2.515625 C 3.617188 -2.390625 3.984375 -2.003906 3.984375 -1.359375 C 3.984375 -0.929688 3.835938 -0.597656 3.546875 -0.359375 C 3.253906 -0.117188 2.847656 0 2.328125 0 L 0.65625 0 Z M 1.21875 -2.75 L 2.140625 -2.75 C 2.523438 -2.75 2.804688 -2.804688 2.984375 -2.921875 C 3.160156 -3.046875 3.25 -3.253906 3.25 -3.546875 C 3.25 -3.816406 3.148438 -4.007812 2.953125 -4.125 C 2.765625 -4.25 2.457031 -4.3125 2.03125 -4.3125 L 1.21875 -4.3125 Z M 1.21875 -2.265625 L 1.21875 -0.46875 L 2.21875 -0.46875 C 2.601562 -0.46875 2.894531 -0.539062 3.09375 -0.6875 C 3.289062 -0.84375 3.390625 -1.082031 3.390625 -1.40625 C 3.390625 -1.695312 3.285156 -1.910156 3.078125 -2.046875 C 2.878906 -2.191406 2.578125 -2.265625 2.171875 -2.265625 Z M 1.21875 -2.265625 "/></g></g></g><g fill="#000000" fill-opacity="1"><g transform="translate(202.428319, 229.796421)"><g><path d="M 2.78125 0 L 1.15625 -4.25 L 1.125 -4.25 C 1.15625 -3.914062 1.171875 -3.515625 1.171875 -3.046875 L 1.171875 0 L 0.65625 0 L 0.65625 -4.796875 L 1.5 -4.796875 L 3.015625 -0.84375 L 3.046875 -0.84375 L 4.578125 -4.796875 L 5.40625 -4.796875 L 5.40625 0 L 4.859375 0 L 4.859375 -3.09375 C 4.859375 -3.445312 4.867188 -3.832031 4.890625 -4.25 L 4.875 -4.25 L 3.234375 0 Z M 2.78125 0 "/></g></g></g><g fill="#000000" fill-opacity="1"><g transform="translate(208.490007, 229.796421)"><g><path d="M 3.671875 0 L 3.078125 -1.53125 L 1.15625 -1.53125 L 0.5625 0 L 0 0 L 1.890625 -4.8125 L 2.359375 -4.8125 L 4.25 0 Z M 2.90625 -2.03125 L 2.34375 -3.515625 C 2.269531 -3.703125 2.195312 -3.929688 2.125 -4.203125 C 2.070312 -3.992188 2.003906 -3.765625 1.921875 -3.515625 L 1.359375 -2.03125 Z M 2.90625 -2.03125 "/></g></g></g><g fill="#000000" fill-opacity="1"><g transform="translate(212.738758, 229.796421)"><g><path d="M 1.21875 -2 L 1.21875 0 L 0.65625 0 L 0.65625 -4.796875 L 1.96875 -4.796875 C 2.5625 -4.796875 3 -4.679688 3.28125 -4.453125 C 3.5625 -4.234375 3.703125 -3.894531 3.703125 -3.4375 C 3.703125 -2.800781 3.378906 -2.375 2.734375 -2.15625 L 4.03125 0 L 3.375 0 L 2.21875 -2 Z M 1.21875 -2.46875 L 1.984375 -2.46875 C 2.378906 -2.46875 2.664062 -2.546875 2.84375 -2.703125 C 3.03125 -2.859375 3.125 -3.09375 3.125 -3.40625 C 3.125 -3.726562 3.03125 -3.957031 2.84375 -4.09375 C 2.65625 -4.238281 2.351562 -4.3125 1.9375 -4.3125 L 1.21875 -4.3125 Z M 1.21875 -2.46875 "/></g></g></g><g fill="#000000" fill-opacity="1"><g transform="translate(279.42922, 229.796421)"><g><path d="M 3.671875 0 L 3.078125 -1.53125 L 1.15625 -1.53125 L 0.5625 0 L 0 0 L 1.890625 -4.8125 L 2.359375 -4.8125 L 4.25 0 Z M 2.90625 -2.03125 L 2.34375 -3.515625 C 2.269531 -3.703125 2.195312 -3.929688 2.125 -4.203125 C 2.070312 -3.992188 2.003906 -3.765625 1.921875 -3.515625 L 1.359375 -2.03125 Z M 2.90625 -2.03125 "/></g></g></g><g fill="#000000" fill-opacity="1"><g transform="translate(283.677971, 229.796421)"><g><path d="M 3.703125 -3.40625 C 3.703125 -2.914062 3.535156 -2.539062 3.203125 -2.28125 C 2.867188 -2.019531 2.394531 -1.890625 1.78125 -1.890625 L 1.21875 -1.890625 L 1.21875 0 L 0.65625 0 L 0.65625 -4.796875 L 1.90625 -4.796875 C 3.101562 -4.796875 3.703125 -4.332031 3.703125 -3.40625 Z M 1.21875 -2.359375 L 1.71875 -2.359375 C 2.207031 -2.359375 2.5625 -2.4375 2.78125 -2.59375 C 3.007812 -2.757812 3.125 -3.019531 3.125 -3.375 C 3.125 -3.6875 3.019531 -3.921875 2.8125 -4.078125 C 2.601562 -4.234375 2.28125 -4.3125 1.84375 -4.3125 L 1.21875 -4.3125 Z M 1.21875 -2.359375 "/></g></g></g><g fill="#000000" fill-opacity="1"><g transform="translate(287.720191, 229.796421)"><g><path d="M 1.21875 -2 L 1.21875 0 L 0.65625 0 L 0.65625 -4.796875 L 1.96875 -4.796875 C 2.5625 -4.796875 3 -4.679688 3.28125 -4.453125 C 3.5625 -4.234375 3.703125 -3.894531 3.703125 -3.4375 C 3.703125 -2.800781 3.378906 -2.375 2.734375 -2.15625 L 4.03125 0 L 3.375 0 L 2.21875 -2 Z M 1.21875 -2.46875 L 1.984375 -2.46875 C 2.378906 -2.46875 2.664062 -2.546875 2.84375 -2.703125 C 3.03125 -2.859375 3.125 -3.09375 3.125 -3.40625 C 3.125 -3.726562 3.03125 -3.957031 2.84375 -4.09375 C 2.65625 -4.238281 2.351562 -4.3125 1.9375 -4.3125 L 1.21875 -4.3125 Z M 1.21875 -2.46875 "/></g></g></g><g fill="#000000" fill-opacity="1"><g transform="translate(354.603402, 229.796421)"><g><path d="M 2.78125 0 L 1.15625 -4.25 L 1.125 -4.25 C 1.15625 -3.914062 1.171875 -3.515625 1.171875 -3.046875 L 1.171875 0 L 0.65625 0 L 0.65625 -4.796875 L 1.5 -4.796875 L 3.015625 -0.84375 L 3.046875 -0.84375 L 4.578125 -4.796875 L 5.40625 -4.796875 L 5.40625 0 L 4.859375 0 L 4.859375 -3.09375 C 4.859375 -3.445312 4.867188 -3.832031 4.890625 -4.25 L 4.875 -4.25 L 3.234375 0 Z M 2.78125 0 "/></g></g></g><g fill="#000000" fill-opacity="1"><g transform="translate(360.66509, 229.796421)"><g><path d="M 3.671875 0 L 3.078125 -1.53125 L 1.15625 -1.53125 L 0.5625 0 L 0 0 L 1.890625 -4.8125 L 2.359375 -4.8125 L 4.25 0 Z M 2.90625 -2.03125 L 2.34375 -3.515625 C 2.269531 -3.703125 2.195312 -3.929688 2.125 -4.203125 C 2.070312 -3.992188 2.003906 -3.765625 1.921875 -3.515625 L 1.359375 -2.03125 Z M 2.90625 -2.03125 "/></g></g></g><g fill="#000000" fill-opacity="1"><g transform="translate(364.913842, 229.796421)"><g><path d="M 1.875 -2.390625 L 3.15625 -4.796875 L 3.765625 -4.796875 L 2.15625 -1.859375 L 2.15625 0 L 1.59375 0 L 1.59375 -1.828125 L 0 -4.796875 L 0.609375 -4.796875 Z M 1.875 -2.390625 "/></g></g></g><g mask="url(#id2)"><g transform="matrix(1, 0, 0, 1, 19, 25)"><g clip-path="url(#id4)"><g clip-path="url(#id3)"><path fill="#000000" d="M 0.6875 1.257812 L 380.636719 1.257812 L 380.636719 1.878906 L 0.6875 1.878906 Z M 0.6875 1.257812 " fill-opacity="1" fill-rule="nonzero"/></g></g></g></g><g mask="url(#id5)"><g transform="matrix(1, 0, 0, 1, 19, 74)"><g clip-path="url(#id7)"><g clip-path="url(#id6)"><path fill="#000000" d="M 0.6875 0.449219 L 380.636719 0.449219 L 380.636719 1.070312 L 0.6875 1.070312 Z M 0.6875 0.449219 " fill-opacity="1" fill-rule="nonzero"/></g></g></g></g><g mask="url(#id8)"><g transform="matrix(1, 0, 0, 1, 19, 122)"><g clip-path="url(#id10)"><g clip-path="url(#id9)"><path fill="#000000" d="M 0.6875 0.644531 L 380.636719 0.644531 L 380.636719 1.265625 L 0.6875 1.265625 Z M 0.6875 0.644531 " fill-opacity="1" fill-rule="nonzero"/></g></g></g></g><g mask="url(#id11)"><g transform="matrix(1, 0, 0, 1, 19, 170)"><g clip-path="url(#id13)"><g clip-path="url(#id12)"><path fill="#000000" d="M 0.6875 0.835938 L 380.636719 0.835938 L 380.636719 1.457031 L 0.6875 1.457031 Z M 0.6875 0.835938 " fill-opacity="1" fill-rule="nonzero"/></g></g></g></g><g mask="url(#id14)"><g transform="matrix(1, 0, 0, 1, 19, 218)"><g clip-path="url(#id16)"><g clip-path="url(#id15)"><path fill="#000000" d="M 0.6875 1.03125 L 380.636719 1.03125 L 380.636719 1.652344 L 0.6875 1.652344 Z M 0.6875 1.03125 " fill-opacity="1" fill-rule="nonzero"/></g></g></g></g><g fill="#000000" fill-opacity="1"><g transform="translate(10.746186, 29.365382)"><g><path d="M 1.921875 -4.859375 C 2.359375 -4.859375 2.703125 -4.753906 2.953125 -4.546875 C 3.210938 -4.347656 3.34375 -4.070312 3.34375 -3.71875 C 3.34375 -3.476562 3.269531 -3.257812 3.125 -3.0625 C 2.976562 -2.875 2.742188 -2.703125 2.421875 -2.546875 C 2.804688 -2.359375 3.082031 -2.160156 3.25 -1.953125 C 3.414062 -1.742188 3.5 -1.507812 3.5 -1.25 C 3.5 -0.84375 3.359375 -0.519531 3.078125 -0.28125 C 2.796875 -0.0507812 2.414062 0.0625 1.9375 0.0625 C 1.425781 0.0625 1.03125 -0.046875 0.75 -0.265625 C 0.476562 -0.492188 0.34375 -0.8125 0.34375 -1.21875 C 0.34375 -1.769531 0.675781 -2.195312 1.34375 -2.5 C 1.039062 -2.675781 0.820312 -2.863281 0.6875 -3.0625 C 0.5625 -3.257812 0.5 -3.476562 0.5 -3.71875 C 0.5 -4.070312 0.625 -4.347656 0.875 -4.546875 C 1.132812 -4.753906 1.484375 -4.859375 1.921875 -4.859375 Z M 0.875 -1.203125 C 0.875 -0.941406 0.960938 -0.738281 1.140625 -0.59375 C 1.328125 -0.445312 1.585938 -0.375 1.921875 -0.375 C 2.242188 -0.375 2.492188 -0.453125 2.671875 -0.609375 C 2.859375 -0.765625 2.953125 -0.972656 2.953125 -1.234375 C 2.953125 -1.453125 2.863281 -1.640625 2.6875 -1.796875 C 2.519531 -1.960938 2.226562 -2.125 1.8125 -2.28125 C 1.476562 -2.144531 1.238281 -1.988281 1.09375 -1.8125 C 0.945312 -1.644531 0.875 -1.441406 0.875 -1.203125 Z M 1.90625 -4.421875 C 1.632812 -4.421875 1.421875 -4.351562 1.265625 -4.21875 C 1.109375 -4.09375 1.03125 -3.921875 1.03125 -3.703125 C 1.03125 -3.503906 1.09375 -3.332031 1.21875 -3.1875 C 1.351562 -3.039062 1.59375 -2.894531 1.9375 -2.75 C 2.25 -2.882812 2.46875 -3.023438 2.59375 -3.171875 C 2.726562 -3.328125 2.796875 -3.503906 2.796875 -3.703125 C 2.796875 -3.921875 2.71875 -4.09375 2.5625 -4.21875 C 2.40625 -4.351562 2.1875 -4.421875 1.90625 -4.421875 Z M 1.90625 -4.421875 "/></g></g></g><g fill="#000000" fill-opacity="1"><g transform="translate(14.584189, 29.365382)"><g/></g></g><g fill="#000000" fill-opacity="1"><g transform="translate(10.746186, 77.635566)"><g><path d="M 0.390625 -2.046875 C 0.390625 -2.992188 0.570312 -3.695312 0.9375 -4.15625 C 1.300781 -4.625 1.84375 -4.859375 2.5625 -4.859375 C 2.800781 -4.859375 2.992188 -4.835938 3.140625 -4.796875 L 3.140625 -4.328125 C 2.972656 -4.390625 2.78125 -4.421875 2.5625 -4.421875 C 2.050781 -4.421875 1.660156 -4.257812 1.390625 -3.9375 C 1.117188 -3.613281 0.96875 -3.109375 0.9375 -2.421875 L 0.984375 -2.421875 C 1.222656 -2.796875 1.601562 -2.984375 2.125 -2.984375 C 2.550781 -2.984375 2.890625 -2.851562 3.140625 -2.59375 C 3.390625 -2.332031 3.515625 -1.976562 3.515625 -1.53125 C 3.515625 -1.039062 3.378906 -0.648438 3.109375 -0.359375 C 2.835938 -0.078125 2.46875 0.0625 2 0.0625 C 1.5 0.0625 1.101562 -0.117188 0.8125 -0.484375 C 0.53125 -0.859375 0.390625 -1.378906 0.390625 -2.046875 Z M 2 -0.390625 C 2.300781 -0.390625 2.535156 -0.488281 2.703125 -0.6875 C 2.878906 -0.882812 2.96875 -1.164062 2.96875 -1.53125 C 2.96875 -1.851562 2.890625 -2.101562 2.734375 -2.28125 C 2.578125 -2.46875 2.335938 -2.5625 2.015625 -2.5625 C 1.816406 -2.5625 1.632812 -2.519531 1.46875 -2.4375 C 1.3125 -2.351562 1.179688 -2.238281 1.078125 -2.09375 C 0.984375 -1.957031 0.9375 -1.8125 0.9375 -1.65625 C 0.9375 -1.4375 0.976562 -1.226562 1.0625 -1.03125 C 1.15625 -0.832031 1.28125 -0.675781 1.4375 -0.5625 C 1.601562 -0.445312 1.789062 -0.390625 2 -0.390625 Z M 2 -0.390625 "/></g></g></g><g fill="#000000" fill-opacity="1"><g transform="translate(14.584189, 77.635566)"><g/></g></g><g fill="#000000" fill-opacity="1"><g transform="translate(10.746186, 125.905746)"><g><path d="M 3.703125 -1.109375 L 3 -1.109375 L 3 0 L 2.46875 0 L 2.46875 -1.109375 L 0.140625 -1.109375 L 0.140625 -1.578125 L 2.421875 -4.828125 L 3 -4.828125 L 3 -1.59375 L 3.703125 -1.59375 Z M 2.46875 -1.59375 L 2.46875 -3.1875 C 2.46875 -3.5 2.476562 -3.851562 2.5 -4.25 L 2.484375 -4.25 C 2.378906 -4.039062 2.28125 -3.867188 2.1875 -3.734375 L 0.6875 -1.59375 Z M 2.46875 -1.59375 "/></g></g></g><g fill="#000000" fill-opacity="1"><g transform="translate(14.584189, 125.905746)"><g/></g></g><g fill="#000000" fill-opacity="1"><g transform="translate(10.746186, 174.175916)"><g><path d="M 3.484375 0 L 0.328125 0 L 0.328125 -0.46875 L 1.59375 -1.734375 C 1.976562 -2.128906 2.226562 -2.410156 2.34375 -2.578125 C 2.46875 -2.742188 2.5625 -2.90625 2.625 -3.0625 C 2.6875 -3.21875 2.71875 -3.382812 2.71875 -3.5625 C 2.71875 -3.820312 2.640625 -4.023438 2.484375 -4.171875 C 2.328125 -4.328125 2.113281 -4.40625 1.84375 -4.40625 C 1.644531 -4.40625 1.453125 -4.367188 1.265625 -4.296875 C 1.085938 -4.234375 0.890625 -4.113281 0.671875 -3.9375 L 0.390625 -4.3125 C 0.828125 -4.675781 1.304688 -4.859375 1.828125 -4.859375 C 2.285156 -4.859375 2.640625 -4.742188 2.890625 -4.515625 C 3.148438 -4.285156 3.28125 -3.976562 3.28125 -3.59375 C 3.28125 -3.289062 3.191406 -2.988281 3.015625 -2.6875 C 2.847656 -2.382812 2.53125 -2.007812 2.0625 -1.5625 L 1.015625 -0.53125 L 1.015625 -0.5 L 3.484375 -0.5 Z M 3.484375 0 "/></g></g></g><g fill="#000000" fill-opacity="1"><g transform="translate(14.584189, 174.175916)"><g/></g></g><g fill="#000000" fill-opacity="1"><g transform="translate(10.746186, 222.446109)"><g><path d="M 3.5 -2.40625 C 3.5 -1.570312 3.367188 -0.953125 3.109375 -0.546875 C 2.847656 -0.140625 2.453125 0.0625 1.921875 0.0625 C 1.398438 0.0625 1.003906 -0.144531 0.734375 -0.5625 C 0.460938 -0.976562 0.328125 -1.59375 0.328125 -2.40625 C 0.328125 -3.238281 0.457031 -3.859375 0.71875 -4.265625 C 0.976562 -4.671875 1.378906 -4.875 1.921875 -4.875 C 2.441406 -4.875 2.832031 -4.660156 3.09375 -4.234375 C 3.363281 -3.816406 3.5 -3.207031 3.5 -2.40625 Z M 0.890625 -2.40625 C 0.890625 -1.707031 0.96875 -1.195312 1.125 -0.875 C 1.289062 -0.5625 1.554688 -0.40625 1.921875 -0.40625 C 2.273438 -0.40625 2.535156 -0.566406 2.703125 -0.890625 C 2.867188 -1.210938 2.953125 -1.71875 2.953125 -2.40625 C 2.953125 -3.09375 2.867188 -3.597656 2.703125 -3.921875 C 2.535156 -4.242188 2.273438 -4.40625 1.921875 -4.40625 C 1.554688 -4.40625 1.289062 -4.242188 1.125 -3.921875 C 0.96875 -3.609375 0.890625 -3.101562 0.890625 -2.40625 Z M 0.890625 -2.40625 "/></g></g></g><g fill="#000000" fill-opacity="1"><g transform="translate(14.584189, 222.446109)"><g/></g></g><path fill="#0a9b31" d="M 57.683594 168.042969 L 54.574219 174.253906 L 60.792969 174.253906 Z M 57.683594 170.683594 C 57.0625 170.683594 57.0625 171.613281 57.683594 171.613281 C 57.683594 171.613281 108.34375 171.613281 133.671875 171.613281 C 134.292969 171.613281 134.292969 170.683594 133.671875 170.683594 C 108.34375 170.683594 57.683594 170.683594 57.683594 170.683594 " fill-opacity="1" fill-rule="nonzero"/><path fill="#0a9b31" d="M 133.671875 168.042969 L 130.5625 174.253906 L 136.78125 174.253906 Z M 133.671875 170.683594 C 133.054688 170.683594 133.054688 171.613281 133.671875 171.613281 C 142.023438 171.613281 150.40625 172.035156 158.789062 172.460938 C 167.445312 172.898438 176.097656 173.34375 184.71875 173.335938 C 193.101562 173.328125 201.449219 172.890625 209.734375 171.609375 C 210.347656 171.511719 210.203125 170.59375 209.589844 170.6875 C 201.355469 171.960938 193.050781 172.394531 184.71875 172.402344 C 176.113281 172.414062 167.476562 171.96875 158.835938 171.53125 C 150.4375 171.105469 142.039062 170.683594 133.671875 170.683594 " fill-opacity="1" fill-rule="nonzero"/><path fill="#0a9b31" d="M 209.664062 168.042969 L 206.554688 174.253906 L 212.773438 174.253906 Z M 209.589844 170.6875 C 208.980469 170.78125 209.121094 171.703125 209.734375 171.609375 C 226.945312 168.945312 243.875 162.628906 260.808594 156.328125 C 269.125 153.234375 277.441406 150.144531 285.792969 147.496094 C 286.382812 147.308594 286.101562 146.421875 285.511719 146.605469 C 277.144531 149.261719 268.8125 152.355469 260.480469 155.457031 C 243.609375 161.734375 226.742188 168.035156 209.589844 170.6875 " fill-opacity="1" fill-rule="nonzero"/><path fill="#0a9b31" d="M 285.652344 143.945312 L 282.542969 150.15625 L 288.761719 150.15625 Z M 285.511719 146.605469 C 284.921875 146.792969 285.203125 147.683594 285.792969 147.496094 C 311.125 139.460938 361.785156 123.398438 361.785156 123.398438 C 362.375 123.210938 362.09375 122.324219 361.503906 122.511719 C 361.503906 122.511719 310.84375 138.574219 285.511719 146.605469 M 361.644531 119.851562 L 358.535156 126.058594 L 364.753906 126.058594 Z M 361.644531 119.851562 " fill-opacity="1" fill-rule="nonzero"/><path fill="#347df6" d="M 57.683594 119.851562 L 54.574219 126.058594 L 60.792969 126.058594 Z M 58.046875 122.664062 C 57.664062 122.179688 56.933594 122.757812 57.316406 123.242188 C 57.316406 123.242188 57.339844 123.273438 57.386719 123.332031 C 58.488281 124.726562 72.640625 142.519531 89.695312 160.300781 C 94.546875 165.355469 99.628906 170.410156 104.714844 175.085938 C 114.921875 184.472656 125.140625 192.339844 133.5 195.675781 C 134.074219 195.90625 134.421875 195.042969 133.84375 194.8125 C 125.566406 191.503906 115.453125 183.699219 105.347656 174.402344 C 100.273438 169.738281 95.207031 164.699219 90.371094 159.65625 C 73.34375 141.90625 59.21875 124.144531 58.117188 122.753906 C 58.070312 122.695312 58.046875 122.664062 58.046875 122.664062 " fill-opacity="1" fill-rule="nonzero"/><path fill="#347df6" d="M 133.671875 192.140625 L 130.5625 198.347656 L 136.78125 198.347656 Z M 133.84375 194.8125 C 133.269531 194.582031 132.925781 195.449219 133.5 195.675781 C 144.40625 200.035156 156.261719 201.886719 168.265625 201.925781 C 170.609375 201.933594 172.960938 201.871094 175.3125 201.746094 C 187.0625 201.113281 198.804688 198.882812 209.792969 195.691406 C 210.386719 195.519531 210.128906 194.625 209.53125 194.796875 C 198.609375 197.96875 186.941406 200.1875 175.265625 200.816406 C 172.929688 200.941406 170.597656 201.003906 168.269531 200.996094 C 156.382812 200.957031 144.644531 199.125 133.84375 194.8125 " fill-opacity="1" fill-rule="nonzero"/><path fill="#347df6" d="M 209.664062 192.140625 L 206.554688 198.347656 L 212.773438 198.347656 Z M 209.53125 194.796875 C 208.9375 194.96875 209.199219 195.863281 209.792969 195.691406 C 236.351562 187.980469 262.261719 168.785156 285.964844 147.398438 C 286.425781 146.980469 285.800781 146.292969 285.339844 146.707031 C 261.75 167.996094 235.96875 187.125 209.53125 194.796875 " fill-opacity="1" fill-rule="nonzero"/><path fill="#347df6" d="M 285.652344 143.945312 L 282.542969 150.15625 L 288.761719 150.15625 Z M 285.339844 146.707031 C 284.878906 147.121094 285.507812 147.8125 285.964844 147.398438 C 294.269531 139.90625 304.441406 128.21875 314.613281 115.527344 C 317.664062 111.726562 320.710938 107.832031 323.710938 103.933594 C 343.824219 77.789062 361.667969 51.457031 362.023438 50.933594 C 362.027344 50.925781 362.03125 50.925781 362.03125 50.925781 C 362.375 50.414062 361.605469 49.890625 361.257812 50.402344 C 361.257812 50.402344 361.253906 50.40625 361.25 50.410156 C 360.898438 50.933594 343.066406 77.246094 322.96875 103.367188 C 319.976562 107.261719 316.929688 111.148438 313.886719 114.945312 C 303.75 127.59375 293.613281 139.238281 285.339844 146.707031 M 361.644531 47.558594 L 358.535156 53.769531 L 364.753906 53.769531 Z M 361.644531 47.558594 " fill-opacity="1" fill-rule="nonzero"/><path fill="#ea4335" d="M 57.683594 143.945312 L 54.574219 150.15625 L 60.792969 150.15625 Z M 57.882812 146.628906 C 57.320312 146.367188 56.921875 147.207031 57.480469 147.472656 C 57.480469 147.472656 57.511719 147.488281 57.574219 147.515625 C 58.757812 148.074219 70.953125 153.804688 86.011719 159.535156 C 91.402344 161.585938 97.160156 163.636719 102.910156 165.453125 C 114.105469 168.984375 125.277344 171.613281 133.671875 171.613281 C 134.292969 171.613281 134.292969 170.683594 133.671875 170.683594 C 125.351562 170.683594 114.285156 168.0625 103.191406 164.5625 C 97.457031 162.753906 91.71875 160.710938 86.34375 158.664062 C 71.324219 152.949219 59.15625 147.230469 57.976562 146.675781 C 57.914062 146.644531 57.882812 146.628906 57.882812 146.628906 " fill-opacity="1" fill-rule="nonzero"/><path fill="#ea4335" d="M 133.671875 168.042969 L 130.5625 174.253906 L 136.78125 174.253906 Z M 133.671875 170.683594 C 133.054688 170.683594 133.054688 171.613281 133.671875 171.613281 C 150.703125 171.613281 167.734375 164.390625 184.769531 157.191406 C 193.113281 153.660156 201.457031 150.140625 209.804688 147.496094 C 210.394531 147.308594 210.113281 146.421875 209.519531 146.605469 C 201.148438 149.261719 192.777344 152.792969 184.402344 156.332031 C 167.492188 163.480469 150.585938 170.683594 133.671875 170.683594 " fill-opacity="1" fill-rule="nonzero"/><path fill="#ea4335" d="M 209.664062 143.945312 L 206.554688 150.15625 L 212.773438 150.15625 Z M 209.519531 146.605469 C 208.929688 146.792969 209.214844 147.683594 209.804688 147.496094 C 218.15625 144.847656 226.585938 142.570312 235.019531 140.300781 C 252.179688 135.679688 269.339844 131.070312 285.851562 123.375 C 286.410156 123.113281 286.015625 122.269531 285.457031 122.53125 C 268.992188 130.203125 251.882812 134.792969 234.777344 139.402344 C 226.332031 141.675781 217.886719 143.953125 209.519531 146.605469 " fill-opacity="1" fill-rule="nonzero"/><path fill="#ea4335" d="M 285.652344 119.851562 L 282.542969 126.058594 L 288.761719 126.058594 Z M 285.457031 122.53125 C 284.894531 122.792969 285.289062 123.636719 285.851562 123.375 C 294.230469 119.46875 305.042969 113.121094 315.871094 106.292969 C 318.578125 104.585938 321.28125 102.851562 323.953125 101.117188 C 343.765625 88.238281 361.558594 75.398438 361.910156 75.140625 C 361.914062 75.140625 361.917969 75.136719 361.917969 75.136719 C 362.417969 74.777344 361.871094 74.019531 361.371094 74.382812 C 361.371094 74.382812 361.367188 74.382812 361.363281 74.386719 C 361.011719 74.640625 343.234375 87.46875 323.441406 100.335938 C 320.777344 102.066406 318.074219 103.800781 315.375 105.503906 C 304.582031 112.3125 293.808594 118.640625 285.457031 122.53125 M 361.644531 71.65625 L 358.535156 77.863281 L 364.753906 77.863281 Z M 361.644531 71.65625 " fill-opacity="1" fill-rule="nonzero"/><path fill="#ffbd59" d="M 57.683594 216.238281 L 54.574219 222.445312 L 60.792969 222.445312 Z M 57.570312 218.890625 C 56.96875 219.039062 57.191406 219.941406 57.792969 219.792969 C 57.792969 219.792969 57.828125 219.785156 57.898438 219.765625 C 59.585938 219.351562 81.082031 214.007812 102.5 207.246094 C 111.296875 204.46875 120.078125 201.453125 127.46875 198.445312 C 129.746094 197.515625 131.894531 196.585938 133.871094 195.667969 C 134.429688 195.40625 134.035156 194.5625 133.476562 194.824219 C 131.511719 195.738281 129.378906 196.660156 127.117188 197.582031 C 119.746094 200.582031 110.988281 203.589844 102.21875 206.359375 C 80.828125 213.109375 59.359375 218.449219 57.675781 218.863281 C 57.605469 218.878906 57.570312 218.890625 57.570312 218.890625 " fill-opacity="1" fill-rule="nonzero"/><path fill="#ffbd59" d="M 133.671875 192.140625 L 130.5625 198.347656 L 136.78125 198.347656 Z M 133.476562 194.824219 C 132.914062 195.085938 133.308594 195.929688 133.871094 195.667969 C 160.046875 183.46875 185.492188 166.511719 209.949219 147.417969 C 210.4375 147.039062 209.863281 146.304688 209.375 146.683594 C 184.972656 165.734375 159.589844 182.652344 133.476562 194.824219 " fill-opacity="1" fill-rule="nonzero"/><path fill="#ffbd59" d="M 209.664062 143.945312 L 206.554688 150.15625 L 212.773438 150.15625 Z M 209.375 146.683594 C 208.886719 147.066406 209.460938 147.800781 209.949219 147.417969 C 223.15625 137.109375 235.574219 124.167969 247.996094 111.226562 C 260.382812 98.320312 272.765625 85.410156 285.941406 75.128906 C 286.429688 74.746094 285.855469 74.011719 285.367188 74.394531 C 272.160156 84.703125 259.738281 97.644531 247.320312 110.582031 C 234.933594 123.492188 222.546875 136.402344 209.375 146.683594 " fill-opacity="1" fill-rule="nonzero"/><path fill="#ffbd59" d="M 285.652344 71.65625 L 282.542969 77.863281 L 288.761719 77.863281 Z M 285.367188 74.394531 C 284.878906 74.773438 285.453125 75.507812 285.941406 75.128906 C 292.285156 70.175781 300.457031 64.546875 309.082031 58.925781 C 311.738281 57.195312 314.4375 55.464844 317.136719 53.753906 C 339.199219 39.792969 361.425781 27.226562 361.867188 26.976562 C 361.871094 26.972656 361.875 26.972656 361.875 26.972656 C 362.414062 26.667969 361.953125 25.855469 361.414062 26.160156 C 361.414062 26.160156 361.410156 26.164062 361.40625 26.164062 C 360.964844 26.414062 338.722656 38.996094 316.636719 52.96875 C 313.933594 54.679688 311.230469 56.414062 308.574219 58.144531 C 299.921875 63.78125 291.726562 69.429688 285.367188 74.394531 M 361.644531 23.460938 L 358.535156 29.671875 L 364.753906 29.671875 Z M 361.644531 23.460938 " fill-opacity="1" fill-rule="nonzero"/><path fill="#d65bad" d="M 57.683594 216.238281 L 54.574219 222.445312 L 60.792969 222.445312 Z M 57.507812 218.910156 C 56.933594 219.136719 57.28125 220.003906 57.855469 219.773438 C 57.855469 219.773438 57.894531 219.757812 57.96875 219.730469 C 59.382812 219.164062 73.972656 213.382812 91.035156 207.554688 C 94.953125 206.214844 99.003906 204.875 103.054688 203.59375 C 114.171875 200.074219 125.300781 197.011719 133.742188 195.703125 C 134.355469 195.609375 134.210938 194.691406 133.601562 194.785156 C 125.121094 196.097656 113.941406 199.171875 102.773438 202.703125 C 98.714844 203.988281 94.660156 205.332031 90.734375 206.671875 C 73.648438 212.507812 59.039062 218.300781 57.621094 218.863281 C 57.546875 218.894531 57.507812 218.910156 57.507812 218.910156 " fill-opacity="1" fill-rule="nonzero"/><path fill="#d65bad" d="M 133.671875 192.140625 L 130.5625 198.347656 L 136.78125 198.347656 Z M 133.601562 194.785156 C 132.988281 194.878906 133.132812 195.800781 133.742188 195.703125 C 138.976562 194.894531 144.25 194.597656 149.542969 194.59375 C 156.878906 194.585938 164.253906 195.148438 171.632812 195.710938 C 179.03125 196.273438 186.433594 196.832031 193.789062 196.828125 C 199.132812 196.824219 204.453125 196.523438 209.734375 195.703125 C 210.347656 195.609375 210.203125 194.691406 209.589844 194.785156 C 204.359375 195.59375 199.085938 195.894531 193.789062 195.898438 C 186.457031 195.902344 179.078125 195.339844 171.703125 194.78125 C 164.300781 194.21875 156.902344 193.65625 149.542969 193.660156 C 144.203125 193.664062 138.882812 193.96875 133.601562 194.785156 " fill-opacity="1" fill-rule="nonzero"/><path fill="#d65bad" d="M 209.664062 192.140625 L 206.554688 198.347656 L 212.773438 198.347656 Z M 209.589844 194.785156 C 208.980469 194.878906 209.121094 195.800781 209.734375 195.703125 C 226.945312 193.042969 243.875 186.726562 260.808594 180.425781 C 269.125 177.332031 277.441406 174.238281 285.792969 171.59375 C 286.382812 171.40625 286.101562 170.515625 285.511719 170.703125 C 277.144531 173.355469 268.8125 176.453125 260.480469 179.554688 C 243.609375 185.832031 226.742188 192.132812 209.589844 194.785156 " fill-opacity="1" fill-rule="nonzero"/><path fill="#d65bad" d="M 285.652344 168.042969 L 282.542969 174.253906 L 288.761719 174.253906 Z M 285.511719 170.703125 C 284.921875 170.890625 285.203125 171.777344 285.792969 171.59375 C 311.125 163.558594 361.785156 147.496094 361.785156 147.496094 C 362.375 147.308594 362.09375 146.421875 361.503906 146.605469 C 361.503906 146.605469 310.84375 162.671875 285.511719 170.703125 M 361.644531 143.945312 L 358.535156 150.15625 L 364.753906 150.15625 Z M 361.644531 143.945312 " fill-opacity="1" fill-rule="nonzero"/></svg>