<svg xmlns="http://www.w3.org/2000/svg" xmlns:xlink="http://www.w3.org/1999/xlink" width="5088" zoomAndPan="magnify" viewBox="0 0 3816 791.999994" height="1056" preserveAspectRatio="xMidYMid meet" version="1.0"><defs><g/><clipPath id="0157ee8ed8"><path d="M 1648.289062 226.925781 L 1712.039062 226.925781 L 1712.039062 290.675781 L 1648.289062 290.675781 Z M 1648.289062 226.925781 " clip-rule="nonzero"/></clipPath><clipPath id="5562ab78d1"><path d="M 1746.171875 226.925781 L 1809.921875 226.925781 L 1809.921875 290.675781 L 1746.171875 290.675781 Z M 1746.171875 226.925781 " clip-rule="nonzero"/></clipPath><clipPath id="953180167b"><path d="M 1844.054688 226.925781 L 1907.804688 226.925781 L 1907.804688 290.675781 L 1844.054688 290.675781 Z M 1844.054688 226.925781 " clip-rule="nonzero"/></clipPath></defs><g fill="#000000" fill-opacity="1"><g transform="translate(79.212052, 660.861003)"><g><path d="M 427.9375 -70.8125 C 383.164062 -17.09375 324.765625 9.765625 252.734375 9.765625 C 220.171875 9.765625 189.847656 3.863281 161.765625 -7.9375 C 133.691406 -19.738281 109.378906 -35.914062 88.828125 -56.46875 C 68.273438 -77.019531 52.097656 -101.132812 40.296875 -128.8125 C 28.492188 -156.488281 22.59375 -186.398438 22.59375 -218.546875 C 22.59375 -250.703125 28.492188 -280.613281 40.296875 -308.28125 C 52.097656 -335.957031 68.273438 -360.070312 88.828125 -380.625 C 109.378906 -401.175781 133.691406 -417.351562 161.765625 -429.15625 C 189.847656 -440.957031 220.171875 -446.859375 252.734375 -446.859375 C 288.546875 -446.859375 319.578125 -440.753906 345.828125 -428.546875 C 372.078125 -416.335938 395.988281 -398.632812 417.5625 -375.4375 L 351.015625 -310.734375 C 339.617188 -323.753906 325.984375 -334.640625 310.109375 -343.390625 C 294.242188 -352.140625 275.320312 -356.515625 253.34375 -356.515625 C 234.21875 -356.515625 216.410156 -353.257812 199.921875 -346.75 C 183.441406 -340.238281 169.097656 -330.875 156.890625 -318.65625 C 144.679688 -306.445312 135.117188 -291.898438 128.203125 -275.015625 C 121.285156 -258.128906 117.828125 -239.304688 117.828125 -218.546875 C 117.828125 -197.785156 121.285156 -178.960938 128.203125 -162.078125 C 135.117188 -145.191406 144.679688 -130.640625 156.890625 -118.421875 C 169.097656 -106.210938 183.441406 -96.851562 199.921875 -90.34375 C 216.410156 -83.832031 234.21875 -80.578125 253.34375 -80.578125 C 276.539062 -80.578125 296.6875 -85.253906 313.78125 -94.609375 C 330.875 -103.972656 346.335938 -117.40625 360.171875 -134.90625 Z M 427.9375 -70.8125 "/></g></g></g><g fill="#000000" fill-opacity="1"><g transform="translate(529.130004, 660.861003)"><g><path d="M 178.25 -308.890625 C 201.445312 -308.890625 222.914062 -304.921875 242.65625 -296.984375 C 262.394531 -289.054688 279.488281 -278.070312 293.9375 -264.03125 C 308.382812 -249.988281 319.578125 -233.195312 327.515625 -213.65625 C 335.453125 -194.125 339.421875 -172.757812 339.421875 -149.5625 C 339.421875 -126.363281 335.453125 -104.992188 327.515625 -85.453125 C 319.578125 -65.921875 308.382812 -49.132812 293.9375 -35.09375 C 279.488281 -21.0625 262.394531 -10.078125 242.65625 -2.140625 C 222.914062 5.796875 201.445312 9.765625 178.25 9.765625 C 155.050781 9.765625 133.582031 5.796875 113.84375 -2.140625 C 94.113281 -10.078125 77.023438 -21.0625 62.578125 -35.09375 C 48.128906 -49.132812 36.9375 -65.921875 29 -85.453125 C 21.0625 -104.992188 17.09375 -126.363281 17.09375 -149.5625 C 17.09375 -172.757812 21.0625 -194.125 29 -213.65625 C 36.9375 -233.195312 48.128906 -249.988281 62.578125 -264.03125 C 77.023438 -278.070312 94.113281 -289.054688 113.84375 -296.984375 C 133.582031 -304.921875 155.050781 -308.890625 178.25 -308.890625 Z M 178.25 -75.703125 C 187.613281 -75.703125 196.46875 -77.429688 204.8125 -80.890625 C 213.15625 -84.347656 220.582031 -89.226562 227.09375 -95.53125 C 233.601562 -101.84375 238.6875 -109.578125 242.34375 -118.734375 C 246.007812 -127.890625 247.84375 -138.164062 247.84375 -149.5625 C 247.84375 -160.957031 246.007812 -171.128906 242.34375 -180.078125 C 238.6875 -189.035156 233.601562 -196.769531 227.09375 -203.28125 C 220.582031 -209.789062 213.15625 -214.773438 204.8125 -218.234375 C 196.46875 -221.703125 187.613281 -223.4375 178.25 -223.4375 C 168.894531 -223.4375 160.046875 -221.703125 151.703125 -218.234375 C 143.359375 -214.773438 135.929688 -209.789062 129.421875 -203.28125 C 122.910156 -196.769531 117.820312 -189.035156 114.15625 -180.078125 C 110.488281 -171.128906 108.65625 -160.957031 108.65625 -149.5625 C 108.65625 -138.164062 110.488281 -127.890625 114.15625 -118.734375 C 117.820312 -109.578125 122.910156 -101.84375 129.421875 -95.53125 C 135.929688 -89.226562 143.359375 -84.347656 151.703125 -80.890625 C 160.046875 -77.429688 168.894531 -75.703125 178.25 -75.703125 Z M 178.25 -75.703125 "/></g></g></g><g fill="#000000" fill-opacity="1"><g transform="translate(885.645642, 660.861003)"><g><path d="M 119.65625 -261.28125 L 125.75 -261.28125 C 146.101562 -293.019531 176.628906 -308.890625 217.328125 -308.890625 C 254.765625 -308.890625 282.640625 -296.882812 300.953125 -272.875 C 319.273438 -248.863281 328.4375 -217.320312 328.4375 -178.25 L 328.4375 0 L 236.859375 0 L 236.859375 -167.875 C 236.859375 -184.15625 232.992188 -197.484375 225.265625 -207.859375 C 217.535156 -218.242188 205.53125 -223.4375 189.25 -223.4375 C 168.488281 -223.4375 152.710938 -215.5 141.921875 -199.625 C 131.140625 -183.75 125.75 -162.992188 125.75 -137.359375 L 125.75 0 L 34.1875 0 L 34.1875 -299.125 L 119.65625 -299.125 Z M 119.65625 -261.28125 "/></g></g></g><g fill="#000000" fill-opacity="1"><g transform="translate(1245.824195, 660.861003)"><g><path d="M 157.5 9.765625 C 136.738281 9.765625 118.421875 7.320312 102.546875 2.4375 C 86.679688 -2.445312 72.945312 -8.851562 61.34375 -16.78125 C 49.75 -24.71875 40.082031 -33.875 32.34375 -44.25 C 24.613281 -54.632812 18.71875 -65.117188 14.65625 -75.703125 L 97.0625 -110.5 C 102.757812 -96.65625 110.695312 -86.578125 120.875 -80.265625 C 131.050781 -73.960938 143.257812 -70.8125 157.5 -70.8125 C 169.707031 -70.8125 179.164062 -72.742188 185.875 -76.609375 C 192.59375 -80.472656 195.953125 -85.460938 195.953125 -91.578125 C 195.953125 -98.492188 192.695312 -103.882812 186.1875 -107.75 C 179.675781 -111.613281 169.300781 -115.175781 155.0625 -118.4375 L 114.15625 -126.984375 C 104.382812 -129.015625 94.410156 -132.265625 84.234375 -136.734375 C 74.066406 -141.210938 64.707031 -147.113281 56.15625 -154.4375 C 47.613281 -161.769531 40.695312 -170.421875 35.40625 -180.390625 C 30.113281 -190.359375 27.46875 -201.859375 27.46875 -214.890625 C 27.46875 -229.128906 30.617188 -242.046875 36.921875 -253.640625 C 43.234375 -265.242188 51.882812 -275.113281 62.875 -283.25 C 73.863281 -291.394531 86.882812 -297.703125 101.9375 -302.171875 C 117 -306.648438 133.484375 -308.890625 151.390625 -308.890625 C 182.328125 -308.890625 208.984375 -303.5 231.359375 -292.71875 C 253.742188 -281.9375 270.632812 -263.925781 282.03125 -238.6875 L 203.28125 -206.34375 C 197.988281 -216.914062 190.5625 -224.644531 181 -229.53125 C 171.4375 -234.414062 161.769531 -236.859375 152 -236.859375 C 141.425781 -236.859375 132.878906 -235.023438 126.359375 -231.359375 C 119.847656 -227.703125 116.59375 -223.226562 116.59375 -217.9375 C 116.59375 -212.238281 119.953125 -207.660156 126.671875 -204.203125 C 133.390625 -200.742188 141.628906 -197.789062 151.390625 -195.34375 L 197.796875 -184.359375 C 228.316406 -177.035156 251.101562 -165.234375 266.15625 -148.953125 C 281.21875 -132.671875 288.75 -113.546875 288.75 -91.578125 C 288.75 -78.140625 285.59375 -65.316406 279.28125 -53.109375 C 272.976562 -40.898438 264.023438 -30.113281 252.421875 -20.75 C 240.828125 -11.394531 226.988281 -3.972656 210.90625 1.515625 C 194.832031 7.015625 177.03125 9.765625 157.5 9.765625 Z M 157.5 9.765625 "/></g></g></g><g fill="#000000" fill-opacity="1"><g transform="translate(1549.228885, 660.861003)"><g><path d="M 240.53125 -37.84375 L 234.421875 -37.84375 C 214.066406 -6.101562 183.539062 9.765625 142.84375 9.765625 C 105.40625 9.765625 77.53125 -2.238281 59.21875 -26.25 C 40.90625 -50.257812 31.75 -81.800781 31.75 -120.875 L 31.75 -299.125 L 123.3125 -299.125 L 123.3125 -131.25 C 123.3125 -114.96875 127.175781 -101.640625 134.90625 -91.265625 C 142.644531 -80.890625 154.65625 -75.703125 170.9375 -75.703125 C 191.6875 -75.703125 207.453125 -83.632812 218.234375 -99.5 C 229.023438 -115.375 234.421875 -136.132812 234.421875 -161.78125 L 234.421875 -299.125 L 325.984375 -299.125 L 325.984375 0 L 240.53125 0 Z M 240.53125 -37.84375 "/></g></g></g><g fill="#000000" fill-opacity="1"><g transform="translate(1909.407439, 660.861003)"><g><path d="M 34.1875 0 L 34.1875 -437.09375 L 125.75 -437.09375 L 125.75 0 Z M 34.1875 0 "/></g></g></g><g fill="#000000" fill-opacity="1"><g transform="translate(2069.351063, 660.861003)"><g><path d="M 67.15625 -222.203125 L 14.65625 -222.203125 L 14.65625 -299.125 L 67.15625 -299.125 L 67.15625 -390.703125 L 158.71875 -390.703125 L 158.71875 -299.125 L 232.59375 -299.125 L 232.59375 -222.203125 L 158.71875 -222.203125 L 158.71875 -121.484375 C 158.71875 -114.972656 159.53125 -108.96875 161.15625 -103.46875 C 162.789062 -97.976562 165.640625 -93.398438 169.703125 -89.734375 C 175.816406 -84.441406 183.753906 -81.796875 193.515625 -81.796875 C 200.023438 -81.796875 205.519531 -82.609375 210 -84.234375 C 214.476562 -85.867188 218.34375 -87.90625 221.59375 -90.34375 L 247.234375 -10.984375 C 236.660156 -6.097656 225.265625 -2.234375 213.046875 0.609375 C 200.835938 3.460938 187.816406 4.890625 173.984375 4.890625 C 141.828125 4.890625 116.390625 -4.472656 97.671875 -23.203125 C 87.910156 -32.960938 80.382812 -45.066406 75.09375 -59.515625 C 69.800781 -73.960938 67.15625 -89.9375 67.15625 -107.4375 Z M 67.15625 -222.203125 "/></g></g></g><g fill="#000000" fill-opacity="1"><g transform="translate(2328.801671, 660.861003)"><g><path d="M 213.671875 -26.859375 L 207.5625 -26.859375 C 197.789062 -16.273438 186.695312 -7.523438 174.28125 -0.609375 C 161.875 6.304688 145.898438 9.765625 126.359375 9.765625 C 111.304688 9.765625 97.164062 7.320312 83.9375 2.4375 C 70.707031 -2.445312 59.109375 -9.363281 49.140625 -18.3125 C 39.171875 -27.269531 31.335938 -38.054688 25.640625 -50.671875 C 19.941406 -63.285156 17.09375 -77.328125 17.09375 -92.796875 C 17.09375 -107.847656 20.144531 -121.582031 26.25 -134 C 32.351562 -146.414062 40.695312 -157.097656 51.28125 -166.046875 C 61.863281 -175.003906 74.378906 -181.921875 88.828125 -186.796875 C 103.273438 -191.679688 119.046875 -194.125 136.140625 -194.125 C 154.453125 -194.125 169.609375 -192.898438 181.609375 -190.453125 C 193.617188 -188.015625 204.304688 -185.171875 213.671875 -181.921875 L 213.671875 -189.859375 C 213.671875 -202.878906 208.273438 -213.96875 197.484375 -223.125 C 186.703125 -232.28125 172.15625 -236.859375 153.84375 -236.859375 C 127.382812 -236.859375 104.59375 -226.070312 85.46875 -204.5 L 23.203125 -248.453125 C 40.296875 -268.804688 60.132812 -283.96875 82.71875 -293.9375 C 105.300781 -303.90625 130.226562 -308.890625 157.5 -308.890625 C 206.332031 -308.890625 243.160156 -298.003906 267.984375 -276.234375 C 292.816406 -254.460938 305.234375 -221.394531 305.234375 -177.03125 L 305.234375 0 L 213.671875 0 Z M 213.671875 -117.828125 C 204.304688 -121.484375 195.046875 -124.328125 185.890625 -126.359375 C 176.734375 -128.398438 167.269531 -129.421875 157.5 -129.421875 C 141.21875 -129.421875 129.003906 -126.0625 120.859375 -119.34375 C 112.722656 -112.632812 108.65625 -103.988281 108.65625 -93.40625 C 108.65625 -82.820312 112.519531 -74.375 120.25 -68.0625 C 127.988281 -61.757812 138.164062 -58.609375 150.78125 -58.609375 C 160.957031 -58.609375 170.015625 -60.335938 177.953125 -63.796875 C 185.890625 -67.253906 192.503906 -71.832031 197.796875 -77.53125 C 203.085938 -83.226562 207.054688 -89.632812 209.703125 -96.75 C 212.347656 -103.875 213.671875 -110.898438 213.671875 -117.828125 Z M 213.671875 -117.828125 "/></g></g></g><g fill="#000000" fill-opacity="1"><g transform="translate(2663.340368, 660.861003)"><g><path d="M 119.65625 -261.28125 L 125.75 -261.28125 C 146.101562 -293.019531 176.628906 -308.890625 217.328125 -308.890625 C 254.765625 -308.890625 282.640625 -296.882812 300.953125 -272.875 C 319.273438 -248.863281 328.4375 -217.320312 328.4375 -178.25 L 328.4375 0 L 236.859375 0 L 236.859375 -167.875 C 236.859375 -184.15625 232.992188 -197.484375 225.265625 -207.859375 C 217.535156 -218.242188 205.53125 -223.4375 189.25 -223.4375 C 168.488281 -223.4375 152.710938 -215.5 141.921875 -199.625 C 131.140625 -183.75 125.75 -162.992188 125.75 -137.359375 L 125.75 0 L 34.1875 0 L 34.1875 -299.125 L 119.65625 -299.125 Z M 119.65625 -261.28125 "/></g></g></g><g fill="#000000" fill-opacity="1"><g transform="translate(3023.518822, 660.861003)"><g><path d="M 324.765625 -76.3125 C 310.117188 -49.445312 290.6875 -28.382812 266.46875 -13.125 C 242.25 2.132812 212.84375 9.765625 178.25 9.765625 C 155.050781 9.765625 133.582031 5.796875 113.84375 -2.140625 C 94.113281 -10.078125 77.023438 -21.0625 62.578125 -35.09375 C 48.128906 -49.132812 36.9375 -65.921875 29 -85.453125 C 21.0625 -104.992188 17.09375 -126.363281 17.09375 -149.5625 C 17.09375 -172.757812 21.0625 -194.125 29 -213.65625 C 36.9375 -233.195312 48.128906 -249.988281 62.578125 -264.03125 C 77.023438 -278.070312 94.113281 -289.054688 113.84375 -296.984375 C 133.582031 -304.921875 155.050781 -308.890625 178.25 -308.890625 C 212.4375 -308.890625 241.84375 -301.359375 266.46875 -286.296875 C 291.09375 -271.242188 309.304688 -250.492188 321.109375 -224.046875 L 236.859375 -188.640625 C 230.347656 -200.441406 222.515625 -209.191406 213.359375 -214.890625 C 204.203125 -220.585938 192.5 -223.4375 178.25 -223.4375 C 158.3125 -223.4375 141.726562 -216.820312 128.5 -203.59375 C 115.269531 -190.363281 108.65625 -172.351562 108.65625 -149.5625 C 108.65625 -126.769531 115.269531 -108.757812 128.5 -95.53125 C 141.726562 -82.3125 158.3125 -75.703125 178.25 -75.703125 C 192.5 -75.703125 204.707031 -78.851562 214.875 -85.15625 C 225.050781 -91.46875 233.601562 -100.726562 240.53125 -112.9375 Z M 324.765625 -76.3125 "/></g></g></g><g fill="#000000" fill-opacity="1"><g transform="translate(3362.94115, 660.861003)"><g><path d="M 129.421875 -12.8125 L 2.4375 -299.125 L 108.046875 -299.125 L 177.03125 -134.296875 L 183.140625 -134.296875 L 249.078125 -299.125 L 352.234375 -299.125 L 164.828125 131.859375 L 64.703125 131.859375 Z M 129.421875 -12.8125 "/></g></g></g><g clip-path="url(#0157ee8ed8)"><path fill="#4285f4" d="M 1712.039062 258.800781 C 1712.039062 259.847656 1711.988281 260.886719 1711.882812 261.925781 C 1711.78125 262.964844 1711.628906 263.996094 1711.425781 265.019531 C 1711.222656 266.042969 1710.96875 267.054688 1710.664062 268.054688 C 1710.363281 269.054688 1710.011719 270.035156 1709.613281 271 C 1709.210938 271.964844 1708.765625 272.90625 1708.273438 273.828125 C 1707.78125 274.75 1707.246094 275.644531 1706.667969 276.511719 C 1706.085938 277.378906 1705.464844 278.21875 1704.804688 279.023438 C 1704.140625 279.832031 1703.441406 280.601562 1702.703125 281.339844 C 1701.964844 282.078125 1701.191406 282.78125 1700.382812 283.441406 C 1699.578125 284.105469 1698.738281 284.726562 1697.871094 285.304688 C 1697.003906 285.886719 1696.109375 286.421875 1695.1875 286.914062 C 1694.269531 287.40625 1693.324219 287.851562 1692.359375 288.25 C 1691.398438 288.652344 1690.414062 289.003906 1689.417969 289.304688 C 1688.417969 289.609375 1687.40625 289.863281 1686.382812 290.066406 C 1685.359375 290.269531 1684.328125 290.421875 1683.289062 290.523438 C 1682.25 290.625 1681.207031 290.675781 1680.164062 290.675781 C 1679.121094 290.675781 1678.078125 290.625 1677.039062 290.523438 C 1676 290.421875 1674.96875 290.269531 1673.945312 290.066406 C 1672.921875 289.863281 1671.910156 289.609375 1670.910156 289.304688 C 1669.910156 289.003906 1668.929688 288.652344 1667.964844 288.25 C 1667 287.851562 1666.058594 287.40625 1665.136719 286.914062 C 1664.214844 286.421875 1663.324219 285.886719 1662.453125 285.304688 C 1661.585938 284.726562 1660.75 284.105469 1659.941406 283.441406 C 1659.136719 282.78125 1658.363281 282.078125 1657.625 281.339844 C 1656.886719 280.601562 1656.1875 279.832031 1655.523438 279.023438 C 1654.859375 278.21875 1654.238281 277.378906 1653.660156 276.511719 C 1653.082031 275.644531 1652.542969 274.75 1652.050781 273.828125 C 1651.558594 272.90625 1651.113281 271.964844 1650.714844 271 C 1650.316406 270.035156 1649.964844 269.054688 1649.660156 268.054688 C 1649.359375 267.054688 1649.105469 266.042969 1648.902344 265.019531 C 1648.695312 263.996094 1648.542969 262.964844 1648.441406 261.925781 C 1648.339844 260.886719 1648.289062 259.847656 1648.289062 258.800781 C 1648.289062 257.757812 1648.339844 256.71875 1648.441406 255.679688 C 1648.542969 254.640625 1648.695312 253.609375 1648.902344 252.585938 C 1649.105469 251.558594 1649.359375 250.546875 1649.660156 249.550781 C 1649.964844 248.550781 1650.316406 247.570312 1650.714844 246.605469 C 1651.113281 245.640625 1651.558594 244.699219 1652.050781 243.777344 C 1652.542969 242.855469 1653.082031 241.960938 1653.660156 241.09375 C 1654.238281 240.226562 1654.859375 239.386719 1655.523438 238.582031 C 1656.1875 237.773438 1656.886719 237 1657.625 236.261719 C 1658.363281 235.523438 1659.136719 234.824219 1659.941406 234.164062 C 1660.75 233.5 1661.585938 232.878906 1662.453125 232.300781 C 1663.324219 231.71875 1664.214844 231.183594 1665.136719 230.691406 C 1666.058594 230.199219 1667 229.753906 1667.964844 229.355469 C 1668.929688 228.953125 1669.910156 228.601562 1670.910156 228.300781 C 1671.910156 227.996094 1672.921875 227.742188 1673.945312 227.539062 C 1674.96875 227.335938 1676 227.183594 1677.039062 227.082031 C 1678.078125 226.980469 1679.121094 226.925781 1680.164062 226.925781 C 1681.207031 226.925781 1682.25 226.980469 1683.289062 227.082031 C 1684.328125 227.183594 1685.359375 227.335938 1686.382812 227.539062 C 1687.40625 227.742188 1688.417969 227.996094 1689.417969 228.300781 C 1690.414062 228.601562 1691.398438 228.953125 1692.359375 229.355469 C 1693.324219 229.753906 1694.269531 230.199219 1695.1875 230.691406 C 1696.109375 231.183594 1697.003906 231.71875 1697.871094 232.300781 C 1698.738281 232.878906 1699.578125 233.5 1700.382812 234.164062 C 1701.191406 234.824219 1701.964844 235.523438 1702.703125 236.261719 C 1703.441406 237 1704.140625 237.773438 1704.804688 238.582031 C 1705.464844 239.386719 1706.085938 240.226562 1706.667969 241.09375 C 1707.246094 241.960938 1707.78125 242.855469 1708.273438 243.777344 C 1708.765625 244.699219 1709.210938 245.640625 1709.613281 246.605469 C 1710.011719 247.570312 1710.363281 248.550781 1710.664062 249.550781 C 1710.96875 250.546875 1711.222656 251.558594 1711.425781 252.585938 C 1711.628906 253.609375 1711.78125 254.640625 1711.882812 255.679688 C 1711.988281 256.71875 1712.039062 257.757812 1712.039062 258.800781 Z M 1712.039062 258.800781 " fill-opacity="1" fill-rule="nonzero"/></g><g fill="#000000" fill-opacity="1"><g transform="translate(564.173531, 282.789148)"><g><path d="M 26.546875 0 L 26.546875 -246.875 L 106.546875 -246.875 C 117.117188 -246.875 127.054688 -245.148438 136.359375 -241.703125 C 145.671875 -238.253906 153.773438 -233.367188 160.671875 -227.046875 C 167.566406 -220.722656 173.023438 -213.132812 177.046875 -204.28125 C 181.078125 -195.4375 183.09375 -185.613281 183.09375 -174.8125 C 183.09375 -164.007812 181.078125 -154.179688 177.046875 -145.328125 C 173.023438 -136.484375 167.566406 -128.898438 160.671875 -122.578125 C 153.773438 -116.253906 145.671875 -111.367188 136.359375 -107.921875 C 127.054688 -104.472656 117.117188 -102.75 106.546875 -102.75 L 48.609375 -102.75 L 48.609375 0 Z M 107.578125 -123.78125 C 115.160156 -123.78125 122.171875 -125.101562 128.609375 -127.75 C 135.046875 -130.394531 140.617188 -134.015625 145.328125 -138.609375 C 150.046875 -143.203125 153.78125 -148.601562 156.53125 -154.8125 C 159.289062 -161.019531 160.671875 -167.6875 160.671875 -174.8125 C 160.671875 -181.9375 159.289062 -188.660156 156.53125 -194.984375 C 153.78125 -201.304688 150.046875 -206.707031 145.328125 -211.1875 C 140.617188 -215.664062 135.046875 -219.226562 128.609375 -221.875 C 122.171875 -224.519531 115.160156 -225.84375 107.578125 -225.84375 L 48.609375 -225.84375 L 48.609375 -123.78125 Z M 107.578125 -123.78125 "/></g></g></g><g fill="#000000" fill-opacity="1"><g transform="translate(756.221199, 282.789148)"><g><path d="M 20.6875 0 L 20.6875 -168.953125 L 41.375 -168.953125 L 41.375 -139.296875 L 42.75 -139.296875 C 44.363281 -144.359375 46.953125 -149.015625 50.515625 -153.265625 C 54.078125 -157.515625 58.097656 -161.191406 62.578125 -164.296875 C 67.054688 -167.398438 71.765625 -169.753906 76.703125 -171.359375 C 81.648438 -172.972656 86.425781 -173.78125 91.03125 -173.78125 C 96.3125 -173.78125 100.675781 -173.429688 104.125 -172.734375 C 107.570312 -172.046875 110.90625 -170.898438 114.125 -169.296875 L 107.234375 -148.609375 C 102.628906 -150.910156 96.304688 -152.0625 88.265625 -152.0625 C 82.285156 -152.0625 76.535156 -150.625 71.015625 -147.75 C 65.503906 -144.875 60.679688 -140.90625 56.546875 -135.84375 C 52.410156 -130.789062 49.078125 -124.757812 46.546875 -117.75 C 44.015625 -110.738281 42.75 -103.09375 42.75 -94.8125 L 42.75 0 Z M 20.6875 0 "/></g></g></g><g fill="#000000" fill-opacity="1"><g transform="translate(871.725611, 282.789148)"><g><path d="M 168.609375 -40 C 165.617188 -33.789062 161.820312 -27.925781 157.21875 -22.40625 C 152.625 -16.894531 147.28125 -12.066406 141.1875 -7.921875 C 135.101562 -3.785156 128.148438 -0.515625 120.328125 1.890625 C 112.515625 4.304688 103.894531 5.515625 94.46875 5.515625 C 82.289062 5.515625 71.03125 3.273438 60.6875 -1.203125 C 50.34375 -5.691406 41.429688 -11.957031 33.953125 -20 C 26.484375 -28.039062 20.679688 -37.519531 16.546875 -48.4375 C 12.410156 -59.363281 10.34375 -71.375 10.34375 -84.46875 C 10.34375 -96.65625 12.238281 -108.207031 16.03125 -119.125 C 19.820312 -130.039062 25.28125 -139.578125 32.40625 -147.734375 C 39.53125 -155.898438 48.148438 -162.394531 58.265625 -167.21875 C 68.378906 -172.050781 79.757812 -174.46875 92.40625 -174.46875 C 104.59375 -174.46875 115.566406 -172.335938 125.328125 -168.078125 C 135.097656 -163.828125 143.429688 -157.851562 150.328125 -150.15625 C 157.222656 -142.457031 162.566406 -133.207031 166.359375 -122.40625 C 170.148438 -111.601562 172.046875 -99.648438 172.046875 -86.546875 C 172.046875 -85.859375 172.046875 -85.164062 172.046875 -84.46875 C 171.816406 -83.78125 171.703125 -83.207031 171.703125 -82.75 L 171.703125 -80.6875 L 32.75 -80.6875 C 32.976562 -68.957031 35.046875 -58.953125 38.953125 -50.671875 C 42.867188 -42.398438 47.8125 -35.5625 53.78125 -30.15625 C 59.757812 -24.757812 66.425781 -20.796875 73.78125 -18.265625 C 81.132812 -15.742188 88.257812 -14.484375 95.15625 -14.484375 C 109.414062 -14.484375 120.679688 -17.757812 128.953125 -24.3125 C 137.222656 -30.863281 144.117188 -39.195312 149.640625 -49.3125 Z M 148.953125 -99.296875 C 148.722656 -104.816406 147.570312 -110.796875 145.5 -117.234375 C 143.4375 -123.671875 140.21875 -129.644531 135.84375 -135.15625 C 131.476562 -140.675781 125.675781 -145.273438 118.4375 -148.953125 C 111.195312 -152.628906 102.289062 -154.46875 91.71875 -154.46875 C 84.820312 -154.46875 78.15625 -153.257812 71.71875 -150.84375 C 65.28125 -148.4375 59.472656 -144.929688 54.296875 -140.328125 C 49.128906 -135.734375 44.765625 -129.988281 41.203125 -123.09375 C 37.640625 -116.195312 35.285156 -108.265625 34.140625 -99.296875 Z M 148.953125 -99.296875 "/></g></g></g><g fill="#000000" fill-opacity="1"><g transform="translate(1053.774459, 282.789148)"><g><path d="M 79.640625 5.515625 C 70.453125 5.515625 62.003906 4.191406 54.296875 1.546875 C 46.597656 -1.085938 39.816406 -4.644531 33.953125 -9.125 C 28.097656 -13.613281 23.039062 -18.785156 18.78125 -24.640625 C 14.53125 -30.503906 11.257812 -36.65625 8.96875 -43.09375 L 28.625 -51.375 C 33.21875 -39.1875 40.164062 -29.929688 49.46875 -23.609375 C 58.78125 -17.296875 68.835938 -14.140625 79.640625 -14.140625 C 93.203125 -14.140625 103.890625 -17.125 111.703125 -23.09375 C 119.523438 -29.070312 123.4375 -36.203125 123.4375 -44.484375 C 123.4375 -47.929688 122.859375 -51.144531 121.703125 -54.125 C 120.554688 -57.113281 118.488281 -59.929688 115.5 -62.578125 C 112.519531 -65.222656 108.5 -67.632812 103.4375 -69.8125 C 98.382812 -72 91.945312 -74.015625 84.125 -75.859375 L 60.6875 -81.375 C 55.394531 -82.75 49.929688 -84.523438 44.296875 -86.703125 C 38.671875 -88.890625 33.554688 -91.765625 28.953125 -95.328125 C 24.359375 -98.898438 20.625 -103.210938 17.75 -108.265625 C 14.882812 -113.328125 13.453125 -119.1875 13.453125 -125.84375 C 13.453125 -133.664062 15.234375 -140.5625 18.796875 -146.53125 C 22.359375 -152.507812 27.179688 -157.566406 33.265625 -161.703125 C 39.359375 -165.847656 46.3125 -169.007812 54.125 -171.1875 C 61.945312 -173.375 69.992188 -174.46875 78.265625 -174.46875 C 85.390625 -174.46875 92.285156 -173.601562 98.953125 -171.875 C 105.617188 -170.15625 111.765625 -167.6875 117.390625 -164.46875 C 123.023438 -161.25 128.023438 -157.164062 132.390625 -152.21875 C 136.765625 -147.28125 140.21875 -141.59375 142.75 -135.15625 L 123.4375 -127.234375 C 118.84375 -136.890625 112.578125 -143.898438 104.640625 -148.265625 C 96.710938 -152.628906 87.578125 -154.8125 77.234375 -154.8125 C 72.179688 -154.8125 67.179688 -154.175781 62.234375 -152.90625 C 57.296875 -151.644531 52.867188 -149.804688 48.953125 -147.390625 C 45.046875 -144.984375 41.882812 -142 39.46875 -138.4375 C 37.0625 -134.875 35.859375 -130.910156 35.859375 -126.546875 C 35.859375 -119.421875 38.90625 -113.898438 45 -109.984375 C 51.09375 -106.078125 59.65625 -102.742188 70.6875 -99.984375 L 95.515625 -93.78125 C 112.753906 -89.414062 125.453125 -83.148438 133.609375 -74.984375 C 141.765625 -66.828125 145.84375 -57.234375 145.84375 -46.203125 C 145.84375 -39.078125 144.289062 -32.410156 141.1875 -26.203125 C 138.09375 -19.992188 133.613281 -14.535156 127.75 -9.828125 C 121.882812 -5.117188 114.867188 -1.382812 106.703125 1.375 C 98.546875 4.132812 89.523438 5.515625 79.640625 5.515625 Z M 79.640625 5.515625 "/></g></g></g><g fill="#000000" fill-opacity="1"><g transform="translate(1208.240117, 282.789148)"><g><path d="M 168.609375 -40 C 165.617188 -33.789062 161.820312 -27.925781 157.21875 -22.40625 C 152.625 -16.894531 147.28125 -12.066406 141.1875 -7.921875 C 135.101562 -3.785156 128.148438 -0.515625 120.328125 1.890625 C 112.515625 4.304688 103.894531 5.515625 94.46875 5.515625 C 82.289062 5.515625 71.03125 3.273438 60.6875 -1.203125 C 50.34375 -5.691406 41.429688 -11.957031 33.953125 -20 C 26.484375 -28.039062 20.679688 -37.519531 16.546875 -48.4375 C 12.410156 -59.363281 10.34375 -71.375 10.34375 -84.46875 C 10.34375 -96.65625 12.238281 -108.207031 16.03125 -119.125 C 19.820312 -130.039062 25.28125 -139.578125 32.40625 -147.734375 C 39.53125 -155.898438 48.148438 -162.394531 58.265625 -167.21875 C 68.378906 -172.050781 79.757812 -174.46875 92.40625 -174.46875 C 104.59375 -174.46875 115.566406 -172.335938 125.328125 -168.078125 C 135.097656 -163.828125 143.429688 -157.851562 150.328125 -150.15625 C 157.222656 -142.457031 162.566406 -133.207031 166.359375 -122.40625 C 170.148438 -111.601562 172.046875 -99.648438 172.046875 -86.546875 C 172.046875 -85.859375 172.046875 -85.164062 172.046875 -84.46875 C 171.816406 -83.78125 171.703125 -83.207031 171.703125 -82.75 L 171.703125 -80.6875 L 32.75 -80.6875 C 32.976562 -68.957031 35.046875 -58.953125 38.953125 -50.671875 C 42.867188 -42.398438 47.8125 -35.5625 53.78125 -30.15625 C 59.757812 -24.757812 66.425781 -20.796875 73.78125 -18.265625 C 81.132812 -15.742188 88.257812 -14.484375 95.15625 -14.484375 C 109.414062 -14.484375 120.679688 -17.757812 128.953125 -24.3125 C 137.222656 -30.863281 144.117188 -39.195312 149.640625 -49.3125 Z M 148.953125 -99.296875 C 148.722656 -104.816406 147.570312 -110.796875 145.5 -117.234375 C 143.4375 -123.671875 140.21875 -129.644531 135.84375 -135.15625 C 131.476562 -140.675781 125.675781 -145.273438 118.4375 -148.953125 C 111.195312 -152.628906 102.289062 -154.46875 91.71875 -154.46875 C 84.820312 -154.46875 78.15625 -153.257812 71.71875 -150.84375 C 65.28125 -148.4375 59.472656 -144.929688 54.296875 -140.328125 C 49.128906 -135.734375 44.765625 -129.988281 41.203125 -123.09375 C 37.640625 -116.195312 35.285156 -108.265625 34.140625 -99.296875 Z M 148.953125 -99.296875 "/></g></g></g><g fill="#000000" fill-opacity="1"><g transform="translate(1390.288965, 282.789148)"><g><path d="M 135.5 -30 L 134.125 -30 C 128.375 -20.113281 120.382812 -11.722656 110.15625 -4.828125 C 99.925781 2.066406 88.03125 5.515625 74.46875 5.515625 C 65.28125 5.515625 56.773438 4.078125 48.953125 1.203125 C 41.140625 -1.671875 34.359375 -5.578125 28.609375 -10.515625 C 22.867188 -15.453125 18.390625 -21.367188 15.171875 -28.265625 C 11.953125 -35.171875 10.34375 -42.644531 10.34375 -50.6875 C 10.34375 -59.882812 12.238281 -68.046875 16.03125 -75.171875 C 19.820312 -82.296875 24.992188 -88.269531 31.546875 -93.09375 C 38.097656 -97.914062 45.679688 -101.535156 54.296875 -103.953125 C 62.921875 -106.367188 72.0625 -107.578125 81.71875 -107.578125 C 93.207031 -107.578125 103.550781 -106.253906 112.75 -103.609375 C 121.945312 -100.960938 129.53125 -97.914062 135.5 -94.46875 L 135.5 -104.8125 C 135.5 -112.40625 134.117188 -119.300781 131.359375 -125.5 C 128.609375 -131.707031 124.929688 -136.992188 120.328125 -141.359375 C 115.734375 -145.734375 110.273438 -149.066406 103.953125 -151.359375 C 97.628906 -153.660156 91.019531 -154.8125 84.125 -154.8125 C 73.78125 -154.8125 64.585938 -152.566406 56.546875 -148.078125 C 48.503906 -143.597656 41.835938 -137.109375 36.546875 -128.609375 L 17.234375 -140.671875 C 23.898438 -151.015625 32.976562 -159.234375 44.46875 -165.328125 C 55.96875 -171.421875 68.957031 -174.46875 83.4375 -174.46875 C 94.695312 -174.46875 104.8125 -172.800781 113.78125 -169.46875 C 122.75 -166.132812 130.445312 -161.421875 136.875 -155.328125 C 143.3125 -149.234375 148.253906 -141.992188 151.703125 -133.609375 C 155.148438 -125.222656 156.875 -115.859375 156.875 -105.515625 L 156.875 0 L 135.5 0 Z M 135.5 -75.171875 C 128.601562 -79.304688 121.078125 -82.691406 112.921875 -85.328125 C 104.765625 -87.972656 95.515625 -89.296875 85.171875 -89.296875 C 77.578125 -89.296875 70.617188 -88.375 64.296875 -86.53125 C 57.984375 -84.695312 52.46875 -82.113281 47.75 -78.78125 C 43.039062 -75.445312 39.363281 -71.367188 36.71875 -66.546875 C 34.070312 -61.722656 32.75 -56.320312 32.75 -50.34375 C 32.75 -44.820312 33.957031 -39.820312 36.375 -35.34375 C 38.789062 -30.863281 42.066406 -27.070312 46.203125 -23.96875 C 50.335938 -20.863281 54.988281 -18.445312 60.15625 -16.71875 C 65.332031 -15 70.679688 -14.140625 76.203125 -14.140625 C 83.785156 -14.140625 91.140625 -15.75 98.265625 -18.96875 C 105.390625 -22.1875 111.707031 -26.609375 117.21875 -32.234375 C 122.738281 -37.867188 127.164062 -44.363281 130.5 -51.71875 C 133.832031 -59.070312 135.5 -66.890625 135.5 -75.171875 Z M 135.5 -75.171875 "/></g></g></g><g fill="#000000" fill-opacity="1"><g transform="translate(1564.752397, 282.789148)"><g><path d="M 20.6875 0 L 20.6875 -168.953125 L 41.375 -168.953125 L 41.375 -139.296875 L 42.75 -139.296875 C 44.363281 -144.359375 46.953125 -149.015625 50.515625 -153.265625 C 54.078125 -157.515625 58.097656 -161.191406 62.578125 -164.296875 C 67.054688 -167.398438 71.765625 -169.753906 76.703125 -171.359375 C 81.648438 -172.972656 86.425781 -173.78125 91.03125 -173.78125 C 96.3125 -173.78125 100.675781 -173.429688 104.125 -172.734375 C 107.570312 -172.046875 110.90625 -170.898438 114.125 -169.296875 L 107.234375 -148.609375 C 102.628906 -150.910156 96.304688 -152.0625 88.265625 -152.0625 C 82.285156 -152.0625 76.535156 -150.625 71.015625 -147.75 C 65.503906 -144.875 60.679688 -140.90625 56.546875 -135.84375 C 52.410156 -130.789062 49.078125 -124.757812 46.546875 -117.75 C 44.015625 -110.738281 42.75 -103.09375 42.75 -94.8125 L 42.75 0 Z M 20.6875 0 "/></g></g></g><g clip-path="url(#5562ab78d1)"><path fill="#34a853" d="M 1809.921875 258.800781 C 1809.921875 259.847656 1809.871094 260.886719 1809.765625 261.925781 C 1809.664062 262.964844 1809.511719 263.996094 1809.308594 265.019531 C 1809.105469 266.042969 1808.851562 267.054688 1808.546875 268.054688 C 1808.246094 269.054688 1807.894531 270.035156 1807.496094 271 C 1807.09375 271.964844 1806.648438 272.90625 1806.15625 273.828125 C 1805.664062 274.75 1805.128906 275.644531 1804.546875 276.511719 C 1803.96875 277.378906 1803.347656 278.21875 1802.683594 279.023438 C 1802.023438 279.832031 1801.324219 280.601562 1800.585938 281.339844 C 1799.847656 282.078125 1799.074219 282.78125 1798.265625 283.441406 C 1797.460938 284.105469 1796.621094 284.726562 1795.753906 285.304688 C 1794.886719 285.886719 1793.992188 286.421875 1793.070312 286.914062 C 1792.152344 287.40625 1791.207031 287.851562 1790.242188 288.25 C 1789.277344 288.652344 1788.296875 289.003906 1787.296875 289.304688 C 1786.300781 289.609375 1785.289062 289.863281 1784.265625 290.066406 C 1783.242188 290.269531 1782.207031 290.421875 1781.171875 290.523438 C 1780.132812 290.625 1779.089844 290.675781 1778.046875 290.675781 C 1777 290.675781 1775.960938 290.625 1774.921875 290.523438 C 1773.882812 290.421875 1772.851562 290.269531 1771.828125 290.066406 C 1770.804688 289.863281 1769.792969 289.609375 1768.792969 289.304688 C 1767.792969 289.003906 1766.8125 288.652344 1765.847656 288.25 C 1764.882812 287.851562 1763.941406 287.40625 1763.019531 286.914062 C 1762.097656 286.421875 1761.203125 285.886719 1760.335938 285.304688 C 1759.46875 284.726562 1758.632812 284.105469 1757.824219 283.441406 C 1757.015625 282.78125 1756.246094 282.078125 1755.507812 281.339844 C 1754.769531 280.601562 1754.066406 279.832031 1753.40625 279.023438 C 1752.742188 278.21875 1752.121094 277.378906 1751.542969 276.511719 C 1750.960938 275.644531 1750.425781 274.75 1749.933594 273.828125 C 1749.441406 272.90625 1748.996094 271.964844 1748.597656 271 C 1748.199219 270.035156 1747.847656 269.054688 1747.542969 268.054688 C 1747.238281 267.054688 1746.988281 266.042969 1746.78125 265.019531 C 1746.578125 263.996094 1746.425781 262.964844 1746.324219 261.925781 C 1746.222656 260.886719 1746.171875 259.847656 1746.171875 258.800781 C 1746.171875 257.757812 1746.222656 256.71875 1746.324219 255.679688 C 1746.425781 254.640625 1746.578125 253.609375 1746.78125 252.585938 C 1746.988281 251.558594 1747.238281 250.546875 1747.542969 249.550781 C 1747.847656 248.550781 1748.199219 247.570312 1748.597656 246.605469 C 1748.996094 245.640625 1749.441406 244.699219 1749.933594 243.777344 C 1750.425781 242.855469 1750.960938 241.960938 1751.542969 241.09375 C 1752.121094 240.226562 1752.742188 239.386719 1753.40625 238.582031 C 1754.066406 237.773438 1754.769531 237 1755.507812 236.261719 C 1756.246094 235.523438 1757.015625 234.824219 1757.824219 234.164062 C 1758.632812 233.5 1759.46875 232.878906 1760.335938 232.300781 C 1761.203125 231.71875 1762.097656 231.183594 1763.019531 230.691406 C 1763.941406 230.199219 1764.882812 229.753906 1765.847656 229.355469 C 1766.8125 228.953125 1767.792969 228.601562 1768.792969 228.300781 C 1769.792969 227.996094 1770.804688 227.742188 1771.828125 227.539062 C 1772.851562 227.335938 1773.882812 227.183594 1774.921875 227.082031 C 1775.960938 226.980469 1777 226.925781 1778.046875 226.925781 C 1779.089844 226.925781 1780.132812 226.980469 1781.171875 227.082031 C 1782.207031 227.183594 1783.242188 227.335938 1784.265625 227.539062 C 1785.289062 227.742188 1786.300781 227.996094 1787.296875 228.300781 C 1788.296875 228.601562 1789.277344 228.953125 1790.242188 229.355469 C 1791.207031 229.753906 1792.152344 230.199219 1793.070312 230.691406 C 1793.992188 231.183594 1794.886719 231.71875 1795.753906 232.300781 C 1796.621094 232.878906 1797.460938 233.5 1798.265625 234.164062 C 1799.074219 234.824219 1799.847656 235.523438 1800.585938 236.261719 C 1801.324219 237 1802.023438 237.773438 1802.683594 238.582031 C 1803.347656 239.386719 1803.96875 240.226562 1804.546875 241.09375 C 1805.128906 241.960938 1805.664062 242.855469 1806.15625 243.777344 C 1806.648438 244.699219 1807.09375 245.640625 1807.496094 246.605469 C 1807.894531 247.570312 1808.246094 248.550781 1808.546875 249.550781 C 1808.851562 250.546875 1809.105469 251.558594 1809.308594 252.585938 C 1809.511719 253.609375 1809.664062 254.640625 1809.765625 255.679688 C 1809.871094 256.71875 1809.921875 257.757812 1809.921875 258.800781 Z M 1809.921875 258.800781 " fill-opacity="1" fill-rule="nonzero"/></g><g clip-path="url(#953180167b)"><path fill="#ea4335" d="M 1907.804688 258.800781 C 1907.804688 259.847656 1907.753906 260.886719 1907.648438 261.925781 C 1907.546875 262.964844 1907.394531 263.996094 1907.191406 265.019531 C 1906.988281 266.042969 1906.734375 267.054688 1906.429688 268.054688 C 1906.128906 269.054688 1905.777344 270.035156 1905.378906 271 C 1904.976562 271.964844 1904.53125 272.90625 1904.039062 273.828125 C 1903.546875 274.75 1903.011719 275.644531 1902.429688 276.511719 C 1901.851562 277.378906 1901.230469 278.21875 1900.566406 279.023438 C 1899.90625 279.832031 1899.207031 280.601562 1898.46875 281.339844 C 1897.730469 282.078125 1896.957031 282.78125 1896.148438 283.441406 C 1895.34375 284.105469 1894.503906 284.726562 1893.636719 285.304688 C 1892.769531 285.886719 1891.875 286.421875 1890.953125 286.914062 C 1890.035156 287.40625 1889.089844 287.851562 1888.125 288.25 C 1887.160156 288.652344 1886.179688 289.003906 1885.179688 289.304688 C 1884.183594 289.609375 1883.171875 289.863281 1882.148438 290.066406 C 1881.121094 290.269531 1880.089844 290.421875 1879.050781 290.523438 C 1878.015625 290.625 1876.972656 290.675781 1875.929688 290.675781 C 1874.882812 290.675781 1873.84375 290.625 1872.804688 290.523438 C 1871.765625 290.421875 1870.734375 290.269531 1869.710938 290.066406 C 1868.6875 289.863281 1867.675781 289.609375 1866.675781 289.304688 C 1865.675781 289.003906 1864.695312 288.652344 1863.730469 288.25 C 1862.765625 287.851562 1861.824219 287.40625 1860.902344 286.914062 C 1859.980469 286.421875 1859.085938 285.886719 1858.21875 285.304688 C 1857.351562 284.726562 1856.515625 284.105469 1855.707031 283.441406 C 1854.898438 282.78125 1854.128906 282.078125 1853.390625 281.339844 C 1852.652344 280.601562 1851.949219 279.832031 1851.289062 279.023438 C 1850.625 278.21875 1850.003906 277.378906 1849.425781 276.511719 C 1848.84375 275.644531 1848.308594 274.75 1847.816406 273.828125 C 1847.324219 272.90625 1846.878906 271.964844 1846.480469 271 C 1846.082031 270.035156 1845.730469 269.054688 1845.425781 268.054688 C 1845.121094 267.054688 1844.871094 266.042969 1844.664062 265.019531 C 1844.460938 263.996094 1844.308594 262.964844 1844.207031 261.925781 C 1844.105469 260.886719 1844.054688 259.847656 1844.054688 258.800781 C 1844.054688 257.757812 1844.105469 256.71875 1844.207031 255.679688 C 1844.308594 254.640625 1844.460938 253.609375 1844.664062 252.585938 C 1844.871094 251.558594 1845.121094 250.546875 1845.425781 249.550781 C 1845.730469 248.550781 1846.082031 247.570312 1846.480469 246.605469 C 1846.878906 245.640625 1847.324219 244.699219 1847.816406 243.777344 C 1848.308594 242.855469 1848.84375 241.960938 1849.425781 241.09375 C 1850.003906 240.226562 1850.625 239.386719 1851.289062 238.582031 C 1851.949219 237.773438 1852.652344 237 1853.390625 236.261719 C 1854.128906 235.523438 1854.898438 234.824219 1855.707031 234.164062 C 1856.515625 233.5 1857.351562 232.878906 1858.21875 232.300781 C 1859.085938 231.71875 1859.980469 231.183594 1860.902344 230.691406 C 1861.824219 230.199219 1862.765625 229.753906 1863.730469 229.355469 C 1864.695312 228.953125 1865.675781 228.601562 1866.675781 228.300781 C 1867.675781 227.996094 1868.6875 227.742188 1869.710938 227.539062 C 1870.734375 227.335938 1871.765625 227.183594 1872.804688 227.082031 C 1873.84375 226.980469 1874.882812 226.925781 1875.929688 226.925781 C 1876.972656 226.925781 1878.015625 226.980469 1879.050781 227.082031 C 1880.089844 227.183594 1881.121094 227.335938 1882.148438 227.539062 C 1883.171875 227.742188 1884.183594 227.996094 1885.179688 228.300781 C 1886.179688 228.601562 1887.160156 228.953125 1888.125 229.355469 C 1889.089844 229.753906 1890.035156 230.199219 1890.953125 230.691406 C 1891.875 231.183594 1892.769531 231.71875 1893.636719 232.300781 C 1894.503906 232.878906 1895.34375 233.5 1896.148438 234.164062 C 1896.957031 234.824219 1897.730469 235.523438 1898.46875 236.261719 C 1899.207031 237 1899.90625 237.773438 1900.566406 238.582031 C 1901.230469 239.386719 1901.851562 240.226562 1902.429688 241.09375 C 1903.011719 241.960938 1903.546875 242.855469 1904.039062 243.777344 C 1904.53125 244.699219 1904.976562 245.640625 1905.378906 246.605469 C 1905.777344 247.570312 1906.128906 248.550781 1906.429688 249.550781 C 1906.734375 250.546875 1906.988281 251.558594 1907.191406 252.585938 C 1907.394531 253.609375 1907.546875 254.640625 1907.648438 255.679688 C 1907.753906 256.71875 1907.804688 257.757812 1907.804688 258.800781 Z M 1907.804688 258.800781 " fill-opacity="1" fill-rule="nonzero"/></g></svg>