<svg xmlns="http://www.w3.org/2000/svg" xmlns:xlink="http://www.w3.org/1999/xlink" width="150" zoomAndPan="magnify" viewBox="0 0 112.5 112.499997" height="150" preserveAspectRatio="xMidYMid meet" version="1.0"><defs><clipPath id="id1"><path d="M 23.371094 9 L 89 9 L 89 107 L 23.371094 107 Z M 23.371094 9 " clip-rule="nonzero"/></clipPath><clipPath id="id2"><path d="M 23.371094 8 L 92 8 L 92 108 L 23.371094 108 Z M 23.371094 8 " clip-rule="nonzero"/></clipPath></defs><g clip-path="url(#id1)"><path fill="#ffe052" d="M 60.1875 91.316406 C 61.390625 92.976562 63.890625 97.789062 60.167969 102.59375 C 55.730469 108.324219 43.554688 107.515625 43.5625 95.902344 L 43.5625 93.679688 C 47.171875 85.484375 56.847656 86.042969 60.1875 91.316406 Z M 81.617188 19.5 C 68.25 5.210938 33.410156 4.304688 25.285156 29.644531 C 23.425781 35.449219 23.472656 41.8125 23.472656 41.8125 L 39.160156 41.582031 C 40.257812 31.453125 45.605469 24.554688 56.566406 26.15625 C 62.9375 27.089844 68.46875 32.140625 65.960938 38.542969 C 63.554688 44.691406 56.234375 43 49.011719 51.90625 C 42.730469 59.648438 44.660156 76 44.847656 81.332031 L 59.238281 81.71875 C 59.417969 77.449219 60.046875 70.511719 61.585938 65.070312 C 63.496094 58.296875 71.816406 55.59375 77.214844 53.121094 C 89.578125 47.449219 93.121094 31.804688 81.617188 19.5 Z M 81.617188 19.5 " fill-opacity="1" fill-rule="nonzero"/></g><g clip-path="url(#id2)"><path fill="#141313" d="M 63.277344 93.574219 C 63.765625 95.027344 64.023438 96.613281 63.898438 98.21875 C 63.785156 99.824219 63.257812 101.40625 62.464844 102.769531 L 62.15625 103.269531 L 61.824219 103.753906 C 61.710938 103.910156 61.570312 104.074219 61.445312 104.234375 L 61.25 104.476562 C 61.179688 104.554688 61.109375 104.625 61.035156 104.699219 C 60.480469 105.3125 59.835938 105.816406 59.160156 106.261719 L 58.644531 106.578125 C 58.46875 106.671875 58.289062 106.761719 58.109375 106.851562 C 58.019531 106.894531 57.929688 106.941406 57.839844 106.984375 L 57.5625 107.097656 C 57.378906 107.171875 57.195312 107.253906 57.007812 107.316406 C 56.257812 107.578125 55.484375 107.75 54.707031 107.84375 C 52.910156 108.03125 51.082031 107.949219 49.335938 107.394531 C 48.464844 107.121094 47.613281 106.75 46.847656 106.234375 C 46.078125 105.722656 45.378906 105.101562 44.808594 104.386719 C 44.546875 104.042969 44.191406 103.597656 43.847656 103.03125 C 43.753906 102.890625 43.671875 102.742188 43.589844 102.585938 C 43.507812 102.429688 43.425781 102.269531 43.339844 102.105469 C 43.253906 101.941406 43.191406 101.765625 43.113281 101.585938 C 43.042969 101.410156 42.960938 101.230469 42.902344 101.042969 C 42.84375 100.851562 42.785156 100.664062 42.726562 100.46875 C 42.699219 100.371094 42.667969 100.273438 42.644531 100.175781 C 42.621094 100.078125 42.601562 99.976562 42.582031 99.875 C 42.542969 99.675781 42.503906 99.476562 42.464844 99.273438 C 42.433594 99.070312 42.417969 98.863281 42.398438 98.660156 C 42.382812 98.453125 42.355469 98.25 42.355469 98.046875 C 42.355469 97.84375 42.359375 97.636719 42.363281 97.4375 C 42.363281 97.03125 42.425781 96.640625 42.484375 96.257812 C 42.507812 96.089844 42.472656 95.910156 42.890625 95.902344 C 43.339844 95.898438 43.507812 96.070312 43.542969 96.257812 C 43.609375 96.542969 43.652344 96.828125 43.730469 97.109375 C 43.804688 97.386719 43.867188 97.664062 43.914062 97.945312 C 44.101562 98.816406 44.355469 99.664062 44.714844 100.460938 C 45.082031 101.253906 45.558594 101.988281 46.128906 102.617188 C 47.269531 103.890625 48.824219 104.71875 50.460938 104.996094 C 52.183594 105.292969 53.972656 105.121094 55.570312 104.511719 C 56.367188 104.207031 57.113281 103.789062 57.757812 103.265625 L 58 103.070312 L 58.21875 102.859375 C 58.292969 102.785156 58.371094 102.71875 58.4375 102.644531 L 58.636719 102.414062 C 58.777344 102.269531 58.890625 102.101562 59.007812 101.941406 C 59.128906 101.785156 59.234375 101.597656 59.34375 101.421875 C 60.285156 99.835938 60.664062 98.125 60.410156 96.433594 C 60.285156 95.589844 60.019531 94.753906 59.632812 93.960938 C 59.441406 93.566406 59.21875 93.183594 58.976562 92.828125 C 58.914062 92.738281 58.851562 92.652344 58.789062 92.570312 L 58.5625 92.269531 L 58.359375 92.003906 C 58.292969 91.917969 58.226562 91.855469 58.160156 91.777344 C 57.371094 90.917969 56.3125 90.28125 55.15625 89.90625 C 53.996094 89.53125 52.746094 89.417969 51.535156 89.558594 C 51.019531 89.617188 50.304688 89.703125 49.527344 89.933594 C 48.75 90.15625 47.914062 90.523438 47.164062 91.003906 C 46.410156 91.484375 45.757812 92.074219 45.277344 92.582031 C 45.152344 92.703125 45.042969 92.824219 44.945312 92.9375 C 44.84375 93.046875 44.753906 93.148438 44.671875 93.234375 C 44.511719 93.410156 44.402344 93.542969 44.332031 93.59375 C 44.1875 93.703125 44.03125 93.9375 43.546875 93.667969 C 43.105469 93.421875 43.140625 93.113281 43.203125 92.898438 L 43.285156 92.609375 L 43.394531 92.328125 C 43.46875 92.140625 43.539062 91.949219 43.625 91.765625 C 43.804688 91.402344 43.988281 91.035156 44.21875 90.695312 C 45.507812 88.644531 47.660156 87.015625 50.117188 86.371094 C 52.566406 85.699219 55.253906 85.9375 57.601562 87.046875 C 58.269531 87.363281 58.917969 87.742188 59.519531 88.203125 C 60.117188 88.660156 60.683594 89.183594 61.171875 89.785156 C 61.289062 89.929688 61.390625 90.074219 61.5 90.21875 L 61.648438 90.421875 L 61.71875 90.511719 L 61.800781 90.625 C 62.015625 90.929688 62.210938 91.242188 62.394531 91.5625 C 62.753906 92.199219 63.054688 92.871094 63.277344 93.574219 Z M 90.617188 40.988281 C 90.355469 42.199219 89.945312 43.371094 89.472656 44.515625 L 89.09375 45.363281 C 88.964844 45.648438 88.808594 45.917969 88.667969 46.191406 C 88.390625 46.75 88.046875 47.265625 87.726562 47.796875 C 86.351562 49.863281 84.640625 51.714844 82.660156 53.191406 C 81.679688 53.949219 80.625 54.589844 79.546875 55.175781 C 79.007812 55.445312 78.433594 55.742188 77.933594 55.960938 C 77.421875 56.191406 76.914062 56.414062 76.417969 56.628906 C 74.425781 57.492188 72.519531 58.304688 70.765625 59.234375 C 70.023438 59.628906 69.160156 60.101562 68.28125 60.671875 C 67.839844 60.957031 67.394531 61.265625 66.96875 61.605469 C 66.539062 61.945312 66.117188 62.308594 65.734375 62.707031 C 64.964844 63.503906 64.308594 64.417969 63.886719 65.46875 L 63.804688 65.664062 C 63.777344 65.734375 63.75 65.824219 63.722656 65.902344 L 63.550781 66.394531 C 63.433594 66.722656 63.335938 67.058594 63.226562 67.390625 C 63.019531 68.058594 62.824219 68.730469 62.640625 69.398438 C 61.910156 72.074219 61.371094 74.675781 60.980469 76.703125 C 60.589844 78.726562 60.339844 80.183594 60.210938 80.621094 C 60.066406 81.089844 59.972656 81.882812 59.210938 81.699219 C 59.089844 81.667969 58.988281 81.621094 58.898438 81.558594 C 58.765625 81.625 58.605469 81.65625 58.441406 81.664062 C 57.152344 81.742188 55.859375 81.832031 54.570312 81.832031 L 49.695312 81.828125 L 47.261719 81.824219 L 45.855469 81.816406 L 45.121094 81.808594 L 44.746094 81.808594 L 44.5625 81.804688 L 44.421875 81.804688 C 44.40625 81.804688 44.382812 81.8125 44.382812 81.796875 C 44.339844 81.074219 44.285156 80.335938 44.226562 79.589844 L 44.070312 77.699219 C 43.96875 76.480469 43.878906 75.253906 43.804688 74.03125 C 43.664062 71.578125 43.585938 69.113281 43.660156 66.636719 C 43.726562 64.457031 43.921875 62.269531 44.332031 60.09375 C 44.546875 59.007812 44.796875 57.921875 45.140625 56.847656 C 45.484375 55.777344 45.898438 54.71875 46.414062 53.691406 L 46.824219 52.929688 C 46.964844 52.679688 47.128906 52.4375 47.28125 52.1875 C 47.425781 51.9375 47.609375 51.703125 47.777344 51.464844 L 48.039062 51.109375 L 48.300781 50.785156 C 48.996094 49.90625 49.753906 49.070312 50.5625 48.277344 C 52.167969 46.691406 54.015625 45.316406 55.949219 44.175781 C 57.007812 43.539062 58.089844 42.984375 59.128906 42.445312 C 59.644531 42.175781 60.148438 41.910156 60.628906 41.636719 C 61.101562 41.367188 61.554688 41.085938 61.960938 40.792969 C 62.773438 40.203125 63.386719 39.5625 63.816406 38.785156 C 63.878906 38.695312 63.917969 38.585938 63.972656 38.488281 C 64.019531 38.386719 64.074219 38.289062 64.113281 38.179688 L 64.242188 37.859375 L 64.351562 37.519531 C 64.488281 37.066406 64.597656 36.613281 64.632812 36.164062 C 64.675781 35.714844 64.679688 35.273438 64.621094 34.839844 C 64.558594 34.410156 64.453125 33.988281 64.296875 33.578125 C 63.984375 32.761719 63.464844 32 62.808594 31.328125 C 61.480469 29.980469 59.613281 29.035156 57.65625 28.570312 C 57.292969 28.484375 56.925781 28.410156 56.558594 28.359375 L 56.28125 28.316406 C 56.1875 28.304688 56.085938 28.296875 55.988281 28.285156 L 55.398438 28.226562 C 54.617188 28.171875 53.835938 28.132812 53.078125 28.179688 C 51.554688 28.242188 50.105469 28.554688 48.800781 29.105469 C 47.503906 29.675781 46.359375 30.5 45.394531 31.554688 C 44.441406 32.621094 43.644531 33.894531 43.039062 35.304688 C 42.71875 36.042969 42.347656 36.980469 42.015625 38.082031 C 41.925781 38.355469 41.847656 38.640625 41.769531 38.933594 C 41.683594 39.226562 41.617188 39.53125 41.539062 39.839844 L 41.511719 39.957031 L 41.496094 40.015625 L 41.488281 40.042969 C 41.488281 40.039062 41.480469 40.105469 41.472656 40.128906 C 41.449219 40.289062 41.421875 40.453125 41.394531 40.617188 C 41.339844 40.941406 41.285156 41.265625 41.230469 41.59375 C 41.128906 42.238281 41.027344 42.886719 40.925781 43.546875 C 40.175781 43.53125 39.421875 43.519531 38.660156 43.503906 C 38.289062 43.496094 37.917969 43.488281 37.546875 43.480469 L 37.269531 43.476562 L 37.15625 43.472656 L 37.082031 43.46875 L 36.777344 43.453125 C 35.957031 43.410156 35.140625 43.363281 34.335938 43.320312 C 32.726562 43.226562 31.171875 43.125 29.785156 43.03125 C 27.015625 42.835938 24.914062 42.648438 24.410156 42.539062 C 24.023438 42.453125 23.375 42.414062 23.488281 41.789062 C 23.515625 41.632812 23.585938 41.511719 23.675781 41.417969 C 23.585938 41.25 23.542969 41.042969 23.53125 40.828125 C 23.449219 39.234375 23.433594 37.617188 23.597656 36.019531 C 23.871094 33.503906 24.335938 30.988281 25.140625 28.554688 C 25.542969 27.34375 26.011719 26.148438 26.5625 24.988281 C 27.121094 23.832031 27.753906 22.710938 28.460938 21.632812 C 29.871094 19.472656 31.617188 17.523438 33.582031 15.828125 C 35.546875 14.128906 37.757812 12.71875 40.09375 11.566406 C 42.5625 10.355469 45.1875 9.472656 47.878906 8.898438 C 50.566406 8.324219 53.316406 8.046875 56.066406 8.023438 C 58.816406 8.003906 61.570312 8.246094 64.285156 8.734375 C 67 9.226562 69.683594 9.960938 72.289062 10.960938 C 75.148438 12.066406 77.914062 13.53125 80.410156 15.457031 C 80.722656 15.699219 81.035156 15.9375 81.332031 16.199219 L 81.785156 16.582031 L 82.226562 16.984375 C 82.523438 17.246094 82.804688 17.53125 83.089844 17.8125 C 83.375 18.09375 83.625 18.382812 83.898438 18.667969 C 84.441406 19.230469 84.925781 19.851562 85.433594 20.453125 C 85.902344 21.085938 86.390625 21.703125 86.820312 22.375 C 87.273438 23.023438 87.664062 23.71875 88.066406 24.410156 L 88.621094 25.472656 C 88.804688 25.828125 88.957031 26.203125 89.125 26.566406 C 89.769531 28.039062 90.285156 29.582031 90.636719 31.175781 C 91.335938 34.359375 91.363281 37.742188 90.617188 40.988281 Z M 85.199219 29.875 C 84.160156 26.777344 82.316406 23.917969 79.988281 21.492188 C 77.738281 19.105469 74.902344 17.261719 71.839844 15.855469 C 70.300781 15.164062 68.714844 14.566406 67.082031 14.089844 C 66.269531 13.84375 65.441406 13.640625 64.617188 13.441406 C 63.785156 13.261719 62.953125 13.082031 62.109375 12.949219 C 58.75 12.382812 55.320312 12.207031 51.917969 12.40625 C 47.980469 12.640625 44.101562 13.636719 40.617188 15.34375 C 37.125 17.042969 34.050781 19.453125 31.582031 22.417969 C 31 23.117188 30.277344 24.101562 29.566406 25.339844 C 28.847656 26.578125 28.140625 28.066406 27.53125 29.730469 C 27.210938 30.558594 26.953125 31.429688 26.6875 32.335938 C 26.441406 33.246094 26.203125 34.183594 26.003906 35.144531 C 25.59375 37.058594 25.265625 39.039062 25.003906 40.941406 C 25 40.96875 24.996094 40.992188 24.992188 41.019531 C 26.574219 40.859375 28.160156 40.742188 29.746094 40.652344 C 31.3125 40.558594 32.882812 40.476562 34.453125 40.402344 L 36.804688 40.292969 L 37.097656 40.277344 C 37.160156 40.277344 37.160156 40.277344 37.1875 40.273438 L 37.25 40.269531 L 37.492188 40.25 C 37.648438 40.230469 37.8125 40.230469 37.949219 40.203125 C 37.960938 40.019531 37.96875 39.84375 37.984375 39.675781 L 38.011719 39.421875 L 38.117188 38.757812 C 38.273438 37.875 38.457031 36.988281 38.707031 36.113281 C 39.195312 34.359375 39.898438 32.632812 40.886719 31.019531 C 41.886719 29.421875 43.175781 27.933594 44.78125 26.8125 C 45.578125 26.246094 46.433594 25.769531 47.328125 25.386719 C 48.222656 25 49.15625 24.730469 50.09375 24.527344 C 51.65625 24.207031 53.234375 24.097656 54.78125 24.167969 C 55.164062 24.191406 55.550781 24.203125 55.933594 24.242188 L 56.503906 24.300781 C 56.695312 24.320312 56.886719 24.339844 57.085938 24.375 C 57.878906 24.488281 58.664062 24.652344 59.433594 24.878906 C 60.96875 25.335938 62.457031 26.019531 63.816406 26.96875 C 65.164062 27.914062 66.394531 29.148438 67.261719 30.6875 C 67.714844 31.480469 68.066406 32.347656 68.289062 33.257812 C 68.507812 34.167969 68.59375 35.113281 68.539062 36.039062 C 68.488281 36.96875 68.308594 37.871094 68.035156 38.722656 C 67.769531 39.5625 67.386719 40.433594 66.863281 41.226562 C 66.34375 42.023438 65.6875 42.730469 64.992188 43.316406 C 64.292969 43.90625 63.566406 44.378906 62.859375 44.789062 C 61.4375 45.609375 60.097656 46.21875 58.855469 46.886719 C 57.609375 47.546875 56.449219 48.242188 55.367188 49.035156 C 54.28125 49.820312 53.28125 50.703125 52.34375 51.667969 C 52.105469 51.902344 51.878906 52.15625 51.652344 52.40625 C 51.421875 52.648438 51.207031 52.914062 50.988281 53.171875 L 50.820312 53.363281 L 50.683594 53.546875 L 50.402344 53.90625 C 50.222656 54.15625 50.054688 54.417969 49.882812 54.675781 C 49.21875 55.746094 48.671875 56.945312 48.210938 58.210938 C 47.675781 59.671875 47.304688 61.238281 47.046875 62.839844 C 46.785156 64.441406 46.628906 66.078125 46.542969 67.726562 C 46.367188 71.035156 46.453125 74.375 46.519531 77.765625 C 46.527344 77.980469 46.53125 78.214844 46.539062 78.46875 C 46.542969 78.59375 46.546875 78.726562 46.554688 78.863281 C 46.554688 78.929688 46.558594 79 46.5625 79.070312 C 46.5625 79.09375 46.5625 79.089844 46.5625 79.09375 L 46.5625 79.128906 C 46.558594 79.265625 46.558594 79.414062 46.554688 79.578125 C 46.652344 79.589844 46.765625 79.59375 46.882812 79.605469 L 46.972656 79.613281 L 47.019531 79.617188 L 47.042969 79.621094 L 47.125 79.625 C 47.386719 79.636719 47.65625 79.648438 47.929688 79.660156 C 49.015625 79.707031 50.167969 79.765625 51.351562 79.835938 C 53.675781 79.976562 56.113281 80.171875 58.414062 80.460938 C 58.40625 80.355469 58.398438 80.253906 58.394531 80.15625 C 58.332031 78.039062 58.402344 75.917969 58.574219 73.796875 C 58.699219 72.234375 58.875 70.671875 59.109375 69.109375 L 59.300781 67.9375 L 59.515625 66.765625 C 59.597656 66.375 59.675781 65.984375 59.765625 65.59375 L 59.902344 65.007812 C 59.953125 64.8125 59.988281 64.625 60.058594 64.402344 C 60.296875 63.535156 60.632812 62.691406 61.066406 61.90625 C 61.492188 61.117188 62.003906 60.386719 62.570312 59.714844 C 63.703125 58.371094 65.027344 57.265625 66.402344 56.335938 C 69.160156 54.464844 72.117188 53.191406 74.90625 51.933594 C 76.332031 51.296875 77.539062 50.703125 78.703125 49.929688 C 79.859375 49.164062 80.921875 48.273438 81.855469 47.269531 C 83.988281 44.980469 85.414062 42.097656 85.933594 39.058594 C 86.46875 36.015625 86.171875 32.859375 85.199219 29.875 Z M 85.199219 29.875 " fill-opacity="1" fill-rule="nonzero"/></g></svg>