<svg width="223" height="197" viewBox="0 0 223 197" fill="none" xmlns="http://www.w3.org/2000/svg">
<path d="M103.56 125V115.512H106.952V114.328H98.8558V115.512H102.232V125H103.56ZM113.143 125.192C116.295 125.192 118.455 122.824 118.455 119.672C118.455 116.52 116.295 114.152 113.143 114.152C109.991 114.152 107.847 116.52 107.847 119.672C107.847 122.824 109.991 125.192 113.143 125.192ZM113.143 124.008C110.743 124.008 109.223 122.152 109.223 119.672C109.223 117.176 110.743 115.336 113.143 115.336C115.527 115.336 117.079 117.176 117.079 119.672C117.079 122.152 115.527 124.008 113.143 124.008ZM121.842 125V120.76H124.802C126.93 120.76 128.146 119.288 128.146 117.544C128.146 115.8 126.946 114.328 124.802 114.328H120.514V125H121.842ZM124.642 119.576H121.842V115.512H124.642C125.906 115.512 126.77 116.344 126.77 117.544C126.77 118.744 125.906 119.576 124.642 119.576ZM79.8933 140C81.8453 140 82.9813 138.832 82.9813 137.12C82.9813 135.84 82.0373 134.672 80.9013 134.496C81.8773 134.288 82.7733 133.392 82.7733 132.048C82.7733 130.448 81.6373 129.328 79.7813 129.328H75.0293V140H79.8933ZM79.5573 133.952H76.3573V130.512H79.5573C80.7573 130.512 81.3973 131.28 81.3973 132.24C81.3973 133.216 80.7573 133.952 79.5573 133.952ZM79.6373 138.816H76.3573V135.136H79.6373C80.9333 135.136 81.6053 136 81.6053 136.976C81.6053 138.112 80.8693 138.816 79.6373 138.816ZM92.8358 140L89.9558 135.648C91.4118 135.52 92.7398 134.464 92.7398 132.544C92.7398 130.576 91.3318 129.328 89.3798 129.328H85.0918V140H86.4198V135.76H88.5638L91.2678 140H92.8358ZM89.2198 134.592H86.4198V130.512H89.2198C90.4838 130.512 91.3638 131.328 91.3638 132.544C91.3638 133.744 90.4838 134.592 89.2198 134.592ZM103.978 140L99.6898 129.328H98.0418L93.7378 140H95.2578L96.2018 137.616H101.514L102.458 140H103.978ZM101.13 136.448H96.6018L98.8578 130.688L101.13 136.448ZM114.205 140V129.328H112.877V137.664L106.733 129.328H105.373V140H106.701V131.488L112.925 140H114.205ZM120.349 140C123.677 140 125.821 137.712 125.821 134.672C125.821 131.648 123.677 129.328 120.349 129.328H116.701V140H120.349ZM120.349 138.816H118.029V130.512H120.349C122.989 130.512 124.445 132.368 124.445 134.672C124.445 136.96 122.941 138.816 120.349 138.816ZM129.232 140V129.328H127.904V140H129.232ZM140.564 140V129.328H139.236V137.664L133.092 129.328H131.732V140H133.06V131.488L139.284 140H140.564ZM148.117 140.208C149.861 140.208 151.317 139.472 152.309 138.352V134.512H147.317V135.696H150.997V137.856C150.453 138.4 149.397 139.008 148.117 139.008C145.781 139.008 144.005 137.2 144.005 134.672C144.005 132.112 145.781 130.336 148.117 130.336C149.397 130.336 150.533 130.944 151.205 131.808L152.261 131.136C151.333 129.984 150.021 129.152 148.117 129.152C145.077 129.152 142.629 131.344 142.629 134.672C142.629 137.984 145.077 140.208 148.117 140.208ZM75.6478 155.192C77.5358 155.192 78.8158 154.296 79.7118 153.064L78.5918 152.456C77.9838 153.352 76.8638 154.008 75.6478 154.008C73.3118 154.008 71.5358 152.2 71.5358 149.672C71.5358 147.112 73.3118 145.336 75.6478 145.336C76.8638 145.336 77.9838 145.976 78.5918 146.888L79.6958 146.264C78.8478 145.048 77.5358 144.152 75.6478 144.152C72.5758 144.152 70.1598 146.392 70.1598 149.672C70.1598 152.952 72.5758 155.192 75.6478 155.192ZM86.2683 155.192C89.4203 155.192 91.5803 152.824 91.5803 149.672C91.5803 146.52 89.4203 144.152 86.2683 144.152C83.1163 144.152 80.9723 146.52 80.9723 149.672C80.9723 152.824 83.1163 155.192 86.2683 155.192ZM86.2683 154.008C83.8683 154.008 82.3483 152.152 82.3483 149.672C82.3483 147.176 83.8683 145.336 86.2683 145.336C88.6523 145.336 90.2043 147.176 90.2043 149.672C90.2043 152.152 88.6523 154.008 86.2683 154.008ZM104.087 155V144.328H102.183L98.8706 152.552L95.5426 144.328H93.6386V155H94.9666V146.024L98.5986 155H99.1426L102.759 146.024V155H104.087ZM107.904 155V150.76H110.864C112.992 150.76 114.208 149.288 114.208 147.544C114.208 145.8 113.008 144.328 110.864 144.328H106.576V155H107.904ZM110.704 149.576H107.904V145.512H110.704C111.968 145.512 112.832 146.344 112.832 147.544C112.832 148.744 111.968 149.576 110.704 149.576ZM123.868 155L119.58 144.328H117.932L113.628 155H115.148L116.092 152.616H121.404L122.348 155H123.868ZM121.02 151.448H116.492L118.748 145.688L121.02 151.448ZM134.096 155V144.328H132.768V152.664L126.624 144.328H125.264V155H126.592V146.488L132.816 155H134.096ZM137.92 155V144.328H136.592V155H137.92ZM147.412 155V153.816H141.748V150.136H147.3V148.952H141.748V145.512H147.412V144.328H140.42V155H147.412ZM152.985 155.192C155.865 155.192 156.921 153.592 156.921 152.056C156.921 148.072 150.601 149.448 150.601 147.048C150.601 146.04 151.529 145.352 152.793 145.352C153.961 145.352 155.081 145.736 155.881 146.632L156.681 145.656C155.785 144.712 154.521 144.152 152.905 144.152C150.793 144.152 149.225 145.368 149.225 147.128C149.225 150.936 155.545 149.4 155.545 152.152C155.545 152.984 154.937 154.008 153.033 154.008C151.529 154.008 150.377 153.272 149.689 152.472L148.889 153.496C149.769 154.488 151.145 155.192 152.985 155.192Z" fill="black"/>
<path d="M103.56 125V125.25H103.81V125H103.56ZM103.56 115.512V115.262H103.31V115.512H103.56ZM106.952 115.512V115.762H107.202V115.512H106.952ZM106.952 114.328H107.202V114.078H106.952V114.328ZM98.8557 114.328V114.078H98.6057V114.328H98.8557ZM98.8557 115.512H98.6057V115.762H98.8557V115.512ZM102.232 115.512H102.482V115.262H102.232V115.512ZM102.232 125H101.982V125.25H102.232V125ZM103.81 125V115.512H103.31V125H103.81ZM103.56 115.762H106.952V115.262H103.56V115.762ZM107.202 115.512V114.328H106.702V115.512H107.202ZM106.952 114.078H98.8557V114.578H106.952V114.078ZM98.6057 114.328V115.512H99.1057V114.328H98.6057ZM98.8557 115.762H102.232V115.262H98.8557V115.762ZM101.982 115.512V125H102.482V115.512H101.982ZM102.232 125.25H103.56V124.75H102.232V125.25ZM113.143 125.442C116.446 125.442 118.705 122.949 118.705 119.672H118.205C118.205 122.699 116.145 124.942 113.143 124.942V125.442ZM118.705 119.672C118.705 116.395 116.446 113.902 113.143 113.902V114.402C116.145 114.402 118.205 116.645 118.205 119.672H118.705ZM113.143 113.902C109.84 113.902 107.597 116.396 107.597 119.672H108.097C108.097 116.644 110.143 114.402 113.143 114.402V113.902ZM107.597 119.672C107.597 122.948 109.84 125.442 113.143 125.442V124.942C110.143 124.942 108.097 122.7 108.097 119.672H107.597ZM113.143 123.758C112.012 123.758 111.102 123.323 110.471 122.605C109.838 121.884 109.473 120.862 109.473 119.672H108.973C108.973 120.962 109.369 122.108 110.095 122.935C110.825 123.765 111.874 124.258 113.143 124.258V123.758ZM109.473 119.672C109.473 118.474 109.838 117.452 110.471 116.733C111.101 116.018 112.012 115.586 113.143 115.586V115.086C111.875 115.086 110.825 115.574 110.096 116.403C109.369 117.228 108.973 118.374 108.973 119.672H109.473ZM113.143 115.586C114.267 115.586 115.182 116.018 115.818 116.734C116.457 117.453 116.829 118.475 116.829 119.672H117.329C117.329 118.373 116.925 117.227 116.192 116.402C115.457 115.574 114.404 115.086 113.143 115.086V115.586ZM116.829 119.672C116.829 120.861 116.458 121.883 115.818 122.604C115.181 123.323 114.266 123.758 113.143 123.758V124.258C114.405 124.258 115.457 123.765 116.192 122.936C116.925 122.109 117.329 120.963 117.329 119.672H116.829ZM121.842 125V125.25H122.092V125H121.842ZM121.842 120.76V120.51H121.592V120.76H121.842ZM120.514 114.328V114.078H120.264V114.328H120.514ZM120.514 125H120.264V125.25H120.514V125ZM121.842 119.576H121.592V119.826H121.842V119.576ZM121.842 115.512V115.262H121.592V115.512H121.842ZM122.092 125V120.76H121.592V125H122.092ZM121.842 121.01H124.802V120.51H121.842V121.01ZM124.802 121.01C125.926 121.01 126.829 120.62 127.451 119.98C128.071 119.343 128.396 118.474 128.396 117.544H127.896C127.896 118.358 127.612 119.097 127.092 119.632C126.574 120.164 125.805 120.51 124.802 120.51V121.01ZM128.396 117.544C128.396 116.615 128.075 115.746 127.457 115.108C126.837 114.468 125.934 114.078 124.802 114.078V114.578C125.814 114.578 126.582 114.924 127.098 115.456C127.616 115.99 127.896 116.729 127.896 117.544H128.396ZM124.802 114.078H120.514V114.578H124.802V114.078ZM120.264 114.328V125H120.764V114.328H120.264ZM120.514 125.25H121.842V124.75H120.514V125.25ZM124.642 119.326H121.842V119.826H124.642V119.326ZM122.092 119.576V115.512H121.592V119.576H122.092ZM121.842 115.762H124.642V115.262H121.842V115.762ZM124.642 115.762C125.218 115.762 125.685 115.951 126.007 116.259C126.327 116.566 126.52 117.006 126.52 117.544H127.02C127.02 116.882 126.78 116.306 126.352 115.897C125.926 115.489 125.329 115.262 124.642 115.262V115.762ZM126.52 117.544C126.52 118.082 126.327 118.522 126.007 118.829C125.685 119.137 125.218 119.326 124.642 119.326V119.826C125.329 119.826 125.926 119.599 126.352 119.191C126.78 118.782 127.02 118.206 127.02 117.544H126.52ZM80.9013 134.496L80.8491 134.251L80.863 134.743L80.9013 134.496ZM75.0293 129.328V129.078H74.7793V129.328H75.0293ZM75.0293 140H74.7793V140.25H75.0293V140ZM76.3573 133.952H76.1073V134.202H76.3573V133.952ZM76.3573 130.512V130.262H76.1073V130.512H76.3573ZM76.3573 138.816H76.1073V139.066H76.3573V138.816ZM76.3573 135.136V134.886H76.1073V135.136H76.3573ZM79.8933 140.25C80.9192 140.25 81.7582 139.942 82.3422 139.382C82.9271 138.822 83.2313 138.033 83.2313 137.12H82.7313C82.7313 137.919 82.4674 138.57 81.9963 139.022C81.5243 139.474 80.8193 139.75 79.8933 139.75V140.25ZM83.2313 137.12C83.2313 135.733 82.2124 134.446 80.9395 134.249L80.863 134.743C81.8621 134.898 82.7313 135.947 82.7313 137.12H83.2313ZM80.9534 134.741C82.0401 134.509 83.0233 133.515 83.0233 132.048H82.5233C82.5233 133.269 81.7144 134.067 80.8491 134.251L80.9534 134.741ZM83.0233 132.048C83.0233 131.186 82.7159 130.437 82.1435 129.905C81.5726 129.374 80.7595 129.078 79.7812 129.078V129.578C80.659 129.578 81.3419 129.842 81.803 130.271C82.2626 130.699 82.5233 131.31 82.5233 132.048H83.0233ZM79.7812 129.078H75.0293V129.578H79.7812V129.078ZM74.7793 129.328V140H75.2793V129.328H74.7793ZM75.0293 140.25H79.8933V139.75H75.0293V140.25ZM79.5573 133.702H76.3573V134.202H79.5573V133.702ZM76.6073 133.952V130.512H76.1073V133.952H76.6073ZM76.3573 130.762H79.5573V130.262H76.3573V130.762ZM79.5573 130.762C80.1022 130.762 80.4944 130.935 80.7499 131.192C81.0066 131.451 81.1473 131.816 81.1473 132.24H81.6473C81.6473 131.704 81.4679 131.205 81.1046 130.84C80.7401 130.473 80.2123 130.262 79.5573 130.262V130.762ZM81.1473 132.24C81.1473 132.673 81.0063 133.033 80.7516 133.284C80.4974 133.535 80.1053 133.702 79.5573 133.702V134.202C80.2092 134.202 80.7371 134.001 81.1029 133.64C81.4682 133.279 81.6473 132.783 81.6473 132.24H81.1473ZM79.6373 138.566H76.3573V139.066H79.6373V138.566ZM76.6073 138.816V135.136H76.1073V138.816H76.6073ZM76.3573 135.386H79.6373V134.886H76.3573V135.386ZM79.6373 135.386C80.2271 135.386 80.6515 135.581 80.9284 135.865C81.2073 136.15 81.3553 136.545 81.3553 136.976H81.8553C81.8553 136.431 81.6672 135.906 81.2861 135.515C80.903 135.123 80.3434 134.886 79.6373 134.886V135.386ZM81.3553 136.976C81.3553 137.488 81.1908 137.878 80.9119 138.14C80.6313 138.404 80.2065 138.566 79.6373 138.566V139.066C80.3 139.066 80.8592 138.876 81.2546 138.504C81.6517 138.13 81.8553 137.6 81.8553 136.976H81.3553ZM92.8358 140V140.25H93.301L93.0442 139.862L92.8358 140ZM89.9557 135.648L89.9339 135.399L89.5155 135.436L89.7473 135.786L89.9557 135.648ZM85.0917 129.328V129.078H84.8418V129.328H85.0917ZM85.0917 140H84.8418V140.25H85.0917V140ZM86.4198 140V140.25H86.6698V140H86.4198ZM86.4198 135.76V135.51H86.1698V135.76H86.4198ZM88.5638 135.76L88.7745 135.626L88.7008 135.51H88.5638V135.76ZM91.2677 140L91.057 140.134L91.1307 140.25H91.2677V140ZM86.4198 134.592H86.1698V134.842H86.4198V134.592ZM86.4198 130.512V130.262H86.1698V130.512H86.4198ZM93.0442 139.862L90.1642 135.51L89.7473 135.786L92.6273 140.138L93.0442 139.862ZM89.9776 135.897C90.7576 135.828 91.5112 135.511 92.0716 134.944C92.6348 134.374 92.9897 133.565 92.9897 132.544H92.4897C92.4897 133.443 92.1807 134.122 91.716 134.592C91.2483 135.065 90.6099 135.34 89.9339 135.399L89.9776 135.897ZM92.9897 132.544C92.9897 131.497 92.6137 130.625 91.9626 130.016C91.3133 129.408 90.409 129.078 89.3797 129.078V129.578C90.3025 129.578 91.0782 129.872 91.6209 130.38C92.1618 130.887 92.4897 131.623 92.4897 132.544H92.9897ZM89.3797 129.078H85.0917V129.578H89.3797V129.078ZM84.8418 129.328V140H85.3417V129.328H84.8418ZM85.0917 140.25H86.4198V139.75H85.0917V140.25ZM86.6698 140V135.76H86.1698V140H86.6698ZM86.4198 136.01H88.5638V135.51H86.4198V136.01ZM88.353 135.894L91.057 140.134L91.4785 139.866L88.7745 135.626L88.353 135.894ZM91.2677 140.25H92.8358V139.75H91.2677V140.25ZM89.2197 134.342H86.4198V134.842H89.2197V134.342ZM86.6698 134.592V130.512H86.1698V134.592H86.6698ZM86.4198 130.762H89.2197V130.262H86.4198V130.762ZM89.2197 130.762C89.7977 130.762 90.2693 130.948 90.5943 131.254C90.9181 131.559 91.1138 131.999 91.1138 132.544H91.6138C91.6138 131.873 91.3694 131.297 90.9372 130.89C90.5062 130.484 89.9058 130.262 89.2197 130.262V130.762ZM91.1138 132.544C91.1138 133.081 90.9183 133.526 90.5928 133.837C90.2667 134.15 89.795 134.342 89.2197 134.342V134.842C89.9085 134.842 90.5088 134.61 90.9387 134.199C91.3692 133.786 91.6138 133.207 91.6138 132.544H91.1138ZM103.978 140V140.25H104.348L104.21 139.907L103.978 140ZM99.6898 129.328L99.9217 129.235L99.8587 129.078H99.6898V129.328ZM98.0417 129.328V129.078H97.873L97.8099 129.234L98.0417 129.328ZM93.7377 140L93.5059 139.906L93.3674 140.25H93.7377V140ZM95.2577 140V140.25H95.4276L95.4902 140.092L95.2577 140ZM96.2017 137.616V137.366H96.0319L95.9693 137.524L96.2017 137.616ZM101.514 137.616L101.746 137.524L101.684 137.366H101.514V137.616ZM102.458 140L102.225 140.092L102.288 140.25H102.458V140ZM101.13 136.448V136.698H101.497L101.362 136.356L101.13 136.448ZM96.6017 136.448L96.369 136.357L96.2353 136.698H96.6017V136.448ZM98.8577 130.688L99.0903 130.596L98.8569 130.005L98.625 130.597L98.8577 130.688ZM104.21 139.907L99.9217 129.235L99.4578 129.421L103.746 140.093L104.21 139.907ZM99.6898 129.078H98.0417V129.578H99.6898V129.078ZM97.8099 129.234L93.5059 139.906L93.9696 140.094L98.2736 129.422L97.8099 129.234ZM93.7377 140.25H95.2577V139.75H93.7377V140.25ZM95.4902 140.092L96.4342 137.708L95.9693 137.524L95.0253 139.908L95.4902 140.092ZM96.2017 137.866H101.514V137.366H96.2017V137.866ZM101.281 137.708L102.225 140.092L102.69 139.908L101.746 137.524L101.281 137.708ZM102.458 140.25H103.978V139.75H102.458V140.25ZM101.13 136.198H96.6017V136.698H101.13V136.198ZM96.8345 136.539L99.0905 130.779L98.625 130.597L96.369 136.357L96.8345 136.539ZM98.6252 130.78L100.897 136.54L101.362 136.356L99.0903 130.596L98.6252 130.78ZM114.205 140V140.25H114.455V140H114.205ZM114.205 129.328H114.455V129.078H114.205V129.328ZM112.877 129.328V129.078H112.627V129.328H112.877ZM112.877 137.664L112.676 137.812L113.127 138.425V137.664H112.877ZM106.733 129.328L106.934 129.18L106.859 129.078H106.733V129.328ZM105.373 129.328V129.078H105.123V129.328H105.373ZM105.373 140H105.123V140.25H105.373V140ZM106.701 140V140.25H106.951V140H106.701ZM106.701 131.488L106.903 131.34L106.451 130.723V131.488H106.701ZM112.925 140L112.723 140.148L112.798 140.25H112.925V140ZM114.455 140V129.328H113.955V140H114.455ZM114.205 129.078H112.877V129.578H114.205V129.078ZM112.627 129.328V137.664H113.127V129.328H112.627ZM113.078 137.516L106.934 129.18L106.532 129.476L112.676 137.812L113.078 137.516ZM106.733 129.078H105.373V129.578H106.733V129.078ZM105.123 129.328V140H105.623V129.328H105.123ZM105.373 140.25H106.701V139.75H105.373V140.25ZM106.951 140V131.488H106.451V140H106.951ZM106.499 131.636L112.723 140.148L113.127 139.852L106.903 131.34L106.499 131.636ZM112.925 140.25H114.205V139.75H112.925V140.25ZM116.701 129.328V129.078H116.451V129.328H116.701ZM116.701 140H116.451V140.25H116.701V140ZM118.029 138.816H117.779V139.066H118.029V138.816ZM118.029 130.512V130.262H117.779V130.512H118.029ZM120.349 140.25C122.072 140.25 123.506 139.657 124.51 138.653C125.513 137.65 126.071 136.252 126.071 134.672H125.571C125.571 136.132 125.057 137.398 124.156 138.299C123.256 139.199 121.954 139.75 120.349 139.75V140.25ZM126.071 134.672C126.071 133.1 125.513 131.699 124.51 130.69C123.507 129.68 122.073 129.078 120.349 129.078V129.578C121.953 129.578 123.255 130.136 124.156 131.042C125.057 131.949 125.571 133.22 125.571 134.672H126.071ZM120.349 129.078H116.701V129.578H120.349V129.078ZM116.451 129.328V140H116.951V129.328H116.451ZM116.701 140.25H120.349V139.75H116.701V140.25ZM120.349 138.566H118.029V139.066H120.349V138.566ZM118.279 138.816V130.512H117.779V138.816H118.279ZM118.029 130.762H120.349V130.262H118.029V130.762ZM120.349 130.762C121.607 130.762 122.562 131.202 123.203 131.898C123.848 132.596 124.195 133.572 124.195 134.672H124.695C124.695 133.468 124.314 132.364 123.571 131.558C122.825 130.75 121.731 130.262 120.349 130.262V130.762ZM124.195 134.672C124.195 135.762 123.837 136.734 123.186 137.431C122.538 138.126 121.582 138.566 120.349 138.566V139.066C121.708 139.066 122.801 138.578 123.552 137.773C124.301 136.97 124.695 135.87 124.695 134.672H124.195ZM129.232 140V140.25H129.482V140H129.232ZM129.232 129.328H129.482V129.078H129.232V129.328ZM127.904 129.328V129.078H127.654V129.328H127.904ZM127.904 140H127.654V140.25H127.904V140ZM129.482 140V129.328H128.982V140H129.482ZM129.232 129.078H127.904V129.578H129.232V129.078ZM127.654 129.328V140H128.154V129.328H127.654ZM127.904 140.25H129.232V139.75H127.904V140.25ZM140.564 140V140.25H140.814V140H140.564ZM140.564 129.328H140.814V129.078H140.564V129.328ZM139.236 129.328V129.078H138.986V129.328H139.236ZM139.236 137.664L139.035 137.812L139.486 138.425V137.664H139.236ZM133.092 129.328L133.294 129.18L133.219 129.078H133.092V129.328ZM131.732 129.328V129.078H131.482V129.328H131.732ZM131.732 140H131.482V140.25H131.732V140ZM133.06 140V140.25H133.31V140H133.06ZM133.06 131.488L133.262 131.34L132.81 130.723V131.488H133.06ZM139.284 140L139.083 140.148L139.157 140.25H139.284V140ZM140.814 140V129.328H140.314V140H140.814ZM140.564 129.078H139.236V129.578H140.564V129.078ZM138.986 129.328V137.664H139.486V129.328H138.986ZM139.438 137.516L133.294 129.18L132.891 129.476L139.035 137.812L139.438 137.516ZM133.092 129.078H131.732V129.578H133.092V129.078ZM131.482 129.328V140H131.982V129.328H131.482ZM131.732 140.25H133.06V139.75H131.732V140.25ZM133.31 140V131.488H132.81V140H133.31ZM132.859 131.636L139.083 140.148L139.486 139.852L133.262 131.34L132.859 131.636ZM139.284 140.25H140.564V139.75H139.284V140.25ZM152.309 138.352L152.496 138.518L152.559 138.447V138.352H152.309ZM152.309 134.512H152.559V134.262H152.309V134.512ZM147.316 134.512V134.262H147.066V134.512H147.316ZM147.316 135.696H147.066V135.946H147.316V135.696ZM150.996 135.696H151.246V135.446H150.996V135.696ZM150.996 137.856L151.173 138.033L151.246 137.96V137.856H150.996ZM151.204 131.808L151.007 131.961L151.147 132.141L151.339 132.019L151.204 131.808ZM152.26 131.136L152.395 131.347L152.631 131.197L152.455 130.979L152.26 131.136ZM148.117 140.458C149.935 140.458 151.458 139.689 152.496 138.518L152.121 138.186C151.175 139.255 149.786 139.958 148.117 139.958V140.458ZM152.559 138.352V134.512H152.059V138.352H152.559ZM152.309 134.262H147.316V134.762H152.309V134.262ZM147.066 134.512V135.696H147.566V134.512H147.066ZM147.316 135.946H150.996V135.446H147.316V135.946ZM150.746 135.696V137.856H151.246V135.696H150.746ZM150.82 137.679C150.315 138.184 149.321 138.758 148.117 138.758V139.258C149.472 139.258 150.59 138.616 151.173 138.033L150.82 137.679ZM148.117 138.758C145.928 138.758 144.255 137.072 144.255 134.672H143.755C143.755 137.328 145.633 139.258 148.117 139.258V138.758ZM144.255 134.672C144.255 132.241 145.927 130.586 148.117 130.586V130.086C145.634 130.086 143.755 131.983 143.755 134.672H144.255ZM148.117 130.586C149.318 130.586 150.382 131.158 151.007 131.961L151.402 131.655C150.683 130.73 149.475 130.086 148.117 130.086V130.586ZM151.339 132.019L152.395 131.347L152.126 130.925L151.07 131.597L151.339 132.019ZM152.455 130.979C151.487 129.777 150.107 128.902 148.117 128.902V129.402C149.934 129.402 151.178 130.191 152.066 131.293L152.455 130.979ZM148.117 128.902C144.945 128.902 142.379 131.199 142.379 134.672H142.879C142.879 131.489 145.208 129.402 148.117 129.402V128.902ZM142.379 134.672C142.379 138.127 144.944 140.458 148.117 140.458V139.958C145.209 139.958 142.879 137.841 142.879 134.672H142.379ZM79.7118 153.064L79.9139 153.211L80.0817 152.98L79.831 152.844L79.7118 153.064ZM78.5918 152.456L78.711 152.236L78.512 152.128L78.3849 152.316L78.5918 152.456ZM78.5918 146.888L78.3837 147.027L78.5126 147.22L78.7148 147.106L78.5918 146.888ZM79.6958 146.264L79.8188 146.482L80.058 146.346L79.9008 146.121L79.6958 146.264ZM75.6478 155.442C77.6315 155.442 78.981 154.494 79.9139 153.211L79.5096 152.917C78.6505 154.098 77.44 154.942 75.6478 154.942V155.442ZM79.831 152.844L78.711 152.236L78.4725 152.676L79.5925 153.284L79.831 152.844ZM78.3849 152.316C77.8212 153.146 76.777 153.758 75.6478 153.758V154.258C76.9505 154.258 78.1463 153.558 78.7986 152.596L78.3849 152.316ZM75.6478 153.758C73.4597 153.758 71.7858 152.072 71.7858 149.672H71.2858C71.2858 152.328 73.1638 154.258 75.6478 154.258V153.758ZM71.7858 149.672C71.7858 147.241 73.4585 145.586 75.6478 145.586V145.086C73.165 145.086 71.2858 146.983 71.2858 149.672H71.7858ZM75.6478 145.586C76.7789 145.586 77.8214 146.183 78.3837 147.027L78.7998 146.749C78.1461 145.769 76.9486 145.086 75.6478 145.086V145.586ZM78.7148 147.106L79.8188 146.482L79.5727 146.046L78.4687 146.67L78.7148 147.106ZM79.9008 146.121C79.0128 144.848 77.6286 143.902 75.6478 143.902V144.402C77.4429 144.402 78.6827 145.248 79.4907 146.407L79.9008 146.121ZM75.6478 143.902C72.442 143.902 69.9098 146.25 69.9098 149.672H70.4097C70.4097 146.534 72.7095 144.402 75.6478 144.402V143.902ZM69.9098 149.672C69.9098 153.094 72.442 155.442 75.6478 155.442V154.942C72.7095 154.942 70.4097 152.81 70.4097 149.672H69.9098ZM86.2682 155.442C89.5709 155.442 91.8302 152.949 91.8302 149.672H91.3302C91.3302 152.699 89.2696 154.942 86.2682 154.942V155.442ZM91.8302 149.672C91.8302 146.395 89.5709 143.902 86.2682 143.902V144.402C89.2696 144.402 91.3302 146.645 91.3302 149.672H91.8302ZM86.2682 143.902C82.9646 143.902 80.7222 146.396 80.7222 149.672H81.2222C81.2222 146.644 83.2679 144.402 86.2682 144.402V143.902ZM80.7222 149.672C80.7222 152.948 82.9646 155.442 86.2682 155.442V154.942C83.2679 154.942 81.2222 152.7 81.2222 149.672H80.7222ZM86.2682 153.758C85.1373 153.758 84.2267 153.323 83.5961 152.605C82.9627 151.884 82.5983 150.862 82.5983 149.672H82.0983C82.0983 150.962 82.4938 152.108 83.2204 152.935C83.9498 153.765 84.9992 154.258 86.2682 154.258V153.758ZM82.5983 149.672C82.5983 148.474 82.9628 147.452 83.5959 146.733C84.2262 146.018 85.1366 145.586 86.2682 145.586V145.086C84.9999 145.086 83.9503 145.574 83.2206 146.403C82.4937 147.228 82.0983 148.374 82.0983 149.672H82.5983ZM86.2682 145.586C87.3917 145.586 88.3067 146.018 88.9434 146.734C89.5825 147.453 89.9543 148.475 89.9543 149.672H90.4543C90.4543 148.373 90.05 147.227 89.3171 146.402C88.5818 145.574 87.5288 145.086 86.2682 145.086V145.586ZM89.9543 149.672C89.9543 150.861 89.5826 151.883 88.9432 152.604C88.3061 153.323 87.391 153.758 86.2682 153.758V154.258C87.5295 154.258 88.5824 153.765 89.3173 152.936C90.0499 152.109 90.4543 150.963 90.4543 149.672H89.9543ZM104.087 155V155.25H104.337V155H104.087ZM104.087 144.328H104.337V144.078H104.087V144.328ZM102.183 144.328V144.078H102.014L101.951 144.235L102.183 144.328ZM98.8706 152.552L98.6389 152.646L98.8712 153.22L99.1025 152.645L98.8706 152.552ZM95.5426 144.328L95.7744 144.234L95.7112 144.078H95.5426V144.328ZM93.6386 144.328V144.078H93.3886V144.328H93.6386ZM93.6386 155H93.3886V155.25H93.6386V155ZM94.9666 155V155.25H95.2166V155H94.9666ZM94.9666 146.024L95.1984 145.93L94.7166 146.024H94.9666ZM98.5986 155L98.3669 155.094L98.4301 155.25H98.5986V155ZM99.1426 155V155.25H99.3114L99.3745 155.093L99.1426 155ZM102.759 146.024H103.009L102.527 145.931L102.759 146.024ZM102.759 155H102.509V155.25H102.759V155ZM104.337 155V144.328H103.837V155H104.337ZM104.087 144.078H102.183V144.578H104.087V144.078ZM101.951 144.235L98.6387 152.459L99.1025 152.645L102.415 144.421L101.951 144.235ZM99.1024 152.458L95.7744 144.234L95.3109 144.422L98.6389 152.646L99.1024 152.458ZM95.5426 144.078H93.6386V144.578H95.5426V144.078ZM93.3886 144.328V155H93.8886V144.328H93.3886ZM93.6386 155.25H94.9666V154.75H93.6386V155.25ZM95.2166 155V146.024H94.7166V155H95.2166ZM94.7349 146.118L98.3669 155.094L98.8304 154.906L95.1984 145.93L94.7349 146.118ZM98.5986 155.25H99.1426V154.75H98.5986V155.25ZM99.3745 155.093L102.991 146.117L102.527 145.931L98.9107 154.907L99.3745 155.093ZM102.509 146.024V155H103.009V146.024H102.509ZM102.759 155.25H104.087V154.75H102.759V155.25ZM107.904 155V155.25H108.154V155H107.904ZM107.904 150.76V150.51H107.654V150.76H107.904ZM106.576 144.328V144.078H106.326V144.328H106.576ZM106.576 155H106.326V155.25H106.576V155ZM107.904 149.576H107.654V149.826H107.904V149.576ZM107.904 145.512V145.262H107.654V145.512H107.904ZM108.154 155V150.76H107.654V155H108.154ZM107.904 151.01H110.864V150.51H107.904V151.01ZM110.864 151.01C111.989 151.01 112.892 150.62 113.513 149.98C114.133 149.343 114.458 148.474 114.458 147.544H113.958C113.958 148.358 113.675 149.097 113.155 149.632C112.637 150.164 111.868 150.51 110.864 150.51V151.01ZM114.458 147.544C114.458 146.615 114.138 145.746 113.52 145.108C112.899 144.468 111.996 144.078 110.864 144.078V144.578C111.876 144.578 112.645 144.924 113.161 145.456C113.678 145.99 113.958 146.729 113.958 147.544H114.458ZM110.864 144.078H106.576V144.578H110.864V144.078ZM106.326 144.328V155H106.826V144.328H106.326ZM106.576 155.25H107.904V154.75H106.576V155.25ZM110.704 149.326H107.904V149.826H110.704V149.326ZM108.154 149.576V145.512H107.654V149.576H108.154ZM107.904 145.762H110.704V145.262H107.904V145.762ZM110.704 145.762C111.281 145.762 111.748 145.951 112.069 146.259C112.39 146.566 112.582 147.006 112.582 147.544H113.082C113.082 146.882 112.842 146.306 112.415 145.897C111.988 145.489 111.392 145.262 110.704 145.262V145.762ZM112.582 147.544C112.582 148.082 112.39 148.522 112.069 148.829C111.748 149.137 111.281 149.326 110.704 149.326V149.826C111.392 149.826 111.988 149.599 112.415 149.191C112.842 148.782 113.082 148.206 113.082 147.544H112.582ZM123.868 155V155.25H124.238L124.1 154.907L123.868 155ZM119.58 144.328L119.812 144.235L119.749 144.078H119.58V144.328ZM117.932 144.328V144.078H117.764L117.701 144.234L117.932 144.328ZM113.628 155L113.397 154.906L113.258 155.25H113.628V155ZM115.148 155V155.25H115.318L115.381 155.092L115.148 155ZM116.092 152.616V152.366H115.922L115.86 152.524L116.092 152.616ZM121.404 152.616L121.637 152.524L121.574 152.366H121.404V152.616ZM122.348 155L122.116 155.092L122.178 155.25H122.348V155ZM121.02 151.448V151.698H121.388L121.253 151.356L121.02 151.448ZM116.492 151.448L116.26 151.357L116.126 151.698H116.492V151.448ZM118.748 145.688L118.981 145.596L118.748 145.005L118.516 145.597L118.748 145.688ZM124.1 154.907L119.812 144.235L119.348 144.421L123.636 155.093L124.1 154.907ZM119.58 144.078H117.932V144.578H119.58V144.078ZM117.701 144.234L113.397 154.906L113.86 155.094L118.164 144.422L117.701 144.234ZM113.628 155.25H115.148V154.75H113.628V155.25ZM115.381 155.092L116.325 152.708L115.86 152.524L114.916 154.908L115.381 155.092ZM116.092 152.866H121.404V152.366H116.092V152.866ZM121.172 152.708L122.116 155.092L122.581 154.908L121.637 152.524L121.172 152.708ZM122.348 155.25H123.868V154.75H122.348V155.25ZM121.02 151.198H116.492V151.698H121.02V151.198ZM116.725 151.539L118.981 145.779L118.516 145.597L116.26 151.357L116.725 151.539ZM118.516 145.78L120.788 151.54L121.253 151.356L118.981 145.596L118.516 145.78ZM134.096 155V155.25H134.346V155H134.096ZM134.096 144.328H134.346V144.078H134.096V144.328ZM132.768 144.328V144.078H132.518V144.328H132.768ZM132.768 152.664L132.566 152.812L133.018 153.425V152.664H132.768ZM126.624 144.328L126.825 144.18L126.75 144.078H126.624V144.328ZM125.264 144.328V144.078H125.014V144.328H125.264ZM125.264 155H125.014V155.25H125.264V155ZM126.592 155V155.25H126.842V155H126.592ZM126.592 146.488L126.793 146.34L126.342 145.723V146.488H126.592ZM132.816 155L132.614 155.148L132.689 155.25H132.816V155ZM134.346 155V144.328H133.846V155H134.346ZM134.096 144.078H132.768V144.578H134.096V144.078ZM132.518 144.328V152.664H133.018V144.328H132.518ZM132.969 152.516L126.825 144.18L126.422 144.476L132.566 152.812L132.969 152.516ZM126.624 144.078H125.264V144.578H126.624V144.078ZM125.014 144.328V155H125.514V144.328H125.014ZM125.264 155.25H126.592V154.75H125.264V155.25ZM126.842 155V146.488H126.342V155H126.842ZM126.39 146.636L132.614 155.148L133.017 154.852L126.793 146.34L126.39 146.636ZM132.816 155.25H134.096V154.75H132.816V155.25ZM137.92 155V155.25H138.17V155H137.92ZM137.92 144.328H138.17V144.078H137.92V144.328ZM136.592 144.328V144.078H136.342V144.328H136.592ZM136.592 155H136.342V155.25H136.592V155ZM138.17 155V144.328H137.67V155H138.17ZM137.92 144.078H136.592V144.578H137.92V144.078ZM136.342 144.328V155H136.842V144.328H136.342ZM136.592 155.25H137.92V154.75H136.592V155.25ZM147.412 155V155.25H147.662V155H147.412ZM147.412 153.816H147.662V153.566H147.412V153.816ZM141.748 153.816H141.498V154.066H141.748V153.816ZM141.748 150.136V149.886H141.498V150.136H141.748ZM147.3 150.136V150.386H147.55V150.136H147.3ZM147.3 148.952H147.55V148.702H147.3V148.952ZM141.748 148.952H141.498V149.202H141.748V148.952ZM141.748 145.512V145.262H141.498V145.512H141.748ZM147.412 145.512V145.762H147.662V145.512H147.412ZM147.412 144.328H147.662V144.078H147.412V144.328ZM140.42 144.328V144.078H140.17V144.328H140.42ZM140.42 155H140.17V155.25H140.42V155ZM147.662 155V153.816H147.162V155H147.662ZM147.412 153.566H141.748V154.066H147.412V153.566ZM141.998 153.816V150.136H141.498V153.816H141.998ZM141.748 150.386H147.3V149.886H141.748V150.386ZM147.55 150.136V148.952H147.05V150.136H147.55ZM147.3 148.702H141.748V149.202H147.3V148.702ZM141.998 148.952V145.512H141.498V148.952H141.998ZM141.748 145.762H147.412V145.262H141.748V145.762ZM147.662 145.512V144.328H147.162V145.512H147.662ZM147.412 144.078H140.42V144.578H147.412V144.078ZM140.17 144.328V155H140.67V144.328H140.17ZM140.42 155.25H147.412V154.75H140.42V155.25ZM155.881 146.632L155.695 146.799L155.889 147.016L156.075 146.79L155.881 146.632ZM156.681 145.656L156.875 145.814L157.014 145.644L156.863 145.484L156.681 145.656ZM149.689 152.472L149.879 152.309L149.68 152.078L149.492 152.318L149.689 152.472ZM148.889 153.496L148.692 153.342L148.564 153.506L148.702 153.662L148.889 153.496ZM152.985 155.442C154.471 155.442 155.523 155.028 156.205 154.381C156.887 153.735 157.171 152.881 157.171 152.056H156.671C156.671 152.767 156.428 153.481 155.861 154.019C155.295 154.556 154.379 154.942 152.985 154.942V155.442ZM157.171 152.056C157.171 150.98 156.738 150.248 156.089 149.734C155.455 149.232 154.622 148.945 153.83 148.718C153.017 148.484 152.263 148.316 151.693 148.055C151.413 147.927 151.202 147.787 151.062 147.625C150.927 147.47 150.851 147.286 150.851 147.048H150.351C150.351 147.41 150.473 147.708 150.684 147.952C150.889 148.19 151.172 148.367 151.485 148.51C152.1 148.791 152.926 148.978 153.692 149.198C154.48 149.425 155.228 149.691 155.779 150.126C156.314 150.55 156.671 151.14 156.671 152.056H157.171ZM150.851 147.048C150.851 146.629 151.041 146.276 151.375 146.021C151.713 145.762 152.204 145.602 152.793 145.602V145.102C152.118 145.102 151.514 145.286 151.071 145.623C150.625 145.964 150.351 146.459 150.351 147.048H150.851ZM152.793 145.602C153.907 145.602 154.952 145.967 155.695 146.799L156.068 146.465C155.21 145.505 154.015 145.102 152.793 145.102V145.602ZM156.075 146.79L156.875 145.814L156.488 145.498L155.688 146.474L156.075 146.79ZM156.863 145.484C155.915 144.486 154.584 143.902 152.905 143.902V144.402C154.459 144.402 155.655 144.938 156.5 145.828L156.863 145.484ZM152.905 143.902C150.711 143.902 148.975 145.18 148.975 147.128H149.475C149.475 145.556 150.876 144.402 152.905 144.402V143.902ZM148.975 147.128C148.975 148.166 149.413 148.856 150.065 149.334C150.699 149.799 151.531 150.06 152.319 150.277C153.128 150.5 153.881 150.677 154.444 150.964C154.721 151.105 154.932 151.265 155.074 151.453C155.213 151.637 155.295 151.86 155.295 152.152H155.795C155.795 151.756 155.68 151.425 155.473 151.152C155.27 150.882 154.987 150.68 154.671 150.519C154.049 150.201 153.223 150.008 152.452 149.795C151.66 149.576 150.912 149.335 150.361 148.931C149.827 148.54 149.475 147.994 149.475 147.128H148.975ZM155.295 152.152C155.295 152.508 155.166 152.902 154.834 153.208C154.502 153.515 153.941 153.758 153.033 153.758V154.258C154.03 154.258 154.725 153.989 155.173 153.576C155.621 153.162 155.795 152.628 155.795 152.152H155.295ZM153.033 153.758C151.615 153.758 150.529 153.065 149.879 152.309L149.5 152.635C150.226 153.479 151.443 154.258 153.033 154.258V153.758ZM149.492 152.318L148.692 153.342L149.086 153.65L149.886 152.626L149.492 152.318ZM148.702 153.662C149.632 154.71 151.077 155.442 152.985 155.442V154.942C151.213 154.942 149.907 154.266 149.076 153.33L148.702 153.662Z" fill="black"/>
<path d="M112.765 68.6659C112.577 68.6659 112.577 68.4651 112.765 68.6659L111.827 68.0636L111.639 67.8628L89.5036 50.9975C89.5036 50.9975 89.3161 50.9975 89.3161 50.7967L88.9409 50.3952L88.7533 50.1944H88.3781L82 45.3757L94.5686 47.3835C95.1314 47.3835 95.319 47.5843 95.8817 47.7851C96.0693 47.7851 96.4445 47.9858 96.4445 47.9858C97.0073 48.1866 97.1949 48.3874 97.5701 48.5882C97.9453 48.7889 98.1328 48.9897 98.508 49.1905C98.6956 49.3913 99.0708 49.5921 99.0708 49.7928C99.2584 49.9936 99.446 49.9936 99.6336 50.1944C100.009 50.3952 100.196 50.5959 100.196 50.7967C100.759 51.3991 101.134 52.0014 101.697 52.4029L111.639 67.4612L111.827 67.662L112.765 68.6659Z" fill="#18AAD1"/>
<path d="M112.765 91.9562L111.827 90.35L111.639 90.1492L82.1875 45.3757L88.5656 50.1944L89.6912 50.9975L111.827 67.8628H112.015L112.765 68.4652C112.765 68.4652 112.952 68.4652 112.952 68.666L113.89 67.8628L143.717 45.3757L113.703 90.35L113.515 90.5507L112.765 91.9562Z" fill="#2AD2FF"/>
<path d="M112.765 61.0361L111.827 59.4298L111.639 59.2291L104.323 48.3871L111.639 49.9933H111.827L112.765 50.1941L113.703 49.9933L120.831 48.1863L113.703 59.4298V59.6306L112.765 61.0361Z" fill="#18AAD1"/>
<path d="M143.905 45.1748L134.525 46.5802L130.961 47.1826C128.147 47.5841 125.521 49.1904 123.833 51.8005L113.89 67.0595L113.703 67.2603L112.765 68.6658L113.89 67.4611L114.078 67.2603L112.765 68.6658L138.09 49.3911L143.905 45.1748Z" fill="#18AAD1"/>
<path d="M117.455 13.4521C117.455 22.2862 103.198 26.9041 103.198 36.3406C103.01 38.5492 103.573 40.7577 104.511 42.7655C104.511 42.7655 99.0708 37.1437 99.0708 31.1204C99.0708 25.0971 104.323 16.0622 104.323 16.0622C104.323 20.0777 105.824 21.2824 107.325 21.4831H107.512C109.201 21.4831 110.139 20.0777 110.139 18.0699C110.139 16.0622 108.075 14.0544 108.075 10.0389C108.075 6.22409 112.577 0 112.577 0C115.766 4.01554 117.455 8.63341 117.455 13.4521Z" fill="#2AD2FF"/>
<path d="M113.515 45.5768C109.013 45.5768 105.636 41.762 105.636 37.1441V36.9434C105.636 26.7037 118.955 25.6998 118.955 11.8462C119.331 12.4485 122.895 17.6687 122.895 23.2905C122.895 30.3177 116.704 32.1247 116.704 35.5379C116.704 36.9434 117.267 37.9472 119.143 37.9472C119.331 37.9472 119.518 37.9472 119.706 37.7465C123.27 36.1402 125.709 32.5263 125.896 28.3099C125.896 28.5107 127.772 45.5768 113.515 45.5768Z" fill="#2AD2FF"/>
<path d="M119.331 37.9473C119.518 37.9473 119.706 37.9473 119.893 37.7465C118.018 38.3488 111.077 40.1558 111.077 34.9356C111.077 28.5107 121.394 27.1053 121.394 21.6843C121.394 18.2711 120.644 14.8579 118.955 11.8462C119.331 12.4485 122.895 17.6687 122.895 23.2905C122.895 30.3177 116.704 32.1247 116.704 35.5379C116.892 36.9434 117.642 37.9473 119.331 37.9473Z" fill="#18AAD1"/>
<path d="M113.378 17.0661C113.378 22.0855 107.375 21.684 107 21.4832H107.563C109.251 21.4832 110.189 20.0778 110.189 18.07C110.189 16.0622 108.126 14.0544 108.126 10.0389C108.126 6.2241 112.628 0 112.628 0C111.127 2.61011 110.377 5.42099 110.189 8.23188C110.189 12.8498 113.378 13.2513 113.378 17.0661Z" fill="#18AAD1"/>
<path d="M110.162 105.02L105.824 101.932H111.148L112.923 96.373L114.5 101.932H119.824L115.486 105.02L117.063 110.373L112.725 107.079L108.19 110.373L110.162 105.02Z" fill="#2AD2FF"/>
<path d="M133.338 105.02L129 101.932H134.324L136.099 96.373L137.676 101.932H143L138.662 105.02L140.239 110.373L135.901 107.079L131.366 110.373L133.338 105.02Z" fill="#2AD2FF"/>
<path d="M156.338 105.02L152 101.932H157.324L159.099 96.373L160.676 101.932H166L161.662 105.02L163.239 110.373L158.901 107.079L154.366 110.373L156.338 105.02Z" fill="#2AD2FF"/>
<path d="M86.338 105.02L82 101.932H87.3239L89.0986 96.373L90.6761 101.932H96L91.662 105.02L93.2394 110.373L88.9014 107.079L84.5634 110.373L86.338 105.02Z" fill="#2AD2FF"/>
<path d="M63.338 105.02L59 101.932H64.3239L66.0986 96.373L67.6761 101.932H73L68.662 105.02L70.2394 110.373L65.9014 107.079L61.5634 110.373L63.338 105.02Z" fill="#2AD2FF"/>
<path d="M168.1 160.1H58.7998V178.3H168.1V160.1Z" fill="#0460B5"/>
<path d="M67.2 151H45L49.6 160.1L45 169.2H57.3L57.4 159.3L67.2 151Z" fill="#0460B5"/>
<path d="M159.8 151H181.9L177.3 160.1L181.9 169.2H169.6V159.3L159.8 151Z" fill="#0460B5"/>
<path d="M69.8998 166C70.4998 166.3 70.9998 166.8 71.2998 167.3C71.5998 167.9 71.7998 168.6 71.7998 169.2C71.7998 169.9 71.5998 170.5 71.2998 171.1C70.9998 171.7 70.4998 172.1 69.8998 172.4C69.2998 172.7 68.5998 172.9 67.8998 172.9H64.7998V165.4H67.8998C68.5998 165.5 69.2998 165.6 69.8998 166ZM69.1998 171.4C69.5998 171.2 69.8998 170.9 70.0998 170.5C70.4998 169.7 70.4998 168.7 70.0998 167.9C69.8998 167.5 69.5998 167.2 69.1998 167C68.7998 166.8 68.3998 166.7 67.8998 166.7H66.1998V171.7H67.8998C68.2998 171.7 68.7998 171.6 69.1998 171.4Z" fill="white"/>
<path d="M73 165.5H78.5V166.7H74.5V168.6H78.1V169.8H74.5V171.7H78.7V172.9H73V165.5Z" fill="white"/>
<path d="M83.6998 166.9C83.3998 166.8 82.9998 166.7 82.5998 166.7C82.2998 166.7 81.9998 166.8 81.7998 166.9C81.5998 167 81.4998 167.2 81.4998 167.4C81.4998 167.6 81.5998 167.8 81.6998 167.9C81.7998 168 81.9998 168.2 82.1998 168.2C82.4998 168.3 82.7998 168.4 83.0998 168.5C83.4998 168.6 83.8998 168.8 84.2998 168.9C84.5998 169.1 84.8998 169.3 85.0998 169.6C85.2998 169.9 85.4998 170.3 85.3998 170.8C85.3998 171.2 85.2998 171.7 84.9998 172C84.6998 172.3 84.3998 172.6 83.9998 172.8C83.4998 173 82.9998 173.1 82.4998 173.1C81.8998 173.1 81.2998 173 80.7998 172.8C80.2998 172.6 79.7998 172.3 79.2998 171.9L79.8998 170.7C80.2998 171 80.6998 171.3 81.1998 171.5C81.5998 171.7 82.0998 171.8 82.4998 171.8C82.7998 171.8 83.1998 171.7 83.3998 171.6C83.7998 171.4 83.7998 170.9 83.5998 170.5L83.4998 170.4C83.2998 170.3 83.1998 170.1 82.9998 170.1C82.7998 170 82.4998 169.9 82.0998 169.8C81.6998 169.7 81.2998 169.5 80.8998 169.4C80.5998 169.3 80.2998 169 80.0998 168.8C79.8998 168.5 79.6998 168.1 79.7998 167.7C79.7998 167.3 79.8998 166.9 80.0998 166.6C80.3998 166.3 80.6998 166 81.0998 165.8C81.5998 165.6 82.0998 165.5 82.5998 165.5C83.0998 165.5 83.5998 165.6 83.9998 165.7C84.3998 165.8 84.8998 166 85.2998 166.3L84.6998 167.5C84.4998 167.2 84.0998 167 83.6998 166.9Z" fill="white"/>
<path d="M86.8999 165.5H88.2999V173H86.8999V165.5Z" fill="white"/>
<path d="M95.2 169.2H96.4V172.1C96 172.4 95.5 172.6 95 172.8C94.5 173 94 173.1 93.4 173.1C92.7 173.1 92 172.9 91.4 172.6C90.8 172.3 90.3 171.8 90 171.2C89.6 170.6 89.5 169.9 89.5 169.2C89.5 168.5 89.7 167.8 90 167.3C90.4 166.7 90.9 166.2 91.5 165.9C92.1 165.6 92.8 165.4 93.5 165.4C94 165.4 94.6 165.5 95.1 165.7C95.6 165.9 96.1 166.1 96.4 166.5L95.6 167.6C95.3 167.3 95 167.1 94.6 167C94.2 166.9 93.9 166.8 93.5 166.8C93 166.8 92.6 166.9 92.2 167.1C91 167.8 90.6 169.4 91.3 170.6C91.8 171.4 92.6 171.9 93.5 171.9C93.8 171.9 94 171.9 94.3 171.8C94.6 171.7 94.9 171.6 95.1 171.4L95.2 169.2Z" fill="white"/>
<path d="M103.4 165.5H104.8V173H103.5L99.6002 167.8V173H98.2002V165.5H99.6002L103.5 170.7L103.4 165.5Z" fill="white"/>
<path d="M111.3 173L110 170.8H108V173H106.6V165.5H109.7C110.5 165.4 111.3 165.7 112 166.1C112.5 166.6 112.8 167.3 112.8 168C112.8 168.5 112.7 169 112.4 169.5C112.1 169.9 111.7 170.2 111.3 170.4L113 172.9L111.3 173ZM108 169.5H109.7C110.2 169.5 110.6 169.4 111 169.1C111.3 168.8 111.4 168.5 111.4 168.1C111.4 167.7 111.3 167.3 111 167.1C110.6 166.9 110.2 166.7 109.8 166.8H108V169.5Z" fill="white"/>
<path d="M116.1 171.3C116.5 171.6 117 171.8 117.4 171.8C117.9 171.8 118.4 171.6 118.7 171.3C119 170.9 119.2 170.4 119.2 169.9V165.5H120.6V169.9C120.6 170.5 120.5 171.1 120.2 171.6C119.9 172.1 119.5 172.5 119.1 172.7C118.6 173 118 173.1 117.4 173.1C116.8 173.1 116.2 173 115.6 172.7C115.1 172.5 114.7 172.1 114.5 171.6C114.2 171.1 114.1 170.5 114.1 169.9V165.5H115.5V169.9C115.6 170.4 115.8 170.9 116.1 171.3Z" fill="white"/>
<path d="M126 166.9C125.7 166.8 125.3 166.7 124.9 166.7C124.6 166.7 124.3 166.8 124.1 166.9C123.9 167 123.8 167.2 123.8 167.4C123.8 167.6 123.9 167.8 124 167.9C124.1 168 124.3 168.2 124.5 168.2C124.8 168.3 125.1 168.4 125.4 168.5C125.8 168.6 126.2 168.8 126.6 168.9C126.9 169.1 127.2 169.3 127.4 169.6C127.6 169.9 127.8 170.3 127.7 170.8C127.7 171.2 127.6 171.7 127.3 172C127 172.3 126.7 172.6 126.3 172.8C125.8 173 125.3 173.1 124.8 173.1C124.2 173.1 123.6 173 123.1 172.8C122.6 172.6 122.1 172.3 121.6 171.9L122.2 170.7C122.6 171 123 171.3 123.5 171.5C123.9 171.7 124.4 171.8 124.8 171.8C125.1 171.8 125.5 171.7 125.7 171.6C126.1 171.4 126.1 170.9 125.9 170.5L125.8 170.4C125.6 170.3 125.5 170.1 125.3 170.1C125.1 170 124.8 169.9 124.4 169.8C124 169.7 123.6 169.5 123.2 169.4C122.9 169.3 122.6 169 122.4 168.8C122.2 168.5 122 168.1 122.1 167.7C122.1 167.3 122.2 166.9 122.4 166.6C122.7 166.3 123 166 123.4 165.8C123.9 165.6 124.4 165.5 124.9 165.5C125.4 165.5 125.9 165.6 126.3 165.7C126.7 165.8 127.2 166 127.6 166.3L127 167.5C126.8 167.2 126.4 167 126 166.9Z" fill="white"/>
<path d="M129.2 165.5H130.6V168.7H134.3V165.5H135.7V173H134.3V170H130.6V173H129.2V165.5Z" fill="white"/>
<path d="M138.4 171.7C138.5 171.8 138.6 172 138.6 172.3C138.6 172.5 138.5 172.7 138.4 172.9C138.3 173 138.1 173.1 137.9 173.1C137.7 173.1 137.5 173 137.4 172.9C137.3 172.7 137.2 172.5 137.2 172.3C137.2 172.1 137.3 171.9 137.4 171.7C137.5 171.6 137.7 171.5 137.9 171.5C138.1 171.5 138.3 171.6 138.4 171.7Z" fill="white"/>
<path d="M142.4 168.4C142 168.4 141.6 168.6 141.3 168.9C141 169.2 140.9 169.7 140.9 170.1C140.9 170.6 141 171 141.3 171.3C141.6 171.6 142 171.8 142.4 171.8C143 171.8 143.6 171.6 143.9 171.1L144.8 171.8C144.5 172.2 144.2 172.5 143.8 172.7C143.3 172.9 142.8 173 142.3 173C141.8 173 141.3 172.9 140.8 172.6C140.4 172.4 140 172 139.8 171.6C139.3 170.7 139.3 169.5 139.8 168.6C140 168.2 140.4 167.8 140.8 167.6C141.3 167.4 141.8 167.2 142.3 167.2C142.8 167.2 143.3 167.3 143.7 167.5C144.1 167.7 144.4 167.9 144.7 168.3L143.9 169.1C143.6 168.7 143 168.4 142.4 168.4Z" fill="white"/>
<path d="M149.9 167.6C150.3 167.8 150.7 168.2 151 168.6C151.3 169.1 151.4 169.6 151.4 170.1C151.4 170.6 151.3 171.2 151 171.6C150.7 172 150.4 172.4 149.9 172.6C149.4 172.8 148.9 173 148.3 173C147.7 173 147.2 172.9 146.7 172.6C146.3 172.4 145.9 172 145.6 171.6C145.3 171.1 145.2 170.6 145.2 170.1C145.2 169.6 145.3 169 145.6 168.6C145.9 168.2 146.2 167.8 146.7 167.6C147.2 167.3 147.7 167.2 148.3 167.2C148.9 167.2 149.4 167.3 149.9 167.6ZM147.2 168.9C146.6 169.6 146.6 170.7 147.2 171.4C147.5 171.7 147.9 171.9 148.4 171.9C148.8 171.9 149.3 171.7 149.6 171.4C150.2 170.7 150.2 169.6 149.6 168.9C149.3 168.6 148.9 168.4 148.4 168.4C147.9 168.4 147.5 168.5 147.2 168.9Z" fill="white"/>
<path d="M161.6 167.8C162 168.2 162.2 168.8 162.2 169.4V173H160.8V169.8C160.8 169.4 160.7 169.1 160.5 168.8C160.3 168.6 159.9 168.4 159.6 168.4C159.2 168.4 158.8 168.6 158.5 168.9C158.2 169.2 158.1 169.6 158.1 170.1V172.9H156.7V169.8C156.7 169.4 156.6 169.1 156.4 168.8C156.2 168.6 155.8 168.4 155.5 168.4C155.1 168.4 154.7 168.6 154.4 168.9C154.1 169.2 154 169.7 154.1 170.1V172.9H152.7V167.2H154.1V168.3C154.8 167.2 156.3 166.9 157.4 167.5C157.7 167.7 158 168.1 158.1 168.5C158.4 167.6 159.3 167.1 160.2 167.1C160.7 167.1 161.2 167.4 161.6 167.8Z" fill="white"/>
<path d="M104.888 193V192.112H100.964C103.196 190.348 104.852 188.86 104.852 187.228C104.852 185.632 103.496 184.876 102.164 184.876C101.036 184.876 99.9921 185.32 99.3801 186.136L99.9921 186.772C100.46 186.172 101.204 185.764 102.164 185.764C102.992 185.764 103.844 186.196 103.844 187.228C103.844 188.608 102.272 189.94 99.3921 192.196V193H104.888ZM109.471 193.144C111.655 193.144 112.531 190.948 112.531 189.004C112.531 187.048 111.655 184.876 109.471 184.876C107.275 184.876 106.411 187.048 106.411 189.004C106.411 190.948 107.275 193.144 109.471 193.144ZM109.471 192.256C107.947 192.256 107.431 190.6 107.431 189.004C107.431 187.408 107.947 185.764 109.471 185.764C110.995 185.764 111.511 187.408 111.511 189.004C111.511 190.6 110.995 192.256 109.471 192.256ZM119.29 193V192.112H115.366C117.598 190.348 119.254 188.86 119.254 187.228C119.254 185.632 117.898 184.876 116.566 184.876C115.438 184.876 114.394 185.32 113.782 186.136L114.394 186.772C114.862 186.172 115.606 185.764 116.566 185.764C117.394 185.764 118.246 186.196 118.246 187.228C118.246 188.608 116.674 189.94 113.794 192.196V193H119.29ZM126.345 193V192.112H122.421C124.653 190.348 126.309 188.86 126.309 187.228C126.309 185.632 124.953 184.876 123.621 184.876C122.493 184.876 121.449 185.32 120.837 186.136L121.449 186.772C121.917 186.172 122.661 185.764 123.621 185.764C124.449 185.764 125.301 186.196 125.301 187.228C125.301 188.608 123.729 189.94 120.849 192.196V193H126.345Z" fill="black"/>
<path d="M104.888 193V193.25H105.138V193H104.888ZM104.888 192.112H105.138V191.862H104.888V192.112ZM100.964 192.112L100.809 191.916L100.245 192.362H100.964V192.112ZM99.3801 186.136L99.1801 185.986L99.0526 186.156L99.2 186.309L99.3801 186.136ZM99.9921 186.772L99.812 186.945L100.012 187.153L100.189 186.926L99.9921 186.772ZM99.3921 192.196L99.238 191.999L99.1421 192.074V192.196H99.3921ZM99.3921 193H99.1421V193.25H99.3921V193ZM105.138 193V192.112H104.638V193H105.138ZM104.888 191.862H100.964V192.362H104.888V191.862ZM101.119 192.308C102.235 191.427 103.224 190.601 103.934 189.785C104.643 188.969 105.102 188.132 105.102 187.228H104.602C104.602 187.956 104.233 188.679 103.557 189.456C102.881 190.233 101.926 191.033 100.809 191.916L101.119 192.308ZM105.102 187.228C105.102 186.35 104.725 185.69 104.16 185.255C103.602 184.827 102.874 184.626 102.164 184.626V185.126C102.787 185.126 103.402 185.303 103.855 185.652C104.301 185.994 104.602 186.51 104.602 187.228H105.102ZM102.164 184.626C100.975 184.626 99.8489 185.094 99.1801 185.986L99.5801 186.286C100.135 185.546 101.097 185.126 102.164 185.126V184.626ZM99.2 186.309L99.812 186.945L100.172 186.599L99.5603 185.963L99.2 186.309ZM100.189 186.926C100.609 186.387 101.28 186.014 102.164 186.014V185.514C101.128 185.514 100.311 185.957 99.795 186.618L100.189 186.926ZM102.164 186.014C102.539 186.014 102.902 186.113 103.165 186.309C103.418 186.499 103.594 186.791 103.594 187.228H104.094C104.094 186.633 103.844 186.193 103.464 185.909C103.094 185.631 102.617 185.514 102.164 185.514V186.014ZM103.594 187.228C103.594 187.818 103.259 188.435 102.517 189.211C101.779 189.983 100.681 190.869 99.238 191.999L99.5463 192.393C100.983 191.267 102.111 190.359 102.879 189.556C103.643 188.757 104.094 188.018 104.094 187.228H103.594ZM99.1421 192.196V193H99.6421V192.196H99.1421ZM99.3921 193.25H104.888V192.75H99.3921V193.25ZM109.471 193.394C110.663 193.394 111.502 192.788 112.032 191.935C112.556 191.092 112.781 190.008 112.781 189.004H112.281C112.281 189.944 112.068 190.93 111.607 191.671C111.153 192.402 110.462 192.894 109.471 192.894V193.394ZM112.781 189.004C112.781 187.994 112.556 186.912 112.032 186.074C111.502 185.225 110.662 184.626 109.471 184.626V185.126C110.464 185.126 111.154 185.613 111.608 186.339C112.068 187.076 112.281 188.058 112.281 189.004H112.781ZM109.471 184.626C108.274 184.626 107.434 185.225 106.905 186.074C106.383 186.913 106.161 187.995 106.161 189.004H106.661C106.661 188.057 106.871 187.075 107.33 186.339C107.781 185.613 108.472 185.126 109.471 185.126V184.626ZM106.161 189.004C106.161 190.007 106.383 191.092 106.905 191.935C107.433 192.788 108.273 193.394 109.471 193.394V192.894C108.473 192.894 107.782 192.402 107.33 191.671C106.871 190.93 106.661 189.945 106.661 189.004H106.161ZM109.471 192.006C108.823 192.006 108.388 191.664 108.101 191.113C107.808 190.549 107.681 189.782 107.681 189.004H107.181C107.181 189.822 107.312 190.681 107.658 191.344C108.01 192.02 108.595 192.506 109.471 192.506V192.006ZM107.681 189.004C107.681 188.226 107.808 187.462 108.101 186.901C108.387 186.354 108.822 186.014 109.471 186.014V185.514C108.596 185.514 108.01 185.996 107.658 186.67C107.312 187.33 107.181 188.186 107.181 189.004H107.681ZM109.471 186.014C110.12 186.014 110.554 186.354 110.841 186.901C111.134 187.462 111.261 188.226 111.261 189.004H111.761C111.761 188.186 111.63 187.33 111.284 186.67C110.931 185.996 110.346 185.514 109.471 185.514V186.014ZM111.261 189.004C111.261 189.782 111.134 190.549 110.841 191.113C110.554 191.664 110.119 192.006 109.471 192.006V192.506C110.347 192.506 110.932 192.02 111.284 191.344C111.63 190.681 111.761 189.822 111.761 189.004H111.261ZM119.29 193V193.25H119.54V193H119.29ZM119.29 192.112H119.54V191.862H119.29V192.112ZM115.366 192.112L115.211 191.916L114.647 192.362H115.366V192.112ZM113.782 186.136L113.582 185.986L113.455 186.156L113.602 186.309L113.782 186.136ZM114.394 186.772L114.214 186.945L114.414 187.153L114.592 186.926L114.394 186.772ZM113.794 192.196L113.64 191.999L113.544 192.074V192.196H113.794ZM113.794 193H113.544V193.25H113.794V193ZM119.54 193V192.112H119.04V193H119.54ZM119.29 191.862H115.366V192.362H119.29V191.862ZM115.521 192.308C116.637 191.427 117.626 190.601 118.336 189.785C119.045 188.969 119.504 188.132 119.504 187.228H119.004C119.004 187.956 118.636 188.679 117.959 189.456C117.283 190.233 116.328 191.033 115.211 191.916L115.521 192.308ZM119.504 187.228C119.504 186.35 119.127 185.69 118.562 185.255C118.005 184.827 117.276 184.626 116.566 184.626V185.126C117.189 185.126 117.804 185.303 118.258 185.652C118.704 185.994 119.004 186.51 119.004 187.228H119.504ZM116.566 184.626C115.377 184.626 114.251 185.094 113.582 185.986L113.982 186.286C114.538 185.546 115.5 185.126 116.566 185.126V184.626ZM113.602 186.309L114.214 186.945L114.575 186.599L113.963 185.963L113.602 186.309ZM114.592 186.926C115.012 186.387 115.683 186.014 116.566 186.014V185.514C115.53 185.514 114.713 185.957 114.197 186.618L114.592 186.926ZM116.566 186.014C116.942 186.014 117.305 186.113 117.567 186.309C117.82 186.499 117.996 186.791 117.996 187.228H118.496C118.496 186.633 118.246 186.193 117.867 185.909C117.496 185.631 117.019 185.514 116.566 185.514V186.014ZM117.996 187.228C117.996 187.818 117.661 188.435 116.92 189.211C116.181 189.983 115.083 190.869 113.64 191.999L113.949 192.393C115.385 191.267 116.513 190.359 117.281 189.556C118.046 188.757 118.496 188.018 118.496 187.228H117.996ZM113.544 192.196V193H114.044V192.196H113.544ZM113.794 193.25H119.29V192.75H113.794V193.25ZM126.345 193V193.25H126.595V193H126.345ZM126.345 192.112H126.595V191.862H126.345V192.112ZM122.421 192.112L122.266 191.916L121.702 192.362H122.421V192.112ZM120.837 186.136L120.637 185.986L120.51 186.156L120.657 186.309L120.837 186.136ZM121.449 186.772L121.269 186.945L121.469 187.153L121.646 186.926L121.449 186.772ZM120.849 192.196L120.695 191.999L120.599 192.074V192.196H120.849ZM120.849 193H120.599V193.25H120.849V193ZM126.595 193V192.112H126.095V193H126.595ZM126.345 191.862H122.421V192.362H126.345V191.862ZM122.576 192.308C123.692 191.427 124.681 190.601 125.391 189.785C126.1 188.969 126.559 188.132 126.559 187.228H126.059C126.059 187.956 125.69 188.679 125.014 189.456C124.338 190.233 123.383 191.033 122.266 191.916L122.576 192.308ZM126.559 187.228C126.559 186.35 126.182 185.69 125.617 185.255C125.059 184.827 124.331 184.626 123.621 184.626V185.126C124.244 185.126 124.859 185.303 125.312 185.652C125.758 185.994 126.059 186.51 126.059 187.228H126.559ZM123.621 184.626C122.432 184.626 121.306 185.094 120.637 185.986L121.037 186.286C121.592 185.546 122.554 185.126 123.621 185.126V184.626ZM120.657 186.309L121.269 186.945L121.629 186.599L121.017 185.963L120.657 186.309ZM121.646 186.926C122.066 186.387 122.737 186.014 123.621 186.014V185.514C122.585 185.514 121.768 185.957 121.252 186.618L121.646 186.926ZM123.621 186.014C123.996 186.014 124.359 186.113 124.622 186.309C124.875 186.499 125.051 186.791 125.051 187.228H125.551C125.551 186.633 125.301 186.193 124.922 185.909C124.551 185.631 124.074 185.514 123.621 185.514V186.014ZM125.051 187.228C125.051 187.818 124.716 188.435 123.974 189.211C123.236 189.983 122.138 190.869 120.695 191.999L121.003 192.393C122.44 191.267 123.568 190.359 124.336 189.556C125.1 188.757 125.551 188.018 125.551 187.228H125.051ZM120.599 192.196V193H121.099V192.196H120.599ZM120.849 193.25H126.345V192.75H120.849V193.25Z" fill="black"/>
<line x1="77" y1="189.5" x2="92" y2="189.5" stroke="black"/>
<line x1="134" y1="189.5" x2="149" y2="189.5" stroke="black"/>
</svg>
