<svg xmlns="http://www.w3.org/2000/svg" xmlns:xlink="http://www.w3.org/1999/xlink" width="200" zoomAndPan="magnify" viewBox="0 0 150 38.999999" height="52" preserveAspectRatio="xMidYMid meet" version="1.0"><path fill="#cb2d2d" d="M 11.355469 10.328125 C 8.402344 11.9375 5.996094 13.285156 6.003906 13.316406 C 6.011719 13.34375 8.441406 14.699219 11.40625 16.3125 L 16.789062 19.253906 L 19.667969 17.679688 C 21.257812 16.8125 23.257812 15.722656 24.105469 15.25 L 25.65625 14.40625 L 25.679688 17.820312 L 25.695312 21.242188 L 27.6875 21.242188 L 27.6875 13.324219 L 24.644531 11.660156 C 22.96875 10.746094 20.554688 9.429688 19.277344 8.730469 C 18 8.03125 16.90625 7.449219 16.839844 7.425781 C 16.773438 7.410156 14.308594 8.714844 11.355469 10.328125 Z M 11.355469 10.328125 " fill-opacity="1" fill-rule="nonzero"/><path fill="#cb2d2d" d="M 44.15625 13.085938 C 44.15625 13.867188 44.1875 14.667969 44.21875 14.859375 L 44.277344 15.214844 L 43.9375 14.882812 C 43.441406 14.40625 42.992188 14.222656 42.269531 14.222656 C 41.558594 14.222656 41.035156 14.425781 40.585938 14.882812 C 39.855469 15.621094 39.492188 17.15625 39.714844 18.578125 C 39.988281 20.332031 40.84375 21.199219 42.269531 21.199219 C 42.917969 21.191406 43.390625 20.992188 43.863281 20.535156 L 44.203125 20.207031 L 44.394531 20.648438 L 44.585938 21.097656 L 45.996094 21.097656 L 45.996094 11.675781 L 44.152344 11.675781 Z M 43.484375 15.839844 C 44.085938 16.082031 44.378906 17.078125 44.222656 18.3125 C 44.113281 19.210938 43.855469 19.566406 43.21875 19.699219 C 42.140625 19.925781 41.550781 19.242188 41.550781 17.761719 C 41.550781 16.730469 41.757812 16.164062 42.246094 15.871094 C 42.546875 15.6875 43.074219 15.679688 43.484375 15.839844 Z M 43.484375 15.839844 " fill-opacity="1" fill-rule="nonzero"/><path fill="#cb2d2d" d="M 63.640625 16.386719 L 63.640625 21.097656 L 65.488281 21.097656 L 65.488281 11.675781 L 63.640625 11.675781 Z M 63.640625 16.386719 " fill-opacity="1" fill-rule="nonzero"/><path fill="#ffffff" d="M 111.929688 13.085938 C 111.929688 13.867188 111.960938 14.667969 111.992188 14.859375 L 112.050781 15.214844 L 111.710938 14.882812 C 111.214844 14.40625 110.765625 14.222656 110.042969 14.222656 C 109.332031 14.222656 108.808594 14.425781 108.359375 14.882812 C 107.628906 15.621094 107.265625 17.15625 107.488281 18.578125 C 107.761719 20.332031 108.617188 21.199219 110.042969 21.199219 C 110.691406 21.191406 111.164062 20.992188 111.636719 20.535156 L 111.976562 20.207031 L 112.167969 20.648438 L 112.359375 21.097656 L 113.769531 21.097656 L 113.769531 11.675781 L 111.925781 11.675781 Z M 111.257812 15.839844 C 111.859375 16.082031 112.152344 17.078125 111.996094 18.3125 C 111.886719 19.210938 111.628906 19.566406 110.992188 19.699219 C 109.914062 19.925781 109.324219 19.242188 109.324219 17.761719 C 109.324219 16.730469 109.53125 16.164062 110.019531 15.871094 C 110.320312 15.6875 110.847656 15.679688 111.257812 15.839844 Z M 111.257812 15.839844 " fill-opacity="1" fill-rule="nonzero"/><path fill="#ffffff" d="M 87.457031 12.425781 C 87.363281 12.644531 86.085938 16.265625 84.859375 19.75 L 84.394531 21.097656 L 86.417969 21.097656 L 86.742188 20.027344 L 87.066406 18.960938 L 90.277344 18.960938 L 90.515625 19.710938 C 90.640625 20.132812 90.789062 20.601562 90.839844 20.765625 L 90.933594 21.058594 L 91.953125 21.082031 C 92.75 21.097656 92.957031 21.082031 92.9375 21.007812 C 92.914062 20.957031 92.203125 18.945312 91.355469 16.554688 L 89.8125 12.1875 L 87.554688 12.1875 Z M 89.429688 16.089844 L 89.835938 17.378906 L 88.71875 17.402344 C 88.113281 17.40625 87.597656 17.40625 87.582031 17.386719 C 87.5625 17.363281 88.453125 14.273438 88.644531 13.734375 C 88.660156 13.675781 88.757812 13.890625 88.851562 14.214844 C 88.949219 14.539062 89.207031 15.382812 89.429688 16.089844 Z M 89.429688 16.089844 " fill-opacity="1" fill-rule="nonzero"/><path fill="#cb2d2d" d="M 33.222656 16.679688 L 33.222656 21.097656 L 38.390625 21.097656 L 38.390625 19.550781 L 35.144531 19.550781 L 35.144531 17.269531 L 38.171875 17.269531 L 38.171875 15.722656 L 35.144531 15.722656 L 35.144531 13.808594 L 36.753906 13.792969 L 38.355469 13.773438 L 38.378906 13.011719 L 38.398438 12.261719 L 33.222656 12.261719 Z M 33.222656 16.679688 " fill-opacity="1" fill-rule="nonzero"/><path fill="#cb2d2d" d="M 57.957031 14.257812 C 57.433594 14.347656 56.398438 14.699219 56.355469 14.808594 C 56.332031 14.875 56.773438 15.882812 56.886719 16.003906 C 56.902344 16.015625 57.152344 15.941406 57.453125 15.832031 C 58.097656 15.597656 59.070312 15.507812 59.351562 15.664062 C 59.640625 15.816406 59.816406 16.128906 59.859375 16.523438 L 59.898438 16.898438 L 59.242188 16.898438 C 57.386719 16.90625 56.289062 17.304688 55.875 18.101562 C 55.660156 18.519531 55.609375 19.320312 55.761719 19.851562 C 56.023438 20.734375 56.722656 21.191406 57.808594 21.199219 C 58.644531 21.199219 59.101562 21.039062 59.609375 20.574219 C 59.832031 20.375 60.023438 20.210938 60.046875 20.210938 C 60.058594 20.210938 60.15625 20.410156 60.246094 20.65625 L 60.40625 21.097656 L 61.730469 21.097656 L 61.707031 18.496094 C 61.683594 15.972656 61.675781 15.898438 61.515625 15.53125 C 61.308594 15.074219 60.910156 14.675781 60.464844 14.476562 C 59.839844 14.207031 58.84375 14.117188 57.957031 14.257812 Z M 59.875 18.3125 C 59.875 18.867188 59.765625 19.191406 59.492188 19.453125 C 59.1875 19.75 58.929688 19.84375 58.464844 19.84375 C 57.824219 19.84375 57.59375 19.636719 57.585938 19.0625 C 57.585938 18.378906 57.976562 18.09375 59.0625 18.003906 C 59.410156 17.976562 59.734375 17.945312 59.789062 17.9375 C 59.847656 17.929688 59.875 18.046875 59.875 18.3125 Z M 59.875 18.3125 " fill-opacity="1" fill-rule="nonzero"/><path fill="#cb2d2d" d="M 69.179688 14.226562 C 68.253906 14.339844 67.480469 14.832031 67.175781 15.515625 C 66.933594 16.070312 66.933594 17.011719 67.175781 17.503906 C 67.339844 17.835938 67.78125 18.3125 68.003906 18.386719 C 68.070312 18.410156 67.980469 18.535156 67.722656 18.769531 C 67.15625 19.285156 67.101562 19.824219 67.589844 20.292969 C 67.730469 20.433594 67.847656 20.566406 67.847656 20.59375 C 67.847656 20.617188 67.753906 20.660156 67.636719 20.691406 C 67.324219 20.757812 66.867188 21.109375 66.660156 21.433594 C 66.410156 21.847656 66.417969 22.566406 66.683594 23.015625 C 67.097656 23.714844 67.761719 23.980469 69.25 24.027344 C 70.867188 24.070312 71.804688 23.820312 72.53125 23.15625 C 73.023438 22.699219 73.203125 22.289062 73.195312 21.574219 C 73.195312 20.691406 72.921875 20.242188 72.167969 19.910156 C 71.84375 19.765625 71.636719 19.734375 70.46875 19.699219 C 69.164062 19.660156 68.824219 19.59375 68.800781 19.382812 C 68.78125 19.203125 68.824219 19.070312 68.941406 18.9375 C 69.046875 18.828125 69.132812 18.808594 69.40625 18.84375 C 69.886719 18.910156 70.765625 18.769531 71.246094 18.550781 C 72.085938 18.167969 72.5 17.535156 72.5 16.621094 C 72.5 16.3125 72.457031 15.972656 72.390625 15.816406 C 72.332031 15.679688 72.277344 15.546875 72.277344 15.539062 C 72.277344 15.523438 72.515625 15.457031 72.796875 15.390625 L 73.3125 15.265625 L 73.3125 14.339844 L 71.746094 14.292969 C 70.882812 14.273438 70.011719 14.234375 69.804688 14.222656 C 69.605469 14.207031 69.316406 14.207031 69.179688 14.226562 Z M 70.34375 15.472656 C 70.609375 15.65625 70.734375 15.988281 70.742188 16.488281 C 70.75 17.34375 70.433594 17.710938 69.71875 17.710938 C 69.273438 17.710938 69.058594 17.570312 68.875 17.164062 C 68.625 16.605469 68.726562 15.863281 69.113281 15.546875 C 69.296875 15.390625 69.414062 15.355469 69.761719 15.355469 C 70.019531 15.355469 70.242188 15.398438 70.34375 15.472656 Z M 70.941406 21.25 C 71.378906 21.339844 71.570312 21.53125 71.570312 21.867188 C 71.570312 22.199219 71.265625 22.515625 70.808594 22.679688 C 70.359375 22.839844 69.230469 22.90625 68.816406 22.789062 C 67.835938 22.523438 67.828125 21.539062 68.800781 21.234375 C 69.089844 21.15625 70.523438 21.164062 70.941406 21.25 Z M 70.941406 21.25 " fill-opacity="1" fill-rule="nonzero"/><path fill="#cb2d2d" d="M 76.507812 14.28125 C 75.3125 14.507812 74.480469 15.304688 74.160156 16.511719 C 74.019531 17.054688 74.019531 18.292969 74.160156 18.835938 C 74.597656 20.515625 76.042969 21.425781 77.859375 21.167969 C 79.460938 20.949219 80.40625 19.882812 80.578125 18.113281 C 80.71875 16.714844 80.191406 15.40625 79.25 14.757812 C 78.5625 14.292969 77.476562 14.101562 76.507812 14.28125 Z M 78.042969 15.890625 C 78.183594 15.980469 78.375 16.214844 78.480469 16.421875 C 78.648438 16.753906 78.664062 16.878906 78.664062 17.710938 C 78.664062 18.542969 78.648438 18.667969 78.480469 19 C 78.222656 19.519531 77.917969 19.699219 77.304688 19.699219 C 76.664062 19.699219 76.390625 19.535156 76.148438 19.003906 C 75.824219 18.292969 75.835938 16.980469 76.175781 16.320312 C 76.398438 15.890625 76.714844 15.722656 77.300781 15.722656 C 77.691406 15.722656 77.84375 15.757812 78.042969 15.890625 Z M 78.042969 15.890625 " fill-opacity="1" fill-rule="nonzero"/><path fill="#ffffff" d="M 96.199219 14.257812 C 95.4375 14.367188 94.945312 14.605469 94.457031 15.089844 C 93.753906 15.796875 93.496094 16.628906 93.5625 18.042969 C 93.628906 19.632812 94.210938 20.617188 95.3125 20.992188 C 96.222656 21.300781 97.609375 21.273438 98.382812 20.917969 L 98.78125 20.734375 L 98.78125 19.960938 C 98.78125 19.527344 98.769531 19.183594 98.753906 19.183594 C 98.738281 19.183594 98.503906 19.285156 98.222656 19.417969 C 97.609375 19.703125 96.707031 19.785156 96.265625 19.601562 C 95.609375 19.328125 95.277344 18.304688 95.460938 17.152344 C 95.554688 16.539062 95.777344 16.121094 96.117188 15.890625 C 96.472656 15.65625 97.164062 15.65625 97.882812 15.898438 C 98.496094 16.113281 98.421875 16.171875 98.746094 15.257812 C 98.980469 14.605469 98.988281 14.617188 98.375 14.433594 C 97.617188 14.199219 96.9375 14.148438 96.199219 14.257812 Z M 96.199219 14.257812 " fill-opacity="1" fill-rule="nonzero"/><path fill="#ffffff" d="M 102.179688 14.257812 C 101.65625 14.347656 100.621094 14.699219 100.578125 14.808594 C 100.554688 14.875 100.996094 15.882812 101.109375 16.003906 C 101.125 16.015625 101.375 15.941406 101.675781 15.832031 C 102.320312 15.597656 103.292969 15.507812 103.574219 15.664062 C 103.863281 15.816406 104.039062 16.128906 104.082031 16.523438 L 104.121094 16.898438 L 103.464844 16.898438 C 101.609375 16.90625 100.511719 17.304688 100.097656 18.101562 C 99.882812 18.519531 99.832031 19.320312 99.984375 19.851562 C 100.246094 20.734375 100.945312 21.191406 102.03125 21.199219 C 102.867188 21.199219 103.324219 21.039062 103.832031 20.574219 C 104.054688 20.375 104.246094 20.210938 104.269531 20.210938 C 104.28125 20.210938 104.378906 20.410156 104.46875 20.65625 L 104.628906 21.097656 L 105.953125 21.097656 L 105.929688 18.496094 C 105.90625 15.972656 105.898438 15.898438 105.738281 15.53125 C 105.53125 15.074219 105.132812 14.675781 104.6875 14.476562 C 104.0625 14.207031 103.066406 14.117188 102.179688 14.257812 Z M 104.097656 18.3125 C 104.097656 18.867188 103.988281 19.191406 103.714844 19.453125 C 103.410156 19.75 103.152344 19.84375 102.6875 19.84375 C 102.046875 19.84375 101.816406 19.636719 101.808594 19.0625 C 101.808594 18.378906 102.199219 18.09375 103.285156 18.003906 C 103.632812 17.976562 103.957031 17.945312 104.011719 17.9375 C 104.070312 17.929688 104.097656 18.046875 104.097656 18.3125 Z M 104.097656 18.3125 " fill-opacity="1" fill-rule="nonzero"/><path fill="#ffffff" d="M 117.835938 14.257812 C 117.203125 14.367188 116.621094 14.667969 116.214844 15.089844 C 115.511719 15.832031 115.289062 16.578125 115.34375 17.96875 C 115.363281 18.644531 115.410156 18.945312 115.535156 19.253906 C 115.882812 20.148438 116.605469 20.785156 117.550781 21.058594 C 118.441406 21.316406 120.230469 21.199219 120.929688 20.839844 L 121.152344 20.71875 L 121.152344 20.027344 C 121.152344 19.644531 121.136719 19.328125 121.121094 19.328125 C 121.109375 19.328125 120.953125 19.394531 120.777344 19.46875 C 120.050781 19.785156 118.835938 19.925781 118.238281 19.765625 C 117.832031 19.652344 117.359375 19.152344 117.253906 18.71875 C 117.09375 18.101562 116.90625 18.152344 119.351562 18.152344 L 121.535156 18.152344 L 121.507812 17.246094 C 121.484375 16.546875 121.441406 16.261719 121.308594 15.9375 C 121.128906 15.464844 120.671875 14.914062 120.265625 14.65625 C 119.699219 14.292969 118.613281 14.117188 117.835938 14.257812 Z M 118.996094 15.613281 C 119.144531 15.679688 119.34375 15.804688 119.441406 15.890625 C 119.617188 16.054688 119.867188 16.773438 119.785156 16.898438 C 119.757812 16.945312 119.253906 16.972656 118.488281 16.972656 L 117.238281 16.972656 L 117.246094 16.769531 C 117.269531 15.863281 118.164062 15.273438 118.996094 15.613281 Z M 118.996094 15.613281 " fill-opacity="1" fill-rule="nonzero"/><path fill="#ffffff" d="M 126.253906 14.257812 C 125.773438 14.351562 125.332031 14.589844 125.035156 14.921875 C 124.886719 15.074219 124.753906 15.207031 124.742188 15.207031 C 124.726562 15.207031 124.660156 15.007812 124.59375 14.765625 L 124.46875 14.324219 L 123.070312 14.324219 L 123.070312 21.097656 L 124.917969 21.097656 L 124.917969 19.144531 C 124.917969 17.097656 124.96875 16.621094 125.234375 16.230469 C 125.507812 15.832031 125.746094 15.699219 126.203125 15.691406 C 126.726562 15.6875 126.976562 15.863281 127.148438 16.355469 C 127.257812 16.664062 127.273438 17.039062 127.28125 18.902344 L 127.28125 21.097656 L 129.117188 21.097656 L 129.140625 18.9375 C 129.164062 16.929688 129.171875 16.769531 129.316406 16.457031 C 129.515625 16.03125 129.746094 15.832031 130.144531 15.730469 C 130.515625 15.625 130.957031 15.722656 131.148438 15.9375 C 131.453125 16.265625 131.480469 16.554688 131.488281 18.867188 L 131.488281 21.097656 L 133.335938 21.097656 L 133.335938 18.578125 C 133.335938 15.738281 133.296875 15.441406 132.839844 14.914062 C 132.515625 14.539062 132.160156 14.351562 131.554688 14.25 C 130.660156 14.09375 129.746094 14.359375 129.242188 14.921875 C 129.097656 15.074219 128.957031 15.207031 128.925781 15.207031 C 128.90625 15.207031 128.765625 15.074219 128.625 14.914062 C 128.304688 14.539062 127.945312 14.351562 127.347656 14.25 C 126.808594 14.167969 126.703125 14.167969 126.253906 14.257812 Z M 126.253906 14.257812 " fill-opacity="1" fill-rule="nonzero"/><path fill="#cb2d2d" d="M 47.929688 16.988281 C 47.953125 19.636719 47.953125 19.660156 48.128906 20.015625 C 48.460938 20.683594 48.941406 21.023438 49.753906 21.167969 C 50.648438 21.332031 51.695312 21.03125 52.183594 20.476562 C 52.308594 20.332031 52.433594 20.210938 52.449219 20.210938 C 52.472656 20.210938 52.542969 20.410156 52.609375 20.65625 L 52.738281 21.097656 L 54.191406 21.097656 L 54.175781 17.726562 L 54.152344 14.359375 L 53.214844 14.339844 L 52.273438 14.316406 L 52.273438 16.332031 C 52.273438 17.910156 52.25 18.425781 52.160156 18.71875 C 51.953125 19.410156 51.5625 19.71875 50.863281 19.726562 C 50.359375 19.734375 50.09375 19.578125 49.902344 19.160156 C 49.777344 18.878906 49.761719 18.652344 49.761719 16.582031 L 49.761719 14.324219 L 47.910156 14.324219 Z M 47.929688 16.988281 " fill-opacity="1" fill-rule="nonzero"/><path fill="#ffffff" d="M 134.390625 14.558594 C 134.441406 14.691406 135.046875 16.199219 135.734375 17.910156 L 136.980469 21.023438 L 136.847656 21.433594 C 136.757812 21.722656 136.621094 21.949219 136.398438 22.171875 C 136.042969 22.523438 135.800781 22.597656 135.148438 22.554688 L 134.738281 22.53125 L 134.738281 23.246094 C 134.738281 24.097656 134.699219 24.070312 135.785156 24.027344 C 136.339844 24.003906 136.554688 23.96875 136.890625 23.804688 C 137.445312 23.546875 137.910156 23.105469 138.199219 22.566406 C 138.332031 22.324219 139.011719 20.59375 139.71875 18.71875 C 140.421875 16.847656 141.085938 15.089844 141.1875 14.816406 L 141.375 14.316406 L 140.371094 14.339844 L 139.367188 14.359375 L 138.640625 16.570312 C 138.242188 17.785156 137.917969 18.894531 137.910156 19.035156 C 137.910156 19.226562 137.890625 19.261719 137.835938 19.183594 C 137.800781 19.125 137.765625 18.976562 137.765625 18.859375 C 137.765625 18.742188 137.4375 17.671875 137.046875 16.488281 L 136.332031 14.324219 L 134.292969 14.324219 Z M 134.390625 14.558594 " fill-opacity="1" fill-rule="nonzero"/><path fill="#cb2d2d" d="M 9.894531 19.453125 L 9.894531 21.425781 L 13.289062 23.28125 C 15.152344 24.304688 16.730469 25.144531 16.789062 25.144531 C 16.847656 25.144531 17.851562 24.621094 19.027344 23.980469 C 20.195312 23.339844 21.730469 22.503906 22.421875 22.121094 L 23.699219 21.425781 L 23.699219 19.453125 C 23.699219 18.371094 23.683594 17.488281 23.671875 17.488281 C 23.65625 17.488281 23.199219 17.730469 22.660156 18.027344 C 22.113281 18.328125 20.570312 19.175781 19.226562 19.902344 L 16.789062 21.242188 L 13.617188 19.507812 C 11.875 18.550781 10.324219 17.703125 10.175781 17.628906 L 9.894531 17.488281 Z M 9.894531 19.453125 " fill-opacity="1" fill-rule="nonzero"/></svg>