<svg xmlns="http://www.w3.org/2000/svg" xmlns:xlink="http://www.w3.org/1999/xlink" width="200" zoomAndPan="magnify" viewBox="0 0 150 38.999999" height="52" preserveAspectRatio="xMidYMid meet" version="1.0"><defs><g/><clipPath id="49533ff90a"><path d="M 32 17 L 37.648438 17 L 37.648438 28 L 32 28 Z M 32 17 " clip-rule="nonzero"/></clipPath><clipPath id="2e409eebb8"><path d="M 18 7.675781 L 32 7.675781 L 32 25 L 18 25 Z M 18 7.675781 " clip-rule="nonzero"/></clipPath><clipPath id="d8b6610161"><path d="M 3.898438 14 L 20 14 L 20 25 L 3.898438 25 Z M 3.898438 14 " clip-rule="nonzero"/></clipPath><clipPath id="05a67cc7ef"><path d="M 3.898438 25 L 27 25 L 27 31.675781 L 3.898438 31.675781 Z M 3.898438 25 " clip-rule="nonzero"/></clipPath></defs><path fill="#d1d3d4" d="M 30.179688 10.007812 L 28.109375 12.640625 C 28.320312 12.777344 28.519531 12.914062 28.726562 13.0625 L 32.539062 11.769531 C 31.8125 11.101562 31.027344 10.511719 30.179688 10.007812 Z M 30.179688 10.007812 " fill-opacity="1" fill-rule="nonzero"/><g clip-path="url(#49533ff90a)"><path fill="#d1d3d4" d="M 32.226562 27.988281 L 36.246094 27.988281 C 36.933594 26.226562 37.269531 24.394531 37.257812 22.5 C 37.246094 20.601562 36.882812 18.777344 36.171875 17.023438 L 33.101562 19.507812 C 33.480469 20.929688 33.59375 22.371094 33.441406 23.832031 C 33.292969 25.296875 32.886719 26.679688 32.226562 27.988281 Z M 32.226562 27.988281 " fill-opacity="1" fill-rule="nonzero"/></g><path fill="#d1d3d4" d="M 10.890625 19.3125 C 11.058594 18.71875 11.273438 18.144531 11.53125 17.589844 C 11.789062 17.03125 12.085938 16.496094 12.425781 15.988281 C 12.765625 15.476562 13.140625 15 13.554688 14.550781 C 13.96875 14.101562 14.414062 13.6875 14.890625 13.308594 C 15.371094 12.929688 15.871094 12.59375 16.402344 12.296875 C 16.929688 11.996094 17.480469 11.746094 18.046875 11.535156 C 18.617188 11.324219 19.195312 11.164062 19.789062 11.046875 C 20.382812 10.929688 20.984375 10.859375 21.585938 10.839844 L 23.058594 8.007812 L 22.949219 8.007812 C 22.144531 8.007812 21.347656 8.078125 20.554688 8.214844 C 19.765625 8.351562 18.988281 8.554688 18.230469 8.824219 C 17.472656 9.09375 16.742188 9.425781 16.039062 9.820312 C 15.335938 10.21875 14.671875 10.667969 14.042969 11.179688 C 13.414062 11.6875 12.832031 12.25 12.296875 12.859375 C 11.761719 13.46875 11.277344 14.117188 10.851562 14.808594 C 10.421875 15.503906 10.050781 16.226562 9.742188 16.980469 C 9.433594 17.738281 9.1875 18.515625 9.007812 19.3125 Z M 10.890625 19.3125 " fill-opacity="1" fill-rule="nonzero"/><g clip-path="url(#2e409eebb8)"><path fill="#5271ff" d="M 24.6875 7.675781 L 19.078125 18.503906 L 22.5625 17.601562 L 18.695312 24.242188 L 31.328125 13.527344 L 24.367188 15.300781 L 30.359375 7.675781 Z M 24.6875 7.675781 " fill-opacity="1" fill-rule="nonzero"/></g><g clip-path="url(#d8b6610161)"><path fill="#000000" d="M 17.667969 24.902344 L 19.914062 19.574219 L 16.359375 20.933594 L 19.535156 14.808594 C 18.601562 14.890625 17.722656 15.144531 16.886719 15.574219 C 16.054688 16 15.328125 16.570312 14.707031 17.285156 L 11.800781 20.628906 L 8.058594 20.628906 C 7.789062 20.628906 7.519531 20.65625 7.253906 20.707031 C 6.988281 20.761719 6.730469 20.839844 6.480469 20.949219 C 6.230469 21.054688 5.992188 21.183594 5.765625 21.335938 C 5.539062 21.488281 5.332031 21.664062 5.140625 21.859375 C 4.949219 22.054688 4.777344 22.265625 4.628906 22.496094 C 4.476562 22.726562 4.351562 22.96875 4.246094 23.222656 C 4.144531 23.480469 4.066406 23.742188 4.011719 24.011719 C 3.957031 24.285156 3.933594 24.558594 3.933594 24.835938 L 3.933594 24.902344 Z M 17.667969 24.902344 " fill-opacity="1" fill-rule="nonzero"/></g><path fill="#000000" d="M 36.160156 14.777344 L 31.988281 14.777344 L 19.527344 24.902344 L 27.316406 24.902344 L 32.359375 20.035156 L 29.328125 20.035156 Z M 36.160156 14.777344 " fill-opacity="1" fill-rule="nonzero"/><g clip-path="url(#05a67cc7ef)"><path fill="#000000" d="M 3.933594 25.886719 L 3.933594 27.167969 C 3.933594 27.414062 4.015625 27.625 4.1875 27.796875 C 4.355469 27.96875 4.5625 28.058594 4.804688 28.058594 L 6.585938 28.058594 C 6.671875 28.566406 6.84375 29.042969 7.097656 29.488281 C 7.351562 29.933594 7.671875 30.320312 8.058594 30.652344 C 8.449219 30.984375 8.878906 31.238281 9.355469 31.414062 C 9.828125 31.589844 10.320312 31.675781 10.824219 31.675781 C 11.332031 31.675781 11.820312 31.589844 12.296875 31.414062 C 12.773438 31.238281 13.203125 30.984375 13.589844 30.652344 C 13.976562 30.320312 14.300781 29.933594 14.550781 29.488281 C 14.804688 29.042969 14.976562 28.566406 15.066406 28.058594 L 24.042969 28.058594 L 26.292969 25.886719 Z M 3.933594 25.886719 " fill-opacity="1" fill-rule="nonzero"/></g><g fill="#000000" fill-opacity="1"><g transform="translate(42.438963, 25.379804)"><g><path d="M 9.546875 -13.9375 L 9.546875 -12.21875 L 3.1875 -12.21875 L 3.1875 -7.8125 L 8.921875 -7.8125 L 8.921875 -6.125 L 3.1875 -6.125 L 3.1875 -1.71875 L 9.546875 -1.71875 L 9.546875 0 L 1.40625 0 L 1.40625 -13.9375 Z M 9.546875 -13.9375 "/></g></g></g><g fill="#000000" fill-opacity="1"><g transform="translate(54.716686, 25.379804)"><g><path d="M 7.015625 0 L 5.140625 0 L 0.234375 -13.9375 L 2.21875 -13.9375 L 6.03125 -2.625 L 6.109375 -2.625 L 10.078125 -13.9375 L 12.078125 -13.9375 Z M 7.015625 0 "/></g></g></g><g fill="#000000" fill-opacity="1"><g transform="translate(68.745398, 25.379804)"><g/></g></g><g fill="#000000" fill-opacity="1"><g transform="translate(74.758438, 25.379804)"><g><path d="M 1.40625 0 L 1.40625 -13.9375 L 6.4375 -13.9375 C 7.539062 -13.9375 8.488281 -13.570312 9.28125 -12.84375 C 10.070312 -12.132812 10.46875 -11.234375 10.46875 -10.140625 C 10.46875 -8.765625 9.835938 -7.800781 8.578125 -7.25 L 8.578125 -7.171875 C 9.296875 -6.929688 9.867188 -6.519531 10.296875 -5.9375 C 10.722656 -5.363281 10.9375 -4.707031 10.9375 -3.96875 C 10.9375 -2.832031 10.523438 -1.882812 9.703125 -1.125 C 8.890625 -0.375 7.894531 0 6.71875 0 Z M 3.1875 -12.21875 L 3.1875 -7.96875 L 6.4375 -7.96875 C 7.070312 -7.96875 7.609375 -8.179688 8.046875 -8.609375 C 8.472656 -9.046875 8.6875 -9.546875 8.6875 -10.109375 C 8.6875 -10.648438 8.476562 -11.140625 8.0625 -11.578125 C 7.644531 -12.003906 7.128906 -12.21875 6.515625 -12.21875 Z M 3.1875 -6.28125 L 3.1875 -1.71875 L 6.796875 -1.71875 C 7.441406 -1.71875 7.992188 -1.941406 8.453125 -2.390625 C 8.890625 -2.847656 9.109375 -3.390625 9.109375 -4.015625 C 9.109375 -4.617188 8.882812 -5.148438 8.4375 -5.609375 C 7.976562 -6.054688 7.40625 -6.28125 6.71875 -6.28125 Z M 3.1875 -6.28125 "/></g></g></g><g fill="#000000" fill-opacity="1"><g transform="translate(88.04784, 25.379804)"><g><path d="M 6.25 0.3125 C 4.707031 0.3125 3.460938 -0.191406 2.515625 -1.203125 C 1.566406 -2.203125 1.09375 -3.523438 1.09375 -5.171875 L 1.09375 -13.9375 L 2.875 -13.9375 L 2.875 -5.09375 C 2.875 -3.957031 3.171875 -3.054688 3.765625 -2.390625 C 4.367188 -1.734375 5.195312 -1.40625 6.25 -1.40625 C 7.300781 -1.40625 8.125 -1.734375 8.71875 -2.390625 C 9.320312 -3.054688 9.625 -3.957031 9.625 -5.09375 L 9.625 -13.9375 L 11.40625 -13.9375 L 11.40625 -5.171875 C 11.40625 -3.484375 10.9375 -2.148438 10 -1.171875 C 9.070312 -0.179688 7.820312 0.3125 6.25 0.3125 Z M 6.25 0.3125 "/></g></g></g><g fill="#000000" fill-opacity="1"><g transform="translate(102.271111, 25.379804)"><g><path d="M 1.40625 0 L 1.40625 -13.9375 L 5.671875 -13.9375 C 7.796875 -13.9375 9.503906 -13.289062 10.796875 -12 C 12.085938 -10.71875 12.734375 -9.039062 12.734375 -6.96875 C 12.734375 -4.875 12.085938 -3.1875 10.796875 -1.90625 C 9.503906 -0.632812 7.796875 0 5.671875 0 Z M 3.1875 -12.21875 L 3.1875 -1.71875 L 5.671875 -1.71875 C 7.285156 -1.71875 8.5625 -2.179688 9.5 -3.109375 C 10.4375 -4.035156 10.90625 -5.320312 10.90625 -6.96875 C 10.90625 -8.601562 10.4375 -9.882812 9.5 -10.8125 C 8.5625 -11.75 7.285156 -12.21875 5.671875 -12.21875 Z M 3.1875 -12.21875 "/></g></g></g><g fill="#000000" fill-opacity="1"><g transform="translate(117.447702, 25.379804)"><g><path d="M 1.40625 0 L 1.40625 -13.9375 L 5.671875 -13.9375 C 7.796875 -13.9375 9.503906 -13.289062 10.796875 -12 C 12.085938 -10.71875 12.734375 -9.039062 12.734375 -6.96875 C 12.734375 -4.875 12.085938 -3.1875 10.796875 -1.90625 C 9.503906 -0.632812 7.796875 0 5.671875 0 Z M 3.1875 -12.21875 L 3.1875 -1.71875 L 5.671875 -1.71875 C 7.285156 -1.71875 8.5625 -2.179688 9.5 -3.109375 C 10.4375 -4.035156 10.90625 -5.320312 10.90625 -6.96875 C 10.90625 -8.601562 10.4375 -9.882812 9.5 -10.8125 C 8.5625 -11.75 7.285156 -12.21875 5.671875 -12.21875 Z M 3.1875 -12.21875 "/></g></g></g><g fill="#000000" fill-opacity="1"><g transform="translate(132.624292, 25.379804)"><g><path d="M 6.71875 -6.484375 L 6.71875 0 L 4.921875 0 L 4.921875 -6.484375 L 0.234375 -13.9375 L 2.34375 -13.9375 L 5.78125 -8.28125 L 5.859375 -8.28125 L 9.234375 -13.9375 L 11.328125 -13.9375 Z M 6.71875 -6.484375 "/></g></g></g></svg>