<svg xmlns="http://www.w3.org/2000/svg" xmlns:xlink="http://www.w3.org/1999/xlink" width="400" zoomAndPan="magnify" viewBox="0 0 300 299.999988" height="400" preserveAspectRatio="xMidYMid meet" version="1.0"><defs><g/></defs><g fill="#000000" fill-opacity="1"><g transform="translate(69.553199, 112.061114)"><g><path d="M 13.609375 -20.90625 L 13.609375 -16.734375 L 6.28125 -16.734375 L 6.28125 -12.578125 L 13.046875 -12.578125 L 13.046875 -8.390625 L 6.28125 -8.390625 L 6.28125 0 L 1.515625 0 L 1.515625 -20.90625 Z M 13.609375 -20.90625 "/></g></g></g><g fill="#000000" fill-opacity="1"><g transform="translate(104.204146, 112.061114)"><g><path d="M 17.59375 -20.90625 L 17.59375 -7.421875 C 17.59375 -4.859375 16.898438 -2.914062 15.515625 -1.59375 C 14.128906 -0.28125 12.097656 0.375 9.421875 0.375 C 6.753906 0.375 4.726562 -0.28125 3.34375 -1.59375 C 1.957031 -2.914062 1.265625 -4.859375 1.265625 -7.421875 L 1.265625 -20.90625 L 6.03125 -20.90625 L 6.03125 -8.8125 C 6.03125 -7.125 6.296875 -5.953125 6.828125 -5.296875 C 7.359375 -4.640625 8.222656 -4.3125 9.421875 -4.3125 C 10.628906 -4.3125 11.5 -4.640625 12.03125 -5.296875 C 12.5625 -5.953125 12.828125 -7.125 12.828125 -8.8125 L 12.828125 -20.90625 Z M 17.59375 -20.90625 "/></g></g></g><g fill="#000000" fill-opacity="1"><g transform="translate(143.341397, 112.061114)"><g><path d="M 18.8125 0 L 17.8125 -12.390625 L 17.6875 -12.390625 L 13.40625 -0.125 L 10.5625 -0.125 L 6.28125 -12.390625 L 6.15625 -12.390625 L 5.171875 0 L 0.40625 0 L 2.28125 -20.90625 L 7.34375 -20.90625 L 11.984375 -8.84375 L 16.625 -20.90625 L 21.6875 -20.90625 L 23.5625 0 Z M 18.8125 0 "/></g></g></g><g fill="#000000" fill-opacity="1"><g transform="translate(187.59861, 112.061114)"><g><path d="M 13.484375 -20.90625 L 13.484375 -16.734375 L 6.28125 -16.734375 L 6.28125 -12.578125 L 13.171875 -12.578125 L 13.171875 -8.390625 L 6.28125 -8.390625 L 6.28125 -4.1875 L 13.484375 -4.1875 L 13.484375 0 L 1.515625 0 L 1.515625 -20.90625 Z M 13.484375 -20.90625 "/></g></g></g><g fill="#000000" fill-opacity="1"><g transform="translate(222.579058, 112.061114)"><g><path d="M 1.515625 -20.90625 L 9 -20.90625 C 11.007812 -20.90625 12.644531 -20.367188 13.90625 -19.296875 C 15.175781 -18.222656 15.8125 -16.691406 15.8125 -14.703125 C 15.8125 -13.160156 15.425781 -11.867188 14.65625 -10.828125 C 13.894531 -9.796875 12.851562 -9.066406 11.53125 -8.640625 L 18.734375 0 L 12.671875 0 L 6.28125 -8.265625 L 6.28125 0 L 1.515625 0 Z M 6.28125 -11.625 L 6.84375 -11.625 C 7.28125 -11.625 7.648438 -11.632812 7.953125 -11.65625 C 8.265625 -11.675781 8.613281 -11.734375 9 -11.828125 C 9.382812 -11.929688 9.695312 -12.078125 9.9375 -12.265625 C 10.175781 -12.453125 10.378906 -12.722656 10.546875 -13.078125 C 10.710938 -13.429688 10.796875 -13.859375 10.796875 -14.359375 C 10.796875 -14.867188 10.710938 -15.300781 10.546875 -15.65625 C 10.378906 -16.007812 10.175781 -16.28125 9.9375 -16.46875 C 9.695312 -16.65625 9.382812 -16.800781 9 -16.90625 C 8.613281 -17.007812 8.265625 -17.066406 7.953125 -17.078125 C 7.648438 -17.097656 7.28125 -17.109375 6.84375 -17.109375 L 6.28125 -17.109375 Z M 6.28125 -11.625 "/></g></g></g><path stroke-linecap="round" transform="matrix(-0.414896, 0.718621, -0.717926, -0.414495, 73.999951, 116.180916)" fill="none" stroke-linejoin="miter" d="M 0.498504 0.000215717 L 80.92077 0.000634844 " stroke="#000000" stroke-width="1" stroke-opacity="1" stroke-miterlimit="4"/><path stroke-linecap="round" transform="matrix(-0.414896, 0.718621, -0.717926, -0.414495, 39.182336, 176.486791)" fill-opacity="1" fill="#000000" fill-rule="nonzero" stroke-linejoin="round" d="M -2.499705 -1.500742 L -0.499019 -0.00173879 L -2.499216 1.496978 Z M -2.499705 -1.500742 " stroke="#000000" stroke-width="1" stroke-opacity="1" stroke-miterlimit="4"/><path stroke-linecap="round" transform="matrix(-0.16562, 0.813783, -0.812337, -0.165326, 111.632428, 116.181127)" fill="none" stroke-linejoin="miter" d="M 0.501874 -0.00181415 L 47.907835 -0.00160209 " stroke="#000000" stroke-width="1" stroke-opacity="1" stroke-miterlimit="4"/><path stroke-linecap="round" transform="matrix(-0.16562, 0.813783, -0.812337, -0.165326, 103.200686, 157.610862)" fill-opacity="1" fill="#000000" fill-rule="nonzero" stroke-linejoin="round" d="M -2.499916 -1.498526 L -0.501397 -0.00175839 L -2.499935 1.50208 Z M -2.499916 -1.498526 " stroke="#000000" stroke-width="1" stroke-opacity="1" stroke-miterlimit="4"/><path stroke-linecap="round" transform="matrix(0.000000000000000051, 0.828444, -0.82899, 0.000000000000000051, 154.748518, 118.688554)" fill="none" stroke-linejoin="miter" d="M 0.498536 -0.00178752 L 82.45754 -0.00178752 " stroke="#000000" stroke-width="1" stroke-opacity="1" stroke-miterlimit="4"/><path stroke-linecap="round" transform="matrix(0.000000000000000051, 0.828444, -0.82899, 0.000000000000000051, 154.748518, 189.484965)" fill-opacity="1" fill="#000000" fill-rule="nonzero" stroke-linejoin="round" d="M -2.499749 -1.500223 L -0.500519 -0.00178752 L -2.499749 1.50136 Z M -2.499749 -1.500223 " stroke="#000000" stroke-width="1" stroke-opacity="1" stroke-miterlimit="4"/><path stroke-linecap="round" transform="matrix(0.141373, 0.816379, -0.816832, 0.141452, 198.100288, 116.181567)" fill="none" stroke-linejoin="miter" d="M 0.50029 -0.00105176 L 47.630478 0.00237142 " stroke="#000000" stroke-width="1" stroke-opacity="1" stroke-miterlimit="4"/><path stroke-linecap="round" transform="matrix(0.141373, 0.816379, -0.816832, 0.141452, 205.257997, 157.514709)" fill-opacity="1" fill="#000000" fill-rule="nonzero" stroke-linejoin="round" d="M -2.500027 -1.498895 L -0.501211 -0.000441424 L -2.498068 1.499879 Z M -2.500027 -1.498895 " stroke="#000000" stroke-width="1" stroke-opacity="1" stroke-miterlimit="4"/><path stroke-linecap="round" transform="matrix(0.410607, 0.72108, -0.720383, 0.41021, 232.835027, 116.181451)" fill="none" stroke-linejoin="miter" d="M 0.500267 0.00191259 L 80.920653 -0.00120979 " stroke="#000000" stroke-width="1" stroke-opacity="1" stroke-miterlimit="4"/><path stroke-linecap="round" transform="matrix(0.410607, 0.72108, -0.720383, 0.41021, 267.293334, 176.694785)" fill-opacity="1" fill="#000000" fill-rule="nonzero" stroke-linejoin="round" d="M -2.499239 -1.499936 L -0.497146 -0.000890559 L -2.498816 1.498928 Z M -2.499239 -1.499936 " stroke="#000000" stroke-width="1" stroke-opacity="1" stroke-miterlimit="4"/><g fill="#000000" fill-opacity="1"><g transform="translate(8.095148, 192.741996)"><g><path d="M 4.746094 -6.015625 L 4.746094 -6.804688 L 1.066406 -6.804688 L 1.066406 0 L 1.953125 0 L 1.953125 -3.011719 L 4.386719 -3.011719 L 4.386719 -3.792969 L 1.953125 -3.792969 L 1.953125 -6.015625 Z M 4.746094 -6.015625 "/></g></g></g><g fill="#000000" fill-opacity="1"><g transform="translate(13.230697, 192.741996)"><g><path d="M 3.398438 0.09375 C 4.804688 0.09375 5.878906 -0.757812 5.878906 -2.257812 L 5.878906 -6.804688 L 5.015625 -6.804688 L 5.015625 -2.378906 C 5.015625 -1.246094 4.300781 -0.695312 3.398438 -0.695312 C 2.492188 -0.695312 1.792969 -1.238281 1.792969 -2.378906 L 1.792969 -6.804688 L 0.929688 -6.804688 L 0.929688 -2.257812 C 0.929688 -0.757812 2 0.09375 3.398438 0.09375 Z M 3.398438 0.09375 "/></g></g></g><g fill="#000000" fill-opacity="1"><g transform="translate(20.037835, 192.741996)"><g><path d="M 5.640625 -6.804688 L 5.640625 -1.324219 L 1.972656 -6.804688 L 1.066406 -6.804688 L 1.066406 0 L 1.917969 0 L 1.917969 -5.503906 L 5.585938 0 L 6.5 0 L 6.5 -6.804688 Z M 5.640625 -6.804688 "/></g></g></g><g fill="#000000" fill-opacity="1"><g transform="translate(27.60347, 192.741996)"><g><path d="M 3.980469 0.09375 C 5.324219 0.09375 6.457031 -0.570312 6.988281 -1.714844 L 6.191406 -2.039062 C 5.773438 -1.199219 4.953125 -0.734375 3.980469 -0.734375 C 2.570312 -0.734375 1.453125 -1.699219 1.453125 -3.40625 C 1.453125 -5.101562 2.570312 -6.070312 3.980469 -6.070312 C 4.953125 -6.070312 5.773438 -5.601562 6.191406 -4.757812 L 6.988281 -5.089844 C 6.457031 -6.226562 5.324219 -6.894531 3.980469 -6.894531 C 2.0625 -6.894531 0.59375 -5.574219 0.59375 -3.40625 C 0.59375 -1.226562 2.0625 0.09375 3.980469 0.09375 Z M 3.980469 0.09375 "/></g></g></g><g fill="#000000" fill-opacity="1"><g transform="translate(35.004844, 192.741996)"><g><path d="M 4.625 -6.804688 L 0.269531 -6.804688 L 0.269531 -6.015625 L 2.019531 -6.015625 L 2.019531 0 L 2.878906 0 L 2.878906 -6.015625 L 4.625 -6.015625 Z M 4.625 -6.804688 "/></g></g></g><g fill="#000000" fill-opacity="1"><g transform="translate(39.898833, 192.741996)"><g><path d="M 1.066406 0 L 1.933594 0 L 1.933594 -6.804688 L 1.066406 -6.804688 Z M 1.066406 0 "/></g></g></g><g fill="#000000" fill-opacity="1"><g transform="translate(42.898998, 192.741996)"><g><path d="M 3.980469 0.09375 C 5.878906 0.09375 7.359375 -1.226562 7.359375 -3.40625 C 7.359375 -5.574219 5.878906 -6.894531 3.980469 -6.894531 C 2.0625 -6.894531 0.59375 -5.574219 0.59375 -3.40625 C 0.59375 -1.226562 2.0625 0.09375 3.980469 0.09375 Z M 3.980469 -0.726562 C 2.570312 -0.726562 1.453125 -1.691406 1.453125 -3.40625 C 1.453125 -5.101562 2.570312 -6.070312 3.980469 -6.070312 C 5.382812 -6.070312 6.496094 -5.101562 6.496094 -3.40625 C 6.496094 -1.691406 5.382812 -0.726562 3.980469 -0.726562 Z M 3.980469 -0.726562 "/></g></g></g><g fill="#000000" fill-opacity="1"><g transform="translate(50.851127, 192.741996)"><g><path d="M 5.640625 -6.804688 L 5.640625 -1.324219 L 1.972656 -6.804688 L 1.066406 -6.804688 L 1.066406 0 L 1.917969 0 L 1.917969 -5.503906 L 5.585938 0 L 6.5 0 L 6.5 -6.804688 Z M 5.640625 -6.804688 "/></g></g></g><g fill="#000000" fill-opacity="1"><g transform="translate(58.416762, 192.741996)"><g><path d="M 5.4375 0 L 6.339844 0 L 3.832031 -6.804688 L 2.796875 -6.804688 L 0.289062 0 L 1.195312 0 L 1.773438 -1.628906 L 4.851562 -1.628906 Z M 2.046875 -2.390625 L 3.316406 -5.933594 L 4.582031 -2.390625 Z M 2.046875 -2.390625 "/></g></g></g><g fill="#000000" fill-opacity="1"><g transform="translate(65.045146, 192.741996)"><g><path d="M 1.933594 -0.789062 L 1.933594 -6.804688 L 1.066406 -6.804688 L 1.066406 0 L 4.296875 0 L 4.296875 -0.789062 Z M 1.933594 -0.789062 "/></g></g></g><g fill="#000000" fill-opacity="1"><g transform="translate(87.311716, 173.95545)"><g><path d="M 3.398438 0.09375 C 4.804688 0.09375 5.878906 -0.757812 5.878906 -2.257812 L 5.878906 -6.804688 L 5.015625 -6.804688 L 5.015625 -2.378906 C 5.015625 -1.246094 4.300781 -0.695312 3.398438 -0.695312 C 2.492188 -0.695312 1.792969 -1.238281 1.792969 -2.378906 L 1.792969 -6.804688 L 0.929688 -6.804688 L 0.929688 -2.257812 C 0.929688 -0.757812 2 0.09375 3.398438 0.09375 Z M 3.398438 0.09375 "/></g></g></g><g fill="#000000" fill-opacity="1"><g transform="translate(94.118854, 173.95545)"><g><path d="M 3.175781 0.09375 C 4.503906 0.09375 5.574219 -0.535156 5.574219 -1.839844 C 5.574219 -3.222656 4.335938 -3.542969 3.238281 -3.832031 C 2.351562 -4.058594 1.578125 -4.269531 1.578125 -5.03125 C 1.578125 -5.832031 2.296875 -6.144531 3 -6.144531 C 3.789062 -6.144531 4.453125 -5.796875 4.664062 -5.035156 L 5.46875 -5.242188 C 5.214844 -6.382812 4.164062 -6.894531 2.96875 -6.894531 C 1.757812 -6.894531 0.710938 -6.273438 0.710938 -5.015625 C 0.710938 -3.757812 1.761719 -3.433594 2.828125 -3.152344 C 3.773438 -2.894531 4.675781 -2.671875 4.691406 -1.816406 C 4.707031 -0.960938 3.957031 -0.652344 3.1875 -0.652344 C 2.265625 -0.652344 1.566406 -1.105469 1.359375 -1.914062 L 0.507812 -1.710938 C 0.738281 -0.585938 1.757812 0.09375 3.175781 0.09375 Z M 3.175781 0.09375 "/></g></g></g><g fill="#000000" fill-opacity="1"><g transform="translate(100.259289, 173.95545)"><g><path d="M 5.4375 0 L 6.339844 0 L 3.832031 -6.804688 L 2.796875 -6.804688 L 0.289062 0 L 1.195312 0 L 1.773438 -1.628906 L 4.851562 -1.628906 Z M 2.046875 -2.390625 L 3.316406 -5.933594 L 4.582031 -2.390625 Z M 2.046875 -2.390625 "/></g></g></g><g fill="#000000" fill-opacity="1"><g transform="translate(106.887674, 173.95545)"><g><path d="M 4.296875 -3.550781 C 4.839844 -3.8125 5.140625 -4.347656 5.140625 -5 C 5.140625 -6.0625 4.34375 -6.804688 3.132812 -6.804688 L 1.066406 -6.804688 L 1.066406 0 L 3.714844 0 C 4.890625 0 5.640625 -0.761719 5.640625 -1.847656 C 5.640625 -2.785156 5.097656 -3.347656 4.296875 -3.550781 Z M 4.328125 -4.949219 C 4.328125 -4.328125 3.910156 -3.820312 3.285156 -3.820312 L 1.902344 -3.820312 L 1.902344 -6.042969 L 3.125 -6.042969 C 3.878906 -6.042969 4.328125 -5.566406 4.328125 -4.949219 Z M 3.570312 -0.769531 L 1.902344 -0.769531 L 1.902344 -3.105469 L 3.507812 -3.105469 C 4.324219 -3.105469 4.796875 -2.59375 4.796875 -1.933594 C 4.796875 -1.304688 4.347656 -0.769531 3.570312 -0.769531 Z M 3.570312 -0.769531 "/></g></g></g><g fill="#000000" fill-opacity="1"><g transform="translate(113.066758, 173.95545)"><g><path d="M 1.933594 -0.789062 L 1.933594 -6.804688 L 1.066406 -6.804688 L 1.066406 0 L 4.296875 0 L 4.296875 -0.789062 Z M 1.933594 -0.789062 "/></g></g></g><g fill="#000000" fill-opacity="1"><g transform="translate(117.637058, 173.95545)"><g><path d="M 4.714844 -6.015625 L 4.714844 -6.804688 L 1.066406 -6.804688 L 1.066406 0 L 4.714844 0 L 4.714844 -0.789062 L 1.953125 -0.789062 L 1.953125 -3.011719 L 4.386719 -3.011719 L 4.386719 -3.789062 L 1.953125 -3.789062 L 1.953125 -6.015625 Z M 4.714844 -6.015625 "/></g></g></g><g fill="#000000" fill-opacity="1"><g transform="translate(119.641943, 207.628544)"><g><path d="M 8.261719 0 L 7.75 -6.804688 L 6.601562 -6.804688 L 4.53125 -1.496094 L 2.46875 -6.804688 L 1.328125 -6.804688 L 0.8125 0 L 1.65625 0 L 2.117188 -5.59375 L 4.277344 0 L 4.792969 0 L 6.96875 -5.613281 L 7.421875 0 Z M 8.261719 0 "/></g></g></g><g fill="#000000" fill-opacity="1"><g transform="translate(128.714907, 207.628544)"><g><path d="M 5.4375 0 L 6.339844 0 L 3.832031 -6.804688 L 2.796875 -6.804688 L 0.289062 0 L 1.195312 0 L 1.773438 -1.628906 L 4.851562 -1.628906 Z M 2.046875 -2.390625 L 3.316406 -5.933594 L 4.582031 -2.390625 Z M 2.046875 -2.390625 "/></g></g></g><g fill="#000000" fill-opacity="1"><g transform="translate(135.343291, 207.628544)"><g><path d="M 1.066406 0 L 1.933594 0 L 1.933594 -6.804688 L 1.066406 -6.804688 Z M 1.066406 0 "/></g></g></g><g fill="#000000" fill-opacity="1"><g transform="translate(138.343456, 207.628544)"><g><path d="M 5.640625 -6.804688 L 5.640625 -1.324219 L 1.972656 -6.804688 L 1.066406 -6.804688 L 1.066406 0 L 1.917969 0 L 1.917969 -5.503906 L 5.585938 0 L 6.5 0 L 6.5 -6.804688 Z M 5.640625 -6.804688 "/></g></g></g><g fill="#000000" fill-opacity="1"><g transform="translate(145.909091, 207.628544)"><g><path d="M 4.625 -6.804688 L 0.269531 -6.804688 L 0.269531 -6.015625 L 2.019531 -6.015625 L 2.019531 0 L 2.878906 0 L 2.878906 -6.015625 L 4.625 -6.015625 Z M 4.625 -6.804688 "/></g></g></g><g fill="#000000" fill-opacity="1"><g transform="translate(150.80308, 207.628544)"><g><path d="M 5.4375 0 L 6.339844 0 L 3.832031 -6.804688 L 2.796875 -6.804688 L 0.289062 0 L 1.195312 0 L 1.773438 -1.628906 L 4.851562 -1.628906 Z M 2.046875 -2.390625 L 3.316406 -5.933594 L 4.582031 -2.390625 Z M 2.046875 -2.390625 "/></g></g></g><g fill="#000000" fill-opacity="1"><g transform="translate(157.431465, 207.628544)"><g><path d="M 1.066406 0 L 1.933594 0 L 1.933594 -6.804688 L 1.066406 -6.804688 Z M 1.066406 0 "/></g></g></g><g fill="#000000" fill-opacity="1"><g transform="translate(160.43163, 207.628544)"><g><path d="M 5.640625 -6.804688 L 5.640625 -1.324219 L 1.972656 -6.804688 L 1.066406 -6.804688 L 1.066406 0 L 1.917969 0 L 1.917969 -5.503906 L 5.585938 0 L 6.5 0 L 6.5 -6.804688 Z M 5.640625 -6.804688 "/></g></g></g><g fill="#000000" fill-opacity="1"><g transform="translate(167.997264, 207.628544)"><g><path d="M 5.4375 0 L 6.339844 0 L 3.832031 -6.804688 L 2.796875 -6.804688 L 0.289062 0 L 1.195312 0 L 1.773438 -1.628906 L 4.851562 -1.628906 Z M 2.046875 -2.390625 L 3.316406 -5.933594 L 4.582031 -2.390625 Z M 2.046875 -2.390625 "/></g></g></g><g fill="#000000" fill-opacity="1"><g transform="translate(174.625649, 207.628544)"><g><path d="M 4.296875 -3.550781 C 4.839844 -3.8125 5.140625 -4.347656 5.140625 -5 C 5.140625 -6.0625 4.34375 -6.804688 3.132812 -6.804688 L 1.066406 -6.804688 L 1.066406 0 L 3.714844 0 C 4.890625 0 5.640625 -0.761719 5.640625 -1.847656 C 5.640625 -2.785156 5.097656 -3.347656 4.296875 -3.550781 Z M 4.328125 -4.949219 C 4.328125 -4.328125 3.910156 -3.820312 3.285156 -3.820312 L 1.902344 -3.820312 L 1.902344 -6.042969 L 3.125 -6.042969 C 3.878906 -6.042969 4.328125 -5.566406 4.328125 -4.949219 Z M 3.570312 -0.769531 L 1.902344 -0.769531 L 1.902344 -3.105469 L 3.507812 -3.105469 C 4.324219 -3.105469 4.796875 -2.59375 4.796875 -1.933594 C 4.796875 -1.304688 4.347656 -0.769531 3.570312 -0.769531 Z M 3.570312 -0.769531 "/></g></g></g><g fill="#000000" fill-opacity="1"><g transform="translate(180.804733, 207.628544)"><g><path d="M 1.933594 -0.789062 L 1.933594 -6.804688 L 1.066406 -6.804688 L 1.066406 0 L 4.296875 0 L 4.296875 -0.789062 Z M 1.933594 -0.789062 "/></g></g></g><g fill="#000000" fill-opacity="1"><g transform="translate(185.375033, 207.628544)"><g><path d="M 4.714844 -6.015625 L 4.714844 -6.804688 L 1.066406 -6.804688 L 1.066406 0 L 4.714844 0 L 4.714844 -0.789062 L 1.953125 -0.789062 L 1.953125 -3.011719 L 4.386719 -3.011719 L 4.386719 -3.789062 L 1.953125 -3.789062 L 1.953125 -6.015625 Z M 4.714844 -6.015625 "/></g></g></g><g fill="#000000" fill-opacity="1"><g transform="translate(182.295562, 173.95545)"><g><path d="M 4.714844 -6.015625 L 4.714844 -6.804688 L 1.066406 -6.804688 L 1.066406 0 L 4.714844 0 L 4.714844 -0.789062 L 1.953125 -0.789062 L 1.953125 -3.011719 L 4.386719 -3.011719 L 4.386719 -3.789062 L 1.953125 -3.789062 L 1.953125 -6.015625 Z M 4.714844 -6.015625 "/></g></g></g><g fill="#000000" fill-opacity="1"><g transform="translate(187.600202, 173.95545)"><g><path d="M 4.746094 -6.015625 L 4.746094 -6.804688 L 1.066406 -6.804688 L 1.066406 0 L 1.953125 0 L 1.953125 -3.011719 L 4.386719 -3.011719 L 4.386719 -3.792969 L 1.953125 -3.792969 L 1.953125 -6.015625 Z M 4.746094 -6.015625 "/></g></g></g><g fill="#000000" fill-opacity="1"><g transform="translate(192.735751, 173.95545)"><g><path d="M 4.746094 -6.015625 L 4.746094 -6.804688 L 1.066406 -6.804688 L 1.066406 0 L 1.953125 0 L 1.953125 -3.011719 L 4.386719 -3.011719 L 4.386719 -3.792969 L 1.953125 -3.792969 L 1.953125 -6.015625 Z M 4.746094 -6.015625 "/></g></g></g><g fill="#000000" fill-opacity="1"><g transform="translate(197.8713, 173.95545)"><g><path d="M 1.066406 0 L 1.933594 0 L 1.933594 -6.804688 L 1.066406 -6.804688 Z M 1.066406 0 "/></g></g></g><g fill="#000000" fill-opacity="1"><g transform="translate(200.871465, 173.95545)"><g><path d="M 3.980469 0.09375 C 5.324219 0.09375 6.457031 -0.570312 6.988281 -1.714844 L 6.191406 -2.039062 C 5.773438 -1.199219 4.953125 -0.734375 3.980469 -0.734375 C 2.570312 -0.734375 1.453125 -1.699219 1.453125 -3.40625 C 1.453125 -5.101562 2.570312 -6.070312 3.980469 -6.070312 C 4.953125 -6.070312 5.773438 -5.601562 6.191406 -4.757812 L 6.988281 -5.089844 C 6.457031 -6.226562 5.324219 -6.894531 3.980469 -6.894531 C 2.0625 -6.894531 0.59375 -5.574219 0.59375 -3.40625 C 0.59375 -1.226562 2.0625 0.09375 3.980469 0.09375 Z M 3.980469 0.09375 "/></g></g></g><g fill="#000000" fill-opacity="1"><g transform="translate(208.272839, 173.95545)"><g><path d="M 1.066406 0 L 1.933594 0 L 1.933594 -6.804688 L 1.066406 -6.804688 Z M 1.066406 0 "/></g></g></g><g fill="#000000" fill-opacity="1"><g transform="translate(211.273004, 173.95545)"><g><path d="M 4.714844 -6.015625 L 4.714844 -6.804688 L 1.066406 -6.804688 L 1.066406 0 L 4.714844 0 L 4.714844 -0.789062 L 1.953125 -0.789062 L 1.953125 -3.011719 L 4.386719 -3.011719 L 4.386719 -3.789062 L 1.953125 -3.789062 L 1.953125 -6.015625 Z M 4.714844 -6.015625 "/></g></g></g><g fill="#000000" fill-opacity="1"><g transform="translate(216.577644, 173.95545)"><g><path d="M 5.640625 -6.804688 L 5.640625 -1.324219 L 1.972656 -6.804688 L 1.066406 -6.804688 L 1.066406 0 L 1.917969 0 L 1.917969 -5.503906 L 5.585938 0 L 6.5 0 L 6.5 -6.804688 Z M 5.640625 -6.804688 "/></g></g></g><g fill="#000000" fill-opacity="1"><g transform="translate(224.143279, 173.95545)"><g><path d="M 4.625 -6.804688 L 0.269531 -6.804688 L 0.269531 -6.015625 L 2.019531 -6.015625 L 2.019531 0 L 2.878906 0 L 2.878906 -6.015625 L 4.625 -6.015625 Z M 4.625 -6.804688 "/></g></g></g><g fill="#000000" fill-opacity="1"><g transform="translate(250.052803, 195.846631)"><g><path d="M 5.757812 0 L 4.0625 -2.734375 C 4.410156 -2.816406 4.691406 -2.957031 4.917969 -3.152344 C 5.382812 -3.507812 5.609375 -4.09375 5.609375 -4.828125 C 5.609375 -5.5625 5.367188 -6.082031 4.878906 -6.398438 C 4.484375 -6.671875 3.921875 -6.804688 3.160156 -6.804688 L 1.066406 -6.804688 L 1.066406 0 L 1.933594 0 L 1.933594 -2.644531 L 3.21875 -2.644531 L 4.75 0 Z M 1.933594 -6.054688 L 3.050781 -6.054688 C 3.644531 -6.054688 4.074219 -5.992188 4.363281 -5.753906 C 4.589844 -5.566406 4.726562 -5.257812 4.726562 -4.792969 C 4.726562 -4.308594 4.601562 -3.988281 4.378906 -3.769531 C 4.101562 -3.488281 3.65625 -3.398438 3.050781 -3.398438 L 1.933594 -3.398438 Z M 1.933594 -6.054688 "/></g></g></g><g fill="#000000" fill-opacity="1"><g transform="translate(256.347836, 195.846631)"><g><path d="M 4.714844 -6.015625 L 4.714844 -6.804688 L 1.066406 -6.804688 L 1.066406 0 L 4.714844 0 L 4.714844 -0.789062 L 1.953125 -0.789062 L 1.953125 -3.011719 L 4.386719 -3.011719 L 4.386719 -3.789062 L 1.953125 -3.789062 L 1.953125 -6.015625 Z M 4.714844 -6.015625 "/></g></g></g><g fill="#000000" fill-opacity="1"><g transform="translate(261.652476, 195.846631)"><g><path d="M 1.933594 -0.789062 L 1.933594 -6.804688 L 1.066406 -6.804688 L 1.066406 0 L 4.296875 0 L 4.296875 -0.789062 Z M 1.933594 -0.789062 "/></g></g></g><g fill="#000000" fill-opacity="1"><g transform="translate(266.222776, 195.846631)"><g><path d="M 1.066406 0 L 1.933594 0 L 1.933594 -6.804688 L 1.066406 -6.804688 Z M 1.066406 0 "/></g></g></g><g fill="#000000" fill-opacity="1"><g transform="translate(269.222942, 195.846631)"><g><path d="M 5.4375 0 L 6.339844 0 L 3.832031 -6.804688 L 2.796875 -6.804688 L 0.289062 0 L 1.195312 0 L 1.773438 -1.628906 L 4.851562 -1.628906 Z M 2.046875 -2.390625 L 3.316406 -5.933594 L 4.582031 -2.390625 Z M 2.046875 -2.390625 "/></g></g></g><g fill="#000000" fill-opacity="1"><g transform="translate(275.851326, 195.846631)"><g><path d="M 4.296875 -3.550781 C 4.839844 -3.8125 5.140625 -4.347656 5.140625 -5 C 5.140625 -6.0625 4.34375 -6.804688 3.132812 -6.804688 L 1.066406 -6.804688 L 1.066406 0 L 3.714844 0 C 4.890625 0 5.640625 -0.761719 5.640625 -1.847656 C 5.640625 -2.785156 5.097656 -3.347656 4.296875 -3.550781 Z M 4.328125 -4.949219 C 4.328125 -4.328125 3.910156 -3.820312 3.285156 -3.820312 L 1.902344 -3.820312 L 1.902344 -6.042969 L 3.125 -6.042969 C 3.878906 -6.042969 4.328125 -5.566406 4.328125 -4.949219 Z M 3.570312 -0.769531 L 1.902344 -0.769531 L 1.902344 -3.105469 L 3.507812 -3.105469 C 4.324219 -3.105469 4.796875 -2.59375 4.796875 -1.933594 C 4.796875 -1.304688 4.347656 -0.769531 3.570312 -0.769531 Z M 3.570312 -0.769531 "/></g></g></g><g fill="#000000" fill-opacity="1"><g transform="translate(282.030411, 195.846631)"><g><path d="M 1.933594 -0.789062 L 1.933594 -6.804688 L 1.066406 -6.804688 L 1.066406 0 L 4.296875 0 L 4.296875 -0.789062 Z M 1.933594 -0.789062 "/></g></g></g><g fill="#000000" fill-opacity="1"><g transform="translate(286.600711, 195.846631)"><g><path d="M 4.714844 -6.015625 L 4.714844 -6.804688 L 1.066406 -6.804688 L 1.066406 0 L 4.714844 0 L 4.714844 -0.789062 L 1.953125 -0.789062 L 1.953125 -3.011719 L 4.386719 -3.011719 L 4.386719 -3.789062 L 1.953125 -3.789062 L 1.953125 -6.015625 Z M 4.714844 -6.015625 "/></g></g></g></svg>