<svg xmlns="http://www.w3.org/2000/svg" xmlns:xlink="http://www.w3.org/1999/xlink" width="1000" zoomAndPan="magnify" viewBox="0 0 750 749.999995" height="1000" preserveAspectRatio="xMidYMid meet" version="1.0"><defs><g/></defs><g fill="#000000" fill-opacity="1"><g transform="translate(173.882992, 280.152804)"><g><path d="M 34.03125 -52.28125 L 34.03125 -41.828125 L 15.71875 -41.828125 L 15.71875 -31.4375 L 32.640625 -31.4375 L 32.640625 -20.984375 L 15.71875 -20.984375 L 15.71875 0 L 3.796875 0 L 3.796875 -52.28125 Z M 34.03125 -52.28125 "/></g></g></g><g fill="#000000" fill-opacity="1"><g transform="translate(260.510355, 280.152804)"><g><path d="M 43.984375 -52.28125 L 43.984375 -18.5625 C 43.984375 -12.144531 42.25 -7.285156 38.78125 -3.984375 C 35.320312 -0.691406 30.253906 0.953125 23.578125 0.953125 C 16.898438 0.953125 11.828125 -0.691406 8.359375 -3.984375 C 4.898438 -7.285156 3.171875 -12.144531 3.171875 -18.5625 L 3.171875 -52.28125 L 15.078125 -52.28125 L 15.078125 -22.046875 C 15.078125 -17.828125 15.742188 -14.894531 17.078125 -13.25 C 18.410156 -11.601562 20.578125 -10.78125 23.578125 -10.78125 C 26.578125 -10.78125 28.738281 -11.601562 30.0625 -13.25 C 31.394531 -14.894531 32.0625 -17.828125 32.0625 -22.046875 L 32.0625 -52.28125 Z M 43.984375 -52.28125 "/></g></g></g><g fill="#000000" fill-opacity="1"><g transform="translate(358.353475, 280.152804)"><g><path d="M 47.03125 0 L 44.546875 -30.984375 L 44.234375 -30.984375 L 33.53125 -0.3125 L 26.421875 -0.3125 L 15.71875 -30.984375 L 15.40625 -30.984375 L 12.921875 0 L 1.015625 0 L 5.703125 -52.28125 L 18.375 -52.28125 L 29.96875 -22.125 L 41.578125 -52.28125 L 54.25 -52.28125 L 58.9375 0 Z M 47.03125 0 "/></g></g></g><g fill="#000000" fill-opacity="1"><g transform="translate(468.9965, 280.152804)"><g><path d="M 33.71875 -52.28125 L 33.71875 -41.828125 L 15.71875 -41.828125 L 15.71875 -31.4375 L 32.953125 -31.4375 L 32.953125 -20.984375 L 15.71875 -20.984375 L 15.71875 -10.453125 L 33.71875 -10.453125 L 33.71875 0 L 3.796875 0 L 3.796875 -52.28125 Z M 33.71875 -52.28125 "/></g></g></g><g fill="#000000" fill-opacity="1"><g transform="translate(556.447613, 280.152804)"><g><path d="M 3.796875 -52.28125 L 22.5 -52.28125 C 27.53125 -52.28125 31.628906 -50.9375 34.796875 -48.25 C 37.960938 -45.570312 39.546875 -41.738281 39.546875 -36.75 C 39.546875 -32.90625 38.582031 -29.679688 36.65625 -27.078125 C 34.738281 -24.484375 32.128906 -22.660156 28.828125 -21.609375 L 46.828125 0 L 31.6875 0 L 15.71875 -20.65625 L 15.71875 0 L 3.796875 0 Z M 15.71875 -29.09375 L 17.109375 -29.09375 C 18.210938 -29.09375 19.144531 -29.113281 19.90625 -29.15625 C 20.664062 -29.195312 21.53125 -29.34375 22.5 -29.59375 C 23.46875 -29.84375 24.25 -30.203125 24.84375 -30.671875 C 25.4375 -31.140625 25.941406 -31.816406 26.359375 -32.703125 C 26.785156 -33.585938 27 -34.660156 27 -35.921875 C 27 -37.191406 26.785156 -38.269531 26.359375 -39.15625 C 25.941406 -40.050781 25.4375 -40.726562 24.84375 -41.1875 C 24.25 -41.65625 23.46875 -42.015625 22.5 -42.265625 C 21.53125 -42.523438 20.664062 -42.675781 19.90625 -42.71875 C 19.144531 -42.757812 18.210938 -42.78125 17.109375 -42.78125 L 15.71875 -42.78125 Z M 15.71875 -29.09375 "/></g></g></g><path stroke-linecap="round" transform="matrix(-1.03724, 1.796553, -1.794815, -1.036237, 184.999887, 290.452302)" fill="none" stroke-linejoin="miter" d="M 0.500603 0.0000961504 L 80.919479 0.000296358 " stroke="#000000" stroke-width="1" stroke-opacity="1" stroke-miterlimit="4"/><path stroke-linecap="round" transform="matrix(-1.03724, 1.796553, -1.794815, -1.036237, 97.955827, 441.21703)" fill-opacity="1" fill="#000000" fill-rule="nonzero" stroke-linejoin="round" d="M -2.49973 -1.500734 L -0.498918 0.000372578 L -2.499459 1.500376 Z M -2.49973 -1.500734 " stroke="#000000" stroke-width="1" stroke-opacity="1" stroke-miterlimit="4"/><path stroke-linecap="round" transform="matrix(-0.414051, 2.034457, -2.030842, -0.413315, 279.081054, 290.452856)" fill="none" stroke-linejoin="miter" d="M 0.499277 -0.000330913 L 47.909299 0.00097665 " stroke="#000000" stroke-width="1" stroke-opacity="1" stroke-miterlimit="4"/><path stroke-linecap="round" transform="matrix(-0.414051, 2.034457, -2.030842, -0.413315, 258.001718, 394.027179)" fill-opacity="1" fill="#000000" fill-rule="nonzero" stroke-linejoin="round" d="M -2.499193 -1.499634 L -0.499001 0.000639425 L -2.500509 1.499313 Z M -2.499193 -1.499634 " stroke="#000000" stroke-width="1" stroke-opacity="1" stroke-miterlimit="4"/><path stroke-linecap="round" transform="matrix(0.000000000000000127, 2.07111, -2.072474, 0.000000000000000127, 386.871313, 296.721421)" fill="none" stroke-linejoin="miter" d="M 0.500404 0.000105597 L 82.457514 0.000105597 " stroke="#000000" stroke-width="1" stroke-opacity="1" stroke-miterlimit="4"/><path stroke-linecap="round" transform="matrix(0.000000000000000127, 2.07111, -2.072474, 0.000000000000000127, 386.871313, 473.712429)" fill-opacity="1" fill="#000000" fill-rule="nonzero" stroke-linejoin="round" d="M -2.499757 -1.500215 L -0.500528 0.000105597 L -2.499757 1.500426 Z M -2.499757 -1.500215 " stroke="#000000" stroke-width="1" stroke-opacity="1" stroke-miterlimit="4"/><path stroke-linecap="round" transform="matrix(0.353433, 2.040947, -2.042081, 0.35363, 495.250707, 290.45397)" fill="none" stroke-linejoin="miter" d="M 0.499015 0.000633534 L 47.630007 -0.000585647 " stroke="#000000" stroke-width="1" stroke-opacity="1" stroke-miterlimit="4"/><path stroke-linecap="round" transform="matrix(0.353433, 2.040947, -2.042081, 0.35363, 513.144986, 393.786798)" fill-opacity="1" fill="#000000" fill-rule="nonzero" stroke-linejoin="round" d="M -2.500807 -1.49999 L -0.500293 -0.000286289 L -2.499938 1.499551 Z M -2.500807 -1.49999 " stroke="#000000" stroke-width="1" stroke-opacity="1" stroke-miterlimit="4"/><path stroke-linecap="round" transform="matrix(1.026518, 1.802701, -1.800957, 1.025525, 582.087574, 290.453648)" fill="none" stroke-linejoin="miter" d="M 0.500371 -0.000193526 L 80.91971 0.000428749 " stroke="#000000" stroke-width="1" stroke-opacity="1" stroke-miterlimit="4"/><path stroke-linecap="round" transform="matrix(1.026518, 1.802701, -1.800957, 1.025525, 668.233338, 441.73699)" fill-opacity="1" fill="#000000" fill-rule="nonzero" stroke-linejoin="round" d="M -2.500536 -1.499589 L -0.500192 0.00062831 L -2.499761 1.50056 Z M -2.500536 -1.499589 " stroke="#000000" stroke-width="1" stroke-opacity="1" stroke-miterlimit="4"/><g fill="#000000" fill-opacity="1"><g transform="translate(20.237859, 481.854994)"><g><path d="M 11.863281 -15.039062 L 11.863281 -17.007812 L 2.667969 -17.007812 L 2.667969 0 L 4.878906 0 L 4.878906 -7.527344 L 10.96875 -7.527344 L 10.96875 -9.484375 L 4.878906 -9.484375 L 4.878906 -15.039062 Z M 11.863281 -15.039062 "/></g></g></g><g fill="#000000" fill-opacity="1"><g transform="translate(33.07673, 481.854994)"><g><path d="M 8.492188 0.230469 C 12.007812 0.230469 14.703125 -1.898438 14.703125 -5.640625 L 14.703125 -17.007812 L 12.539062 -17.007812 L 12.539062 -5.941406 C 12.539062 -3.117188 10.75 -1.738281 8.492188 -1.738281 C 6.234375 -1.738281 4.480469 -3.09375 4.480469 -5.941406 L 4.480469 -17.007812 L 2.320312 -17.007812 L 2.320312 -5.640625 C 2.320312 -1.898438 5 0.230469 8.492188 0.230469 Z M 8.492188 0.230469 "/></g></g></g><g fill="#000000" fill-opacity="1"><g transform="translate(50.094576, 481.854994)"><g><path d="M 14.097656 -17.007812 L 14.097656 -3.308594 L 4.929688 -17.007812 L 2.667969 -17.007812 L 2.667969 0 L 4.796875 0 L 4.796875 -13.757812 L 13.964844 0 L 16.246094 0 L 16.246094 -17.007812 Z M 14.097656 -17.007812 "/></g></g></g><g fill="#000000" fill-opacity="1"><g transform="translate(69.008661, 481.854994)"><g><path d="M 9.953125 0.230469 C 13.3125 0.230469 16.140625 -1.425781 17.46875 -4.289062 L 15.472656 -5.097656 C 14.433594 -2.996094 12.382812 -1.835938 9.953125 -1.835938 C 6.425781 -1.835938 3.636719 -4.253906 3.636719 -8.515625 C 3.636719 -12.757812 6.425781 -15.171875 9.953125 -15.171875 C 12.382812 -15.171875 14.433594 -14 15.472656 -11.898438 L 17.46875 -12.71875 C 16.140625 -15.570312 13.3125 -17.238281 9.953125 -17.238281 C 5.15625 -17.238281 1.484375 -13.941406 1.484375 -8.515625 C 1.484375 -3.066406 5.15625 0.230469 9.953125 0.230469 Z M 9.953125 0.230469 "/></g></g></g><g fill="#000000" fill-opacity="1"><g transform="translate(87.512096, 481.854994)"><g><path d="M 11.558594 -17.007812 L 0.675781 -17.007812 L 0.675781 -15.039062 L 5.050781 -15.039062 L 5.050781 0 L 7.199219 0 L 7.199219 -15.039062 L 11.558594 -15.039062 Z M 11.558594 -17.007812 "/></g></g></g><g fill="#000000" fill-opacity="1"><g transform="translate(99.747069, 481.854994)"><g><path d="M 2.667969 0 L 4.832031 0 L 4.832031 -17.007812 L 2.667969 -17.007812 Z M 2.667969 0 "/></g></g></g><g fill="#000000" fill-opacity="1"><g transform="translate(107.247482, 481.854994)"><g><path d="M 9.953125 0.230469 C 14.703125 0.230469 18.398438 -3.066406 18.398438 -8.515625 C 18.398438 -13.941406 14.703125 -17.238281 9.953125 -17.238281 C 5.15625 -17.238281 1.484375 -13.941406 1.484375 -8.515625 C 1.484375 -3.066406 5.15625 0.230469 9.953125 0.230469 Z M 9.953125 -1.8125 C 6.425781 -1.8125 3.636719 -4.226562 3.636719 -8.515625 C 3.636719 -12.757812 6.425781 -15.171875 9.953125 -15.171875 C 13.457031 -15.171875 16.234375 -12.757812 16.234375 -8.515625 C 16.234375 -4.226562 13.457031 -1.8125 9.953125 -1.8125 Z M 9.953125 -1.8125 "/></g></g></g><g fill="#000000" fill-opacity="1"><g transform="translate(127.127804, 481.854994)"><g><path d="M 14.097656 -17.007812 L 14.097656 -3.308594 L 4.929688 -17.007812 L 2.667969 -17.007812 L 2.667969 0 L 4.796875 0 L 4.796875 -13.757812 L 13.964844 0 L 16.246094 0 L 16.246094 -17.007812 Z M 14.097656 -17.007812 "/></g></g></g><g fill="#000000" fill-opacity="1"><g transform="translate(146.041889, 481.854994)"><g><path d="M 13.589844 0 L 15.847656 0 L 9.578125 -17.007812 L 6.996094 -17.007812 L 0.726562 0 L 2.984375 0 L 4.433594 -4.070312 L 12.128906 -4.070312 Z M 5.121094 -5.980469 L 8.285156 -14.835938 L 11.453125 -5.980469 Z M 5.121094 -5.980469 "/></g></g></g><g fill="#000000" fill-opacity="1"><g transform="translate(162.61285, 481.854994)"><g><path d="M 4.832031 -1.96875 L 4.832031 -17.007812 L 2.667969 -17.007812 L 2.667969 0 L 10.738281 0 L 10.738281 -1.96875 Z M 4.832031 -1.96875 "/></g></g></g><g fill="#000000" fill-opacity="1"><g transform="translate(218.279274, 434.888652)"><g><path d="M 8.492188 0.230469 C 12.007812 0.230469 14.703125 -1.898438 14.703125 -5.640625 L 14.703125 -17.007812 L 12.539062 -17.007812 L 12.539062 -5.941406 C 12.539062 -3.117188 10.75 -1.738281 8.492188 -1.738281 C 6.234375 -1.738281 4.480469 -3.09375 4.480469 -5.941406 L 4.480469 -17.007812 L 2.320312 -17.007812 L 2.320312 -5.640625 C 2.320312 -1.898438 5 0.230469 8.492188 0.230469 Z M 8.492188 0.230469 "/></g></g></g><g fill="#000000" fill-opacity="1"><g transform="translate(235.297119, 434.888652)"><g><path d="M 7.9375 0.230469 C 11.257812 0.230469 13.941406 -1.339844 13.941406 -4.601562 C 13.941406 -8.058594 10.835938 -8.855469 8.09375 -9.578125 C 5.882812 -10.148438 3.949219 -10.679688 3.949219 -12.574219 C 3.949219 -14.582031 5.738281 -15.367188 7.5 -15.367188 C 9.46875 -15.367188 11.136719 -14.496094 11.65625 -12.585938 L 13.675781 -13.105469 C 13.035156 -15.957031 10.414062 -17.238281 7.417969 -17.238281 C 4.398438 -17.238281 1.777344 -15.679688 1.777344 -12.539062 C 1.777344 -9.398438 4.410156 -8.589844 7.066406 -7.875 C 9.433594 -7.234375 11.691406 -6.679688 11.730469 -4.542969 C 11.765625 -2.402344 9.894531 -1.628906 7.972656 -1.628906 C 5.664062 -1.628906 3.914062 -2.765625 3.394531 -4.785156 L 1.269531 -4.277344 C 1.847656 -1.460938 4.398438 0.230469 7.9375 0.230469 Z M 7.9375 0.230469 "/></g></g></g><g fill="#000000" fill-opacity="1"><g transform="translate(250.648206, 434.888652)"><g><path d="M 13.589844 0 L 15.847656 0 L 9.578125 -17.007812 L 6.996094 -17.007812 L 0.726562 0 L 2.984375 0 L 4.433594 -4.070312 L 12.128906 -4.070312 Z M 5.121094 -5.980469 L 8.285156 -14.835938 L 11.453125 -5.980469 Z M 5.121094 -5.980469 "/></g></g></g><g fill="#000000" fill-opacity="1"><g transform="translate(267.219167, 434.888652)"><g><path d="M 10.738281 -8.878906 C 12.105469 -9.53125 12.851562 -10.871094 12.851562 -12.503906 C 12.851562 -15.160156 10.859375 -17.007812 7.828125 -17.007812 L 2.667969 -17.007812 L 2.667969 0 L 9.289062 0 C 12.226562 0 14.097656 -1.910156 14.097656 -4.613281 C 14.097656 -6.957031 12.746094 -8.371094 10.738281 -8.878906 Z M 10.824219 -12.371094 C 10.824219 -10.824219 9.773438 -9.554688 8.214844 -9.554688 L 4.757812 -9.554688 L 4.757812 -15.113281 L 7.816406 -15.113281 C 9.699219 -15.113281 10.824219 -13.917969 10.824219 -12.371094 Z M 8.925781 -1.921875 L 4.757812 -1.921875 L 4.757812 -7.765625 L 8.769531 -7.765625 C 10.8125 -7.765625 11.996094 -6.488281 11.996094 -4.832031 C 11.996094 -3.261719 10.871094 -1.921875 8.925781 -1.921875 Z M 8.925781 -1.921875 "/></g></g></g><g fill="#000000" fill-opacity="1"><g transform="translate(282.666878, 434.888652)"><g><path d="M 4.832031 -1.96875 L 4.832031 -17.007812 L 2.667969 -17.007812 L 2.667969 0 L 10.738281 0 L 10.738281 -1.96875 Z M 4.832031 -1.96875 "/></g></g></g><g fill="#000000" fill-opacity="1"><g transform="translate(294.092628, 434.888652)"><g><path d="M 11.789062 -15.039062 L 11.789062 -17.007812 L 2.667969 -17.007812 L 2.667969 0 L 11.789062 0 L 11.789062 -1.96875 L 4.878906 -1.96875 L 4.878906 -7.527344 L 10.96875 -7.527344 L 10.96875 -9.46875 L 4.878906 -9.46875 L 4.878906 -15.039062 Z M 11.789062 -15.039062 "/></g></g></g><g fill="#000000" fill-opacity="1"><g transform="translate(299.104864, 519.071408)"><g><path d="M 20.65625 0 L 19.375 -17.007812 L 16.5 -17.007812 L 11.332031 -3.746094 L 6.171875 -17.007812 L 3.320312 -17.007812 L 2.03125 0 L 4.144531 0 L 5.289062 -13.988281 L 10.691406 0 L 11.984375 0 L 17.417969 -14.035156 L 18.554688 0 Z M 20.65625 0 "/></g></g></g><g fill="#000000" fill-opacity="1"><g transform="translate(321.787273, 519.071408)"><g><path d="M 13.589844 0 L 15.847656 0 L 9.578125 -17.007812 L 6.996094 -17.007812 L 0.726562 0 L 2.984375 0 L 4.433594 -4.070312 L 12.128906 -4.070312 Z M 5.121094 -5.980469 L 8.285156 -14.835938 L 11.453125 -5.980469 Z M 5.121094 -5.980469 "/></g></g></g><g fill="#000000" fill-opacity="1"><g transform="translate(338.358234, 519.071408)"><g><path d="M 2.667969 0 L 4.832031 0 L 4.832031 -17.007812 L 2.667969 -17.007812 Z M 2.667969 0 "/></g></g></g><g fill="#000000" fill-opacity="1"><g transform="translate(345.858647, 519.071408)"><g><path d="M 14.097656 -17.007812 L 14.097656 -3.308594 L 4.929688 -17.007812 L 2.667969 -17.007812 L 2.667969 0 L 4.796875 0 L 4.796875 -13.757812 L 13.964844 0 L 16.246094 0 L 16.246094 -17.007812 Z M 14.097656 -17.007812 "/></g></g></g><g fill="#000000" fill-opacity="1"><g transform="translate(364.772732, 519.071408)"><g><path d="M 11.558594 -17.007812 L 0.675781 -17.007812 L 0.675781 -15.039062 L 5.050781 -15.039062 L 5.050781 0 L 7.199219 0 L 7.199219 -15.039062 L 11.558594 -15.039062 Z M 11.558594 -17.007812 "/></g></g></g><g fill="#000000" fill-opacity="1"><g transform="translate(377.007706, 519.071408)"><g><path d="M 13.589844 0 L 15.847656 0 L 9.578125 -17.007812 L 6.996094 -17.007812 L 0.726562 0 L 2.984375 0 L 4.433594 -4.070312 L 12.128906 -4.070312 Z M 5.121094 -5.980469 L 8.285156 -14.835938 L 11.453125 -5.980469 Z M 5.121094 -5.980469 "/></g></g></g><g fill="#000000" fill-opacity="1"><g transform="translate(393.578667, 519.071408)"><g><path d="M 2.667969 0 L 4.832031 0 L 4.832031 -17.007812 L 2.667969 -17.007812 Z M 2.667969 0 "/></g></g></g><g fill="#000000" fill-opacity="1"><g transform="translate(401.07908, 519.071408)"><g><path d="M 14.097656 -17.007812 L 14.097656 -3.308594 L 4.929688 -17.007812 L 2.667969 -17.007812 L 2.667969 0 L 4.796875 0 L 4.796875 -13.757812 L 13.964844 0 L 16.246094 0 L 16.246094 -17.007812 Z M 14.097656 -17.007812 "/></g></g></g><g fill="#000000" fill-opacity="1"><g transform="translate(419.993165, 519.071408)"><g><path d="M 13.589844 0 L 15.847656 0 L 9.578125 -17.007812 L 6.996094 -17.007812 L 0.726562 0 L 2.984375 0 L 4.433594 -4.070312 L 12.128906 -4.070312 Z M 5.121094 -5.980469 L 8.285156 -14.835938 L 11.453125 -5.980469 Z M 5.121094 -5.980469 "/></g></g></g><g fill="#000000" fill-opacity="1"><g transform="translate(436.564126, 519.071408)"><g><path d="M 10.738281 -8.878906 C 12.105469 -9.53125 12.851562 -10.871094 12.851562 -12.503906 C 12.851562 -15.160156 10.859375 -17.007812 7.828125 -17.007812 L 2.667969 -17.007812 L 2.667969 0 L 9.289062 0 C 12.226562 0 14.097656 -1.910156 14.097656 -4.613281 C 14.097656 -6.957031 12.746094 -8.371094 10.738281 -8.878906 Z M 10.824219 -12.371094 C 10.824219 -10.824219 9.773438 -9.554688 8.214844 -9.554688 L 4.757812 -9.554688 L 4.757812 -15.113281 L 7.816406 -15.113281 C 9.699219 -15.113281 10.824219 -13.917969 10.824219 -12.371094 Z M 8.925781 -1.921875 L 4.757812 -1.921875 L 4.757812 -7.765625 L 8.769531 -7.765625 C 10.8125 -7.765625 11.996094 -6.488281 11.996094 -4.832031 C 11.996094 -3.261719 10.871094 -1.921875 8.925781 -1.921875 Z M 8.925781 -1.921875 "/></g></g></g><g fill="#000000" fill-opacity="1"><g transform="translate(452.011837, 519.071408)"><g><path d="M 4.832031 -1.96875 L 4.832031 -17.007812 L 2.667969 -17.007812 L 2.667969 0 L 10.738281 0 L 10.738281 -1.96875 Z M 4.832031 -1.96875 "/></g></g></g><g fill="#000000" fill-opacity="1"><g transform="translate(463.437587, 519.071408)"><g><path d="M 11.789062 -15.039062 L 11.789062 -17.007812 L 2.667969 -17.007812 L 2.667969 0 L 11.789062 0 L 11.789062 -1.96875 L 4.878906 -1.96875 L 4.878906 -7.527344 L 10.96875 -7.527344 L 10.96875 -9.46875 L 4.878906 -9.46875 L 4.878906 -15.039062 Z M 11.789062 -15.039062 "/></g></g></g><g fill="#000000" fill-opacity="1"><g transform="translate(455.738908, 434.888652)"><g><path d="M 11.789062 -15.039062 L 11.789062 -17.007812 L 2.667969 -17.007812 L 2.667969 0 L 11.789062 0 L 11.789062 -1.96875 L 4.878906 -1.96875 L 4.878906 -7.527344 L 10.96875 -7.527344 L 10.96875 -9.46875 L 4.878906 -9.46875 L 4.878906 -15.039062 Z M 11.789062 -15.039062 "/></g></g></g><g fill="#000000" fill-opacity="1"><g transform="translate(469.000508, 434.888652)"><g><path d="M 11.863281 -15.039062 L 11.863281 -17.007812 L 2.667969 -17.007812 L 2.667969 0 L 4.878906 0 L 4.878906 -7.527344 L 10.96875 -7.527344 L 10.96875 -9.484375 L 4.878906 -9.484375 L 4.878906 -15.039062 Z M 11.863281 -15.039062 "/></g></g></g><g fill="#000000" fill-opacity="1"><g transform="translate(481.83938, 434.888652)"><g><path d="M 11.863281 -15.039062 L 11.863281 -17.007812 L 2.667969 -17.007812 L 2.667969 0 L 4.878906 0 L 4.878906 -7.527344 L 10.96875 -7.527344 L 10.96875 -9.484375 L 4.878906 -9.484375 L 4.878906 -15.039062 Z M 11.863281 -15.039062 "/></g></g></g><g fill="#000000" fill-opacity="1"><g transform="translate(494.678251, 434.888652)"><g><path d="M 2.667969 0 L 4.832031 0 L 4.832031 -17.007812 L 2.667969 -17.007812 Z M 2.667969 0 "/></g></g></g><g fill="#000000" fill-opacity="1"><g transform="translate(502.178664, 434.888652)"><g><path d="M 9.953125 0.230469 C 13.3125 0.230469 16.140625 -1.425781 17.46875 -4.289062 L 15.472656 -5.097656 C 14.433594 -2.996094 12.382812 -1.835938 9.953125 -1.835938 C 6.425781 -1.835938 3.636719 -4.253906 3.636719 -8.515625 C 3.636719 -12.757812 6.425781 -15.171875 9.953125 -15.171875 C 12.382812 -15.171875 14.433594 -14 15.472656 -11.898438 L 17.46875 -12.71875 C 16.140625 -15.570312 13.3125 -17.238281 9.953125 -17.238281 C 5.15625 -17.238281 1.484375 -13.941406 1.484375 -8.515625 C 1.484375 -3.066406 5.15625 0.230469 9.953125 0.230469 Z M 9.953125 0.230469 "/></g></g></g><g fill="#000000" fill-opacity="1"><g transform="translate(520.682099, 434.888652)"><g><path d="M 2.667969 0 L 4.832031 0 L 4.832031 -17.007812 L 2.667969 -17.007812 Z M 2.667969 0 "/></g></g></g><g fill="#000000" fill-opacity="1"><g transform="translate(528.182512, 434.888652)"><g><path d="M 11.789062 -15.039062 L 11.789062 -17.007812 L 2.667969 -17.007812 L 2.667969 0 L 11.789062 0 L 11.789062 -1.96875 L 4.878906 -1.96875 L 4.878906 -7.527344 L 10.96875 -7.527344 L 10.96875 -9.46875 L 4.878906 -9.46875 L 4.878906 -15.039062 Z M 11.789062 -15.039062 "/></g></g></g><g fill="#000000" fill-opacity="1"><g transform="translate(541.444112, 434.888652)"><g><path d="M 14.097656 -17.007812 L 14.097656 -3.308594 L 4.929688 -17.007812 L 2.667969 -17.007812 L 2.667969 0 L 4.796875 0 L 4.796875 -13.757812 L 13.964844 0 L 16.246094 0 L 16.246094 -17.007812 Z M 14.097656 -17.007812 "/></g></g></g><g fill="#000000" fill-opacity="1"><g transform="translate(560.358197, 434.888652)"><g><path d="M 11.558594 -17.007812 L 0.675781 -17.007812 L 0.675781 -15.039062 L 5.050781 -15.039062 L 5.050781 0 L 7.199219 0 L 7.199219 -15.039062 L 11.558594 -15.039062 Z M 11.558594 -17.007812 "/></g></g></g><g fill="#000000" fill-opacity="1"><g transform="translate(625.132011, 489.616593)"><g><path d="M 14.398438 0 L 10.160156 -6.835938 C 11.027344 -7.042969 11.730469 -7.394531 12.296875 -7.875 C 13.457031 -8.769531 14.023438 -10.230469 14.023438 -12.066406 C 14.023438 -13.902344 13.421875 -15.207031 12.199219 -15.992188 C 11.210938 -16.683594 9.808594 -17.007812 7.898438 -17.007812 L 2.667969 -17.007812 L 2.667969 0 L 4.832031 0 L 4.832031 -6.609375 L 8.046875 -6.609375 L 11.875 0 Z M 4.832031 -15.136719 L 7.621094 -15.136719 C 9.109375 -15.136719 10.183594 -14.980469 10.90625 -14.386719 C 11.476562 -13.917969 11.8125 -13.144531 11.8125 -11.984375 C 11.8125 -10.773438 11.5 -9.964844 10.945312 -9.421875 C 10.253906 -8.722656 9.144531 -8.492188 7.621094 -8.492188 L 4.832031 -8.492188 Z M 4.832031 -15.136719 "/></g></g></g><g fill="#000000" fill-opacity="1"><g transform="translate(640.869592, 489.616593)"><g><path d="M 11.789062 -15.039062 L 11.789062 -17.007812 L 2.667969 -17.007812 L 2.667969 0 L 11.789062 0 L 11.789062 -1.96875 L 4.878906 -1.96875 L 4.878906 -7.527344 L 10.96875 -7.527344 L 10.96875 -9.46875 L 4.878906 -9.46875 L 4.878906 -15.039062 Z M 11.789062 -15.039062 "/></g></g></g><g fill="#000000" fill-opacity="1"><g transform="translate(654.131192, 489.616593)"><g><path d="M 4.832031 -1.96875 L 4.832031 -17.007812 L 2.667969 -17.007812 L 2.667969 0 L 10.738281 0 L 10.738281 -1.96875 Z M 4.832031 -1.96875 "/></g></g></g><g fill="#000000" fill-opacity="1"><g transform="translate(665.556942, 489.616593)"><g><path d="M 2.667969 0 L 4.832031 0 L 4.832031 -17.007812 L 2.667969 -17.007812 Z M 2.667969 0 "/></g></g></g><g fill="#000000" fill-opacity="1"><g transform="translate(673.057355, 489.616593)"><g><path d="M 13.589844 0 L 15.847656 0 L 9.578125 -17.007812 L 6.996094 -17.007812 L 0.726562 0 L 2.984375 0 L 4.433594 -4.070312 L 12.128906 -4.070312 Z M 5.121094 -5.980469 L 8.285156 -14.835938 L 11.453125 -5.980469 Z M 5.121094 -5.980469 "/></g></g></g><g fill="#000000" fill-opacity="1"><g transform="translate(689.628316, 489.616593)"><g><path d="M 10.738281 -8.878906 C 12.105469 -9.53125 12.851562 -10.871094 12.851562 -12.503906 C 12.851562 -15.160156 10.859375 -17.007812 7.828125 -17.007812 L 2.667969 -17.007812 L 2.667969 0 L 9.289062 0 C 12.226562 0 14.097656 -1.910156 14.097656 -4.613281 C 14.097656 -6.957031 12.746094 -8.371094 10.738281 -8.878906 Z M 10.824219 -12.371094 C 10.824219 -10.824219 9.773438 -9.554688 8.214844 -9.554688 L 4.757812 -9.554688 L 4.757812 -15.113281 L 7.816406 -15.113281 C 9.699219 -15.113281 10.824219 -13.917969 10.824219 -12.371094 Z M 8.925781 -1.921875 L 4.757812 -1.921875 L 4.757812 -7.765625 L 8.769531 -7.765625 C 10.8125 -7.765625 11.996094 -6.488281 11.996094 -4.832031 C 11.996094 -3.261719 10.871094 -1.921875 8.925781 -1.921875 Z M 8.925781 -1.921875 "/></g></g></g><g fill="#000000" fill-opacity="1"><g transform="translate(705.076027, 489.616593)"><g><path d="M 4.832031 -1.96875 L 4.832031 -17.007812 L 2.667969 -17.007812 L 2.667969 0 L 10.738281 0 L 10.738281 -1.96875 Z M 4.832031 -1.96875 "/></g></g></g><g fill="#000000" fill-opacity="1"><g transform="translate(716.501777, 489.616593)"><g><path d="M 11.789062 -15.039062 L 11.789062 -17.007812 L 2.667969 -17.007812 L 2.667969 0 L 11.789062 0 L 11.789062 -1.96875 L 4.878906 -1.96875 L 4.878906 -7.527344 L 10.96875 -7.527344 L 10.96875 -9.46875 L 4.878906 -9.46875 L 4.878906 -15.039062 Z M 11.789062 -15.039062 "/></g></g></g></svg>