<svg xmlns="http://www.w3.org/2000/svg" xmlns:xlink="http://www.w3.org/1999/xlink" width="100" zoomAndPan="magnify" viewBox="0 0 75 74.999997" height="100" preserveAspectRatio="xMidYMid meet" version="1.0"><defs><g/></defs><g fill="#000000" fill-opacity="1"><g transform="translate(17.3883, 28.015278)"><g><path d="M 3.40625 -5.234375 L 3.40625 -4.1875 L 1.578125 -4.1875 L 1.578125 -3.140625 L 3.265625 -3.140625 L 3.265625 -2.09375 L 1.578125 -2.09375 L 1.578125 0 L 0.375 0 L 0.375 -5.234375 Z M 3.40625 -5.234375 "/></g></g></g><g fill="#000000" fill-opacity="1"><g transform="translate(26.051037, 28.015278)"><g><path d="M 4.40625 -5.234375 L 4.40625 -1.859375 C 4.40625 -1.210938 4.226562 -0.722656 3.875 -0.390625 C 3.53125 -0.0664062 3.023438 0.09375 2.359375 0.09375 C 1.691406 0.09375 1.179688 -0.0664062 0.828125 -0.390625 C 0.484375 -0.722656 0.3125 -1.210938 0.3125 -1.859375 L 0.3125 -5.234375 L 1.515625 -5.234375 L 1.515625 -2.203125 C 1.515625 -1.785156 1.578125 -1.492188 1.703125 -1.328125 C 1.835938 -1.160156 2.054688 -1.078125 2.359375 -1.078125 C 2.660156 -1.078125 2.875 -1.160156 3 -1.328125 C 3.132812 -1.492188 3.203125 -1.785156 3.203125 -2.203125 L 3.203125 -5.234375 Z M 4.40625 -5.234375 "/></g></g></g><g fill="#000000" fill-opacity="1"><g transform="translate(35.83535, 28.015278)"><g><path d="M 4.703125 0 L 4.453125 -3.109375 L 4.421875 -3.109375 L 3.359375 -0.03125 L 2.640625 -0.03125 L 1.578125 -3.109375 L 1.546875 -3.109375 L 1.296875 0 L 0.09375 0 L 0.578125 -5.234375 L 1.84375 -5.234375 L 3 -2.21875 L 4.15625 -5.234375 L 5.4375 -5.234375 L 5.90625 0 Z M 4.703125 0 "/></g></g></g><g fill="#000000" fill-opacity="1"><g transform="translate(46.899653, 28.015278)"><g><path d="M 3.375 -5.234375 L 3.375 -4.1875 L 1.578125 -4.1875 L 1.578125 -3.140625 L 3.296875 -3.140625 L 3.296875 -2.09375 L 1.578125 -2.09375 L 1.578125 -1.046875 L 3.375 -1.046875 L 3.375 0 L 0.375 0 L 0.375 -5.234375 Z M 3.375 -5.234375 "/></g></g></g><g fill="#000000" fill-opacity="1"><g transform="translate(55.644765, 28.015278)"><g><path d="M 0.375 -5.234375 L 2.25 -5.234375 C 2.75 -5.234375 3.15625 -5.097656 3.46875 -4.828125 C 3.789062 -4.554688 3.953125 -4.171875 3.953125 -3.671875 C 3.953125 -3.296875 3.851562 -2.976562 3.65625 -2.71875 C 3.46875 -2.457031 3.210938 -2.269531 2.890625 -2.15625 L 4.6875 0 L 3.171875 0 L 1.578125 -2.0625 L 1.578125 0 L 0.375 0 Z M 1.578125 -2.90625 L 1.71875 -2.90625 C 1.820312 -2.90625 1.910156 -2.90625 1.984375 -2.90625 C 2.066406 -2.914062 2.15625 -2.929688 2.25 -2.953125 C 2.34375 -2.984375 2.421875 -3.019531 2.484375 -3.0625 C 2.546875 -3.113281 2.597656 -3.179688 2.640625 -3.265625 C 2.679688 -3.359375 2.703125 -3.46875 2.703125 -3.59375 C 2.703125 -3.71875 2.679688 -3.820312 2.640625 -3.90625 C 2.597656 -4 2.546875 -4.066406 2.484375 -4.109375 C 2.421875 -4.160156 2.34375 -4.195312 2.25 -4.21875 C 2.15625 -4.25 2.066406 -4.265625 1.984375 -4.265625 C 1.910156 -4.273438 1.820312 -4.28125 1.71875 -4.28125 L 1.578125 -4.28125 Z M 1.578125 -2.90625 "/></g></g></g><path stroke-linecap="round" transform="matrix(-0.103724, 0.179655, -0.179482, -0.103624, 18.499988, 29.045228)" fill="none" stroke-linejoin="miter" d="M 0.504309 -0.00858031 L 80.919052 0.0070682 " stroke="#000000" stroke-width="1" stroke-opacity="1" stroke-miterlimit="4"/><path stroke-linecap="round" transform="matrix(-0.103724, 0.179655, -0.179482, -0.103624, 9.795584, 44.121696)" fill-opacity="1" fill="#000000" fill-rule="nonzero" stroke-linejoin="round" d="M -2.499698 -1.500746 L -0.503089 0.000613378 L -2.505009 1.505767 Z M -2.499698 -1.500746 " stroke="#000000" stroke-width="1" stroke-opacity="1" stroke-miterlimit="4"/><path stroke-linecap="round" transform="matrix(-0.0414051, 0.203446, -0.203084, -0.0413315, 27.908107, 29.045281)" fill="none" stroke-linejoin="miter" d="M 0.507426 0.00186324 L 47.911511 -0.00715918 " stroke="#000000" stroke-width="1" stroke-opacity="1" stroke-miterlimit="4"/><path stroke-linecap="round" transform="matrix(-0.0414051, 0.203446, -0.203084, -0.0413315, 25.800171, 39.402714)" fill-opacity="1" fill="#000000" fill-rule="nonzero" stroke-linejoin="round" d="M -2.494363 -1.49485 L -0.500453 0.00285725 L -2.498991 1.506696 Z M -2.494363 -1.49485 " stroke="#000000" stroke-width="1" stroke-opacity="1" stroke-miterlimit="4"/><path stroke-linecap="round" transform="matrix(0.000000000000000013, 0.207111, -0.207247, 0.000000000000000013, 38.68713, 29.672137)" fill="none" stroke-linejoin="miter" d="M 0.507972 -0.00178636 L 82.457545 -0.00178636 " stroke="#000000" stroke-width="1" stroke-opacity="1" stroke-miterlimit="4"/><path stroke-linecap="round" transform="matrix(0.000000000000000013, 0.207111, -0.207247, 0.000000000000000013, 38.68713, 47.371241)" fill-opacity="1" fill="#000000" fill-rule="nonzero" stroke-linejoin="round" d="M -2.509178 -1.490798 L -0.491087 -0.00178636 L -2.509178 1.506073 Z M -2.509178 -1.490798 " stroke="#000000" stroke-width="1" stroke-opacity="1" stroke-miterlimit="4"/><path stroke-linecap="round" transform="matrix(0.0353433, 0.204095, -0.204208, 0.035363, 49.525073, 29.045391)" fill="none" stroke-linejoin="miter" d="M 0.504939 -0.000244261 L 47.62503 0.00621363 " stroke="#000000" stroke-width="1" stroke-opacity="1" stroke-miterlimit="4"/><path stroke-linecap="round" transform="matrix(0.0353433, 0.204095, -0.204208, 0.035363, 51.314498, 39.378676)" fill-opacity="1" fill="#000000" fill-rule="nonzero" stroke-linejoin="round" d="M -2.49618 -1.493453 L -0.496559 0.000357723 L -2.499671 1.50916 Z M -2.49618 -1.493453 " stroke="#000000" stroke-width="1" stroke-opacity="1" stroke-miterlimit="4"/><path stroke-linecap="round" transform="matrix(0.102652, 0.18027, -0.180096, 0.102553, 58.208757, 29.045362)" fill="none" stroke-linejoin="miter" d="M 0.509022 -0.00394224 L 80.920659 -0.00120764 " stroke="#000000" stroke-width="1" stroke-opacity="1" stroke-miterlimit="4"/><path stroke-linecap="round" transform="matrix(0.102652, 0.18027, -0.180096, 0.102553, 66.823333, 44.173695)" fill-opacity="1" fill="#000000" fill-rule="nonzero" stroke-linejoin="round" d="M -2.49747 -1.493508 L -0.50299 -0.00964733 L -2.50699 1.494266 Z M -2.49747 -1.493508 " stroke="#000000" stroke-width="1" stroke-opacity="1" stroke-miterlimit="4"/><g fill="#000000" fill-opacity="1"><g transform="translate(2.023787, 48.185497)"><g><path d="M 1.1875 -1.503906 L 1.1875 -1.699219 L 0.265625 -1.699219 L 0.265625 0 L 0.488281 0 L 0.488281 -0.753906 L 1.097656 -0.753906 L 1.097656 -0.949219 L 0.488281 -0.949219 L 0.488281 -1.503906 Z M 1.1875 -1.503906 "/></g></g></g><g fill="#000000" fill-opacity="1"><g transform="translate(3.307674, 48.185497)"><g><path d="M 0.847656 0.0234375 C 1.199219 0.0234375 1.46875 -0.191406 1.46875 -0.5625 L 1.46875 -1.699219 L 1.253906 -1.699219 L 1.253906 -0.59375 C 1.253906 -0.3125 1.074219 -0.175781 0.847656 -0.175781 C 0.625 -0.175781 0.449219 -0.308594 0.449219 -0.59375 L 0.449219 -1.699219 L 0.230469 -1.699219 L 0.230469 -0.5625 C 0.230469 -0.191406 0.5 0.0234375 0.847656 0.0234375 Z M 0.847656 0.0234375 "/></g></g></g><g fill="#000000" fill-opacity="1"><g transform="translate(5.009459, 48.185497)"><g><path d="M 1.410156 -1.699219 L 1.410156 -0.332031 L 0.492188 -1.699219 L 0.265625 -1.699219 L 0.265625 0 L 0.480469 0 L 0.480469 -1.375 L 1.394531 0 L 1.625 0 L 1.625 -1.699219 Z M 1.410156 -1.699219 "/></g></g></g><g fill="#000000" fill-opacity="1"><g transform="translate(6.900867, 48.185497)"><g><path d="M 0.996094 0.0234375 C 1.332031 0.0234375 1.613281 -0.140625 1.746094 -0.429688 L 1.546875 -0.511719 C 1.445312 -0.300781 1.238281 -0.183594 0.996094 -0.183594 C 0.644531 -0.183594 0.363281 -0.425781 0.363281 -0.851562 C 0.363281 -1.277344 0.644531 -1.515625 0.996094 -1.515625 C 1.238281 -1.515625 1.445312 -1.398438 1.546875 -1.191406 L 1.746094 -1.273438 C 1.613281 -1.558594 1.332031 -1.722656 0.996094 -1.722656 C 0.515625 -1.722656 0.148438 -1.394531 0.148438 -0.851562 C 0.148438 -0.308594 0.515625 0.0234375 0.996094 0.0234375 Z M 0.996094 0.0234375 "/></g></g></g><g fill="#000000" fill-opacity="1"><g transform="translate(8.751211, 48.185497)"><g><path d="M 1.15625 -1.699219 L 0.0664062 -1.699219 L 0.0664062 -1.503906 L 0.503906 -1.503906 L 0.503906 0 L 0.71875 0 L 0.71875 -1.503906 L 1.15625 -1.503906 Z M 1.15625 -1.699219 "/></g></g></g><g fill="#000000" fill-opacity="1"><g transform="translate(9.974708, 48.185497)"><g><path d="M 0.265625 0 L 0.484375 0 L 0.484375 -1.699219 L 0.265625 -1.699219 Z M 0.265625 0 "/></g></g></g><g fill="#000000" fill-opacity="1"><g transform="translate(10.72475, 48.185497)"><g><path d="M 0.996094 0.0234375 C 1.46875 0.0234375 1.839844 -0.308594 1.839844 -0.851562 C 1.839844 -1.394531 1.46875 -1.722656 0.996094 -1.722656 C 0.515625 -1.722656 0.148438 -1.394531 0.148438 -0.851562 C 0.148438 -0.308594 0.515625 0.0234375 0.996094 0.0234375 Z M 0.996094 -0.179688 C 0.644531 -0.179688 0.363281 -0.421875 0.363281 -0.851562 C 0.363281 -1.277344 0.644531 -1.515625 0.996094 -1.515625 C 1.34375 -1.515625 1.625 -1.277344 1.625 -0.851562 C 1.625 -0.421875 1.34375 -0.179688 0.996094 -0.179688 Z M 0.996094 -0.179688 "/></g></g></g><g fill="#000000" fill-opacity="1"><g transform="translate(12.712782, 48.185497)"><g><path d="M 1.410156 -1.699219 L 1.410156 -0.332031 L 0.492188 -1.699219 L 0.265625 -1.699219 L 0.265625 0 L 0.480469 0 L 0.480469 -1.375 L 1.394531 0 L 1.625 0 L 1.625 -1.699219 Z M 1.410156 -1.699219 "/></g></g></g><g fill="#000000" fill-opacity="1"><g transform="translate(14.604191, 48.185497)"><g><path d="M 1.359375 0 L 1.585938 0 L 0.957031 -1.699219 L 0.699219 -1.699219 L 0.0742188 0 L 0.296875 0 L 0.441406 -0.40625 L 1.210938 -0.40625 Z M 0.511719 -0.597656 L 0.828125 -1.484375 L 1.144531 -0.597656 Z M 0.511719 -0.597656 "/></g></g></g><g fill="#000000" fill-opacity="1"><g transform="translate(16.261287, 48.185497)"><g><path d="M 0.484375 -0.195312 L 0.484375 -1.699219 L 0.265625 -1.699219 L 0.265625 0 L 1.074219 0 L 1.074219 -0.195312 Z M 0.484375 -0.195312 "/></g></g></g><g fill="#000000" fill-opacity="1"><g transform="translate(21.827929, 43.488861)"><g><path d="M 0.847656 0.0234375 C 1.199219 0.0234375 1.46875 -0.191406 1.46875 -0.5625 L 1.46875 -1.699219 L 1.253906 -1.699219 L 1.253906 -0.59375 C 1.253906 -0.3125 1.074219 -0.175781 0.847656 -0.175781 C 0.625 -0.175781 0.449219 -0.308594 0.449219 -0.59375 L 0.449219 -1.699219 L 0.230469 -1.699219 L 0.230469 -0.5625 C 0.230469 -0.191406 0.5 0.0234375 0.847656 0.0234375 Z M 0.847656 0.0234375 "/></g></g></g><g fill="#000000" fill-opacity="1"><g transform="translate(23.529713, 43.488861)"><g><path d="M 0.792969 0.0234375 C 1.125 0.0234375 1.394531 -0.132812 1.394531 -0.460938 C 1.394531 -0.804688 1.082031 -0.886719 0.808594 -0.957031 C 0.589844 -1.015625 0.394531 -1.066406 0.394531 -1.257812 C 0.394531 -1.457031 0.574219 -1.535156 0.75 -1.535156 C 0.945312 -1.535156 1.113281 -1.449219 1.164062 -1.257812 L 1.367188 -1.3125 C 1.304688 -1.597656 1.042969 -1.722656 0.742188 -1.722656 C 0.441406 -1.722656 0.175781 -1.566406 0.175781 -1.253906 C 0.175781 -0.941406 0.441406 -0.859375 0.707031 -0.789062 C 0.945312 -0.722656 1.167969 -0.667969 1.171875 -0.453125 C 1.175781 -0.242188 0.988281 -0.164062 0.796875 -0.164062 C 0.566406 -0.164062 0.390625 -0.277344 0.339844 -0.476562 L 0.125 -0.425781 C 0.183594 -0.144531 0.441406 0.0234375 0.792969 0.0234375 Z M 0.792969 0.0234375 "/></g></g></g><g fill="#000000" fill-opacity="1"><g transform="translate(25.064822, 43.488861)"><g><path d="M 1.359375 0 L 1.585938 0 L 0.957031 -1.699219 L 0.699219 -1.699219 L 0.0742188 0 L 0.296875 0 L 0.441406 -0.40625 L 1.210938 -0.40625 Z M 0.511719 -0.597656 L 0.828125 -1.484375 L 1.144531 -0.597656 Z M 0.511719 -0.597656 "/></g></g></g><g fill="#000000" fill-opacity="1"><g transform="translate(26.721918, 43.488861)"><g><path d="M 1.074219 -0.886719 C 1.210938 -0.953125 1.285156 -1.085938 1.285156 -1.25 C 1.285156 -1.515625 1.085938 -1.699219 0.78125 -1.699219 L 0.265625 -1.699219 L 0.265625 0 L 0.929688 0 C 1.222656 0 1.410156 -0.191406 1.410156 -0.460938 C 1.410156 -0.695312 1.273438 -0.835938 1.074219 -0.886719 Z M 1.082031 -1.238281 C 1.082031 -1.082031 0.976562 -0.957031 0.820312 -0.957031 L 0.476562 -0.957031 L 0.476562 -1.511719 L 0.78125 -1.511719 C 0.96875 -1.511719 1.082031 -1.390625 1.082031 -1.238281 Z M 0.894531 -0.191406 L 0.476562 -0.191406 L 0.476562 -0.777344 L 0.878906 -0.777344 C 1.082031 -0.777344 1.199219 -0.648438 1.199219 -0.484375 C 1.199219 -0.324219 1.085938 -0.191406 0.894531 -0.191406 Z M 0.894531 -0.191406 "/></g></g></g><g fill="#000000" fill-opacity="1"><g transform="translate(28.266689, 43.488861)"><g><path d="M 0.484375 -0.195312 L 0.484375 -1.699219 L 0.265625 -1.699219 L 0.265625 0 L 1.074219 0 L 1.074219 -0.195312 Z M 0.484375 -0.195312 "/></g></g></g><g fill="#000000" fill-opacity="1"><g transform="translate(29.409264, 43.488861)"><g><path d="M 1.179688 -1.503906 L 1.179688 -1.699219 L 0.265625 -1.699219 L 0.265625 0 L 1.179688 0 L 1.179688 -0.195312 L 0.488281 -0.195312 L 0.488281 -0.753906 L 1.097656 -0.753906 L 1.097656 -0.945312 L 0.488281 -0.945312 L 0.488281 -1.503906 Z M 1.179688 -1.503906 "/></g></g></g><g fill="#000000" fill-opacity="1"><g transform="translate(29.910486, 51.907134)"><g><path d="M 2.066406 0 L 1.9375 -1.699219 L 1.648438 -1.699219 L 1.132812 -0.375 L 0.617188 -1.699219 L 0.332031 -1.699219 L 0.203125 0 L 0.414062 0 L 0.527344 -1.398438 L 1.070312 0 L 1.199219 0 L 1.742188 -1.402344 L 1.855469 0 Z M 2.066406 0 "/></g></g></g><g fill="#000000" fill-opacity="1"><g transform="translate(32.178727, 51.907134)"><g><path d="M 1.359375 0 L 1.585938 0 L 0.957031 -1.699219 L 0.699219 -1.699219 L 0.0742188 0 L 0.296875 0 L 0.441406 -0.40625 L 1.210938 -0.40625 Z M 0.511719 -0.597656 L 0.828125 -1.484375 L 1.144531 -0.597656 Z M 0.511719 -0.597656 "/></g></g></g><g fill="#000000" fill-opacity="1"><g transform="translate(33.835823, 51.907134)"><g><path d="M 0.265625 0 L 0.484375 0 L 0.484375 -1.699219 L 0.265625 -1.699219 Z M 0.265625 0 "/></g></g></g><g fill="#000000" fill-opacity="1"><g transform="translate(34.585864, 51.907134)"><g><path d="M 1.410156 -1.699219 L 1.410156 -0.332031 L 0.492188 -1.699219 L 0.265625 -1.699219 L 0.265625 0 L 0.480469 0 L 0.480469 -1.375 L 1.394531 0 L 1.625 0 L 1.625 -1.699219 Z M 1.410156 -1.699219 "/></g></g></g><g fill="#000000" fill-opacity="1"><g transform="translate(36.477273, 51.907134)"><g><path d="M 1.15625 -1.699219 L 0.0664062 -1.699219 L 0.0664062 -1.503906 L 0.503906 -1.503906 L 0.503906 0 L 0.71875 0 L 0.71875 -1.503906 L 1.15625 -1.503906 Z M 1.15625 -1.699219 "/></g></g></g><g fill="#000000" fill-opacity="1"><g transform="translate(37.70077, 51.907134)"><g><path d="M 1.359375 0 L 1.585938 0 L 0.957031 -1.699219 L 0.699219 -1.699219 L 0.0742188 0 L 0.296875 0 L 0.441406 -0.40625 L 1.210938 -0.40625 Z M 0.511719 -0.597656 L 0.828125 -1.484375 L 1.144531 -0.597656 Z M 0.511719 -0.597656 "/></g></g></g><g fill="#000000" fill-opacity="1"><g transform="translate(39.357866, 51.907134)"><g><path d="M 0.265625 0 L 0.484375 0 L 0.484375 -1.699219 L 0.265625 -1.699219 Z M 0.265625 0 "/></g></g></g><g fill="#000000" fill-opacity="1"><g transform="translate(40.107908, 51.907134)"><g><path d="M 1.410156 -1.699219 L 1.410156 -0.332031 L 0.492188 -1.699219 L 0.265625 -1.699219 L 0.265625 0 L 0.480469 0 L 0.480469 -1.375 L 1.394531 0 L 1.625 0 L 1.625 -1.699219 Z M 1.410156 -1.699219 "/></g></g></g><g fill="#000000" fill-opacity="1"><g transform="translate(41.999316, 51.907134)"><g><path d="M 1.359375 0 L 1.585938 0 L 0.957031 -1.699219 L 0.699219 -1.699219 L 0.0742188 0 L 0.296875 0 L 0.441406 -0.40625 L 1.210938 -0.40625 Z M 0.511719 -0.597656 L 0.828125 -1.484375 L 1.144531 -0.597656 Z M 0.511719 -0.597656 "/></g></g></g><g fill="#000000" fill-opacity="1"><g transform="translate(43.656412, 51.907134)"><g><path d="M 1.074219 -0.886719 C 1.210938 -0.953125 1.285156 -1.085938 1.285156 -1.25 C 1.285156 -1.515625 1.085938 -1.699219 0.78125 -1.699219 L 0.265625 -1.699219 L 0.265625 0 L 0.929688 0 C 1.222656 0 1.410156 -0.191406 1.410156 -0.460938 C 1.410156 -0.695312 1.273438 -0.835938 1.074219 -0.886719 Z M 1.082031 -1.238281 C 1.082031 -1.082031 0.976562 -0.957031 0.820312 -0.957031 L 0.476562 -0.957031 L 0.476562 -1.511719 L 0.78125 -1.511719 C 0.96875 -1.511719 1.082031 -1.390625 1.082031 -1.238281 Z M 0.894531 -0.191406 L 0.476562 -0.191406 L 0.476562 -0.777344 L 0.878906 -0.777344 C 1.082031 -0.777344 1.199219 -0.648438 1.199219 -0.484375 C 1.199219 -0.324219 1.085938 -0.191406 0.894531 -0.191406 Z M 0.894531 -0.191406 "/></g></g></g><g fill="#000000" fill-opacity="1"><g transform="translate(45.201183, 51.907134)"><g><path d="M 0.484375 -0.195312 L 0.484375 -1.699219 L 0.265625 -1.699219 L 0.265625 0 L 1.074219 0 L 1.074219 -0.195312 Z M 0.484375 -0.195312 "/></g></g></g><g fill="#000000" fill-opacity="1"><g transform="translate(46.343758, 51.907134)"><g><path d="M 1.179688 -1.503906 L 1.179688 -1.699219 L 0.265625 -1.699219 L 0.265625 0 L 1.179688 0 L 1.179688 -0.195312 L 0.488281 -0.195312 L 0.488281 -0.753906 L 1.097656 -0.753906 L 1.097656 -0.945312 L 0.488281 -0.945312 L 0.488281 -1.503906 Z M 1.179688 -1.503906 "/></g></g></g><g fill="#000000" fill-opacity="1"><g transform="translate(45.573891, 43.488861)"><g><path d="M 1.179688 -1.503906 L 1.179688 -1.699219 L 0.265625 -1.699219 L 0.265625 0 L 1.179688 0 L 1.179688 -0.195312 L 0.488281 -0.195312 L 0.488281 -0.753906 L 1.097656 -0.753906 L 1.097656 -0.945312 L 0.488281 -0.945312 L 0.488281 -1.503906 Z M 1.179688 -1.503906 "/></g></g></g><g fill="#000000" fill-opacity="1"><g transform="translate(46.900051, 43.488861)"><g><path d="M 1.1875 -1.503906 L 1.1875 -1.699219 L 0.265625 -1.699219 L 0.265625 0 L 0.488281 0 L 0.488281 -0.753906 L 1.097656 -0.753906 L 1.097656 -0.949219 L 0.488281 -0.949219 L 0.488281 -1.503906 Z M 1.1875 -1.503906 "/></g></g></g><g fill="#000000" fill-opacity="1"><g transform="translate(48.183938, 43.488861)"><g><path d="M 1.1875 -1.503906 L 1.1875 -1.699219 L 0.265625 -1.699219 L 0.265625 0 L 0.488281 0 L 0.488281 -0.753906 L 1.097656 -0.753906 L 1.097656 -0.949219 L 0.488281 -0.949219 L 0.488281 -1.503906 Z M 1.1875 -1.503906 "/></g></g></g><g fill="#000000" fill-opacity="1"><g transform="translate(49.467825, 43.488861)"><g><path d="M 0.265625 0 L 0.484375 0 L 0.484375 -1.699219 L 0.265625 -1.699219 Z M 0.265625 0 "/></g></g></g><g fill="#000000" fill-opacity="1"><g transform="translate(50.217866, 43.488861)"><g><path d="M 0.996094 0.0234375 C 1.332031 0.0234375 1.613281 -0.140625 1.746094 -0.429688 L 1.546875 -0.511719 C 1.445312 -0.300781 1.238281 -0.183594 0.996094 -0.183594 C 0.644531 -0.183594 0.363281 -0.425781 0.363281 -0.851562 C 0.363281 -1.277344 0.644531 -1.515625 0.996094 -1.515625 C 1.238281 -1.515625 1.445312 -1.398438 1.546875 -1.191406 L 1.746094 -1.273438 C 1.613281 -1.558594 1.332031 -1.722656 0.996094 -1.722656 C 0.515625 -1.722656 0.148438 -1.394531 0.148438 -0.851562 C 0.148438 -0.308594 0.515625 0.0234375 0.996094 0.0234375 Z M 0.996094 0.0234375 "/></g></g></g><g fill="#000000" fill-opacity="1"><g transform="translate(52.06821, 43.488861)"><g><path d="M 0.265625 0 L 0.484375 0 L 0.484375 -1.699219 L 0.265625 -1.699219 Z M 0.265625 0 "/></g></g></g><g fill="#000000" fill-opacity="1"><g transform="translate(52.818251, 43.488861)"><g><path d="M 1.179688 -1.503906 L 1.179688 -1.699219 L 0.265625 -1.699219 L 0.265625 0 L 1.179688 0 L 1.179688 -0.195312 L 0.488281 -0.195312 L 0.488281 -0.753906 L 1.097656 -0.753906 L 1.097656 -0.945312 L 0.488281 -0.945312 L 0.488281 -1.503906 Z M 1.179688 -1.503906 "/></g></g></g><g fill="#000000" fill-opacity="1"><g transform="translate(54.144411, 43.488861)"><g><path d="M 1.410156 -1.699219 L 1.410156 -0.332031 L 0.492188 -1.699219 L 0.265625 -1.699219 L 0.265625 0 L 0.480469 0 L 0.480469 -1.375 L 1.394531 0 L 1.625 0 L 1.625 -1.699219 Z M 1.410156 -1.699219 "/></g></g></g><g fill="#000000" fill-opacity="1"><g transform="translate(56.03582, 43.488861)"><g><path d="M 1.15625 -1.699219 L 0.0664062 -1.699219 L 0.0664062 -1.503906 L 0.503906 -1.503906 L 0.503906 0 L 0.71875 0 L 0.71875 -1.503906 L 1.15625 -1.503906 Z M 1.15625 -1.699219 "/></g></g></g><g fill="#000000" fill-opacity="1"><g transform="translate(62.5132, 48.961657)"><g><path d="M 1.441406 0 L 1.015625 -0.683594 C 1.101562 -0.703125 1.171875 -0.738281 1.230469 -0.789062 C 1.34375 -0.878906 1.402344 -1.023438 1.402344 -1.207031 C 1.402344 -1.390625 1.34375 -1.519531 1.21875 -1.597656 C 1.121094 -1.667969 0.980469 -1.699219 0.789062 -1.699219 L 0.265625 -1.699219 L 0.265625 0 L 0.484375 0 L 0.484375 -0.660156 L 0.804688 -0.660156 L 1.1875 0 Z M 0.484375 -1.511719 L 0.761719 -1.511719 C 0.910156 -1.511719 1.019531 -1.496094 1.089844 -1.4375 C 1.148438 -1.390625 1.179688 -1.3125 1.179688 -1.199219 C 1.179688 -1.078125 1.148438 -0.996094 1.09375 -0.941406 C 1.027344 -0.871094 0.914062 -0.847656 0.761719 -0.847656 L 0.484375 -0.847656 Z M 0.484375 -1.511719 "/></g></g></g><g fill="#000000" fill-opacity="1"><g transform="translate(64.086958, 48.961657)"><g><path d="M 1.179688 -1.503906 L 1.179688 -1.699219 L 0.265625 -1.699219 L 0.265625 0 L 1.179688 0 L 1.179688 -0.195312 L 0.488281 -0.195312 L 0.488281 -0.753906 L 1.097656 -0.753906 L 1.097656 -0.945312 L 0.488281 -0.945312 L 0.488281 -1.503906 Z M 1.179688 -1.503906 "/></g></g></g><g fill="#000000" fill-opacity="1"><g transform="translate(65.413118, 48.961657)"><g><path d="M 0.484375 -0.195312 L 0.484375 -1.699219 L 0.265625 -1.699219 L 0.265625 0 L 1.074219 0 L 1.074219 -0.195312 Z M 0.484375 -0.195312 "/></g></g></g><g fill="#000000" fill-opacity="1"><g transform="translate(66.555694, 48.961657)"><g><path d="M 0.265625 0 L 0.484375 0 L 0.484375 -1.699219 L 0.265625 -1.699219 Z M 0.265625 0 "/></g></g></g><g fill="#000000" fill-opacity="1"><g transform="translate(67.305735, 48.961657)"><g><path d="M 1.359375 0 L 1.585938 0 L 0.957031 -1.699219 L 0.699219 -1.699219 L 0.0742188 0 L 0.296875 0 L 0.441406 -0.40625 L 1.210938 -0.40625 Z M 0.511719 -0.597656 L 0.828125 -1.484375 L 1.144531 -0.597656 Z M 0.511719 -0.597656 "/></g></g></g><g fill="#000000" fill-opacity="1"><g transform="translate(68.962831, 48.961657)"><g><path d="M 1.074219 -0.886719 C 1.210938 -0.953125 1.285156 -1.085938 1.285156 -1.25 C 1.285156 -1.515625 1.085938 -1.699219 0.78125 -1.699219 L 0.265625 -1.699219 L 0.265625 0 L 0.929688 0 C 1.222656 0 1.410156 -0.191406 1.410156 -0.460938 C 1.410156 -0.695312 1.273438 -0.835938 1.074219 -0.886719 Z M 1.082031 -1.238281 C 1.082031 -1.082031 0.976562 -0.957031 0.820312 -0.957031 L 0.476562 -0.957031 L 0.476562 -1.511719 L 0.78125 -1.511719 C 0.96875 -1.511719 1.082031 -1.390625 1.082031 -1.238281 Z M 0.894531 -0.191406 L 0.476562 -0.191406 L 0.476562 -0.777344 L 0.878906 -0.777344 C 1.082031 -0.777344 1.199219 -0.648438 1.199219 -0.484375 C 1.199219 -0.324219 1.085938 -0.191406 0.894531 -0.191406 Z M 0.894531 -0.191406 "/></g></g></g><g fill="#000000" fill-opacity="1"><g transform="translate(70.507602, 48.961657)"><g><path d="M 0.484375 -0.195312 L 0.484375 -1.699219 L 0.265625 -1.699219 L 0.265625 0 L 1.074219 0 L 1.074219 -0.195312 Z M 0.484375 -0.195312 "/></g></g></g><g fill="#000000" fill-opacity="1"><g transform="translate(71.650177, 48.961657)"><g><path d="M 1.179688 -1.503906 L 1.179688 -1.699219 L 0.265625 -1.699219 L 0.265625 0 L 1.179688 0 L 1.179688 -0.195312 L 0.488281 -0.195312 L 0.488281 -0.753906 L 1.097656 -0.753906 L 1.097656 -0.945312 L 0.488281 -0.945312 L 0.488281 -1.503906 Z M 1.179688 -1.503906 "/></g></g></g></svg>