<svg xmlns="http://www.w3.org/2000/svg" xmlns:xlink="http://www.w3.org/1999/xlink" width="200" zoomAndPan="magnify" viewBox="0 0 150 38.999999" height="52" preserveAspectRatio="xMidYMid meet" version="1.0"><defs><g/></defs><g fill="#ffffff" fill-opacity="1"><g transform="translate(2.30904, 21.700787)"><g><path d="M 5.152344 0.136719 C 6.617188 0.136719 7.699219 -0.617188 8.144531 -1.554688 L 8.21875 0 L 9.328125 0 L 9.328125 -4.992188 L 5.832031 -4.992188 L 5.832031 -3.894531 L 8.015625 -3.894531 C 7.902344 -2.136719 6.664062 -1.117188 5.152344 -1.117188 C 2.976562 -1.117188 2.070312 -2.820312 2.070312 -4.851562 C 2.070312 -6.765625 2.976562 -8.476562 5.128906 -8.476562 C 6.414062 -8.476562 7.414062 -7.832031 7.925781 -6.546875 L 9.160156 -7.074219 C 8.40625 -8.792969 6.980469 -9.714844 5.140625 -9.714844 C 2.117188 -9.714844 0.710938 -7.421875 0.710938 -4.78125 C 0.710938 -2.136719 2.117188 0.136719 5.152344 0.136719 Z M 5.152344 0.136719 "/></g></g></g><g fill="#ffffff" fill-opacity="1"><g transform="translate(12.588474, 21.700787)"><g><path d="M 1.339844 0.0117188 L 2.710938 0.0117188 L 2.710938 -4.1875 L 4.085938 -4.1875 L 6.460938 0.0117188 L 8.050781 0.0117188 L 5.425781 -4.34375 C 6.582031 -4.652344 7.386719 -5.574219 7.386719 -6.824219 C 7.386719 -8.535156 5.972656 -9.550781 4.242188 -9.550781 L 1.339844 -9.550781 Z M 2.726562 -5.371094 L 2.726562 -8.328125 L 4.253906 -8.328125 C 5.316406 -8.328125 6.027344 -7.757812 6.027344 -6.8125 C 6.027344 -5.925781 5.378906 -5.417969 4.402344 -5.371094 Z M 2.726562 -5.371094 "/></g></g></g><g fill="#ffffff" fill-opacity="1"><g transform="translate(20.982326, 21.700787)"><g><path d="M 0.265625 0 L 1.765625 0 L 2.503906 -2.078125 L 6.472656 -2.078125 L 7.203125 0 L 8.683594 0 L 5.003906 -9.558594 L 3.964844 -9.558594 Z M 2.960938 -3.289062 L 4.492188 -7.535156 L 6.007812 -3.289062 Z M 2.960938 -3.289062 "/></g></g></g><g fill="#ffffff" fill-opacity="1"><g transform="translate(29.92361, 21.700787)"><g><path d="M 3.394531 0 L 4.777344 0 L 4.777344 -8.367188 L 7.894531 -8.367188 L 7.894531 -9.558594 L 0.277344 -9.558594 L 0.277344 -8.367188 L 3.394531 -8.367188 Z M 3.394531 0 "/></g></g></g><g fill="#ffffff" fill-opacity="1"><g transform="translate(38.087679, 21.700787)"><g><path d="M 1.339844 0 L 2.710938 0 L 2.710938 -4.171875 L 7.238281 -4.171875 L 7.238281 0 L 8.617188 0 L 8.617188 -9.558594 L 7.238281 -9.558594 L 7.238281 -5.390625 L 2.710938 -5.390625 L 2.710938 -9.558594 L 1.339844 -9.558594 Z M 1.339844 0 "/></g></g></g><g fill="#ffffff" fill-opacity="1"><g transform="translate(48.035948, 21.700787)"><g/></g></g><g fill="#ffffff" fill-opacity="1"><g transform="translate(51.536765, 21.700787)"><g><path d="M 8.773438 -0.359375 L 7.320312 -2.023438 C 7.746094 -2.757812 8.003906 -3.625 8.0625 -4.558594 L 6.832031 -4.695312 C 6.796875 -4.09375 6.675781 -3.511719 6.464844 -3.003906 L 4.769531 -4.953125 C 5.742188 -5.601562 6.589844 -6.359375 6.589844 -7.523438 C 6.589844 -8.746094 5.546875 -9.671875 4.261719 -9.671875 C 2.996094 -9.671875 1.792969 -8.867188 1.792969 -7.515625 C 1.792969 -6.582031 2.535156 -5.695312 2.996094 -5.167969 C 1.839844 -4.457031 0.710938 -3.605469 0.710938 -2.128906 C 0.710938 -0.636719 2.007812 0.148438 3.632812 0.148438 C 4.828125 0.148438 5.835938 -0.3125 6.589844 -1.0625 L 7.875 0.433594 Z M 3.011719 -7.496094 C 3.011719 -8.230469 3.632812 -8.625 4.273438 -8.625 C 4.953125 -8.625 5.4375 -8.128906 5.4375 -7.507812 C 5.4375 -6.777344 4.78125 -6.261719 3.964844 -5.75 C 3.550781 -6.222656 3.011719 -6.933594 3.011719 -7.496094 Z M 3.617188 -0.988281 C 2.699219 -0.988281 1.929688 -1.324219 1.929688 -2.125 C 1.929688 -3.070312 2.792969 -3.699219 3.78125 -4.324219 L 5.824219 -1.949219 C 5.296875 -1.351562 4.566406 -0.988281 3.617188 -0.988281 Z M 3.617188 -0.988281 "/></g></g></g><g fill="#ffffff" fill-opacity="1"><g transform="translate(60.856516, 21.700787)"><g/></g></g><g fill="#ffffff" fill-opacity="1"><g transform="translate(64.357333, 21.700787)"><g><path d="M 0.265625 0 L 1.765625 0 L 2.503906 -2.078125 L 6.472656 -2.078125 L 7.203125 0 L 8.683594 0 L 5.003906 -9.558594 L 3.964844 -9.558594 Z M 2.960938 -3.289062 L 4.492188 -7.535156 L 6.007812 -3.289062 Z M 2.960938 -3.289062 "/></g></g></g><g fill="#ffffff" fill-opacity="1"><g transform="translate(73.298617, 21.700787)"><g><path d="M 3.910156 0.109375 C 5.667969 0.109375 7.046875 -0.972656 7.046875 -2.707031 C 7.046875 -5.832031 2.433594 -5.28125 2.433594 -7.265625 C 2.433594 -8.015625 3.078125 -8.488281 3.816406 -8.488281 C 4.519531 -8.488281 5.160156 -8.128906 5.527344 -7.425781 L 6.621094 -8.125 C 6 -9.207031 5 -9.699219 3.847656 -9.699219 C 2.339844 -9.699219 1.074219 -8.746094 1.074219 -7.175781 C 1.074219 -4.171875 5.695312 -4.828125 5.695312 -2.589844 C 5.695312 -1.65625 5.011719 -1.117188 3.921875 -1.117188 C 2.847656 -1.117188 1.902344 -1.675781 1.773438 -2.921875 L 0.441406 -2.5625 C 0.730469 -0.777344 2.285156 0.109375 3.910156 0.109375 Z M 3.910156 0.109375 "/></g></g></g><g fill="#ffffff" fill-opacity="1"><g transform="translate(80.888233, 21.700787)"><g><path d="M 3.910156 0.109375 C 5.667969 0.109375 7.046875 -0.972656 7.046875 -2.707031 C 7.046875 -5.832031 2.433594 -5.28125 2.433594 -7.265625 C 2.433594 -8.015625 3.078125 -8.488281 3.816406 -8.488281 C 4.519531 -8.488281 5.160156 -8.128906 5.527344 -7.425781 L 6.621094 -8.125 C 6 -9.207031 5 -9.699219 3.847656 -9.699219 C 2.339844 -9.699219 1.074219 -8.746094 1.074219 -7.175781 C 1.074219 -4.171875 5.695312 -4.828125 5.695312 -2.589844 C 5.695312 -1.65625 5.011719 -1.117188 3.921875 -1.117188 C 2.847656 -1.117188 1.902344 -1.675781 1.773438 -2.921875 L 0.441406 -2.5625 C 0.730469 -0.777344 2.285156 0.109375 3.910156 0.109375 Z M 3.910156 0.109375 "/></g></g></g><g fill="#ffffff" fill-opacity="1"><g transform="translate(88.47785, 21.700787)"><g><path d="M 5.140625 0.136719 C 8.171875 0.136719 9.585938 -2.152344 9.585938 -4.78125 C 9.585938 -7.40625 8.171875 -9.699219 5.140625 -9.699219 C 2.117188 -9.699219 0.703125 -7.40625 0.703125 -4.78125 C 0.703125 -2.152344 2.117188 0.136719 5.140625 0.136719 Z M 5.140625 -1.101562 C 2.957031 -1.101562 2.109375 -2.847656 2.109375 -4.78125 C 2.109375 -6.710938 2.957031 -8.457031 5.140625 -8.457031 C 7.332031 -8.457031 8.183594 -6.710938 8.183594 -4.78125 C 8.183594 -2.847656 7.332031 -1.101562 5.140625 -1.101562 Z M 5.140625 -1.101562 "/></g></g></g><g fill="#ffffff" fill-opacity="1"><g transform="translate(98.757284, 21.700787)"><g><path d="M 5.140625 0.136719 C 7.007812 0.136719 8.441406 -0.804688 9.179688 -2.507812 L 7.914062 -3.042969 C 7.378906 -1.652344 6.40625 -1.15625 5.175781 -1.15625 C 2.96875 -1.15625 2.070312 -2.820312 2.070312 -4.828125 C 2.070312 -6.757812 2.960938 -8.414062 5.148438 -8.414062 C 6.378906 -8.414062 7.507812 -7.933594 7.894531 -6.546875 L 9.164062 -7.074219 C 8.449219 -8.847656 7.007812 -9.714844 5.179688 -9.714844 C 2.089844 -9.714844 0.710938 -7.421875 0.710938 -4.789062 C 0.710938 -2.128906 2.125 0.136719 5.140625 0.136719 Z M 5.140625 0.136719 "/></g></g></g><g fill="#ffffff" fill-opacity="1"><g transform="translate(108.387917, 21.700787)"><g><path d="M 1.339844 0 L 2.710938 0 L 2.710938 -9.558594 L 1.339844 -9.558594 Z M 1.339844 0 "/></g></g></g><g fill="#ffffff" fill-opacity="1"><g transform="translate(112.436166, 21.700787)"><g><path d="M 0.265625 0 L 1.765625 0 L 2.503906 -2.078125 L 6.472656 -2.078125 L 7.203125 0 L 8.683594 0 L 5.003906 -9.558594 L 3.964844 -9.558594 Z M 2.960938 -3.289062 L 4.492188 -7.535156 L 6.007812 -3.289062 Z M 2.960938 -3.289062 "/></g></g></g><g fill="#ffffff" fill-opacity="1"><g transform="translate(121.37745, 21.700787)"><g><path d="M 3.394531 0 L 4.777344 0 L 4.777344 -8.367188 L 7.894531 -8.367188 L 7.894531 -9.558594 L 0.277344 -9.558594 L 0.277344 -8.367188 L 3.394531 -8.367188 Z M 3.394531 0 "/></g></g></g><g fill="#ffffff" fill-opacity="1"><g transform="translate(129.541519, 21.700787)"><g><path d="M 1.339844 0 L 7.609375 0 L 7.609375 -1.277344 L 2.710938 -1.277344 L 2.710938 -4.171875 L 7.101562 -4.171875 L 7.101562 -5.390625 L 2.710938 -5.390625 L 2.710938 -8.328125 L 7.609375 -8.328125 L 7.609375 -9.558594 L 1.339844 -9.558594 Z M 1.339844 0 "/></g></g></g><g fill="#ffffff" fill-opacity="1"><g transform="translate(137.935371, 21.700787)"><g><path d="M 3.910156 0.109375 C 5.667969 0.109375 7.046875 -0.972656 7.046875 -2.707031 C 7.046875 -5.832031 2.433594 -5.28125 2.433594 -7.265625 C 2.433594 -8.015625 3.078125 -8.488281 3.816406 -8.488281 C 4.519531 -8.488281 5.160156 -8.128906 5.527344 -7.425781 L 6.621094 -8.125 C 6 -9.207031 5 -9.699219 3.847656 -9.699219 C 2.339844 -9.699219 1.074219 -8.746094 1.074219 -7.175781 C 1.074219 -4.171875 5.695312 -4.828125 5.695312 -2.589844 C 5.695312 -1.65625 5.011719 -1.117188 3.921875 -1.117188 C 2.847656 -1.117188 1.902344 -1.675781 1.773438 -2.921875 L 0.441406 -2.5625 C 0.730469 -0.777344 2.285156 0.109375 3.910156 0.109375 Z M 3.910156 0.109375 "/></g></g></g></svg>