<svg xmlns="http://www.w3.org/2000/svg" xmlns:xlink="http://www.w3.org/1999/xlink" width="200" zoomAndPan="magnify" viewBox="0 0 150 38.999999" height="52" preserveAspectRatio="xMidYMid meet" version="1.0"><defs><g/><clipPath id="id1"><path d="M 7.617188 1.074219 L 45.347656 1.074219 L 45.347656 39 L 7.617188 39 Z M 7.617188 1.074219 " clip-rule="nonzero"/></clipPath><clipPath id="id2"><path d="M 25.5625 11.578125 L 42.484375 11.578125 L 42.484375 26.785156 L 25.5625 26.785156 Z M 25.5625 11.578125 " clip-rule="nonzero"/></clipPath><clipPath id="id3"><path d="M 27.855469 26.429688 C 29.953125 22.960938 34.140625 21.324219 38.054688 22.484375 C 36.832031 21.9375 35.484375 21.636719 34.09375 21.636719 C 32.699219 21.636719 31.359375 21.9375 30.128906 22.484375 C 28.398438 23.265625 26.90625 24.546875 25.878906 26.203125 L 25.5625 26.75 L 27.667969 26.75 C 27.730469 26.640625 27.792969 26.535156 27.855469 26.429688 Z M 30.402344 21.421875 L 33.953125 15.269531 L 37.65625 21.679688 L 36.648438 19.9375 C 34.871094 19.5625 33.113281 19.496094 31.371094 19.746094 Z M 37.65625 21.679688 C 37.8125 21.726562 37.976562 21.785156 38.128906 21.84375 C 39.132812 22.21875 40.042969 22.78125 40.816406 23.507812 L 38.21875 19.007812 L 35.007812 13.441406 L 33.953125 11.617188 L 32.902344 13.441406 L 29.6875 19.007812 L 27.230469 23.261719 C 27.949219 22.632812 28.757812 22.121094 29.621094 21.734375 C 29.875 21.617188 30.132812 21.515625 30.402344 21.421875 C 32.777344 20.753906 35.195312 20.835938 37.652344 21.679688 Z M 36.539062 22.664062 C 33.921875 22.308594 31.300781 23.257812 29.519531 25.207031 C 30.847656 24.289062 32.441406 23.78125 34.089844 23.78125 C 36.519531 23.78125 38.804688 24.875 40.332031 26.753906 L 42.484375 26.753906 L 42.300781 26.4375 C 42.070312 26.066406 41.816406 25.714844 41.542969 25.382812 C 40.664062 24.359375 39.539062 23.570312 38.269531 23.101562 C 37.714844 22.890625 37.136719 22.746094 36.535156 22.664062 Z M 36.539062 22.664062 " clip-rule="evenodd"/></clipPath></defs><g fill="#ffffff" fill-opacity="1"><g transform="translate(47.448829, 14.729144)"><g><path d="M 5.796875 0.152344 C 7.441406 0.152344 8.660156 -0.691406 9.164062 -1.75 L 9.246094 0 L 10.492188 0 L 10.492188 -5.617188 L 6.558594 -5.617188 L 6.558594 -4.382812 L 9.019531 -4.382812 C 8.886719 -2.40625 7.496094 -1.253906 5.796875 -1.253906 C 3.347656 -1.253906 2.328125 -3.171875 2.328125 -5.457031 C 2.328125 -7.609375 3.347656 -9.535156 5.769531 -9.535156 C 7.214844 -9.535156 8.339844 -8.8125 8.917969 -7.367188 L 10.304688 -7.960938 C 9.460938 -9.894531 7.851562 -10.929688 5.785156 -10.929688 C 2.382812 -10.929688 0.800781 -8.347656 0.800781 -5.378906 C 0.800781 -2.40625 2.382812 0.152344 5.796875 0.152344 Z M 5.796875 0.152344 "/></g></g></g><g fill="#ffffff" fill-opacity="1"><g transform="translate(59.015429, 14.729144)"><g><path d="M 1.507812 0.015625 L 3.050781 0.015625 L 3.050781 -4.710938 L 4.597656 -4.710938 L 7.265625 0.015625 L 9.054688 0.015625 L 6.101562 -4.886719 C 7.40625 -5.234375 8.308594 -6.269531 8.308594 -7.679688 C 8.308594 -9.605469 6.71875 -10.746094 4.769531 -10.746094 L 1.507812 -10.746094 Z M 3.066406 -6.042969 L 3.066406 -9.367188 L 4.785156 -9.367188 C 5.980469 -9.367188 6.78125 -8.726562 6.78125 -7.664062 C 6.78125 -6.667969 6.050781 -6.09375 4.953125 -6.042969 Z M 3.066406 -6.042969 "/></g></g></g><g fill="#ffffff" fill-opacity="1"><g transform="translate(68.46034, 14.729144)"><g><path d="M 0.296875 0 L 1.984375 0 L 2.816406 -2.335938 L 7.28125 -2.335938 L 8.105469 0 L 9.769531 0 L 5.632812 -10.753906 L 4.460938 -10.753906 Z M 3.332031 -3.699219 L 5.054688 -8.476562 L 6.757812 -3.699219 Z M 3.332031 -3.699219 "/></g></g></g><g fill="#ffffff" fill-opacity="1"><g transform="translate(78.52123, 14.729144)"><g><path d="M 3.820312 0 L 5.371094 0 L 5.371094 -9.414062 L 8.878906 -9.414062 L 8.878906 -10.753906 L 0.3125 -10.753906 L 0.3125 -9.414062 L 3.820312 -9.414062 Z M 3.820312 0 "/></g></g></g><g fill="#ffffff" fill-opacity="1"><g transform="translate(87.707585, 14.729144)"><g><path d="M 1.507812 0 L 3.050781 0 L 3.050781 -4.695312 L 8.140625 -4.695312 L 8.140625 0 L 9.695312 0 L 9.695312 -10.753906 L 8.140625 -10.753906 L 8.140625 -6.066406 L 3.050781 -6.066406 L 3.050781 -10.753906 L 1.507812 -10.753906 Z M 1.507812 0 "/></g></g></g><g fill="#ffffff" fill-opacity="1"><g transform="translate(98.901554, 14.729144)"><g/></g></g><g fill="#ffffff" fill-opacity="1"><g transform="translate(102.840736, 14.729144)"><g><path d="M 9.871094 -0.402344 L 8.234375 -2.273438 C 8.714844 -3.105469 9.003906 -4.078125 9.070312 -5.128906 L 7.6875 -5.28125 C 7.648438 -4.605469 7.511719 -3.949219 7.273438 -3.378906 L 5.363281 -5.570312 C 6.460938 -6.300781 7.410156 -7.152344 7.410156 -8.460938 C 7.410156 -9.839844 6.238281 -10.882812 4.792969 -10.882812 C 3.371094 -10.882812 2.015625 -9.976562 2.015625 -8.453125 C 2.015625 -7.40625 2.855469 -6.40625 3.371094 -5.8125 C 2.070312 -5.015625 0.800781 -4.054688 0.800781 -2.398438 C 0.800781 -0.714844 2.261719 0.167969 4.085938 0.167969 C 5.433594 0.167969 6.566406 -0.351562 7.410156 -1.195312 L 8.859375 0.488281 Z M 3.386719 -8.433594 C 3.386719 -9.261719 4.085938 -9.703125 4.808594 -9.703125 C 5.570312 -9.703125 6.117188 -9.148438 6.117188 -8.445312 C 6.117188 -7.625 5.378906 -7.046875 4.460938 -6.46875 C 3.996094 -7 3.386719 -7.800781 3.386719 -8.433594 Z M 4.070312 -1.109375 C 3.035156 -1.109375 2.167969 -1.492188 2.167969 -2.390625 C 2.167969 -3.453125 3.144531 -4.164062 4.253906 -4.863281 L 6.550781 -2.191406 C 5.957031 -1.523438 5.136719 -1.109375 4.070312 -1.109375 Z M 4.070312 -1.109375 "/></g></g></g><g fill="#ffffff" fill-opacity="1"><g transform="translate(113.319918, 14.729144)"><g/></g></g><g fill="#ffffff" fill-opacity="1"><g transform="translate(47.448829, 36.479142)"><g><path d="M 0.296875 0 L 1.984375 0 L 2.816406 -2.335938 L 7.28125 -2.335938 L 8.105469 0 L 9.769531 0 L 5.632812 -10.753906 L 4.460938 -10.753906 Z M 3.332031 -3.699219 L 5.054688 -8.476562 L 6.757812 -3.699219 Z M 3.332031 -3.699219 "/></g></g></g><g fill="#ffffff" fill-opacity="1"><g transform="translate(57.509719, 36.479142)"><g><path d="M 4.398438 0.121094 C 6.378906 0.121094 7.929688 -1.097656 7.929688 -3.042969 C 7.929688 -6.558594 2.738281 -5.941406 2.738281 -8.171875 C 2.738281 -9.019531 3.460938 -9.550781 4.292969 -9.550781 C 5.082031 -9.550781 5.804688 -9.148438 6.21875 -8.355469 L 7.449219 -9.140625 C 6.75 -10.355469 5.625 -10.914062 4.328125 -10.914062 C 2.632812 -10.914062 1.210938 -9.839844 1.210938 -8.074219 C 1.210938 -4.695312 6.40625 -5.433594 6.40625 -2.914062 C 6.40625 -1.863281 5.640625 -1.253906 4.414062 -1.253906 C 3.203125 -1.253906 2.136719 -1.886719 1.992188 -3.289062 L 0.496094 -2.882812 C 0.820312 -0.875 2.570312 0.121094 4.398438 0.121094 Z M 4.398438 0.121094 "/></g></g></g><g fill="#ffffff" fill-opacity="1"><g transform="translate(66.049689, 36.479142)"><g><path d="M 4.398438 0.121094 C 6.378906 0.121094 7.929688 -1.097656 7.929688 -3.042969 C 7.929688 -6.558594 2.738281 -5.941406 2.738281 -8.171875 C 2.738281 -9.019531 3.460938 -9.550781 4.292969 -9.550781 C 5.082031 -9.550781 5.804688 -9.148438 6.21875 -8.355469 L 7.449219 -9.140625 C 6.75 -10.355469 5.625 -10.914062 4.328125 -10.914062 C 2.632812 -10.914062 1.210938 -9.839844 1.210938 -8.074219 C 1.210938 -4.695312 6.40625 -5.433594 6.40625 -2.914062 C 6.40625 -1.863281 5.640625 -1.253906 4.414062 -1.253906 C 3.203125 -1.253906 2.136719 -1.886719 1.992188 -3.289062 L 0.496094 -2.882812 C 0.820312 -0.875 2.570312 0.121094 4.398438 0.121094 Z M 4.398438 0.121094 "/></g></g></g><g fill="#ffffff" fill-opacity="1"><g transform="translate(74.589658, 36.479142)"><g><path d="M 5.785156 0.152344 C 9.191406 0.152344 10.78125 -2.421875 10.78125 -5.378906 C 10.78125 -8.332031 9.191406 -10.914062 5.785156 -10.914062 C 2.382812 -10.914062 0.792969 -8.332031 0.792969 -5.378906 C 0.792969 -2.421875 2.382812 0.152344 5.785156 0.152344 Z M 5.785156 -1.242188 C 3.324219 -1.242188 2.375 -3.203125 2.375 -5.378906 C 2.375 -7.550781 3.324219 -9.511719 5.785156 -9.511719 C 8.25 -9.511719 9.207031 -7.550781 9.207031 -5.378906 C 9.207031 -3.203125 8.25 -1.242188 5.785156 -1.242188 Z M 5.785156 -1.242188 "/></g></g></g><g fill="#ffffff" fill-opacity="1"><g transform="translate(86.156258, 36.479142)"><g><path d="M 5.785156 0.152344 C 7.882812 0.152344 9.496094 -0.90625 10.328125 -2.824219 L 8.902344 -3.425781 C 8.300781 -1.855469 7.207031 -1.300781 5.820312 -1.300781 C 3.339844 -1.300781 2.328125 -3.171875 2.328125 -5.433594 C 2.328125 -7.601562 3.332031 -9.464844 5.792969 -9.464844 C 7.175781 -9.464844 8.445312 -8.925781 8.878906 -7.367188 L 10.3125 -7.960938 C 9.503906 -9.953125 7.882812 -10.929688 5.828125 -10.929688 C 2.351562 -10.929688 0.800781 -8.347656 0.800781 -5.386719 C 0.800781 -2.398438 2.390625 0.152344 5.785156 0.152344 Z M 5.785156 0.152344 "/></g></g></g><g fill="#ffffff" fill-opacity="1"><g transform="translate(96.992817, 36.479142)"><g><path d="M 1.507812 0 L 3.050781 0 L 3.050781 -10.753906 L 1.507812 -10.753906 Z M 1.507812 0 "/></g></g></g><g fill="#ffffff" fill-opacity="1"><g transform="translate(101.547977, 36.479142)"><g><path d="M 0.296875 0 L 1.984375 0 L 2.816406 -2.335938 L 7.28125 -2.335938 L 8.105469 0 L 9.769531 0 L 5.632812 -10.753906 L 4.460938 -10.753906 Z M 3.332031 -3.699219 L 5.054688 -8.476562 L 6.757812 -3.699219 Z M 3.332031 -3.699219 "/></g></g></g><g fill="#ffffff" fill-opacity="1"><g transform="translate(111.608867, 36.479142)"><g><path d="M 3.820312 0 L 5.371094 0 L 5.371094 -9.414062 L 8.878906 -9.414062 L 8.878906 -10.753906 L 0.3125 -10.753906 L 0.3125 -9.414062 L 3.820312 -9.414062 Z M 3.820312 0 "/></g></g></g><g fill="#ffffff" fill-opacity="1"><g transform="translate(120.795222, 36.479142)"><g><path d="M 1.507812 0 L 8.5625 0 L 8.5625 -1.4375 L 3.050781 -1.4375 L 3.050781 -4.695312 L 7.992188 -4.695312 L 7.992188 -6.066406 L 3.050781 -6.066406 L 3.050781 -9.367188 L 8.5625 -9.367188 L 8.5625 -10.753906 L 1.507812 -10.753906 Z M 1.507812 0 "/></g></g></g><g fill="#ffffff" fill-opacity="1"><g transform="translate(130.240133, 36.479142)"><g><path d="M 4.398438 0.121094 C 6.378906 0.121094 7.929688 -1.097656 7.929688 -3.042969 C 7.929688 -6.558594 2.738281 -5.941406 2.738281 -8.171875 C 2.738281 -9.019531 3.460938 -9.550781 4.292969 -9.550781 C 5.082031 -9.550781 5.804688 -9.148438 6.21875 -8.355469 L 7.449219 -9.140625 C 6.75 -10.355469 5.625 -10.914062 4.328125 -10.914062 C 2.632812 -10.914062 1.210938 -9.839844 1.210938 -8.074219 C 1.210938 -4.695312 6.40625 -5.433594 6.40625 -2.914062 C 6.40625 -1.863281 5.640625 -1.253906 4.414062 -1.253906 C 3.203125 -1.253906 2.136719 -1.886719 1.992188 -3.289062 L 0.496094 -2.882812 C 0.820312 -0.875 2.570312 0.121094 4.398438 0.121094 Z M 4.398438 0.121094 "/></g></g></g><g clip-path="url(#id1)"><path fill="#ffffff" d="M 45.335938 18.597656 C 45.335938 18.582031 45.332031 18.570312 45.328125 18.554688 L 41.570312 8.65625 C 41.566406 8.652344 41.566406 8.652344 41.566406 8.652344 C 41.558594 8.636719 41.550781 8.621094 41.539062 8.613281 L 33.269531 2.019531 C 33.257812 2.007812 33.242188 2 33.222656 1.996094 C 33.222656 1.996094 33.222656 1.996094 33.21875 1.996094 L 26.46875 1.078125 C 26.457031 1.074219 26.441406 1.074219 26.429688 1.078125 L 23.214844 1.996094 L 23.121094 1.996094 C 23.105469 1.996094 23.085938 2 23.070312 2.011719 L 22.988281 2.058594 L 15.070312 4.316406 C 15.070312 4.316406 15.066406 4.320312 15.066406 4.320312 C 15.054688 4.324219 15.042969 4.328125 15.035156 4.335938 C 15.03125 4.339844 15.027344 4.34375 15.027344 4.34375 C 15.023438 4.347656 15.023438 4.347656 15.019531 4.351562 L 8.085938 13.375 C 8.085938 13.378906 8.082031 13.378906 8.082031 13.382812 C 8.078125 13.386719 8.078125 13.390625 8.074219 13.394531 C 8.074219 13.398438 8.074219 13.402344 8.070312 13.402344 C 8.070312 13.410156 8.070312 13.414062 8.070312 13.417969 C 8.066406 13.421875 8.066406 13.425781 8.066406 13.429688 L 7.628906 21.367188 C 7.628906 21.371094 7.628906 21.378906 7.628906 21.386719 L 8.269531 25.398438 C 8.269531 25.40625 8.273438 25.410156 8.273438 25.414062 C 8.277344 25.417969 8.277344 25.421875 8.277344 25.425781 C 8.277344 25.429688 8.277344 25.429688 8.28125 25.429688 L 11.507812 31.59375 C 11.511719 31.605469 11.519531 31.613281 11.53125 31.621094 L 15.316406 34.980469 C 15.320312 34.984375 15.328125 34.992188 15.335938 34.996094 L 19.714844 37.953125 C 19.726562 37.960938 19.738281 37.96875 19.753906 37.96875 L 26.625 39.042969 C 26.628906 39.042969 26.636719 39.042969 26.640625 39.042969 C 26.648438 39.042969 26.65625 39.042969 26.660156 39.039062 C 26.664062 39.039062 26.664062 39.039062 26.664062 39.039062 C 26.664062 39.039062 26.664062 39.039062 26.667969 39.039062 L 37.890625 35.75 C 37.894531 35.75 37.898438 35.746094 37.902344 35.742188 C 37.914062 35.738281 37.921875 35.730469 37.929688 35.722656 C 37.933594 35.71875 37.941406 35.71875 37.941406 35.714844 L 44.769531 26.6875 C 44.78125 26.671875 44.785156 26.65625 44.789062 26.636719 C 44.789062 26.636719 44.789062 26.636719 44.792969 26.632812 Z M 44.597656 26.546875 L 41.644531 27.296875 L 45.097656 19.167969 Z M 32.617188 25.394531 L 21.734375 21.558594 L 29.941406 15.632812 Z M 29.941406 15.3125 L 21.757812 9.945312 L 32.398438 6.894531 Z M 29.824219 15.472656 L 21.621094 21.394531 L 21.621094 10.09375 Z M 21.421875 21.429688 L 12.113281 16.847656 L 21.421875 10.101562 Z M 23.4375 32.410156 L 14.566406 27.425781 L 21.457031 21.769531 Z M 21.652344 21.738281 L 32.554688 25.585938 L 23.644531 32.425781 Z M 32.675781 25.742188 L 33.25 33.921875 L 23.820312 32.539062 Z M 32.800781 25.328125 L 30.132812 15.582031 L 39.210938 16.492188 Z M 39.339844 16.652344 L 41.351562 27.3125 L 32.929688 25.488281 Z M 41.511719 27.101562 L 39.523438 16.5625 L 45.105469 18.644531 Z M 39.351562 16.179688 L 32.773438 6.898438 L 41.355469 8.765625 Z M 39.1875 16.289062 L 30.128906 15.382812 L 32.582031 6.972656 Z M 21.652344 9.769531 L 23.191406 2.242188 L 32.269531 6.722656 Z M 21.449219 9.78125 L 14.484375 7.445312 L 22.980469 2.296875 Z M 21.308594 9.941406 L 12.082031 16.625 L 14.320312 7.601562 Z M 11.867188 16.679688 L 8.308594 13.433594 L 14.070312 7.785156 Z M 14.164062 7.417969 L 9.101562 12.378906 L 14.867188 4.875 Z M 11.804688 16.890625 L 8.457031 24.910156 L 8.269531 13.664062 Z M 11.894531 17.183594 L 14.253906 27.289062 L 8.5 25.324219 Z M 12.066406 17.046875 L 21.339844 21.609375 L 14.449219 27.265625 Z M 23.320312 32.570312 L 15.472656 34.785156 L 14.515625 27.625 Z M 23.523438 32.71875 L 26.445312 38.769531 L 15.714844 34.925781 Z M 26.679688 38.792969 L 23.746094 32.726562 L 33.101562 34.101562 Z M 33.441406 33.839844 L 32.867188 25.675781 L 41.253906 27.496094 Z M 41.222656 27.777344 L 37.8125 35.53125 L 33.554688 34.003906 Z M 41.546875 27.527344 L 44.445312 26.792969 L 38.296875 34.921875 Z M 39.511719 16.347656 L 41.492188 9.011719 L 45.066406 18.421875 Z M 33.28125 2.28125 L 41.082031 8.503906 L 32.652344 6.671875 Z M 26.464844 1.277344 L 31.746094 1.996094 L 23.9375 1.996094 Z M 33.09375 2.195312 L 32.464844 6.597656 L 23.546875 2.195312 Z M 14.414062 7.257812 L 15.179688 4.492188 L 22.347656 2.449219 Z M 7.828125 21.367188 L 8.113281 16.183594 L 8.246094 23.984375 Z M 11.675781 31.484375 L 9.054688 26.484375 L 14.753906 34.21875 Z M 8.636719 25.582031 L 14.300781 27.515625 L 15.242188 34.542969 Z M 16.09375 35.269531 L 25.625 38.683594 L 19.804688 37.777344 Z M 33.375 34.148438 L 37.542969 35.644531 L 27.15625 38.6875 Z M 33.375 34.148438 " fill-opacity="1" fill-rule="nonzero"/></g><g fill="#ffffff" fill-opacity="1"><g transform="translate(10.84152, 27.53777)"><g><path d="M 13.671875 -9.964844 L 16.085938 -9.964844 C 15.25 -14.132812 11.628906 -15.601562 8.625 -15.601562 C 4.300781 -15.601562 0.921875 -12.289062 0.921875 -7.660156 C 0.921875 -3.050781 4.234375 0.261719 8.625 0.261719 C 11.476562 0.261719 14.679688 -1.820312 15.757812 -4.804688 L 15.757812 -4.785156 C 15.976562 -5.3125 16.085938 -6.1875 16.195312 -7.503906 L 7.746094 -7.503906 L 7.746094 -5.246094 L 13.539062 -5.246094 C 12.617188 -2.960938 10.554688 -1.910156 8.625 -1.910156 C 5.550781 -1.910156 3.183594 -4.34375 3.183594 -7.660156 C 3.183594 -10.949219 5.550781 -13.34375 8.625 -13.34375 C 10.621094 -13.34375 13.035156 -12.488281 13.671875 -9.964844 Z M 13.671875 -9.964844 "/></g></g></g><g clip-path="url(#id2)"><g clip-path="url(#id3)"><path fill="#ffffff" d="M 25.5625 11.617188 L 25.5625 26.753906 L 42.484375 26.753906 L 42.484375 11.617188 Z M 25.5625 11.617188 " fill-opacity="1" fill-rule="nonzero"/></g></g></svg>