<?xml version="1.0" encoding="utf-8"?>
<!-- Generator: Adobe Illustrator 22.1.0, SVG Export Plug-In . SVG Version: 6.00 Build 0)  -->
<svg version="1.1" id="Layer_1" xmlns="http://www.w3.org/2000/svg" xmlns:xlink="http://www.w3.org/1999/xlink" x="0px" y="0px"
	 viewBox="0 0 612.1 307.7" style="enable-background:new 0 0 612.1 307.7;" xml:space="preserve">
<style type="text/css">
	.st0{fill:#0080FF;}
</style>
<g id="Layer_3">
</g>
<g id="Layer_1_1_">
	<g>
		<g>
			<g>
				<path class="st0" d="M301.5,166.1h-42.7v39.3h-15.4v-91h15.4v37.5h42.7v-37.5h15.6v91h-15.6V166.1z"/>
				<path class="st0" d="M332,187.5c0-14.5,11.8-21.3,26.5-21.3c4.8,0,10.1,1.3,12.8,2.2v-4.3c0-6.5-5.6-10.5-12.5-10.5
					c-4.9,0-11,1.9-15.1,9.2l-10-9.3c5.1-9,15.4-13.2,25.2-13.2c15.8,0,27.1,7.8,27.1,24v41.1h-14.5v-4.9c-4,3.5-10,6.4-18.2,6.4
					C341.9,206.8,332,199.7,332,187.5z M356.4,193.9c5.7,0,11.7-2.3,14.9-5.5v-7.3c-3.8-1.4-7.9-2.6-13.2-2.6
					c-6.7,0-11.3,2.7-11.3,7.9C346.8,190.5,349.9,193.9,356.4,193.9z"/>
				<path class="st0" d="M401.4,183v-27.9h-9.3v-13.2h9.3V124h14.7v17.8h15.2V155h-15.2v25.7c0,9.2,2.1,11.6,10.4,11.6
					c1.4,0,4.8-0.3,4.8-0.3v13.2c0,0-2.9,0.3-7.9,0.3C406.8,205.5,401.4,199.1,401.4,183z"/>
				<path class="st0" d="M456.2,173.6c0,11.6,7.4,19.9,17.4,19.9c7.9,0,12.1-3.9,16.4-9.9l10.1,9.5c-5.1,7.4-13.9,13.8-27,13.8
					c-17.5,0-31.9-14.1-31.9-33.2s14.4-33.4,31.9-33.4c11.6,0,19.7,4.8,25.8,12.7l-10.3,9.9c-4-5.3-8.4-9.1-15.2-9.1
					C463.5,153.8,456.2,162.1,456.2,173.6z"/>
				<path class="st0" d="M526.3,205.4h-14.8v-91h14.8v31.8c3.2-3,8.8-6,15.8-6c14.9,0,25.6,10.1,25.6,28.2v37h-14.8v-37
					c0-8.8-4.4-14.8-12.6-14.8c-9.2,0-14,6.6-14,16.6V205.4z"/>
			</g>
		</g>
		<g>
			<path class="st0" d="M193.8,70l-70.9-32.9c-0.9-0.4-1.9-0.2-2.6,0.5s-0.8,1.8-0.3,2.6l35.4,61.4c0.3,0.6,0.9,1,1.5,1.1
				c0.1,0,0.3,0,0.4,0c0.5,0,1-0.2,1.4-0.5l35.4-28.5c0.6-0.5,0.9-1.3,0.8-2C195,71,194.5,70.3,193.8,70z M158,97.1l-30.6-52.9
				l61.1,28.4L158,97.1z"/>
			<path class="st0" d="M189.2,112.3c-0.8-0.4-1.7-0.3-2.4,0.3l-33.4,26.9l-34.1-59.1l0,0c-0.1-0.1-0.2-0.2-0.3-0.4c0,0,0,0-0.1,0
				c0,0,0,0-0.1-0.1s-0.2-0.2-0.4-0.3l0,0c-0.2-0.1-0.3-0.1-0.5-0.2h-0.1c-0.2,0-0.3-0.1-0.5-0.1l0,0l0,0c-0.2,0-0.3,0-0.5,0.1l0,0
				c-0.1,0-0.2,0.1-0.4,0.1l-70.9,32.9l0,0l0,0l-0.1,0.1c-0.1,0.1-0.3,0.2-0.4,0.3c-0.1,0-0.1,0.1-0.2,0.2c-0.1,0.1-0.2,0.2-0.2,0.3
				c0,0.1-0.1,0.1-0.1,0.2c-0.1,0.1-0.1,0.2-0.1,0.3c0,0.1,0,0.2-0.1,0.2c0,0.1,0,0.1-0.1,0.2c0,0.1,0,0.1,0,0.2v0.1v89.9v0.1
				c0,0.1,0,0.1,0,0.2c0,0.1,0,0.1,0,0.2v0.1v0.1c0,0.1,0,0.1,0.1,0.2c0,0.1,0,0.1,0.1,0.1v0.1l0,0l0,0l0,0l0.1,0.1
				c0,0.1,0.1,0.1,0.1,0.2c0,0,0,0,0.1,0.1l0,0l0,0c0.1,0.1,0.1,0.1,0.2,0.2l0.1,0.1c0,0,0.1,0,0.1,0.1c0,0,0.1,0,0.1,0.1
				c0,0,0,0,0.1,0l0,0l0,0l0,0l70.9,32.9c0.1,0,0.1,0,0.2,0.1c0.1,0,0.1,0,0.2,0.1c0.2,0,0.4,0.1,0.6,0.1s0.4,0,0.6-0.1
				c0.1,0,0.1,0,0.2-0.1c0.1,0,0.1,0,0.2-0.1l70.9-32.9l0,0l0,0l0,0c0,0,0,0,0.1,0c0,0,0.1,0,0.1-0.1c0,0,0.1,0,0.1-0.1l0.1-0.1
				c0.1,0,0.1-0.1,0.2-0.2l0,0l0,0c0,0,0,0,0.1-0.1c0-0.1,0.1-0.1,0.1-0.2l0.1-0.1l0,0l0,0l0,0v-0.1c0,0,0-0.1,0.1-0.1
				c0-0.1,0.1-0.1,0.1-0.2V205v-0.1c0-0.1,0-0.1,0-0.2c0-0.1,0-0.1,0-0.2v-0.1v-89.9C190.5,113.5,190,112.7,189.2,112.3z
				 M111.8,86.5l-30.6,52.9l-16.2-13l-14.4-11.6L111.8,86.5z M48.7,119l19.2,15.4l11.1,8.9l-15.7,27.1l-14.6,25.3
				C48.7,195.7,48.7,119,48.7,119z M81.9,147.3l31.5,54.6h-63L81.9,147.3z M115.1,233.5l-58.4-27.1h58.4V233.5z M117.3,199.7
				l-14.9-25.8l-18-31.1L117.3,86l32.8,56.9l-18,31.1L117.3,199.7z M119.6,233.5v-27.1H178L119.6,233.5z M121.2,201.9l31.5-54.6
				l9.2,16l6.5,11.3l2.8,4.9l12.9,22.4L121.2,201.9L121.2,201.9z M186,195.8l-2.4-4.1l-27.9-48.3L186,119V195.8z"/>
		</g>
		<g>
			<g>
				<g>
					<path class="st0" d="M254.7,261.6c-3.3,0-6-1.4-8-3.7v3.2h-3.5v-33.6h3.5v13.2c2-2.3,4.7-3.7,7.9-3.7c6.5,0,10.9,5.6,10.9,12.3
						C265.6,256.1,261.2,261.6,254.7,261.6z M254.4,240.3c-4.8,0-7.7,3.9-7.7,9c0,5,2.9,9,7.7,9c4.8,0,7.6-3.9,7.6-9
						C262,244.3,259.2,240.3,254.4,240.3z"/>
					<path class="st0" d="M274.6,270.4l3.5-9l-9.7-23.8h4l7.7,19.5l7.6-19.5h3.9l-13.1,32.8L274.6,270.4L274.6,270.4z"/>
				</g>
			</g>
			<g>
				<g>
					<path id="XMLID_206_" class="st0" d="M329.2,230.9c-3.4-2.3-7.5-3.5-12.4-3.5h-10.6v33.7h10.6c4.9,0,9-1.2,12.4-3.7
						c1.8-1.3,3.3-3.1,4.3-5.4c1-2.3,1.5-5,1.5-8s-0.5-5.6-1.5-7.9C332.5,233.9,331,232.2,329.2,230.9z M312.4,233.1h3.3
						c3.7,0,6.8,0.7,9.1,2.2c2.6,1.6,3.9,4.5,3.9,8.8c0,4.4-1.3,7.5-3.9,9.2l0,0c-2.2,1.5-5.3,2.2-9,2.2h-3.4V233.1z"/>
					<path id="XMLID_205_" class="st0" d="M341.9,227c-1,0-1.9,0.4-2.6,1.1c-0.7,0.7-1.1,1.5-1.1,2.6c0,1,0.4,1.9,1.1,2.6
						c0.7,0.7,1.6,1.1,2.6,1.1s1.9-0.4,2.6-1.1c0.7-0.7,1.1-1.6,1.1-2.6s-0.4-1.9-1.1-2.6S342.9,227,341.9,227z"/>
					<rect id="XMLID_204_" x="338.9" y="237.4" class="st0" width="6" height="23.7"/>
					<path id="XMLID_201_" class="st0" d="M365.6,239.4c-1.8-1.6-3.8-2.5-6-2.5c-3.3,0-6,1.1-8.1,3.4c-2.1,2.2-3.2,5.1-3.2,8.5
						s1.1,6.2,3.2,8.5c2.1,2.2,4.9,3.3,8.2,3.3c2.3,0,4.3-0.6,5.9-1.9v0.5c0,2-0.5,3.5-1.6,4.6c-1,1.1-2.5,1.6-4.3,1.6
						c-2.8,0-4.5-1.1-6.6-3.9l-4.1,3.9l0.1,0.2c0.9,1.2,2.2,2.4,4,3.6c1.8,1.1,4,1.7,6.6,1.7c3.5,0,6.4-1.1,8.5-3.2
						c2.1-2.2,3.2-5.1,3.2-8.6v-21.6h-5.9L365.6,239.4L365.6,239.4z M364,253.4c-1,1.2-2.4,1.8-4.1,1.8s-3-0.6-4.1-1.8
						c-1-1.2-1.5-2.7-1.5-4.6c0-1.9,0.5-3.5,1.5-4.7s2.4-1.8,4.1-1.8s3.1,0.6,4.1,1.8s1.6,2.8,1.6,4.7
						C365.6,250.6,365.1,252.2,364,253.4z"/>
					<rect id="XMLID_200_" x="376.1" y="237.4" class="st0" width="6" height="23.7"/>
					<path id="XMLID_199_" class="st0" d="M379.1,227c-1,0-1.9,0.4-2.6,1.1c-0.7,0.7-1.1,1.5-1.1,2.6c0,1,0.4,1.9,1.1,2.6
						c0.7,0.7,1.6,1.1,2.6,1.1s1.9-0.4,2.6-1.1c0.7-0.7,1.1-1.6,1.1-2.6s-0.4-1.9-1.1-2.6S380.2,227,379.1,227z"/>
					<path id="XMLID_198_" class="st0" d="M394.7,231h-5.9v6.4h-3.4v5.4h3.4v9.9c0,3.1,0.6,5.3,1.8,6.6c1.2,1.3,3.4,1.9,6.4,1.9
						c1,0,1.9,0,2.9-0.1h0.3v-5.4l-2,0.1c-1.4,0-2.4-0.3-2.8-0.7c-0.5-0.5-0.7-1.6-0.7-3.1v-9h5.6v-5.4h-5.6L394.7,231L394.7,231z"
						/>
					<rect id="XMLID_197_" x="427.3" y="227.4" class="st0" width="6" height="33.7"/>
					<path id="XMLID_196_" class="st0" d="M491.6,252.6c-1.1,1.2-2.2,2.2-3,2.8l0,0c-0.8,0.5-1.9,0.8-3.1,0.8c-1.8,0-3.2-0.6-4.3-2
						c-1.1-1.3-1.7-3-1.7-5s0.6-3.7,1.7-5s2.5-2,4.3-2c1.9,0,4,1.2,5.7,3.3l3.9-3.8l0,0c-2.6-3.4-5.9-4.9-9.8-4.9
						c-3.3,0-6.1,1.2-8.5,3.6c-2.3,2.3-3.5,5.3-3.5,8.9c0,3.5,1.2,6.5,3.5,8.9s5.2,3.6,8.5,3.6c4.3,0,7.8-1.9,10.2-5.3L491.6,252.6z
						"/>
					<path id="XMLID_193_" class="st0" d="M516.9,240.7c-0.8-1.2-2-2.1-3.4-2.8s-3.1-1-4.9-1c-3.3,0-6.1,1.2-8.1,3.7
						c-2,2.4-3,5.4-3,8.9c0,3.6,1.1,6.6,3.3,8.9c2.2,2.3,5.1,3.4,8.6,3.4c4,0,7.3-1.6,9.8-4.8l0.1-0.2l-3.9-3.7l0,0
						c-0.4,0.4-0.9,0.9-1.3,1.4c-0.6,0.6-1.1,1-1.7,1.3c-0.9,0.4-1.9,0.7-3,0.7c-1.7,0-3-0.5-4.1-1.4c-1-0.9-1.6-2.1-1.7-3.6h15.8
						l0.1-2.2c0-1.5-0.2-3-0.6-4.4C518.4,243.2,517.7,241.9,516.9,240.7z M503.8,246.3c0.3-1.1,0.8-2.1,1.6-2.8
						c0.8-0.8,1.9-1.2,3.1-1.2c1.4,0,2.6,0.4,3.3,1.2c0.7,0.8,1.1,1.7,1.2,2.8H503.8z"/>
					<path id="XMLID_190_" class="st0" d="M539.7,239.2L539.7,239.2c-1.8-1.5-4.3-2.3-7.4-2.3c-2,0-3.8,0.4-5.5,1.3
						c-1.6,0.8-3.1,2.1-4.1,3.8l0.1,0.1l3.8,3.7c1.6-2.5,3.3-3.4,5.7-3.4c1.2,0,2.3,0.3,3.1,1s1.2,1.5,1.2,2.5v1.2
						c-1.5-0.5-3-0.7-4.4-0.7c-3,0-5.4,0.7-7.2,2.1c-1.8,1.4-2.7,3.4-2.7,5.9c0,2.2,0.8,4,2.3,5.4c1.6,1.3,3.5,2,5.8,2
						s4.4-0.9,6.3-2.5v2h5.9V246C542.5,243,541.5,240.7,539.7,239.2z M529.1,252c0.7-0.5,1.6-0.7,2.8-0.7c1.4,0,3,0.3,4.5,0.9v2.3
						c-1.3,1.2-3,1.8-5.2,1.8c-1,0-1.8-0.2-2.4-0.7c-0.5-0.4-0.8-1-0.8-1.7C528.1,253.1,528.4,252.5,529.1,252z"/>
					<path id="XMLID_189_" class="st0" d="M565.3,239.6c-1.7-1.9-4-2.8-7-2.8c-2.4,0-4.3,0.7-5.7,2v-1.5h-5.9V261h6v-13
						c0-1.8,0.4-3.2,1.3-4.2c0.8-1,2-1.5,3.5-1.5c1.4,0,2.4,0.4,3.1,1.3c0.8,0.9,1.1,2.2,1.1,3.7v13.8h6v-13.8
						C567.8,244.1,567,241.5,565.3,239.6z"/>
					<path id="XMLID_186_" class="st0" d="M419.9,239.2L419.9,239.2c-1.8-1.5-4.3-2.3-7.4-2.3c-2,0-3.8,0.4-5.5,1.3
						c-1.6,0.8-3.1,2.1-4.1,3.8l0.1,0.1l3.8,3.7c1.6-2.5,3.3-3.4,5.7-3.4c1.2,0,2.3,0.3,3.1,1c0.8,0.7,1.2,1.5,1.2,2.5v1.2
						c-1.5-0.5-3-0.7-4.4-0.7c-3,0-5.4,0.7-7.2,2.1c-1.8,1.4-2.7,3.4-2.7,5.9c0,2.2,0.8,4,2.3,5.4c1.6,1.3,3.5,2,5.8,2
						s4.4-0.9,6.3-2.5v2h5.9V246C422.7,243,421.7,240.7,419.9,239.2z M409.3,252c0.7-0.5,1.6-0.7,2.8-0.7c1.4,0,3,0.3,4.5,0.9v2.3
						c-1.3,1.2-3,1.8-5.2,1.8c-1,0-1.8-0.2-2.4-0.7c-0.5-0.4-0.8-1-0.8-1.7C408.3,253.1,408.7,252.5,409.3,252z"/>
					<path id="XMLID_183_" class="st0" d="M454,261.6c-9.6,0-17.4-7.8-17.4-17.4s7.8-17.4,17.4-17.4s17.4,7.8,17.4,17.4
						S463.6,261.6,454,261.6z M454,233c-6.2,0-11.3,5-11.3,11.3s5,11.3,11.3,11.3s11.3-5,11.3-11.3S460.2,233,454,233z"/>
				</g>
			</g>
		</g>
	</g>
</g>
<g id="Layer_2_1_">
</g>
</svg>
