<svg xmlns="http://www.w3.org/2000/svg" xmlns:xlink="http://www.w3.org/1999/xlink" width="100" zoomAndPan="magnify" viewBox="0 0 75 74.999997" height="100" preserveAspectRatio="xMidYMid meet" version="1.0"><defs><clipPath id="id1"><path d="M 2.085938 25.832031 L 20 25.832031 L 20 46.832031 L 2.085938 46.832031 Z M 2.085938 25.832031 " clip-rule="nonzero"/></clipPath><clipPath id="id2"><path d="M 22 30 L 72.585938 30 L 72.585938 44 L 22 44 Z M 22 30 " clip-rule="nonzero"/></clipPath></defs><g clip-path="url(#id1)"><path fill="#6762a6" d="M 17.226562 46.523438 L 4.578125 46.523438 C 3.5 46.523438 2.621094 45.628906 2.621094 44.527344 L 2.621094 27.621094 C 2.621094 26.523438 3.5 25.628906 4.578125 25.628906 L 17.226562 25.628906 C 18.304688 25.628906 19.183594 26.523438 19.183594 27.621094 L 19.183594 44.523438 C 19.183594 45.625 18.304688 46.519531 17.226562 46.519531 Z M 17.226562 46.523438 " fill-opacity="1" fill-rule="nonzero"/></g><path fill="#ffffff" d="M 13 43.648438 L 13 35.351562 C 13 35.351562 13.527344 33.367188 6.46875 36.160156 C 6.457031 36.203125 6.457031 28.492188 6.457031 28.492188 L 8.761719 28.472656 L 8.761719 33.414062 C 8.761719 33.414062 15.226562 30.820312 15.226562 35.378906 L 15.226562 43.648438 Z M 14.316406 31.460938 L 11.867188 31.460938 C 12.75 30.363281 13.546875 28.488281 13.546875 28.488281 L 16.074219 28.488281 C 16.074219 28.488281 15.640625 29.710938 14.316406 31.460938 Z M 6.492188 43.632812 L 6.492188 38.910156 L 8.816406 41.273438 L 6.492188 43.636719 Z M 6.492188 43.632812 " fill-opacity="1" fill-rule="nonzero"/><g clip-path="url(#id2)"><path fill="#6762a6" d="M 28.3125 43.042969 L 28.3125 36.25 C 28.3125 35.769531 27.96875 35.5625 27.558594 35.5625 C 26.597656 35.578125 25.679688 35.785156 24.800781 36.183594 L 24.800781 43.042969 L 22.917969 43.042969 L 22.917969 30.425781 L 24.800781 30.425781 L 24.800781 34.585938 C 25.691406 34.253906 26.757812 33.96875 27.828125 33.96875 C 29.535156 33.96875 30.175781 35.039062 30.175781 36.503906 L 30.175781 43.050781 Z M 33.695312 38.925781 C 33.753906 41.207031 34.195312 41.65625 35.574219 41.65625 C 36.65625 41.65625 37.882812 41.285156 38.820312 40.921875 L 39.132812 42.363281 C 38.128906 42.824219 36.90625 43.269531 35.492188 43.269531 C 32.355469 43.269531 31.871094 41.515625 31.871094 38.722656 C 31.871094 37.191406 31.980469 35.800781 32.339844 34.523438 C 33.277344 34.152344 34.535156 33.964844 36.117188 33.964844 C 38.691406 33.964844 39.476562 35.417969 39.476562 37.957031 L 39.476562 38.929688 L 33.695312 38.929688 Z M 36.082031 35.554688 C 35.515625 35.554688 34.625 35.574219 33.890625 35.722656 C 33.808594 36.105469 33.714844 36.628906 33.6875 37.601562 L 37.613281 37.601562 C 37.613281 36.277344 37.375 35.5625 36.089844 35.5625 Z M 42.960938 36.175781 L 42.960938 43.042969 L 41.078125 43.042969 L 41.078125 35.324219 C 42.445312 34.601562 43.898438 34.195312 45.4375 34.097656 L 45.4375 35.691406 C 44.628906 35.753906 43.699219 35.855469 42.960938 36.1875 Z M 50.40625 43.257812 C 47.597656 43.257812 46.328125 41.855469 46.328125 38.644531 C 46.328125 35.246094 48.007812 33.949219 50.40625 33.949219 C 53.214844 33.949219 54.480469 35.351562 54.480469 38.5625 C 54.480469 41.960938 52.800781 43.257812 50.40625 43.257812 Z M 50.40625 35.554688 C 48.960938 35.554688 48.164062 36.402344 48.164062 38.652344 C 48.164062 41.113281 48.839844 41.660156 50.40625 41.660156 C 51.847656 41.660156 52.648438 40.828125 52.648438 38.578125 C 52.648438 36.121094 51.972656 35.566406 50.40625 35.566406 Z M 63.558594 43.039062 L 61.347656 43.039062 C 60.832031 41.636719 60.109375 40.15625 59.003906 38.953125 L 58.015625 38.953125 L 58.015625 43.039062 L 56.132812 43.039062 L 56.132812 30.425781 L 58.015625 30.425781 L 58.015625 37.671875 L 58.894531 37.671875 C 59.835938 36.648438 60.574219 35.488281 61.101562 34.195312 L 63.21875 34.195312 C 62.5 35.675781 61.570312 36.984375 60.535156 38.054688 C 61.722656 39.609375 62.730469 41.273438 63.5625 43.050781 Z M 67.085938 43.261719 C 65.378906 43.261719 64.738281 42.191406 64.738281 40.722656 L 64.738281 34.191406 L 66.601562 34.191406 L 66.601562 40.972656 C 66.601562 41.449219 66.945312 41.660156 67.355469 41.660156 C 68.34375 41.640625 69.296875 41.433594 70.207031 41.039062 L 70.207031 34.191406 L 72.089844 34.191406 L 72.089844 41.882812 C 69.863281 43.125 68.152344 43.269531 67.085938 43.269531 Z M 67.085938 43.261719 " fill-opacity="1" fill-rule="nonzero"/></g></svg>