<svg xmlns="http://www.w3.org/2000/svg" xmlns:xlink="http://www.w3.org/1999/xlink" width="200" zoomAndPan="magnify" viewBox="0 0 150 38.999999" height="52" preserveAspectRatio="xMidYMid meet" version="1.0"><defs><g/></defs><path fill="#2dc4c0" d="M 27.308594 4.078125 C 26.574219 4.191406 25.605469 4.386719 25.144531 4.519531 C 24.53125 4.691406 24.21875 4.792969 23.34375 5.121094 C 22.46875 5.453125 19.792969 6.941406 19.550781 7.230469 C 19.527344 7.253906 19.246094 7.488281 18.925781 7.734375 C 18.1875 8.304688 16.765625 9.730469 16.148438 10.5 C 15.71875 11.027344 15.285156 11.707031 15.035156 12.210938 C 14.121094 14.097656 13.574219 15.769531 13.246094 17.664062 C 13.027344 18.917969 13.050781 21.789062 13.285156 23.152344 C 13.574219 24.863281 14.066406 26.5625 14.675781 28.019531 C 15.042969 28.882812 16.1875 31.109375 16.492188 31.554688 C 16.625 31.746094 16.734375 31.925781 16.734375 31.949219 C 16.734375 31.980469 16.804688 32.089844 16.890625 32.199219 C 17.109375 32.480469 17.085938 32.300781 16.789062 31.398438 C 16.523438 30.617188 16.273438 29.660156 16.117188 28.875 C 15.875 27.582031 15.835938 27.101562 15.835938 25.214844 C 15.835938 23.253906 15.867188 22.847656 16.164062 21.398438 C 16.234375 21.082031 16.3125 20.675781 16.34375 20.503906 C 16.609375 19.210938 17.773438 16.457031 18.578125 15.210938 C 18.746094 14.953125 18.925781 14.664062 18.980469 14.570312 C 19.027344 14.476562 19.105469 14.355469 19.152344 14.300781 C 19.199219 14.246094 19.464844 13.894531 19.738281 13.527344 C 20.980469 11.863281 22.734375 10.25 24.664062 8.980469 C 26.410156 7.84375 29 6.761719 30.933594 6.375 C 31.191406 6.328125 31.542969 6.25 31.714844 6.21875 C 32.683594 6.007812 33.488281 5.945312 35.234375 5.945312 C 37.152344 5.953125 38.074219 6.046875 39.417969 6.375 C 39.566406 6.414062 39.875 6.480469 40.085938 6.535156 C 40.601562 6.652344 41.765625 7.042969 42.328125 7.277344 C 42.835938 7.488281 43.191406 7.535156 42.859375 7.347656 C 42.640625 7.222656 42.664062 7.238281 41.523438 6.699219 C 38.753906 5.398438 35.703125 4.488281 32.738281 4.078125 C 31.660156 3.929688 28.273438 3.929688 27.308594 4.078125 Z M 27.308594 4.078125 " fill-opacity="1" fill-rule="nonzero"/><path fill="#2dc4c0" d="M 55.535156 4.125 C 55.535156 4.191406 55.589844 4.402344 55.660156 4.589844 C 57.074219 8.507812 57.160156 13.226562 55.886719 17.0625 C 54.890625 20.054688 53.484375 22.382812 51.347656 24.585938 C 50.066406 25.910156 48.476562 27.144531 46.96875 28.003906 C 46.539062 28.246094 44.996094 28.984375 44.660156 29.101562 C 44.511719 29.15625 44.316406 29.234375 44.230469 29.273438 C 43.675781 29.503906 41.945312 29.996094 41.21875 30.128906 C 39.449219 30.441406 39.191406 30.464844 37.347656 30.464844 C 35.492188 30.457031 34.367188 30.347656 33.121094 30.035156 C 32.949219 29.988281 32.683594 29.917969 32.535156 29.886719 C 31.753906 29.691406 30.492188 29.273438 30.171875 29.101562 C 30.007812 29.015625 29.875 29.007812 29.875 29.085938 C 29.875 29.195312 31.933594 30.128906 33.238281 30.625 C 35.054688 31.3125 37.152344 31.894531 38.714844 32.144531 C 39.035156 32.191406 39.480469 32.269531 39.691406 32.316406 C 40.304688 32.433594 43.574219 32.480469 44.542969 32.386719 C 45.480469 32.292969 46.445312 32.136719 47.09375 31.957031 C 47.328125 31.894531 47.710938 31.785156 47.945312 31.722656 C 48.179688 31.65625 48.734375 31.46875 49.167969 31.296875 C 51.839844 30.261719 54.375 28.382812 56.371094 25.96875 C 57.496094 24.617188 58.65625 21.984375 59.132812 19.726562 C 59.617188 17.414062 59.640625 15.507812 59.21875 12.796875 C 59.078125 11.917969 58.453125 9.707031 58.15625 9.058594 C 58.101562 8.925781 57.972656 8.640625 57.878906 8.40625 C 57.722656 8 57.550781 7.609375 57.269531 6.996094 C 57.003906 6.421875 55.878906 4.441406 55.761719 4.347656 C 55.738281 4.324219 55.675781 4.238281 55.628906 4.152344 C 55.558594 4.03125 55.542969 4.023438 55.535156 4.125 Z M 55.535156 4.125 " fill-opacity="1" fill-rule="nonzero"/><path fill="#2dc4c0" d="M 32.925781 6.808594 C 31.667969 6.964844 30.460938 7.199219 29.757812 7.425781 C 28.757812 7.75 27.417969 8.351562 27.128906 8.601562 C 27.066406 8.664062 26.980469 8.710938 26.941406 8.710938 C 26.785156 8.710938 25.753906 9.550781 25.175781 10.148438 C 23.78125 11.589844 22.929688 13.148438 22.554688 14.9375 C 22.375 15.800781 22.375 17.375 22.554688 18.324219 C 22.859375 19.90625 23.5625 21.554688 24.601562 23.113281 C 25.113281 23.875 25.730469 24.664062 25.730469 24.546875 C 25.730469 24.507812 25.605469 24.164062 25.449219 23.773438 C 25.058594 22.800781 25.050781 22.792969 24.964844 22.527344 C 24.894531 22.320312 24.839844 22.117188 24.664062 21.359375 C 24.242188 19.515625 24.375 17.070312 25.011719 15.171875 C 25.722656 13.03125 26.746094 11.542969 28.234375 10.53125 C 28.898438 10.078125 30.070312 9.449219 30.777344 9.175781 C 31.035156 9.074219 31.285156 8.972656 31.324219 8.941406 C 31.402344 8.886719 33.253906 8.304688 33.785156 8.164062 C 35.234375 7.789062 36.671875 7.566406 38.402344 7.457031 C 39.691406 7.378906 40.09375 7.332031 40.03125 7.269531 C 40 7.238281 39.777344 7.199219 38.050781 6.949219 C 37.300781 6.839844 33.527344 6.738281 32.925781 6.808594 Z M 32.925781 6.808594 " fill-opacity="1" fill-rule="nonzero"/><path fill="#2dc4c0" d="M 40.304688 7.441406 C 40.375 7.457031 40.5 7.457031 40.578125 7.441406 C 40.648438 7.417969 40.585938 7.402344 40.4375 7.402344 C 40.289062 7.402344 40.226562 7.417969 40.304688 7.441406 Z M 40.304688 7.441406 " fill-opacity="1" fill-rule="nonzero"/><path fill="#2dc4c0" d="M 42.257812 7.75 C 42.328125 7.765625 42.4375 7.765625 42.492188 7.75 C 42.539062 7.726562 42.484375 7.710938 42.351562 7.710938 C 42.226562 7.710938 42.179688 7.726562 42.257812 7.75 Z M 42.257812 7.75 " fill-opacity="1" fill-rule="nonzero"/><path fill="#2dc4c0" d="M 42.78125 7.851562 C 42.78125 7.890625 42.875 7.929688 42.988281 7.929688 C 43.097656 7.929688 43.167969 7.898438 43.136719 7.851562 C 43.113281 7.804688 43.019531 7.773438 42.933594 7.773438 C 42.851562 7.773438 42.78125 7.804688 42.78125 7.851562 Z M 42.78125 7.851562 " fill-opacity="1" fill-rule="nonzero"/><path fill="#2dc4c0" d="M 43.292969 8.007812 C 43.261719 8.054688 43.332031 8.085938 43.449219 8.085938 C 43.566406 8.085938 43.636719 8.054688 43.605469 8.007812 C 43.582031 7.960938 43.511719 7.929688 43.449219 7.929688 C 43.386719 7.929688 43.316406 7.960938 43.292969 8.007812 Z M 43.292969 8.007812 " fill-opacity="1" fill-rule="nonzero"/><path fill="#2dc4c0" d="M 43.761719 8.164062 C 43.785156 8.203125 43.863281 8.242188 43.925781 8.242188 C 43.988281 8.242188 44.035156 8.203125 44.035156 8.164062 C 44.035156 8.117188 43.964844 8.085938 43.871094 8.085938 C 43.785156 8.085938 43.738281 8.117188 43.761719 8.164062 Z M 43.761719 8.164062 " fill-opacity="1" fill-rule="nonzero"/><path fill="#2dc4c0" d="M 34.765625 9.761719 L 34.570312 9.945312 L 34.570312 15.863281 L 28.484375 15.910156 L 28.078125 16.285156 L 28.078125 20.132812 L 28.28125 20.316406 L 28.484375 20.503906 L 34.570312 20.550781 L 34.570312 26.46875 L 34.765625 26.65625 L 34.953125 26.851562 L 36.902344 26.851562 C 38.707031 26.851562 38.871094 26.84375 39.035156 26.703125 L 39.222656 26.554688 L 39.261719 23.566406 L 39.300781 20.582031 L 42.351562 20.542969 C 44.035156 20.519531 45.410156 20.488281 45.417969 20.480469 C 45.777344 20.117188 45.753906 20.246094 45.753906 18.183594 C 45.753906 16.292969 45.746094 16.238281 45.582031 16.097656 C 45.496094 16.011719 45.417969 15.941406 45.410156 15.933594 C 45.402344 15.925781 44.035156 15.894531 42.351562 15.871094 L 39.300781 15.832031 L 39.261719 12.851562 L 39.222656 9.863281 L 39.035156 9.714844 C 38.871094 9.574219 38.707031 9.566406 36.902344 9.566406 L 34.953125 9.566406 Z M 34.765625 9.761719 " fill-opacity="1" fill-rule="nonzero"/><path fill="#2dc4c0" d="M 46.851562 11.871094 C 46.851562 11.902344 47 12.28125 47.179688 12.710938 C 47.679688 13.925781 47.90625 14.835938 48.101562 16.464844 C 48.257812 17.71875 48.070312 19.570312 47.648438 21.011719 C 47.210938 22.460938 46.335938 24.0625 45.503906 24.910156 C 45.160156 25.269531 44.035156 26.148438 43.925781 26.148438 C 43.886719 26.148438 43.769531 26.210938 43.660156 26.289062 C 42.695312 26.960938 40.671875 27.746094 38.402344 28.335938 C 37.097656 28.671875 34.367188 29.03125 33.066406 29.03125 C 32.433594 29.03125 32.363281 29.140625 32.949219 29.21875 C 33.167969 29.242188 33.550781 29.304688 33.785156 29.34375 C 34.617188 29.480469 36.804688 29.652344 37.777344 29.644531 C 38.761719 29.644531 40.648438 29.488281 41.296875 29.351562 C 42.195312 29.15625 42.398438 29.101562 43.058594 28.890625 C 45.292969 28.152344 46.9375 26.984375 48.382812 25.097656 C 48.867188 24.460938 49.363281 23.550781 49.699219 22.660156 C 50.121094 21.546875 50.339844 19.617188 50.144531 18.730469 C 50.105469 18.550781 50.027344 18.191406 49.980469 17.933594 C 49.800781 16.992188 49.316406 15.628906 48.820312 14.703125 C 48.25 13.628906 46.851562 11.613281 46.851562 11.871094 Z M 46.851562 11.871094 " fill-opacity="1" fill-rule="nonzero"/><path fill="#2dc4c0" d="M 28.515625 28.152344 C 28.429688 28.238281 28.46875 28.328125 28.578125 28.328125 C 28.640625 28.328125 28.710938 28.296875 28.734375 28.257812 C 28.789062 28.183594 28.585938 28.082031 28.515625 28.152344 Z M 28.515625 28.152344 " fill-opacity="1" fill-rule="nonzero"/><path fill="#2dc4c0" d="M 28.859375 28.328125 C 28.859375 28.367188 28.953125 28.40625 29.078125 28.398438 C 29.265625 28.398438 29.273438 28.390625 29.132812 28.328125 C 28.921875 28.238281 28.859375 28.238281 28.859375 28.328125 Z M 28.859375 28.328125 " fill-opacity="1" fill-rule="nonzero"/><path fill="#2dc4c0" d="M 29.328125 28.484375 C 29.328125 28.523438 29.445312 28.5625 29.585938 28.5625 C 29.773438 28.5625 29.804688 28.539062 29.71875 28.484375 C 29.5625 28.382812 29.328125 28.382812 29.328125 28.484375 Z M 29.328125 28.484375 " fill-opacity="1" fill-rule="nonzero"/><path fill="#2dc4c0" d="M 29.976562 28.695312 C 30.046875 28.710938 30.171875 28.710938 30.25 28.695312 C 30.320312 28.671875 30.257812 28.65625 30.109375 28.65625 C 29.960938 28.65625 29.898438 28.671875 29.976562 28.695312 Z M 29.976562 28.695312 " fill-opacity="1" fill-rule="nonzero"/><path fill="#2dc4c0" d="M 29.625 29.007812 C 29.679688 29.03125 29.75 29.023438 29.773438 29 C 29.804688 28.976562 29.757812 28.953125 29.671875 28.960938 C 29.585938 28.960938 29.5625 28.984375 29.625 29.007812 Z M 29.625 29.007812 " fill-opacity="1" fill-rule="nonzero"/><g fill="#ffffff" fill-opacity="1"><g transform="translate(64.058837, 15.19831)"><g><path d="M 3.125 -4.15625 L 3.125 0 L 0.75 0 L 0.75 -10.375 L 3.125 -10.375 L 3.125 -6.234375 L 6.46875 -6.234375 L 6.46875 -10.375 L 8.828125 -10.375 L 8.828125 0 L 6.46875 0 L 6.46875 -4.15625 Z M 3.125 -4.15625 "/></g></g></g><g fill="#ffffff" fill-opacity="1"><g transform="translate(75.340063, 15.19831)"><g><path d="M 0.296875 -5.1875 C 0.296875 -6.695312 0.804688 -7.96875 1.828125 -9 C 2.847656 -10.039062 4.078125 -10.5625 5.515625 -10.5625 C 6.972656 -10.5625 8.207031 -10.039062 9.21875 -9 C 10.226562 -7.96875 10.734375 -6.695312 10.734375 -5.1875 C 10.734375 -3.675781 10.234375 -2.398438 9.234375 -1.359375 C 8.242188 -0.328125 7.003906 0.1875 5.515625 0.1875 C 4.003906 0.1875 2.753906 -0.320312 1.765625 -1.34375 C 0.785156 -2.375 0.296875 -3.65625 0.296875 -5.1875 Z M 2.84375 -5.1875 C 2.84375 -4.644531 2.925781 -4.148438 3.09375 -3.703125 C 3.257812 -3.253906 3.550781 -2.875 3.96875 -2.5625 C 4.394531 -2.25 4.910156 -2.09375 5.515625 -2.09375 C 6.398438 -2.09375 7.066406 -2.394531 7.515625 -3 C 7.960938 -3.601562 8.1875 -4.332031 8.1875 -5.1875 C 8.1875 -6.039062 7.957031 -6.769531 7.5 -7.375 C 7.039062 -7.976562 6.378906 -8.28125 5.515625 -8.28125 C 4.660156 -8.28125 4 -7.976562 3.53125 -7.375 C 3.070312 -6.769531 2.84375 -6.039062 2.84375 -5.1875 Z M 2.84375 -5.1875 "/></g></g></g><g fill="#ffffff" fill-opacity="1"><g transform="translate(88.067318, 15.19831)"><g><path d="M 3.125 -10.375 L 3.125 -2.078125 L 6.6875 -2.078125 L 6.6875 0 L 0.75 0 L 0.75 -10.375 Z M 3.125 -10.375 "/></g></g></g><g fill="#ffffff" fill-opacity="1"><g transform="translate(96.871426, 15.19831)"><g><path d="M 3.125 -10.375 L 3.125 0 L 0.75 0 L 0.75 -10.375 Z M 3.125 -10.375 "/></g></g></g><g fill="#ffffff" fill-opacity="1"><g transform="translate(102.44396, 15.19831)"><g><path d="M 4.578125 -10.5625 C 5.140625 -10.5625 5.6875 -10.476562 6.21875 -10.3125 C 6.757812 -10.15625 7.160156 -10 7.421875 -9.84375 L 7.796875 -9.578125 L 6.84375 -7.703125 C 6.769531 -7.742188 6.664062 -7.804688 6.53125 -7.890625 C 6.394531 -7.972656 6.140625 -8.082031 5.765625 -8.21875 C 5.398438 -8.351562 5.054688 -8.421875 4.734375 -8.421875 C 4.347656 -8.421875 4.046875 -8.332031 3.828125 -8.15625 C 3.617188 -7.988281 3.515625 -7.765625 3.515625 -7.484375 C 3.515625 -7.335938 3.5625 -7.203125 3.65625 -7.078125 C 3.757812 -6.960938 3.929688 -6.832031 4.171875 -6.6875 C 4.421875 -6.550781 4.632812 -6.441406 4.8125 -6.359375 C 5 -6.273438 5.285156 -6.148438 5.671875 -5.984375 C 6.335938 -5.703125 6.90625 -5.316406 7.375 -4.828125 C 7.851562 -4.335938 8.09375 -3.78125 8.09375 -3.15625 C 8.09375 -2.5625 7.984375 -2.039062 7.765625 -1.59375 C 7.554688 -1.15625 7.265625 -0.804688 6.890625 -0.546875 C 6.523438 -0.296875 6.113281 -0.113281 5.65625 0 C 5.207031 0.125 4.71875 0.1875 4.1875 0.1875 C 3.738281 0.1875 3.296875 0.140625 2.859375 0.046875 C 2.421875 -0.046875 2.054688 -0.160156 1.765625 -0.296875 C 1.472656 -0.429688 1.207031 -0.566406 0.96875 -0.703125 C 0.726562 -0.835938 0.554688 -0.953125 0.453125 -1.046875 L 0.296875 -1.1875 L 1.46875 -3.171875 C 1.570312 -3.085938 1.710938 -2.976562 1.890625 -2.84375 C 2.066406 -2.71875 2.378906 -2.546875 2.828125 -2.328125 C 3.273438 -2.109375 3.671875 -2 4.015625 -2 C 5.015625 -2 5.515625 -2.335938 5.515625 -3.015625 C 5.515625 -3.160156 5.476562 -3.289062 5.40625 -3.40625 C 5.332031 -3.53125 5.203125 -3.65625 5.015625 -3.78125 C 4.835938 -3.90625 4.679688 -4 4.546875 -4.0625 C 4.410156 -4.132812 4.179688 -4.242188 3.859375 -4.390625 C 3.546875 -4.535156 3.316406 -4.648438 3.171875 -4.734375 C 2.535156 -5.035156 2.046875 -5.421875 1.703125 -5.890625 C 1.359375 -6.359375 1.1875 -6.859375 1.1875 -7.390625 C 1.1875 -8.328125 1.53125 -9.085938 2.21875 -9.671875 C 2.90625 -10.265625 3.691406 -10.5625 4.578125 -10.5625 Z M 4.578125 -10.5625 "/></g></g></g><g fill="#ffffff" fill-opacity="1"><g transform="translate(112.593501, 15.19831)"><g><path d="M 0.09375 -8.296875 L 0.09375 -10.375 L 7.390625 -10.375 L 7.390625 -8.296875 L 4.9375 -8.296875 L 4.9375 0 L 2.5625 0 L 2.5625 -8.296875 Z M 0.09375 -8.296875 "/></g></g></g><g fill="#ffffff" fill-opacity="1"><g transform="translate(121.787404, 15.19831)"><g><path d="M 3.125 -10.375 L 3.125 0 L 0.75 0 L 0.75 -10.375 Z M 3.125 -10.375 "/></g></g></g><g fill="#ffffff" fill-opacity="1"><g transform="translate(127.359938, 15.19831)"><g><path d="M 6.28125 -2.140625 C 6.632812 -2.140625 6.984375 -2.191406 7.328125 -2.296875 C 7.671875 -2.410156 7.921875 -2.515625 8.078125 -2.609375 L 8.3125 -2.78125 L 9.3125 -0.765625 C 9.28125 -0.742188 9.234375 -0.710938 9.171875 -0.671875 C 9.117188 -0.628906 8.984375 -0.550781 8.765625 -0.4375 C 8.554688 -0.320312 8.328125 -0.222656 8.078125 -0.140625 C 7.835938 -0.0546875 7.519531 0.015625 7.125 0.078125 C 6.738281 0.148438 6.332031 0.1875 5.90625 0.1875 C 4.945312 0.1875 4.035156 -0.046875 3.171875 -0.515625 C 2.304688 -0.992188 1.609375 -1.644531 1.078125 -2.46875 C 0.554688 -3.300781 0.296875 -4.203125 0.296875 -5.171875 C 0.296875 -5.898438 0.445312 -6.597656 0.75 -7.265625 C 1.0625 -7.941406 1.472656 -8.515625 1.984375 -8.984375 C 2.503906 -9.460938 3.109375 -9.84375 3.796875 -10.125 C 4.484375 -10.414062 5.1875 -10.5625 5.90625 -10.5625 C 6.582031 -10.5625 7.203125 -10.484375 7.765625 -10.328125 C 8.328125 -10.171875 8.726562 -10.007812 8.96875 -9.84375 L 9.3125 -9.609375 L 8.3125 -7.59375 C 8.25 -7.644531 8.160156 -7.707031 8.046875 -7.78125 C 7.929688 -7.851562 7.695312 -7.945312 7.34375 -8.0625 C 6.988281 -8.175781 6.632812 -8.234375 6.28125 -8.234375 C 5.707031 -8.234375 5.191406 -8.140625 4.734375 -7.953125 C 4.285156 -7.773438 3.925781 -7.535156 3.65625 -7.234375 C 3.394531 -6.929688 3.195312 -6.601562 3.0625 -6.25 C 2.925781 -5.90625 2.859375 -5.550781 2.859375 -5.1875 C 2.859375 -4.40625 3.148438 -3.703125 3.734375 -3.078125 C 4.328125 -2.453125 5.175781 -2.140625 6.28125 -2.140625 Z M 6.28125 -2.140625 "/></g></g></g><g fill="#ffffff" fill-opacity="1"><g transform="translate(64.058837, 32.448309)"><g><path d="M 3.125 -4.15625 L 3.125 0 L 0.75 0 L 0.75 -10.375 L 3.125 -10.375 L 3.125 -6.234375 L 6.46875 -6.234375 L 6.46875 -10.375 L 8.828125 -10.375 L 8.828125 0 L 6.46875 0 L 6.46875 -4.15625 Z M 3.125 -4.15625 "/></g></g></g><g fill="#ffffff" fill-opacity="1"><g transform="translate(75.340063, 32.448309)"><g><path d="M 6.6875 -10.375 L 6.6875 -8.296875 L 3.125 -8.296875 L 3.125 -6.234375 L 6.546875 -6.234375 L 6.546875 -4.15625 L 3.125 -4.15625 L 3.125 -2.078125 L 6.6875 -2.078125 L 6.6875 0 L 0.75 0 L 0.75 -10.375 Z M 6.6875 -10.375 "/></g></g></g><g fill="#ffffff" fill-opacity="1"><g transform="translate(84.332779, 32.448309)"><g><path d="M 6.03125 -10.375 L 10.21875 0 L 7.671875 0 L 6.90625 -2.078125 L 2.953125 -2.078125 L 2.1875 0 L -0.359375 0 L 3.84375 -10.375 Z M 6.09375 -4.15625 L 4.9375 -7.171875 L 4.921875 -7.171875 L 3.765625 -4.15625 Z M 6.09375 -4.15625 "/></g></g></g><g fill="#ffffff" fill-opacity="1"><g transform="translate(95.890633, 32.448309)"><g><path d="M 3.125 -10.375 L 3.125 -2.078125 L 6.6875 -2.078125 L 6.6875 0 L 0.75 0 L 0.75 -10.375 Z M 3.125 -10.375 "/></g></g></g><g fill="#ffffff" fill-opacity="1"><g transform="translate(104.694738, 32.448309)"><g><path d="M 3.125 -10.375 L 3.125 0 L 0.75 0 L 0.75 -10.375 Z M 3.125 -10.375 "/></g></g></g><g fill="#ffffff" fill-opacity="1"><g transform="translate(110.267273, 32.448309)"><g><path d="M 3.125 -6.4375 L 3.125 0 L 0.75 0 L 0.75 -10.375 L 3.125 -10.375 L 7.25 -3.9375 L 7.265625 -3.9375 L 7.265625 -10.375 L 9.640625 -10.375 L 9.640625 0 L 7.265625 0 L 3.140625 -6.4375 Z M 3.125 -6.4375 "/></g></g></g><g fill="#ffffff" fill-opacity="1"><g transform="translate(122.353246, 32.448309)"><g><path d="M 10.140625 -5.8125 L 10.140625 -3.5625 C 9.867188 -2.320312 9.28125 -1.382812 8.375 -0.75 C 7.46875 -0.125 6.457031 0.1875 5.34375 0.1875 C 3.945312 0.1875 2.753906 -0.332031 1.765625 -1.375 C 0.785156 -2.425781 0.296875 -3.695312 0.296875 -5.1875 C 0.296875 -6.695312 0.773438 -7.96875 1.734375 -9 C 2.703125 -10.039062 3.90625 -10.5625 5.34375 -10.5625 C 7.03125 -10.5625 8.363281 -9.972656 9.34375 -8.796875 L 7.796875 -7.09375 C 7.242188 -7.976562 6.472656 -8.421875 5.484375 -8.421875 C 4.753906 -8.421875 4.128906 -8.101562 3.609375 -7.46875 C 3.097656 -6.84375 2.84375 -6.082031 2.84375 -5.1875 C 2.84375 -4.300781 3.097656 -3.546875 3.609375 -2.921875 C 4.128906 -2.296875 4.753906 -1.984375 5.484375 -1.984375 C 6.085938 -1.984375 6.613281 -2.164062 7.0625 -2.53125 C 7.507812 -2.894531 7.734375 -3.378906 7.734375 -3.984375 L 5.34375 -3.984375 L 5.34375 -5.8125 Z M 10.140625 -5.8125 "/></g></g></g></svg>