<svg xmlns="http://www.w3.org/2000/svg" xmlns:xlink="http://www.w3.org/1999/xlink" width="150" zoomAndPan="magnify" viewBox="0 0 112.5 112.499997" height="150" preserveAspectRatio="xMidYMid meet" version="1.0"><defs><clipPath id="id1"><path d="M 4.160156 3.511719 L 109.160156 3.511719 L 109.160156 108.511719 L 4.160156 108.511719 Z M 4.160156 3.511719 " clip-rule="nonzero"/></clipPath></defs><g clip-path="url(#id1)"><path fill="#f7df1e" d="M 4.160156 3.511719 L 109.160156 3.511719 L 109.160156 108.511719 L 4.160156 108.511719 Z M 4.160156 3.511719 " fill-opacity="1" fill-rule="nonzero"/></g><path fill="#000000" d="M 31.769531 91.257812 L 39.804688 86.394531 C 41.355469 89.144531 42.765625 91.46875 46.148438 91.46875 C 49.390625 91.46875 51.4375 90.199219 51.4375 85.269531 L 51.4375 51.71875 L 61.300781 51.71875 L 61.300781 85.40625 C 61.300781 95.625 55.3125 100.28125 46.570312 100.28125 C 38.675781 100.28125 34.097656 96.191406 31.769531 91.257812 " fill-opacity="1" fill-rule="nonzero"/><path fill="#000000" d="M 66.660156 90.199219 L 74.695312 85.546875 C 76.8125 89 79.5625 91.539062 84.421875 91.539062 C 88.511719 91.539062 91.117188 89.496094 91.117188 86.675781 C 91.117188 83.292969 88.441406 82.09375 83.929688 80.121094 L 81.464844 79.0625 C 74.34375 76.03125 69.621094 72.230469 69.621094 64.191406 C 69.621094 56.789062 75.257812 51.152344 84.074219 51.152344 C 90.34375 51.152344 94.855469 53.335938 98.097656 59.046875 L 90.414062 63.980469 C 88.722656 60.949219 86.890625 59.753906 84.074219 59.753906 C 81.179688 59.753906 79.347656 61.585938 79.347656 63.980469 C 79.347656 66.941406 81.179688 68.140625 85.410156 69.972656 L 87.875 71.027344 C 96.261719 74.625 100.988281 78.289062 100.988281 86.535156 C 100.988281 95.414062 94.011719 100.28125 84.632812 100.28125 C 75.472656 100.28125 69.554688 95.90625 66.660156 90.199219 " fill-opacity="1" fill-rule="nonzero"/></svg>