<svg xmlns="http://www.w3.org/2000/svg" xmlns:xlink="http://www.w3.org/1999/xlink" width="280" zoomAndPan="magnify" viewBox="0 0 210 60" height="80" preserveAspectRatio="xMidYMid meet" version="1.0"><defs><filter x="0%" y="0%" width="100%" height="100%" id="id1"><feColorMatrix values="0 0 0 0 1 0 0 0 0 1 0 0 0 0 1 0 0 0 1 0" color-interpolation-filters="sRGB"/></filter><g/><mask id="id2"><g filter="url(#id1)"><rect x="-21" width="252" fill="#000000" y="-6" height="72" fill-opacity="0.0196"/></g></mask><clipPath id="id3"><path d="M 0.203125 11 L 122 11 L 122 52 L 0.203125 52 Z M 0.203125 11 " clip-rule="nonzero"/></clipPath><clipPath id="id4"><path d="M 105.171875 26.128906 C 104.019531 26.128906 102.929688 26.1875 101.835938 26.300781 C 93.898438 27.222656 85.90625 25.148438 79.695312 20.136719 C 75.210938 16.5625 69.515625 14.371094 63.304688 14.371094 C 59.511719 14.371094 55.828125 15.179688 52.550781 16.675781 C 48.871094 18.347656 44.558594 17.945312 41.222656 15.695312 C 36.621094 12.585938 31.042969 10.914062 25.0625 11.257812 C 11.605469 12.066406 0.277344 23.074219 0.277344 36.5625 C 0.277344 52.238281 10.339844 58.980469 18.046875 61.863281 C 22.707031 63.59375 25.523438 68.433594 24.832031 73.390625 C 24.375 76.789062 24.027344 80.421875 24.199219 83.246094 C 25.234375 101.515625 40.074219 116.269531 58.359375 117.191406 C 74.230469 118 87.917969 108.488281 93.554688 94.832031 C 95.511719 90.105469 100.167969 87.105469 105.285156 87.164062 C 105.34375 87.164062 105.34375 87.164062 105.402344 87.164062 C 122.25 87.164062 135.878906 73.503906 135.824219 56.617188 C 135.707031 39.847656 121.90625 26.015625 105.171875 26.128906 Z M 105.171875 26.128906 " clip-rule="nonzero"/></clipPath><linearGradient x1="0" gradientTransform="matrix(0.575078, 0, 0, 0.576355, 0.277362, 1.000002)" y1="109.708" x2="211.662917" gradientUnits="userSpaceOnUse" y2="109.708" id="id5"><stop stop-opacity="1" stop-color="rgb(47.499084%, 0%, 0%)" offset="0"/><stop stop-opacity="1" stop-color="rgb(47.654724%, 0%, 0%)" offset="0.015625"/><stop stop-opacity="1" stop-color="rgb(47.967529%, 0%, 0%)" offset="0.03125"/><stop stop-opacity="1" stop-color="rgb(48.28186%, 0%, 0%)" offset="0.046875"/><stop stop-opacity="1" stop-color="rgb(48.594666%, 0%, 0%)" offset="0.0625"/><stop stop-opacity="1" stop-color="rgb(48.907471%, 0%, 0%)" offset="0.078125"/><stop stop-opacity="1" stop-color="rgb(49.220276%, 0%, 0%)" offset="0.09375"/><stop stop-opacity="1" stop-color="rgb(49.533081%, 0%, 0%)" offset="0.109375"/><stop stop-opacity="1" stop-color="rgb(49.845886%, 0%, 0%)" offset="0.125"/><stop stop-opacity="1" stop-color="rgb(50.160217%, 0%, 0%)" offset="0.140625"/><stop stop-opacity="1" stop-color="rgb(50.473022%, 0%, 0%)" offset="0.15625"/><stop stop-opacity="1" stop-color="rgb(50.785828%, 0%, 0%)" offset="0.171875"/><stop stop-opacity="1" stop-color="rgb(51.098633%, 0%, 0%)" offset="0.1875"/><stop stop-opacity="1" stop-color="rgb(51.411438%, 0%, 0%)" offset="0.203125"/><stop stop-opacity="1" stop-color="rgb(51.725769%, 0%, 0%)" offset="0.21875"/><stop stop-opacity="1" stop-color="rgb(52.038574%, 0%, 0%)" offset="0.234375"/><stop stop-opacity="1" stop-color="rgb(52.351379%, 0%, 0%)" offset="0.25"/><stop stop-opacity="1" stop-color="rgb(52.664185%, 0%, 0%)" offset="0.265625"/><stop stop-opacity="1" stop-color="rgb(52.97699%, 0%, 0%)" offset="0.28125"/><stop stop-opacity="1" stop-color="rgb(53.289795%, 0%, 0%)" offset="0.296875"/><stop stop-opacity="1" stop-color="rgb(53.604126%, 0%, 0%)" offset="0.3125"/><stop stop-opacity="1" stop-color="rgb(53.916931%, 0%, 0%)" offset="0.328125"/><stop stop-opacity="1" stop-color="rgb(54.229736%, 0%, 0%)" offset="0.34375"/><stop stop-opacity="1" stop-color="rgb(54.542542%, 0%, 0%)" offset="0.359375"/><stop stop-opacity="1" stop-color="rgb(54.855347%, 0%, 0%)" offset="0.375"/><stop stop-opacity="1" stop-color="rgb(55.168152%, 0%, 0%)" offset="0.390625"/><stop stop-opacity="1" stop-color="rgb(55.482483%, 0%, 0%)" offset="0.40625"/><stop stop-opacity="1" stop-color="rgb(55.795288%, 0%, 0%)" offset="0.421875"/><stop stop-opacity="1" stop-color="rgb(56.108093%, 0%, 0%)" offset="0.4375"/><stop stop-opacity="1" stop-color="rgb(56.420898%, 0%, 0%)" offset="0.453125"/><stop stop-opacity="1" stop-color="rgb(56.733704%, 0%, 0%)" offset="0.46875"/><stop stop-opacity="1" stop-color="rgb(57.046509%, 0%, 0%)" offset="0.484375"/><stop stop-opacity="1" stop-color="rgb(57.36084%, 0%, 0%)" offset="0.5"/><stop stop-opacity="1" stop-color="rgb(57.673645%, 0%, 0%)" offset="0.515625"/><stop stop-opacity="1" stop-color="rgb(57.98645%, 0%, 0%)" offset="0.53125"/><stop stop-opacity="1" stop-color="rgb(58.299255%, 0%, 0%)" offset="0.546875"/><stop stop-opacity="1" stop-color="rgb(58.612061%, 0%, 0%)" offset="0.5625"/><stop stop-opacity="1" stop-color="rgb(58.926392%, 0%, 0%)" offset="0.578125"/><stop stop-opacity="1" stop-color="rgb(59.239197%, 0%, 0%)" offset="0.59375"/><stop stop-opacity="1" stop-color="rgb(59.552002%, 0%, 0%)" offset="0.609375"/><stop stop-opacity="1" stop-color="rgb(59.864807%, 0%, 0%)" offset="0.625"/><stop stop-opacity="1" stop-color="rgb(60.177612%, 0%, 0%)" offset="0.640625"/><stop stop-opacity="1" stop-color="rgb(60.490417%, 0%, 0%)" offset="0.65625"/><stop stop-opacity="1" stop-color="rgb(60.804749%, 0%, 0%)" offset="0.671875"/><stop stop-opacity="1" stop-color="rgb(61.117554%, 0%, 0%)" offset="0.6875"/><stop stop-opacity="1" stop-color="rgb(61.430359%, 0%, 0%)" offset="0.703125"/><stop stop-opacity="1" stop-color="rgb(61.743164%, 0%, 0%)" offset="0.71875"/><stop stop-opacity="1" stop-color="rgb(62.055969%, 0%, 0%)" offset="0.734375"/><stop stop-opacity="1" stop-color="rgb(62.368774%, 0%, 0%)" offset="0.75"/><stop stop-opacity="1" stop-color="rgb(62.683105%, 0%, 0%)" offset="0.765625"/><stop stop-opacity="1" stop-color="rgb(62.995911%, 0%, 0%)" offset="0.78125"/><stop stop-opacity="1" stop-color="rgb(63.308716%, 0%, 0%)" offset="0.796875"/><stop stop-opacity="1" stop-color="rgb(63.621521%, 0%, 0%)" offset="0.8125"/><stop stop-opacity="1" stop-color="rgb(63.934326%, 0%, 0%)" offset="0.828125"/><stop stop-opacity="1" stop-color="rgb(64.247131%, 0%, 0%)" offset="0.84375"/><stop stop-opacity="1" stop-color="rgb(64.561462%, 0%, 0%)" offset="0.859375"/><stop stop-opacity="1" stop-color="rgb(64.874268%, 0%, 0%)" offset="0.875"/><stop stop-opacity="1" stop-color="rgb(65.187073%, 0%, 0%)" offset="0.890625"/><stop stop-opacity="1" stop-color="rgb(65.499878%, 0%, 0%)" offset="0.90625"/><stop stop-opacity="1" stop-color="rgb(65.812683%, 0%, 0%)" offset="0.921875"/><stop stop-opacity="1" stop-color="rgb(66.125488%, 0%, 0%)" offset="0.9375"/><stop stop-opacity="1" stop-color="rgb(66.439819%, 0%, 0%)" offset="0.953125"/><stop stop-opacity="1" stop-color="rgb(66.752625%, 0%, 0%)" offset="0.96875"/><stop stop-opacity="1" stop-color="rgb(67.06543%, 0%, 0%)" offset="0.984375"/><stop stop-opacity="1" stop-color="rgb(67.378235%, 0%, 0%)" offset="1"/></linearGradient><clipPath id="id6"><path d="M 86 1 L 106 1 L 106 21 L 86 21 Z M 86 1 " clip-rule="nonzero"/></clipPath><clipPath id="id7"><path d="M 105.632812 10.511719 C 105.632812 11.132812 105.570312 11.753906 105.449219 12.363281 C 105.328125 12.976562 105.148438 13.570312 104.910156 14.148438 C 104.671875 14.726562 104.378906 15.273438 104.03125 15.792969 C 103.6875 16.3125 103.292969 16.792969 102.851562 17.234375 C 102.410156 17.675781 101.933594 18.070312 101.414062 18.417969 C 100.894531 18.765625 100.351562 19.058594 99.773438 19.296875 C 99.199219 19.535156 98.605469 19.714844 97.992188 19.835938 C 97.382812 19.957031 96.765625 20.019531 96.144531 20.019531 C 95.519531 20.019531 94.902344 19.957031 94.292969 19.835938 C 93.679688 19.714844 93.085938 19.535156 92.511719 19.296875 C 91.9375 19.058594 91.390625 18.765625 90.871094 18.417969 C 90.351562 18.070312 89.875 17.675781 89.433594 17.234375 C 88.992188 16.792969 88.597656 16.3125 88.253906 15.792969 C 87.90625 15.273438 87.613281 14.726562 87.375 14.148438 C 87.136719 13.570312 86.957031 12.976562 86.835938 12.363281 C 86.714844 11.753906 86.652344 11.132812 86.652344 10.511719 C 86.652344 9.886719 86.714844 9.265625 86.835938 8.65625 C 86.957031 8.042969 87.136719 7.449219 87.375 6.871094 C 87.613281 6.292969 87.90625 5.746094 88.253906 5.226562 C 88.597656 4.707031 88.992188 4.226562 89.433594 3.785156 C 89.875 3.34375 90.351562 2.949219 90.871094 2.601562 C 91.390625 2.253906 91.9375 1.960938 92.511719 1.722656 C 93.085938 1.484375 93.679688 1.304688 94.292969 1.183594 C 94.902344 1.0625 95.519531 1 96.144531 1 C 96.765625 1 97.382812 1.0625 97.992188 1.183594 C 98.605469 1.304688 99.199219 1.484375 99.773438 1.722656 C 100.351562 1.960938 100.894531 2.253906 101.414062 2.601562 C 101.933594 2.949219 102.410156 3.34375 102.851562 3.785156 C 103.292969 4.226562 103.6875 4.707031 104.03125 5.226562 C 104.378906 5.746094 104.671875 6.292969 104.910156 6.871094 C 105.148438 7.449219 105.328125 8.042969 105.449219 8.65625 C 105.570312 9.265625 105.632812 9.886719 105.632812 10.511719 Z M 105.632812 10.511719 " clip-rule="nonzero"/></clipPath><linearGradient x1="150.199982" gradientTransform="matrix(0.575078, 0, 0, 0.576355, 0.277362, 1.000002)" y1="109.708" x2="183.2" gradientUnits="userSpaceOnUse" y2="109.708" id="id8"><stop stop-opacity="1" stop-color="rgb(61.717224%, 0%, 0%)" offset="0"/><stop stop-opacity="1" stop-color="rgb(61.912537%, 0%, 0%)" offset="0.125"/><stop stop-opacity="1" stop-color="rgb(62.303162%, 0%, 0%)" offset="0.25"/><stop stop-opacity="1" stop-color="rgb(62.693787%, 0%, 0%)" offset="0.375"/><stop stop-opacity="1" stop-color="rgb(63.084412%, 0%, 0%)" offset="0.5"/><stop stop-opacity="1" stop-color="rgb(63.475037%, 0%, 0%)" offset="0.625"/><stop stop-opacity="1" stop-color="rgb(63.865662%, 0%, 0%)" offset="0.75"/><stop stop-opacity="1" stop-color="rgb(64.254761%, 0%, 0%)" offset="0.875"/><stop stop-opacity="1" stop-color="rgb(64.645386%, 0%, 0%)" offset="1"/></linearGradient><clipPath id="id9"><rect x="0" width="122" y="0" height="52"/></clipPath><clipPath id="id10"><path d="M 0 3.046875 L 47.25 3.046875 L 47.25 50.296875 L 0 50.296875 Z M 0 3.046875 " clip-rule="nonzero"/></clipPath><clipPath id="id11"><path d="M 28 26.5625 L 32 26.5625 L 32 30 L 28 30 Z M 28 26.5625 " clip-rule="nonzero"/></clipPath><clipPath id="id12"><path d="M 1.007812 39 L 46.757812 39 L 46.757812 59.5625 L 1.007812 59.5625 Z M 1.007812 39 " clip-rule="nonzero"/></clipPath></defs><g mask="url(#id2)"><g transform="matrix(1, 0, 0, 1, 88, 8)"><g clip-path="url(#id9)"><g clip-path="url(#id3)"><g clip-path="url(#id4)"><path fill="url(#id5)" d="M 0.277344 10.914062 L 0.277344 52 L 122 52 L 122 10.914062 Z M 0.277344 10.914062 " fill-rule="nonzero"/></g></g><g clip-path="url(#id6)"><g clip-path="url(#id7)"><path fill="url(#id8)" d="M 86.652344 1 L 86.652344 20.019531 L 105.632812 20.019531 L 105.632812 1 Z M 86.652344 1 " fill-rule="nonzero"/></g></g></g></g></g><path fill="#ffffff" d="M 18.871094 26.707031 C 18.871094 26 18.300781 25.429688 17.59375 25.429688 C 16.886719 25.429688 16.316406 26 16.316406 26.707031 C 16.316406 27.414062 16.886719 27.984375 17.59375 27.984375 C 18.300781 27.984375 18.871094 27.414062 18.871094 26.707031 " fill-opacity="1" fill-rule="nonzero"/><g clip-path="url(#id10)"><path fill="#ffffff" d="M 47.195312 4.402344 C 47.195312 3.722656 46.617188 3.140625 45.933594 3.140625 C 44.453125 3.140625 42.972656 3.140625 41.492188 3.140625 C 37.9375 3.140625 34.382812 3.140625 30.828125 3.140625 C 26.546875 3.140625 22.265625 3.140625 17.980469 3.140625 C 14.265625 3.140625 10.546875 3.140625 6.828125 3.140625 C 5.023438 3.140625 3.207031 3.082031 1.402344 3.140625 C 1.378906 3.144531 1.351562 3.140625 1.324219 3.140625 C 0.644531 3.140625 0.0664062 3.71875 0.0664062 4.402344 C 0.0664062 5.882812 0.0664062 7.363281 0.0664062 8.84375 C 0.0664062 12.398438 0.0664062 15.953125 0.0664062 19.507812 C 0.0664062 23.789062 0.0664062 28.070312 0.0664062 32.351562 C 0.0664062 36.070312 0.0664062 39.789062 0.0664062 43.507812 C 0.0664062 45.3125 0.00390625 47.128906 0.0664062 48.933594 C 0.0664062 48.957031 0.0664062 48.984375 0.0664062 49.007812 C 0.0664062 49.691406 0.640625 50.269531 1.324219 50.269531 C 4.875 50.269531 8.425781 50.269531 11.976562 50.269531 C 12.484375 50.269531 12.992188 50.269531 13.5 50.269531 C 13.886719 50.269531 14.179688 50.125 14.382812 49.910156 C 14.609375 49.707031 14.761719 49.40625 14.761719 49.007812 C 14.761719 47.742188 14.761719 46.472656 14.761719 45.203125 C 14.761719 42.175781 14.761719 39.144531 14.761719 36.113281 C 14.761719 32.433594 14.761719 28.75 14.761719 25.070312 C 14.761719 21.882812 14.761719 18.699219 14.761719 15.515625 C 14.761719 14.375 14.792969 13.222656 14.785156 12.078125 C 18.332031 12.078125 21.878906 12.078125 25.429688 12.078125 C 26.527344 12.078125 27.445312 12.183594 28.414062 12.597656 C 29.964844 13.257812 31.132812 14.441406 31.90625 16.007812 C 32.203125 16.609375 32.449219 17.632812 32.484375 18.335938 C 32.539062 19.292969 32.453125 19.925781 32.171875 20.8125 C 31.6875 22.339844 30.574219 23.714844 29.160156 24.539062 C 28.65625 24.832031 28.417969 24.941406 27.929688 25.101562 C 27.671875 25.183594 27.410156 25.257812 27.140625 25.3125 C 26.847656 25.375 26.800781 25.386719 26.589844 25.40625 C 26.074219 25.457031 25.554688 25.445312 25.035156 25.445312 C 23.882812 25.445312 22.726562 25.445312 21.574219 25.445312 C 19.949219 25.445312 19.945312 27.96875 21.574219 27.96875 C 22.660156 27.96875 23.746094 27.96875 24.832031 27.96875 C 26.292969 27.96875 27.730469 27.898438 29.109375 27.347656 C 33.234375 25.703125 35.632812 21.40625 34.851562 17.03125 C 34.085938 12.734375 30.128906 9.589844 25.8125 9.554688 C 23.960938 9.542969 22.109375 9.554688 20.257812 9.554688 C 18.003906 9.554688 15.75 9.554688 13.5 9.554688 C 13.113281 9.554688 12.820312 9.699219 12.617188 9.917969 C 12.386719 10.121094 12.238281 10.417969 12.238281 10.816406 C 12.238281 12.085938 12.238281 13.351562 12.238281 14.621094 C 12.238281 17.652344 12.238281 20.679688 12.238281 23.710938 C 12.238281 27.394531 12.238281 31.074219 12.238281 34.757812 C 12.238281 37.941406 12.238281 41.125 12.238281 44.308594 C 12.238281 45.453125 12.207031 46.601562 12.214844 47.746094 C 9.089844 47.746094 5.96875 47.746094 2.847656 47.746094 C 2.761719 47.746094 2.675781 47.746094 2.585938 47.746094 C 2.585938 46.6875 2.585938 45.628906 2.585938 44.570312 C 2.585938 41.015625 2.585938 37.460938 2.585938 33.90625 C 2.585938 29.625 2.585938 25.339844 2.585938 21.058594 C 2.585938 17.339844 2.585938 13.625 2.585938 9.90625 C 2.585938 8.683594 2.585938 7.460938 2.585938 6.238281 C 2.585938 6.046875 2.589844 5.855469 2.597656 5.664062 C 3.652344 5.664062 4.710938 5.664062 5.765625 5.664062 C 9.320312 5.664062 12.875 5.664062 16.429688 5.664062 C 20.710938 5.664062 24.992188 5.664062 29.277344 5.664062 C 32.992188 5.664062 36.710938 5.664062 40.429688 5.664062 C 41.652344 5.664062 42.875 5.664062 44.097656 5.664062 C 44.285156 5.664062 44.480469 5.667969 44.671875 5.671875 C 44.671875 6.730469 44.671875 7.785156 44.671875 8.84375 C 44.671875 12.398438 44.671875 15.953125 44.671875 19.507812 C 44.671875 23.789062 44.671875 28.070312 44.671875 32.351562 C 44.671875 36.070312 44.671875 39.789062 44.671875 43.507812 C 44.671875 44.730469 44.671875 45.953125 44.671875 47.175781 C 44.671875 47.363281 44.667969 47.554688 44.664062 47.746094 C 41.289062 47.746094 37.917969 47.746094 34.546875 47.746094 C 34 47.746094 33.453125 47.746094 32.910156 47.746094 C 31.285156 47.746094 31.285156 50.269531 32.910156 50.269531 C 36.707031 50.269531 40.5 50.269531 44.296875 50.269531 C 44.839844 50.269531 45.386719 50.269531 45.933594 50.269531 C 46.613281 50.269531 47.195312 49.691406 47.195312 49.007812 C 47.195312 47.527344 47.195312 46.046875 47.195312 44.570312 C 47.195312 41.015625 47.195312 37.460938 47.195312 33.90625 C 47.195312 29.625 47.195312 25.339844 47.195312 21.058594 C 47.195312 17.339844 47.195312 13.625 47.195312 9.90625 C 47.195312 8.101562 47.253906 6.285156 47.195312 4.480469 C 47.191406 4.453125 47.195312 4.429688 47.195312 4.402344 " fill-opacity="1" fill-rule="nonzero"/></g><path fill="#ffffff" d="M 37.953125 32.464844 L 38.484375 28.75 L 38.542969 28.75 L 38.589844 29.058594 C 38.71875 29.886719 38.84375 30.71875 38.964844 31.542969 C 38.996094 31.761719 39 31.984375 39.015625 32.207031 C 39.035156 32.429688 39.050781 32.46875 39.292969 32.503906 L 42.621094 32.964844 C 42.671875 32.976562 42.71875 32.996094 42.765625 33.011719 C 42.652344 33.039062 42.59375 33.054688 42.53125 33.066406 C 41.710938 33.191406 40.886719 33.320312 40.0625 33.441406 C 39.796875 33.480469 39.53125 33.503906 39.265625 33.539062 C 39.050781 33.566406 39.046875 33.570312 39.015625 33.792969 C 38.863281 34.914062 38.710938 36.035156 38.566406 37.148438 C 38.5625 37.183594 38.542969 37.214844 38.515625 37.238281 C 38.382812 36.636719 38.304688 36.023438 38.214844 35.417969 C 38.125 34.8125 38.042969 34.203125 37.960938 33.582031 L 34.355469 33.050781 C 34.730469 32.875 35.136719 32.878906 35.519531 32.8125 C 35.902344 32.742188 36.320312 32.683594 36.722656 32.625 C 37.121094 32.566406 37.535156 32.519531 37.953125 32.464844 Z M 37.953125 32.464844 " fill-opacity="1" fill-rule="nonzero"/><path fill="#ffffff" d="M 13.464844 42.058594 L 13.664062 40.679688 L 13.683594 40.679688 C 13.683594 40.71875 13.683594 40.753906 13.703125 40.796875 C 13.75 41.101562 13.796875 41.410156 13.839844 41.714844 C 13.851562 41.796875 13.851562 41.878906 13.859375 41.949219 C 13.867188 42.019531 13.859375 42.050781 13.960938 42.0625 L 15.195312 42.230469 L 15.25 42.25 L 15.164062 42.269531 L 14.246094 42.410156 C 14.148438 42.425781 14.050781 42.433594 13.949219 42.445312 C 13.851562 42.457031 13.871094 42.445312 13.859375 42.539062 L 13.691406 43.785156 C 13.6875 43.796875 13.683594 43.808594 13.675781 43.816406 C 13.621094 43.59375 13.59375 43.367188 13.5625 43.140625 C 13.53125 42.917969 13.5 42.699219 13.464844 42.460938 L 12.128906 42.261719 C 12.269531 42.214844 12.414062 42.183594 12.5625 42.171875 C 12.710938 42.144531 12.863281 42.125 13.011719 42.105469 C 13.160156 42.082031 13.308594 42.074219 13.464844 42.058594 Z M 13.464844 42.058594 " fill-opacity="1" fill-rule="nonzero"/><g clip-path="url(#id11)"><path fill="#ffffff" d="M 30.105469 27.976562 L 30.3125 26.601562 L 30.335938 26.601562 C 30.335938 26.636719 30.351562 26.679688 30.355469 26.714844 C 30.402344 27.023438 30.449219 27.328125 30.492188 27.636719 C 30.492188 27.71875 30.507812 27.800781 30.515625 27.875 C 30.519531 27.945312 30.527344 27.972656 30.617188 27.984375 L 31.851562 28.152344 L 31.902344 28.171875 C 31.875 28.179688 31.847656 28.1875 31.816406 28.191406 L 30.902344 28.332031 C 30.804688 28.34375 30.707031 28.355469 30.605469 28.367188 C 30.503906 28.378906 30.527344 28.378906 30.515625 28.464844 L 30.335938 29.714844 C 30.335938 29.730469 30.328125 29.738281 30.320312 29.75 C 30.269531 29.527344 30.242188 29.300781 30.207031 29.074219 C 30.171875 28.847656 30.144531 28.621094 30.113281 28.394531 L 28.777344 28.195312 C 28.917969 28.144531 29.058594 28.117188 29.207031 28.105469 C 29.359375 28.074219 29.507812 28.054688 29.65625 28.035156 C 29.804688 28.011719 29.957031 27.996094 30.105469 27.976562 Z M 30.105469 27.976562 " fill-opacity="1" fill-rule="nonzero"/></g><path fill="#ffffff" d="M 31.476562 32.382812 C 31.476562 32.46875 31.476562 32.550781 31.476562 32.632812 C 31.453125 33.085938 31.417969 33.542969 31.40625 33.996094 C 31.386719 34.800781 31.382812 35.601562 31.363281 36.40625 C 31.359375 36.558594 31.335938 36.710938 31.292969 36.859375 C 31.230469 37.078125 31.113281 37.164062 30.945312 37.152344 C 30.746094 37.121094 30.628906 37.003906 30.601562 36.800781 C 30.597656 36.753906 30.597656 36.707031 30.601562 36.660156 C 30.597656 35.777344 30.335938 34.980469 29.820312 34.273438 C 29.414062 33.65625 28.890625 33.175781 28.246094 32.828125 C 27.859375 32.621094 27.457031 32.472656 27.03125 32.382812 C 26.453125 32.257812 25.871094 32.214844 25.28125 32.25 C 24.375 32.277344 23.546875 32.550781 22.796875 33.074219 C 21.992188 33.640625 21.515625 34.414062 21.375 35.398438 C 21.265625 36.085938 21.324219 36.753906 21.550781 37.40625 C 21.675781 37.738281 21.84375 38.046875 22.054688 38.332031 C 22.503906 38.96875 23.023438 39.539062 23.617188 40.042969 L 23.78125 40.1875 C 23.765625 40.296875 23.691406 40.300781 23.613281 40.328125 C 23.023438 40.5 19.472656 41.691406 19.3125 41.761719 C 19.199219 41.8125 19.082031 41.847656 18.933594 41.902344 C 18.863281 41.785156 18.789062 41.679688 18.726562 41.570312 C 18.457031 41.089844 18.234375 40.585938 18.066406 40.058594 C 17.925781 39.59375 17.828125 39.121094 17.769531 38.636719 C 17.699219 38.070312 17.679688 37.5 17.71875 36.929688 C 17.777344 36.113281 17.980469 35.339844 18.332031 34.605469 C 18.742188 33.78125 19.292969 33.078125 19.996094 32.492188 C 20.59375 31.980469 21.257812 31.582031 21.984375 31.292969 C 22.386719 31.136719 22.796875 30.996094 23.207031 30.871094 C 23.496094 30.789062 23.785156 30.726562 24.082031 30.683594 C 24.878906 30.546875 25.6875 30.488281 26.496094 30.507812 C 27.140625 30.535156 27.789062 30.59375 28.433594 30.65625 C 28.875 30.699219 29.3125 30.765625 29.746094 30.839844 C 30.25 30.917969 30.746094 31.035156 31.230469 31.195312 C 31.464844 31.277344 31.609375 31.433594 31.523438 31.816406 " fill-opacity="1" fill-rule="nonzero"/><g clip-path="url(#id12)"><path fill="#ffffff" d="M 46.601562 42.851562 C 46.429688 42.28125 46.125 41.792969 45.6875 41.390625 C 45.429688 41.148438 45.148438 40.9375 44.847656 40.757812 C 44.460938 40.53125 44.058594 40.335938 43.644531 40.167969 C 43.253906 40.019531 42.859375 39.894531 42.457031 39.792969 C 42.179688 39.714844 41.890625 39.664062 41.609375 39.605469 C 41.378906 39.554688 41.144531 39.492188 40.898438 39.460938 C 40.511719 39.414062 40.125 39.382812 39.734375 39.347656 C 39.695312 39.347656 39.660156 39.335938 39.621094 39.332031 C 39.28125 39.3125 38.941406 39.285156 38.601562 39.269531 C 38.566406 39.269531 38.53125 39.289062 38.492188 39.292969 C 38.402344 39.296875 38.308594 39.296875 38.21875 39.292969 C 38.089844 39.273438 37.964844 39.265625 37.835938 39.265625 C 37.585938 39.285156 37.332031 39.285156 37.082031 39.265625 C 36.152344 39.222656 35.238281 39.328125 34.316406 39.375 C 34.246094 39.382812 34.179688 39.390625 34.109375 39.40625 L 33.726562 39.453125 C 33.378906 39.492188 33.027344 39.523438 32.679688 39.5625 C 32.449219 39.589844 32.230469 39.625 32.003906 39.660156 C 31.710938 39.707031 31.417969 39.757812 31.125 39.804688 C 30.890625 39.84375 30.660156 39.867188 30.425781 39.910156 C 30.046875 39.984375 29.667969 40.070312 29.289062 40.148438 C 28.90625 40.226562 28.589844 40.277344 28.234375 40.347656 C 28.078125 40.378906 27.925781 40.417969 27.769531 40.453125 L 26.792969 40.6875 C 26.519531 40.753906 26.246094 40.824219 25.976562 40.898438 C 25.703125 40.96875 25.421875 41.046875 25.140625 41.132812 C 24.863281 41.21875 24.613281 41.265625 24.347656 41.34375 C 24.007812 41.4375 23.667969 41.546875 23.324219 41.652344 L 22.277344 41.964844 L 21.9375 42.066406 C 20.886719 42.359375 19.855469 42.710938 18.847656 43.128906 C 18.679688 43.1875 18.515625 43.25 18.351562 43.3125 C 18.332031 43.320312 18.3125 43.332031 18.292969 43.34375 L 17.929688 43.492188 L 17.894531 43.492188 L 17.242188 43.765625 C 17.242188 43.757812 17.242188 43.753906 17.242188 43.75 C 17.074219 43.8125 16.921875 43.867188 16.777344 43.933594 L 15.128906 44.664062 C 14.277344 45.035156 13.707031 45.300781 13.707031 45.300781 L 13.683594 45.324219 L 13.453125 45.429688 C 12.289062 45.972656 11.125 46.570312 10.003906 47.207031 C 9.035156 47.757812 8.070312 48.320312 7.117188 48.902344 C 6.550781 49.242188 6 49.613281 5.457031 49.992188 C 4.808594 50.445312 4.167969 50.914062 3.539062 51.394531 C 2.964844 51.847656 2.421875 52.332031 1.910156 52.859375 C 1.601562 53.179688 1.324219 53.523438 1.074219 53.890625 C 1.050781 53.9375 1.027344 53.984375 1.015625 54.035156 C 1.050781 54.035156 1.070312 54.035156 1.078125 54.035156 C 2.039062 53.402344 3.027344 52.828125 4.035156 52.285156 C 4.804688 51.875 5.570312 51.46875 6.347656 51.078125 C 7.121094 50.6875 7.867188 50.328125 8.632812 49.960938 C 9.125 49.722656 9.621094 49.5 10.113281 49.265625 L 13.21875 47.878906 L 13.726562 47.640625 L 14.042969 47.527344 L 14.089844 47.507812 L 19.210938 45.578125 L 19.265625 45.558594 C 19.660156 45.429688 20.046875 45.308594 20.429688 45.1875 C 20.699219 45.105469 20.972656 45.039062 21.234375 44.949219 C 21.359375 44.890625 21.46875 44.914062 21.5625 45.011719 C 22.082031 45.460938 22.605469 45.910156 23.140625 46.34375 C 23.769531 46.851562 24.410156 47.347656 25.042969 47.851562 C 25.675781 48.34375 26.25 48.894531 26.773438 49.507812 C 27.230469 50.023438 27.605469 50.601562 27.890625 51.234375 C 28.011719 51.523438 28.109375 51.820312 28.1875 52.125 C 28.253906 52.390625 28.261719 52.671875 28.300781 52.945312 C 28.394531 53.648438 28.304688 54.324219 28.027344 54.972656 C 27.640625 55.914062 27.003906 56.617188 26.117188 57.085938 C 25.742188 57.292969 25.347656 57.445312 24.929688 57.542969 C 24.652344 57.613281 24.355469 57.617188 24.074219 57.675781 C 23.5 57.800781 22.929688 57.699219 22.367188 57.628906 C 21.960938 57.5625 21.5625 57.453125 21.179688 57.300781 C 20.292969 56.980469 19.582031 56.425781 19.039062 55.644531 C 18.578125 54.972656 18.265625 54.234375 18.109375 53.433594 C 17.980469 52.9375 17.914062 52.433594 17.917969 51.921875 C 17.917969 51.851562 17.902344 51.785156 17.878906 51.722656 C 17.832031 51.558594 17.722656 51.480469 17.554688 51.484375 C 17.382812 51.476562 17.269531 51.554688 17.214844 51.722656 C 17.160156 51.832031 17.125 51.949219 17.105469 52.070312 C 17.066406 52.40625 17.027344 52.746094 17.015625 53.085938 C 16.992188 53.617188 16.957031 54.148438 16.933594 54.679688 C 16.886719 55.734375 16.910156 56.796875 16.910156 57.855469 C 16.917969 57.921875 16.933594 57.988281 16.960938 58.054688 C 17.074219 58.335938 17.277344 58.515625 17.566406 58.601562 C 17.835938 58.71875 18.109375 58.835938 18.386719 58.929688 C 18.691406 59.039062 19.003906 59.132812 19.320312 59.207031 C 19.6875 59.292969 20.066406 59.351562 20.441406 59.398438 C 20.941406 59.460938 21.441406 59.523438 21.941406 59.546875 C 22.519531 59.570312 23.105469 59.546875 23.683594 59.546875 C 23.84375 59.546875 24.003906 59.542969 24.164062 59.527344 C 24.511719 59.484375 24.859375 59.433594 25.207031 59.378906 C 25.527344 59.332031 25.847656 59.269531 26.167969 59.1875 C 26.578125 59.070312 26.984375 58.921875 27.382812 58.765625 C 28.394531 58.363281 29.28125 57.773438 30.054688 56.996094 C 30.6875 56.367188 31.191406 55.636719 31.554688 54.8125 C 31.777344 54.324219 31.933594 53.8125 32.019531 53.28125 C 32.085938 52.980469 32.136719 52.679688 32.171875 52.371094 C 32.257812 51.332031 32.179688 50.308594 31.9375 49.292969 C 31.808594 48.734375 31.628906 48.195312 31.398438 47.671875 C 31.054688 46.976562 30.640625 46.335938 30.152344 45.742188 C 29.652344 45.136719 29.117188 44.566406 28.539062 44.039062 C 28.351562 43.863281 28.171875 43.679688 27.984375 43.5 C 27.984375 43.480469 28 43.464844 28.007812 43.445312 C 28.34375 43.386719 28.679688 43.320312 29.011719 43.277344 C 29.550781 43.207031 30.089844 43.152344 30.625 43.085938 L 30.71875 43.085938 C 31.085938 43.035156 31.453125 42.976562 31.824219 42.933594 C 32.140625 42.894531 32.460938 42.867188 32.777344 42.851562 C 33.296875 42.816406 33.8125 42.78125 34.332031 42.761719 C 34.765625 42.75 35.199219 42.761719 35.632812 42.75 C 36.5 42.71875 37.359375 42.800781 38.21875 42.847656 C 38.265625 42.847656 38.3125 42.855469 38.355469 42.863281 L 39.253906 43.015625 C 39.46875 43.054688 39.691406 43.066406 39.902344 43.125 C 40.269531 43.214844 40.632812 43.328125 40.988281 43.460938 C 41.441406 43.613281 41.832031 43.867188 42.152344 44.226562 C 42.355469 44.460938 42.460938 44.730469 42.46875 45.039062 C 42.507812 45.515625 42.449219 45.976562 42.289062 46.421875 C 42.1875 46.71875 42.066406 47.007812 41.929688 47.289062 C 41.621094 47.847656 41.253906 48.363281 40.820312 48.828125 C 40.199219 49.5 39.527344 50.109375 38.804688 50.664062 C 38.117188 51.1875 37.40625 51.667969 36.660156 52.105469 C 35.808594 52.597656 34.9375 53.066406 34.074219 53.546875 L 33.867188 53.660156 C 33.910156 53.695312 33.953125 53.703125 34 53.6875 L 34.960938 53.277344 C 35.703125 52.953125 36.453125 52.652344 37.183594 52.304688 C 38.074219 51.878906 38.953125 51.425781 39.824219 50.957031 C 40.839844 50.425781 41.8125 49.820312 42.746094 49.148438 C 43.175781 48.835938 43.613281 48.523438 44.015625 48.175781 C 44.476562 47.804688 44.898438 47.394531 45.277344 46.941406 C 45.542969 46.605469 45.835938 46.289062 46.066406 45.925781 C 46.332031 45.554688 46.507812 45.140625 46.597656 44.691406 C 46.644531 44.429688 46.726562 44.167969 46.75 43.902344 C 46.769531 43.542969 46.71875 43.191406 46.601562 42.851562 Z M 46.601562 42.851562 " fill-opacity="1" fill-rule="nonzero"/></g><g fill="#ffffff" fill-opacity="1"><g transform="translate(48.689631, 23.171899)"><g><path d="M 1.4375 -19.78125 L 8.65625 -19.78125 C 10.664062 -19.78125 12.289062 -19.257812 13.53125 -18.21875 C 14.78125 -17.175781 15.40625 -15.664062 15.40625 -13.6875 C 15.40625 -11.707031 14.773438 -10.148438 13.515625 -9.015625 C 12.253906 -7.890625 10.632812 -7.328125 8.65625 -7.328125 L 5.9375 -7.328125 L 5.9375 0 L 1.4375 0 Z M 5.9375 -10.9375 L 7.21875 -10.9375 C 8.21875 -10.9375 9.039062 -11.140625 9.6875 -11.546875 C 10.34375 -11.953125 10.671875 -12.617188 10.671875 -13.546875 C 10.671875 -14.484375 10.34375 -15.15625 9.6875 -15.5625 C 9.039062 -15.96875 8.21875 -16.171875 7.21875 -16.171875 L 5.9375 -16.171875 Z M 5.9375 -10.9375 "/></g></g></g><g fill="#ffffff" fill-opacity="1"><g transform="translate(64.642465, 23.171899)"><g><path d="M 1.4375 -19.78125 L 8.515625 -19.78125 C 10.410156 -19.78125 11.957031 -19.269531 13.15625 -18.25 C 14.351562 -17.238281 14.953125 -15.789062 14.953125 -13.90625 C 14.953125 -12.445312 14.585938 -11.222656 13.859375 -10.234375 C 13.140625 -9.253906 12.15625 -8.566406 10.90625 -8.171875 L 17.71875 0 L 11.984375 0 L 5.9375 -7.8125 L 5.9375 0 L 1.4375 0 Z M 5.9375 -11 L 6.46875 -11 C 6.882812 -11 7.234375 -11.003906 7.515625 -11.015625 C 7.804688 -11.035156 8.132812 -11.09375 8.5 -11.1875 C 8.875 -11.289062 9.171875 -11.425781 9.390625 -11.59375 C 9.617188 -11.769531 9.8125 -12.023438 9.96875 -12.359375 C 10.125 -12.703125 10.203125 -13.113281 10.203125 -13.59375 C 10.203125 -14.070312 10.125 -14.476562 9.96875 -14.8125 C 9.8125 -15.144531 9.617188 -15.398438 9.390625 -15.578125 C 9.171875 -15.753906 8.875 -15.890625 8.5 -15.984375 C 8.132812 -16.078125 7.804688 -16.128906 7.515625 -16.140625 C 7.234375 -16.160156 6.882812 -16.171875 6.46875 -16.171875 L 5.9375 -16.171875 Z M 5.9375 -11 "/></g></g></g><g fill="#ffffff" fill-opacity="1"><g transform="translate(81.792958, 23.171899)"><g><path d="M 12.75 -19.78125 L 12.75 -15.8125 L 5.9375 -15.8125 L 5.9375 -11.890625 L 12.46875 -11.890625 L 12.46875 -7.9375 L 5.9375 -7.9375 L 5.9375 -3.953125 L 12.75 -3.953125 L 12.75 0 L 1.4375 0 L 1.4375 -19.78125 Z M 12.75 -19.78125 "/></g></g></g><g fill="#ffffff" fill-opacity="1"><g transform="translate(95.685811, 23.171899)"><g><path d="M 8.71875 -20.140625 C 9.789062 -20.140625 10.835938 -19.984375 11.859375 -19.671875 C 12.890625 -19.359375 13.648438 -19.050781 14.140625 -18.75 L 14.859375 -18.265625 L 13.03125 -14.671875 C 12.894531 -14.765625 12.695312 -14.882812 12.4375 -15.03125 C 12.1875 -15.1875 11.707031 -15.390625 11 -15.640625 C 10.300781 -15.898438 9.644531 -16.03125 9.03125 -16.03125 C 8.28125 -16.03125 7.703125 -15.867188 7.296875 -15.546875 C 6.890625 -15.234375 6.6875 -14.804688 6.6875 -14.265625 C 6.6875 -13.992188 6.78125 -13.738281 6.96875 -13.5 C 7.164062 -13.269531 7.492188 -13.023438 7.953125 -12.765625 C 8.421875 -12.503906 8.828125 -12.289062 9.171875 -12.125 C 9.523438 -11.96875 10.070312 -11.726562 10.8125 -11.40625 C 12.09375 -10.863281 13.179688 -10.125 14.078125 -9.1875 C 14.984375 -8.257812 15.4375 -7.203125 15.4375 -6.015625 C 15.4375 -4.878906 15.234375 -3.890625 14.828125 -3.046875 C 14.421875 -2.203125 13.859375 -1.535156 13.140625 -1.046875 C 12.429688 -0.566406 11.644531 -0.210938 10.78125 0.015625 C 9.914062 0.242188 8.984375 0.359375 7.984375 0.359375 C 7.117188 0.359375 6.269531 0.269531 5.4375 0.09375 C 4.601562 -0.0820312 3.90625 -0.300781 3.34375 -0.5625 C 2.789062 -0.820312 2.289062 -1.078125 1.84375 -1.328125 C 1.394531 -1.585938 1.066406 -1.804688 0.859375 -1.984375 L 0.546875 -2.25 L 2.796875 -6.046875 C 2.992188 -5.878906 3.257812 -5.671875 3.59375 -5.421875 C 3.925781 -5.179688 4.519531 -4.851562 5.375 -4.4375 C 6.226562 -4.019531 6.984375 -3.8125 7.640625 -3.8125 C 9.546875 -3.8125 10.5 -4.457031 10.5 -5.75 C 10.5 -6.019531 10.429688 -6.269531 10.296875 -6.5 C 10.160156 -6.738281 9.921875 -6.972656 9.578125 -7.203125 C 9.234375 -7.429688 8.925781 -7.613281 8.65625 -7.75 C 8.394531 -7.882812 7.960938 -8.09375 7.359375 -8.375 C 6.765625 -8.65625 6.328125 -8.867188 6.046875 -9.015625 C 4.847656 -9.609375 3.921875 -10.347656 3.265625 -11.234375 C 2.609375 -12.117188 2.28125 -13.070312 2.28125 -14.09375 C 2.28125 -15.863281 2.929688 -17.3125 4.234375 -18.4375 C 5.546875 -19.570312 7.039062 -20.140625 8.71875 -20.140625 Z M 8.71875 -20.140625 "/></g></g></g><g fill="#ffffff" fill-opacity="1"><g transform="translate(111.78236, 23.171899)"><g><path d="M 12.75 -19.78125 L 12.75 -15.8125 L 5.9375 -15.8125 L 5.9375 -11.890625 L 12.46875 -11.890625 L 12.46875 -7.9375 L 5.9375 -7.9375 L 5.9375 -3.953125 L 12.75 -3.953125 L 12.75 0 L 1.4375 0 L 1.4375 -19.78125 Z M 12.75 -19.78125 "/></g></g></g><g fill="#ffffff" fill-opacity="1"><g transform="translate(125.675213, 23.171899)"><g><path d="M 11.484375 -19.78125 L 19.46875 0 L 14.625 0 L 13.15625 -3.953125 L 5.625 -3.953125 L 4.171875 0 L -0.671875 0 L 7.3125 -19.78125 Z M 11.625 -7.90625 L 9.421875 -13.65625 L 9.375 -13.65625 L 7.171875 -7.90625 Z M 11.625 -7.90625 "/></g></g></g><g fill="#ffffff" fill-opacity="1"><g transform="translate(144.454521, 23.171899)"><g><path d="M 1.4375 -19.78125 L 8.515625 -19.78125 C 10.410156 -19.78125 11.957031 -19.269531 13.15625 -18.25 C 14.351562 -17.238281 14.953125 -15.789062 14.953125 -13.90625 C 14.953125 -12.445312 14.585938 -11.222656 13.859375 -10.234375 C 13.140625 -9.253906 12.15625 -8.566406 10.90625 -8.171875 L 17.71875 0 L 11.984375 0 L 5.9375 -7.8125 L 5.9375 0 L 1.4375 0 Z M 5.9375 -11 L 6.46875 -11 C 6.882812 -11 7.234375 -11.003906 7.515625 -11.015625 C 7.804688 -11.035156 8.132812 -11.09375 8.5 -11.1875 C 8.875 -11.289062 9.171875 -11.425781 9.390625 -11.59375 C 9.617188 -11.769531 9.8125 -12.023438 9.96875 -12.359375 C 10.125 -12.703125 10.203125 -13.113281 10.203125 -13.59375 C 10.203125 -14.070312 10.125 -14.476562 9.96875 -14.8125 C 9.8125 -15.144531 9.617188 -15.398438 9.390625 -15.578125 C 9.171875 -15.753906 8.875 -15.890625 8.5 -15.984375 C 8.132812 -16.078125 7.804688 -16.128906 7.515625 -16.140625 C 7.234375 -16.160156 6.882812 -16.171875 6.46875 -16.171875 L 5.9375 -16.171875 Z M 5.9375 -11 "/></g></g></g><g fill="#ffffff" fill-opacity="1"><g transform="translate(161.599782, 23.171899)"><g/></g></g><g fill="#ffffff" fill-opacity="1"><g transform="translate(48.689631, 53.921898)"><g><path d="M 8.71875 -20.140625 C 9.789062 -20.140625 10.835938 -19.984375 11.859375 -19.671875 C 12.890625 -19.359375 13.648438 -19.050781 14.140625 -18.75 L 14.859375 -18.265625 L 13.03125 -14.671875 C 12.894531 -14.765625 12.695312 -14.882812 12.4375 -15.03125 C 12.1875 -15.1875 11.707031 -15.390625 11 -15.640625 C 10.300781 -15.898438 9.644531 -16.03125 9.03125 -16.03125 C 8.28125 -16.03125 7.703125 -15.867188 7.296875 -15.546875 C 6.890625 -15.234375 6.6875 -14.804688 6.6875 -14.265625 C 6.6875 -13.992188 6.78125 -13.738281 6.96875 -13.5 C 7.164062 -13.269531 7.492188 -13.023438 7.953125 -12.765625 C 8.421875 -12.503906 8.828125 -12.289062 9.171875 -12.125 C 9.523438 -11.96875 10.070312 -11.726562 10.8125 -11.40625 C 12.09375 -10.863281 13.179688 -10.125 14.078125 -9.1875 C 14.984375 -8.257812 15.4375 -7.203125 15.4375 -6.015625 C 15.4375 -4.878906 15.234375 -3.890625 14.828125 -3.046875 C 14.421875 -2.203125 13.859375 -1.535156 13.140625 -1.046875 C 12.429688 -0.566406 11.644531 -0.210938 10.78125 0.015625 C 9.914062 0.242188 8.984375 0.359375 7.984375 0.359375 C 7.117188 0.359375 6.269531 0.269531 5.4375 0.09375 C 4.601562 -0.0820312 3.90625 -0.300781 3.34375 -0.5625 C 2.789062 -0.820312 2.289062 -1.078125 1.84375 -1.328125 C 1.394531 -1.585938 1.066406 -1.804688 0.859375 -1.984375 L 0.546875 -2.25 L 2.796875 -6.046875 C 2.992188 -5.878906 3.257812 -5.671875 3.59375 -5.421875 C 3.925781 -5.179688 4.519531 -4.851562 5.375 -4.4375 C 6.226562 -4.019531 6.984375 -3.8125 7.640625 -3.8125 C 9.546875 -3.8125 10.5 -4.457031 10.5 -5.75 C 10.5 -6.019531 10.429688 -6.269531 10.296875 -6.5 C 10.160156 -6.738281 9.921875 -6.972656 9.578125 -7.203125 C 9.234375 -7.429688 8.925781 -7.613281 8.65625 -7.75 C 8.394531 -7.882812 7.960938 -8.09375 7.359375 -8.375 C 6.765625 -8.65625 6.328125 -8.867188 6.046875 -9.015625 C 4.847656 -9.609375 3.921875 -10.347656 3.265625 -11.234375 C 2.609375 -12.117188 2.28125 -13.070312 2.28125 -14.09375 C 2.28125 -15.863281 2.929688 -17.3125 4.234375 -18.4375 C 5.546875 -19.570312 7.039062 -20.140625 8.71875 -20.140625 Z M 8.71875 -20.140625 "/></g></g></g><g fill="#ffffff" fill-opacity="1"><g transform="translate(64.78618, 53.921898)"><g><path d="M 0.546875 -9.90625 C 0.546875 -12.757812 1.519531 -15.175781 3.46875 -17.15625 C 5.425781 -19.144531 7.773438 -20.140625 10.515625 -20.140625 C 13.285156 -20.140625 15.632812 -19.148438 17.5625 -17.171875 C 19.5 -15.203125 20.46875 -12.78125 20.46875 -9.90625 C 20.46875 -7.007812 19.515625 -4.570312 17.609375 -2.59375 C 15.710938 -0.625 13.347656 0.359375 10.515625 0.359375 C 7.628906 0.359375 5.242188 -0.617188 3.359375 -2.578125 C 1.484375 -4.535156 0.546875 -6.976562 0.546875 -9.90625 Z M 5.421875 -9.90625 C 5.421875 -8.863281 5.578125 -7.914062 5.890625 -7.0625 C 6.210938 -6.207031 6.769531 -5.484375 7.5625 -4.890625 C 8.363281 -4.296875 9.347656 -4 10.515625 -4 C 12.191406 -4 13.457031 -4.570312 14.3125 -5.71875 C 15.175781 -6.875 15.609375 -8.269531 15.609375 -9.90625 C 15.609375 -11.507812 15.171875 -12.890625 14.296875 -14.046875 C 13.421875 -15.210938 12.160156 -15.796875 10.515625 -15.796875 C 8.890625 -15.796875 7.632812 -15.210938 6.75 -14.046875 C 5.863281 -12.890625 5.421875 -11.507812 5.421875 -9.90625 Z M 5.421875 -9.90625 "/></g></g></g><g fill="#ffffff" fill-opacity="1"><g transform="translate(85.793137, 53.921898)"><g><path d="M 12.875 -19.78125 L 12.875 -15.8125 L 5.9375 -15.8125 L 5.9375 -11.890625 L 12.34375 -11.890625 L 12.34375 -7.9375 L 5.9375 -7.9375 L 5.9375 0 L 1.4375 0 L 1.4375 -19.78125 Z M 12.875 -19.78125 "/></g></g></g><g fill="#ffffff" fill-opacity="1"><g transform="translate(99.374596, 53.921898)"><g><path d="M 0.1875 -15.8125 L 0.1875 -19.78125 L 14.09375 -19.78125 L 14.09375 -15.8125 L 9.390625 -15.8125 L 9.390625 0 L 4.890625 0 L 4.890625 -15.8125 Z M 0.1875 -15.8125 "/></g></g></g><g fill="#ffffff" fill-opacity="1"><g transform="translate(113.650699, 53.921898)"><g><path d="M 16.609375 0 L 13.453125 -11.09375 L 10.28125 0 L 5.265625 0 L -0.359375 -19.78125 L 4.65625 -19.78125 L 8.03125 -6.203125 L 8.15625 -6.203125 L 11.75 -19.78125 L 15.140625 -19.78125 L 18.75 -6.203125 L 18.859375 -6.203125 L 22.25 -19.78125 L 27.234375 -19.78125 L 21.59375 0 Z M 16.609375 0 "/></g></g></g><g fill="#ffffff" fill-opacity="1"><g transform="translate(140.502234, 53.921898)"><g><path d="M 11.484375 -19.78125 L 19.46875 0 L 14.625 0 L 13.15625 -3.953125 L 5.625 -3.953125 L 4.171875 0 L -0.671875 0 L 7.3125 -19.78125 Z M 11.625 -7.90625 L 9.421875 -13.65625 L 9.375 -13.65625 L 7.171875 -7.90625 Z M 11.625 -7.90625 "/></g></g></g><g fill="#ffffff" fill-opacity="1"><g transform="translate(159.281541, 53.921898)"><g><path d="M 1.4375 -19.78125 L 8.515625 -19.78125 C 10.410156 -19.78125 11.957031 -19.269531 13.15625 -18.25 C 14.351562 -17.238281 14.953125 -15.789062 14.953125 -13.90625 C 14.953125 -12.445312 14.585938 -11.222656 13.859375 -10.234375 C 13.140625 -9.253906 12.15625 -8.566406 10.90625 -8.171875 L 17.71875 0 L 11.984375 0 L 5.9375 -7.8125 L 5.9375 0 L 1.4375 0 Z M 5.9375 -11 L 6.46875 -11 C 6.882812 -11 7.234375 -11.003906 7.515625 -11.015625 C 7.804688 -11.035156 8.132812 -11.09375 8.5 -11.1875 C 8.875 -11.289062 9.171875 -11.425781 9.390625 -11.59375 C 9.617188 -11.769531 9.8125 -12.023438 9.96875 -12.359375 C 10.125 -12.703125 10.203125 -13.113281 10.203125 -13.59375 C 10.203125 -14.070312 10.125 -14.476562 9.96875 -14.8125 C 9.8125 -15.144531 9.617188 -15.398438 9.390625 -15.578125 C 9.171875 -15.753906 8.875 -15.890625 8.5 -15.984375 C 8.132812 -16.078125 7.804688 -16.128906 7.515625 -16.140625 C 7.234375 -16.160156 6.882812 -16.171875 6.46875 -16.171875 L 5.9375 -16.171875 Z M 5.9375 -11 "/></g></g></g><g fill="#ffffff" fill-opacity="1"><g transform="translate(176.432034, 53.921898)"><g><path d="M 12.75 -19.78125 L 12.75 -15.8125 L 5.9375 -15.8125 L 5.9375 -11.890625 L 12.46875 -11.890625 L 12.46875 -7.9375 L 5.9375 -7.9375 L 5.9375 -3.953125 L 12.75 -3.953125 L 12.75 0 L 1.4375 0 L 1.4375 -19.78125 Z M 12.75 -19.78125 "/></g></g></g><g fill="#ffffff" fill-opacity="1"><g transform="translate(190.324887, 53.921898)"><g><path d="M 8.71875 -20.140625 C 9.789062 -20.140625 10.835938 -19.984375 11.859375 -19.671875 C 12.890625 -19.359375 13.648438 -19.050781 14.140625 -18.75 L 14.859375 -18.265625 L 13.03125 -14.671875 C 12.894531 -14.765625 12.695312 -14.882812 12.4375 -15.03125 C 12.1875 -15.1875 11.707031 -15.390625 11 -15.640625 C 10.300781 -15.898438 9.644531 -16.03125 9.03125 -16.03125 C 8.28125 -16.03125 7.703125 -15.867188 7.296875 -15.546875 C 6.890625 -15.234375 6.6875 -14.804688 6.6875 -14.265625 C 6.6875 -13.992188 6.78125 -13.738281 6.96875 -13.5 C 7.164062 -13.269531 7.492188 -13.023438 7.953125 -12.765625 C 8.421875 -12.503906 8.828125 -12.289062 9.171875 -12.125 C 9.523438 -11.96875 10.070312 -11.726562 10.8125 -11.40625 C 12.09375 -10.863281 13.179688 -10.125 14.078125 -9.1875 C 14.984375 -8.257812 15.4375 -7.203125 15.4375 -6.015625 C 15.4375 -4.878906 15.234375 -3.890625 14.828125 -3.046875 C 14.421875 -2.203125 13.859375 -1.535156 13.140625 -1.046875 C 12.429688 -0.566406 11.644531 -0.210938 10.78125 0.015625 C 9.914062 0.242188 8.984375 0.359375 7.984375 0.359375 C 7.117188 0.359375 6.269531 0.269531 5.4375 0.09375 C 4.601562 -0.0820312 3.90625 -0.300781 3.34375 -0.5625 C 2.789062 -0.820312 2.289062 -1.078125 1.84375 -1.328125 C 1.394531 -1.585938 1.066406 -1.804688 0.859375 -1.984375 L 0.546875 -2.25 L 2.796875 -6.046875 C 2.992188 -5.878906 3.257812 -5.671875 3.59375 -5.421875 C 3.925781 -5.179688 4.519531 -4.851562 5.375 -4.4375 C 6.226562 -4.019531 6.984375 -3.8125 7.640625 -3.8125 C 9.546875 -3.8125 10.5 -4.457031 10.5 -5.75 C 10.5 -6.019531 10.429688 -6.269531 10.296875 -6.5 C 10.160156 -6.738281 9.921875 -6.972656 9.578125 -7.203125 C 9.234375 -7.429688 8.925781 -7.613281 8.65625 -7.75 C 8.394531 -7.882812 7.960938 -8.09375 7.359375 -8.375 C 6.765625 -8.65625 6.328125 -8.867188 6.046875 -9.015625 C 4.847656 -9.609375 3.921875 -10.347656 3.265625 -11.234375 C 2.609375 -12.117188 2.28125 -13.070312 2.28125 -14.09375 C 2.28125 -15.863281 2.929688 -17.3125 4.234375 -18.4375 C 5.546875 -19.570312 7.039062 -20.140625 8.71875 -20.140625 Z M 8.71875 -20.140625 "/></g></g></g></svg>