<svg xmlns="http://www.w3.org/2000/svg" xmlns:xlink="http://www.w3.org/1999/xlink" width="340" zoomAndPan="magnify" viewBox="0 0 255 60" height="80" preserveAspectRatio="xMidYMid meet" version="1.0"><defs><filter x="0%" y="0%" width="100%" height="100%" id="id1"><feColorMatrix values="0 0 0 0 1 0 0 0 0 1 0 0 0 0 1 0 0 0 1 0" color-interpolation-filters="sRGB"/></filter><g/><mask id="id2"><g filter="url(#id1)"><rect x="-25.5" width="306" fill="#000000" y="-6" height="72" fill-opacity="0.0196"/></g></mask><clipPath id="id3"><path d="M 0.105469 12 L 148 12 L 148 56 L 0.105469 56 Z M 0.105469 12 " clip-rule="nonzero"/></clipPath><clipPath id="id4"><path d="M 127.691406 30.945312 C 126.292969 30.945312 124.964844 31.015625 123.636719 31.15625 C 113.992188 32.273438 104.273438 29.757812 96.726562 23.683594 C 91.273438 19.351562 84.351562 16.699219 76.804688 16.699219 C 72.191406 16.699219 67.714844 17.675781 63.730469 19.492188 C 59.257812 21.519531 54.015625 21.03125 49.960938 18.304688 C 44.367188 14.535156 37.589844 12.511719 30.320312 12.929688 C 13.960938 13.90625 0.191406 27.242188 0.191406 43.582031 C 0.191406 62.578125 12.425781 70.746094 21.789062 74.238281 C 27.453125 76.332031 30.878906 82.199219 30.039062 88.203125 C 29.480469 92.324219 29.058594 96.722656 29.269531 100.144531 C 30.527344 122.28125 48.5625 140.15625 70.792969 141.273438 C 90.085938 142.25 106.722656 130.726562 113.570312 114.179688 C 115.949219 108.453125 121.609375 104.824219 127.832031 104.890625 C 127.902344 104.890625 127.902344 104.890625 127.972656 104.890625 C 148.453125 104.890625 165.019531 88.34375 164.949219 67.882812 C 164.808594 47.5625 148.03125 30.804688 127.691406 30.945312 Z M 127.691406 30.945312 " clip-rule="nonzero"/></clipPath><linearGradient x1="0" gradientTransform="matrix(0.699014, 0, 0, 0.698276, 0.191182, 0.500002)" y1="109.708" x2="211.453421" gradientUnits="userSpaceOnUse" y2="109.708" id="id5"><stop stop-opacity="1" stop-color="rgb(47.499084%, 0%, 0%)" offset="0"/><stop stop-opacity="1" stop-color="rgb(47.654724%, 0%, 0%)" offset="0.015625"/><stop stop-opacity="1" stop-color="rgb(47.967529%, 0%, 0%)" offset="0.03125"/><stop stop-opacity="1" stop-color="rgb(48.280334%, 0%, 0%)" offset="0.046875"/><stop stop-opacity="1" stop-color="rgb(48.59314%, 0%, 0%)" offset="0.0625"/><stop stop-opacity="1" stop-color="rgb(48.905945%, 0%, 0%)" offset="0.078125"/><stop stop-opacity="1" stop-color="rgb(49.21875%, 0%, 0%)" offset="0.09375"/><stop stop-opacity="1" stop-color="rgb(49.531555%, 0%, 0%)" offset="0.109375"/><stop stop-opacity="1" stop-color="rgb(49.84436%, 0%, 0%)" offset="0.125"/><stop stop-opacity="1" stop-color="rgb(50.157166%, 0%, 0%)" offset="0.140625"/><stop stop-opacity="1" stop-color="rgb(50.469971%, 0%, 0%)" offset="0.15625"/><stop stop-opacity="1" stop-color="rgb(50.782776%, 0%, 0%)" offset="0.171875"/><stop stop-opacity="1" stop-color="rgb(51.095581%, 0%, 0%)" offset="0.1875"/><stop stop-opacity="1" stop-color="rgb(51.408386%, 0%, 0%)" offset="0.203125"/><stop stop-opacity="1" stop-color="rgb(51.721191%, 0%, 0%)" offset="0.21875"/><stop stop-opacity="1" stop-color="rgb(52.033997%, 0%, 0%)" offset="0.234375"/><stop stop-opacity="1" stop-color="rgb(52.346802%, 0%, 0%)" offset="0.25"/><stop stop-opacity="1" stop-color="rgb(52.659607%, 0%, 0%)" offset="0.265625"/><stop stop-opacity="1" stop-color="rgb(52.972412%, 0%, 0%)" offset="0.28125"/><stop stop-opacity="1" stop-color="rgb(53.285217%, 0%, 0%)" offset="0.296875"/><stop stop-opacity="1" stop-color="rgb(53.598022%, 0%, 0%)" offset="0.3125"/><stop stop-opacity="1" stop-color="rgb(53.910828%, 0%, 0%)" offset="0.328125"/><stop stop-opacity="1" stop-color="rgb(54.222107%, 0%, 0%)" offset="0.34375"/><stop stop-opacity="1" stop-color="rgb(54.534912%, 0%, 0%)" offset="0.359375"/><stop stop-opacity="1" stop-color="rgb(54.847717%, 0%, 0%)" offset="0.375"/><stop stop-opacity="1" stop-color="rgb(55.160522%, 0%, 0%)" offset="0.390625"/><stop stop-opacity="1" stop-color="rgb(55.473328%, 0%, 0%)" offset="0.40625"/><stop stop-opacity="1" stop-color="rgb(55.786133%, 0%, 0%)" offset="0.421875"/><stop stop-opacity="1" stop-color="rgb(56.098938%, 0%, 0%)" offset="0.4375"/><stop stop-opacity="1" stop-color="rgb(56.411743%, 0%, 0%)" offset="0.453125"/><stop stop-opacity="1" stop-color="rgb(56.724548%, 0%, 0%)" offset="0.46875"/><stop stop-opacity="1" stop-color="rgb(57.037354%, 0%, 0%)" offset="0.484375"/><stop stop-opacity="1" stop-color="rgb(57.350159%, 0%, 0%)" offset="0.5"/><stop stop-opacity="1" stop-color="rgb(57.662964%, 0%, 0%)" offset="0.515625"/><stop stop-opacity="1" stop-color="rgb(57.975769%, 0%, 0%)" offset="0.53125"/><stop stop-opacity="1" stop-color="rgb(58.288574%, 0%, 0%)" offset="0.546875"/><stop stop-opacity="1" stop-color="rgb(58.601379%, 0%, 0%)" offset="0.5625"/><stop stop-opacity="1" stop-color="rgb(58.914185%, 0%, 0%)" offset="0.578125"/><stop stop-opacity="1" stop-color="rgb(59.22699%, 0%, 0%)" offset="0.59375"/><stop stop-opacity="1" stop-color="rgb(59.539795%, 0%, 0%)" offset="0.609375"/><stop stop-opacity="1" stop-color="rgb(59.8526%, 0%, 0%)" offset="0.625"/><stop stop-opacity="1" stop-color="rgb(60.165405%, 0%, 0%)" offset="0.640625"/><stop stop-opacity="1" stop-color="rgb(60.47821%, 0%, 0%)" offset="0.65625"/><stop stop-opacity="1" stop-color="rgb(60.791016%, 0%, 0%)" offset="0.671875"/><stop stop-opacity="1" stop-color="rgb(61.103821%, 0%, 0%)" offset="0.6875"/><stop stop-opacity="1" stop-color="rgb(61.416626%, 0%, 0%)" offset="0.703125"/><stop stop-opacity="1" stop-color="rgb(61.729431%, 0%, 0%)" offset="0.71875"/><stop stop-opacity="1" stop-color="rgb(62.042236%, 0%, 0%)" offset="0.734375"/><stop stop-opacity="1" stop-color="rgb(62.355042%, 0%, 0%)" offset="0.75"/><stop stop-opacity="1" stop-color="rgb(62.667847%, 0%, 0%)" offset="0.765625"/><stop stop-opacity="1" stop-color="rgb(62.980652%, 0%, 0%)" offset="0.78125"/><stop stop-opacity="1" stop-color="rgb(63.293457%, 0%, 0%)" offset="0.796875"/><stop stop-opacity="1" stop-color="rgb(63.606262%, 0%, 0%)" offset="0.8125"/><stop stop-opacity="1" stop-color="rgb(63.919067%, 0%, 0%)" offset="0.828125"/><stop stop-opacity="1" stop-color="rgb(64.231873%, 0%, 0%)" offset="0.84375"/><stop stop-opacity="1" stop-color="rgb(64.543152%, 0%, 0%)" offset="0.859375"/><stop stop-opacity="1" stop-color="rgb(64.855957%, 0%, 0%)" offset="0.875"/><stop stop-opacity="1" stop-color="rgb(65.168762%, 0%, 0%)" offset="0.890625"/><stop stop-opacity="1" stop-color="rgb(65.481567%, 0%, 0%)" offset="0.90625"/><stop stop-opacity="1" stop-color="rgb(65.794373%, 0%, 0%)" offset="0.921875"/><stop stop-opacity="1" stop-color="rgb(66.107178%, 0%, 0%)" offset="0.9375"/><stop stop-opacity="1" stop-color="rgb(66.419983%, 0%, 0%)" offset="0.953125"/><stop stop-opacity="1" stop-color="rgb(66.732788%, 0%, 0%)" offset="0.96875"/><stop stop-opacity="1" stop-color="rgb(67.045593%, 0%, 0%)" offset="0.984375"/><stop stop-opacity="1" stop-color="rgb(67.358398%, 0%, 0%)" offset="1"/></linearGradient><clipPath id="id6"><path d="M 105 0.5 L 129 0.5 L 129 24 L 105 24 Z M 105 0.5 " clip-rule="nonzero"/></clipPath><clipPath id="id7"><path d="M 128.25 12.023438 C 128.25 12.777344 128.175781 13.527344 128.027344 14.269531 C 127.882812 15.011719 127.664062 15.730469 127.371094 16.429688 C 127.082031 17.128906 126.726562 17.792969 126.308594 18.421875 C 125.886719 19.050781 125.40625 19.632812 124.871094 20.167969 C 124.335938 20.703125 123.753906 21.179688 123.125 21.601562 C 122.496094 22.023438 121.832031 22.375 121.128906 22.667969 C 120.429688 22.957031 119.710938 23.175781 118.96875 23.320312 C 118.222656 23.46875 117.472656 23.542969 116.714844 23.542969 C 115.960938 23.542969 115.210938 23.46875 114.464844 23.320312 C 113.722656 23.175781 113.003906 22.957031 112.304688 22.667969 C 111.601562 22.375 110.9375 22.023438 110.308594 21.601562 C 109.679688 21.179688 109.097656 20.703125 108.5625 20.167969 C 108.027344 19.632812 107.546875 19.050781 107.125 18.421875 C 106.707031 17.792969 106.351562 17.128906 106.0625 16.429688 C 105.769531 15.730469 105.550781 15.011719 105.40625 14.269531 C 105.257812 13.527344 105.183594 12.777344 105.183594 12.023438 C 105.183594 11.265625 105.257812 10.515625 105.40625 9.773438 C 105.550781 9.03125 105.769531 8.3125 106.0625 7.613281 C 106.351562 6.914062 106.707031 6.25 107.125 5.621094 C 107.546875 4.992188 108.027344 4.410156 108.5625 3.875 C 109.097656 3.339844 109.679688 2.863281 110.308594 2.441406 C 110.9375 2.019531 111.601562 1.667969 112.304688 1.378906 C 113.003906 1.085938 113.722656 0.867188 114.464844 0.722656 C 115.210938 0.574219 115.960938 0.5 116.714844 0.5 C 117.472656 0.5 118.222656 0.574219 118.96875 0.722656 C 119.710938 0.867188 120.429688 1.085938 121.128906 1.378906 C 121.832031 1.667969 122.496094 2.019531 123.125 2.441406 C 123.753906 2.863281 124.335938 3.339844 124.871094 3.875 C 125.40625 4.410156 125.886719 4.992188 126.308594 5.621094 C 126.726562 6.25 127.082031 6.914062 127.371094 7.613281 C 127.664062 8.3125 127.882812 9.03125 128.027344 9.773438 C 128.175781 10.515625 128.25 11.265625 128.25 12.023438 Z M 128.25 12.023438 " clip-rule="nonzero"/></clipPath><linearGradient x1="150.199982" gradientTransform="matrix(0.699014, 0, 0, 0.698276, 0.191182, 0.500002)" y1="109.708" x2="183.2" gradientUnits="userSpaceOnUse" y2="109.708" id="id8"><stop stop-opacity="1" stop-color="rgb(61.717224%, 0%, 0%)" offset="0"/><stop stop-opacity="1" stop-color="rgb(61.912537%, 0%, 0%)" offset="0.125"/><stop stop-opacity="1" stop-color="rgb(62.303162%, 0%, 0%)" offset="0.25"/><stop stop-opacity="1" stop-color="rgb(62.693787%, 0%, 0%)" offset="0.375"/><stop stop-opacity="1" stop-color="rgb(63.084412%, 0%, 0%)" offset="0.5"/><stop stop-opacity="1" stop-color="rgb(63.475037%, 0%, 0%)" offset="0.625"/><stop stop-opacity="1" stop-color="rgb(63.865662%, 0%, 0%)" offset="0.75"/><stop stop-opacity="1" stop-color="rgb(64.254761%, 0%, 0%)" offset="0.875"/><stop stop-opacity="1" stop-color="rgb(64.645386%, 0%, 0%)" offset="1"/></linearGradient><clipPath id="id9"><rect x="0" width="148" y="0" height="56"/></clipPath><clipPath id="id10"><path d="M 25.160156 1.722656 L 73.910156 1.722656 L 73.910156 50.472656 L 25.160156 50.472656 Z M 25.160156 1.722656 " clip-rule="nonzero"/></clipPath><clipPath id="id11"><path d="M 55 26.128906 L 59 26.128906 L 59 30 L 55 30 Z M 55 26.128906 " clip-rule="nonzero"/></clipPath><clipPath id="id12"><path d="M 26.207031 39 L 74.207031 39 L 74.207031 59.878906 L 26.207031 59.878906 Z M 26.207031 39 " clip-rule="nonzero"/></clipPath></defs><rect x="-25.5" width="306" fill="#ffffff" y="-6" height="72" fill-opacity="1"/><rect x="-25.5" width="306" fill="#ffffff" y="-6" height="72" fill-opacity="1"/><rect x="-25.5" width="306" fill="#ffffff" y="-6" height="72" fill-opacity="1"/><rect x="-25.5" width="306" fill="#ffffff" y="-6" height="72" fill-opacity="1"/><g mask="url(#id2)"><g transform="matrix(1, 0, 0, 1, 107, 4)"><g clip-path="url(#id9)"><g clip-path="url(#id3)"><g clip-path="url(#id4)"><path fill="url(#id5)" d="M 0.191406 12.511719 L 0.191406 56 L 148 56 L 148 12.511719 Z M 0.191406 12.511719 " fill-rule="nonzero"/></g></g><g clip-path="url(#id6)"><g clip-path="url(#id7)"><path fill="url(#id8)" d="M 105.183594 0.5 L 105.183594 23.542969 L 128.25 23.542969 L 128.25 0.5 Z M 105.183594 0.5 " fill-rule="nonzero"/></g></g></g></g></g><path fill="#000000" d="M 44.628906 26.132812 C 44.628906 25.40625 44.039062 24.816406 43.3125 24.816406 C 42.582031 24.816406 41.992188 25.40625 41.992188 26.132812 C 41.992188 26.863281 42.582031 27.453125 43.3125 27.453125 C 44.039062 27.453125 44.628906 26.863281 44.628906 26.132812 " fill-opacity="1" fill-rule="nonzero"/><g clip-path="url(#id10)"><path fill="#000000" d="M 73.851562 3.125 C 73.851562 2.417969 73.257812 1.820312 72.550781 1.820312 C 71.023438 1.820312 69.496094 1.820312 67.96875 1.820312 C 64.300781 1.820312 60.636719 1.820312 56.96875 1.820312 C 52.550781 1.820312 48.132812 1.820312 43.714844 1.820312 C 39.878906 1.820312 36.042969 1.820312 32.207031 1.820312 C 30.34375 1.820312 28.46875 1.757812 26.609375 1.820312 C 26.582031 1.824219 26.554688 1.820312 26.527344 1.820312 C 25.824219 1.820312 25.226562 2.417969 25.226562 3.125 C 25.226562 4.652344 25.226562 6.179688 25.226562 7.703125 C 25.226562 11.371094 25.226562 15.039062 25.226562 18.707031 C 25.226562 23.125 25.226562 27.542969 25.226562 31.960938 C 25.226562 35.796875 25.226562 39.632812 25.226562 43.46875 C 25.226562 45.332031 25.164062 47.203125 25.226562 49.066406 C 25.226562 49.09375 25.226562 49.117188 25.226562 49.144531 C 25.226562 49.847656 25.824219 50.445312 26.527344 50.445312 C 30.191406 50.445312 33.855469 50.445312 37.519531 50.445312 C 38.042969 50.445312 38.566406 50.445312 39.089844 50.445312 C 39.488281 50.445312 39.789062 50.296875 40 50.074219 C 40.234375 49.863281 40.390625 49.554688 40.390625 49.144531 C 40.390625 47.835938 40.390625 46.527344 40.390625 45.21875 C 40.390625 42.09375 40.390625 38.96875 40.390625 35.839844 C 40.390625 32.042969 40.390625 28.242188 40.390625 24.445312 C 40.390625 21.160156 40.390625 17.875 40.390625 14.589844 C 40.390625 13.410156 40.421875 12.222656 40.414062 11.042969 C 44.074219 11.042969 47.734375 11.042969 51.394531 11.042969 C 52.527344 11.042969 53.476562 11.152344 54.476562 11.578125 C 56.074219 12.261719 57.28125 13.480469 58.078125 15.09375 C 58.386719 15.71875 58.640625 16.769531 58.679688 17.5 C 58.730469 18.484375 58.644531 19.140625 58.355469 20.054688 C 57.855469 21.628906 56.703125 23.046875 55.246094 23.898438 C 54.726562 24.203125 54.476562 24.3125 53.980469 24.476562 C 53.710938 24.566406 53.4375 24.636719 53.164062 24.699219 C 52.863281 24.761719 52.8125 24.773438 52.59375 24.792969 C 52.0625 24.84375 51.523438 24.832031 50.992188 24.832031 C 49.800781 24.832031 48.609375 24.832031 47.417969 24.832031 C 45.742188 24.832031 45.738281 27.4375 47.417969 27.4375 C 48.539062 27.4375 49.660156 27.4375 50.777344 27.4375 C 52.289062 27.4375 53.769531 27.363281 55.195312 26.796875 C 59.449219 25.097656 61.925781 20.667969 61.121094 16.152344 C 60.328125 11.71875 56.246094 8.472656 51.792969 8.4375 C 49.882812 8.425781 47.972656 8.4375 46.0625 8.4375 C 43.738281 8.4375 41.414062 8.4375 39.089844 8.4375 C 38.6875 8.4375 38.386719 8.585938 38.175781 8.8125 C 37.941406 9.023438 37.785156 9.332031 37.785156 9.738281 C 37.785156 11.046875 37.785156 12.359375 37.785156 13.667969 C 37.785156 16.792969 37.785156 19.917969 37.785156 23.042969 C 37.785156 26.84375 37.785156 30.640625 37.785156 34.441406 C 37.785156 37.726562 37.785156 41.011719 37.785156 44.296875 C 37.785156 45.476562 37.753906 46.660156 37.761719 47.84375 C 34.539062 47.84375 31.320312 47.84375 28.097656 47.84375 C 28.007812 47.84375 27.917969 47.84375 27.832031 47.84375 C 27.832031 46.75 27.832031 45.65625 27.832031 44.5625 C 27.832031 40.898438 27.832031 37.230469 27.832031 33.5625 C 27.832031 29.144531 27.832031 24.726562 27.832031 20.308594 C 27.832031 16.472656 27.832031 12.636719 27.832031 8.800781 C 27.832031 7.539062 27.832031 6.277344 27.832031 5.015625 C 27.832031 4.820312 27.835938 4.621094 27.839844 4.425781 C 28.929688 4.425781 30.019531 4.425781 31.109375 4.425781 C 34.777344 4.425781 38.445312 4.425781 42.109375 4.425781 C 46.527344 4.425781 50.949219 4.425781 55.367188 4.425781 C 59.203125 4.425781 63.039062 4.425781 66.875 4.425781 C 68.136719 4.425781 69.394531 4.425781 70.65625 4.425781 C 70.851562 4.425781 71.050781 4.429688 71.25 4.433594 C 71.25 5.523438 71.25 6.613281 71.25 7.703125 C 71.25 11.371094 71.25 15.039062 71.25 18.707031 C 71.25 23.125 71.25 27.542969 71.25 31.960938 C 71.25 35.796875 71.25 39.632812 71.25 43.46875 C 71.25 44.730469 71.25 45.992188 71.25 47.253906 C 71.25 47.449219 71.246094 47.644531 71.242188 47.84375 C 67.761719 47.84375 64.28125 47.84375 60.800781 47.84375 C 60.238281 47.84375 59.675781 47.84375 59.113281 47.84375 C 57.441406 47.84375 57.4375 50.445312 59.113281 50.445312 C 63.03125 50.445312 66.945312 50.445312 70.863281 50.445312 C 71.425781 50.445312 71.988281 50.445312 72.550781 50.445312 C 73.253906 50.445312 73.851562 49.851562 73.851562 49.144531 C 73.851562 47.617188 73.851562 46.089844 73.851562 44.5625 C 73.851562 40.898438 73.851562 37.230469 73.851562 33.5625 C 73.851562 29.144531 73.851562 24.726562 73.851562 20.308594 C 73.851562 16.472656 73.851562 12.636719 73.851562 8.800781 C 73.851562 6.9375 73.914062 5.0625 73.851562 3.203125 C 73.851562 3.175781 73.851562 3.148438 73.851562 3.125 " fill-opacity="1" fill-rule="nonzero"/></g><path fill="#000000" d="M 64.964844 32.164062 L 65.527344 28.363281 L 65.585938 28.363281 L 65.636719 28.679688 C 65.769531 29.527344 65.90625 30.375 66.027344 31.21875 C 66.0625 31.441406 66.066406 31.671875 66.085938 31.898438 C 66.105469 32.125 66.121094 32.167969 66.375 32.199219 L 69.867188 32.671875 C 69.917969 32.6875 69.96875 32.703125 70.015625 32.722656 C 69.898438 32.75 69.835938 32.769531 69.773438 32.777344 C 68.910156 32.90625 68.046875 33.035156 67.179688 33.164062 C 66.902344 33.199219 66.621094 33.226562 66.34375 33.261719 C 66.121094 33.289062 66.117188 33.296875 66.085938 33.523438 C 65.921875 34.667969 65.765625 35.8125 65.609375 36.953125 C 65.605469 36.992188 65.589844 37.019531 65.558594 37.042969 C 65.417969 36.429688 65.335938 35.804688 65.242188 35.183594 C 65.148438 34.5625 65.0625 33.941406 64.976562 33.308594 L 61.195312 32.761719 C 61.585938 32.582031 62.011719 32.589844 62.414062 32.519531 C 62.816406 32.449219 63.257812 32.386719 63.675781 32.328125 C 64.097656 32.269531 64.53125 32.21875 64.964844 32.164062 Z M 64.964844 32.164062 " fill-opacity="1" fill-rule="nonzero"/><path fill="#000000" d="M 39.277344 41.972656 L 39.484375 40.5625 L 39.503906 40.5625 C 39.503906 40.601562 39.503906 40.640625 39.523438 40.683594 C 39.574219 40.996094 39.621094 41.308594 39.667969 41.621094 C 39.679688 41.707031 39.683594 41.792969 39.691406 41.863281 C 39.699219 41.9375 39.691406 41.964844 39.796875 41.976562 L 41.09375 42.152344 L 41.148438 42.171875 L 41.058594 42.191406 L 40.097656 42.332031 C 39.992188 42.347656 39.890625 42.359375 39.785156 42.371094 C 39.679688 42.382812 39.699219 42.371094 39.691406 42.46875 L 39.515625 43.742188 C 39.511719 43.753906 39.503906 43.761719 39.496094 43.773438 C 39.441406 43.542969 39.414062 43.3125 39.378906 43.082031 C 39.34375 42.851562 39.3125 42.628906 39.277344 42.386719 L 37.875 42.183594 C 38.023438 42.136719 38.175781 42.105469 38.332031 42.089844 C 38.488281 42.0625 38.644531 42.042969 38.800781 42.019531 C 38.957031 42 39.113281 41.992188 39.277344 41.972656 Z M 39.277344 41.972656 " fill-opacity="1" fill-rule="nonzero"/><g clip-path="url(#id11)"><path fill="#000000" d="M 56.734375 27.574219 L 56.953125 26.164062 L 56.976562 26.164062 C 56.976562 26.203125 56.992188 26.246094 56.996094 26.285156 C 57.046875 26.597656 57.09375 26.910156 57.140625 27.226562 C 57.140625 27.308594 57.15625 27.390625 57.164062 27.46875 C 57.171875 27.542969 57.179688 27.566406 57.269531 27.578125 L 58.566406 27.753906 L 58.621094 27.773438 C 58.59375 27.78125 58.5625 27.789062 58.53125 27.792969 L 57.570312 27.933594 C 57.46875 27.949219 57.363281 27.960938 57.257812 27.972656 C 57.152344 27.984375 57.175781 27.984375 57.164062 28.070312 L 56.976562 29.351562 C 56.976562 29.363281 56.96875 29.375 56.957031 29.386719 C 56.90625 29.15625 56.878906 28.925781 56.839844 28.695312 C 56.804688 28.464844 56.777344 28.234375 56.742188 28 L 55.339844 27.796875 C 55.488281 27.746094 55.636719 27.714844 55.792969 27.703125 C 55.949219 27.671875 56.105469 27.652344 56.261719 27.632812 C 56.417969 27.609375 56.582031 27.59375 56.734375 27.574219 Z M 56.734375 27.574219 " fill-opacity="1" fill-rule="nonzero"/></g><path fill="#000000" d="M 58.171875 32.078125 C 58.171875 32.167969 58.171875 32.25 58.171875 32.335938 C 58.152344 32.800781 58.113281 33.265625 58.097656 33.730469 C 58.078125 34.550781 58.074219 35.371094 58.054688 36.195312 C 58.050781 36.351562 58.023438 36.503906 57.980469 36.65625 C 57.917969 36.882812 57.792969 36.96875 57.617188 36.957031 C 57.40625 36.925781 57.285156 36.808594 57.257812 36.597656 C 57.25 36.550781 57.25 36.503906 57.257812 36.457031 C 57.253906 35.550781 56.976562 34.738281 56.433594 34.011719 C 56.007812 33.382812 55.460938 32.890625 54.78125 32.535156 C 54.378906 32.324219 53.957031 32.171875 53.511719 32.078125 C 52.90625 31.953125 52.292969 31.90625 51.675781 31.941406 C 50.722656 31.96875 49.851562 32.25 49.066406 32.785156 C 48.222656 33.363281 47.722656 34.15625 47.574219 35.164062 C 47.460938 35.863281 47.523438 36.550781 47.757812 37.21875 C 47.890625 37.558594 48.066406 37.871094 48.285156 38.164062 C 48.757812 38.816406 49.304688 39.398438 49.925781 39.914062 L 50.097656 40.058594 C 50.082031 40.171875 50.003906 40.179688 49.921875 40.203125 C 49.304688 40.378906 45.582031 41.601562 45.414062 41.671875 C 45.289062 41.722656 45.167969 41.761719 45.015625 41.8125 C 44.9375 41.695312 44.859375 41.589844 44.796875 41.472656 C 44.511719 40.984375 44.28125 40.46875 44.101562 39.929688 C 43.957031 39.453125 43.855469 38.96875 43.792969 38.476562 C 43.714844 37.894531 43.699219 37.3125 43.738281 36.730469 C 43.800781 35.894531 44.015625 35.101562 44.382812 34.351562 C 44.8125 33.507812 45.390625 32.789062 46.128906 32.191406 C 46.753906 31.667969 47.449219 31.257812 48.214844 30.964844 C 48.636719 30.804688 49.066406 30.660156 49.5 30.53125 C 49.800781 30.449219 50.105469 30.386719 50.414062 30.339844 C 51.253906 30.203125 52.097656 30.144531 52.949219 30.164062 C 53.625 30.191406 54.304688 30.25 54.980469 30.3125 C 55.441406 30.359375 55.902344 30.425781 56.359375 30.5 C 56.886719 30.582031 57.40625 30.703125 57.917969 30.863281 C 58.160156 30.945312 58.3125 31.105469 58.222656 31.5 " fill-opacity="1" fill-rule="nonzero"/><g clip-path="url(#id12)"><path fill="#000000" d="M 74.042969 42.785156 C 73.859375 42.199219 73.542969 41.703125 73.082031 41.292969 C 72.8125 41.046875 72.519531 40.828125 72.199219 40.644531 C 71.796875 40.414062 71.375 40.210938 70.941406 40.039062 C 70.53125 39.890625 70.117188 39.761719 69.691406 39.65625 C 69.402344 39.578125 69.101562 39.527344 68.804688 39.464844 C 68.5625 39.414062 68.316406 39.351562 68.058594 39.320312 C 67.652344 39.269531 67.246094 39.238281 66.835938 39.203125 C 66.796875 39.203125 66.757812 39.1875 66.71875 39.1875 C 66.363281 39.164062 66.007812 39.140625 65.648438 39.121094 C 65.613281 39.121094 65.574219 39.144531 65.53125 39.144531 C 65.4375 39.148438 65.34375 39.148438 65.246094 39.144531 C 65.113281 39.125 64.980469 39.117188 64.84375 39.117188 C 64.582031 39.140625 64.320312 39.140625 64.054688 39.117188 C 63.078125 39.074219 62.117188 39.179688 61.152344 39.230469 C 61.078125 39.238281 61.007812 39.246094 60.9375 39.261719 L 60.535156 39.308594 C 60.167969 39.347656 59.800781 39.382812 59.4375 39.421875 C 59.195312 39.449219 58.964844 39.488281 58.726562 39.523438 C 58.417969 39.570312 58.113281 39.621094 57.804688 39.671875 C 57.558594 39.710938 57.316406 39.734375 57.070312 39.78125 C 56.671875 39.855469 56.277344 39.941406 55.878906 40.023438 C 55.476562 40.101562 55.144531 40.15625 54.773438 40.226562 C 54.609375 40.257812 54.449219 40.296875 54.285156 40.332031 L 53.257812 40.574219 C 52.972656 40.640625 52.6875 40.710938 52.402344 40.785156 C 52.117188 40.863281 51.820312 40.941406 51.527344 41.027344 C 51.234375 41.117188 50.972656 41.164062 50.695312 41.242188 C 50.335938 41.339844 49.980469 41.453125 49.621094 41.558594 L 48.519531 41.878906 L 48.164062 41.984375 C 47.0625 42.28125 45.980469 42.644531 44.921875 43.066406 C 44.75 43.128906 44.574219 43.191406 44.402344 43.257812 C 44.382812 43.265625 44.359375 43.273438 44.34375 43.289062 L 43.960938 43.441406 L 43.925781 43.441406 L 43.238281 43.71875 C 43.238281 43.714844 43.238281 43.710938 43.238281 43.703125 C 43.0625 43.769531 42.902344 43.824219 42.75 43.890625 L 41.023438 44.640625 C 40.128906 45.019531 39.53125 45.292969 39.53125 45.292969 L 39.507812 45.3125 L 39.261719 45.421875 C 38.042969 45.976562 36.820312 46.589844 35.644531 47.242188 C 34.628906 47.804688 33.617188 48.378906 32.617188 48.972656 C 32.023438 49.320312 31.445312 49.699219 30.875 50.089844 C 30.195312 50.554688 29.523438 51.03125 28.863281 51.523438 C 28.257812 51.984375 27.6875 52.484375 27.152344 53.019531 C 26.828125 53.347656 26.535156 53.699219 26.277344 54.078125 C 26.25 54.121094 26.226562 54.171875 26.210938 54.222656 C 26.25 54.222656 26.269531 54.222656 26.28125 54.222656 C 27.285156 53.578125 28.324219 52.988281 29.382812 52.433594 C 30.1875 52.015625 30.996094 51.597656 31.808594 51.199219 C 32.621094 50.796875 33.40625 50.433594 34.207031 50.054688 C 34.722656 49.8125 35.242188 49.585938 35.757812 49.34375 L 39.019531 47.925781 L 39.550781 47.683594 L 39.882812 47.566406 L 39.929688 47.550781 L 45.300781 45.574219 L 45.363281 45.554688 C 45.773438 45.421875 46.179688 45.296875 46.585938 45.175781 C 46.867188 45.089844 47.152344 45.023438 47.425781 44.933594 C 47.558594 44.875 47.671875 44.894531 47.773438 44.996094 C 48.320312 45.453125 48.867188 45.914062 49.425781 46.355469 C 50.085938 46.878906 50.761719 47.382812 51.425781 47.898438 C 52.085938 48.402344 52.691406 48.96875 53.238281 49.59375 C 53.71875 50.121094 54.109375 50.710938 54.410156 51.359375 C 54.535156 51.65625 54.640625 51.957031 54.722656 52.269531 C 54.789062 52.542969 54.800781 52.828125 54.839844 53.109375 C 54.941406 53.824219 54.84375 54.519531 54.554688 55.183594 C 54.152344 56.144531 53.480469 56.863281 52.550781 57.34375 C 52.15625 57.554688 51.742188 57.710938 51.304688 57.8125 C 51.011719 57.882812 50.703125 57.886719 50.40625 57.949219 C 49.804688 58.074219 49.207031 57.972656 48.613281 57.898438 C 48.1875 57.832031 47.773438 57.71875 47.371094 57.5625 C 46.441406 57.234375 45.691406 56.667969 45.125 55.867188 C 44.640625 55.183594 44.316406 54.429688 44.148438 53.605469 C 44.011719 53.101562 43.945312 52.585938 43.945312 52.0625 C 43.945312 51.992188 43.933594 51.921875 43.90625 51.855469 C 43.855469 51.691406 43.742188 51.609375 43.570312 51.613281 C 43.386719 51.605469 43.269531 51.6875 43.210938 51.855469 C 43.15625 51.96875 43.117188 52.089844 43.097656 52.214844 C 43.054688 52.558594 43.015625 52.90625 43 53.25 C 42.976562 53.796875 42.9375 54.339844 42.917969 54.882812 C 42.867188 55.960938 42.890625 57.046875 42.890625 58.128906 C 42.898438 58.199219 42.914062 58.269531 42.945312 58.332031 C 43.0625 58.621094 43.277344 58.808594 43.578125 58.890625 C 43.863281 59.011719 44.148438 59.132812 44.441406 59.230469 C 44.761719 59.34375 45.085938 59.4375 45.417969 59.515625 C 45.804688 59.597656 46.203125 59.660156 46.597656 59.707031 C 47.121094 59.773438 47.644531 59.835938 48.167969 59.859375 C 48.777344 59.886719 49.390625 59.859375 49.996094 59.859375 C 50.164062 59.863281 50.332031 59.855469 50.5 59.839844 C 50.863281 59.796875 51.230469 59.746094 51.59375 59.6875 C 51.933594 59.640625 52.269531 59.574219 52.601562 59.492188 C 53.035156 59.371094 53.460938 59.222656 53.878906 59.058594 C 54.9375 58.648438 55.871094 58.046875 56.679688 57.253906 C 57.347656 56.605469 57.871094 55.863281 58.253906 55.019531 C 58.488281 54.519531 58.652344 53.996094 58.742188 53.453125 C 58.816406 53.144531 58.867188 52.835938 58.902344 52.523438 C 58.992188 51.460938 58.910156 50.410156 58.660156 49.375 C 58.523438 48.800781 58.332031 48.25 58.089844 47.714844 C 57.730469 47.003906 57.296875 46.347656 56.78125 45.742188 C 56.261719 45.121094 55.699219 44.539062 55.09375 44 C 54.894531 43.820312 54.703125 43.632812 54.507812 43.449219 C 54.507812 43.429688 54.527344 43.410156 54.535156 43.390625 C 54.886719 43.332031 55.238281 43.261719 55.589844 43.21875 C 56.152344 43.148438 56.71875 43.089844 57.277344 43.027344 L 57.375 43.027344 C 57.761719 42.972656 58.148438 42.914062 58.535156 42.867188 C 58.867188 42.832031 59.207031 42.804688 59.539062 42.785156 C 60.082031 42.746094 60.625 42.714844 61.167969 42.695312 C 61.625 42.679688 62.078125 42.695312 62.535156 42.679688 C 63.441406 42.648438 64.34375 42.734375 65.246094 42.78125 C 65.296875 42.78125 65.34375 42.789062 65.390625 42.796875 L 66.332031 42.953125 C 66.558594 42.992188 66.789062 43.007812 67.011719 43.066406 C 67.398438 43.160156 67.78125 43.273438 68.152344 43.410156 C 68.628906 43.566406 69.035156 43.828125 69.375 44.191406 C 69.585938 44.429688 69.699219 44.707031 69.707031 45.023438 C 69.746094 45.507812 69.683594 45.980469 69.519531 46.4375 C 69.410156 46.738281 69.28125 47.035156 69.140625 47.324219 C 68.820312 47.898438 68.429688 48.421875 67.976562 48.898438 C 67.324219 49.582031 66.621094 50.210938 65.859375 50.773438 C 65.140625 51.3125 64.394531 51.804688 63.613281 52.25 C 62.71875 52.753906 61.804688 53.234375 60.902344 53.726562 L 60.683594 53.839844 C 60.726562 53.875 60.769531 53.882812 60.824219 53.867188 L 61.828125 53.449219 C 62.609375 53.117188 63.394531 52.808594 64.164062 52.453125 C 65.097656 52.015625 66.015625 51.554688 66.929688 51.078125 C 67.996094 50.53125 69.019531 49.914062 69.996094 49.226562 C 70.449219 48.90625 70.90625 48.585938 71.332031 48.230469 C 71.8125 47.851562 72.253906 47.429688 72.65625 46.96875 C 72.933594 46.625 73.238281 46.300781 73.480469 45.933594 C 73.757812 45.550781 73.945312 45.128906 74.039062 44.667969 C 74.085938 44.398438 74.171875 44.132812 74.199219 43.863281 C 74.21875 43.492188 74.164062 43.132812 74.042969 42.785156 Z M 74.042969 42.785156 " fill-opacity="1" fill-rule="nonzero"/></g><g fill="#000000" fill-opacity="1"><g transform="translate(75.686385, 22.89401)"><g><path d="M 1.5 -20.515625 L 8.984375 -20.515625 C 11.066406 -20.515625 12.753906 -19.972656 14.046875 -18.890625 C 15.347656 -17.816406 16 -16.253906 16 -14.203125 C 16 -12.148438 15.34375 -10.535156 14.03125 -9.359375 C 12.71875 -8.191406 11.035156 -7.609375 8.984375 -7.609375 L 6.171875 -7.609375 L 6.171875 0 L 1.5 0 Z M 6.171875 -11.34375 L 7.484375 -11.34375 C 8.523438 -11.34375 9.378906 -11.550781 10.046875 -11.96875 C 10.722656 -12.394531 11.0625 -13.085938 11.0625 -14.046875 C 11.0625 -15.023438 10.722656 -15.726562 10.046875 -16.15625 C 9.378906 -16.582031 8.523438 -16.796875 7.484375 -16.796875 L 6.171875 -16.796875 Z M 6.171875 -11.34375 "/></g></g></g><g fill="#000000" fill-opacity="1"><g transform="translate(92.246705, 22.89401)"><g><path d="M 1.5 -20.515625 L 8.828125 -20.515625 C 10.804688 -20.515625 12.414062 -19.988281 13.65625 -18.9375 C 14.894531 -17.882812 15.515625 -16.378906 15.515625 -14.421875 C 15.515625 -12.910156 15.140625 -11.644531 14.390625 -10.625 C 13.640625 -9.613281 12.613281 -8.898438 11.3125 -8.484375 L 18.375 0 L 12.4375 0 L 6.171875 -8.109375 L 6.171875 0 L 1.5 0 Z M 6.171875 -11.421875 L 6.71875 -11.421875 C 7.144531 -11.421875 7.507812 -11.425781 7.8125 -11.4375 C 8.113281 -11.457031 8.453125 -11.515625 8.828125 -11.609375 C 9.210938 -11.710938 9.519531 -11.851562 9.75 -12.03125 C 9.976562 -12.21875 10.175781 -12.484375 10.34375 -12.828125 C 10.507812 -13.179688 10.59375 -13.601562 10.59375 -14.09375 C 10.59375 -14.59375 10.507812 -15.015625 10.34375 -15.359375 C 10.175781 -15.710938 9.976562 -15.976562 9.75 -16.15625 C 9.519531 -16.34375 9.210938 -16.484375 8.828125 -16.578125 C 8.453125 -16.679688 8.113281 -16.742188 7.8125 -16.765625 C 7.507812 -16.785156 7.144531 -16.796875 6.71875 -16.796875 L 6.171875 -16.796875 Z M 6.171875 -11.421875 "/></g></g></g><g fill="#000000" fill-opacity="1"><g transform="translate(110.050291, 22.89401)"><g><path d="M 13.234375 -20.515625 L 13.234375 -16.421875 L 6.171875 -16.421875 L 6.171875 -12.34375 L 12.9375 -12.34375 L 12.9375 -8.234375 L 6.171875 -8.234375 L 6.171875 -4.109375 L 13.234375 -4.109375 L 13.234375 0 L 1.5 0 L 1.5 -20.515625 Z M 13.234375 -20.515625 "/></g></g></g><g fill="#000000" fill-opacity="1"><g transform="translate(124.472195, 22.89401)"><g><path d="M 9.046875 -20.890625 C 10.160156 -20.890625 11.25 -20.726562 12.3125 -20.40625 C 13.375 -20.082031 14.160156 -19.765625 14.671875 -19.453125 L 15.421875 -18.953125 L 13.53125 -15.21875 C 13.382812 -15.320312 13.175781 -15.453125 12.90625 -15.609375 C 12.644531 -15.765625 12.148438 -15.972656 11.421875 -16.234375 C 10.691406 -16.503906 10.007812 -16.640625 9.375 -16.640625 C 8.59375 -16.640625 7.988281 -16.472656 7.5625 -16.140625 C 7.144531 -15.804688 6.9375 -15.359375 6.9375 -14.796875 C 6.9375 -14.515625 7.035156 -14.253906 7.234375 -14.015625 C 7.429688 -13.773438 7.769531 -13.515625 8.25 -13.234375 C 8.738281 -12.960938 9.164062 -12.742188 9.53125 -12.578125 C 9.894531 -12.421875 10.457031 -12.175781 11.21875 -11.84375 C 12.539062 -11.28125 13.671875 -10.507812 14.609375 -9.53125 C 15.546875 -8.5625 16.015625 -7.46875 16.015625 -6.25 C 16.015625 -5.070312 15.800781 -4.039062 15.375 -3.15625 C 14.957031 -2.28125 14.378906 -1.59375 13.640625 -1.09375 C 12.898438 -0.59375 12.082031 -0.222656 11.1875 0.015625 C 10.289062 0.253906 9.320312 0.375 8.28125 0.375 C 7.382812 0.375 6.503906 0.28125 5.640625 0.09375 C 4.785156 -0.0820312 4.066406 -0.304688 3.484375 -0.578125 C 2.898438 -0.859375 2.375 -1.128906 1.90625 -1.390625 C 1.445312 -1.660156 1.109375 -1.882812 0.890625 -2.0625 L 0.578125 -2.34375 L 2.90625 -6.265625 C 3.101562 -6.097656 3.375 -5.882812 3.71875 -5.625 C 4.070312 -5.375 4.691406 -5.03125 5.578125 -4.59375 C 6.472656 -4.164062 7.257812 -3.953125 7.9375 -3.953125 C 9.90625 -3.953125 10.890625 -4.625 10.890625 -5.96875 C 10.890625 -6.25 10.816406 -6.507812 10.671875 -6.75 C 10.535156 -6.988281 10.289062 -7.226562 9.9375 -7.46875 C 9.582031 -7.707031 9.265625 -7.898438 8.984375 -8.046875 C 8.710938 -8.191406 8.265625 -8.40625 7.640625 -8.6875 C 7.023438 -8.976562 6.566406 -9.203125 6.265625 -9.359375 C 5.023438 -9.960938 4.0625 -10.722656 3.375 -11.640625 C 2.695312 -12.566406 2.359375 -13.5625 2.359375 -14.625 C 2.359375 -16.46875 3.035156 -17.972656 4.390625 -19.140625 C 5.753906 -20.304688 7.304688 -20.890625 9.046875 -20.890625 Z M 9.046875 -20.890625 "/></g></g></g><g fill="#000000" fill-opacity="1"><g transform="translate(141.181712, 22.89401)"><g><path d="M 13.234375 -20.515625 L 13.234375 -16.421875 L 6.171875 -16.421875 L 6.171875 -12.34375 L 12.9375 -12.34375 L 12.9375 -8.234375 L 6.171875 -8.234375 L 6.171875 -4.109375 L 13.234375 -4.109375 L 13.234375 0 L 1.5 0 L 1.5 -20.515625 Z M 13.234375 -20.515625 "/></g></g></g><g fill="#000000" fill-opacity="1"><g transform="translate(155.603616, 22.89401)"><g><path d="M 11.921875 -20.515625 L 20.203125 0 L 15.171875 0 L 13.65625 -4.109375 L 5.84375 -4.109375 L 4.328125 0 L -0.703125 0 L 7.59375 -20.515625 Z M 12.0625 -8.203125 L 9.78125 -14.171875 L 9.71875 -14.171875 L 7.4375 -8.203125 Z M 12.0625 -8.203125 "/></g></g></g><g fill="#000000" fill-opacity="1"><g transform="translate(175.098049, 22.89401)"><g><path d="M 1.5 -20.515625 L 8.828125 -20.515625 C 10.804688 -20.515625 12.414062 -19.988281 13.65625 -18.9375 C 14.894531 -17.882812 15.515625 -16.378906 15.515625 -14.421875 C 15.515625 -12.910156 15.140625 -11.644531 14.390625 -10.625 C 13.640625 -9.613281 12.613281 -8.898438 11.3125 -8.484375 L 18.375 0 L 12.4375 0 L 6.171875 -8.109375 L 6.171875 0 L 1.5 0 Z M 6.171875 -11.421875 L 6.71875 -11.421875 C 7.144531 -11.421875 7.507812 -11.425781 7.8125 -11.4375 C 8.113281 -11.457031 8.453125 -11.515625 8.828125 -11.609375 C 9.210938 -11.710938 9.519531 -11.851562 9.75 -12.03125 C 9.976562 -12.21875 10.175781 -12.484375 10.34375 -12.828125 C 10.507812 -13.179688 10.59375 -13.601562 10.59375 -14.09375 C 10.59375 -14.59375 10.507812 -15.015625 10.34375 -15.359375 C 10.175781 -15.710938 9.976562 -15.976562 9.75 -16.15625 C 9.519531 -16.34375 9.210938 -16.484375 8.828125 -16.578125 C 8.453125 -16.679688 8.113281 -16.742188 7.8125 -16.765625 C 7.507812 -16.785156 7.144531 -16.796875 6.71875 -16.796875 L 6.171875 -16.796875 Z M 6.171875 -11.421875 "/></g></g></g><g fill="#000000" fill-opacity="1"><g transform="translate(192.899772, 22.89401)"><g/></g></g><g fill="#000000" fill-opacity="1"><g transform="translate(75.686385, 54.582443)"><g><path d="M 9.046875 -20.890625 C 10.160156 -20.890625 11.25 -20.726562 12.3125 -20.40625 C 13.375 -20.082031 14.160156 -19.765625 14.671875 -19.453125 L 15.421875 -18.953125 L 13.53125 -15.21875 C 13.382812 -15.320312 13.175781 -15.453125 12.90625 -15.609375 C 12.644531 -15.765625 12.148438 -15.972656 11.421875 -16.234375 C 10.691406 -16.503906 10.007812 -16.640625 9.375 -16.640625 C 8.59375 -16.640625 7.988281 -16.472656 7.5625 -16.140625 C 7.144531 -15.804688 6.9375 -15.359375 6.9375 -14.796875 C 6.9375 -14.515625 7.035156 -14.253906 7.234375 -14.015625 C 7.429688 -13.773438 7.769531 -13.515625 8.25 -13.234375 C 8.738281 -12.960938 9.164062 -12.742188 9.53125 -12.578125 C 9.894531 -12.421875 10.457031 -12.175781 11.21875 -11.84375 C 12.539062 -11.28125 13.671875 -10.507812 14.609375 -9.53125 C 15.546875 -8.5625 16.015625 -7.46875 16.015625 -6.25 C 16.015625 -5.070312 15.800781 -4.039062 15.375 -3.15625 C 14.957031 -2.28125 14.378906 -1.59375 13.640625 -1.09375 C 12.898438 -0.59375 12.082031 -0.222656 11.1875 0.015625 C 10.289062 0.253906 9.320312 0.375 8.28125 0.375 C 7.382812 0.375 6.503906 0.28125 5.640625 0.09375 C 4.785156 -0.0820312 4.066406 -0.304688 3.484375 -0.578125 C 2.898438 -0.859375 2.375 -1.128906 1.90625 -1.390625 C 1.445312 -1.660156 1.109375 -1.882812 0.890625 -2.0625 L 0.578125 -2.34375 L 2.90625 -6.265625 C 3.101562 -6.097656 3.375 -5.882812 3.71875 -5.625 C 4.070312 -5.375 4.691406 -5.03125 5.578125 -4.59375 C 6.472656 -4.164062 7.257812 -3.953125 7.9375 -3.953125 C 9.90625 -3.953125 10.890625 -4.625 10.890625 -5.96875 C 10.890625 -6.25 10.816406 -6.507812 10.671875 -6.75 C 10.535156 -6.988281 10.289062 -7.226562 9.9375 -7.46875 C 9.582031 -7.707031 9.265625 -7.898438 8.984375 -8.046875 C 8.710938 -8.191406 8.265625 -8.40625 7.640625 -8.6875 C 7.023438 -8.976562 6.566406 -9.203125 6.265625 -9.359375 C 5.023438 -9.960938 4.0625 -10.722656 3.375 -11.640625 C 2.695312 -12.566406 2.359375 -13.5625 2.359375 -14.625 C 2.359375 -16.46875 3.035156 -17.972656 4.390625 -19.140625 C 5.753906 -20.304688 7.304688 -20.890625 9.046875 -20.890625 Z M 9.046875 -20.890625 "/></g></g></g><g fill="#000000" fill-opacity="1"><g transform="translate(92.395902, 54.582443)"><g><path d="M 0.578125 -10.265625 C 0.578125 -13.234375 1.585938 -15.742188 3.609375 -17.796875 C 5.628906 -19.859375 8.066406 -20.890625 10.921875 -20.890625 C 13.785156 -20.890625 16.222656 -19.863281 18.234375 -17.8125 C 20.242188 -15.769531 21.25 -13.253906 21.25 -10.265625 C 21.25 -7.265625 20.257812 -4.738281 18.28125 -2.6875 C 16.3125 -0.644531 13.859375 0.375 10.921875 0.375 C 7.921875 0.375 5.445312 -0.640625 3.5 -2.671875 C 1.550781 -4.703125 0.578125 -7.234375 0.578125 -10.265625 Z M 5.625 -10.265625 C 5.625 -9.191406 5.785156 -8.210938 6.109375 -7.328125 C 6.441406 -6.441406 7.023438 -5.691406 7.859375 -5.078125 C 8.691406 -4.460938 9.710938 -4.15625 10.921875 -4.15625 C 12.660156 -4.15625 13.972656 -4.75 14.859375 -5.9375 C 15.742188 -7.132812 16.1875 -8.578125 16.1875 -10.265625 C 16.1875 -11.941406 15.734375 -13.378906 14.828125 -14.578125 C 13.929688 -15.785156 12.628906 -16.390625 10.921875 -16.390625 C 9.234375 -16.390625 7.925781 -15.785156 7 -14.578125 C 6.082031 -13.378906 5.625 -11.941406 5.625 -10.265625 Z M 5.625 -10.265625 "/></g></g></g><g fill="#000000" fill-opacity="1"><g transform="translate(114.20281, 54.582443)"><g><path d="M 13.359375 -20.515625 L 13.359375 -16.421875 L 6.171875 -16.421875 L 6.171875 -12.34375 L 12.8125 -12.34375 L 12.8125 -8.234375 L 6.171875 -8.234375 L 6.171875 0 L 1.5 0 L 1.5 -20.515625 Z M 13.359375 -20.515625 "/></g></g></g><g fill="#000000" fill-opacity="1"><g transform="translate(128.301458, 54.582443)"><g><path d="M 0.203125 -16.421875 L 0.203125 -20.515625 L 14.625 -20.515625 L 14.625 -16.421875 L 9.75 -16.421875 L 9.75 0 L 5.078125 0 L 5.078125 -16.421875 Z M 0.203125 -16.421875 "/></g></g></g><g fill="#000000" fill-opacity="1"><g transform="translate(143.121198, 54.582443)"><g><path d="M 17.234375 0 L 13.953125 -11.515625 L 10.671875 0 L 5.46875 0 L -0.375 -20.515625 L 4.828125 -20.515625 L 8.328125 -6.4375 L 8.453125 -6.4375 L 12.1875 -20.515625 L 15.71875 -20.515625 L 19.453125 -6.4375 L 19.578125 -6.4375 L 23.078125 -20.515625 L 28.265625 -20.515625 L 22.40625 0 Z M 17.234375 0 "/></g></g></g><g fill="#000000" fill-opacity="1"><g transform="translate(170.995251, 54.582443)"><g><path d="M 11.921875 -20.515625 L 20.203125 0 L 15.171875 0 L 13.65625 -4.109375 L 5.84375 -4.109375 L 4.328125 0 L -0.703125 0 L 7.59375 -20.515625 Z M 12.0625 -8.203125 L 9.78125 -14.171875 L 9.71875 -14.171875 L 7.4375 -8.203125 Z M 12.0625 -8.203125 "/></g></g></g><g fill="#000000" fill-opacity="1"><g transform="translate(190.489684, 54.582443)"><g><path d="M 1.5 -20.515625 L 8.828125 -20.515625 C 10.804688 -20.515625 12.414062 -19.988281 13.65625 -18.9375 C 14.894531 -17.882812 15.515625 -16.378906 15.515625 -14.421875 C 15.515625 -12.910156 15.140625 -11.644531 14.390625 -10.625 C 13.640625 -9.613281 12.613281 -8.898438 11.3125 -8.484375 L 18.375 0 L 12.4375 0 L 6.171875 -8.109375 L 6.171875 0 L 1.5 0 Z M 6.171875 -11.421875 L 6.71875 -11.421875 C 7.144531 -11.421875 7.507812 -11.425781 7.8125 -11.4375 C 8.113281 -11.457031 8.453125 -11.515625 8.828125 -11.609375 C 9.210938 -11.710938 9.519531 -11.851562 9.75 -12.03125 C 9.976562 -12.21875 10.175781 -12.484375 10.34375 -12.828125 C 10.507812 -13.179688 10.59375 -13.601562 10.59375 -14.09375 C 10.59375 -14.59375 10.507812 -15.015625 10.34375 -15.359375 C 10.175781 -15.710938 9.976562 -15.976562 9.75 -16.15625 C 9.519531 -16.34375 9.210938 -16.484375 8.828125 -16.578125 C 8.453125 -16.679688 8.113281 -16.742188 7.8125 -16.765625 C 7.507812 -16.785156 7.144531 -16.796875 6.71875 -16.796875 L 6.171875 -16.796875 Z M 6.171875 -11.421875 "/></g></g></g><g fill="#000000" fill-opacity="1"><g transform="translate(208.29327, 54.582443)"><g><path d="M 13.234375 -20.515625 L 13.234375 -16.421875 L 6.171875 -16.421875 L 6.171875 -12.34375 L 12.9375 -12.34375 L 12.9375 -8.234375 L 6.171875 -8.234375 L 6.171875 -4.109375 L 13.234375 -4.109375 L 13.234375 0 L 1.5 0 L 1.5 -20.515625 Z M 13.234375 -20.515625 "/></g></g></g><g fill="#000000" fill-opacity="1"><g transform="translate(222.715174, 54.582443)"><g><path d="M 9.046875 -20.890625 C 10.160156 -20.890625 11.25 -20.726562 12.3125 -20.40625 C 13.375 -20.082031 14.160156 -19.765625 14.671875 -19.453125 L 15.421875 -18.953125 L 13.53125 -15.21875 C 13.382812 -15.320312 13.175781 -15.453125 12.90625 -15.609375 C 12.644531 -15.765625 12.148438 -15.972656 11.421875 -16.234375 C 10.691406 -16.503906 10.007812 -16.640625 9.375 -16.640625 C 8.59375 -16.640625 7.988281 -16.472656 7.5625 -16.140625 C 7.144531 -15.804688 6.9375 -15.359375 6.9375 -14.796875 C 6.9375 -14.515625 7.035156 -14.253906 7.234375 -14.015625 C 7.429688 -13.773438 7.769531 -13.515625 8.25 -13.234375 C 8.738281 -12.960938 9.164062 -12.742188 9.53125 -12.578125 C 9.894531 -12.421875 10.457031 -12.175781 11.21875 -11.84375 C 12.539062 -11.28125 13.671875 -10.507812 14.609375 -9.53125 C 15.546875 -8.5625 16.015625 -7.46875 16.015625 -6.25 C 16.015625 -5.070312 15.800781 -4.039062 15.375 -3.15625 C 14.957031 -2.28125 14.378906 -1.59375 13.640625 -1.09375 C 12.898438 -0.59375 12.082031 -0.222656 11.1875 0.015625 C 10.289062 0.253906 9.320312 0.375 8.28125 0.375 C 7.382812 0.375 6.503906 0.28125 5.640625 0.09375 C 4.785156 -0.0820312 4.066406 -0.304688 3.484375 -0.578125 C 2.898438 -0.859375 2.375 -1.128906 1.90625 -1.390625 C 1.445312 -1.660156 1.109375 -1.882812 0.890625 -2.0625 L 0.578125 -2.34375 L 2.90625 -6.265625 C 3.101562 -6.097656 3.375 -5.882812 3.71875 -5.625 C 4.070312 -5.375 4.691406 -5.03125 5.578125 -4.59375 C 6.472656 -4.164062 7.257812 -3.953125 7.9375 -3.953125 C 9.90625 -3.953125 10.890625 -4.625 10.890625 -5.96875 C 10.890625 -6.25 10.816406 -6.507812 10.671875 -6.75 C 10.535156 -6.988281 10.289062 -7.226562 9.9375 -7.46875 C 9.582031 -7.707031 9.265625 -7.898438 8.984375 -8.046875 C 8.710938 -8.191406 8.265625 -8.40625 7.640625 -8.6875 C 7.023438 -8.976562 6.566406 -9.203125 6.265625 -9.359375 C 5.023438 -9.960938 4.0625 -10.722656 3.375 -11.640625 C 2.695312 -12.566406 2.359375 -13.5625 2.359375 -14.625 C 2.359375 -16.46875 3.035156 -17.972656 4.390625 -19.140625 C 5.753906 -20.304688 7.304688 -20.890625 9.046875 -20.890625 Z M 9.046875 -20.890625 "/></g></g></g></svg>