<svg xmlns="http://www.w3.org/2000/svg" xmlns:xlink="http://www.w3.org/1999/xlink" width="200" zoomAndPan="magnify" viewBox="0 0 150 38.999999" height="52" preserveAspectRatio="xMidYMid meet" version="1.0"><defs><g/><clipPath id="ddca61e878"><path d="M 1.769531 8.890625 L 17.519531 8.890625 L 17.519531 29.890625 L 1.769531 29.890625 Z M 1.769531 8.890625 " clip-rule="nonzero"/></clipPath><clipPath id="472936bee9"><path d="M 17.351562 11.777344 L 24.851562 11.777344 L 24.851562 29.777344 L 17.351562 29.777344 Z M 17.351562 11.777344 " clip-rule="nonzero"/></clipPath><clipPath id="52896f3563"><path d="M 26 9.148438 L 44.765625 9.148438 L 44.765625 30.148438 L 26 30.148438 Z M 26 9.148438 " clip-rule="nonzero"/></clipPath><clipPath id="2c6d23f83b"><path d="M 3 30.992188 L 44 30.992188 L 44 31.742188 L 3 31.742188 Z M 3 30.992188 " clip-rule="nonzero"/></clipPath><clipPath id="b69e64016e"><path d="M 3 7.453125 L 44 7.453125 L 44 8.203125 L 3 8.203125 Z M 3 7.453125 " clip-rule="nonzero"/></clipPath></defs><g clip-path="url(#ddca61e878)"><path fill="#0a9b31" d="M 12.679688 18.121094 C 12.644531 18.089844 12.644531 18.054688 12.679688 18.019531 C 14.769531 17.109375 16.105469 15.449219 16.105469 13.488281 C 16.105469 9.398438 12.371094 8.925781 10.453125 8.925781 C 7.8125 8.925781 7.433594 8.992188 5.789062 8.992188 C 4.351562 8.992188 3.527344 8.925781 2.121094 8.890625 C 2.019531 8.925781 2.019531 9.363281 2.121094 9.398438 C 2.671875 9.433594 3.597656 9.535156 4.074219 9.703125 C 4.496094 9.839844 4.730469 10.097656 4.839844 10.683594 L 7.113281 11.761719 C 7.117188 11.613281 7.121094 10.429688 7.125 10.378906 C 7.125 10.175781 7.230469 9.871094 7.398438 9.804688 C 7.570312 9.734375 8.050781 9.667969 8.667969 9.667969 C 12.234375 9.667969 13.84375 11.222656 13.84375 14.199219 C 13.84375 15.550781 13.398438 16.804688 12.300781 17.546875 C 11.855469 17.851562 11.203125 18.054688 8.875 18.054688 C 8.714844 18.054688 8.644531 18.054688 8.515625 18.050781 C 8.589844 18.238281 8.640625 18.59375 8.675781 18.765625 C 12.507812 18.769531 15.144531 20.558594 15.144531 24.175781 C 15.144531 27.386719 13.773438 29.042969 10.382812 29.042969 C 9.664062 29.042969 8.136719 28.871094 7.457031 28.578125 C 6.867188 28.320312 5.949219 27.65625 5.933594 26.367188 C 5.933594 26.289062 5.765625 26.296875 5.765625 26.296875 C 5.476562 28.589844 4.546875 28.886719 3.902344 29.042969 C 3.285156 29.214844 2.53125 29.246094 1.882812 29.316406 C 1.777344 29.347656 1.777344 29.753906 1.882812 29.824219 C 4.074219 29.722656 6.953125 29.890625 8.496094 29.890625 C 10.039062 29.890625 11.785156 29.824219 13.328125 29.179688 C 15.933594 28.132812 17.511719 26.070312 17.511719 23.363281 C 17.511719 20.421875 15.386719 18.765625 12.679688 18.121094 Z M 12.679688 18.121094 " fill-opacity="1" fill-rule="nonzero"/></g><path fill="#0a9b31" d="M 8.4375 18.613281 C 8.417969 18.441406 8.386719 18.273438 8.359375 18.105469 C 8.316406 17.808594 8.300781 17.511719 8.320312 17.214844 C 8.324219 17.148438 8.332031 17.082031 8.292969 17.019531 C 8.273438 16.980469 8.21875 16.960938 8.179688 16.984375 C 8.152344 17 8.128906 17.019531 8.105469 17.039062 C 7.96875 17.167969 7.847656 17.304688 7.753906 17.46875 C 7.621094 17.695312 7.492188 17.925781 7.359375 18.148438 C 7.203125 18.414062 7.109375 18.699219 7.050781 19.003906 C 6.988281 19.347656 6.984375 19.699219 6.964844 20.046875 C 6.964844 20.089844 6.957031 20.136719 6.953125 20.179688 C 6.949219 20.285156 6.988281 20.390625 6.941406 20.492188 C 6.949219 20.695312 6.945312 20.894531 6.914062 21.09375 C 6.9375 21.109375 6.941406 21.136719 6.933594 21.164062 C 6.9375 21.414062 6.9375 21.664062 6.941406 21.917969 C 6.941406 21.964844 6.925781 22.003906 6.90625 22.042969 C 6.785156 22.304688 6.746094 22.585938 6.6875 22.859375 C 6.625 23.128906 6.558594 23.394531 6.457031 23.648438 C 6.460938 23.765625 6.421875 23.875 6.371094 24.015625 C 6.324219 23.863281 6.367188 23.753906 6.382812 23.644531 C 6.390625 23.46875 6.394531 23.289062 6.417969 23.113281 C 6.472656 22.65625 6.488281 22.195312 6.488281 21.734375 C 6.488281 21.390625 6.492188 21.050781 6.46875 20.710938 C 6.453125 20.496094 6.445312 20.28125 6.421875 20.066406 C 6.402344 19.914062 6.425781 19.769531 6.445312 19.621094 C 6.484375 19.328125 6.519531 19.03125 6.566406 18.738281 C 6.621094 18.394531 6.652344 18.050781 6.675781 17.703125 C 6.675781 17.703125 6.675781 17.707031 6.675781 17.707031 C 6.78125 17.457031 6.902344 17.144531 7.007812 16.898438 C 7.109375 16.65625 7.222656 16.414062 7.402344 16.210938 C 7.441406 16.171875 7.464844 16.140625 7.523438 16.144531 C 7.671875 16.15625 7.792969 16.089844 7.890625 15.992188 C 8.003906 15.882812 8.0625 15.746094 8.03125 15.582031 C 8.011719 15.464844 7.953125 15.40625 7.832031 15.394531 C 7.644531 15.371094 7.511719 15.460938 7.40625 15.601562 C 7.363281 15.664062 7.328125 15.738281 7.292969 15.808594 C 7.253906 15.894531 7.222656 15.980469 7.261719 16.078125 C 7.285156 16.144531 7.261719 16.199219 7.226562 16.257812 C 7.105469 16.460938 6.992188 16.667969 6.875 16.875 C 6.871094 16.917969 6.855469 16.960938 6.824219 16.992188 C 6.792969 17.070312 6.757812 17.152344 6.722656 17.230469 C 6.71875 17.238281 6.714844 17.25 6.710938 17.257812 C 6.726562 17.09375 6.738281 16.929688 6.753906 16.765625 C 6.753906 16.738281 6.765625 16.707031 6.769531 16.679688 C 6.773438 16.632812 6.777344 16.589844 6.78125 16.542969 C 6.785156 16.457031 6.785156 16.367188 6.789062 16.277344 C 6.785156 16.25 6.785156 16.074219 6.785156 15.875 C 6.792969 15.855469 6.804688 15.835938 6.816406 15.816406 C 6.84375 15.757812 6.875 15.707031 6.898438 15.644531 C 6.9375 15.53125 6.964844 15.410156 6.992188 15.296875 C 6.996094 15.285156 6.996094 15.277344 7 15.265625 C 7.109375 14.875 7.15625 14.464844 7.136719 14.058594 C 7.117188 13.652344 7.039062 13.246094 6.894531 12.863281 C 6.832031 12.6875 6.753906 12.519531 6.671875 12.351562 C 6.628906 12.265625 6.585938 12.171875 6.550781 12.082031 C 6.535156 12.039062 6.503906 11.929688 6.445312 11.929688 C 6.398438 11.929688 6.351562 12.027344 6.332031 12.0625 C 6.273438 12.171875 6.246094 12.289062 6.199219 12.402344 C 6.128906 12.585938 6.066406 12.769531 6.015625 12.957031 C 5.914062 13.328125 5.855469 13.714844 5.847656 14.101562 C 5.84375 14.414062 5.9375 14.714844 6.074219 14.992188 C 6.140625 15.125 6.214844 15.253906 6.296875 15.378906 C 6.335938 15.4375 6.367188 15.5 6.414062 15.554688 C 6.464844 15.617188 6.515625 15.679688 6.5625 15.75 C 6.609375 15.816406 6.644531 15.890625 6.667969 15.964844 C 6.664062 16.011719 6.664062 16.058594 6.660156 16.105469 C 6.636719 16.664062 6.601562 17.21875 6.578125 17.777344 C 6.566406 18.15625 6.527344 18.535156 6.464844 18.90625 C 6.460938 18.9375 6.445312 18.964844 6.4375 18.992188 C 6.433594 19.035156 6.429688 19.078125 6.425781 19.121094 C 6.417969 19.164062 6.429688 19.21875 6.375 19.265625 C 6.328125 19.167969 6.335938 19.078125 6.320312 18.996094 C 6.296875 18.984375 6.277344 18.972656 6.296875 18.941406 C 6.285156 18.644531 6.234375 18.351562 6.183594 18.058594 C 6.128906 17.769531 6.074219 17.476562 6.019531 17.1875 C 6.007812 17.128906 6 17.070312 5.984375 17.011719 C 5.925781 16.796875 5.867188 16.585938 5.808594 16.371094 C 5.746094 16.140625 5.65625 15.921875 5.550781 15.707031 C 5.441406 15.496094 5.386719 15.265625 5.316406 15.035156 C 5.308594 15.011719 5.320312 14.976562 5.324219 14.949219 C 5.316406 14.933594 5.316406 14.921875 5.324219 14.90625 C 5.308594 14.863281 5.304688 14.816406 5.320312 14.769531 C 5.320312 14.726562 5.320312 14.679688 5.320312 14.636719 C 5.324219 14.449219 5.324219 14.265625 5.328125 14.078125 C 5.328125 14.050781 5.3125 13.609375 5.300781 13.453125 C 5.28125 13.027344 5.148438 12.640625 4.90625 12.285156 C 4.820312 12.160156 4.722656 12.050781 4.597656 11.960938 C 4.410156 11.824219 4.257812 11.648438 4.097656 11.480469 C 3.96875 11.34375 3.84375 11.203125 3.71875 11.066406 C 3.691406 11.042969 3.660156 11.023438 3.625 11.003906 C 3.605469 10.996094 3.582031 11 3.570312 11.023438 C 3.539062 11.066406 3.535156 11.121094 3.53125 11.171875 C 3.503906 11.460938 3.519531 11.75 3.542969 12.039062 C 3.558594 12.210938 3.578125 12.378906 3.605469 12.546875 C 3.671875 12.992188 3.847656 13.402344 4.019531 13.816406 C 4.070312 13.9375 4.148438 14.035156 4.230469 14.128906 C 4.488281 14.421875 4.761719 14.699219 5 15.007812 C 5.011719 15.023438 5.023438 15.046875 5.039062 15.058594 C 5.199219 15.148438 5.242188 15.304688 5.296875 15.460938 C 5.335938 15.574219 5.382812 15.683594 5.46875 15.773438 C 5.523438 15.828125 5.542969 15.902344 5.570312 15.972656 C 5.738281 16.394531 5.835938 16.839844 5.914062 17.285156 C 5.960938 17.542969 6.003906 17.796875 6.046875 18.054688 C 6.054688 18.113281 6.054688 18.171875 6.058594 18.230469 C 6.082031 18.25 6.085938 18.273438 6.078125 18.300781 C 6.125 18.433594 6.125 18.578125 6.140625 18.714844 C 6.191406 19.214844 6.234375 19.714844 6.28125 20.214844 C 6.289062 20.296875 6.285156 20.378906 6.285156 20.460938 C 6.292969 20.5625 6.296875 20.664062 6.300781 20.761719 C 6.304688 20.785156 6.292969 20.804688 6.265625 20.800781 C 6.253906 20.800781 6.242188 20.785156 6.238281 20.773438 C 6.210938 20.652344 6.1875 20.53125 6.164062 20.410156 C 6.066406 20.160156 5.960938 19.914062 5.875 19.660156 C 5.804688 19.457031 5.707031 19.261719 5.582031 19.089844 C 5.34375 18.765625 5.183594 18.410156 5.011719 18.054688 C 4.910156 17.839844 4.816406 17.621094 4.71875 17.40625 C 4.675781 17.316406 4.636719 17.226562 4.578125 17.152344 C 4.386719 16.910156 4.316406 16.621094 4.210938 16.34375 C 4.191406 16.289062 4.21875 16.242188 4.230469 16.191406 C 4.257812 16.011719 4.226562 15.839844 4.109375 15.6875 C 4.050781 15.617188 3.980469 15.589844 3.890625 15.597656 C 3.746094 15.609375 3.628906 15.679688 3.546875 15.789062 C 3.445312 15.917969 3.480469 16.054688 3.558594 16.183594 C 3.636719 16.3125 3.738281 16.421875 3.871094 16.496094 C 3.902344 16.5 3.929688 16.5 3.960938 16.5 C 3.992188 16.484375 4.027344 16.464844 4.058594 16.449219 C 4.097656 16.425781 4.132812 16.425781 4.148438 16.472656 C 4.179688 16.546875 4.214844 16.625 4.230469 16.703125 C 4.261719 16.859375 4.332031 16.996094 4.417969 17.128906 C 4.539062 17.320312 4.628906 17.523438 4.71875 17.730469 C 4.945312 18.261719 5.183594 18.792969 5.523438 19.269531 C 5.621094 19.40625 5.695312 19.5625 5.75 19.726562 C 5.832031 19.984375 5.960938 20.222656 6.03125 20.480469 C 6.121094 20.796875 6.21875 21.109375 6.300781 21.425781 C 6.34375 21.605469 6.324219 21.796875 6.320312 21.980469 C 6.289062 22.679688 6.253906 23.378906 6.15625 24.074219 C 6.113281 24.390625 6.070312 24.707031 5.980469 25.015625 C 5.972656 25.074219 5.96875 25.132812 5.960938 25.191406 C 5.953125 25.222656 5.945312 25.261719 5.886719 25.257812 C 5.878906 25.195312 5.867188 25.132812 5.859375 25.066406 C 5.804688 24.835938 5.808594 24.59375 5.765625 24.363281 C 5.683594 23.886719 5.632812 23.40625 5.472656 22.945312 C 5.457031 22.90625 5.457031 22.859375 5.453125 22.8125 C 5.429688 22.796875 5.425781 22.777344 5.429688 22.753906 C 5.425781 22.648438 5.421875 22.542969 5.417969 22.441406 C 5.410156 22.144531 5.359375 21.851562 5.34375 21.554688 C 5.324219 21.171875 5.246094 20.804688 5.167969 20.433594 C 5.085938 20.035156 4.898438 19.675781 4.691406 19.328125 C 4.65625 19.265625 4.601562 19.210938 4.546875 19.160156 C 4.316406 18.9375 4.132812 18.6875 3.992188 18.40625 C 3.882812 18.191406 3.734375 18 3.648438 17.777344 C 3.636719 17.75 3.617188 17.722656 3.582031 17.722656 C 3.535156 17.726562 3.523438 17.765625 3.507812 17.796875 C 3.5 17.816406 3.5 17.839844 3.5 17.863281 C 3.488281 17.976562 3.480469 18.085938 3.472656 18.199219 C 3.46875 18.265625 3.460938 18.332031 3.457031 18.398438 C 3.472656 18.425781 3.472656 18.457031 3.453125 18.488281 C 3.445312 18.714844 3.4375 18.945312 3.429688 19.175781 C 3.421875 19.339844 3.449219 19.503906 3.480469 19.664062 C 3.546875 20.015625 3.664062 20.351562 3.78125 20.6875 C 3.855469 20.902344 3.976562 21.089844 4.105469 21.273438 C 4.210938 21.425781 4.3125 21.582031 4.402344 21.746094 C 4.457031 21.84375 4.515625 21.945312 4.59375 22.019531 C 4.765625 22.183594 4.871094 22.390625 4.996094 22.585938 C 5.078125 22.710938 5.144531 22.84375 5.238281 22.960938 C 5.363281 23.109375 5.417969 23.285156 5.457031 23.46875 C 5.511719 23.738281 5.570312 24.007812 5.613281 24.277344 C 5.65625 24.550781 5.664062 24.828125 5.71875 25.097656 C 5.78125 25.414062 5.816406 25.792969 5.761719 26.316406 C 5.746094 26.480469 5.738281 26.484375 5.714844 26.648438 C 5.648438 27.066406 5.609375 27.488281 5.542969 27.90625 C 5.539062 27.941406 5.535156 27.980469 5.558594 28.011719 C 5.578125 28.035156 5.609375 28.042969 5.640625 28.046875 C 5.65625 28.050781 5.679688 28.054688 5.695312 28.050781 C 5.738281 28.035156 5.722656 27.984375 5.726562 27.949219 C 5.726562 27.902344 5.757812 27.824219 5.753906 27.78125 C 5.742188 27.722656 5.742188 27.660156 5.761719 27.601562 C 5.761719 27.289062 5.828125 26.984375 5.875 26.675781 C 5.894531 26.53125 5.9375 26.59375 5.933594 26.449219 C 5.933594 26.339844 6.082031 25.457031 6.09375 25.402344 C 6.121094 25.253906 6.160156 25.109375 6.183594 24.964844 C 6.234375 24.660156 6.324219 24.371094 6.4375 24.085938 C 6.546875 23.816406 6.613281 23.53125 6.703125 23.257812 C 6.792969 22.996094 6.839844 22.722656 6.910156 22.457031 C 6.929688 22.378906 6.957031 22.300781 6.988281 22.226562 C 7.03125 22.121094 7.078125 22.023438 7.097656 21.910156 C 7.121094 21.757812 7.230469 21.644531 7.324219 21.53125 C 7.398438 21.445312 7.484375 21.371094 7.566406 21.296875 C 7.710938 21.164062 7.820312 21.003906 7.929688 20.84375 C 8.175781 20.488281 8.359375 20.109375 8.425781 19.683594 C 8.484375 19.324219 8.484375 18.96875 8.4375 18.613281 Z M 8.4375 18.613281 " fill-opacity="1" fill-rule="nonzero"/><g clip-path="url(#472936bee9)"><path fill="#0a9b31" d="M 17.363281 18.054688 L 23.449219 18.054688 L 23.449219 29.332031 L 24.839844 29.332031 L 24.839844 29.777344 L 17.460938 29.777344 L 17.460938 29.332031 L 18.828125 29.332031 L 18.828125 18.496094 L 17.363281 18.496094 Z M 21.113281 16.355469 C 20.234375 16.355469 19.609375 16.132812 19.234375 15.691406 C 18.859375 15.25 18.679688 14.699219 18.679688 14.042969 C 18.679688 13.386719 18.878906 12.847656 19.289062 12.417969 C 19.695312 11.988281 20.3125 11.777344 21.140625 11.777344 C 21.972656 11.777344 22.597656 11.96875 23.03125 12.355469 C 23.460938 12.738281 23.675781 13.289062 23.675781 14.003906 C 23.675781 14.722656 23.46875 15.292969 23.054688 15.71875 C 22.640625 16.140625 21.992188 16.355469 21.113281 16.355469 Z M 21.113281 16.355469 " fill-opacity="1" fill-rule="nonzero"/></g><path fill="#0a9b31" d="M 28.125 16.105469 C 28.097656 16.058594 28.070312 16.007812 28.0625 15.996094 C 27.984375 15.804688 27.929688 15.597656 27.90625 15.390625 C 27.84375 14.828125 27.964844 14.308594 28.199219 13.792969 C 28.269531 13.636719 28.347656 13.484375 28.421875 13.328125 C 28.429688 13.3125 28.46875 13.199219 28.496094 13.195312 C 28.519531 13.195312 28.527344 13.363281 28.527344 13.375 C 28.546875 13.585938 28.574219 13.796875 28.609375 14.003906 C 28.710938 14.578125 28.796875 15.175781 28.65625 15.753906 C 28.605469 15.953125 28.515625 16.21875 28.316406 16.328125 C 28.164062 17.382812 27.660156 18.328125 27.300781 19.324219 C 27.351562 19.238281 27.402344 19.152344 27.457031 19.066406 C 27.9375 18.320312 28.597656 17.765625 29.40625 17.390625 C 29.582031 17.3125 29.757812 17.234375 29.9375 17.164062 C 29.960938 17.15625 30.085938 17.089844 30.105469 17.109375 C 30.132812 17.140625 30.023438 17.316406 30.011719 17.34375 C 29.886719 17.597656 29.757812 17.84375 29.636719 18.09375 C 29.246094 18.902344 28.566406 19.503906 27.789062 19.949219 C 27.597656 20.0625 27.277344 20.277344 27.023438 20.289062 C 26.828125 21.21875 26.84375 22.15625 27.019531 23.085938 C 27.027344 22.957031 27.042969 22.832031 27.054688 22.703125 C 27.113281 22.171875 27.21875 21.472656 27.574219 21.019531 C 27.546875 20.992188 27.527344 20.960938 27.507812 20.921875 C 27.4375 20.757812 27.519531 20.566406 27.6875 20.492188 C 27.855469 20.421875 28.054688 20.496094 28.125 20.664062 C 28.195312 20.828125 28.117188 21.019531 27.945312 21.09375 C 27.890625 21.117188 27.832031 21.125 27.773438 21.117188 C 27.417969 21.535156 27.328125 22.214844 27.273438 22.726562 C 27.265625 22.792969 27.257812 22.863281 27.253906 22.929688 C 27.410156 22.269531 27.691406 21.621094 28.140625 21.097656 C 28.203125 21.027344 28.539062 20.589844 28.667969 20.632812 C 28.703125 20.640625 28.65625 20.820312 28.652344 20.84375 C 28.617188 21.078125 28.605469 21.316406 28.601562 21.550781 C 28.578125 22.367188 28.359375 23.050781 27.835938 23.710938 C 27.6875 23.902344 27.453125 24.023438 27.300781 24.203125 C 27.433594 24.65625 27.578125 25.101562 27.714844 25.550781 C 27.734375 25.488281 27.757812 25.421875 27.78125 25.359375 C 27.917969 24.976562 28.101562 24.617188 28.359375 24.296875 C 28.363281 24.289062 28.371094 24.28125 28.378906 24.277344 C 28.371094 24.265625 28.367188 24.257812 28.363281 24.246094 C 28.292969 24.082031 28.371094 23.890625 28.542969 23.816406 C 28.710938 23.746094 28.90625 23.820312 28.976562 23.988281 C 29.050781 24.152344 28.96875 24.34375 28.800781 24.417969 C 28.710938 24.453125 28.617188 24.453125 28.535156 24.417969 C 28.535156 24.421875 28.53125 24.421875 28.53125 24.425781 C 28.289062 24.730469 28.117188 25.070312 27.988281 25.429688 C 27.941406 25.554688 27.898438 25.683594 27.859375 25.808594 C 27.851562 25.828125 27.855469 25.855469 27.855469 25.882812 C 27.851562 25.921875 27.847656 25.957031 27.839844 25.980469 L 27.839844 25.984375 C 27.960938 26.414062 28.070312 26.851562 28.148438 27.296875 C 28.195312 27.574219 27.976562 27.605469 27.929688 27.332031 C 27.863281 26.941406 27.769531 26.554688 27.664062 26.175781 C 27.605469 26.125 27.539062 26.074219 27.535156 26.070312 C 27.25 25.867188 26.917969 25.710938 26.59375 25.585938 C 25.835938 25.285156 25.300781 24.851562 25.054688 24.0625 C 25.015625 23.941406 24.84375 23.5 24.933594 23.371094 C 24.941406 23.363281 25.097656 23.488281 25.109375 23.496094 C 25.308594 23.640625 25.503906 23.789062 25.699219 23.941406 C 26.144531 24.289062 26.566406 24.648438 26.988281 25.023438 C 27.15625 25.171875 27.320312 25.304688 27.457031 25.460938 C 27.296875 24.9375 27.128906 24.414062 26.980469 23.886719 C 26.820312 23.308594 26.71875 22.722656 26.679688 22.140625 C 26.617188 22.125 26.503906 22.117188 26.464844 22.101562 C 26.269531 22.035156 26.085938 21.945312 25.910156 21.84375 C 25.164062 21.398438 24.652344 20.652344 24.398438 19.84375 C 24.316406 19.578125 24.246094 19.308594 24.207031 19.035156 C 24.199219 19 24.15625 18.820312 24.210938 18.792969 C 24.238281 18.78125 24.351562 18.964844 24.363281 18.984375 C 24.519531 19.183594 24.710938 19.351562 24.890625 19.53125 C 25.457031 20.097656 26.03125 20.695312 26.453125 21.378906 C 26.421875 21.238281 26.390625 21.097656 26.355469 20.957031 C 26.195312 20.324219 26.011719 19.714844 25.628906 19.175781 C 25.628906 19.171875 25.628906 19.171875 25.628906 19.167969 C 25.46875 19.214844 25.296875 19.136719 25.230469 18.984375 C 25.160156 18.820312 25.238281 18.628906 25.410156 18.554688 C 25.578125 18.484375 25.773438 18.558594 25.84375 18.726562 C 25.890625 18.835938 25.875 18.957031 25.808594 19.046875 C 25.808594 19.046875 25.808594 19.050781 25.8125 19.050781 C 26.207031 19.613281 26.402344 20.242188 26.566406 20.902344 C 26.605469 21.050781 26.636719 21.199219 26.671875 21.347656 C 26.691406 20.832031 26.773438 20.320312 26.917969 19.808594 C 27.03125 19.40625 27.183594 19.019531 27.339844 18.632812 C 27.335938 18.605469 27.335938 18.539062 27.328125 18.511719 C 27.300781 18.421875 27.269531 18.332031 27.230469 18.246094 C 27.121094 18.003906 26.972656 17.773438 26.828125 17.550781 C 26.347656 16.816406 26.007812 16.152344 25.964844 15.253906 C 25.953125 15.054688 25.953125 14.847656 25.980469 14.644531 C 25.984375 14.621094 25.992188 14.464844 26.023438 14.453125 C 26.035156 14.449219 26.15625 14.664062 26.164062 14.675781 C 26.320312 14.914062 26.492188 15.144531 26.660156 15.371094 C 27.046875 15.902344 27.199219 16.488281 27.347656 17.117188 C 27.386719 17.292969 27.429688 17.457031 27.464844 17.617188 C 27.480469 17.453125 27.496094 17.285156 27.5 17.121094 C 27.515625 16.433594 27.464844 15.75 27.265625 15.09375 C 27.140625 15.089844 27.019531 15.015625 26.96875 14.894531 C 26.898438 14.730469 26.976562 14.539062 27.148438 14.464844 C 27.316406 14.394531 27.511719 14.46875 27.582031 14.636719 C 27.644531 14.777344 27.59375 14.9375 27.476562 15.023438 C 27.679688 15.707031 27.738281 16.414062 27.71875 17.125 C 27.710938 17.367188 27.6875 17.609375 27.65625 17.851562 C 27.875 17.289062 28.0625 16.71875 28.125 16.105469 Z M 27.15625 23.429688 C 27.15625 23.429688 27.152344 23.429688 27.152344 23.429688 C 27.152344 23.429688 27.15625 23.429688 27.15625 23.429688 Z M 27.15625 23.429688 " fill-opacity="1" fill-rule="evenodd"/><g clip-path="url(#52896f3563)"><path fill="#0a9b31" d="M 29.828125 26.714844 L 26.242188 26.714844 C 26.8125 27.359375 27.464844 27.910156 28.207031 28.363281 C 29.25 29.03125 30.363281 29.496094 31.550781 29.757812 C 32.695312 30.023438 33.859375 30.152344 35.046875 30.152344 C 36.316406 30.152344 37.6875 29.929688 39.15625 29.488281 C 40.730469 29 41.796875 28.585938 42.347656 28.242188 L 42.59375 27.9375 L 42.59375 21.960938 C 42.59375 21.109375 42.726562 20.492188 42.992188 20.109375 C 43.238281 19.726562 43.820312 19.53125 44.742188 19.53125 L 44.742188 18.988281 L 36.949219 18.988281 L 36.949219 19.53125 C 37.726562 19.53125 38.328125 19.625 38.757812 19.804688 C 39.1875 20.007812 39.445312 20.292969 39.527344 20.65625 C 39.605469 21 39.648438 21.574219 39.648438 22.386719 L 39.648438 27.300781 C 39.648438 27.503906 39.445312 27.746094 39.035156 28.03125 C 38.644531 28.292969 38.113281 28.503906 37.441406 28.667969 C 37.359375 28.6875 37.226562 28.71875 37.042969 28.757812 C 36.898438 28.820312 36.773438 28.859375 36.671875 28.878906 C 36.34375 28.941406 35.875 28.96875 35.261719 28.96875 C 34.199219 28.96875 33.265625 28.808594 32.46875 28.484375 C 31.609375 28.160156 30.863281 27.707031 30.230469 27.121094 C 30.089844 26.992188 29.957031 26.855469 29.828125 26.714844 Z M 26.148438 13.097656 L 29.4375 13.097656 C 29.5625 12.929688 29.695312 12.765625 29.832031 12.613281 C 30.425781 11.945312 31.203125 11.410156 32.164062 11.003906 C 33.144531 10.601562 34.066406 10.398438 34.925781 10.398438 C 38.195312 10.398438 40.425781 12.136719 41.613281 15.617188 L 42.347656 15.617188 L 42.101562 9.15625 L 41.398438 9.15625 C 41.171875 9.761719 40.710938 10.117188 40.015625 10.214844 L 39.648438 10.15625 C 39.648438 10.15625 39.578125 10.136719 39.433594 10.09375 C 39.332031 10.074219 39.230469 10.054688 39.125 10.035156 C 38.863281 9.972656 38.574219 9.894531 38.269531 9.792969 C 38.042969 9.710938 37.738281 9.621094 37.347656 9.519531 L 37.285156 9.488281 L 37.164062 9.488281 L 36.824219 9.398438 C 36.640625 9.355469 36.53125 9.335938 36.488281 9.335938 C 35.875 9.214844 35.230469 9.15625 34.554688 9.15625 C 34.269531 9.15625 33.859375 9.175781 33.328125 9.214844 C 33.003906 9.253906 32.367188 9.375 31.425781 9.578125 C 30.507812 9.800781 29.554688 10.238281 28.574219 10.882812 C 27.597656 11.523438 26.789062 12.261719 26.148438 13.097656 Z M 26.148438 13.097656 " fill-opacity="1" fill-rule="nonzero"/></g><g clip-path="url(#2c6d23f83b)"><path fill="#0a9b31" d="M 43.136719 31.734375 L 3.152344 31.734375 L 3.152344 30.988281 L 43.136719 30.988281 L 43.136719 31.734375 " fill-opacity="1" fill-rule="nonzero"/></g><g clip-path="url(#b69e64016e)"><path fill="#0a9b31" d="M 43.136719 8.199219 L 3.152344 8.199219 L 3.152344 7.449219 L 43.136719 7.449219 L 43.136719 8.199219 " fill-opacity="1" fill-rule="nonzero"/></g><g fill="#0a9b31" fill-opacity="1"><g transform="translate(44.768554, 28.625263)"><g><path d="M 4.28125 0 L 1.875 0 L 1.875 -18.6875 L 4.28125 -18.6875 L 10.78125 -7.3125 L 10.890625 -7.3125 L 17.390625 -18.6875 L 19.796875 -18.6875 L 19.796875 0 L 17.390625 0 L 17.390625 -11.09375 L 17.5 -14.234375 L 17.390625 -14.234375 L 11.546875 -3.96875 L 10.125 -3.96875 L 4.28125 -14.234375 L 4.171875 -14.234375 L 4.28125 -11.09375 Z M 4.28125 0 "/></g></g></g><g fill="#0a9b31" fill-opacity="1"><g transform="translate(66.444367, 28.625263)"><g><path d="M 8.671875 -15.75 L 5.609375 -7.3125 L 11.828125 -7.3125 L 8.765625 -15.75 Z M 2.96875 0 L 0.3125 0 L 7.359375 -18.6875 L 10.078125 -18.6875 L 17.125 0 L 14.46875 0 L 12.65625 -5.0625 L 4.796875 -5.0625 Z M 2.96875 0 "/></g></g></g><g fill="#0a9b31" fill-opacity="1"><g transform="translate(83.889478, 28.625263)"><g><path d="M 4.28125 0 L 1.875 0 L 1.875 -18.6875 L 4.796875 -18.6875 L 13.890625 -4.15625 L 14 -4.15625 L 13.890625 -7.75 L 13.890625 -18.6875 L 16.296875 -18.6875 L 16.296875 0 L 13.78125 0 L 4.28125 -15.25 L 4.171875 -15.25 L 4.28125 -11.640625 Z M 4.28125 0 "/></g></g></g><g fill="#0a9b31" fill-opacity="1"><g transform="translate(102.065823, 28.625263)"><g><path d="M 8.375 0.421875 C 6.3125 0.421875 4.644531 -0.257812 3.375 -1.625 C 2.101562 -2.957031 1.46875 -4.726562 1.46875 -6.9375 L 1.46875 -18.6875 L 3.859375 -18.6875 L 3.859375 -6.84375 C 3.859375 -5.3125 4.257812 -4.097656 5.0625 -3.203125 C 5.863281 -2.316406 6.96875 -1.875 8.375 -1.875 C 9.789062 -1.875 10.894531 -2.316406 11.6875 -3.203125 C 12.488281 -4.097656 12.890625 -5.3125 12.890625 -6.84375 L 12.890625 -18.6875 L 15.296875 -18.6875 L 15.296875 -6.9375 C 15.296875 -4.675781 14.671875 -2.882812 13.421875 -1.5625 C 12.171875 -0.238281 10.488281 0.421875 8.375 0.421875 Z M 8.375 0.421875 "/></g></g></g><g fill="#0a9b31" fill-opacity="1"><g transform="translate(118.831932, 28.625263)"><g><path d="M 4.28125 -16.390625 L 4.28125 -9.8125 L 8.140625 -9.8125 C 9.117188 -9.8125 9.945312 -10.128906 10.625 -10.765625 C 11.300781 -11.398438 11.640625 -12.191406 11.640625 -13.140625 C 11.640625 -14.003906 11.320312 -14.757812 10.6875 -15.40625 C 10.050781 -16.0625 9.253906 -16.390625 8.296875 -16.390625 Z M 4.28125 0 L 1.875 0 L 1.875 -18.6875 L 8.25 -18.6875 C 9.863281 -18.6875 11.238281 -18.148438 12.375 -17.078125 C 13.519531 -16.015625 14.09375 -14.703125 14.09375 -13.140625 C 14.09375 -11.847656 13.671875 -10.703125 12.828125 -9.703125 C 11.984375 -8.703125 10.921875 -8.0625 9.640625 -7.78125 L 9.578125 -7.703125 L 14.828125 -0.109375 L 14.828125 0 L 11.984375 0 L 6.9375 -7.578125 L 4.28125 -7.578125 Z M 4.28125 0 "/></g></g></g><g fill="#0a9b31" fill-opacity="1"><g transform="translate(133.926653, 28.625263)"><g><path d="M 12.796875 -18.6875 L 12.796875 -16.390625 L 4.28125 -16.390625 L 4.28125 -10.46875 L 11.953125 -10.46875 L 11.953125 -8.21875 L 4.28125 -8.21875 L 4.28125 -2.296875 L 12.796875 -2.296875 L 12.796875 0 L 1.875 0 L 1.875 -18.6875 Z M 12.796875 -18.6875 "/></g></g></g></svg>