<svg xmlns="http://www.w3.org/2000/svg" xmlns:xlink="http://www.w3.org/1999/xlink" width="150" zoomAndPan="magnify" viewBox="0 0 112.5 112.499997" height="150" preserveAspectRatio="xMidYMid meet" version="1.0"><defs><clipPath id="id1"><path d="M 12 34.101562 L 22 34.101562 L 22 70 L 12 70 Z M 12 34.101562 " clip-rule="nonzero"/></clipPath><clipPath id="id2"><path d="M 3.238281 34.101562 L 13 34.101562 L 13 70 L 3.238281 70 Z M 3.238281 34.101562 " clip-rule="nonzero"/></clipPath><clipPath id="id3"><path d="M 11 64 L 15 64 L 15 74.601562 L 11 74.601562 Z M 11 64 " clip-rule="nonzero"/></clipPath><clipPath id="id4"><path d="M 84 52 L 108.988281 52 L 108.988281 66 L 84 66 Z M 84 52 " clip-rule="nonzero"/></clipPath></defs><g clip-path="url(#id1)"><path fill="#599636" d="M 12.460938 34.253906 L 13.546875 36.285156 C 13.785156 36.652344 14.058594 36.992188 14.371094 37.300781 C 15.277344 38.203125 16.144531 39.152344 16.921875 40.167969 C 18.761719 42.570312 20.003906 45.238281 20.894531 48.128906 C 21.425781 49.890625 21.714844 51.699219 21.734375 53.53125 C 21.824219 59 19.9375 63.695312 16.121094 67.597656 C 15.5 68.21875 14.835938 68.785156 14.125 69.296875 C 13.746094 69.296875 13.570312 69 13.414062 68.746094 C 13.113281 68.25 12.949219 67.710938 12.859375 67.160156 C 12.726562 66.496094 12.636719 65.835938 12.679688 65.152344 L 12.679688 64.84375 C 12.660156 64.777344 12.328125 34.410156 12.457031 34.257812 Z M 12.460938 34.253906 " fill-opacity="1" fill-rule="nonzero"/></g><g clip-path="url(#id2)"><path fill="#6cac48" d="M 12.460938 34.191406 C 12.417969 34.101562 12.371094 34.167969 12.328125 34.210938 C 12.351562 34.652344 12.195312 35.050781 11.949219 35.425781 C 11.683594 35.800781 11.328125 36.085938 10.972656 36.394531 C 8.996094 38.09375 7.445312 40.144531 6.203125 42.4375 C 4.558594 45.527344 3.695312 48.832031 3.449219 52.316406 C 3.339844 53.574219 3.851562 58.007812 4.25 59.285156 C 5.335938 62.683594 7.289062 65.527344 9.832031 67.996094 C 10.453125 68.589844 11.117188 69.140625 11.804688 69.671875 C 12.003906 69.671875 12.027344 69.496094 12.074219 69.363281 C 12.160156 69.082031 12.226562 68.792969 12.273438 68.5 C 12.472656 67.398438 12.582031 66.296875 12.714844 65.195312 L 12.472656 34.191406 Z M 12.460938 34.191406 " fill-opacity="1" fill-rule="nonzero"/></g><g clip-path="url(#id3)"><path fill="#c2bfbf" d="M 13.550781 70.640625 C 13.597656 70.136719 13.851562 69.714844 14.105469 69.296875 C 13.839844 69.1875 13.640625 68.96875 13.484375 68.722656 C 13.351562 68.503906 13.242188 68.226562 13.152344 67.996094 C 12.839844 67.070312 12.773438 66.097656 12.683594 65.152344 L 12.683594 64.578125 C 12.574219 64.664062 12.550781 65.414062 12.550781 65.523438 C 12.484375 66.539062 12.351562 67.53125 12.152344 68.5 C 12.085938 68.898438 12.042969 69.296875 11.796875 69.648438 C 11.796875 69.691406 11.796875 69.738281 11.820312 69.800781 C 12.21875 70.972656 12.332031 72.164062 12.398438 73.375 L 12.398438 73.816406 C 12.398438 74.34375 12.375 74.234375 12.820312 74.410156 C 12.996094 74.476562 13.199219 74.5 13.375 74.632812 C 13.507812 74.632812 13.53125 74.523438 13.53125 74.433594 L 13.464844 73.707031 L 13.464844 71.675781 C 13.441406 71.324219 13.507812 70.96875 13.554688 70.636719 Z M 13.550781 70.640625 " fill-opacity="1" fill-rule="nonzero"/></g><path fill="#47474a" d="M 30.402344 61.417969 L 30.402344 63.519531 C 30.402344 63.601562 30.40625 63.683594 30.417969 63.769531 C 30.445312 64.015625 30.597656 64.167969 30.824219 64.238281 C 31.035156 64.292969 31.25 64.335938 31.464844 64.363281 C 31.589844 64.375 31.632812 64.429688 31.644531 64.566406 C 31.660156 65.035156 31.617188 65.089844 31.160156 65.0625 C 30.089844 65.007812 29.019531 64.992188 27.949219 65.0625 L 27.84375 65.0625 C 27.511719 65.078125 27.484375 65.046875 27.484375 64.714844 C 27.484375 64.660156 27.5 64.59375 27.5 64.535156 C 27.5 64.433594 27.566406 64.382812 27.664062 64.382812 C 27.890625 64.359375 28.097656 64.300781 28.304688 64.261719 C 28.597656 64.191406 28.765625 64.011719 28.792969 63.722656 C 28.832031 63.402344 28.832031 63.074219 28.832031 62.753906 L 28.847656 59.050781 C 28.859375 58.8125 28.757812 58.636719 28.542969 58.523438 C 28.289062 58.386719 28.027344 58.277344 27.75 58.195312 C 27.664062 58.167969 27.582031 58.152344 27.511719 58.109375 C 27.308594 58.015625 27.304688 57.835938 27.5 57.722656 C 27.566406 57.683594 27.652344 57.65625 27.734375 57.640625 C 28.582031 57.515625 29.40625 57.308594 30.210938 57.019531 C 30.375 56.964844 30.417969 56.976562 30.433594 57.144531 C 30.449219 57.246094 30.433594 57.367188 30.417969 57.460938 C 30.390625 57.640625 30.390625 57.820312 30.390625 57.988281 C 30.390625 58.054688 30.40625 58.125 30.476562 58.167969 C 30.542969 58.207031 30.613281 58.167969 30.679688 58.125 C 30.96875 57.902344 31.261719 57.695312 31.582031 57.519531 C 32.039062 57.269531 32.527344 57.050781 33.058594 56.980469 C 33.699219 56.898438 34.253906 57.0625 34.742188 57.476562 C 34.941406 57.65625 35.121094 57.859375 35.269531 58.085938 C 35.410156 58.289062 35.421875 58.292969 35.601562 58.152344 C 36.132812 57.765625 36.6875 57.421875 37.285156 57.171875 C 37.910156 56.910156 38.550781 56.871094 39.191406 57.089844 C 39.84375 57.324219 40.289062 57.78125 40.554688 58.402344 C 40.777344 58.902344 40.875 59.414062 40.875 59.949219 L 40.875 63.652344 C 40.875 63.902344 40.976562 64.058594 41.222656 64.179688 C 41.488281 64.28125 41.777344 64.332031 42.054688 64.386719 C 42.238281 64.425781 42.238281 64.425781 42.238281 64.609375 C 42.210938 65.0625 42.167969 65.089844 41.722656 65.0625 C 40.605469 65 39.488281 65 38.371094 65.0625 C 38.148438 65.078125 38.148438 65.078125 38.136719 64.855469 L 38.136719 64.789062 C 38.121094 64.414062 38.121094 64.414062 38.484375 64.332031 L 38.84375 64.234375 C 38.972656 64.207031 39.074219 64.140625 39.15625 64.039062 C 39.234375 63.9375 39.277344 63.824219 39.277344 63.695312 L 39.316406 62.660156 L 39.289062 59.953125 C 39.277344 59.707031 39.226562 59.472656 39.136719 59.246094 C 38.789062 58.402344 38.023438 58.101562 37.285156 58.183594 C 36.730469 58.238281 36.242188 58.460938 35.785156 58.777344 C 35.6875 58.847656 35.617188 58.929688 35.632812 59.066406 C 35.757812 59.953125 35.671875 60.835938 35.6875 61.722656 L 35.6875 63.640625 C 35.6875 63.988281 35.828125 64.152344 36.160156 64.238281 L 36.800781 64.375 C 36.898438 64.390625 36.957031 64.429688 36.957031 64.542969 L 36.957031 64.640625 C 36.941406 65.03125 36.914062 65.046875 36.523438 65.042969 C 35.410156 64.988281 34.296875 65.003906 33.199219 65.042969 C 32.824219 65.058594 32.792969 65.015625 32.808594 64.636719 C 32.824219 64.417969 32.851562 64.402344 33.0625 64.363281 L 33.519531 64.28125 C 33.925781 64.195312 34.074219 64.046875 34.101562 63.617188 L 34.144531 62.691406 L 34.117188 59.914062 C 34.089844 59.566406 34.015625 59.234375 33.824219 58.917969 C 33.546875 58.40625 33.113281 58.144531 32.515625 58.117188 C 31.917969 58.074219 31.390625 58.296875 30.886719 58.570312 C 30.539062 58.773438 30.386719 59.011719 30.414062 59.414062 L 30.414062 61.429688 Z M 56.601562 61.503906 L 56.601562 63.453125 C 56.605469 63.589844 56.613281 63.726562 56.628906 63.867188 C 56.644531 64.078125 56.753906 64.207031 56.964844 64.253906 C 57.203125 64.324219 57.449219 64.363281 57.699219 64.378906 C 57.839844 64.390625 57.867188 64.445312 57.882812 64.558594 L 57.882812 64.65625 C 57.867188 65.136719 57.8125 65.195312 57.339844 65.167969 C 56.28125 65.097656 55.226562 65.109375 54.167969 65.167969 L 53.761719 65.179688 C 53.679688 65.179688 53.660156 65.140625 53.636719 65.082031 C 53.59375 64.890625 53.59375 64.695312 53.636719 64.503906 C 53.652344 64.421875 53.707031 64.402344 53.789062 64.378906 C 53.992188 64.351562 54.164062 64.308594 54.359375 64.277344 C 54.707031 64.195312 54.832031 64.054688 54.84375 63.695312 L 54.886719 62.535156 L 54.886719 59.136719 C 54.886719 58.886719 54.789062 58.738281 54.566406 58.625 C 54.316406 58.488281 54.050781 58.390625 53.773438 58.292969 C 53.6875 58.265625 53.605469 58.238281 53.535156 58.195312 C 53.355469 58.074219 53.332031 57.894531 53.507812 57.753906 C 53.589844 57.6875 53.683594 57.652344 53.785156 57.644531 C 54.675781 57.503906 55.539062 57.3125 56.375 56.980469 C 56.472656 56.941406 56.511719 56.964844 56.554688 57.050781 C 56.597656 57.132812 56.609375 57.230469 56.59375 57.324219 L 56.554688 57.972656 C 56.554688 58.058594 56.515625 58.175781 56.582031 58.207031 C 56.664062 58.265625 56.722656 58.140625 56.789062 58.109375 C 57.203125 57.765625 57.652344 57.480469 58.140625 57.25 C 58.570312 57.050781 59.015625 56.917969 59.515625 56.949219 C 60.449219 57.003906 61.117188 57.472656 61.546875 58.289062 C 61.769531 58.71875 61.867188 59.1875 61.910156 59.671875 L 61.949219 60.683594 L 61.964844 63.734375 C 61.976562 63.96875 62.0625 64.121094 62.296875 64.207031 C 62.542969 64.285156 62.792969 64.347656 63.046875 64.386719 C 63.273438 64.414062 63.285156 64.453125 63.296875 64.660156 L 63.296875 64.730469 C 63.269531 65.199219 63.242188 65.214844 62.769531 65.183594 C 61.730469 65.128906 60.691406 65.128906 59.65625 65.183594 C 59.515625 65.199219 59.375 65.183594 59.246094 65.199219 C 59.164062 65.199219 59.109375 65.183594 59.09375 65.101562 C 59.066406 64.921875 59.039062 64.742188 59.082031 64.550781 C 59.09375 64.464844 59.136719 64.425781 59.234375 64.410156 L 59.875 64.308594 C 60.097656 64.253906 60.222656 64.109375 60.25 63.90625 L 60.277344 63.519531 L 60.265625 60.628906 C 60.265625 60.296875 60.25 59.96875 60.179688 59.636719 C 60.015625 58.929688 59.472656 58.421875 58.734375 58.351562 C 58.09375 58.28125 57.515625 58.449219 56.984375 58.792969 C 56.71875 58.960938 56.605469 59.195312 56.605469 59.484375 L 56.605469 61.570312 C 56.605469 61.53125 56.605469 61.53125 56.621094 61.53125 Z M 56.601562 61.503906 " fill-opacity="1" fill-rule="nonzero"/><g clip-path="url(#id4)"><path fill="#c2bfbf" d="M 97.328125 57.59375 C 97.175781 56.582031 96.800781 55.683594 96.148438 54.898438 C 95.570312 54.191406 94.855469 53.664062 94.003906 53.320312 C 93.128906 52.964844 92.195312 52.851562 91.25 52.824219 C 90.863281 52.808594 85.550781 52.894531 85.160156 52.824219 C 85.0625 52.808594 84.992188 52.839844 84.9375 52.921875 C 84.867188 53.023438 84.796875 53.128906 84.753906 53.238281 C 84.589844 53.613281 84.589844 53.585938 84.992188 53.640625 C 85.324219 53.695312 85.644531 53.722656 85.964844 53.820312 C 86.257812 53.917969 86.464844 54.082031 86.535156 54.398438 C 86.5625 54.550781 86.589844 59.414062 86.589844 61.683594 L 86.535156 63.300781 C 86.519531 63.425781 86.507812 63.546875 86.464844 63.660156 C 86.410156 63.824219 86.3125 63.960938 86.144531 64.03125 C 85.960938 64.121094 85.765625 64.171875 85.5625 64.183594 C 85.1875 64.226562 85.128906 64.238281 85.003906 64.65625 L 84.964844 64.804688 C 84.9375 64.988281 84.949219 65.011719 85.132812 65.011719 L 89.289062 65.054688 L 90.917969 65.027344 L 92.042969 64.886719 C 93.324219 64.652344 94.464844 64.128906 95.4375 63.285156 C 96 62.792969 96.441406 62.210938 96.773438 61.542969 C 97.160156 60.769531 97.328125 59.925781 97.371094 59.070312 C 97.441406 58.589844 97.410156 58.089844 97.328125 57.59375 Z M 95.3125 59.554688 C 95.257812 60.4375 95.078125 61.292969 94.617188 62.066406 C 94.035156 63.078125 93.199219 63.78125 92.046875 64.03125 C 91.542969 64.132812 91.042969 64.179688 90.519531 64.113281 C 90.140625 64.074219 89.78125 64.03125 89.433594 63.90625 C 88.808594 63.683594 88.585938 63.296875 88.574219 62.691406 L 88.558594 54.359375 C 88.558594 53.863281 88.78125 53.753906 89.140625 53.738281 C 89.683594 53.699219 90.242188 53.710938 90.785156 53.765625 C 91.363281 53.820312 91.925781 53.957031 92.464844 54.171875 C 92.871094 54.335938 93.234375 54.5625 93.566406 54.847656 C 94.316406 55.484375 94.816406 56.285156 95.09375 57.222656 C 95.316406 57.984375 95.355469 58.757812 95.316406 59.53125 Z M 108.886719 60.910156 C 108.886719 60.824219 108.886719 60.757812 108.875 60.675781 C 108.75 59.914062 108.34375 59.332031 107.71875 58.890625 C 107.316406 58.601562 106.855469 58.40625 106.382812 58.269531 C 106.300781 58.242188 106.230469 58.214844 106.148438 58.199219 C 106.164062 58.132812 106.203125 58.117188 106.246094 58.105469 C 106.523438 57.964844 106.789062 57.8125 107.023438 57.605469 C 107.457031 57.246094 107.738281 56.804688 107.886719 56.265625 C 107.96875 55.976562 107.96875 55.683594 107.941406 55.378906 C 107.894531 54.621094 107.554688 54.019531 106.925781 53.585938 C 106.285156 53.113281 105.535156 52.921875 104.757812 52.90625 C 103.253906 52.878906 101.738281 52.90625 100.238281 52.90625 C 99.808594 52.90625 99.378906 52.933594 98.929688 52.867188 C 98.847656 52.851562 98.726562 52.824219 98.667969 52.921875 C 98.566406 53.101562 98.441406 53.28125 98.402344 53.488281 C 98.386719 53.585938 98.417969 53.640625 98.527344 53.652344 L 99.488281 53.792969 C 99.863281 53.847656 100.128906 54.054688 100.15625 54.386719 C 100.183594 54.617188 100.195312 54.847656 100.195312 55.078125 L 100.167969 57.660156 L 100.152344 62.773438 C 100.152344 63.078125 100.113281 63.367188 100.054688 63.671875 C 100.023438 63.886719 99.90625 64.023438 99.695312 64.085938 C 99.417969 64.167969 99.152344 64.25 98.859375 64.25 C 98.675781 64.234375 98.554688 64.3125 98.5 64.484375 C 98.441406 64.609375 98.398438 64.75 98.375 64.875 C 98.347656 65.039062 98.386719 65.09375 98.554688 65.074219 C 98.679688 65.0625 103.269531 65.171875 104.132812 65.089844 C 104.644531 65.035156 105.148438 64.964844 105.660156 64.8125 C 106.535156 64.539062 107.34375 64.136719 107.984375 63.457031 C 108.511719 62.90625 108.816406 62.242188 108.84375 61.46875 C 108.886719 61.289062 108.886719 61.109375 108.886719 60.914062 Z M 102.144531 55.246094 L 102.183594 54.140625 C 102.183594 53.933594 102.265625 53.835938 102.476562 53.796875 C 102.808594 53.726562 103.144531 53.753906 103.476562 53.769531 C 103.8125 53.796875 104.128906 53.835938 104.464844 53.933594 C 105.074219 54.113281 105.546875 54.460938 105.828125 55.039062 C 105.957031 55.304688 106.019531 55.585938 106.023438 55.882812 C 106.035156 56.269531 106.007812 56.644531 105.855469 57.015625 C 105.617188 57.527344 105.246094 57.859375 104.699219 57.953125 C 104.15625 58.050781 102.613281 58.011719 102.378906 58.011719 C 102.171875 58.011719 102.15625 57.984375 102.15625 57.777344 L 102.15625 56.476562 C 102.121094 56.070312 102.117188 55.664062 102.140625 55.257812 Z M 106.660156 62.679688 C 106.425781 63.300781 105.992188 63.730469 105.382812 63.964844 C 105.046875 64.089844 104.714844 64.167969 104.363281 64.144531 C 103.933594 64.128906 103.503906 64.144531 103.070312 64.0625 C 102.488281 63.9375 102.222656 63.382812 102.179688 62.984375 C 102.113281 62.277344 102.152344 61.558594 102.140625 61.035156 L 102.140625 59.210938 C 102.140625 58.988281 102.167969 58.921875 102.40625 58.921875 L 103.714844 58.933594 L 104.601562 59.035156 C 105.230469 59.175781 105.800781 59.410156 106.246094 59.890625 C 106.605469 60.28125 106.800781 60.75 106.84375 61.261719 C 106.882812 61.742188 106.859375 62.214844 106.675781 62.667969 Z M 106.660156 62.679688 " fill-opacity="1" fill-rule="nonzero"/></g><path fill="#47474a" d="M 71.332031 58.515625 L 71.691406 58.574219 C 72.082031 58.585938 72.539062 58.449219 72.679688 57.910156 C 72.757812 57.648438 72.757812 57.382812 72.679688 57.121094 C 72.59375 57.121094 72.554688 57.191406 72.511719 57.21875 C 72.304688 57.382812 72.066406 57.480469 71.816406 57.507812 C 71.316406 57.5625 70.816406 57.535156 70.328125 57.355469 L 69.648438 57.121094 C 69.167969 56.964844 68.675781 56.902344 68.171875 56.929688 C 67.460938 56.984375 66.796875 57.21875 66.167969 57.550781 C 65.5 57.910156 65.03125 58.449219 64.804688 59.183594 C 64.679688 59.609375 64.667969 60.050781 64.722656 60.496094 C 64.863281 61.503906 65.390625 62.207031 66.335938 62.582031 C 66.390625 62.597656 66.433594 62.621094 66.488281 62.636719 C 66.613281 62.707031 66.628906 62.777344 66.515625 62.871094 L 66.167969 63.105469 L 65.332031 63.617188 C 65.125 63.742188 65.097656 63.839844 65.164062 64.058594 C 65.25 64.324219 65.398438 64.542969 65.609375 64.722656 C 65.800781 64.886719 66.015625 65.015625 66.25 65.109375 C 66.402344 65.179688 66.402344 65.210938 66.265625 65.332031 L 65.472656 65.898438 C 65.207031 66.101562 64.941406 66.304688 64.71875 66.5625 C 64.386719 66.917969 64.273438 67.332031 64.386719 67.804688 C 64.492188 68.296875 64.734375 68.710938 65.109375 69.050781 C 65.476562 69.386719 65.902344 69.617188 66.386719 69.742188 C 67.167969 69.964844 67.972656 69.976562 68.765625 69.824219 C 69.90625 69.617188 70.902344 69.117188 71.6875 68.261719 C 72.230469 67.695312 72.546875 67.03125 72.578125 66.238281 C 72.59375 66.011719 72.566406 65.785156 72.5 65.566406 C 72.4375 65.34375 72.335938 65.144531 72.199219 64.957031 C 72.058594 64.773438 71.894531 64.617188 71.703125 64.492188 C 71.507812 64.363281 71.300781 64.277344 71.074219 64.222656 L 70.324219 64.085938 L 68.027344 63.882812 C 67.777344 63.867188 67.527344 63.828125 67.320312 63.703125 C 67.054688 63.535156 66.984375 63.21875 67.152344 63.011719 C 67.277344 62.859375 67.429688 62.761719 67.625 62.75 L 68.070312 62.707031 C 68.976562 62.617188 69.757812 62.261719 70.421875 61.644531 C 70.773438 61.320312 71.007812 60.929688 71.128906 60.46875 C 71.296875 59.875 71.296875 59.257812 71.15625 58.648438 C 71.117188 58.496094 71.128906 58.484375 71.324219 58.511719 Z M 67.921875 65.398438 C 68.003906 65.414062 68.089844 65.398438 68.171875 65.398438 C 68.753906 65.425781 69.355469 65.46875 69.925781 65.621094 C 70.109375 65.675781 70.292969 65.746094 70.464844 65.828125 C 71.023438 66.132812 71.230469 66.660156 71.160156 67.226562 C 71.078125 67.847656 70.730469 68.289062 70.1875 68.578125 C 69.828125 68.78125 69.421875 68.871094 69.003906 68.910156 C 68.851562 68.925781 68.714844 68.910156 68.558594 68.910156 C 68.074219 68.925781 67.601562 68.871094 67.140625 68.675781 C 66.824219 68.550781 66.558594 68.375 66.320312 68.125 C 65.835938 67.640625 65.609375 66.753906 66.335938 66.035156 C 66.78125 65.632812 67.28125 65.347656 67.921875 65.398438 Z M 69.507812 61.089844 C 69.214844 61.820312 68.574219 62.042969 67.9375 61.945312 C 67.351562 61.863281 66.921875 61.542969 66.644531 61.019531 C 66.28125 60.3125 66.183594 59.582031 66.394531 58.820312 C 66.546875 58.253906 66.894531 57.828125 67.503906 57.730469 C 68.285156 57.589844 69.03125 57.867188 69.425781 58.640625 C 69.628906 59.015625 69.714844 59.472656 69.714844 60.121094 C 69.703125 60.382812 69.648438 60.742188 69.507812 61.085938 Z M 51.984375 60.148438 C 51.859375 59.402344 51.582031 58.722656 51.066406 58.160156 C 50.304688 57.316406 49.328125 56.945312 48.230469 56.941406 C 47.269531 56.929688 46.367188 57.203125 45.5625 57.703125 C 44.734375 58.191406 44.195312 58.898438 43.933594 59.816406 C 43.699219 60.617188 43.710938 61.433594 43.894531 62.25 C 44.378906 64.433594 46.078125 65.371094 48.105469 65.234375 C 48.703125 65.191406 49.273438 65 49.816406 64.734375 C 50.621094 64.363281 51.207031 63.769531 51.609375 62.980469 C 51.929688 62.332031 52.066406 61.640625 52.054688 60.851562 Z M 50.011719 63.214844 C 49.910156 63.535156 49.730469 63.796875 49.46875 64.007812 C 49.210938 64.21875 48.914062 64.339844 48.578125 64.375 C 47.96875 64.460938 47.398438 64.308594 46.882812 63.949219 C 46.507812 63.671875 46.214844 63.328125 46.007812 62.910156 C 45.4375 61.75 45.339844 60.535156 45.628906 59.292969 C 45.726562 58.898438 45.921875 58.5625 46.214844 58.28125 C 46.730469 57.8125 47.328125 57.703125 47.996094 57.839844 C 48.636719 57.980469 49.121094 58.324219 49.519531 58.851562 C 49.921875 59.375 50.105469 59.980469 50.214844 60.621094 C 50.273438 60.9375 50.273438 61.269531 50.285156 61.476562 C 50.285156 62.140625 50.230469 62.6875 50.019531 63.21875 Z M 82.371094 60.257812 C 82.269531 59.457031 81.96875 58.726562 81.398438 58.117188 C 80.644531 57.304688 79.671875 56.957031 78.589844 56.941406 C 77.65625 56.929688 76.792969 57.191406 76.003906 57.648438 C 75.113281 58.171875 74.5 58.917969 74.265625 59.929688 C 73.972656 61.0625 74.085938 62.160156 74.597656 63.214844 C 75.054688 64.183594 75.835938 64.804688 76.863281 65.082031 C 78.003906 65.382812 79.089844 65.246094 80.148438 64.734375 C 81.066406 64.292969 81.71875 63.601562 82.09375 62.664062 C 82.316406 62.109375 82.398438 61.515625 82.414062 60.824219 C 82.425781 60.699219 82.398438 60.480469 82.371094 60.257812 Z M 80.453125 63.035156 C 80.226562 63.78125 79.757812 64.265625 78.964844 64.378906 C 78.378906 64.460938 77.824219 64.320312 77.324219 63.992188 C 76.890625 63.699219 76.585938 63.3125 76.363281 62.859375 C 76.113281 62.375 75.972656 61.863281 75.917969 61.339844 C 75.835938 60.6875 75.835938 60.054688 75.988281 59.402344 C 76.015625 59.277344 76.058594 59.152344 76.113281 59.03125 C 76.503906 58.0625 77.363281 57.621094 78.378906 57.84375 C 79.0625 57.996094 79.574219 58.367188 79.964844 58.933594 C 80.34375 59.488281 80.523438 60.09375 80.605469 60.753906 C 80.648438 61.019531 80.664062 61.292969 80.648438 61.527344 C 80.648438 62.066406 80.605469 62.566406 80.445312 63.046875 Z M 80.453125 63.035156 " fill-opacity="1" fill-rule="nonzero"/></svg>