<svg xmlns="http://www.w3.org/2000/svg" xmlns:xlink="http://www.w3.org/1999/xlink" width="509" zoomAndPan="magnify" viewBox="0 0 381.75 395.249997" height="527" preserveAspectRatio="xMidYMid meet" version="1.0"><defs><g/></defs><g fill="#000000" fill-opacity="1"><g transform="translate(302.83632, 121.059661)"><g><path d="M 7.125 0 L 6.203125 0 L 6.203125 -3.734375 L 2.015625 -3.734375 L 2.015625 0 L 1.09375 0 L 1.09375 -7.9375 L 2.015625 -7.9375 L 2.015625 -4.5625 L 6.203125 -4.5625 L 6.203125 -7.9375 L 7.125 -7.9375 Z M 7.125 0 "/></g></g></g><g fill="#000000" fill-opacity="1"><g transform="translate(311.03857, 121.059661)"><g><path d="M 0.015625 -5.953125 L 0.984375 -5.953125 L 2.28125 -2.5625 C 2.5625 -1.78125 2.738281 -1.21875 2.8125 -0.875 L 2.859375 -0.875 C 2.898438 -1.0625 2.992188 -1.378906 3.140625 -1.828125 C 3.296875 -2.273438 3.789062 -3.648438 4.625 -5.953125 L 5.59375 -5.953125 L 3.03125 0.828125 C 2.78125 1.492188 2.484375 1.96875 2.140625 2.25 C 1.804688 2.53125 1.394531 2.671875 0.90625 2.671875 C 0.625 2.671875 0.351562 2.640625 0.09375 2.578125 L 0.09375 1.859375 C 0.289062 1.898438 0.507812 1.921875 0.75 1.921875 C 1.375 1.921875 1.816406 1.570312 2.078125 0.875 L 2.40625 0.03125 Z M 0.015625 -5.953125 "/></g></g></g><g fill="#000000" fill-opacity="1"><g transform="translate(316.640632, 121.059661)"><g><path d="M 3.71875 -6.046875 C 4.507812 -6.046875 5.117188 -5.78125 5.546875 -5.25 C 5.984375 -4.71875 6.203125 -3.960938 6.203125 -2.984375 C 6.203125 -2.003906 5.984375 -1.242188 5.546875 -0.703125 C 5.109375 -0.160156 4.5 0.109375 3.71875 0.109375 C 3.332031 0.109375 2.976562 0.0351562 2.65625 -0.109375 C 2.34375 -0.253906 2.078125 -0.472656 1.859375 -0.765625 L 1.796875 -0.765625 L 1.609375 0 L 0.953125 0 L 0.953125 -8.453125 L 1.859375 -8.453125 L 1.859375 -6.40625 C 1.859375 -5.9375 1.84375 -5.519531 1.8125 -5.15625 L 1.859375 -5.15625 C 2.273438 -5.75 2.894531 -6.046875 3.71875 -6.046875 Z M 3.59375 -5.296875 C 2.976562 -5.296875 2.535156 -5.117188 2.265625 -4.765625 C 1.992188 -4.410156 1.859375 -3.816406 1.859375 -2.984375 C 1.859375 -2.148438 1.992188 -1.550781 2.265625 -1.1875 C 2.546875 -0.820312 3 -0.640625 3.625 -0.640625 C 4.175781 -0.640625 4.585938 -0.84375 4.859375 -1.25 C 5.128906 -1.65625 5.265625 -2.238281 5.265625 -3 C 5.265625 -3.769531 5.128906 -4.34375 4.859375 -4.71875 C 4.585938 -5.101562 4.164062 -5.296875 3.59375 -5.296875 Z M 3.59375 -5.296875 "/></g></g></g><g fill="#000000" fill-opacity="1"><g transform="translate(323.453223, 121.059661)"><g><path d="M 3.671875 -6.0625 C 3.929688 -6.0625 4.171875 -6.039062 4.390625 -6 L 4.265625 -5.15625 C 4.015625 -5.207031 3.796875 -5.234375 3.609375 -5.234375 C 3.128906 -5.234375 2.71875 -5.035156 2.375 -4.640625 C 2.03125 -4.253906 1.859375 -3.769531 1.859375 -3.1875 L 1.859375 0 L 0.953125 0 L 0.953125 -5.953125 L 1.703125 -5.953125 L 1.796875 -4.84375 L 1.84375 -4.84375 C 2.0625 -5.238281 2.328125 -5.539062 2.640625 -5.75 C 2.953125 -5.957031 3.296875 -6.0625 3.671875 -6.0625 Z M 3.671875 -6.0625 "/></g></g></g><g fill="#000000" fill-opacity="1"><g transform="translate(327.991328, 121.059661)"><g><path d="M 1.859375 0 L 0.953125 0 L 0.953125 -5.953125 L 1.859375 -5.953125 Z M 0.875 -7.5625 C 0.875 -7.769531 0.925781 -7.921875 1.03125 -8.015625 C 1.132812 -8.117188 1.257812 -8.171875 1.40625 -8.171875 C 1.550781 -8.171875 1.675781 -8.117188 1.78125 -8.015625 C 1.882812 -7.921875 1.9375 -7.769531 1.9375 -7.5625 C 1.9375 -7.363281 1.882812 -7.210938 1.78125 -7.109375 C 1.675781 -7.015625 1.550781 -6.96875 1.40625 -6.96875 C 1.257812 -6.96875 1.132812 -7.015625 1.03125 -7.109375 C 0.925781 -7.210938 0.875 -7.363281 0.875 -7.5625 Z M 0.875 -7.5625 "/></g></g></g><g fill="#000000" fill-opacity="1"><g transform="translate(330.803216, 121.059661)"><g><path d="M 5.015625 -0.796875 L 4.953125 -0.796875 C 4.535156 -0.191406 3.914062 0.109375 3.09375 0.109375 C 2.3125 0.109375 1.703125 -0.15625 1.265625 -0.6875 C 0.835938 -1.21875 0.625 -1.972656 0.625 -2.953125 C 0.625 -3.941406 0.835938 -4.707031 1.265625 -5.25 C 1.703125 -5.789062 2.3125 -6.0625 3.09375 -6.0625 C 3.894531 -6.0625 4.515625 -5.769531 4.953125 -5.1875 L 5.015625 -5.1875 L 4.953125 -6.03125 L 4.953125 -8.453125 L 5.859375 -8.453125 L 5.859375 0 L 5.125 0 Z M 3.203125 -0.640625 C 3.816406 -0.640625 4.257812 -0.804688 4.53125 -1.140625 C 4.8125 -1.484375 4.953125 -2.023438 4.953125 -2.765625 L 4.953125 -2.953125 C 4.953125 -3.796875 4.8125 -4.398438 4.53125 -4.765625 C 4.257812 -5.128906 3.8125 -5.3125 3.1875 -5.3125 C 2.664062 -5.3125 2.265625 -5.101562 1.984375 -4.6875 C 1.703125 -4.28125 1.5625 -3.703125 1.5625 -2.953125 C 1.5625 -2.191406 1.695312 -1.613281 1.96875 -1.21875 C 2.25 -0.832031 2.660156 -0.640625 3.203125 -0.640625 Z M 3.203125 -0.640625 "/></g></g></g><g fill="#000000" fill-opacity="1"><g transform="translate(337.615807, 121.059661)"><g/></g></g><g fill="#000000" fill-opacity="1"><g transform="translate(340.503692, 121.059661)"><g><path d="M 6.078125 0 L 5.09375 -2.53125 L 1.90625 -2.53125 L 0.9375 0 L 0 0 L 3.140625 -7.96875 L 3.921875 -7.96875 L 7.046875 0 Z M 4.8125 -3.359375 L 3.890625 -5.8125 C 3.765625 -6.125 3.640625 -6.507812 3.515625 -6.96875 C 3.429688 -6.613281 3.316406 -6.226562 3.171875 -5.8125 L 2.234375 -3.359375 Z M 4.8125 -3.359375 "/></g></g></g><g fill="#000000" fill-opacity="1"><g transform="translate(347.538841, 121.059661)"><g><path d="M 3.71875 0.109375 C 3.332031 0.109375 2.976562 0.0351562 2.65625 -0.109375 C 2.34375 -0.253906 2.078125 -0.472656 1.859375 -0.765625 L 1.796875 -0.765625 C 1.835938 -0.421875 1.859375 -0.09375 1.859375 0.21875 L 1.859375 2.671875 L 0.953125 2.671875 L 0.953125 -5.953125 L 1.6875 -5.953125 L 1.8125 -5.140625 L 1.859375 -5.140625 C 2.085938 -5.460938 2.351562 -5.695312 2.65625 -5.84375 C 2.96875 -5.988281 3.320312 -6.0625 3.71875 -6.0625 C 4.507812 -6.0625 5.117188 -5.789062 5.546875 -5.25 C 5.984375 -4.707031 6.203125 -3.953125 6.203125 -2.984375 C 6.203125 -2.003906 5.984375 -1.242188 5.546875 -0.703125 C 5.109375 -0.160156 4.5 0.109375 3.71875 0.109375 Z M 3.59375 -5.296875 C 2.988281 -5.296875 2.550781 -5.125 2.28125 -4.78125 C 2.007812 -4.445312 1.867188 -3.914062 1.859375 -3.1875 L 1.859375 -2.984375 C 1.859375 -2.148438 1.992188 -1.550781 2.265625 -1.1875 C 2.546875 -0.820312 3 -0.640625 3.625 -0.640625 C 4.132812 -0.640625 4.535156 -0.847656 4.828125 -1.265625 C 5.117188 -1.679688 5.265625 -2.257812 5.265625 -3 C 5.265625 -3.738281 5.117188 -4.304688 4.828125 -4.703125 C 4.535156 -5.097656 4.125 -5.296875 3.59375 -5.296875 Z M 3.59375 -5.296875 "/></g></g></g><g fill="#000000" fill-opacity="1"><g transform="translate(354.351431, 121.059661)"><g><path d="M 3.71875 0.109375 C 3.332031 0.109375 2.976562 0.0351562 2.65625 -0.109375 C 2.34375 -0.253906 2.078125 -0.472656 1.859375 -0.765625 L 1.796875 -0.765625 C 1.835938 -0.421875 1.859375 -0.09375 1.859375 0.21875 L 1.859375 2.671875 L 0.953125 2.671875 L 0.953125 -5.953125 L 1.6875 -5.953125 L 1.8125 -5.140625 L 1.859375 -5.140625 C 2.085938 -5.460938 2.351562 -5.695312 2.65625 -5.84375 C 2.96875 -5.988281 3.320312 -6.0625 3.71875 -6.0625 C 4.507812 -6.0625 5.117188 -5.789062 5.546875 -5.25 C 5.984375 -4.707031 6.203125 -3.953125 6.203125 -2.984375 C 6.203125 -2.003906 5.984375 -1.242188 5.546875 -0.703125 C 5.109375 -0.160156 4.5 0.109375 3.71875 0.109375 Z M 3.59375 -5.296875 C 2.988281 -5.296875 2.550781 -5.125 2.28125 -4.78125 C 2.007812 -4.445312 1.867188 -3.914062 1.859375 -3.1875 L 1.859375 -2.984375 C 1.859375 -2.148438 1.992188 -1.550781 2.265625 -1.1875 C 2.546875 -0.820312 3 -0.640625 3.625 -0.640625 C 4.132812 -0.640625 4.535156 -0.847656 4.828125 -1.265625 C 5.117188 -1.679688 5.265625 -2.257812 5.265625 -3 C 5.265625 -3.738281 5.117188 -4.304688 4.828125 -4.703125 C 4.535156 -5.097656 4.125 -5.296875 3.59375 -5.296875 Z M 3.59375 -5.296875 "/></g></g></g><g fill="#000000" fill-opacity="1"><g transform="translate(361.164022, 121.059661)"><g><path d="M 4.796875 -1.625 C 4.796875 -1.070312 4.585938 -0.644531 4.171875 -0.34375 C 3.765625 -0.0390625 3.1875 0.109375 2.4375 0.109375 C 1.644531 0.109375 1.03125 -0.015625 0.59375 -0.265625 L 0.59375 -1.109375 C 0.875 -0.960938 1.175781 -0.847656 1.5 -0.765625 C 1.832031 -0.679688 2.148438 -0.640625 2.453125 -0.640625 C 2.929688 -0.640625 3.296875 -0.710938 3.546875 -0.859375 C 3.796875 -1.015625 3.921875 -1.242188 3.921875 -1.546875 C 3.921875 -1.773438 3.820312 -1.972656 3.625 -2.140625 C 3.425781 -2.304688 3.035156 -2.503906 2.453125 -2.734375 C 1.898438 -2.929688 1.503906 -3.109375 1.265625 -3.265625 C 1.035156 -3.421875 0.863281 -3.59375 0.75 -3.78125 C 0.632812 -3.976562 0.578125 -4.21875 0.578125 -4.5 C 0.578125 -4.976562 0.773438 -5.359375 1.171875 -5.640625 C 1.566406 -5.921875 2.109375 -6.0625 2.796875 -6.0625 C 3.429688 -6.0625 4.054688 -5.929688 4.671875 -5.671875 L 4.34375 -4.9375 C 3.75 -5.1875 3.210938 -5.3125 2.734375 -5.3125 C 2.304688 -5.3125 1.984375 -5.242188 1.765625 -5.109375 C 1.546875 -4.972656 1.4375 -4.785156 1.4375 -4.546875 C 1.4375 -4.390625 1.472656 -4.253906 1.546875 -4.140625 C 1.628906 -4.023438 1.757812 -3.914062 1.9375 -3.8125 C 2.125 -3.71875 2.476562 -3.578125 3 -3.390625 C 3.695312 -3.128906 4.171875 -2.867188 4.421875 -2.609375 C 4.671875 -2.347656 4.796875 -2.019531 4.796875 -1.625 Z M 4.796875 -1.625 "/></g></g></g><g fill="#000000" fill-opacity="1"><g transform="translate(323.715531, 136.366949)"><g><path d="M 5.46875 -6.078125 C 5.46875 -5.566406 5.320312 -5.148438 5.03125 -4.828125 C 4.75 -4.503906 4.347656 -4.289062 3.828125 -4.1875 L 3.828125 -4.140625 C 4.460938 -4.054688 4.929688 -3.851562 5.234375 -3.53125 C 5.546875 -3.207031 5.703125 -2.78125 5.703125 -2.25 C 5.703125 -1.488281 5.441406 -0.90625 4.921875 -0.5 C 4.398438 -0.09375 3.65625 0.109375 2.6875 0.109375 C 2.257812 0.109375 1.867188 0.078125 1.515625 0.015625 C 1.171875 -0.046875 0.835938 -0.160156 0.515625 -0.328125 L 0.515625 -1.171875 C 0.859375 -1.003906 1.222656 -0.875 1.609375 -0.78125 C 1.992188 -0.695312 2.363281 -0.65625 2.71875 -0.65625 C 4.09375 -0.65625 4.78125 -1.191406 4.78125 -2.265625 C 4.78125 -3.234375 4.019531 -3.71875 2.5 -3.71875 L 1.71875 -3.71875 L 1.71875 -4.5 L 2.515625 -4.5 C 3.128906 -4.5 3.617188 -4.632812 3.984375 -4.90625 C 4.347656 -5.175781 4.53125 -5.554688 4.53125 -6.046875 C 4.53125 -6.429688 4.394531 -6.734375 4.125 -6.953125 C 3.863281 -7.171875 3.503906 -7.28125 3.046875 -7.28125 C 2.703125 -7.28125 2.375 -7.234375 2.0625 -7.140625 C 1.757812 -7.046875 1.410156 -6.875 1.015625 -6.625 L 0.546875 -7.234375 C 0.878906 -7.484375 1.253906 -7.679688 1.671875 -7.828125 C 2.097656 -7.984375 2.550781 -8.0625 3.03125 -8.0625 C 3.800781 -8.0625 4.398438 -7.882812 4.828125 -7.53125 C 5.253906 -7.175781 5.46875 -6.691406 5.46875 -6.078125 Z M 5.46875 -6.078125 "/></g></g></g><g fill="#000000" fill-opacity="1"><g transform="translate(330.07214, 136.366949)"><g><path d="M 5.8125 -3.984375 C 5.8125 -2.609375 5.59375 -1.582031 5.15625 -0.90625 C 4.726562 -0.226562 4.066406 0.109375 3.171875 0.109375 C 2.316406 0.109375 1.664062 -0.234375 1.21875 -0.921875 C 0.769531 -1.617188 0.546875 -2.640625 0.546875 -3.984375 C 0.546875 -5.367188 0.757812 -6.394531 1.1875 -7.0625 C 1.625 -7.726562 2.285156 -8.0625 3.171875 -8.0625 C 4.035156 -8.0625 4.691406 -7.710938 5.140625 -7.015625 C 5.585938 -6.316406 5.8125 -5.304688 5.8125 -3.984375 Z M 1.46875 -3.984375 C 1.46875 -2.828125 1.601562 -1.984375 1.875 -1.453125 C 2.144531 -0.929688 2.578125 -0.671875 3.171875 -0.671875 C 3.773438 -0.671875 4.210938 -0.9375 4.484375 -1.46875 C 4.753906 -2 4.890625 -2.835938 4.890625 -3.984375 C 4.890625 -5.117188 4.753906 -5.953125 4.484375 -6.484375 C 4.210938 -7.015625 3.773438 -7.28125 3.171875 -7.28125 C 2.578125 -7.28125 2.144531 -7.019531 1.875 -6.5 C 1.601562 -5.976562 1.46875 -5.140625 1.46875 -3.984375 Z M 1.46875 -3.984375 "/></g></g></g><g fill="#000000" fill-opacity="1"><g transform="translate(336.428749, 136.366949)"><g><path d="M 1.3125 -5.578125 C 1.3125 -4.960938 1.378906 -4.5 1.515625 -4.1875 C 1.648438 -3.875 1.867188 -3.71875 2.171875 -3.71875 C 2.765625 -3.71875 3.0625 -4.335938 3.0625 -5.578125 C 3.0625 -6.796875 2.765625 -7.40625 2.171875 -7.40625 C 1.867188 -7.40625 1.648438 -7.253906 1.515625 -6.953125 C 1.378906 -6.648438 1.3125 -6.191406 1.3125 -5.578125 Z M 3.796875 -5.578125 C 3.796875 -4.742188 3.65625 -4.113281 3.375 -3.6875 C 3.101562 -3.269531 2.703125 -3.0625 2.171875 -3.0625 C 1.660156 -3.0625 1.265625 -3.273438 0.984375 -3.703125 C 0.703125 -4.140625 0.5625 -4.765625 0.5625 -5.578125 C 0.5625 -6.398438 0.695312 -7.019531 0.96875 -7.4375 C 1.238281 -7.851562 1.640625 -8.0625 2.171875 -8.0625 C 2.691406 -8.0625 3.09375 -7.84375 3.375 -7.40625 C 3.65625 -6.976562 3.796875 -6.367188 3.796875 -5.578125 Z M 6.09375 -2.390625 C 6.09375 -1.773438 6.160156 -1.3125 6.296875 -1 C 6.429688 -0.695312 6.648438 -0.546875 6.953125 -0.546875 C 7.253906 -0.546875 7.476562 -0.695312 7.625 -1 C 7.769531 -1.300781 7.84375 -1.765625 7.84375 -2.390625 C 7.84375 -3.003906 7.769531 -3.460938 7.625 -3.765625 C 7.476562 -4.066406 7.253906 -4.21875 6.953125 -4.21875 C 6.648438 -4.21875 6.429688 -4.066406 6.296875 -3.765625 C 6.160156 -3.460938 6.09375 -3.003906 6.09375 -2.390625 Z M 8.59375 -2.390625 C 8.59375 -1.566406 8.453125 -0.941406 8.171875 -0.515625 C 7.890625 -0.0976562 7.484375 0.109375 6.953125 0.109375 C 6.441406 0.109375 6.046875 -0.101562 5.765625 -0.53125 C 5.484375 -0.96875 5.34375 -1.585938 5.34375 -2.390625 C 5.34375 -3.210938 5.476562 -3.832031 5.75 -4.25 C 6.019531 -4.664062 6.421875 -4.875 6.953125 -4.875 C 7.460938 -4.875 7.863281 -4.660156 8.15625 -4.234375 C 8.445312 -3.804688 8.59375 -3.191406 8.59375 -2.390625 Z M 7.1875 -7.9375 L 2.78125 0 L 1.984375 0 L 6.390625 -7.9375 Z M 7.1875 -7.9375 "/></g></g></g><g fill="#000000" fill-opacity="1"><g transform="translate(15.283882, 138.66462)"><g><path d="M 7.984375 -3.984375 C 7.984375 -2.710938 7.660156 -1.710938 7.015625 -0.984375 C 6.378906 -0.253906 5.488281 0.109375 4.34375 0.109375 C 3.164062 0.109375 2.257812 -0.242188 1.625 -0.953125 C 0.988281 -1.671875 0.671875 -2.6875 0.671875 -4 C 0.671875 -5.289062 0.988281 -6.289062 1.625 -7 C 2.269531 -7.707031 3.175781 -8.0625 4.34375 -8.0625 C 5.488281 -8.0625 6.378906 -7.695312 7.015625 -6.96875 C 7.660156 -6.25 7.984375 -5.253906 7.984375 -3.984375 Z M 1.65625 -3.984375 C 1.65625 -2.910156 1.882812 -2.09375 2.34375 -1.53125 C 2.800781 -0.976562 3.46875 -0.703125 4.34375 -0.703125 C 5.21875 -0.703125 5.878906 -0.976562 6.328125 -1.53125 C 6.773438 -2.082031 7 -2.898438 7 -3.984375 C 7 -5.046875 6.773438 -5.851562 6.328125 -6.40625 C 5.890625 -6.957031 5.226562 -7.234375 4.34375 -7.234375 C 3.46875 -7.234375 2.800781 -6.957031 2.34375 -6.40625 C 1.882812 -5.851562 1.65625 -5.046875 1.65625 -3.984375 Z M 1.65625 -3.984375 "/></g></g></g><g fill="#000000" fill-opacity="1"><g transform="translate(23.942114, 138.66462)"><g><path d="M 1.796875 -5.953125 L 1.796875 -2.09375 C 1.796875 -1.601562 1.90625 -1.238281 2.125 -1 C 2.351562 -0.757812 2.703125 -0.640625 3.171875 -0.640625 C 3.796875 -0.640625 4.25 -0.8125 4.53125 -1.15625 C 4.820312 -1.5 4.96875 -2.054688 4.96875 -2.828125 L 4.96875 -5.953125 L 5.875 -5.953125 L 5.875 0 L 5.125 0 L 5 -0.796875 L 4.953125 -0.796875 C 4.765625 -0.503906 4.503906 -0.28125 4.171875 -0.125 C 3.847656 0.03125 3.476562 0.109375 3.0625 0.109375 C 2.332031 0.109375 1.785156 -0.0625 1.421875 -0.40625 C 1.066406 -0.75 0.890625 -1.300781 0.890625 -2.0625 L 0.890625 -5.953125 Z M 1.796875 -5.953125 "/></g></g></g><g fill="#000000" fill-opacity="1"><g transform="translate(30.765561, 138.66462)"><g><path d="M 2.875 -0.640625 C 3.039062 -0.640625 3.195312 -0.648438 3.34375 -0.671875 C 3.488281 -0.691406 3.601562 -0.71875 3.6875 -0.75 L 3.6875 -0.046875 C 3.59375 -0.00390625 3.453125 0.03125 3.265625 0.0625 C 3.078125 0.09375 2.90625 0.109375 2.75 0.109375 C 1.59375 0.109375 1.015625 -0.5 1.015625 -1.71875 L 1.015625 -5.25 L 0.171875 -5.25 L 0.171875 -5.6875 L 1.015625 -6.0625 L 1.40625 -7.328125 L 1.921875 -7.328125 L 1.921875 -5.953125 L 3.65625 -5.953125 L 3.65625 -5.25 L 1.921875 -5.25 L 1.921875 -1.75 C 1.921875 -1.394531 2.003906 -1.117188 2.171875 -0.921875 C 2.347656 -0.734375 2.582031 -0.640625 2.875 -0.640625 Z M 2.875 -0.640625 "/></g></g></g><g fill="#000000" fill-opacity="1"><g transform="translate(34.690266, 138.66462)"><g><path d="M 4.796875 -1.625 C 4.796875 -1.070312 4.585938 -0.644531 4.171875 -0.34375 C 3.765625 -0.0390625 3.1875 0.109375 2.4375 0.109375 C 1.644531 0.109375 1.03125 -0.015625 0.59375 -0.265625 L 0.59375 -1.109375 C 0.875 -0.960938 1.175781 -0.847656 1.5 -0.765625 C 1.832031 -0.679688 2.148438 -0.640625 2.453125 -0.640625 C 2.929688 -0.640625 3.296875 -0.710938 3.546875 -0.859375 C 3.796875 -1.015625 3.921875 -1.242188 3.921875 -1.546875 C 3.921875 -1.773438 3.820312 -1.972656 3.625 -2.140625 C 3.425781 -2.304688 3.035156 -2.503906 2.453125 -2.734375 C 1.898438 -2.929688 1.503906 -3.109375 1.265625 -3.265625 C 1.035156 -3.421875 0.863281 -3.59375 0.75 -3.78125 C 0.632812 -3.976562 0.578125 -4.21875 0.578125 -4.5 C 0.578125 -4.976562 0.773438 -5.359375 1.171875 -5.640625 C 1.566406 -5.921875 2.109375 -6.0625 2.796875 -6.0625 C 3.429688 -6.0625 4.054688 -5.929688 4.671875 -5.671875 L 4.34375 -4.9375 C 3.75 -5.1875 3.210938 -5.3125 2.734375 -5.3125 C 2.304688 -5.3125 1.984375 -5.242188 1.765625 -5.109375 C 1.546875 -4.972656 1.4375 -4.785156 1.4375 -4.546875 C 1.4375 -4.390625 1.472656 -4.253906 1.546875 -4.140625 C 1.628906 -4.023438 1.757812 -3.914062 1.9375 -3.8125 C 2.125 -3.71875 2.476562 -3.578125 3 -3.390625 C 3.695312 -3.128906 4.171875 -2.867188 4.421875 -2.609375 C 4.671875 -2.347656 4.796875 -2.019531 4.796875 -1.625 Z M 4.796875 -1.625 "/></g></g></g><g fill="#000000" fill-opacity="1"><g transform="translate(39.993774, 138.66462)"><g><path d="M 6.09375 -2.984375 C 6.09375 -2.015625 5.847656 -1.253906 5.359375 -0.703125 C 4.867188 -0.160156 4.191406 0.109375 3.328125 0.109375 C 2.796875 0.109375 2.320312 -0.015625 1.90625 -0.265625 C 1.5 -0.515625 1.179688 -0.875 0.953125 -1.34375 C 0.734375 -1.8125 0.625 -2.359375 0.625 -2.984375 C 0.625 -3.953125 0.863281 -4.707031 1.34375 -5.25 C 1.832031 -5.789062 2.507812 -6.0625 3.375 -6.0625 C 4.207031 -6.0625 4.867188 -5.785156 5.359375 -5.234375 C 5.847656 -4.679688 6.09375 -3.929688 6.09375 -2.984375 Z M 1.5625 -2.984375 C 1.5625 -2.222656 1.710938 -1.640625 2.015625 -1.234375 C 2.316406 -0.835938 2.765625 -0.640625 3.359375 -0.640625 C 3.953125 -0.640625 4.398438 -0.835938 4.703125 -1.234375 C 5.003906 -1.640625 5.15625 -2.222656 5.15625 -2.984375 C 5.15625 -3.742188 5.003906 -4.316406 4.703125 -4.703125 C 4.398438 -5.097656 3.945312 -5.296875 3.34375 -5.296875 C 2.75 -5.296875 2.300781 -5.101562 2 -4.71875 C 1.707031 -4.332031 1.5625 -3.753906 1.5625 -2.984375 Z M 1.5625 -2.984375 "/></g></g></g><g fill="#000000" fill-opacity="1"><g transform="translate(46.708654, 138.66462)"><g><path d="M 1.796875 -5.953125 L 1.796875 -2.09375 C 1.796875 -1.601562 1.90625 -1.238281 2.125 -1 C 2.351562 -0.757812 2.703125 -0.640625 3.171875 -0.640625 C 3.796875 -0.640625 4.25 -0.8125 4.53125 -1.15625 C 4.820312 -1.5 4.96875 -2.054688 4.96875 -2.828125 L 4.96875 -5.953125 L 5.875 -5.953125 L 5.875 0 L 5.125 0 L 5 -0.796875 L 4.953125 -0.796875 C 4.765625 -0.503906 4.503906 -0.28125 4.171875 -0.125 C 3.847656 0.03125 3.476562 0.109375 3.0625 0.109375 C 2.332031 0.109375 1.785156 -0.0625 1.421875 -0.40625 C 1.066406 -0.75 0.890625 -1.300781 0.890625 -2.0625 L 0.890625 -5.953125 Z M 1.796875 -5.953125 "/></g></g></g><g fill="#000000" fill-opacity="1"><g transform="translate(53.532101, 138.66462)"><g><path d="M 3.671875 -6.0625 C 3.929688 -6.0625 4.171875 -6.039062 4.390625 -6 L 4.265625 -5.15625 C 4.015625 -5.207031 3.796875 -5.234375 3.609375 -5.234375 C 3.128906 -5.234375 2.71875 -5.035156 2.375 -4.640625 C 2.03125 -4.253906 1.859375 -3.769531 1.859375 -3.1875 L 1.859375 0 L 0.953125 0 L 0.953125 -5.953125 L 1.703125 -5.953125 L 1.796875 -4.84375 L 1.84375 -4.84375 C 2.0625 -5.238281 2.328125 -5.539062 2.640625 -5.75 C 2.953125 -5.957031 3.296875 -6.0625 3.671875 -6.0625 Z M 3.671875 -6.0625 "/></g></g></g><g fill="#000000" fill-opacity="1"><g transform="translate(58.070206, 138.66462)"><g><path d="M 3.328125 0.109375 C 2.472656 0.109375 1.804688 -0.15625 1.328125 -0.6875 C 0.859375 -1.21875 0.625 -1.96875 0.625 -2.9375 C 0.625 -3.9375 0.863281 -4.707031 1.34375 -5.25 C 1.820312 -5.789062 2.503906 -6.0625 3.390625 -6.0625 C 3.679688 -6.0625 3.96875 -6.03125 4.25 -5.96875 C 4.539062 -5.90625 4.765625 -5.832031 4.921875 -5.75 L 4.65625 -4.984375 C 4.445312 -5.066406 4.222656 -5.132812 3.984375 -5.1875 C 3.753906 -5.238281 3.550781 -5.265625 3.375 -5.265625 C 2.164062 -5.265625 1.5625 -4.492188 1.5625 -2.953125 C 1.5625 -2.222656 1.707031 -1.660156 2 -1.265625 C 2.289062 -0.867188 2.726562 -0.671875 3.3125 -0.671875 C 3.8125 -0.671875 4.320312 -0.78125 4.84375 -1 L 4.84375 -0.203125 C 4.445312 0.00390625 3.941406 0.109375 3.328125 0.109375 Z M 3.328125 0.109375 "/></g></g></g><g fill="#000000" fill-opacity="1"><g transform="translate(63.362857, 138.66462)"><g><path d="M 1.859375 0 L 0.953125 0 L 0.953125 -5.953125 L 1.859375 -5.953125 Z M 0.875 -7.5625 C 0.875 -7.769531 0.925781 -7.921875 1.03125 -8.015625 C 1.132812 -8.117188 1.257812 -8.171875 1.40625 -8.171875 C 1.550781 -8.171875 1.675781 -8.117188 1.78125 -8.015625 C 1.882812 -7.921875 1.9375 -7.769531 1.9375 -7.5625 C 1.9375 -7.363281 1.882812 -7.210938 1.78125 -7.109375 C 1.675781 -7.015625 1.550781 -6.96875 1.40625 -6.96875 C 1.257812 -6.96875 1.132812 -7.015625 1.03125 -7.109375 C 0.925781 -7.210938 0.875 -7.363281 0.875 -7.5625 Z M 0.875 -7.5625 "/></g></g></g><g fill="#000000" fill-opacity="1"><g transform="translate(66.174745, 138.66462)"><g><path d="M 5.03125 0 L 5.03125 -3.84375 C 5.03125 -4.332031 4.921875 -4.695312 4.703125 -4.9375 C 4.484375 -5.175781 4.132812 -5.296875 3.65625 -5.296875 C 3.039062 -5.296875 2.585938 -5.125 2.296875 -4.78125 C 2.003906 -4.445312 1.859375 -3.894531 1.859375 -3.125 L 1.859375 0 L 0.953125 0 L 0.953125 -5.953125 L 1.6875 -5.953125 L 1.84375 -5.140625 L 1.875 -5.140625 C 2.0625 -5.429688 2.320312 -5.65625 2.65625 -5.8125 C 2.988281 -5.976562 3.359375 -6.0625 3.765625 -6.0625 C 4.484375 -6.0625 5.023438 -5.890625 5.390625 -5.546875 C 5.753906 -5.203125 5.9375 -4.648438 5.9375 -3.890625 L 5.9375 0 Z M 5.03125 0 "/></g></g></g><g fill="#000000" fill-opacity="1"><g transform="translate(72.998192, 138.66462)"><g><path d="M 5.828125 -5.953125 L 5.828125 -5.390625 L 4.71875 -5.25 C 4.820312 -5.125 4.910156 -4.957031 4.984375 -4.75 C 5.066406 -4.550781 5.109375 -4.320312 5.109375 -4.0625 C 5.109375 -3.476562 4.910156 -3.007812 4.515625 -2.65625 C 4.117188 -2.3125 3.570312 -2.140625 2.875 -2.140625 C 2.695312 -2.140625 2.53125 -2.15625 2.375 -2.1875 C 1.988281 -1.988281 1.796875 -1.734375 1.796875 -1.421875 C 1.796875 -1.253906 1.863281 -1.128906 2 -1.046875 C 2.132812 -0.972656 2.363281 -0.9375 2.6875 -0.9375 L 3.75 -0.9375 C 4.394531 -0.9375 4.890625 -0.800781 5.234375 -0.53125 C 5.578125 -0.257812 5.75 0.128906 5.75 0.640625 C 5.75 1.304688 5.484375 1.8125 4.953125 2.15625 C 4.429688 2.5 3.660156 2.671875 2.640625 2.671875 C 1.867188 2.671875 1.269531 2.523438 0.84375 2.234375 C 0.425781 1.941406 0.21875 1.535156 0.21875 1.015625 C 0.21875 0.648438 0.332031 0.332031 0.5625 0.0625 C 0.789062 -0.195312 1.113281 -0.375 1.53125 -0.46875 C 1.382812 -0.539062 1.257812 -0.644531 1.15625 -0.78125 C 1.050781 -0.925781 1 -1.097656 1 -1.296875 C 1 -1.515625 1.054688 -1.703125 1.171875 -1.859375 C 1.285156 -2.023438 1.46875 -2.179688 1.71875 -2.328125 C 1.414062 -2.460938 1.164062 -2.679688 0.96875 -2.984375 C 0.769531 -3.285156 0.671875 -3.632812 0.671875 -4.03125 C 0.671875 -4.675781 0.867188 -5.175781 1.265625 -5.53125 C 1.660156 -5.882812 2.210938 -6.0625 2.921875 -6.0625 C 3.234375 -6.0625 3.515625 -6.023438 3.765625 -5.953125 Z M 1.078125 1 C 1.078125 1.320312 1.210938 1.566406 1.484375 1.734375 C 1.753906 1.898438 2.144531 1.984375 2.65625 1.984375 C 3.414062 1.984375 3.976562 1.867188 4.34375 1.640625 C 4.707031 1.410156 4.890625 1.101562 4.890625 0.71875 C 4.890625 0.394531 4.785156 0.171875 4.578125 0.046875 C 4.378906 -0.078125 4.003906 -0.140625 3.453125 -0.140625 L 2.375 -0.140625 C 1.96875 -0.140625 1.648438 -0.0390625 1.421875 0.15625 C 1.191406 0.351562 1.078125 0.632812 1.078125 1 Z M 1.5625 -4.046875 C 1.5625 -3.628906 1.679688 -3.3125 1.921875 -3.09375 C 2.160156 -2.882812 2.488281 -2.78125 2.90625 -2.78125 C 3.78125 -2.78125 4.21875 -3.207031 4.21875 -4.0625 C 4.21875 -4.957031 3.773438 -5.40625 2.890625 -5.40625 C 2.460938 -5.40625 2.132812 -5.289062 1.90625 -5.0625 C 1.675781 -4.832031 1.5625 -4.492188 1.5625 -4.046875 Z M 1.5625 -4.046875 "/></g></g></g><g fill="#000000" fill-opacity="1"><g transform="translate(36.251677, 153.971908)"><g><path d="M 5.765625 0 L 0.546875 0 L 0.546875 -0.78125 L 2.640625 -2.875 C 3.273438 -3.519531 3.691406 -3.976562 3.890625 -4.25 C 4.097656 -4.53125 4.25 -4.800781 4.34375 -5.0625 C 4.445312 -5.320312 4.5 -5.601562 4.5 -5.90625 C 4.5 -6.332031 4.367188 -6.664062 4.109375 -6.90625 C 3.859375 -7.15625 3.503906 -7.28125 3.046875 -7.28125 C 2.710938 -7.28125 2.398438 -7.222656 2.109375 -7.109375 C 1.816406 -7.003906 1.488281 -6.8125 1.125 -6.53125 L 0.640625 -7.140625 C 1.378906 -7.753906 2.175781 -8.0625 3.03125 -8.0625 C 3.78125 -8.0625 4.363281 -7.867188 4.78125 -7.484375 C 5.207031 -7.097656 5.421875 -6.582031 5.421875 -5.9375 C 5.421875 -5.4375 5.28125 -4.9375 5 -4.4375 C 4.71875 -3.945312 4.191406 -3.328125 3.421875 -2.578125 L 1.671875 -0.875 L 1.671875 -0.84375 L 5.765625 -0.84375 Z M 5.765625 0 "/></g></g></g><g fill="#000000" fill-opacity="1"><g transform="translate(42.608286, 153.971908)"><g><path d="M 3.03125 -4.84375 C 3.863281 -4.84375 4.519531 -4.632812 5 -4.21875 C 5.476562 -3.8125 5.71875 -3.25 5.71875 -2.53125 C 5.71875 -1.707031 5.457031 -1.0625 4.9375 -0.59375 C 4.414062 -0.125 3.691406 0.109375 2.765625 0.109375 C 1.867188 0.109375 1.1875 -0.0351562 0.71875 -0.328125 L 0.71875 -1.1875 C 0.976562 -1.019531 1.296875 -0.890625 1.671875 -0.796875 C 2.046875 -0.710938 2.414062 -0.671875 2.78125 -0.671875 C 3.414062 -0.671875 3.910156 -0.816406 4.265625 -1.109375 C 4.617188 -1.410156 4.796875 -1.847656 4.796875 -2.421875 C 4.796875 -3.523438 4.117188 -4.078125 2.765625 -4.078125 C 2.421875 -4.078125 1.957031 -4.023438 1.375 -3.921875 L 0.90625 -4.21875 L 1.21875 -7.9375 L 5.15625 -7.9375 L 5.15625 -7.109375 L 1.984375 -7.109375 L 1.78125 -4.71875 C 2.195312 -4.800781 2.613281 -4.84375 3.03125 -4.84375 Z M 3.03125 -4.84375 "/></g></g></g><g fill="#000000" fill-opacity="1"><g transform="translate(48.964895, 153.971908)"><g><path d="M 1.3125 -5.578125 C 1.3125 -4.960938 1.378906 -4.5 1.515625 -4.1875 C 1.648438 -3.875 1.867188 -3.71875 2.171875 -3.71875 C 2.765625 -3.71875 3.0625 -4.335938 3.0625 -5.578125 C 3.0625 -6.796875 2.765625 -7.40625 2.171875 -7.40625 C 1.867188 -7.40625 1.648438 -7.253906 1.515625 -6.953125 C 1.378906 -6.648438 1.3125 -6.191406 1.3125 -5.578125 Z M 3.796875 -5.578125 C 3.796875 -4.742188 3.65625 -4.113281 3.375 -3.6875 C 3.101562 -3.269531 2.703125 -3.0625 2.171875 -3.0625 C 1.660156 -3.0625 1.265625 -3.273438 0.984375 -3.703125 C 0.703125 -4.140625 0.5625 -4.765625 0.5625 -5.578125 C 0.5625 -6.398438 0.695312 -7.019531 0.96875 -7.4375 C 1.238281 -7.851562 1.640625 -8.0625 2.171875 -8.0625 C 2.691406 -8.0625 3.09375 -7.84375 3.375 -7.40625 C 3.65625 -6.976562 3.796875 -6.367188 3.796875 -5.578125 Z M 6.09375 -2.390625 C 6.09375 -1.773438 6.160156 -1.3125 6.296875 -1 C 6.429688 -0.695312 6.648438 -0.546875 6.953125 -0.546875 C 7.253906 -0.546875 7.476562 -0.695312 7.625 -1 C 7.769531 -1.300781 7.84375 -1.765625 7.84375 -2.390625 C 7.84375 -3.003906 7.769531 -3.460938 7.625 -3.765625 C 7.476562 -4.066406 7.253906 -4.21875 6.953125 -4.21875 C 6.648438 -4.21875 6.429688 -4.066406 6.296875 -3.765625 C 6.160156 -3.460938 6.09375 -3.003906 6.09375 -2.390625 Z M 8.59375 -2.390625 C 8.59375 -1.566406 8.453125 -0.941406 8.171875 -0.515625 C 7.890625 -0.0976562 7.484375 0.109375 6.953125 0.109375 C 6.441406 0.109375 6.046875 -0.101562 5.765625 -0.53125 C 5.484375 -0.96875 5.34375 -1.585938 5.34375 -2.390625 C 5.34375 -3.210938 5.476562 -3.832031 5.75 -4.25 C 6.019531 -4.664062 6.421875 -4.875 6.953125 -4.875 C 7.460938 -4.875 7.863281 -4.660156 8.15625 -4.234375 C 8.445312 -3.804688 8.59375 -3.191406 8.59375 -2.390625 Z M 7.1875 -7.9375 L 2.78125 0 L 1.984375 0 L 6.390625 -7.9375 Z M 7.1875 -7.9375 "/></g></g></g><g fill="#000000" fill-opacity="1"><g transform="translate(273.717368, 304.853554)"><g><path d="M 8.015625 0 L 7.109375 0 L 5.515625 -5.3125 C 5.429688 -5.550781 5.34375 -5.847656 5.25 -6.203125 C 5.15625 -6.566406 5.109375 -6.785156 5.109375 -6.859375 C 5.023438 -6.378906 4.894531 -5.851562 4.71875 -5.28125 L 3.171875 0 L 2.265625 0 L 0.140625 -7.9375 L 1.125 -7.9375 L 2.375 -3.03125 C 2.550781 -2.34375 2.679688 -1.722656 2.765625 -1.171875 C 2.859375 -1.828125 3 -2.472656 3.1875 -3.109375 L 4.625 -7.9375 L 5.59375 -7.9375 L 7.09375 -3.0625 C 7.257812 -2.507812 7.40625 -1.878906 7.53125 -1.171875 C 7.59375 -1.679688 7.722656 -2.304688 7.921875 -3.046875 L 9.171875 -7.9375 L 10.140625 -7.9375 Z M 8.015625 0 "/></g></g></g><g fill="#000000" fill-opacity="1"><g transform="translate(284.00953, 304.853554)"><g><path d="M 3.46875 0.109375 C 2.59375 0.109375 1.898438 -0.15625 1.390625 -0.6875 C 0.878906 -1.226562 0.625 -1.972656 0.625 -2.921875 C 0.625 -3.890625 0.859375 -4.65625 1.328125 -5.21875 C 1.804688 -5.78125 2.441406 -6.0625 3.234375 -6.0625 C 3.984375 -6.0625 4.570312 -5.816406 5 -5.328125 C 5.4375 -4.835938 5.65625 -4.191406 5.65625 -3.390625 L 5.65625 -2.8125 L 1.5625 -2.8125 C 1.582031 -2.113281 1.757812 -1.582031 2.09375 -1.21875 C 2.425781 -0.851562 2.894531 -0.671875 3.5 -0.671875 C 4.144531 -0.671875 4.78125 -0.804688 5.40625 -1.078125 L 5.40625 -0.28125 C 5.082031 -0.144531 4.78125 -0.046875 4.5 0.015625 C 4.21875 0.078125 3.875 0.109375 3.46875 0.109375 Z M 3.234375 -5.3125 C 2.753906 -5.3125 2.367188 -5.15625 2.078125 -4.84375 C 1.796875 -4.53125 1.628906 -4.097656 1.578125 -3.546875 L 4.6875 -3.546875 C 4.6875 -4.117188 4.5625 -4.554688 4.3125 -4.859375 C 4.0625 -5.160156 3.703125 -5.3125 3.234375 -5.3125 Z M 3.234375 -5.3125 "/></g></g></g><g fill="#000000" fill-opacity="1"><g transform="translate(290.246715, 304.853554)"><g><path d="M 3.71875 -6.046875 C 4.507812 -6.046875 5.117188 -5.78125 5.546875 -5.25 C 5.984375 -4.71875 6.203125 -3.960938 6.203125 -2.984375 C 6.203125 -2.003906 5.984375 -1.242188 5.546875 -0.703125 C 5.109375 -0.160156 4.5 0.109375 3.71875 0.109375 C 3.332031 0.109375 2.976562 0.0351562 2.65625 -0.109375 C 2.34375 -0.253906 2.078125 -0.472656 1.859375 -0.765625 L 1.796875 -0.765625 L 1.609375 0 L 0.953125 0 L 0.953125 -8.453125 L 1.859375 -8.453125 L 1.859375 -6.40625 C 1.859375 -5.9375 1.84375 -5.519531 1.8125 -5.15625 L 1.859375 -5.15625 C 2.273438 -5.75 2.894531 -6.046875 3.71875 -6.046875 Z M 3.59375 -5.296875 C 2.976562 -5.296875 2.535156 -5.117188 2.265625 -4.765625 C 1.992188 -4.410156 1.859375 -3.816406 1.859375 -2.984375 C 1.859375 -2.148438 1.992188 -1.550781 2.265625 -1.1875 C 2.546875 -0.820312 3 -0.640625 3.625 -0.640625 C 4.175781 -0.640625 4.585938 -0.84375 4.859375 -1.25 C 5.128906 -1.65625 5.265625 -2.238281 5.265625 -3 C 5.265625 -3.769531 5.128906 -4.34375 4.859375 -4.71875 C 4.585938 -5.101562 4.164062 -5.296875 3.59375 -5.296875 Z M 3.59375 -5.296875 "/></g></g></g><g fill="#000000" fill-opacity="1"><g transform="translate(297.059305, 304.853554)"><g/></g></g><g fill="#000000" fill-opacity="1"><g transform="translate(299.94719, 304.853554)"><g><path d="M 6.078125 0 L 5.09375 -2.53125 L 1.90625 -2.53125 L 0.9375 0 L 0 0 L 3.140625 -7.96875 L 3.921875 -7.96875 L 7.046875 0 Z M 4.8125 -3.359375 L 3.890625 -5.8125 C 3.765625 -6.125 3.640625 -6.507812 3.515625 -6.96875 C 3.429688 -6.613281 3.316406 -6.226562 3.171875 -5.8125 L 2.234375 -3.359375 Z M 4.8125 -3.359375 "/></g></g></g><g fill="#000000" fill-opacity="1"><g transform="translate(306.982339, 304.853554)"><g><path d="M 3.71875 0.109375 C 3.332031 0.109375 2.976562 0.0351562 2.65625 -0.109375 C 2.34375 -0.253906 2.078125 -0.472656 1.859375 -0.765625 L 1.796875 -0.765625 C 1.835938 -0.421875 1.859375 -0.09375 1.859375 0.21875 L 1.859375 2.671875 L 0.953125 2.671875 L 0.953125 -5.953125 L 1.6875 -5.953125 L 1.8125 -5.140625 L 1.859375 -5.140625 C 2.085938 -5.460938 2.351562 -5.695312 2.65625 -5.84375 C 2.96875 -5.988281 3.320312 -6.0625 3.71875 -6.0625 C 4.507812 -6.0625 5.117188 -5.789062 5.546875 -5.25 C 5.984375 -4.707031 6.203125 -3.953125 6.203125 -2.984375 C 6.203125 -2.003906 5.984375 -1.242188 5.546875 -0.703125 C 5.109375 -0.160156 4.5 0.109375 3.71875 0.109375 Z M 3.59375 -5.296875 C 2.988281 -5.296875 2.550781 -5.125 2.28125 -4.78125 C 2.007812 -4.445312 1.867188 -3.914062 1.859375 -3.1875 L 1.859375 -2.984375 C 1.859375 -2.148438 1.992188 -1.550781 2.265625 -1.1875 C 2.546875 -0.820312 3 -0.640625 3.625 -0.640625 C 4.132812 -0.640625 4.535156 -0.847656 4.828125 -1.265625 C 5.117188 -1.679688 5.265625 -2.257812 5.265625 -3 C 5.265625 -3.738281 5.117188 -4.304688 4.828125 -4.703125 C 4.535156 -5.097656 4.125 -5.296875 3.59375 -5.296875 Z M 3.59375 -5.296875 "/></g></g></g><g fill="#000000" fill-opacity="1"><g transform="translate(313.79493, 304.853554)"><g><path d="M 3.71875 0.109375 C 3.332031 0.109375 2.976562 0.0351562 2.65625 -0.109375 C 2.34375 -0.253906 2.078125 -0.472656 1.859375 -0.765625 L 1.796875 -0.765625 C 1.835938 -0.421875 1.859375 -0.09375 1.859375 0.21875 L 1.859375 2.671875 L 0.953125 2.671875 L 0.953125 -5.953125 L 1.6875 -5.953125 L 1.8125 -5.140625 L 1.859375 -5.140625 C 2.085938 -5.460938 2.351562 -5.695312 2.65625 -5.84375 C 2.96875 -5.988281 3.320312 -6.0625 3.71875 -6.0625 C 4.507812 -6.0625 5.117188 -5.789062 5.546875 -5.25 C 5.984375 -4.707031 6.203125 -3.953125 6.203125 -2.984375 C 6.203125 -2.003906 5.984375 -1.242188 5.546875 -0.703125 C 5.109375 -0.160156 4.5 0.109375 3.71875 0.109375 Z M 3.59375 -5.296875 C 2.988281 -5.296875 2.550781 -5.125 2.28125 -4.78125 C 2.007812 -4.445312 1.867188 -3.914062 1.859375 -3.1875 L 1.859375 -2.984375 C 1.859375 -2.148438 1.992188 -1.550781 2.265625 -1.1875 C 2.546875 -0.820312 3 -0.640625 3.625 -0.640625 C 4.132812 -0.640625 4.535156 -0.847656 4.828125 -1.265625 C 5.117188 -1.679688 5.265625 -2.257812 5.265625 -3 C 5.265625 -3.738281 5.117188 -4.304688 4.828125 -4.703125 C 4.535156 -5.097656 4.125 -5.296875 3.59375 -5.296875 Z M 3.59375 -5.296875 "/></g></g></g><g fill="#000000" fill-opacity="1"><g transform="translate(320.60752, 304.853554)"><g><path d="M 4.796875 -1.625 C 4.796875 -1.070312 4.585938 -0.644531 4.171875 -0.34375 C 3.765625 -0.0390625 3.1875 0.109375 2.4375 0.109375 C 1.644531 0.109375 1.03125 -0.015625 0.59375 -0.265625 L 0.59375 -1.109375 C 0.875 -0.960938 1.175781 -0.847656 1.5 -0.765625 C 1.832031 -0.679688 2.148438 -0.640625 2.453125 -0.640625 C 2.929688 -0.640625 3.296875 -0.710938 3.546875 -0.859375 C 3.796875 -1.015625 3.921875 -1.242188 3.921875 -1.546875 C 3.921875 -1.773438 3.820312 -1.972656 3.625 -2.140625 C 3.425781 -2.304688 3.035156 -2.503906 2.453125 -2.734375 C 1.898438 -2.929688 1.503906 -3.109375 1.265625 -3.265625 C 1.035156 -3.421875 0.863281 -3.59375 0.75 -3.78125 C 0.632812 -3.976562 0.578125 -4.21875 0.578125 -4.5 C 0.578125 -4.976562 0.773438 -5.359375 1.171875 -5.640625 C 1.566406 -5.921875 2.109375 -6.0625 2.796875 -6.0625 C 3.429688 -6.0625 4.054688 -5.929688 4.671875 -5.671875 L 4.34375 -4.9375 C 3.75 -5.1875 3.210938 -5.3125 2.734375 -5.3125 C 2.304688 -5.3125 1.984375 -5.242188 1.765625 -5.109375 C 1.546875 -4.972656 1.4375 -4.785156 1.4375 -4.546875 C 1.4375 -4.390625 1.472656 -4.253906 1.546875 -4.140625 C 1.628906 -4.023438 1.757812 -3.914062 1.9375 -3.8125 C 2.125 -3.71875 2.476562 -3.578125 3 -3.390625 C 3.695312 -3.128906 4.171875 -2.867188 4.421875 -2.609375 C 4.671875 -2.347656 4.796875 -2.019531 4.796875 -1.625 Z M 4.796875 -1.625 "/></g></g></g><g fill="#000000" fill-opacity="1"><g transform="translate(288.882921, 320.160842)"><g><path d="M 5.765625 0 L 0.546875 0 L 0.546875 -0.78125 L 2.640625 -2.875 C 3.273438 -3.519531 3.691406 -3.976562 3.890625 -4.25 C 4.097656 -4.53125 4.25 -4.800781 4.34375 -5.0625 C 4.445312 -5.320312 4.5 -5.601562 4.5 -5.90625 C 4.5 -6.332031 4.367188 -6.664062 4.109375 -6.90625 C 3.859375 -7.15625 3.503906 -7.28125 3.046875 -7.28125 C 2.710938 -7.28125 2.398438 -7.222656 2.109375 -7.109375 C 1.816406 -7.003906 1.488281 -6.8125 1.125 -6.53125 L 0.640625 -7.140625 C 1.378906 -7.753906 2.175781 -8.0625 3.03125 -8.0625 C 3.78125 -8.0625 4.363281 -7.867188 4.78125 -7.484375 C 5.207031 -7.097656 5.421875 -6.582031 5.421875 -5.9375 C 5.421875 -5.4375 5.28125 -4.9375 5 -4.4375 C 4.71875 -3.945312 4.191406 -3.328125 3.421875 -2.578125 L 1.671875 -0.875 L 1.671875 -0.84375 L 5.765625 -0.84375 Z M 5.765625 0 "/></g></g></g><g fill="#000000" fill-opacity="1"><g transform="translate(295.23953, 320.160842)"><g><path d="M 5.8125 -3.984375 C 5.8125 -2.609375 5.59375 -1.582031 5.15625 -0.90625 C 4.726562 -0.226562 4.066406 0.109375 3.171875 0.109375 C 2.316406 0.109375 1.664062 -0.234375 1.21875 -0.921875 C 0.769531 -1.617188 0.546875 -2.640625 0.546875 -3.984375 C 0.546875 -5.367188 0.757812 -6.394531 1.1875 -7.0625 C 1.625 -7.726562 2.285156 -8.0625 3.171875 -8.0625 C 4.035156 -8.0625 4.691406 -7.710938 5.140625 -7.015625 C 5.585938 -6.316406 5.8125 -5.304688 5.8125 -3.984375 Z M 1.46875 -3.984375 C 1.46875 -2.828125 1.601562 -1.984375 1.875 -1.453125 C 2.144531 -0.929688 2.578125 -0.671875 3.171875 -0.671875 C 3.773438 -0.671875 4.210938 -0.9375 4.484375 -1.46875 C 4.753906 -2 4.890625 -2.835938 4.890625 -3.984375 C 4.890625 -5.117188 4.753906 -5.953125 4.484375 -6.484375 C 4.210938 -7.015625 3.773438 -7.28125 3.171875 -7.28125 C 2.578125 -7.28125 2.144531 -7.019531 1.875 -6.5 C 1.601562 -5.976562 1.46875 -5.140625 1.46875 -3.984375 Z M 1.46875 -3.984375 "/></g></g></g><g fill="#000000" fill-opacity="1"><g transform="translate(301.596139, 320.160842)"><g><path d="M 1.3125 -5.578125 C 1.3125 -4.960938 1.378906 -4.5 1.515625 -4.1875 C 1.648438 -3.875 1.867188 -3.71875 2.171875 -3.71875 C 2.765625 -3.71875 3.0625 -4.335938 3.0625 -5.578125 C 3.0625 -6.796875 2.765625 -7.40625 2.171875 -7.40625 C 1.867188 -7.40625 1.648438 -7.253906 1.515625 -6.953125 C 1.378906 -6.648438 1.3125 -6.191406 1.3125 -5.578125 Z M 3.796875 -5.578125 C 3.796875 -4.742188 3.65625 -4.113281 3.375 -3.6875 C 3.101562 -3.269531 2.703125 -3.0625 2.171875 -3.0625 C 1.660156 -3.0625 1.265625 -3.273438 0.984375 -3.703125 C 0.703125 -4.140625 0.5625 -4.765625 0.5625 -5.578125 C 0.5625 -6.398438 0.695312 -7.019531 0.96875 -7.4375 C 1.238281 -7.851562 1.640625 -8.0625 2.171875 -8.0625 C 2.691406 -8.0625 3.09375 -7.84375 3.375 -7.40625 C 3.65625 -6.976562 3.796875 -6.367188 3.796875 -5.578125 Z M 6.09375 -2.390625 C 6.09375 -1.773438 6.160156 -1.3125 6.296875 -1 C 6.429688 -0.695312 6.648438 -0.546875 6.953125 -0.546875 C 7.253906 -0.546875 7.476562 -0.695312 7.625 -1 C 7.769531 -1.300781 7.84375 -1.765625 7.84375 -2.390625 C 7.84375 -3.003906 7.769531 -3.460938 7.625 -3.765625 C 7.476562 -4.066406 7.253906 -4.21875 6.953125 -4.21875 C 6.648438 -4.21875 6.429688 -4.066406 6.296875 -3.765625 C 6.160156 -3.460938 6.09375 -3.003906 6.09375 -2.390625 Z M 8.59375 -2.390625 C 8.59375 -1.566406 8.453125 -0.941406 8.171875 -0.515625 C 7.890625 -0.0976562 7.484375 0.109375 6.953125 0.109375 C 6.441406 0.109375 6.046875 -0.101562 5.765625 -0.53125 C 5.484375 -0.96875 5.34375 -1.585938 5.34375 -2.390625 C 5.34375 -3.210938 5.476562 -3.832031 5.75 -4.25 C 6.019531 -4.664062 6.421875 -4.875 6.953125 -4.875 C 7.460938 -4.875 7.863281 -4.660156 8.15625 -4.234375 C 8.445312 -3.804688 8.59375 -3.191406 8.59375 -2.390625 Z M 7.1875 -7.9375 L 2.78125 0 L 1.984375 0 L 6.390625 -7.9375 Z M 7.1875 -7.9375 "/></g></g></g><g fill="#000000" fill-opacity="1"><g transform="translate(55.673953, 304.853554)"><g><path d="M 4.5 -7.234375 C 3.625 -7.234375 2.929688 -6.941406 2.421875 -6.359375 C 1.921875 -5.773438 1.671875 -4.976562 1.671875 -3.96875 C 1.671875 -2.925781 1.910156 -2.125 2.390625 -1.5625 C 2.878906 -1 3.578125 -0.71875 4.484375 -0.71875 C 5.035156 -0.71875 5.664062 -0.816406 6.375 -1.015625 L 6.375 -0.203125 C 5.820312 0.00390625 5.144531 0.109375 4.34375 0.109375 C 3.164062 0.109375 2.257812 -0.242188 1.625 -0.953125 C 0.988281 -1.660156 0.671875 -2.671875 0.671875 -3.984375 C 0.671875 -4.796875 0.820312 -5.507812 1.125 -6.125 C 1.4375 -6.75 1.878906 -7.226562 2.453125 -7.5625 C 3.035156 -7.894531 3.71875 -8.0625 4.5 -8.0625 C 5.332031 -8.0625 6.0625 -7.90625 6.6875 -7.59375 L 6.296875 -6.8125 C 5.691406 -7.09375 5.09375 -7.234375 4.5 -7.234375 Z M 4.5 -7.234375 "/></g></g></g><g fill="#000000" fill-opacity="1"><g transform="translate(62.687388, 304.853554)"><g><path d="M 6.09375 -2.984375 C 6.09375 -2.015625 5.847656 -1.253906 5.359375 -0.703125 C 4.867188 -0.160156 4.191406 0.109375 3.328125 0.109375 C 2.796875 0.109375 2.320312 -0.015625 1.90625 -0.265625 C 1.5 -0.515625 1.179688 -0.875 0.953125 -1.34375 C 0.734375 -1.8125 0.625 -2.359375 0.625 -2.984375 C 0.625 -3.953125 0.863281 -4.707031 1.34375 -5.25 C 1.832031 -5.789062 2.507812 -6.0625 3.375 -6.0625 C 4.207031 -6.0625 4.867188 -5.785156 5.359375 -5.234375 C 5.847656 -4.679688 6.09375 -3.929688 6.09375 -2.984375 Z M 1.5625 -2.984375 C 1.5625 -2.222656 1.710938 -1.640625 2.015625 -1.234375 C 2.316406 -0.835938 2.765625 -0.640625 3.359375 -0.640625 C 3.953125 -0.640625 4.398438 -0.835938 4.703125 -1.234375 C 5.003906 -1.640625 5.15625 -2.222656 5.15625 -2.984375 C 5.15625 -3.742188 5.003906 -4.316406 4.703125 -4.703125 C 4.398438 -5.097656 3.945312 -5.296875 3.34375 -5.296875 C 2.75 -5.296875 2.300781 -5.101562 2 -4.71875 C 1.707031 -4.332031 1.5625 -3.753906 1.5625 -2.984375 Z M 1.5625 -2.984375 "/></g></g></g><g fill="#000000" fill-opacity="1"><g transform="translate(69.402268, 304.853554)"><g><path d="M 5.03125 0 L 5.03125 -3.84375 C 5.03125 -4.332031 4.921875 -4.695312 4.703125 -4.9375 C 4.484375 -5.175781 4.132812 -5.296875 3.65625 -5.296875 C 3.039062 -5.296875 2.585938 -5.125 2.296875 -4.78125 C 2.003906 -4.445312 1.859375 -3.894531 1.859375 -3.125 L 1.859375 0 L 0.953125 0 L 0.953125 -5.953125 L 1.6875 -5.953125 L 1.84375 -5.140625 L 1.875 -5.140625 C 2.0625 -5.429688 2.320312 -5.65625 2.65625 -5.8125 C 2.988281 -5.976562 3.359375 -6.0625 3.765625 -6.0625 C 4.484375 -6.0625 5.023438 -5.890625 5.390625 -5.546875 C 5.753906 -5.203125 5.9375 -4.648438 5.9375 -3.890625 L 5.9375 0 Z M 5.03125 0 "/></g></g></g><g fill="#000000" fill-opacity="1"><g transform="translate(76.225715, 304.853554)"><g><path d="M 4.796875 -1.625 C 4.796875 -1.070312 4.585938 -0.644531 4.171875 -0.34375 C 3.765625 -0.0390625 3.1875 0.109375 2.4375 0.109375 C 1.644531 0.109375 1.03125 -0.015625 0.59375 -0.265625 L 0.59375 -1.109375 C 0.875 -0.960938 1.175781 -0.847656 1.5 -0.765625 C 1.832031 -0.679688 2.148438 -0.640625 2.453125 -0.640625 C 2.929688 -0.640625 3.296875 -0.710938 3.546875 -0.859375 C 3.796875 -1.015625 3.921875 -1.242188 3.921875 -1.546875 C 3.921875 -1.773438 3.820312 -1.972656 3.625 -2.140625 C 3.425781 -2.304688 3.035156 -2.503906 2.453125 -2.734375 C 1.898438 -2.929688 1.503906 -3.109375 1.265625 -3.265625 C 1.035156 -3.421875 0.863281 -3.59375 0.75 -3.78125 C 0.632812 -3.976562 0.578125 -4.21875 0.578125 -4.5 C 0.578125 -4.976562 0.773438 -5.359375 1.171875 -5.640625 C 1.566406 -5.921875 2.109375 -6.0625 2.796875 -6.0625 C 3.429688 -6.0625 4.054688 -5.929688 4.671875 -5.671875 L 4.34375 -4.9375 C 3.75 -5.1875 3.210938 -5.3125 2.734375 -5.3125 C 2.304688 -5.3125 1.984375 -5.242188 1.765625 -5.109375 C 1.546875 -4.972656 1.4375 -4.785156 1.4375 -4.546875 C 1.4375 -4.390625 1.472656 -4.253906 1.546875 -4.140625 C 1.628906 -4.023438 1.757812 -3.914062 1.9375 -3.8125 C 2.125 -3.71875 2.476562 -3.578125 3 -3.390625 C 3.695312 -3.128906 4.171875 -2.867188 4.421875 -2.609375 C 4.671875 -2.347656 4.796875 -2.019531 4.796875 -1.625 Z M 4.796875 -1.625 "/></g></g></g><g fill="#000000" fill-opacity="1"><g transform="translate(81.529223, 304.853554)"><g><path d="M 1.796875 -5.953125 L 1.796875 -2.09375 C 1.796875 -1.601562 1.90625 -1.238281 2.125 -1 C 2.351562 -0.757812 2.703125 -0.640625 3.171875 -0.640625 C 3.796875 -0.640625 4.25 -0.8125 4.53125 -1.15625 C 4.820312 -1.5 4.96875 -2.054688 4.96875 -2.828125 L 4.96875 -5.953125 L 5.875 -5.953125 L 5.875 0 L 5.125 0 L 5 -0.796875 L 4.953125 -0.796875 C 4.765625 -0.503906 4.503906 -0.28125 4.171875 -0.125 C 3.847656 0.03125 3.476562 0.109375 3.0625 0.109375 C 2.332031 0.109375 1.785156 -0.0625 1.421875 -0.40625 C 1.066406 -0.75 0.890625 -1.300781 0.890625 -2.0625 L 0.890625 -5.953125 Z M 1.796875 -5.953125 "/></g></g></g><g fill="#000000" fill-opacity="1"><g transform="translate(88.35267, 304.853554)"><g><path d="M 1.859375 0 L 0.953125 0 L 0.953125 -8.453125 L 1.859375 -8.453125 Z M 1.859375 0 "/></g></g></g><g fill="#000000" fill-opacity="1"><g transform="translate(91.164558, 304.853554)"><g><path d="M 2.875 -0.640625 C 3.039062 -0.640625 3.195312 -0.648438 3.34375 -0.671875 C 3.488281 -0.691406 3.601562 -0.71875 3.6875 -0.75 L 3.6875 -0.046875 C 3.59375 -0.00390625 3.453125 0.03125 3.265625 0.0625 C 3.078125 0.09375 2.90625 0.109375 2.75 0.109375 C 1.59375 0.109375 1.015625 -0.5 1.015625 -1.71875 L 1.015625 -5.25 L 0.171875 -5.25 L 0.171875 -5.6875 L 1.015625 -6.0625 L 1.40625 -7.328125 L 1.921875 -7.328125 L 1.921875 -5.953125 L 3.65625 -5.953125 L 3.65625 -5.25 L 1.921875 -5.25 L 1.921875 -1.75 C 1.921875 -1.394531 2.003906 -1.117188 2.171875 -0.921875 C 2.347656 -0.734375 2.582031 -0.640625 2.875 -0.640625 Z M 2.875 -0.640625 "/></g></g></g><g fill="#000000" fill-opacity="1"><g transform="translate(95.089264, 304.853554)"><g><path d="M 4.625 0 L 4.4375 -0.84375 L 4.390625 -0.84375 C 4.097656 -0.46875 3.800781 -0.210938 3.5 -0.078125 C 3.207031 0.046875 2.84375 0.109375 2.40625 0.109375 C 1.8125 0.109375 1.347656 -0.0390625 1.015625 -0.34375 C 0.679688 -0.644531 0.515625 -1.078125 0.515625 -1.640625 C 0.515625 -2.847656 1.472656 -3.476562 3.390625 -3.53125 L 4.40625 -3.5625 L 4.40625 -3.9375 C 4.40625 -4.40625 4.300781 -4.75 4.09375 -4.96875 C 3.894531 -5.195312 3.578125 -5.3125 3.140625 -5.3125 C 2.640625 -5.3125 2.078125 -5.15625 1.453125 -4.84375 L 1.171875 -5.546875 C 1.472656 -5.703125 1.796875 -5.820312 2.140625 -5.90625 C 2.492188 -6 2.84375 -6.046875 3.1875 -6.046875 C 3.90625 -6.046875 4.429688 -5.890625 4.765625 -5.578125 C 5.109375 -5.265625 5.28125 -4.757812 5.28125 -4.0625 L 5.28125 0 Z M 2.578125 -0.640625 C 3.140625 -0.640625 3.582031 -0.789062 3.90625 -1.09375 C 4.226562 -1.40625 4.390625 -1.835938 4.390625 -2.390625 L 4.390625 -2.921875 L 3.484375 -2.890625 C 2.765625 -2.867188 2.242188 -2.757812 1.921875 -2.5625 C 1.609375 -2.363281 1.453125 -2.054688 1.453125 -1.640625 C 1.453125 -1.304688 1.550781 -1.054688 1.75 -0.890625 C 1.945312 -0.722656 2.222656 -0.640625 2.578125 -0.640625 Z M 2.578125 -0.640625 "/></g></g></g><g fill="#000000" fill-opacity="1"><g transform="translate(101.272165, 304.853554)"><g><path d="M 5.03125 0 L 5.03125 -3.84375 C 5.03125 -4.332031 4.921875 -4.695312 4.703125 -4.9375 C 4.484375 -5.175781 4.132812 -5.296875 3.65625 -5.296875 C 3.039062 -5.296875 2.585938 -5.125 2.296875 -4.78125 C 2.003906 -4.445312 1.859375 -3.894531 1.859375 -3.125 L 1.859375 0 L 0.953125 0 L 0.953125 -5.953125 L 1.6875 -5.953125 L 1.84375 -5.140625 L 1.875 -5.140625 C 2.0625 -5.429688 2.320312 -5.65625 2.65625 -5.8125 C 2.988281 -5.976562 3.359375 -6.0625 3.765625 -6.0625 C 4.484375 -6.0625 5.023438 -5.890625 5.390625 -5.546875 C 5.753906 -5.203125 5.9375 -4.648438 5.9375 -3.890625 L 5.9375 0 Z M 5.03125 0 "/></g></g></g><g fill="#000000" fill-opacity="1"><g transform="translate(108.095612, 304.853554)"><g><path d="M 3.328125 0.109375 C 2.472656 0.109375 1.804688 -0.15625 1.328125 -0.6875 C 0.859375 -1.21875 0.625 -1.96875 0.625 -2.9375 C 0.625 -3.9375 0.863281 -4.707031 1.34375 -5.25 C 1.820312 -5.789062 2.503906 -6.0625 3.390625 -6.0625 C 3.679688 -6.0625 3.96875 -6.03125 4.25 -5.96875 C 4.539062 -5.90625 4.765625 -5.832031 4.921875 -5.75 L 4.65625 -4.984375 C 4.445312 -5.066406 4.222656 -5.132812 3.984375 -5.1875 C 3.753906 -5.238281 3.550781 -5.265625 3.375 -5.265625 C 2.164062 -5.265625 1.5625 -4.492188 1.5625 -2.953125 C 1.5625 -2.222656 1.707031 -1.660156 2 -1.265625 C 2.289062 -0.867188 2.726562 -0.671875 3.3125 -0.671875 C 3.8125 -0.671875 4.320312 -0.78125 4.84375 -1 L 4.84375 -0.203125 C 4.445312 0.00390625 3.941406 0.109375 3.328125 0.109375 Z M 3.328125 0.109375 "/></g></g></g><g fill="#000000" fill-opacity="1"><g transform="translate(113.388263, 304.853554)"><g><path d="M 0.015625 -5.953125 L 0.984375 -5.953125 L 2.28125 -2.5625 C 2.5625 -1.78125 2.738281 -1.21875 2.8125 -0.875 L 2.859375 -0.875 C 2.898438 -1.0625 2.992188 -1.378906 3.140625 -1.828125 C 3.296875 -2.273438 3.789062 -3.648438 4.625 -5.953125 L 5.59375 -5.953125 L 3.03125 0.828125 C 2.78125 1.492188 2.484375 1.96875 2.140625 2.25 C 1.804688 2.53125 1.394531 2.671875 0.90625 2.671875 C 0.625 2.671875 0.351562 2.640625 0.09375 2.578125 L 0.09375 1.859375 C 0.289062 1.898438 0.507812 1.921875 0.75 1.921875 C 1.375 1.921875 1.816406 1.570312 2.078125 0.875 L 2.40625 0.03125 Z M 0.015625 -5.953125 "/></g></g></g><g fill="#000000" fill-opacity="1"><g transform="translate(76.393713, 320.160842)"><g><path d="M 5.765625 0 L 0.546875 0 L 0.546875 -0.78125 L 2.640625 -2.875 C 3.273438 -3.519531 3.691406 -3.976562 3.890625 -4.25 C 4.097656 -4.53125 4.25 -4.800781 4.34375 -5.0625 C 4.445312 -5.320312 4.5 -5.601562 4.5 -5.90625 C 4.5 -6.332031 4.367188 -6.664062 4.109375 -6.90625 C 3.859375 -7.15625 3.503906 -7.28125 3.046875 -7.28125 C 2.710938 -7.28125 2.398438 -7.222656 2.109375 -7.109375 C 1.816406 -7.003906 1.488281 -6.8125 1.125 -6.53125 L 0.640625 -7.140625 C 1.378906 -7.753906 2.175781 -8.0625 3.03125 -8.0625 C 3.78125 -8.0625 4.363281 -7.867188 4.78125 -7.484375 C 5.207031 -7.097656 5.421875 -6.582031 5.421875 -5.9375 C 5.421875 -5.4375 5.28125 -4.9375 5 -4.4375 C 4.71875 -3.945312 4.191406 -3.328125 3.421875 -2.578125 L 1.671875 -0.875 L 1.671875 -0.84375 L 5.765625 -0.84375 Z M 5.765625 0 "/></g></g></g><g fill="#000000" fill-opacity="1"><g transform="translate(82.750322, 320.160842)"><g><path d="M 5.8125 -3.984375 C 5.8125 -2.609375 5.59375 -1.582031 5.15625 -0.90625 C 4.726562 -0.226562 4.066406 0.109375 3.171875 0.109375 C 2.316406 0.109375 1.664062 -0.234375 1.21875 -0.921875 C 0.769531 -1.617188 0.546875 -2.640625 0.546875 -3.984375 C 0.546875 -5.367188 0.757812 -6.394531 1.1875 -7.0625 C 1.625 -7.726562 2.285156 -8.0625 3.171875 -8.0625 C 4.035156 -8.0625 4.691406 -7.710938 5.140625 -7.015625 C 5.585938 -6.316406 5.8125 -5.304688 5.8125 -3.984375 Z M 1.46875 -3.984375 C 1.46875 -2.828125 1.601562 -1.984375 1.875 -1.453125 C 2.144531 -0.929688 2.578125 -0.671875 3.171875 -0.671875 C 3.773438 -0.671875 4.210938 -0.9375 4.484375 -1.46875 C 4.753906 -2 4.890625 -2.835938 4.890625 -3.984375 C 4.890625 -5.117188 4.753906 -5.953125 4.484375 -6.484375 C 4.210938 -7.015625 3.773438 -7.28125 3.171875 -7.28125 C 2.578125 -7.28125 2.144531 -7.019531 1.875 -6.5 C 1.601562 -5.976562 1.46875 -5.140625 1.46875 -3.984375 Z M 1.46875 -3.984375 "/></g></g></g><g fill="#000000" fill-opacity="1"><g transform="translate(89.106931, 320.160842)"><g><path d="M 1.3125 -5.578125 C 1.3125 -4.960938 1.378906 -4.5 1.515625 -4.1875 C 1.648438 -3.875 1.867188 -3.71875 2.171875 -3.71875 C 2.765625 -3.71875 3.0625 -4.335938 3.0625 -5.578125 C 3.0625 -6.796875 2.765625 -7.40625 2.171875 -7.40625 C 1.867188 -7.40625 1.648438 -7.253906 1.515625 -6.953125 C 1.378906 -6.648438 1.3125 -6.191406 1.3125 -5.578125 Z M 3.796875 -5.578125 C 3.796875 -4.742188 3.65625 -4.113281 3.375 -3.6875 C 3.101562 -3.269531 2.703125 -3.0625 2.171875 -3.0625 C 1.660156 -3.0625 1.265625 -3.273438 0.984375 -3.703125 C 0.703125 -4.140625 0.5625 -4.765625 0.5625 -5.578125 C 0.5625 -6.398438 0.695312 -7.019531 0.96875 -7.4375 C 1.238281 -7.851562 1.640625 -8.0625 2.171875 -8.0625 C 2.691406 -8.0625 3.09375 -7.84375 3.375 -7.40625 C 3.65625 -6.976562 3.796875 -6.367188 3.796875 -5.578125 Z M 6.09375 -2.390625 C 6.09375 -1.773438 6.160156 -1.3125 6.296875 -1 C 6.429688 -0.695312 6.648438 -0.546875 6.953125 -0.546875 C 7.253906 -0.546875 7.476562 -0.695312 7.625 -1 C 7.769531 -1.300781 7.84375 -1.765625 7.84375 -2.390625 C 7.84375 -3.003906 7.769531 -3.460938 7.625 -3.765625 C 7.476562 -4.066406 7.253906 -4.21875 6.953125 -4.21875 C 6.648438 -4.21875 6.429688 -4.066406 6.296875 -3.765625 C 6.160156 -3.460938 6.09375 -3.003906 6.09375 -2.390625 Z M 8.59375 -2.390625 C 8.59375 -1.566406 8.453125 -0.941406 8.171875 -0.515625 C 7.890625 -0.0976562 7.484375 0.109375 6.953125 0.109375 C 6.441406 0.109375 6.046875 -0.101562 5.765625 -0.53125 C 5.484375 -0.96875 5.34375 -1.585938 5.34375 -2.390625 C 5.34375 -3.210938 5.476562 -3.832031 5.75 -4.25 C 6.019531 -4.664062 6.421875 -4.875 6.953125 -4.875 C 7.460938 -4.875 7.863281 -4.660156 8.15625 -4.234375 C 8.445312 -3.804688 8.59375 -3.191406 8.59375 -2.390625 Z M 7.1875 -7.9375 L 2.78125 0 L 1.984375 0 L 6.390625 -7.9375 Z M 7.1875 -7.9375 "/></g></g></g><g fill="#000000" fill-opacity="1"><g transform="translate(158.032667, 68.439646)"><g><path d="M 7.984375 -3.984375 C 7.984375 -2.710938 7.660156 -1.710938 7.015625 -0.984375 C 6.378906 -0.253906 5.488281 0.109375 4.34375 0.109375 C 3.164062 0.109375 2.257812 -0.242188 1.625 -0.953125 C 0.988281 -1.671875 0.671875 -2.6875 0.671875 -4 C 0.671875 -5.289062 0.988281 -6.289062 1.625 -7 C 2.269531 -7.707031 3.175781 -8.0625 4.34375 -8.0625 C 5.488281 -8.0625 6.378906 -7.695312 7.015625 -6.96875 C 7.660156 -6.25 7.984375 -5.253906 7.984375 -3.984375 Z M 1.65625 -3.984375 C 1.65625 -2.910156 1.882812 -2.09375 2.34375 -1.53125 C 2.800781 -0.976562 3.46875 -0.703125 4.34375 -0.703125 C 5.21875 -0.703125 5.878906 -0.976562 6.328125 -1.53125 C 6.773438 -2.082031 7 -2.898438 7 -3.984375 C 7 -5.046875 6.773438 -5.851562 6.328125 -6.40625 C 5.890625 -6.957031 5.226562 -7.234375 4.34375 -7.234375 C 3.46875 -7.234375 2.800781 -6.957031 2.34375 -6.40625 C 1.882812 -5.851562 1.65625 -5.046875 1.65625 -3.984375 Z M 1.65625 -3.984375 "/></g></g></g><g fill="#000000" fill-opacity="1"><g transform="translate(166.690898, 68.439646)"><g><path d="M 2.875 -0.640625 C 3.039062 -0.640625 3.195312 -0.648438 3.34375 -0.671875 C 3.488281 -0.691406 3.601562 -0.71875 3.6875 -0.75 L 3.6875 -0.046875 C 3.59375 -0.00390625 3.453125 0.03125 3.265625 0.0625 C 3.078125 0.09375 2.90625 0.109375 2.75 0.109375 C 1.59375 0.109375 1.015625 -0.5 1.015625 -1.71875 L 1.015625 -5.25 L 0.171875 -5.25 L 0.171875 -5.6875 L 1.015625 -6.0625 L 1.40625 -7.328125 L 1.921875 -7.328125 L 1.921875 -5.953125 L 3.65625 -5.953125 L 3.65625 -5.25 L 1.921875 -5.25 L 1.921875 -1.75 C 1.921875 -1.394531 2.003906 -1.117188 2.171875 -0.921875 C 2.347656 -0.734375 2.582031 -0.640625 2.875 -0.640625 Z M 2.875 -0.640625 "/></g></g></g><g fill="#000000" fill-opacity="1"><g transform="translate(170.615603, 68.439646)"><g><path d="M 5.03125 0 L 5.03125 -3.84375 C 5.03125 -4.332031 4.921875 -4.695312 4.703125 -4.9375 C 4.484375 -5.175781 4.132812 -5.296875 3.65625 -5.296875 C 3.03125 -5.296875 2.570312 -5.125 2.28125 -4.78125 C 2 -4.445312 1.859375 -3.890625 1.859375 -3.109375 L 1.859375 0 L 0.953125 0 L 0.953125 -8.453125 L 1.859375 -8.453125 L 1.859375 -5.890625 C 1.859375 -5.585938 1.84375 -5.332031 1.8125 -5.125 L 1.875 -5.125 C 2.050781 -5.414062 2.300781 -5.640625 2.625 -5.796875 C 2.957031 -5.960938 3.332031 -6.046875 3.75 -6.046875 C 4.476562 -6.046875 5.023438 -5.875 5.390625 -5.53125 C 5.753906 -5.1875 5.9375 -4.640625 5.9375 -3.890625 L 5.9375 0 Z M 5.03125 0 "/></g></g></g><g fill="#000000" fill-opacity="1"><g transform="translate(177.439051, 68.439646)"><g><path d="M 3.46875 0.109375 C 2.59375 0.109375 1.898438 -0.15625 1.390625 -0.6875 C 0.878906 -1.226562 0.625 -1.972656 0.625 -2.921875 C 0.625 -3.890625 0.859375 -4.65625 1.328125 -5.21875 C 1.804688 -5.78125 2.441406 -6.0625 3.234375 -6.0625 C 3.984375 -6.0625 4.570312 -5.816406 5 -5.328125 C 5.4375 -4.835938 5.65625 -4.191406 5.65625 -3.390625 L 5.65625 -2.8125 L 1.5625 -2.8125 C 1.582031 -2.113281 1.757812 -1.582031 2.09375 -1.21875 C 2.425781 -0.851562 2.894531 -0.671875 3.5 -0.671875 C 4.144531 -0.671875 4.78125 -0.804688 5.40625 -1.078125 L 5.40625 -0.28125 C 5.082031 -0.144531 4.78125 -0.046875 4.5 0.015625 C 4.21875 0.078125 3.875 0.109375 3.46875 0.109375 Z M 3.234375 -5.3125 C 2.753906 -5.3125 2.367188 -5.15625 2.078125 -4.84375 C 1.796875 -4.53125 1.628906 -4.097656 1.578125 -3.546875 L 4.6875 -3.546875 C 4.6875 -4.117188 4.5625 -4.554688 4.3125 -4.859375 C 4.0625 -5.160156 3.703125 -5.3125 3.234375 -5.3125 Z M 3.234375 -5.3125 "/></g></g></g><g fill="#000000" fill-opacity="1"><g transform="translate(183.676235, 68.439646)"><g><path d="M 3.671875 -6.0625 C 3.929688 -6.0625 4.171875 -6.039062 4.390625 -6 L 4.265625 -5.15625 C 4.015625 -5.207031 3.796875 -5.234375 3.609375 -5.234375 C 3.128906 -5.234375 2.71875 -5.035156 2.375 -4.640625 C 2.03125 -4.253906 1.859375 -3.769531 1.859375 -3.1875 L 1.859375 0 L 0.953125 0 L 0.953125 -5.953125 L 1.703125 -5.953125 L 1.796875 -4.84375 L 1.84375 -4.84375 C 2.0625 -5.238281 2.328125 -5.539062 2.640625 -5.75 C 2.953125 -5.957031 3.296875 -6.0625 3.671875 -6.0625 Z M 3.671875 -6.0625 "/></g></g></g><g fill="#000000" fill-opacity="1"><g transform="translate(188.214341, 68.439646)"><g><path d="M 4.796875 -1.625 C 4.796875 -1.070312 4.585938 -0.644531 4.171875 -0.34375 C 3.765625 -0.0390625 3.1875 0.109375 2.4375 0.109375 C 1.644531 0.109375 1.03125 -0.015625 0.59375 -0.265625 L 0.59375 -1.109375 C 0.875 -0.960938 1.175781 -0.847656 1.5 -0.765625 C 1.832031 -0.679688 2.148438 -0.640625 2.453125 -0.640625 C 2.929688 -0.640625 3.296875 -0.710938 3.546875 -0.859375 C 3.796875 -1.015625 3.921875 -1.242188 3.921875 -1.546875 C 3.921875 -1.773438 3.820312 -1.972656 3.625 -2.140625 C 3.425781 -2.304688 3.035156 -2.503906 2.453125 -2.734375 C 1.898438 -2.929688 1.503906 -3.109375 1.265625 -3.265625 C 1.035156 -3.421875 0.863281 -3.59375 0.75 -3.78125 C 0.632812 -3.976562 0.578125 -4.21875 0.578125 -4.5 C 0.578125 -4.976562 0.773438 -5.359375 1.171875 -5.640625 C 1.566406 -5.921875 2.109375 -6.0625 2.796875 -6.0625 C 3.429688 -6.0625 4.054688 -5.929688 4.671875 -5.671875 L 4.34375 -4.9375 C 3.75 -5.1875 3.210938 -5.3125 2.734375 -5.3125 C 2.304688 -5.3125 1.984375 -5.242188 1.765625 -5.109375 C 1.546875 -4.972656 1.4375 -4.785156 1.4375 -4.546875 C 1.4375 -4.390625 1.472656 -4.253906 1.546875 -4.140625 C 1.628906 -4.023438 1.757812 -3.914062 1.9375 -3.8125 C 2.125 -3.71875 2.476562 -3.578125 3 -3.390625 C 3.695312 -3.128906 4.171875 -2.867188 4.421875 -2.609375 C 4.671875 -2.347656 4.796875 -2.019531 4.796875 -1.625 Z M 4.796875 -1.625 "/></g></g></g><g fill="#000000" fill-opacity="1"><g transform="translate(168.016066, 83.746934)"><g><path d="M 3.03125 -4.84375 C 3.863281 -4.84375 4.519531 -4.632812 5 -4.21875 C 5.476562 -3.8125 5.71875 -3.25 5.71875 -2.53125 C 5.71875 -1.707031 5.457031 -1.0625 4.9375 -0.59375 C 4.414062 -0.125 3.691406 0.109375 2.765625 0.109375 C 1.867188 0.109375 1.1875 -0.0351562 0.71875 -0.328125 L 0.71875 -1.1875 C 0.976562 -1.019531 1.296875 -0.890625 1.671875 -0.796875 C 2.046875 -0.710938 2.414062 -0.671875 2.78125 -0.671875 C 3.414062 -0.671875 3.910156 -0.816406 4.265625 -1.109375 C 4.617188 -1.410156 4.796875 -1.847656 4.796875 -2.421875 C 4.796875 -3.523438 4.117188 -4.078125 2.765625 -4.078125 C 2.421875 -4.078125 1.957031 -4.023438 1.375 -3.921875 L 0.90625 -4.21875 L 1.21875 -7.9375 L 5.15625 -7.9375 L 5.15625 -7.109375 L 1.984375 -7.109375 L 1.78125 -4.71875 C 2.195312 -4.800781 2.613281 -4.84375 3.03125 -4.84375 Z M 3.03125 -4.84375 "/></g></g></g><g fill="#000000" fill-opacity="1"><g transform="translate(174.372674, 83.746934)"><g><path d="M 1.3125 -5.578125 C 1.3125 -4.960938 1.378906 -4.5 1.515625 -4.1875 C 1.648438 -3.875 1.867188 -3.71875 2.171875 -3.71875 C 2.765625 -3.71875 3.0625 -4.335938 3.0625 -5.578125 C 3.0625 -6.796875 2.765625 -7.40625 2.171875 -7.40625 C 1.867188 -7.40625 1.648438 -7.253906 1.515625 -6.953125 C 1.378906 -6.648438 1.3125 -6.191406 1.3125 -5.578125 Z M 3.796875 -5.578125 C 3.796875 -4.742188 3.65625 -4.113281 3.375 -3.6875 C 3.101562 -3.269531 2.703125 -3.0625 2.171875 -3.0625 C 1.660156 -3.0625 1.265625 -3.273438 0.984375 -3.703125 C 0.703125 -4.140625 0.5625 -4.765625 0.5625 -5.578125 C 0.5625 -6.398438 0.695312 -7.019531 0.96875 -7.4375 C 1.238281 -7.851562 1.640625 -8.0625 2.171875 -8.0625 C 2.691406 -8.0625 3.09375 -7.84375 3.375 -7.40625 C 3.65625 -6.976562 3.796875 -6.367188 3.796875 -5.578125 Z M 6.09375 -2.390625 C 6.09375 -1.773438 6.160156 -1.3125 6.296875 -1 C 6.429688 -0.695312 6.648438 -0.546875 6.953125 -0.546875 C 7.253906 -0.546875 7.476562 -0.695312 7.625 -1 C 7.769531 -1.300781 7.84375 -1.765625 7.84375 -2.390625 C 7.84375 -3.003906 7.769531 -3.460938 7.625 -3.765625 C 7.476562 -4.066406 7.253906 -4.21875 6.953125 -4.21875 C 6.648438 -4.21875 6.429688 -4.066406 6.296875 -3.765625 C 6.160156 -3.460938 6.09375 -3.003906 6.09375 -2.390625 Z M 8.59375 -2.390625 C 8.59375 -1.566406 8.453125 -0.941406 8.171875 -0.515625 C 7.890625 -0.0976562 7.484375 0.109375 6.953125 0.109375 C 6.441406 0.109375 6.046875 -0.101562 5.765625 -0.53125 C 5.484375 -0.96875 5.34375 -1.585938 5.34375 -2.390625 C 5.34375 -3.210938 5.476562 -3.832031 5.75 -4.25 C 6.019531 -4.664062 6.421875 -4.875 6.953125 -4.875 C 7.460938 -4.875 7.863281 -4.660156 8.15625 -4.234375 C 8.445312 -3.804688 8.59375 -3.191406 8.59375 -2.390625 Z M 7.1875 -7.9375 L 2.78125 0 L 1.984375 0 L 6.390625 -7.9375 Z M 7.1875 -7.9375 "/></g></g></g><path fill="#ff914d" d="M 196.359375 93.589844 C 198.539062 93.589844 200.71875 93.65625 202.898438 93.785156 C 205.074219 93.917969 207.246094 94.117188 209.414062 94.378906 C 211.578125 94.644531 213.734375 94.972656 215.878906 95.363281 C 218.027344 95.757812 220.160156 96.214844 222.277344 96.738281 C 224.394531 97.261719 226.496094 97.847656 228.578125 98.496094 C 230.660156 99.148438 232.722656 99.859375 234.761719 100.632812 C 236.800781 101.40625 238.816406 102.242188 240.804688 103.140625 C 242.796875 104.035156 244.753906 104.992188 246.6875 106.003906 C 248.617188 107.019531 250.519531 108.09375 252.382812 109.222656 C 254.25 110.351562 256.082031 111.535156 257.875 112.777344 C 259.671875 114.015625 261.425781 115.3125 263.144531 116.65625 C 264.859375 118.003906 266.535156 119.402344 268.167969 120.847656 C 269.800781 122.296875 271.386719 123.792969 272.929688 125.335938 C 274.46875 126.878906 275.964844 128.46875 277.410156 130.101562 C 278.855469 131.738281 280.25 133.414062 281.59375 135.132812 C 282.9375 136.851562 284.230469 138.609375 285.46875 140.40625 C 286.707031 142.203125 287.886719 144.035156 289.015625 145.902344 C 290.140625 147.769531 291.210938 149.671875 292.222656 151.605469 C 293.234375 153.535156 294.1875 155.496094 295.082031 157.488281 C 295.976562 159.480469 296.808594 161.496094 297.578125 163.535156 C 298.351562 165.578125 299.058594 167.636719 299.707031 169.722656 C 300.355469 171.804688 300.9375 173.90625 301.457031 176.027344 C 301.976562 178.144531 302.433594 180.277344 302.824219 182.425781 C 303.214844 184.570312 303.539062 186.726562 303.800781 188.894531 C 304.058594 191.058594 304.253906 193.230469 304.382812 195.410156 C 304.511719 197.589844 304.574219 199.769531 304.570312 201.949219 C 304.570312 204.132812 304.5 206.3125 304.363281 208.488281 C 304.230469 210.667969 304.03125 212.839844 303.761719 215.003906 C 303.496094 217.167969 303.167969 219.324219 302.769531 221.46875 C 302.375 223.617188 301.910156 225.746094 301.386719 227.863281 C 300.859375 229.980469 300.273438 232.082031 299.621094 234.164062 C 298.96875 236.246094 298.253906 238.304688 297.476562 240.34375 L 196.359375 201.804688 Z M 196.359375 93.589844 " fill-opacity="1" fill-rule="nonzero"/><path fill="#e45d56" d="M 299.273438 235.242188 C 298.363281 238.046875 297.339844 240.808594 296.203125 243.527344 C 295.066406 246.246094 293.824219 248.914062 292.46875 251.53125 C 291.113281 254.152344 289.65625 256.707031 288.089844 259.207031 C 286.527344 261.707031 284.863281 264.136719 283.101562 266.5 C 281.339844 268.863281 279.484375 271.148438 277.535156 273.359375 C 275.585938 275.570312 273.550781 277.699219 271.429688 279.742188 C 269.304688 281.789062 267.101562 283.742188 264.820312 285.605469 C 262.539062 287.472656 260.183594 289.242188 257.757812 290.914062 C 255.328125 292.585938 252.835938 294.15625 250.28125 295.625 C 247.726562 297.09375 245.117188 298.457031 242.449219 299.710938 C 239.78125 300.964844 237.070312 302.109375 234.308594 303.144531 C 231.546875 304.179688 228.75 305.097656 225.914062 305.902344 C 223.082031 306.707031 220.21875 307.394531 217.324219 307.964844 C 214.433594 308.539062 211.523438 308.988281 208.59375 309.324219 C 205.667969 309.65625 202.730469 309.871094 199.785156 309.964844 C 196.835938 310.054688 193.894531 310.027344 190.949219 309.882812 L 196.359375 201.804688 Z M 299.273438 235.242188 " fill-opacity="1" fill-rule="nonzero"/><path fill="#bb2f5d" d="M 196.359375 310.015625 C 193.410156 310.015625 190.46875 309.898438 187.53125 309.65625 C 184.59375 309.417969 181.667969 309.054688 178.761719 308.578125 C 175.851562 308.097656 172.96875 307.5 170.109375 306.785156 C 167.25 306.070312 164.425781 305.242188 161.632812 304.292969 C 158.84375 303.347656 156.09375 302.289062 153.390625 301.121094 C 150.683594 299.949219 148.03125 298.671875 145.429688 297.285156 C 142.828125 295.898438 140.289062 294.40625 137.8125 292.8125 C 135.332031 291.21875 132.921875 289.523438 130.582031 287.734375 C 128.242188 285.941406 125.980469 284.058594 123.792969 282.082031 C 121.605469 280.105469 119.503906 278.042969 117.484375 275.894531 C 115.46875 273.746094 113.539062 271.519531 111.703125 269.214844 C 109.867188 266.90625 108.128906 264.53125 106.488281 262.082031 C 104.847656 259.636719 103.304688 257.125 101.871094 254.550781 C 100.433594 251.976562 99.105469 249.347656 97.882812 246.667969 C 96.660156 243.984375 95.550781 241.257812 94.550781 238.484375 C 93.550781 235.710938 92.667969 232.902344 91.898438 230.058594 L 196.359375 201.804688 Z M 196.359375 310.015625 " fill-opacity="1" fill-rule="nonzero"/><path fill="#87095e" d="M 93.441406 235.242188 C 92.875 233.503906 92.355469 231.753906 91.878906 229.988281 C 91.402344 228.226562 90.972656 226.449219 90.585938 224.664062 C 90.199219 222.878906 89.859375 221.082031 89.5625 219.28125 C 89.269531 217.476562 89.019531 215.667969 88.816406 213.851562 C 88.613281 212.035156 88.457031 210.214844 88.34375 208.390625 C 88.234375 206.566406 88.167969 204.742188 88.148438 202.914062 C 88.128906 201.085938 88.15625 199.257812 88.230469 197.433594 C 88.304688 195.609375 88.425781 193.785156 88.59375 191.964844 C 88.757812 190.144531 88.96875 188.332031 89.226562 186.523438 C 89.484375 184.710938 89.789062 182.910156 90.140625 181.117188 C 90.488281 179.324219 90.882812 177.539062 91.324219 175.765625 C 91.761719 173.992188 92.246094 172.230469 92.777344 170.480469 C 93.304688 168.734375 93.878906 167 94.496094 165.277344 C 95.109375 163.558594 95.769531 161.855469 96.472656 160.167969 C 97.175781 158.480469 97.921875 156.8125 98.710938 155.164062 C 99.496094 153.515625 100.328125 151.886719 101.195312 150.28125 C 102.066406 148.671875 102.976562 147.089844 103.925781 145.527344 C 104.878906 143.96875 105.867188 142.433594 106.894531 140.921875 C 107.921875 139.410156 108.988281 137.925781 110.09375 136.46875 C 111.195312 135.011719 112.335938 133.585938 113.511719 132.1875 C 114.6875 130.785156 115.894531 129.417969 117.140625 128.082031 C 118.386719 126.742188 119.664062 125.4375 120.976562 124.164062 C 122.285156 122.890625 123.628906 121.652344 125.003906 120.449219 C 126.375 119.242188 127.78125 118.074219 129.210938 116.941406 C 130.644531 115.804688 132.105469 114.707031 133.59375 113.648438 C 135.085938 112.589844 136.597656 111.566406 138.140625 110.585938 C 139.679688 109.601562 141.242188 108.65625 142.832031 107.753906 C 144.421875 106.851562 146.03125 105.988281 147.660156 105.164062 C 149.292969 104.34375 150.945312 103.5625 152.617188 102.824219 C 154.289062 102.085938 155.976562 101.390625 157.683594 100.734375 C 159.390625 100.082031 161.113281 99.472656 162.851562 98.90625 C 164.589844 98.339844 166.339844 97.820312 168.101562 97.34375 L 196.359375 201.804688 Z M 93.441406 235.242188 " fill-opacity="1" fill-rule="nonzero"/><path fill="#4b0056" d="M 162.917969 98.886719 C 173.789062 95.355469 184.929688 93.589844 196.347656 93.589844 L 196.359375 201.804688 Z M 162.917969 98.886719 " fill-opacity="1" fill-rule="nonzero"/><path fill="#4e3d8f" d="M 196.359375 93.589844 C 196.355469 93.589844 196.359375 93.589844 196.367188 93.589844 L 196.359375 201.804688 Z M 196.359375 93.589844 " fill-opacity="1" fill-rule="nonzero"/></svg>