<svg xmlns="http://www.w3.org/2000/svg" xmlns:xlink="http://www.w3.org/1999/xlink" width="150" zoomAndPan="magnify" viewBox="0 0 112.5 112.499997" height="150" preserveAspectRatio="xMidYMid meet" version="1.0"><defs><clipPath id="id1"><path d="M 7.324219 9 L 104 9 L 104 108.796875 L 7.324219 108.796875 Z M 7.324219 9 " clip-rule="nonzero"/></clipPath></defs><g clip-path="url(#id1)"><path fill="#000000" d="M 103.128906 69.128906 C 102.550781 67.382812 101.046875 66.164062 99.101562 65.871094 C 98.183594 65.734375 97.132812 65.792969 95.890625 66.050781 C 93.722656 66.5 92.113281 66.671875 90.9375 66.707031 C 95.367188 59.191406 98.972656 50.625 101.046875 42.558594 C 104.402344 29.515625 102.609375 23.574219 100.511719 20.890625 C 94.972656 13.777344 86.882812 9.953125 77.128906 9.839844 C 71.925781 9.773438 67.355469 10.804688 64.976562 11.546875 C 62.757812 11.15625 60.367188 10.9375 57.867188 10.894531 C 53.175781 10.820312 49.027344 11.847656 45.484375 13.957031 C 43.523438 13.292969 40.375 12.355469 36.742188 11.753906 C 28.191406 10.34375 21.300781 11.441406 16.257812 15.019531 C 10.15625 19.347656 7.328125 26.871094 7.851562 37.378906 C 8.015625 40.714844 9.875 50.867188 12.800781 60.492188 C 14.480469 66.023438 16.273438 70.621094 18.128906 74.148438 C 20.757812 79.15625 23.574219 82.105469 26.734375 83.164062 C 28.503906 83.753906 31.722656 84.171875 35.105469 81.339844 C 35.535156 81.859375 36.105469 82.378906 36.867188 82.859375 C 37.832031 83.472656 39.011719 83.972656 40.1875 84.265625 C 44.433594 85.332031 48.410156 85.066406 51.800781 83.574219 C 51.824219 84.179688 51.835938 84.757812 51.851562 85.257812 C 51.875 86.070312 51.898438 86.863281 51.925781 87.609375 C 52.125 92.632812 52.464844 96.542969 53.476562 99.28125 C 53.535156 99.429688 53.609375 99.660156 53.6875 99.902344 C 54.1875 101.449219 55.03125 104.042969 57.171875 106.074219 C 59.390625 108.175781 62.074219 108.820312 64.53125 108.820312 C 65.761719 108.820312 66.9375 108.65625 67.96875 108.433594 C 71.644531 107.644531 75.820312 106.4375 78.839844 102.121094 C 81.695312 98.035156 83.082031 91.890625 83.332031 82.199219 C 83.363281 81.921875 83.394531 81.664062 83.425781 81.414062 C 83.445312 81.246094 83.460938 81.074219 83.484375 80.902344 L 84.160156 80.960938 L 84.332031 80.972656 C 88.074219 81.144531 92.652344 80.347656 95.460938 79.035156 C 97.6875 78 104.804688 74.222656 103.128906 69.128906 " fill-opacity="1" fill-rule="nonzero"/></g><path fill="#336791" d="M 96.726562 70.121094 C 85.597656 72.425781 84.828125 68.640625 84.828125 68.640625 C 96.582031 51.125 101.496094 28.890625 97.253906 23.449219 C 85.6875 8.605469 65.664062 15.625 65.332031 15.808594 L 65.222656 15.828125 C 63.027344 15.367188 60.5625 15.09375 57.796875 15.050781 C 52.757812 14.964844 48.941406 16.375 46.039062 18.585938 C 46.039062 18.585938 10.320312 3.804688 11.980469 37.171875 C 12.335938 44.269531 22.113281 90.882812 33.773438 76.804688 C 38.035156 71.65625 42.152344 67.304688 42.152344 67.304688 C 44.199219 68.667969 46.644531 69.363281 49.214844 69.117188 L 49.414062 68.941406 C 49.351562 69.582031 49.378906 70.210938 49.496094 70.949219 C 46.488281 74.320312 47.371094 74.914062 41.367188 76.152344 C 35.289062 77.414062 38.859375 79.648438 41.191406 80.234375 C 44.015625 80.945312 50.554688 81.949219 54.96875 75.738281 L 54.792969 76.449219 C 55.96875 77.398438 56.796875 82.609375 56.660156 87.332031 C 56.519531 92.058594 56.425781 95.304688 57.355469 97.835938 C 58.28125 100.371094 59.207031 106.070312 67.101562 104.371094 C 73.695312 102.953125 77.117188 99.273438 77.59375 93.132812 C 77.929688 88.773438 78.695312 89.417969 78.742188 85.519531 L 79.351562 83.667969 C 80.058594 77.753906 79.464844 75.84375 83.53125 76.734375 L 84.519531 76.824219 C 87.507812 76.957031 91.421875 76.335938 93.722656 75.265625 C 98.671875 72.957031 101.605469 69.109375 96.722656 70.121094 L 96.726562 70.121094 " fill-opacity="1" fill-rule="nonzero"/><path fill="#ffffff" d="M 48.132812 40.347656 C 47.128906 40.207031 46.21875 40.335938 45.757812 40.6875 C 45.5 40.882812 45.421875 41.109375 45.398438 41.265625 C 45.34375 41.683594 45.632812 42.140625 45.808594 42.378906 C 46.3125 43.050781 47.050781 43.511719 47.777344 43.613281 C 47.886719 43.625 47.988281 43.632812 48.089844 43.632812 C 49.308594 43.632812 50.410156 42.683594 50.507812 41.984375 C 50.632812 41.105469 49.359375 40.519531 48.132812 40.347656 " fill-opacity="1" fill-rule="nonzero"/><path fill="#ffffff" d="M 81.363281 40.375 C 81.265625 39.6875 80.046875 39.488281 78.886719 39.652344 C 77.734375 39.8125 76.613281 40.335938 76.707031 41.027344 C 76.78125 41.5625 77.746094 42.480469 78.886719 42.480469 C 78.984375 42.480469 79.082031 42.472656 79.179688 42.460938 C 79.941406 42.351562 80.5 41.867188 80.765625 41.585938 C 81.171875 41.160156 81.402344 40.683594 81.363281 40.375 " fill-opacity="1" fill-rule="nonzero"/><path fill="#ffffff" d="M 100.429688 69.859375 C 100.007812 68.570312 98.640625 68.152344 96.367188 68.625 C 89.628906 70.023438 87.214844 69.054688 86.421875 68.46875 C 91.664062 60.453125 95.972656 50.765625 98.296875 41.726562 C 99.398438 37.441406 100.007812 33.464844 100.054688 30.226562 C 100.109375 26.667969 99.507812 24.054688 98.261719 22.457031 C 93.246094 16.019531 85.882812 12.566406 76.972656 12.46875 C 70.84375 12.402344 65.667969 13.976562 64.664062 14.417969 C 62.554688 13.890625 60.25 13.566406 57.742188 13.523438 C 53.140625 13.449219 49.164062 14.554688 45.875 16.8125 C 44.445312 16.277344 40.75 15.003906 36.230469 14.269531 C 28.417969 13.007812 22.210938 13.964844 17.777344 17.117188 C 12.492188 20.878906 10.050781 27.601562 10.523438 37.101562 C 10.683594 40.296875 12.496094 50.128906 15.359375 59.542969 C 19.125 71.9375 23.21875 78.953125 27.527344 80.398438 C 28.03125 80.566406 28.613281 80.683594 29.253906 80.683594 C 30.824219 80.683594 32.75 79.972656 34.753906 77.550781 C 38.085938 73.527344 41.191406 70.15625 42.339844 68.929688 C 44.03125 69.84375 45.894531 70.355469 47.796875 70.40625 C 47.800781 70.457031 47.800781 70.507812 47.804688 70.554688 C 47.425781 71.011719 47.113281 71.410156 46.84375 71.75 C 45.527344 73.429688 45.253906 73.78125 41.011719 74.65625 C 39.804688 74.910156 36.597656 75.570312 36.550781 77.828125 C 36.5 80.296875 40.339844 81.328125 40.777344 81.4375 C 42.300781 81.824219 43.769531 82.015625 45.171875 82.015625 C 48.582031 82.015625 51.578125 80.890625 53.976562 78.714844 C 53.898438 87.503906 54.265625 96.167969 55.316406 98.808594 C 56.175781 100.96875 58.28125 106.246094 64.921875 106.246094 C 65.894531 106.246094 66.96875 106.132812 68.148438 105.878906 C 75.082031 104.386719 78.089844 101.3125 79.257812 94.523438 C 79.878906 90.902344 80.949219 82.238281 81.453125 77.597656 C 82.515625 77.925781 83.882812 78.082031 85.359375 78.082031 C 88.441406 78.082031 91.996094 77.421875 94.222656 76.382812 C 96.730469 75.21875 101.25 72.347656 100.429688 69.859375 Z M 83.921875 38.472656 C 83.894531 39.84375 83.710938 41.089844 83.511719 42.390625 C 83.296875 43.785156 83.078125 45.230469 83.019531 46.984375 C 82.964844 48.691406 83.179688 50.464844 83.382812 52.183594 C 83.796875 55.648438 84.222656 59.21875 82.574219 62.738281 C 82.316406 62.28125 82.070312 61.785156 81.84375 61.230469 C 81.640625 60.730469 81.195312 59.929688 80.582031 58.824219 C 78.183594 54.511719 72.578125 44.40625 75.449219 40.285156 C 76.300781 39.058594 78.472656 37.796875 83.921875 38.472656 Z M 77.316406 15.246094 C 85.304688 15.421875 91.617188 18.425781 96.089844 24.164062 C 99.519531 28.566406 95.742188 48.601562 84.808594 65.882812 C 84.703125 65.742188 84.59375 65.605469 84.476562 65.460938 C 84.433594 65.402344 84.386719 65.34375 84.339844 65.289062 C 87.164062 60.601562 86.613281 55.964844 86.121094 51.851562 C 85.917969 50.164062 85.726562 48.570312 85.777344 47.074219 C 85.828125 45.488281 86.039062 44.125 86.234375 42.8125 C 86.488281 41.1875 86.738281 39.511719 86.671875 37.535156 C 86.722656 37.324219 86.742188 37.082031 86.714844 36.789062 C 86.535156 34.894531 84.378906 29.21875 79.984375 24.078125 C 77.582031 21.269531 74.078125 18.125 69.292969 16.003906 C 71.351562 15.574219 74.164062 15.175781 77.316406 15.246094 Z M 32.632812 75.78125 C 30.425781 78.445312 28.898438 77.933594 28.398438 77.769531 C 25.128906 76.671875 21.339844 69.734375 17.996094 58.734375 C 15.101562 49.214844 13.414062 39.648438 13.277344 36.964844 C 12.855469 28.476562 14.90625 22.558594 19.367188 19.378906 C 26.628906 14.207031 38.570312 17.304688 43.371094 18.875 C 43.300781 18.941406 43.230469 19.007812 43.160156 19.074219 C 35.285156 27.0625 35.472656 40.707031 35.492188 41.542969 C 35.492188 41.863281 35.519531 42.320312 35.554688 42.945312 C 35.691406 45.242188 35.945312 49.511719 35.269531 54.351562 C 34.644531 58.84375 36.023438 63.246094 39.054688 66.417969 C 39.367188 66.75 39.695312 67.058594 40.035156 67.347656 C 38.683594 68.800781 35.753906 72.007812 32.632812 75.78125 Z M 41.046875 64.503906 C 38.605469 61.945312 37.492188 58.382812 38.003906 54.734375 C 38.714844 49.621094 38.449219 45.171875 38.308594 42.78125 C 38.289062 42.449219 38.273438 42.152344 38.261719 41.921875 C 39.414062 40.898438 44.742188 38.03125 48.542969 38.90625 C 50.277344 39.304688 51.335938 40.492188 51.777344 42.53125 C 54.046875 53.097656 52.074219 57.5 50.492188 61.039062 C 50.164062 61.765625 49.855469 62.457031 49.589844 63.167969 L 49.386719 63.71875 C 48.867188 65.113281 48.390625 66.40625 48.089844 67.636719 C 45.492188 67.628906 42.96875 66.515625 41.046875 64.503906 Z M 41.445312 78.753906 C 40.6875 78.5625 40.003906 78.230469 39.605469 77.957031 C 39.9375 77.800781 40.535156 77.585938 41.566406 77.371094 C 46.558594 76.339844 47.328125 75.609375 49.011719 73.464844 C 49.398438 72.972656 49.832031 72.410156 50.441406 71.734375 L 50.441406 71.730469 C 51.347656 70.714844 51.757812 70.890625 52.507812 71.203125 C 53.113281 71.453125 53.703125 72.214844 53.945312 73.058594 C 54.054688 73.453125 54.183594 74.207031 53.765625 74.796875 C 50.25 79.738281 45.125 79.679688 41.445312 78.753906 Z M 67.570312 103.171875 C 61.464844 104.484375 59.300781 101.355469 57.878906 97.777344 C 56.957031 95.46875 56.503906 85.050781 56.824219 73.546875 C 56.828125 73.398438 56.808594 73.246094 56.765625 73.105469 C 56.726562 72.839844 56.671875 72.570312 56.59375 72.296875 C 56.117188 70.621094 54.957031 69.222656 53.5625 68.640625 C 53.007812 68.410156 51.988281 67.988281 50.769531 68.304688 C 51.03125 67.222656 51.480469 66.003906 51.972656 64.691406 L 52.175781 64.132812 C 52.410156 63.507812 52.695312 62.859375 53.007812 62.175781 C 54.664062 58.472656 56.9375 53.402344 54.472656 41.945312 C 53.546875 37.65625 50.460938 35.558594 45.789062 36.046875 C 42.980469 36.335938 40.417969 37.472656 39.136719 38.125 C 38.863281 38.265625 38.613281 38.398438 38.375 38.53125 C 38.734375 34.207031 40.082031 26.128906 45.128906 21.015625 C 48.304688 17.796875 52.535156 16.210938 57.695312 16.292969 C 67.851562 16.460938 74.367188 21.699219 78.039062 26.0625 C 81.210938 29.820312 82.925781 33.609375 83.609375 35.652344 C 78.464844 35.125 74.960938 36.144531 73.1875 38.695312 C 69.324219 44.238281 75.296875 55.003906 78.167969 60.171875 C 78.695312 61.117188 79.148438 61.9375 79.292969 62.289062 C 80.226562 64.5625 81.441406 66.082031 82.324219 67.195312 C 82.59375 67.53125 82.859375 67.863281 83.054688 68.148438 C 81.496094 68.601562 78.695312 69.644531 78.949219 74.859375 C 78.746094 77.476562 77.28125 89.722656 76.535156 94.054688 C 75.554688 99.773438 73.460938 101.902344 67.570312 103.171875 Z M 93.0625 73.871094 C 91.46875 74.613281 88.796875 75.171875 86.265625 75.292969 C 83.464844 75.421875 82.039062 74.976562 81.707031 74.703125 C 81.546875 71.453125 82.75 71.109375 84.027344 70.753906 C 84.222656 70.699219 84.421875 70.640625 84.609375 70.578125 C 84.726562 70.671875 84.855469 70.765625 84.996094 70.859375 C 87.246094 72.351562 91.261719 72.511719 96.925781 71.335938 C 96.945312 71.332031 96.96875 71.328125 96.988281 71.324219 C 96.222656 72.042969 94.917969 73.003906 93.0625 73.871094 Z M 93.0625 73.871094 " fill-opacity="1" fill-rule="nonzero"/></svg>