<svg xmlns="http://www.w3.org/2000/svg" xmlns:xlink="http://www.w3.org/1999/xlink" width="150" zoomAndPan="magnify" viewBox="0 0 112.5 112.499997" height="150" preserveAspectRatio="xMidYMid meet" version="1.0"><defs><clipPath id="id1"><path d="M 2.730469 8 L 109.980469 8 L 109.980469 104 L 2.730469 104 Z M 2.730469 8 " clip-rule="nonzero"/></clipPath></defs><g clip-path="url(#id1)"><path fill="#00d8ff" d="M 90.84375 39.507812 C 89.734375 39.128906 88.585938 38.765625 87.398438 38.425781 C 87.59375 37.632812 87.773438 36.851562 87.933594 36.082031 C 90.539062 23.453125 88.835938 13.28125 83.011719 9.929688 C 77.425781 6.71875 68.292969 10.066406 59.070312 18.074219 C 58.183594 18.84375 57.292969 19.65625 56.40625 20.511719 C 55.8125 19.945312 55.222656 19.402344 54.632812 18.878906 C 44.964844 10.320312 35.277344 6.710938 29.457031 10.070312 C 23.878906 13.292969 22.226562 22.855469 24.574219 34.824219 C 24.800781 35.980469 25.066406 37.160156 25.367188 38.359375 C 23.996094 38.746094 22.671875 39.160156 21.40625 39.601562 C 10.074219 43.542969 2.835938 49.71875 2.835938 56.125 C 2.835938 62.738281 10.605469 69.378906 22.410156 73.402344 C 23.339844 73.71875 24.304688 74.019531 25.300781 74.300781 C 24.980469 75.597656 24.699219 76.871094 24.460938 78.113281 C 22.222656 89.875 23.972656 99.210938 29.535156 102.410156 C 35.28125 105.714844 44.929688 102.316406 54.320312 94.132812 C 55.0625 93.484375 55.808594 92.796875 56.550781 92.078125 C 57.523438 93.003906 58.488281 93.886719 59.445312 94.710938 C 68.542969 102.519531 77.53125 105.671875 83.085938 102.464844 C 88.828125 99.148438 90.695312 89.113281 88.273438 76.914062 C 88.089844 75.980469 87.871094 75.027344 87.632812 74.0625 C 88.308594 73.859375 88.972656 73.652344 89.621094 73.4375 C 101.894531 69.382812 109.878906 62.832031 109.878906 56.125 C 109.878906 49.695312 102.40625 43.476562 90.84375 39.507812 Z M 88.183594 69.109375 C 87.597656 69.300781 86.996094 69.488281 86.386719 69.667969 C 85.03125 65.394531 83.203125 60.84375 80.964844 56.144531 C 83.101562 51.558594 84.855469 47.070312 86.171875 42.820312 C 87.269531 43.136719 88.332031 43.46875 89.355469 43.820312 C 99.261719 47.222656 105.300781 52.25 105.300781 56.125 C 105.300781 60.25 98.78125 65.609375 88.183594 69.109375 Z M 83.785156 77.796875 C 84.859375 83.191406 85.011719 88.074219 84.300781 91.886719 C 83.664062 95.316406 82.378906 97.601562 80.796875 98.515625 C 77.421875 100.460938 70.207031 97.929688 62.429688 91.253906 C 61.535156 90.488281 60.636719 89.667969 59.738281 88.804688 C 62.753906 85.515625 65.769531 81.691406 68.710938 77.441406 C 73.882812 76.988281 78.773438 76.238281 83.207031 75.214844 C 83.425781 76.09375 83.617188 76.953125 83.785156 77.796875 Z M 39.328125 98.175781 C 36.035156 99.339844 33.410156 99.375 31.820312 98.460938 C 28.445312 96.515625 27.042969 89.019531 28.957031 78.964844 C 29.175781 77.8125 29.4375 76.628906 29.738281 75.421875 C 34.121094 76.386719 38.976562 77.085938 44.164062 77.5 C 47.125 81.660156 50.226562 85.480469 53.351562 88.824219 C 52.667969 89.480469 51.988281 90.109375 51.3125 90.695312 C 47.160156 94.320312 42.996094 96.886719 39.328125 98.175781 Z M 23.890625 69.085938 C 18.667969 67.304688 14.359375 64.996094 11.40625 62.46875 C 8.75 60.203125 7.410156 57.953125 7.410156 56.125 C 7.410156 52.238281 13.21875 47.277344 22.914062 43.90625 C 24.089844 43.5 25.320312 43.113281 26.597656 42.75 C 27.9375 47.097656 29.695312 51.640625 31.8125 56.234375 C 29.664062 60.894531 27.882812 65.511719 26.53125 69.910156 C 25.621094 69.648438 24.738281 69.375 23.890625 69.085938 Z M 29.066406 33.945312 C 27.054688 23.691406 28.390625 15.957031 31.75 14.019531 C 35.332031 11.949219 43.25 14.898438 51.59375 22.289062 C 52.128906 22.761719 52.664062 23.253906 53.203125 23.765625 C 50.09375 27.097656 47.019531 30.890625 44.085938 35.023438 C 39.050781 35.488281 34.230469 36.234375 29.800781 37.234375 C 29.523438 36.117188 29.277344 35.019531 29.066406 33.945312 Z M 75.234375 45.316406 C 74.175781 43.492188 73.089844 41.710938 71.980469 39.980469 C 75.398438 40.410156 78.667969 40.980469 81.742188 41.679688 C 80.820312 44.628906 79.671875 47.710938 78.316406 50.875 C 77.347656 49.035156 76.316406 47.179688 75.234375 45.316406 Z M 56.40625 27.027344 C 58.519531 29.304688 60.628906 31.851562 62.707031 34.609375 C 60.613281 34.511719 58.492188 34.460938 56.355469 34.460938 C 54.242188 34.460938 52.136719 34.511719 50.054688 34.609375 C 52.132812 31.875 54.265625 29.332031 56.40625 27.027344 Z M 37.457031 45.347656 C 36.398438 47.179688 35.390625 49.023438 34.4375 50.871094 C 33.105469 47.71875 31.964844 44.621094 31.035156 41.632812 C 34.089844 40.949219 37.34375 40.394531 40.738281 39.972656 C 39.613281 41.71875 38.519531 43.515625 37.457031 45.347656 Z M 40.835938 72.601562 C 37.332031 72.214844 34.023438 71.683594 30.972656 71.019531 C 31.917969 67.976562 33.082031 64.816406 34.441406 61.597656 C 35.398438 63.445312 36.410156 65.285156 37.476562 67.121094 C 38.558594 68.988281 39.683594 70.816406 40.835938 72.601562 Z M 56.53125 85.542969 C 54.367188 83.210938 52.203125 80.628906 50.09375 77.855469 C 52.140625 77.933594 54.230469 77.976562 56.355469 77.976562 C 58.539062 77.976562 60.695312 77.925781 62.816406 77.835938 C 60.734375 80.65625 58.625 83.242188 56.53125 85.542969 Z M 78.359375 61.433594 C 79.789062 64.6875 80.996094 67.832031 81.953125 70.824219 C 78.851562 71.53125 75.5 72.097656 71.96875 72.523438 C 73.082031 70.765625 74.175781 68.953125 75.257812 67.089844 C 76.347656 65.203125 77.378906 63.3125 78.359375 61.433594 Z M 71.292969 64.8125 C 69.621094 67.707031 67.902344 70.464844 66.15625 73.074219 C 62.984375 73.296875 59.703125 73.414062 56.355469 73.414062 C 53.023438 73.414062 49.785156 73.3125 46.664062 73.109375 C 44.847656 70.46875 43.09375 67.699219 41.433594 64.835938 C 39.773438 61.980469 38.25 59.097656 36.867188 56.234375 C 38.25 53.363281 39.769531 50.476562 41.417969 47.628906 C 43.070312 44.769531 44.8125 42.011719 46.609375 39.386719 C 49.792969 39.148438 53.058594 39.023438 56.355469 39.023438 C 59.671875 39.023438 62.9375 39.148438 66.121094 39.390625 C 67.894531 41.996094 69.621094 44.742188 71.28125 47.601562 C 72.957031 50.496094 74.5 53.359375 75.890625 56.171875 C 74.503906 59.027344 72.964844 61.921875 71.292969 64.8125 Z M 80.726562 13.878906 C 84.3125 15.941406 85.707031 24.257812 83.453125 35.160156 C 83.308594 35.855469 83.144531 36.5625 82.96875 37.28125 C 78.53125 36.257812 73.707031 35.5 68.660156 35.027344 C 65.71875 30.851562 62.671875 27.050781 59.609375 23.765625 C 60.433594 22.976562 61.257812 22.222656 62.074219 21.511719 C 69.976562 14.652344 77.363281 11.945312 80.726562 13.878906 Z M 56.355469 46.589844 C 61.632812 46.589844 65.914062 50.855469 65.914062 56.125 C 65.914062 61.386719 61.632812 65.65625 56.355469 65.65625 C 51.078125 65.65625 46.796875 61.386719 46.796875 56.125 C 46.796875 50.855469 51.078125 46.589844 56.355469 46.589844 Z M 56.355469 46.589844 " fill-opacity="1" fill-rule="nonzero"/></g></svg>