<svg xmlns="http://www.w3.org/2000/svg" width="224.88" viewBox="0 0 224.88 60" height="60" version="1.0"><defs><clipPath id="a"><path d="M 24.679688 2.707031 L 72.085938 2.707031 L 72.085938 50.113281 L 24.679688 50.113281 Z M 24.679688 2.707031"/></clipPath><clipPath id="b"><path d="M 54 26.691406 L 58 26.691406 L 58 31 L 54 31 Z M 54 26.691406"/></clipPath><clipPath id="c"><path d="M 25.707031 40 L 73.117188 40 L 73.117188 59.984375 L 25.707031 59.984375 Z M 25.707031 40"/></clipPath></defs><path fill="#FFF" d="M 43.613281 26.445312 C 43.613281 25.734375 43.039062 25.160156 42.332031 25.160156 C 41.621094 25.160156 41.046875 25.734375 41.046875 26.445312 C 41.046875 27.152344 41.621094 27.726562 42.332031 27.726562 C 43.039062 27.726562 43.613281 27.152344 43.613281 26.445312"/><g clip-path="url(#a)"><path fill="#FFF" d="M 72.03125 4.066406 C 72.03125 3.382812 71.449219 2.800781 70.765625 2.800781 C 69.277344 2.800781 67.792969 2.800781 66.308594 2.800781 C 62.742188 2.800781 59.175781 2.800781 55.609375 2.800781 C 51.3125 2.800781 47.019531 2.800781 42.722656 2.800781 C 38.992188 2.800781 35.261719 2.800781 31.53125 2.800781 C 29.71875 2.800781 27.898438 2.742188 26.085938 2.800781 C 26.0625 2.800781 26.035156 2.800781 26.007812 2.800781 C 25.324219 2.800781 24.742188 3.378906 24.742188 4.066406 C 24.742188 5.550781 24.742188 7.035156 24.742188 8.523438 C 24.742188 12.085938 24.742188 15.652344 24.742188 19.21875 C 24.742188 23.515625 24.742188 27.8125 24.742188 32.109375 C 24.742188 35.839844 24.742188 39.570312 24.742188 43.300781 C 24.742188 45.109375 24.683594 46.933594 24.742188 48.742188 C 24.746094 48.769531 24.742188 48.796875 24.742188 48.820312 C 24.742188 49.503906 25.324219 50.085938 26.007812 50.085938 C 29.570312 50.085938 33.132812 50.085938 36.695312 50.085938 C 37.207031 50.085938 37.714844 50.085938 38.222656 50.085938 C 38.609375 50.085938 38.90625 49.941406 39.109375 49.722656 C 39.335938 49.519531 39.488281 49.21875 39.488281 48.820312 C 39.488281 47.546875 39.488281 46.273438 39.488281 45.003906 C 39.488281 41.960938 39.488281 38.921875 39.488281 35.882812 C 39.488281 32.1875 39.488281 28.496094 39.488281 24.800781 C 39.488281 21.605469 39.488281 18.410156 39.488281 15.21875 C 39.488281 14.070312 39.519531 12.917969 39.511719 11.765625 C 43.074219 11.765625 46.632812 11.765625 50.191406 11.765625 C 51.292969 11.765625 52.214844 11.871094 53.1875 12.289062 C 54.742188 12.953125 55.914062 14.136719 56.691406 15.707031 C 56.988281 16.3125 57.234375 17.339844 57.273438 18.046875 C 57.324219 19.007812 57.242188 19.640625 56.960938 20.53125 C 56.472656 22.0625 55.355469 23.441406 53.9375 24.269531 C 53.429688 24.5625 53.191406 24.671875 52.703125 24.832031 C 52.445312 24.917969 52.179688 24.988281 51.910156 25.046875 C 51.617188 25.109375 51.570312 25.117188 51.355469 25.140625 C 50.839844 25.191406 50.316406 25.179688 49.796875 25.179688 C 48.640625 25.179688 47.480469 25.179688 46.324219 25.179688 C 44.695312 25.179688 44.691406 27.710938 46.324219 27.710938 C 47.414062 27.710938 48.503906 27.710938 49.59375 27.710938 C 51.058594 27.710938 52.5 27.640625 53.886719 27.085938 C 58.023438 25.4375 60.429688 21.125 59.648438 16.738281 C 58.875 12.425781 54.90625 9.269531 50.578125 9.234375 C 48.722656 9.222656 46.863281 9.234375 45.003906 9.234375 C 42.742188 9.234375 40.484375 9.234375 38.222656 9.234375 C 37.835938 9.234375 37.539062 9.378906 37.335938 9.597656 C 37.109375 9.800781 36.957031 10.101562 36.957031 10.5 C 36.957031 11.773438 36.957031 13.046875 36.957031 14.320312 C 36.957031 17.359375 36.957031 20.398438 36.957031 23.4375 C 36.957031 27.132812 36.957031 30.828125 36.957031 34.519531 C 36.957031 37.714844 36.957031 40.910156 36.957031 44.105469 C 36.957031 45.25 36.925781 46.40625 36.933594 47.554688 C 33.800781 47.554688 30.667969 47.554688 27.535156 47.554688 C 27.449219 47.554688 27.363281 47.554688 27.273438 47.554688 C 27.273438 46.492188 27.273438 45.429688 27.273438 44.363281 C 27.273438 40.800781 27.273438 37.234375 27.273438 33.667969 C 27.273438 29.371094 27.273438 25.074219 27.273438 20.777344 C 27.273438 17.046875 27.273438 13.316406 27.273438 9.585938 C 27.273438 8.359375 27.273438 7.132812 27.273438 5.90625 C 27.273438 5.714844 27.277344 5.523438 27.285156 5.332031 C 28.34375 5.332031 29.40625 5.332031 30.464844 5.332031 C 34.03125 5.332031 37.597656 5.332031 41.164062 5.332031 C 45.460938 5.332031 49.753906 5.332031 54.050781 5.332031 C 57.78125 5.332031 61.511719 5.332031 65.242188 5.332031 C 66.46875 5.332031 67.695312 5.332031 68.921875 5.332031 C 69.113281 5.332031 69.304688 5.335938 69.5 5.339844 C 69.5 6.402344 69.5 7.460938 69.5 8.523438 C 69.5 12.085938 69.5 15.652344 69.5 19.21875 C 69.5 23.515625 69.5 27.8125 69.5 32.109375 C 69.5 35.839844 69.5 39.570312 69.5 43.300781 C 69.5 44.527344 69.5 45.753906 69.5 46.980469 C 69.5 47.171875 69.492188 47.363281 69.488281 47.554688 C 66.105469 47.554688 62.722656 47.554688 59.339844 47.554688 C 58.792969 47.554688 58.246094 47.554688 57.699219 47.554688 C 56.070312 47.554688 56.066406 50.085938 57.699219 50.085938 C 61.507812 50.085938 65.3125 50.085938 69.121094 50.085938 C 69.667969 50.085938 70.214844 50.085938 70.765625 50.085938 C 71.449219 50.085938 72.03125 49.507812 72.03125 48.820312 C 72.03125 47.335938 72.03125 45.851562 72.03125 44.363281 C 72.03125 40.800781 72.03125 37.234375 72.03125 33.667969 C 72.03125 29.371094 72.03125 25.074219 72.03125 20.777344 C 72.03125 17.046875 72.03125 13.316406 72.03125 9.585938 C 72.03125 7.777344 72.089844 5.953125 72.03125 4.144531 C 72.027344 4.117188 72.03125 4.09375 72.03125 4.066406"/></g><path fill="#FFF" d="M 63.988281 32.914062 L 64.539062 29 L 64.601562 29 L 64.652344 29.328125 C 64.78125 30.199219 64.914062 31.070312 65.039062 31.941406 C 65.070312 32.171875 65.074219 32.40625 65.09375 32.640625 C 65.113281 32.875 65.128906 32.917969 65.378906 32.953125 L 68.828125 33.4375 C 68.878906 33.453125 68.929688 33.46875 68.976562 33.492188 C 68.859375 33.519531 68.796875 33.535156 68.734375 33.546875 C 67.882812 33.679688 67.03125 33.8125 66.175781 33.941406 C 65.902344 33.980469 65.625 34.007812 65.347656 34.042969 C 65.125 34.070312 65.125 34.078125 65.09375 34.3125 C 64.933594 35.492188 64.777344 36.671875 64.625 37.847656 C 64.621094 37.882812 64.601562 37.914062 64.574219 37.9375 C 64.433594 37.304688 64.355469 36.660156 64.261719 36.023438 C 64.167969 35.386719 64.085938 34.742188 64 34.089844 L 60.261719 33.527344 C 60.648438 33.34375 61.070312 33.351562 61.46875 33.277344 C 61.867188 33.207031 62.300781 33.140625 62.714844 33.082031 C 63.128906 33.023438 63.558594 32.96875 63.988281 32.914062 Z M 63.988281 32.914062"/><path fill="#FFF" d="M 38.613281 43.015625 L 38.820312 41.5625 L 38.839844 41.5625 C 38.839844 41.601562 38.839844 41.644531 38.859375 41.683594 C 38.910156 42.007812 38.957031 42.332031 39.003906 42.652344 C 39.015625 42.738281 39.015625 42.828125 39.023438 42.902344 C 39.03125 42.976562 39.023438 43.007812 39.132812 43.019531 L 40.410156 43.199219 L 40.464844 43.21875 L 40.375 43.238281 L 39.425781 43.386719 C 39.324219 43.398438 39.222656 43.410156 39.117188 43.421875 C 39.015625 43.433594 39.035156 43.421875 39.023438 43.523438 L 38.851562 44.832031 C 38.847656 44.847656 38.839844 44.859375 38.832031 44.867188 C 38.777344 44.632812 38.75 44.394531 38.714844 44.15625 C 38.683594 43.917969 38.652344 43.691406 38.617188 43.441406 L 37.234375 43.230469 C 37.378906 43.179688 37.527344 43.148438 37.679688 43.136719 C 37.835938 43.105469 37.988281 43.085938 38.144531 43.0625 C 38.296875 43.042969 38.453125 43.035156 38.613281 43.015625 Z M 38.613281 43.015625"/><g clip-path="url(#b)"><path fill="#FFF" d="M 55.859375 28.1875 L 56.074219 26.738281 L 56.097656 26.738281 C 56.097656 26.777344 56.113281 26.820312 56.117188 26.859375 C 56.167969 27.183594 56.214844 27.503906 56.261719 27.828125 C 56.261719 27.914062 56.273438 28 56.28125 28.078125 C 56.289062 28.15625 56.296875 28.179688 56.386719 28.191406 L 57.667969 28.371094 L 57.722656 28.390625 C 57.691406 28.398438 57.664062 28.40625 57.632812 28.410156 L 56.683594 28.558594 C 56.582031 28.574219 56.480469 28.585938 56.375 28.597656 C 56.273438 28.609375 56.292969 28.613281 56.28125 28.699219 L 56.097656 30.019531 C 56.097656 30.03125 56.089844 30.042969 56.078125 30.050781 C 56.027344 29.816406 56 29.578125 55.964844 29.34375 C 55.929688 29.105469 55.898438 28.867188 55.867188 28.625 L 54.480469 28.417969 C 54.625 28.363281 54.777344 28.332031 54.929688 28.324219 C 55.082031 28.289062 55.238281 28.269531 55.390625 28.246094 C 55.546875 28.226562 55.707031 28.207031 55.859375 28.1875 Z M 55.859375 28.1875"/></g><path fill="#FFF" d="M 57.277344 32.828125 C 57.277344 32.917969 57.277344 33.003906 57.277344 33.089844 C 57.257812 33.566406 57.21875 34.046875 57.207031 34.523438 C 57.183594 35.371094 57.183594 36.21875 57.164062 37.0625 C 57.15625 37.226562 57.132812 37.382812 57.089844 37.539062 C 57.023438 37.769531 56.90625 37.859375 56.726562 37.851562 C 56.519531 37.816406 56.402344 37.695312 56.375 37.480469 C 56.367188 37.429688 56.367188 37.382812 56.375 37.332031 C 56.371094 36.402344 56.097656 35.5625 55.5625 34.816406 C 55.140625 34.167969 54.597656 33.660156 53.929688 33.296875 C 53.53125 33.078125 53.113281 32.921875 52.675781 32.828125 C 52.074219 32.695312 51.472656 32.648438 50.859375 32.683594 C 49.917969 32.714844 49.0625 33.003906 48.285156 33.554688 C 47.449219 34.148438 46.957031 34.964844 46.8125 36.003906 C 46.699219 36.722656 46.761719 37.429688 46.992188 38.117188 C 47.125 38.46875 47.296875 38.792969 47.515625 39.09375 C 47.980469 39.761719 48.519531 40.363281 49.132812 40.890625 L 49.304688 41.042969 C 49.289062 41.160156 49.210938 41.167969 49.132812 41.191406 C 48.519531 41.375 44.84375 42.628906 44.675781 42.703125 C 44.554688 42.757812 44.433594 42.792969 44.28125 42.847656 C 44.207031 42.726562 44.132812 42.617188 44.066406 42.5 C 43.789062 41.996094 43.558594 41.464844 43.382812 40.910156 C 43.238281 40.421875 43.136719 39.921875 43.078125 39.414062 C 43 38.816406 42.984375 38.214844 43.023438 37.613281 C 43.082031 36.753906 43.296875 35.9375 43.660156 35.164062 C 44.082031 34.296875 44.65625 33.558594 45.382812 32.941406 C 46.003906 32.402344 46.6875 31.980469 47.441406 31.679688 C 47.859375 31.511719 48.285156 31.367188 48.710938 31.234375 C 49.007812 31.148438 49.308594 31.082031 49.617188 31.039062 C 50.445312 30.894531 51.277344 30.832031 52.121094 30.851562 C 52.789062 30.882812 53.457031 30.941406 54.125 31.007812 C 54.582031 31.054688 55.035156 31.125 55.488281 31.203125 C 56.007812 31.285156 56.523438 31.410156 57.023438 31.574219 C 57.265625 31.660156 57.417969 31.824219 57.328125 32.230469"/><g clip-path="url(#c)"><path fill="#FFF" d="M 72.953125 43.851562 C 72.773438 43.25 72.457031 42.734375 72.003906 42.3125 C 71.738281 42.058594 71.445312 41.835938 71.132812 41.648438 C 70.734375 41.410156 70.316406 41.199219 69.886719 41.023438 C 69.484375 40.867188 69.074219 40.734375 68.65625 40.628906 C 68.367188 40.546875 68.070312 40.496094 67.78125 40.429688 C 67.539062 40.378906 67.296875 40.3125 67.042969 40.28125 C 66.640625 40.230469 66.242188 40.199219 65.835938 40.160156 C 65.796875 40.160156 65.757812 40.148438 65.71875 40.144531 C 65.367188 40.121094 65.015625 40.097656 64.664062 40.078125 C 64.628906 40.078125 64.589844 40.097656 64.546875 40.101562 C 64.453125 40.105469 64.359375 40.105469 64.265625 40.101562 C 64.132812 40.082031 64 40.074219 63.867188 40.074219 C 63.609375 40.097656 63.347656 40.097656 63.089844 40.074219 C 62.125 40.03125 61.175781 40.140625 60.222656 40.1875 C 60.148438 40.195312 60.078125 40.207031 60.007812 40.222656 L 59.609375 40.273438 C 59.25 40.3125 58.886719 40.347656 58.527344 40.390625 C 58.285156 40.417969 58.058594 40.453125 57.824219 40.492188 C 57.523438 40.539062 57.21875 40.59375 56.914062 40.644531 C 56.671875 40.683594 56.433594 40.707031 56.191406 40.753906 C 55.796875 40.832031 55.40625 40.921875 55.011719 41.003906 C 54.617188 41.085938 54.289062 41.140625 53.921875 41.214844 C 53.757812 41.246094 53.601562 41.285156 53.4375 41.324219 L 52.425781 41.574219 C 52.144531 41.644531 51.859375 41.714844 51.578125 41.792969 C 51.296875 41.871094 51.003906 41.953125 50.714844 42.042969 C 50.425781 42.132812 50.164062 42.179688 49.894531 42.261719 C 49.539062 42.363281 49.1875 42.476562 48.832031 42.585938 L 47.746094 42.917969 L 47.394531 43.023438 C 46.304688 43.332031 45.238281 43.703125 44.191406 44.140625 C 44.019531 44.203125 43.847656 44.269531 43.679688 44.335938 C 43.65625 44.34375 43.636719 44.355469 43.621094 44.371094 L 43.242188 44.527344 L 43.207031 44.527344 L 42.53125 44.8125 C 42.53125 44.804688 42.53125 44.800781 42.53125 44.796875 C 42.351562 44.863281 42.195312 44.917969 42.046875 44.988281 L 40.339844 45.761719 C 39.457031 46.148438 38.867188 46.433594 38.867188 46.433594 L 38.84375 46.453125 L 38.601562 46.5625 C 37.398438 47.136719 36.191406 47.769531 35.03125 48.4375 C 34.023438 49.015625 33.027344 49.613281 32.039062 50.222656 C 31.453125 50.582031 30.878906 50.96875 30.316406 51.371094 C 29.644531 51.847656 28.984375 52.34375 28.332031 52.847656 C 27.734375 53.324219 27.171875 53.835938 26.640625 54.390625 C 26.320312 54.726562 26.035156 55.085938 25.777344 55.476562 C 25.75 55.523438 25.730469 55.574219 25.714844 55.625 C 25.75 55.625 25.769531 55.625 25.78125 55.625 C 26.773438 54.964844 27.800781 54.355469 28.84375 53.785156 C 29.640625 53.351562 30.4375 52.925781 31.238281 52.511719 C 32.042969 52.101562 32.816406 51.726562 33.609375 51.335938 C 34.117188 51.085938 34.632812 50.851562 35.140625 50.605469 L 38.363281 49.144531 L 38.886719 48.894531 L 39.214844 48.773438 L 39.261719 48.753906 L 44.566406 46.722656 L 44.628906 46.703125 C 45.03125 46.566406 45.433594 46.4375 45.832031 46.308594 C 46.109375 46.222656 46.394531 46.15625 46.664062 46.058594 C 46.792969 46 46.90625 46.023438 47.007812 46.125 C 47.546875 46.597656 48.085938 47.070312 48.640625 47.527344 C 49.292969 48.066406 49.957031 48.582031 50.613281 49.113281 C 51.265625 49.632812 51.863281 50.214844 52.402344 50.859375 C 52.882812 51.40625 53.265625 52.011719 53.5625 52.679688 C 53.6875 52.984375 53.789062 53.292969 53.871094 53.613281 C 53.9375 53.894531 53.949219 54.191406 53.988281 54.480469 C 54.085938 55.21875 53.992188 55.929688 53.707031 56.617188 C 53.304688 57.605469 52.644531 58.347656 51.726562 58.839844 C 51.335938 59.058594 50.925781 59.21875 50.496094 59.324219 C 50.207031 59.394531 49.898438 59.398438 49.609375 59.464844 C 49.011719 59.59375 48.421875 59.488281 47.839844 59.414062 C 47.417969 59.34375 47.007812 59.226562 46.609375 59.066406 C 45.691406 58.726562 44.953125 58.144531 44.390625 57.320312 C 43.914062 56.613281 43.59375 55.839844 43.425781 54.992188 C 43.292969 54.472656 43.226562 53.941406 43.230469 53.402344 C 43.226562 53.328125 43.214844 53.257812 43.1875 53.191406 C 43.136719 53.019531 43.027344 52.9375 42.855469 52.941406 C 42.675781 52.933594 42.558594 53.015625 42.503906 53.191406 C 42.445312 53.308594 42.410156 53.429688 42.390625 53.558594 C 42.347656 53.914062 42.308594 54.269531 42.292969 54.625 C 42.269531 55.1875 42.234375 55.75 42.210938 56.308594 C 42.164062 57.417969 42.1875 58.535156 42.1875 59.648438 C 42.195312 59.722656 42.210938 59.792969 42.238281 59.859375 C 42.355469 60.15625 42.566406 60.347656 42.863281 60.433594 C 43.144531 60.558594 43.429688 60.683594 43.714844 60.78125 C 44.03125 60.898438 44.355469 60.996094 44.679688 61.078125 C 45.0625 61.164062 45.453125 61.226562 45.847656 61.277344 C 46.363281 61.34375 46.878906 61.40625 47.398438 61.429688 C 48 61.457031 48.605469 61.429688 49.203125 61.429688 C 49.371094 61.433594 49.535156 61.425781 49.703125 61.410156 C 50.0625 61.367188 50.421875 61.3125 50.78125 61.253906 C 51.117188 61.207031 51.449219 61.140625 51.777344 61.054688 C 52.203125 60.929688 52.625 60.773438 53.039062 60.609375 C 54.082031 60.183594 55.007812 59.5625 55.804688 58.746094 C 56.464844 58.082031 56.980469 57.316406 57.359375 56.445312 C 57.589844 55.929688 57.75 55.394531 57.84375 54.832031 C 57.914062 54.515625 57.964844 54.199219 58 53.875 C 58.085938 52.78125 58.007812 51.703125 57.757812 50.636719 C 57.625 50.046875 57.4375 49.476562 57.195312 48.925781 C 56.84375 48.195312 56.414062 47.519531 55.90625 46.894531 C 55.390625 46.253906 54.832031 45.65625 54.238281 45.101562 C 54.042969 44.917969 53.851562 44.722656 53.660156 44.53125 C 53.660156 44.511719 53.675781 44.496094 53.683594 44.476562 C 54.03125 44.414062 54.378906 44.34375 54.726562 44.296875 C 55.285156 44.222656 55.839844 44.164062 56.394531 44.097656 L 56.492188 44.097656 C 56.875 44.042969 57.253906 43.984375 57.636719 43.9375 C 57.964844 43.898438 58.296875 43.867188 58.628906 43.847656 C 59.164062 43.8125 59.699219 43.777344 60.238281 43.757812 C 60.6875 43.742188 61.136719 43.757812 61.585938 43.742188 C 62.484375 43.710938 63.375 43.796875 64.265625 43.847656 C 64.3125 43.847656 64.359375 43.851562 64.40625 43.863281 L 65.335938 44.023438 C 65.5625 44.0625 65.789062 44.078125 66.007812 44.136719 C 66.390625 44.234375 66.765625 44.351562 67.136719 44.492188 C 67.605469 44.652344 68.007812 44.921875 68.34375 45.300781 C 68.550781 45.542969 68.660156 45.828125 68.671875 46.15625 C 68.710938 46.652344 68.648438 47.140625 68.484375 47.609375 C 68.375 47.921875 68.25 48.226562 68.109375 48.523438 C 67.792969 49.113281 67.410156 49.652344 66.960938 50.144531 C 66.316406 50.851562 65.621094 51.496094 64.871094 52.078125 C 64.160156 52.628906 63.421875 53.136719 62.652344 53.59375 C 61.765625 54.117188 60.867188 54.609375 59.972656 55.117188 L 59.757812 55.234375 C 59.800781 55.269531 59.84375 55.277344 59.894531 55.261719 L 60.890625 54.832031 C 61.660156 54.488281 62.4375 54.171875 63.195312 53.804688 C 64.117188 53.355469 65.027344 52.878906 65.925781 52.386719 C 66.980469 51.824219 67.992188 51.191406 68.957031 50.484375 C 69.402344 50.152344 69.855469 49.824219 70.273438 49.457031 C 70.75 49.066406 71.1875 48.632812 71.582031 48.15625 C 71.855469 47.804688 72.15625 47.46875 72.398438 47.089844 C 72.671875 46.695312 72.855469 46.261719 72.949219 45.789062 C 72.996094 45.511719 73.082031 45.238281 73.105469 44.957031 C 73.125 44.578125 73.074219 44.210938 72.953125 43.851562 Z M 72.953125 43.851562"/></g><g fill="#FFF"><g><g><path d="M 1.203125 -16.5625 L 7.25 -16.5625 C 8.9375 -16.5625 10.300781 -16.125 11.34375 -15.25 C 12.382812 -14.382812 12.90625 -13.117188 12.90625 -11.453125 C 12.90625 -9.796875 12.375 -8.492188 11.3125 -7.546875 C 10.257812 -6.609375 8.90625 -6.140625 7.25 -6.140625 L 4.984375 -6.140625 L 4.984375 0 L 1.203125 0 Z M 4.984375 -9.15625 L 6.046875 -9.15625 C 6.890625 -9.15625 7.582031 -9.320312 8.125 -9.65625 C 8.664062 -10 8.9375 -10.5625 8.9375 -11.34375 C 8.9375 -12.132812 8.664062 -12.695312 8.125 -13.03125 C 7.582031 -13.375 6.890625 -13.546875 6.046875 -13.546875 L 4.984375 -13.546875 Z M 4.984375 -9.15625" transform="translate(79.118 21.517)"/></g></g></g><g fill="#FFF"><g><g><path d="M 1.203125 -16.5625 L 7.125 -16.5625 C 8.71875 -16.5625 10.015625 -16.132812 11.015625 -15.28125 C 12.023438 -14.4375 12.53125 -13.222656 12.53125 -11.640625 C 12.53125 -10.421875 12.222656 -9.398438 11.609375 -8.578125 C 11.003906 -7.753906 10.179688 -7.175781 9.140625 -6.84375 L 14.84375 0 L 10.046875 0 L 4.984375 -6.546875 L 4.984375 0 L 1.203125 0 Z M 4.984375 -9.21875 L 5.421875 -9.21875 C 5.765625 -9.21875 6.054688 -9.222656 6.296875 -9.234375 C 6.546875 -9.242188 6.820312 -9.289062 7.125 -9.375 C 7.4375 -9.457031 7.6875 -9.570312 7.875 -9.71875 C 8.0625 -9.863281 8.21875 -10.078125 8.34375 -10.359375 C 8.476562 -10.640625 8.546875 -10.976562 8.546875 -11.375 C 8.546875 -11.78125 8.476562 -12.125 8.34375 -12.40625 C 8.21875 -12.6875 8.0625 -12.898438 7.875 -13.046875 C 7.6875 -13.191406 7.4375 -13.304688 7.125 -13.390625 C 6.820312 -13.472656 6.546875 -13.519531 6.296875 -13.53125 C 6.054688 -13.539062 5.765625 -13.546875 5.421875 -13.546875 L 4.984375 -13.546875 Z M 4.984375 -9.21875" transform="translate(92.489 21.517)"/></g></g></g><g fill="#FFF"><g><g><path d="M 10.6875 -16.5625 L 10.6875 -13.25 L 4.984375 -13.25 L 4.984375 -9.953125 L 10.4375 -9.953125 L 10.4375 -6.640625 L 4.984375 -6.640625 L 4.984375 -3.3125 L 10.6875 -3.3125 L 10.6875 0 L 1.203125 0 L 1.203125 -16.5625 Z M 10.6875 -16.5625" transform="translate(106.863 21.517)"/></g></g></g><g fill="#FFF"><g><g><path d="M 7.3125 -16.859375 C 8.207031 -16.859375 9.082031 -16.726562 9.9375 -16.46875 C 10.789062 -16.207031 11.425781 -15.953125 11.84375 -15.703125 L 12.453125 -15.296875 L 10.921875 -12.28125 C 10.796875 -12.363281 10.625 -12.46875 10.40625 -12.59375 C 10.195312 -12.726562 9.796875 -12.898438 9.203125 -13.109375 C 8.617188 -13.328125 8.070312 -13.4375 7.5625 -13.4375 C 6.9375 -13.4375 6.453125 -13.300781 6.109375 -13.03125 C 5.773438 -12.757812 5.609375 -12.398438 5.609375 -11.953125 C 5.609375 -11.722656 5.6875 -11.507812 5.84375 -11.3125 C 6 -11.113281 6.269531 -10.90625 6.65625 -10.6875 C 7.050781 -10.46875 7.394531 -10.289062 7.6875 -10.15625 C 7.976562 -10.019531 8.4375 -9.820312 9.0625 -9.5625 C 10.125 -9.101562 11.035156 -8.484375 11.796875 -7.703125 C 12.554688 -6.921875 12.9375 -6.035156 12.9375 -5.046875 C 12.9375 -4.085938 12.765625 -3.253906 12.421875 -2.546875 C 12.078125 -1.835938 11.609375 -1.28125 11.015625 -0.875 C 10.421875 -0.476562 9.757812 -0.1875 9.03125 0 C 8.3125 0.195312 7.53125 0.296875 6.6875 0.296875 C 5.96875 0.296875 5.257812 0.222656 4.5625 0.078125 C 3.863281 -0.0664062 3.28125 -0.25 2.8125 -0.46875 C 2.34375 -0.6875 1.921875 -0.90625 1.546875 -1.125 C 1.171875 -1.34375 0.894531 -1.523438 0.71875 -1.671875 L 0.46875 -1.890625 L 2.34375 -5.0625 C 2.507812 -4.925781 2.734375 -4.753906 3.015625 -4.546875 C 3.296875 -4.335938 3.789062 -4.054688 4.5 -3.703125 C 5.21875 -3.359375 5.851562 -3.1875 6.40625 -3.1875 C 8 -3.1875 8.796875 -3.726562 8.796875 -4.8125 C 8.796875 -5.039062 8.738281 -5.253906 8.625 -5.453125 C 8.507812 -5.648438 8.304688 -5.84375 8.015625 -6.03125 C 7.734375 -6.226562 7.476562 -6.382812 7.25 -6.5 C 7.03125 -6.613281 6.671875 -6.785156 6.171875 -7.015625 C 5.671875 -7.253906 5.300781 -7.429688 5.0625 -7.546875 C 4.050781 -8.046875 3.269531 -8.664062 2.71875 -9.40625 C 2.175781 -10.144531 1.90625 -10.945312 1.90625 -11.8125 C 1.90625 -13.289062 2.453125 -14.5 3.546875 -15.4375 C 4.648438 -16.382812 5.90625 -16.859375 7.3125 -16.859375 Z M 7.3125 -16.859375" transform="translate(118.508 21.517)"/></g></g></g><g fill="#FFF"><g><g><path d="M 10.6875 -16.5625 L 10.6875 -13.25 L 4.984375 -13.25 L 4.984375 -9.953125 L 10.4375 -9.953125 L 10.4375 -6.640625 L 4.984375 -6.640625 L 4.984375 -3.3125 L 10.6875 -3.3125 L 10.6875 0 L 1.203125 0 L 1.203125 -16.5625 Z M 10.6875 -16.5625" transform="translate(131.999 21.517)"/></g></g></g><g fill="#FFF"><g><g><path d="M 9.625 -16.5625 L 16.296875 0 L 12.25 0 L 11.015625 -3.3125 L 4.71875 -3.3125 L 3.5 0 L -0.5625 0 L 6.125 -16.5625 Z M 9.734375 -6.625 L 7.890625 -11.4375 L 7.84375 -11.4375 L 6 -6.625 Z M 9.734375 -6.625" transform="translate(143.643 21.517)"/></g></g></g><g fill="#FFF"><g><g><path d="M 1.203125 -16.5625 L 7.125 -16.5625 C 8.71875 -16.5625 10.015625 -16.132812 11.015625 -15.28125 C 12.023438 -14.4375 12.53125 -13.222656 12.53125 -11.640625 C 12.53125 -10.421875 12.222656 -9.398438 11.609375 -8.578125 C 11.003906 -7.753906 10.179688 -7.175781 9.140625 -6.84375 L 14.84375 0 L 10.046875 0 L 4.984375 -6.546875 L 4.984375 0 L 1.203125 0 Z M 4.984375 -9.21875 L 5.421875 -9.21875 C 5.765625 -9.21875 6.054688 -9.222656 6.296875 -9.234375 C 6.546875 -9.242188 6.820312 -9.289062 7.125 -9.375 C 7.4375 -9.457031 7.6875 -9.570312 7.875 -9.71875 C 8.0625 -9.863281 8.21875 -10.078125 8.34375 -10.359375 C 8.476562 -10.640625 8.546875 -10.976562 8.546875 -11.375 C 8.546875 -11.78125 8.476562 -12.125 8.34375 -12.40625 C 8.21875 -12.6875 8.0625 -12.898438 7.875 -13.046875 C 7.6875 -13.191406 7.4375 -13.304688 7.125 -13.390625 C 6.820312 -13.472656 6.546875 -13.519531 6.296875 -13.53125 C 6.054688 -13.539062 5.765625 -13.546875 5.421875 -13.546875 L 4.984375 -13.546875 Z M 4.984375 -9.21875" transform="translate(159.383 21.517)"/></g></g></g><g fill="#FFF"><g><g><path d="M 7.3125 -16.859375 C 8.207031 -16.859375 9.082031 -16.726562 9.9375 -16.46875 C 10.789062 -16.207031 11.425781 -15.953125 11.84375 -15.703125 L 12.453125 -15.296875 L 10.921875 -12.28125 C 10.796875 -12.363281 10.625 -12.46875 10.40625 -12.59375 C 10.195312 -12.726562 9.796875 -12.898438 9.203125 -13.109375 C 8.617188 -13.328125 8.070312 -13.4375 7.5625 -13.4375 C 6.9375 -13.4375 6.453125 -13.300781 6.109375 -13.03125 C 5.773438 -12.757812 5.609375 -12.398438 5.609375 -11.953125 C 5.609375 -11.722656 5.6875 -11.507812 5.84375 -11.3125 C 6 -11.113281 6.269531 -10.90625 6.65625 -10.6875 C 7.050781 -10.46875 7.394531 -10.289062 7.6875 -10.15625 C 7.976562 -10.019531 8.4375 -9.820312 9.0625 -9.5625 C 10.125 -9.101562 11.035156 -8.484375 11.796875 -7.703125 C 12.554688 -6.921875 12.9375 -6.035156 12.9375 -5.046875 C 12.9375 -4.085938 12.765625 -3.253906 12.421875 -2.546875 C 12.078125 -1.835938 11.609375 -1.28125 11.015625 -0.875 C 10.421875 -0.476562 9.757812 -0.1875 9.03125 0 C 8.3125 0.195312 7.53125 0.296875 6.6875 0.296875 C 5.96875 0.296875 5.257812 0.222656 4.5625 0.078125 C 3.863281 -0.0664062 3.28125 -0.25 2.8125 -0.46875 C 2.34375 -0.6875 1.921875 -0.90625 1.546875 -1.125 C 1.171875 -1.34375 0.894531 -1.523438 0.71875 -1.671875 L 0.46875 -1.890625 L 2.34375 -5.0625 C 2.507812 -4.925781 2.734375 -4.753906 3.015625 -4.546875 C 3.296875 -4.335938 3.789062 -4.054688 4.5 -3.703125 C 5.21875 -3.359375 5.851562 -3.1875 6.40625 -3.1875 C 8 -3.1875 8.796875 -3.726562 8.796875 -4.8125 C 8.796875 -5.039062 8.738281 -5.253906 8.625 -5.453125 C 8.507812 -5.648438 8.304688 -5.84375 8.015625 -6.03125 C 7.734375 -6.226562 7.476562 -6.382812 7.25 -6.5 C 7.03125 -6.613281 6.671875 -6.785156 6.171875 -7.015625 C 5.671875 -7.253906 5.300781 -7.429688 5.0625 -7.546875 C 4.050781 -8.046875 3.269531 -8.664062 2.71875 -9.40625 C 2.175781 -10.144531 1.90625 -10.945312 1.90625 -11.8125 C 1.90625 -13.289062 2.453125 -14.5 3.546875 -15.4375 C 4.648438 -16.382812 5.90625 -16.859375 7.3125 -16.859375 Z M 7.3125 -16.859375" transform="translate(79.118 47.425)"/></g></g></g><g fill="#FFF"><g><g><path d="M 0.46875 -8.296875 C 0.46875 -10.691406 1.28125 -12.71875 2.90625 -14.375 C 4.539062 -16.03125 6.507812 -16.859375 8.8125 -16.859375 C 11.125 -16.859375 13.085938 -16.03125 14.703125 -14.375 C 16.328125 -12.726562 17.140625 -10.703125 17.140625 -8.296875 C 17.140625 -5.867188 16.34375 -3.828125 14.75 -2.171875 C 13.164062 -0.523438 11.1875 0.296875 8.8125 0.296875 C 6.394531 0.296875 4.398438 -0.519531 2.828125 -2.15625 C 1.253906 -3.800781 0.46875 -5.847656 0.46875 -8.296875 Z M 4.53125 -8.296875 C 4.53125 -7.421875 4.664062 -6.625 4.9375 -5.90625 C 5.207031 -5.195312 5.675781 -4.59375 6.34375 -4.09375 C 7.007812 -3.601562 7.832031 -3.359375 8.8125 -3.359375 C 10.21875 -3.359375 11.28125 -3.835938 12 -4.796875 C 12.71875 -5.765625 13.078125 -6.929688 13.078125 -8.296875 C 13.078125 -9.640625 12.707031 -10.796875 11.96875 -11.765625 C 11.238281 -12.742188 10.1875 -13.234375 8.8125 -13.234375 C 7.445312 -13.234375 6.390625 -12.742188 5.640625 -11.765625 C 4.898438 -10.796875 4.53125 -9.640625 4.53125 -8.296875 Z M 4.53125 -8.296875" transform="translate(92.61 47.425)"/></g></g></g><g fill="#FFF"><g><g><path d="M 10.78125 -16.5625 L 10.78125 -13.25 L 4.984375 -13.25 L 4.984375 -9.953125 L 10.34375 -9.953125 L 10.34375 -6.640625 L 4.984375 -6.640625 L 4.984375 0 L 1.203125 0 L 1.203125 -16.5625 Z M 10.78125 -16.5625" transform="translate(110.216 47.425)"/></g></g></g><g fill="#FFF"><g><g><path d="M 0.15625 -13.25 L 0.15625 -16.5625 L 11.8125 -16.5625 L 11.8125 -13.25 L 7.875 -13.25 L 7.875 0 L 4.09375 0 L 4.09375 -13.25 Z M 0.15625 -13.25" transform="translate(121.6 47.425)"/></g></g></g><g fill="#FFF"><g><g><path d="M 13.921875 0 L 11.265625 -9.296875 L 8.609375 0 L 4.421875 0 L -0.296875 -16.5625 L 3.890625 -16.5625 L 6.71875 -5.203125 L 6.828125 -5.203125 L 9.84375 -16.5625 L 12.6875 -16.5625 L 15.703125 -5.203125 L 15.796875 -5.203125 L 18.625 -16.5625 L 22.8125 -16.5625 L 18.09375 0 Z M 13.921875 0" transform="translate(133.565 47.425)"/></g></g></g><g fill="#FFF"><g><g><path d="M 9.625 -16.5625 L 16.296875 0 L 12.25 0 L 11.015625 -3.3125 L 4.71875 -3.3125 L 3.5 0 L -0.5625 0 L 6.125 -16.5625 Z M 9.734375 -6.625 L 7.890625 -11.4375 L 7.84375 -11.4375 L 6 -6.625 Z M 9.734375 -6.625" transform="translate(156.07 47.425)"/></g></g></g><g fill="#FFF"><g><g><path d="M 1.203125 -16.5625 L 7.125 -16.5625 C 8.71875 -16.5625 10.015625 -16.132812 11.015625 -15.28125 C 12.023438 -14.4375 12.53125 -13.222656 12.53125 -11.640625 C 12.53125 -10.421875 12.222656 -9.398438 11.609375 -8.578125 C 11.003906 -7.753906 10.179688 -7.175781 9.140625 -6.84375 L 14.84375 0 L 10.046875 0 L 4.984375 -6.546875 L 4.984375 0 L 1.203125 0 Z M 4.984375 -9.21875 L 5.421875 -9.21875 C 5.765625 -9.21875 6.054688 -9.222656 6.296875 -9.234375 C 6.546875 -9.242188 6.820312 -9.289062 7.125 -9.375 C 7.4375 -9.457031 7.6875 -9.570312 7.875 -9.71875 C 8.0625 -9.863281 8.21875 -10.078125 8.34375 -10.359375 C 8.476562 -10.640625 8.546875 -10.976562 8.546875 -11.375 C 8.546875 -11.78125 8.476562 -12.125 8.34375 -12.40625 C 8.21875 -12.6875 8.0625 -12.898438 7.875 -13.046875 C 7.6875 -13.191406 7.4375 -13.304688 7.125 -13.390625 C 6.820312 -13.472656 6.546875 -13.519531 6.296875 -13.53125 C 6.054688 -13.539062 5.765625 -13.546875 5.421875 -13.546875 L 4.984375 -13.546875 Z M 4.984375 -9.21875" transform="translate(171.81 47.425)"/></g></g></g><g fill="#FFF"><g><g><path d="M 10.6875 -16.5625 L 10.6875 -13.25 L 4.984375 -13.25 L 4.984375 -9.953125 L 10.4375 -9.953125 L 10.4375 -6.640625 L 4.984375 -6.640625 L 4.984375 -3.3125 L 10.6875 -3.3125 L 10.6875 0 L 1.203125 0 L 1.203125 -16.5625 Z M 10.6875 -16.5625" transform="translate(186.184 47.425)"/></g></g></g><g fill="#FFF"><g><g><path d="M 7.3125 -16.859375 C 8.207031 -16.859375 9.082031 -16.726562 9.9375 -16.46875 C 10.789062 -16.207031 11.425781 -15.953125 11.84375 -15.703125 L 12.453125 -15.296875 L 10.921875 -12.28125 C 10.796875 -12.363281 10.625 -12.46875 10.40625 -12.59375 C 10.195312 -12.726562 9.796875 -12.898438 9.203125 -13.109375 C 8.617188 -13.328125 8.070312 -13.4375 7.5625 -13.4375 C 6.9375 -13.4375 6.453125 -13.300781 6.109375 -13.03125 C 5.773438 -12.757812 5.609375 -12.398438 5.609375 -11.953125 C 5.609375 -11.722656 5.6875 -11.507812 5.84375 -11.3125 C 6 -11.113281 6.269531 -10.90625 6.65625 -10.6875 C 7.050781 -10.46875 7.394531 -10.289062 7.6875 -10.15625 C 7.976562 -10.019531 8.4375 -9.820312 9.0625 -9.5625 C 10.125 -9.101562 11.035156 -8.484375 11.796875 -7.703125 C 12.554688 -6.921875 12.9375 -6.035156 12.9375 -5.046875 C 12.9375 -4.085938 12.765625 -3.253906 12.421875 -2.546875 C 12.078125 -1.835938 11.609375 -1.28125 11.015625 -0.875 C 10.421875 -0.476562 9.757812 -0.1875 9.03125 0 C 8.3125 0.195312 7.53125 0.296875 6.6875 0.296875 C 5.96875 0.296875 5.257812 0.222656 4.5625 0.078125 C 3.863281 -0.0664062 3.28125 -0.25 2.8125 -0.46875 C 2.34375 -0.6875 1.921875 -0.90625 1.546875 -1.125 C 1.171875 -1.34375 0.894531 -1.523438 0.71875 -1.671875 L 0.46875 -1.890625 L 2.34375 -5.0625 C 2.507812 -4.925781 2.734375 -4.753906 3.015625 -4.546875 C 3.296875 -4.335938 3.789062 -4.054688 4.5 -3.703125 C 5.21875 -3.359375 5.851562 -3.1875 6.40625 -3.1875 C 8 -3.1875 8.796875 -3.726562 8.796875 -4.8125 C 8.796875 -5.039062 8.738281 -5.253906 8.625 -5.453125 C 8.507812 -5.648438 8.304688 -5.84375 8.015625 -6.03125 C 7.734375 -6.226562 7.476562 -6.382812 7.25 -6.5 C 7.03125 -6.613281 6.671875 -6.785156 6.171875 -7.015625 C 5.671875 -7.253906 5.300781 -7.429688 5.0625 -7.546875 C 4.050781 -8.046875 3.269531 -8.664062 2.71875 -9.40625 C 2.175781 -10.144531 1.90625 -10.945312 1.90625 -11.8125 C 1.90625 -13.289062 2.453125 -14.5 3.546875 -15.4375 C 4.648438 -16.382812 5.90625 -16.859375 7.3125 -16.859375 Z M 7.3125 -16.859375" transform="translate(197.829 47.425)"/></g></g></g></svg>