<svg xmlns="http://www.w3.org/2000/svg" width="150" viewBox="0 0 150 39" height="39" version="1.0"><defs><clipPath id="a"><path d="M 5.078125 1.003906 L 34 1.003906 L 34 36 L 5.078125 36 Z M 5.078125 1.003906"/></clipPath><clipPath id="b"><path d="M 16.816406 15.191406 L 22 15.191406 L 22 20.449219 L 16.816406 20.449219 Z M 16.816406 15.191406"/></clipPath><clipPath id="c"><path d="M 18 16 L 24.824219 16 L 24.824219 19 L 18 19 Z M 18 16"/></clipPath><clipPath id="d"><path d="M 13.285156 7.433594 L 19 7.433594 L 19 13 L 13.285156 13 Z M 13.285156 7.433594"/></clipPath><clipPath id="e"><path d="M 21 7.433594 L 25.800781 7.433594 L 25.800781 11 L 21 11 Z M 21 7.433594"/></clipPath><clipPath id="f"><path d="M 16 15 L 23 15 L 23 17.070312 L 16 17.070312 Z M 16 15"/></clipPath><clipPath id="g"><path d="M 13.285156 7.433594 L 17 7.433594 L 17 11 L 13.285156 11 Z M 13.285156 7.433594"/></clipPath><clipPath id="h"><path d="M 22 7.433594 L 25.800781 7.433594 L 25.800781 11 L 22 11 Z M 22 7.433594"/></clipPath><clipPath id="i"><path d="M 13.285156 10 L 15 10 L 15 12 L 13.285156 12 Z M 13.285156 10"/></clipPath><clipPath id="j"><path d="M 13.285156 11 L 16 11 L 16 13 L 13.285156 13 Z M 13.285156 11"/></clipPath><clipPath id="k"><path d="M 24 10 L 25.800781 10 L 25.800781 12 L 24 12 Z M 24 10"/></clipPath><clipPath id="l"><path d="M 24 11 L 25.800781 11 L 25.800781 13 L 24 13 Z M 24 11"/></clipPath><clipPath id="m"><path d="M 17 7.433594 L 19 7.433594 L 19 9 L 17 9 Z M 17 7.433594"/></clipPath><clipPath id="n"><path d="M 20 7.433594 L 22 7.433594 L 22 9 L 20 9 Z M 20 7.433594"/></clipPath></defs><g fill="#FFF"><g><g><path d="M 0.5 -9 C 0.5 -11.601562 1.382812 -13.804688 3.15625 -15.609375 C 4.925781 -17.410156 7.0625 -18.3125 9.5625 -18.3125 C 12.082031 -18.3125 14.21875 -17.410156 15.96875 -15.609375 C 17.726562 -13.816406 18.609375 -11.613281 18.609375 -9 C 18.609375 -6.375 17.742188 -4.160156 16.015625 -2.359375 C 14.285156 -0.566406 12.132812 0.328125 9.5625 0.328125 C 6.9375 0.328125 4.769531 -0.5625 3.0625 -2.34375 C 1.351562 -4.125 0.5 -6.34375 0.5 -9 Z M 4.921875 -9 C 4.921875 -8.050781 5.066406 -7.1875 5.359375 -6.40625 C 5.648438 -5.632812 6.160156 -4.976562 6.890625 -4.4375 C 7.617188 -3.90625 8.507812 -3.640625 9.5625 -3.640625 C 11.09375 -3.640625 12.242188 -4.160156 13.015625 -5.203125 C 13.796875 -6.253906 14.1875 -7.519531 14.1875 -9 C 14.1875 -10.46875 13.789062 -11.726562 13 -12.78125 C 12.207031 -13.832031 11.0625 -14.359375 9.5625 -14.359375 C 8.082031 -14.359375 6.9375 -13.832031 6.125 -12.78125 C 5.320312 -11.726562 4.921875 -10.46875 4.921875 -9 Z M 4.921875 -9" transform="translate(36.06 26.407)"/></g></g></g><g fill="#FFF"><g><g><path d="M 5.40625 -11.15625 L 5.40625 0 L 1.3125 0 L 1.3125 -17.984375 L 5.40625 -17.984375 L 12.5625 -6.828125 L 12.59375 -6.828125 L 12.59375 -17.984375 L 16.703125 -17.984375 L 16.703125 0 L 12.59375 0 L 5.453125 -11.15625 Z M 5.40625 -11.15625" transform="translate(55.171 26.407)"/></g></g></g><g fill="#FFF"><g><g><path d="M 11.59375 -17.984375 L 11.59375 -14.390625 L 5.40625 -14.390625 L 5.40625 -10.8125 L 11.328125 -10.8125 L 11.328125 -7.21875 L 5.40625 -7.21875 L 5.40625 -3.59375 L 11.59375 -3.59375 L 11.59375 0 L 1.3125 0 L 1.3125 -17.984375 Z M 11.59375 -17.984375" transform="translate(73.17 26.407)"/></g></g></g><g fill="#FFF"><g><g><path d="M 7.9375 -18.3125 C 8.90625 -18.3125 9.851562 -18.164062 10.78125 -17.875 C 11.71875 -17.59375 12.410156 -17.316406 12.859375 -17.046875 L 13.515625 -16.609375 L 11.859375 -13.34375 C 11.722656 -13.425781 11.539062 -13.535156 11.3125 -13.671875 C 11.082031 -13.816406 10.644531 -14.003906 10 -14.234375 C 9.363281 -14.460938 8.769531 -14.578125 8.21875 -14.578125 C 7.53125 -14.578125 7 -14.429688 6.625 -14.140625 C 6.257812 -13.847656 6.078125 -13.457031 6.078125 -12.96875 C 6.078125 -12.71875 6.164062 -12.488281 6.34375 -12.28125 C 6.519531 -12.070312 6.816406 -11.847656 7.234375 -11.609375 C 7.660156 -11.367188 8.03125 -11.175781 8.34375 -11.03125 C 8.664062 -10.882812 9.160156 -10.664062 9.828125 -10.375 C 10.992188 -9.882812 11.984375 -9.210938 12.796875 -8.359375 C 13.617188 -7.503906 14.03125 -6.539062 14.03125 -5.46875 C 14.03125 -4.4375 13.84375 -3.535156 13.46875 -2.765625 C 13.101562 -1.992188 12.597656 -1.390625 11.953125 -0.953125 C 11.304688 -0.523438 10.585938 -0.207031 9.796875 0 C 9.015625 0.21875 8.171875 0.328125 7.265625 0.328125 C 6.472656 0.328125 5.695312 0.242188 4.9375 0.078125 C 4.1875 -0.078125 3.554688 -0.273438 3.046875 -0.515625 C 2.535156 -0.753906 2.078125 -0.988281 1.671875 -1.21875 C 1.265625 -1.445312 0.96875 -1.644531 0.78125 -1.8125 L 0.5 -2.046875 L 2.546875 -5.5 C 2.722656 -5.351562 2.960938 -5.164062 3.265625 -4.9375 C 3.578125 -4.707031 4.117188 -4.40625 4.890625 -4.03125 C 5.671875 -3.65625 6.359375 -3.46875 6.953125 -3.46875 C 8.679688 -3.46875 9.546875 -4.054688 9.546875 -5.234375 C 9.546875 -5.484375 9.484375 -5.710938 9.359375 -5.921875 C 9.234375 -6.128906 9.015625 -6.335938 8.703125 -6.546875 C 8.390625 -6.753906 8.113281 -6.921875 7.875 -7.046875 C 7.632812 -7.171875 7.242188 -7.359375 6.703125 -7.609375 C 6.160156 -7.867188 5.757812 -8.066406 5.5 -8.203125 C 4.40625 -8.734375 3.5625 -9.398438 2.96875 -10.203125 C 2.375 -11.015625 2.078125 -11.882812 2.078125 -12.8125 C 2.078125 -14.425781 2.671875 -15.742188 3.859375 -16.765625 C 5.046875 -17.796875 6.40625 -18.3125 7.9375 -18.3125 Z M 7.9375 -18.3125" transform="translate(85.809 26.407)"/></g></g></g><g fill="#FFF"><g><g><path d="M 0.171875 -14.390625 L 0.171875 -17.984375 L 12.8125 -17.984375 L 12.8125 -14.390625 L 8.546875 -14.390625 L 8.546875 0 L 4.453125 0 L 4.453125 -14.390625 Z M 0.171875 -14.390625" transform="translate(100.452 26.407)"/></g></g></g><g fill="#FFF"><g><g><path d="M 0.5 -9 C 0.5 -11.601562 1.382812 -13.804688 3.15625 -15.609375 C 4.925781 -17.410156 7.0625 -18.3125 9.5625 -18.3125 C 12.082031 -18.3125 14.21875 -17.410156 15.96875 -15.609375 C 17.726562 -13.816406 18.609375 -11.613281 18.609375 -9 C 18.609375 -6.375 17.742188 -4.160156 16.015625 -2.359375 C 14.285156 -0.566406 12.132812 0.328125 9.5625 0.328125 C 6.9375 0.328125 4.769531 -0.5625 3.0625 -2.34375 C 1.351562 -4.125 0.5 -6.34375 0.5 -9 Z M 4.921875 -9 C 4.921875 -8.050781 5.066406 -7.1875 5.359375 -6.40625 C 5.648438 -5.632812 6.160156 -4.976562 6.890625 -4.4375 C 7.617188 -3.90625 8.507812 -3.640625 9.5625 -3.640625 C 11.09375 -3.640625 12.242188 -4.160156 13.015625 -5.203125 C 13.796875 -6.253906 14.1875 -7.519531 14.1875 -9 C 14.1875 -10.46875 13.789062 -11.726562 13 -12.78125 C 12.207031 -13.832031 11.0625 -14.359375 9.5625 -14.359375 C 8.082031 -14.359375 6.9375 -13.832031 6.125 -12.78125 C 5.320312 -11.726562 4.921875 -10.46875 4.921875 -9 Z M 4.921875 -9" transform="translate(113.44 26.407)"/></g></g></g><g fill="#FFF"><g><g><path d="M 1.3125 -17.984375 L 7.875 -17.984375 C 9.695312 -17.984375 11.175781 -17.507812 12.3125 -16.5625 C 13.445312 -15.625 14.015625 -14.253906 14.015625 -12.453125 C 14.015625 -10.648438 13.441406 -9.234375 12.296875 -8.203125 C 11.148438 -7.179688 9.675781 -6.671875 7.875 -6.671875 L 5.40625 -6.671875 L 5.40625 0 L 1.3125 0 Z M 5.40625 -9.9375 L 6.5625 -9.9375 C 7.476562 -9.9375 8.226562 -10.117188 8.8125 -10.484375 C 9.40625 -10.859375 9.703125 -11.46875 9.703125 -12.3125 C 9.703125 -13.164062 9.40625 -13.78125 8.8125 -14.15625 C 8.226562 -14.53125 7.476562 -14.71875 6.5625 -14.71875 L 5.40625 -14.71875 Z M 5.40625 -9.9375" transform="translate(132.55 26.407)"/></g></g></g><g clip-path="url(#a)"><path fill="#FBBC05" d="M 6.660156 1.402344 C 10.875 3.152344 15.160156 4.027344 19.472656 4.027344 C 23.785156 4.027344 28.074219 3.152344 32.289062 1.402344 L 32.527344 6.347656 C 31.3125 6.347656 28.214844 8.386719 28.300781 10.894531 C 28.460938 15.527344 32.953125 8.78125 33.3125 15.75 C 33.414062 17.75 33.515625 25.4375 33.617188 27.4375 C 28.835938 32.78125 24.199219 35.542969 19.484375 35.589844 C 14.773438 35.632812 10.148438 32.964844 5.398438 27.4375 C 5.496094 25.445312 5.59375 17.753906 5.691406 15.757812 C 6.03125 8.675781 10.6875 15.230469 10.820312 10.914062 C 10.898438 8.402344 7.816406 6.367188 6.582031 6.367188 Z M 6.660156 1.402344" fill-rule="evenodd"/><path d="M 6.757812 1.160156 L 6.761719 1.160156 C 7.34375 1.402344 7.929688 1.628906 8.523438 1.839844 C 9.113281 2.046875 9.703125 2.242188 10.292969 2.414062 C 13.328125 3.3125 16.394531 3.765625 19.472656 3.765625 L 19.476562 3.765625 C 21.613281 3.765625 23.746094 3.546875 25.867188 3.113281 C 26.195312 3.046875 26.539062 2.96875 26.902344 2.882812 C 28.675781 2.460938 30.441406 1.886719 32.1875 1.160156 L 32.53125 1.015625 L 32.550781 1.390625 L 32.785156 6.335938 L 32.800781 6.605469 L 32.53125 6.613281 L 32.496094 6.613281 C 31.9375 6.632812 30.957031 7.109375 30.109375 7.871094 C 29.261719 8.625 28.5625 9.660156 28.5625 10.792969 C 28.5625 10.839844 28.5625 10.875 28.5625 10.886719 C 28.605469 12.148438 28.984375 12.425781 29.492188 12.40625 C 29.734375 12.398438 30.019531 12.335938 30.3125 12.269531 C 30.632812 12.199219 30.960938 12.125 31.292969 12.105469 C 32.410156 12.046875 33.410156 12.59375 33.574219 15.738281 L 33.574219 15.746094 C 33.625 16.757812 33.675781 19.226562 33.726562 21.675781 C 33.777344 24.0625 33.828125 26.433594 33.878906 27.425781 L 33.882812 27.53125 L 33.8125 27.613281 C 31.402344 30.304688 29.027344 32.351562 26.65625 33.726562 C 24.273438 35.113281 21.890625 35.828125 19.488281 35.851562 C 17.085938 35.875 14.707031 35.207031 12.328125 33.828125 C 9.960938 32.460938 7.59375 30.394531 5.199219 27.609375 L 5.132812 27.53125 L 5.136719 27.425781 L 5.136719 27.417969 C 5.1875 26.40625 5.234375 23.996094 5.28125 21.589844 C 5.332031 19.164062 5.378906 16.738281 5.425781 15.746094 C 5.585938 12.472656 6.65625 11.917969 7.835938 11.976562 C 8.175781 11.992188 8.511719 12.0625 8.839844 12.132812 C 9.136719 12.195312 9.421875 12.253906 9.664062 12.261719 C 10.160156 12.277344 10.523438 12.027344 10.558594 10.90625 L 10.558594 10.820312 C 10.558594 9.6875 9.859375 8.648438 9.011719 7.886719 C 8.160156 7.125 7.179688 6.648438 6.609375 6.632812 L 6.609375 6.628906 L 6.578125 6.628906 L 6.316406 6.625 L 6.320312 6.363281 L 6.398438 1.398438 L 6.402344 1.011719 Z M 8.347656 2.335938 C 7.875 2.164062 7.394531 1.984375 6.914062 1.789062 L 6.847656 6.128906 C 7.527344 6.238281 8.515625 6.742188 9.359375 7.496094 C 10.304688 8.34375 11.082031 9.511719 11.082031 10.820312 C 11.082031 10.835938 11.082031 10.867188 11.082031 10.921875 C 11.035156 12.472656 10.449219 12.8125 9.652344 12.789062 C 9.359375 12.777344 9.050781 12.714844 8.730469 12.648438 C 8.425781 12.582031 8.109375 12.515625 7.8125 12.5 C 6.910156 12.457031 6.085938 12.941406 5.949219 15.769531 C 5.902344 16.773438 5.855469 19.183594 5.804688 21.597656 C 5.757812 23.945312 5.710938 26.292969 5.664062 27.34375 C 7.996094 30.046875 10.296875 32.050781 12.585938 33.375 C 14.882812 34.703125 17.175781 35.347656 19.484375 35.328125 C 21.792969 35.304688 24.089844 34.613281 26.394531 33.273438 C 28.695312 31.9375 31.003906 29.953125 33.347656 27.34375 C 33.300781 26.304688 33.253906 24.003906 33.203125 21.6875 C 33.152344 19.25 33.101562 16.796875 33.050781 15.773438 L 33.050781 15.765625 C 32.910156 13.0625 32.15625 12.585938 31.316406 12.632812 C 31.03125 12.644531 30.722656 12.714844 30.425781 12.78125 C 30.109375 12.851562 29.800781 12.921875 29.507812 12.933594 C 28.699219 12.960938 28.097656 12.59375 28.039062 10.902344 C 28.039062 10.847656 28.035156 10.8125 28.035156 10.792969 C 28.035156 9.488281 28.816406 8.320312 29.761719 7.476562 C 30.597656 6.726562 31.578125 6.226562 32.25 6.113281 L 32.042969 1.785156 C 30.378906 2.457031 28.703125 2.996094 27.023438 3.394531 C 26.6875 3.476562 26.339844 3.554688 25.972656 3.628906 C 23.816406 4.070312 21.648438 4.289062 19.476562 4.289062 L 19.476562 4.292969 L 19.472656 4.292969 C 16.347656 4.292969 13.230469 3.832031 10.144531 2.917969 C 9.542969 2.742188 8.945312 2.546875 8.347656 2.335938 Z M 8.347656 2.335938"/></g><path d="M 8.089844 3.121094 L 8.15625 3.144531 C 9.195312 3.539062 10.25 3.875 11.3125 4.152344 C 12.375 4.433594 13.445312 4.65625 14.519531 4.824219 C 19.085938 5.539062 23.742188 5.253906 28.242188 3.984375 C 29.175781 3.722656 30.101562 3.417969 31.019531 3.070312 L 31.191406 3.003906 L 31.195312 3.191406 L 31.253906 5.757812 L 31.253906 5.863281 L 31.15625 5.886719 L 31.144531 5.890625 C 30.640625 6.023438 30.152344 6.246094 29.710938 6.523438 C 28.976562 6.972656 28.257812 7.660156 27.792969 8.628906 C 27.453125 9.335938 27.25 10.195312 27.273438 11.226562 C 27.320312 13.371094 27.960938 13.777344 28.730469 13.757812 C 28.992188 13.753906 29.277344 13.699219 29.558594 13.648438 C 29.847656 13.59375 30.136719 13.542969 30.410156 13.535156 C 31.25 13.519531 31.914062 13.917969 31.953125 15.925781 L 32.175781 26.78125 L 32.175781 26.832031 L 32.144531 26.867188 C 30.964844 28.316406 29.75 29.554688 28.507812 30.578125 C 25.625 32.953125 22.597656 34.167969 19.550781 34.183594 C 16.507812 34.199219 13.449219 33.015625 10.5 30.601562 C 9.25 29.578125 8.019531 28.335938 6.820312 26.867188 L 6.789062 26.832031 L 6.789062 26.78125 L 7.046875 15.878906 C 7.097656 13.761719 7.824219 13.355469 8.710938 13.378906 C 8.992188 13.382812 9.28125 13.433594 9.574219 13.484375 C 9.867188 13.539062 10.160156 13.589844 10.429688 13.589844 C 11.167969 13.597656 11.757812 13.203125 11.777344 11.234375 L 11.777344 11.179688 C 11.777344 10.714844 11.71875 10.273438 11.621094 9.859375 C 11.527344 9.441406 11.386719 9.054688 11.21875 8.695312 C 10.351562 6.855469 8.710938 5.765625 7.945312 5.597656 L 7.839844 5.574219 L 7.84375 5.464844 L 7.914062 3.242188 L 7.917969 3.058594 Z M 11.246094 4.40625 C 5.078125 2.78125 10.371094 6.289062 11.453125 8.585938 C 11.632812 8.960938 11.777344 9.363281 11.878906 9.796875 C 11.980469 10.230469 12.035156 10.691406 12.039062 11.179688 L 12.039062 11.183594 L 12.035156 11.234375 C 12.019531 13.421875 11.3125 13.859375 10.425781 13.855469 C 10.132812 13.851562 9.832031 13.796875 9.527344 13.746094 C 9.246094 13.695312 8.964844 13.644531 8.707031 13.640625 C 7.960938 13.621094 7.402344 13.984375 7.355469 15.886719 C 6.726562 38.332031 32.183594 40.054688 31.691406 15.929688 C 31.65625 14.140625 31.109375 13.785156 30.417969 13.796875 C 30.164062 13.804688 29.886719 13.855469 29.605469 13.90625 C 29.3125 13.960938 29.019531 14.015625 28.734375 14.023438 C 27.820312 14.042969 27.0625 13.597656 27.011719 11.230469 C 26.984375 10.148438 27.320312 9.285156 27.578125 8.492188 C 28.085938 6.921875 34.363281 2.480469 28.292969 4.242188 C 23.777344 5.558594 19.078125 5.804688 14.480469 5.085938 C 13.394531 4.914062 12.316406 4.691406 11.246094 4.40625 Z M 11.246094 4.40625"/><g clip-path="url(#b)"><path d="M 17.363281 18.050781 C 17.355469 17.972656 17.351562 17.898438 17.351562 17.820312 C 17.351562 17.742188 17.355469 17.664062 17.363281 17.589844 L 16.816406 17.316406 C 16.859375 17.105469 16.925781 16.902344 17.015625 16.710938 L 17.621094 16.804688 C 17.699219 16.671875 17.789062 16.546875 17.894531 16.433594 L 17.617188 15.898438 C 17.773438 15.753906 17.949219 15.625 18.136719 15.523438 L 18.570312 15.949219 C 18.710938 15.886719 18.859375 15.839844 19.011719 15.808594 L 19.109375 15.210938 C 19.214844 15.199219 19.320312 15.191406 19.429688 15.191406 C 19.539062 15.191406 19.648438 15.199219 19.753906 15.210938 L 19.847656 15.808594 C 20.003906 15.839844 20.152344 15.886719 20.289062 15.949219 L 20.722656 15.523438 C 20.914062 15.625 21.085938 15.753906 21.246094 15.898438 L 20.964844 16.433594 C 21.070312 16.546875 21.160156 16.671875 21.238281 16.804688 L 21.84375 16.710938 C 21.902344 16.832031 21.949219 16.957031 21.988281 17.085938 L 20.675781 17.085938 C 20.425781 16.667969 19.960938 16.386719 19.429688 16.386719 C 18.628906 16.386719 17.980469 17.027344 17.980469 17.820312 C 17.980469 18.609375 18.628906 19.253906 19.429688 19.253906 C 19.960938 19.253906 20.425781 18.972656 20.675781 18.550781 L 21.988281 18.550781 C 21.949219 18.683594 21.902344 18.808594 21.84375 18.929688 L 21.238281 18.832031 C 21.160156 18.96875 21.070312 19.089844 20.964844 19.203125 L 21.246094 19.742188 C 21.085938 19.886719 20.914062 20.011719 20.722656 20.117188 L 20.289062 19.6875 C 20.152344 19.75 20.003906 19.800781 19.847656 19.832031 L 19.753906 20.429688 C 19.648438 20.441406 19.539062 20.449219 19.429688 20.449219 C 19.320312 20.449219 19.214844 20.441406 19.109375 20.429688 L 19.011719 19.832031 C 18.859375 19.800781 18.710938 19.75 18.570312 19.6875 L 18.136719 20.117188 C 17.949219 20.011719 17.773438 19.886719 17.617188 19.742188 L 17.894531 19.203125 C 17.789062 19.089844 17.699219 18.96875 17.621094 18.832031 L 17.015625 18.929688 C 16.925781 18.738281 16.859375 18.535156 16.816406 18.324219 L 17.363281 18.050781"/></g><g clip-path="url(#c)"><path d="M 23.398438 17.785156 L 23.691406 17.28125 C 23.703125 17.257812 23.726562 17.246094 23.753906 17.246094 L 24.824219 17.246094 C 24.632812 16.964844 24.3125 16.777344 23.945312 16.777344 C 23.554688 16.777344 23.21875 16.988281 23.035156 17.296875 L 18.609375 17.296875 C 18.535156 17.296875 18.472656 17.355469 18.472656 17.429688 C 18.472656 17.503906 18.535156 17.5625 18.609375 17.5625 L 20.871094 17.5625 C 20.910156 17.5625 20.945312 17.597656 20.945312 17.636719 C 20.945312 17.679688 20.910156 17.710938 20.871094 17.710938 L 19.320312 17.710938 C 19.261719 17.710938 19.210938 17.761719 19.210938 17.820312 C 19.210938 17.878906 19.261719 17.929688 19.320312 17.929688 L 20.871094 17.929688 C 20.910156 17.929688 20.945312 17.960938 20.945312 18.003906 C 20.945312 18.042969 20.910156 18.078125 20.871094 18.078125 L 20.171875 18.078125 C 20.097656 18.078125 20.039062 18.136719 20.039062 18.210938 C 20.039062 18.285156 20.097656 18.34375 20.171875 18.34375 L 23.035156 18.34375 C 23.21875 18.652344 23.554688 18.859375 23.945312 18.859375 C 24.3125 18.859375 24.632812 18.675781 24.824219 18.394531 L 23.753906 18.394531 C 23.726562 18.394531 23.703125 18.382812 23.691406 18.359375 L 23.398438 17.855469 C 23.382812 17.832031 23.382812 17.804688 23.398438 17.785156"/></g><path fill="#FBBC05" d="M 14.058594 13.796875 L 26.195312 13.796875 L 26.195312 16.550781 L 14.058594 16.550781 L 14.058594 13.796875"/><path d="M 22.011719 12.140625 C 21.964844 12.019531 21.941406 11.890625 21.941406 11.753906 C 21.941406 11.199219 22.359375 10.742188 22.898438 10.679688 L 21.214844 9.195312 C 21.21875 9.242188 21.222656 9.296875 21.222656 9.347656 C 21.222656 10.082031 20.625 10.679688 19.886719 10.679688 C 19.152344 10.679688 18.554688 10.082031 18.554688 9.347656 C 18.554688 9.328125 18.554688 9.3125 18.554688 9.292969 L 16.722656 11.125 C 16.867188 11.09375 17.011719 11.078125 17.164062 11.078125 C 18.292969 11.078125 19.222656 11.933594 19.335938 13.03125 L 19.847656 12.042969 C 19.902344 11.9375 19.96875 11.84375 20.054688 11.769531 C 20.242188 11.605469 20.476562 11.550781 20.75 11.667969 Z M 18.335938 10.300781 C 18.457031 10.300781 18.554688 10.398438 18.554688 10.519531 C 18.554688 10.640625 18.457031 10.734375 18.335938 10.734375 C 18.214844 10.734375 18.117188 10.640625 18.117188 10.519531 C 18.117188 10.398438 18.214844 10.300781 18.335938 10.300781 Z M 21.496094 10.910156 C 21.679688 10.910156 21.832031 11.058594 21.832031 11.242188 C 21.832031 11.425781 21.679688 11.574219 21.496094 11.574219 C 21.3125 11.574219 21.164062 11.425781 21.164062 11.242188 C 21.164062 11.058594 21.3125 10.910156 21.496094 10.910156" fill-rule="evenodd"/><g clip-path="url(#d)"><path d="M 18.039062 9.019531 L 16.835938 7.828125 C 16.742188 7.734375 16.59375 7.730469 16.496094 7.820312 L 13.542969 10.519531 C 13.40625 10.640625 13.460938 10.78125 13.550781 10.902344 L 14.144531 10.394531 C 14.460938 10.121094 14.945312 10.433594 14.816406 10.839844 C 15.238281 10.773438 15.476562 11.300781 15.160156 11.570312 L 14.511719 12.125 L 14.875 12.585938 C 15 12.191406 15.214844 11.84375 15.511719 11.546875 Z M 16.664062 8.398438 C 16.855469 8.398438 17.003906 8.550781 17.003906 8.738281 C 17.003906 8.925781 16.855469 9.078125 16.664062 9.078125 C 16.476562 9.078125 16.328125 8.925781 16.328125 8.738281 C 16.328125 8.550781 16.476562 8.398438 16.664062 8.398438" fill-rule="evenodd"/></g><path d="M 24.617188 12.160156 L 23.613281 13.441406 C 23.566406 13.5 23.507812 13.53125 23.433594 13.535156 C 23.363281 13.539062 23.296875 13.515625 23.246094 13.464844 L 22.898438 13.121094 L 23.058594 13.121094 C 23.414062 13.121094 23.75 12.980469 24.003906 12.730469 C 24.214844 12.519531 24.34375 12.25 24.382812 11.957031 L 24.617188 12.160156" fill-rule="evenodd"/><g clip-path="url(#e)"><path d="M 21.5 8.644531 L 22.324219 7.828125 C 22.417969 7.734375 22.566406 7.730469 22.664062 7.820312 L 25.617188 10.519531 C 25.710938 10.605469 25.722656 10.75 25.644531 10.851562 L 25.578125 10.9375 L 24.945312 10.394531 C 24.769531 10.242188 24.503906 10.261719 24.351562 10.4375 C 24.253906 10.550781 24.226562 10.703125 24.269531 10.839844 C 24.230469 10.832031 24.191406 10.832031 24.152344 10.835938 L 24 10.855469 C 23.96875 10.824219 23.9375 10.792969 23.90625 10.761719 Z M 22.519531 8.109375 C 22.433594 8.109375 22.367188 8.179688 22.367188 8.265625 C 22.367188 8.351562 22.433594 8.417969 22.519531 8.417969 C 22.605469 8.417969 22.675781 8.351562 22.675781 8.265625 C 22.675781 8.179688 22.605469 8.109375 22.519531 8.109375" fill-rule="evenodd"/></g><path d="M 17.199219 11.34375 C 18.273438 11.34375 19.148438 12.21875 19.148438 13.292969 C 19.148438 14.367188 18.273438 15.238281 17.199219 15.238281 C 16.121094 15.238281 15.246094 14.367188 15.246094 13.292969 C 15.246094 12.21875 16.121094 11.34375 17.199219 11.34375 Z M 17.195312 11.996094 C 16.480469 11.996094 15.898438 12.574219 15.898438 13.292969 C 15.898438 14.007812 16.480469 14.589844 17.195312 14.589844 C 17.914062 14.589844 18.496094 14.007812 18.496094 13.292969 C 18.496094 12.574219 17.914062 11.996094 17.195312 11.996094 Z M 17.199219 12.59375 C 16.8125 12.59375 16.496094 12.90625 16.496094 13.292969 C 16.496094 13.679688 16.8125 13.992188 17.199219 13.992188 C 17.582031 13.992188 17.898438 13.679688 17.898438 13.292969 C 17.898438 12.90625 17.582031 12.59375 17.199219 12.59375" fill-rule="evenodd"/><path d="M 19.921875 8.28125 C 20.527344 8.28125 21.019531 8.773438 21.019531 9.378906 C 21.019531 9.984375 20.527344 10.476562 19.921875 10.476562 C 19.3125 10.476562 18.820312 9.984375 18.820312 9.378906 C 18.820312 8.773438 19.3125 8.28125 19.921875 8.28125 Z M 19.921875 8.984375 C 19.703125 8.984375 19.527344 9.160156 19.527344 9.378906 C 19.527344 9.597656 19.703125 9.773438 19.921875 9.773438 C 20.140625 9.773438 20.316406 9.597656 20.316406 9.378906 C 20.316406 9.160156 20.140625 8.984375 19.921875 8.984375 Z M 19.921875 8.480469 C 19.835938 8.480469 19.765625 8.550781 19.765625 8.636719 C 19.765625 8.722656 19.835938 8.792969 19.921875 8.792969 C 20.007812 8.792969 20.078125 8.722656 20.078125 8.636719 C 20.078125 8.550781 20.007812 8.480469 19.921875 8.480469 Z M 19.921875 9.964844 C 19.835938 9.964844 19.765625 10.035156 19.765625 10.121094 C 19.765625 10.210938 19.835938 10.28125 19.921875 10.28125 C 20.007812 10.28125 20.078125 10.210938 20.078125 10.121094 C 20.078125 10.035156 20.007812 9.964844 19.921875 9.964844 Z M 20.824219 9.378906 C 20.824219 9.292969 20.753906 9.222656 20.664062 9.222656 C 20.578125 9.222656 20.507812 9.292969 20.507812 9.378906 C 20.507812 9.464844 20.578125 9.535156 20.664062 9.535156 C 20.753906 9.535156 20.824219 9.464844 20.824219 9.378906 Z M 19.332031 9.378906 C 19.332031 9.292969 19.261719 9.222656 19.175781 9.222656 C 19.089844 9.222656 19.019531 9.292969 19.019531 9.378906 C 19.019531 9.464844 19.089844 9.535156 19.175781 9.535156 C 19.261719 9.535156 19.332031 9.464844 19.332031 9.378906 Z M 20.558594 8.742188 C 20.496094 8.683594 20.398438 8.683594 20.335938 8.742188 C 20.277344 8.804688 20.277344 8.902344 20.335938 8.964844 C 20.398438 9.027344 20.496094 9.027344 20.558594 8.964844 C 20.621094 8.902344 20.621094 8.804688 20.558594 8.742188 Z M 19.503906 9.792969 C 19.445312 9.734375 19.34375 9.734375 19.285156 9.792969 C 19.222656 9.855469 19.222656 9.953125 19.285156 10.015625 C 19.34375 10.078125 19.445312 10.078125 19.503906 10.015625 C 19.566406 9.953125 19.566406 9.855469 19.503906 9.792969 Z M 19.285156 8.742188 C 19.222656 8.804688 19.222656 8.902344 19.285156 8.964844 C 19.34375 9.027344 19.445312 9.027344 19.503906 8.964844 C 19.566406 8.902344 19.566406 8.804688 19.503906 8.742188 C 19.445312 8.683594 19.34375 8.683594 19.285156 8.742188 Z M 20.335938 9.792969 C 20.277344 9.855469 20.277344 9.953125 20.335938 10.015625 C 20.398438 10.078125 20.496094 10.078125 20.558594 10.015625 C 20.621094 9.953125 20.621094 9.855469 20.558594 9.792969 C 20.496094 9.734375 20.398438 9.734375 20.335938 9.792969" fill-rule="evenodd"/><path d="M 23.058594 10.9375 C 23.53125 10.9375 23.910156 11.316406 23.910156 11.789062 C 23.910156 12.257812 23.53125 12.640625 23.058594 12.640625 C 22.589844 12.640625 22.207031 12.257812 22.207031 11.789062 C 22.207031 11.316406 22.589844 10.9375 23.058594 10.9375 Z M 23.058594 11.617188 C 22.964844 11.617188 22.886719 11.695312 22.886719 11.789062 C 22.886719 11.882812 22.964844 11.960938 23.058594 11.960938 C 23.152344 11.960938 23.230469 11.882812 23.230469 11.789062 C 23.230469 11.695312 23.152344 11.617188 23.058594 11.617188 Z M 23.027344 11.089844 C 23.011719 11.089844 23 11.097656 22.988281 11.109375 C 22.980469 11.117188 22.976562 11.132812 22.976562 11.144531 L 23.007812 11.433594 C 23.007812 11.460938 23.03125 11.476562 23.054688 11.476562 L 23.0625 11.476562 C 23.089844 11.476562 23.109375 11.460938 23.113281 11.433594 L 23.140625 11.144531 C 23.144531 11.132812 23.140625 11.117188 23.128906 11.109375 C 23.121094 11.097656 23.105469 11.089844 23.09375 11.089844 Z M 23.027344 12.484375 L 23.09375 12.484375 C 23.105469 12.484375 23.121094 12.480469 23.128906 12.46875 C 23.140625 12.457031 23.144531 12.445312 23.140625 12.429688 L 23.113281 12.144531 C 23.109375 12.117188 23.089844 12.097656 23.0625 12.097656 L 23.054688 12.097656 C 23.03125 12.097656 23.007812 12.117188 23.007812 12.144531 L 22.976562 12.429688 C 22.976562 12.445312 22.980469 12.457031 22.988281 12.46875 C 23 12.480469 23.011719 12.484375 23.027344 12.484375 Z M 23.757812 11.753906 C 23.757812 11.742188 23.753906 11.726562 23.742188 11.71875 C 23.730469 11.707031 23.71875 11.703125 23.703125 11.707031 L 23.414062 11.734375 C 23.390625 11.738281 23.371094 11.757812 23.371094 11.785156 L 23.371094 11.792969 C 23.371094 11.816406 23.390625 11.839844 23.414062 11.839844 L 23.703125 11.871094 C 23.71875 11.871094 23.730469 11.867188 23.742188 11.859375 C 23.753906 11.847656 23.757812 11.835938 23.757812 11.820312 Z M 22.359375 11.753906 L 22.359375 11.820312 C 22.359375 11.835938 22.367188 11.847656 22.378906 11.859375 C 22.386719 11.867188 22.402344 11.871094 22.414062 11.871094 L 22.703125 11.839844 C 22.730469 11.839844 22.75 11.816406 22.75 11.792969 L 22.75 11.785156 C 22.75 11.757812 22.730469 11.738281 22.703125 11.734375 L 22.414062 11.707031 C 22.402344 11.703125 22.386719 11.707031 22.378906 11.71875 C 22.367188 11.726562 22.359375 11.742188 22.359375 11.753906 Z M 22.542969 11.320312 C 22.53125 11.328125 22.527344 11.34375 22.527344 11.355469 C 22.527344 11.371094 22.535156 11.382812 22.546875 11.390625 L 22.769531 11.574219 C 22.789062 11.589844 22.820312 11.589844 22.835938 11.570312 L 22.84375 11.566406 C 22.859375 11.546875 22.863281 11.519531 22.84375 11.5 L 22.664062 11.277344 C 22.652344 11.265625 22.640625 11.257812 22.625 11.257812 C 22.613281 11.257812 22.597656 11.261719 22.589844 11.273438 Z M 23.527344 12.304688 L 23.578125 12.257812 C 23.585938 12.246094 23.59375 12.234375 23.589844 12.21875 C 23.589844 12.207031 23.585938 12.195312 23.574219 12.183594 L 23.347656 12 C 23.328125 11.984375 23.300781 11.988281 23.28125 12.003906 L 23.277344 12.011719 C 23.257812 12.027344 23.257812 12.058594 23.273438 12.078125 L 23.457031 12.300781 C 23.464844 12.3125 23.476562 12.320312 23.492188 12.320312 C 23.507812 12.320312 23.519531 12.316406 23.527344 12.304688 Z M 23.527344 11.273438 C 23.519531 11.261719 23.507812 11.257812 23.492188 11.257812 C 23.476562 11.257812 23.464844 11.265625 23.457031 11.277344 L 23.273438 11.5 C 23.257812 11.519531 23.257812 11.546875 23.277344 11.566406 L 23.28125 11.570312 C 23.300781 11.589844 23.328125 11.589844 23.347656 11.574219 L 23.574219 11.390625 C 23.585938 11.382812 23.589844 11.371094 23.589844 11.355469 C 23.59375 11.34375 23.585938 11.328125 23.578125 11.320312 Z M 22.542969 12.257812 L 22.589844 12.304688 C 22.597656 12.316406 22.613281 12.320312 22.625 12.320312 C 22.640625 12.320312 22.652344 12.3125 22.664062 12.300781 L 22.84375 12.078125 C 22.863281 12.058594 22.859375 12.027344 22.84375 12.011719 L 22.835938 12.003906 C 22.820312 11.988281 22.789062 11.984375 22.769531 12 L 22.546875 12.183594 C 22.535156 12.195312 22.527344 12.207031 22.527344 12.21875 C 22.527344 12.234375 22.53125 12.246094 22.542969 12.257812" fill-rule="evenodd"/><path d="M 20.523438 12.558594 C 20.632812 12.558594 20.71875 12.46875 20.71875 12.359375 C 20.71875 12.253906 20.632812 12.164062 20.523438 12.164062 C 20.414062 12.164062 20.324219 12.253906 20.324219 12.359375 C 20.324219 12.46875 20.414062 12.558594 20.523438 12.558594" fill-rule="evenodd"/><path d="M 19.164062 14.347656 C 18.488281 15.652344 16.683594 15.933594 15.617188 14.871094 C 14.726562 13.980469 14.75 12.585938 15.648438 11.6875 L 18.847656 8.492188 C 19.132812 8.207031 19.492188 8 19.921875 8 C 20.320312 8 20.683594 8.167969 20.964844 8.4375 L 23.773438 10.910156 C 24.632812 11.667969 24.066406 12.921875 23.058594 12.921875 C 22.875 12.921875 22.714844 12.863281 22.59375 12.8125 L 20.570312 12.058594 C 20.40625 12.019531 20.3125 12.125 20.242188 12.261719 Z M 18.261719 15.058594 C 18.578125 14.871094 18.839844 14.597656 19.011719 14.269531 L 20.089844 12.179688 C 20.175781 12.015625 20.300781 11.878906 20.507812 11.878906 C 20.546875 11.878906 20.578125 11.886719 20.613281 11.890625 C 20.71875 11.917969 22.363281 12.542969 22.609375 12.636719 C 22.742188 12.6875 22.894531 12.75 23.058594 12.75 C 23.910156 12.75 24.398438 11.691406 23.660156 11.039062 L 20.851562 8.566406 C 20.574219 8.324219 20.304688 8.171875 19.921875 8.171875 C 19.542969 8.171875 19.222656 8.359375 18.96875 8.613281 L 15.773438 11.808594 C 14.40625 13.171875 15.402344 15.351562 17.199219 15.351562 C 17.585938 15.351562 17.953125 15.246094 18.261719 15.058594" fill-rule="evenodd"/><g clip-path="url(#f)"><path d="M 16.621094 17.070312 L 22.539062 17.070312 C 22.714844 17.070312 22.863281 16.925781 22.863281 16.746094 L 22.863281 16.539062 C 22.863281 16.472656 22.808594 16.414062 22.738281 16.414062 L 22.699219 16.414062 C 22.585938 16.414062 22.492188 16.324219 22.492188 16.210938 C 22.492188 16.097656 22.585938 16.007812 22.699219 16.007812 L 22.738281 16.007812 C 22.808594 16.007812 22.863281 15.949219 22.863281 15.882812 L 22.863281 15.675781 C 22.863281 15.496094 22.714844 15.351562 22.539062 15.351562 L 20.480469 15.351562 C 20.648438 15.464844 20.761719 15.660156 20.761719 15.878906 C 20.761719 16.230469 20.472656 16.515625 20.121094 16.515625 C 19.769531 16.515625 19.484375 16.230469 19.484375 15.878906 C 19.484375 15.660156 19.59375 15.464844 19.761719 15.351562 L 18.5625 15.351562 C 18.53125 15.371094 18.503906 15.390625 18.472656 15.40625 C 18.085938 15.636719 17.644531 15.757812 17.199219 15.757812 C 16.890625 15.757812 16.589844 15.699219 16.308594 15.59375 C 16.300781 15.617188 16.296875 15.644531 16.296875 15.675781 L 16.296875 15.882812 C 16.296875 15.949219 16.351562 16.007812 16.421875 16.007812 L 16.460938 16.007812 C 16.574219 16.007812 16.664062 16.097656 16.664062 16.210938 C 16.664062 16.324219 16.574219 16.414062 16.460938 16.414062 L 16.421875 16.414062 C 16.351562 16.414062 16.296875 16.472656 16.296875 16.539062 L 16.296875 16.746094 C 16.296875 16.925781 16.441406 17.070312 16.621094 17.070312 Z M 16.617188 16.6875 C 16.675781 16.6875 16.726562 16.734375 16.726562 16.792969 C 16.726562 16.851562 16.675781 16.902344 16.617188 16.902344 C 16.558594 16.902344 16.507812 16.851562 16.507812 16.792969 C 16.507812 16.734375 16.558594 16.6875 16.617188 16.6875 Z M 22.542969 16.6875 C 22.601562 16.6875 22.648438 16.734375 22.648438 16.792969 C 22.648438 16.851562 22.601562 16.902344 22.542969 16.902344 C 22.480469 16.902344 22.433594 16.851562 22.433594 16.792969 C 22.433594 16.734375 22.480469 16.6875 22.542969 16.6875" fill-rule="evenodd"/></g><g clip-path="url(#g)"><path d="M 13.515625 10.148438 L 16.140625 7.808594 C 16.175781 7.773438 16.191406 7.722656 16.175781 7.675781 C 16.160156 7.628906 16.117188 7.597656 16.066406 7.59375 L 15.527344 7.550781 C 15.492188 7.546875 15.460938 7.558594 15.433594 7.582031 L 13.335938 9.453125 C 13.308594 9.476562 13.292969 9.511719 13.292969 9.546875 L 13.308594 10.058594 C 13.308594 10.109375 13.339844 10.148438 13.382812 10.167969 C 13.429688 10.1875 13.476562 10.179688 13.515625 10.148438" fill-rule="evenodd"/></g><g clip-path="url(#h)"><path d="M 25.578125 10.148438 L 22.949219 7.808594 C 22.914062 7.773438 22.898438 7.722656 22.917969 7.675781 C 22.933594 7.628906 22.972656 7.597656 23.023438 7.59375 L 23.566406 7.550781 C 23.597656 7.546875 23.628906 7.558594 23.65625 7.582031 L 25.753906 9.453125 C 25.78125 9.476562 25.796875 9.511719 25.796875 9.546875 L 25.78125 10.058594 C 25.78125 10.109375 25.753906 10.148438 25.707031 10.167969 C 25.664062 10.1875 25.613281 10.179688 25.578125 10.148438" fill-rule="evenodd"/></g><path d="M 22.980469 13.582031 L 22.199219 12.875 L 20.894531 12.386719 C 20.84375 12.675781 20.503906 12.808594 20.273438 12.632812 L 19.320312 14.472656 C 19.292969 14.578125 18.992188 14.941406 18.875 15.054688 L 18.804688 15.121094 L 22.621094 15.097656 L 23.082031 14.019531 C 23.144531 13.871094 23.097656 13.6875 22.980469 13.582031" fill-rule="evenodd"/><g clip-path="url(#i)"><path d="M 13.539062 11.140625 L 14.257812 10.523438 C 14.359375 10.433594 14.515625 10.445312 14.605469 10.550781 C 14.695312 10.652344 14.683594 10.808594 14.578125 10.898438 L 13.859375 11.515625 C 13.757812 11.605469 13.601562 11.59375 13.511719 11.488281 C 13.421875 11.386719 13.433594 11.230469 13.539062 11.140625" fill-rule="evenodd"/></g><g clip-path="url(#j)"><path d="M 14.003906 11.683594 L 14.722656 11.066406 C 14.828125 10.976562 14.984375 10.988281 15.070312 11.089844 C 15.160156 11.195312 15.148438 11.351562 15.046875 11.441406 L 14.328125 12.058594 C 14.222656 12.144531 14.066406 12.132812 13.976562 12.03125 C 13.890625 11.925781 13.902344 11.769531 14.003906 11.683594" fill-rule="evenodd"/></g><g clip-path="url(#k)"><path d="M 25.550781 11.140625 L 24.832031 10.523438 C 24.726562 10.433594 24.570312 10.445312 24.484375 10.550781 C 24.394531 10.652344 24.40625 10.808594 24.507812 10.898438 L 25.230469 11.515625 C 25.332031 11.605469 25.488281 11.59375 25.578125 11.488281 C 25.667969 11.386719 25.65625 11.230469 25.550781 11.140625" fill-rule="evenodd"/></g><g clip-path="url(#l)"><path d="M 25.085938 11.683594 L 24.367188 11.066406 C 24.3125 11.019531 24.242188 11 24.175781 11.007812 C 24.222656 11.074219 24.261719 11.144531 24.296875 11.214844 C 24.382812 11.390625 24.425781 11.578125 24.429688 11.773438 L 24.761719 12.058594 C 24.867188 12.144531 25.023438 12.132812 25.113281 12.03125 C 25.199219 11.925781 25.1875 11.769531 25.085938 11.683594" fill-rule="evenodd"/></g><g clip-path="url(#m)"><path d="M 17.886719 7.433594 L 18.4375 7.433594 C 18.597656 7.433594 18.726562 7.558594 18.726562 7.707031 L 18.726562 8.371094 L 18.722656 8.371094 L 18.179688 8.914062 L 17.597656 8.339844 L 17.597656 7.707031 C 17.597656 7.558594 17.730469 7.433594 17.886719 7.433594" fill-rule="evenodd"/></g><g clip-path="url(#n)"><path d="M 20.71875 7.433594 L 21.273438 7.433594 C 21.429688 7.433594 21.558594 7.558594 21.558594 7.707031 L 21.558594 8.339844 L 21.351562 8.546875 L 21.082031 8.3125 C 20.925781 8.160156 20.742188 8.039062 20.542969 7.953125 C 20.507812 7.9375 20.46875 7.921875 20.433594 7.910156 L 20.433594 7.707031 C 20.433594 7.558594 20.5625 7.433594 20.71875 7.433594" fill-rule="evenodd"/></g><path d="M 24.394531 12.726562 C 24.542969 13.09375 24.8125 13.441406 24.777344 13.917969 C 24.726562 14.644531 24.050781 15.042969 23.320312 14.992188 C 23.164062 14.980469 23.027344 14.945312 22.886719 14.914062 L 23.082031 14.453125 C 23.378906 14.515625 23.644531 14.550781 23.933594 14.398438 C 24.320312 14.195312 24.375 13.785156 24.167969 13.398438 C 24.128906 13.324219 24.089844 13.246094 24.050781 13.164062 L 24.394531 12.726562" fill-rule="evenodd"/><path d="M 20.121094 16.324219 C 20.367188 16.324219 20.570312 16.125 20.570312 15.878906 C 20.570312 15.632812 20.367188 15.433594 20.121094 15.433594 C 19.875 15.433594 19.675781 15.632812 19.675781 15.878906 C 19.675781 16.125 19.875 16.324219 20.121094 16.324219" fill-rule="evenodd"/><g><g><g><path d="M 0.09375 -1.5625 C 0.09375 -2.007812 0.242188 -2.390625 0.546875 -2.703125 C 0.859375 -3.015625 1.226562 -3.171875 1.65625 -3.171875 C 2.09375 -3.171875 2.460938 -3.015625 2.765625 -2.703125 C 3.078125 -2.398438 3.234375 -2.019531 3.234375 -1.5625 C 3.234375 -1.101562 3.082031 -0.71875 2.78125 -0.40625 C 2.476562 -0.09375 2.101562 0.0625 1.65625 0.0625 C 1.195312 0.0625 0.820312 -0.09375 0.53125 -0.40625 C 0.238281 -0.71875 0.09375 -1.101562 0.09375 -1.5625 Z M 0.859375 -1.5625 C 0.859375 -1.394531 0.878906 -1.242188 0.921875 -1.109375 C 0.972656 -0.972656 1.0625 -0.859375 1.1875 -0.765625 C 1.320312 -0.671875 1.476562 -0.625 1.65625 -0.625 C 1.925781 -0.625 2.128906 -0.710938 2.265625 -0.890625 C 2.398438 -1.078125 2.46875 -1.300781 2.46875 -1.5625 C 2.46875 -1.8125 2.394531 -2.023438 2.25 -2.203125 C 2.113281 -2.390625 1.914062 -2.484375 1.65625 -2.484375 C 1.40625 -2.484375 1.207031 -2.390625 1.0625 -2.203125 C 0.925781 -2.023438 0.859375 -1.8125 0.859375 -1.5625 Z M 0.859375 -1.5625" transform="translate(10.13 25.975)"/></g></g></g><g><g><g><path d="M 0.9375 -1.9375 L 0.9375 0 L 0.234375 0 L 0.234375 -3.125 L 0.9375 -3.125 L 2.171875 -1.1875 L 2.1875 -1.1875 L 2.1875 -3.125 L 2.890625 -3.125 L 2.890625 0 L 2.1875 0 L 0.953125 -1.9375 Z M 0.9375 -1.9375" transform="translate(13.442 25.975)"/></g></g></g><g><g><g><path d="M 2.015625 -3.125 L 2.015625 -2.5 L 0.9375 -2.5 L 0.9375 -1.875 L 1.96875 -1.875 L 1.96875 -1.25 L 0.9375 -1.25 L 0.9375 -0.625 L 2.015625 -0.625 L 2.015625 0 L 0.234375 0 L 0.234375 -3.125 Z M 2.015625 -3.125" transform="translate(16.562 25.975)"/></g></g></g><g><g><g><path d="M 1.375 -3.171875 C 1.539062 -3.171875 1.703125 -3.144531 1.859375 -3.09375 C 2.023438 -3.050781 2.148438 -3.003906 2.234375 -2.953125 L 2.34375 -2.875 L 2.0625 -2.3125 C 2.03125 -2.332031 1.992188 -2.351562 1.953125 -2.375 C 1.921875 -2.394531 1.847656 -2.425781 1.734375 -2.46875 C 1.617188 -2.507812 1.515625 -2.53125 1.421875 -2.53125 C 1.304688 -2.53125 1.21875 -2.503906 1.15625 -2.453125 C 1.09375 -2.398438 1.0625 -2.332031 1.0625 -2.25 C 1.0625 -2.207031 1.070312 -2.164062 1.09375 -2.125 C 1.125 -2.09375 1.175781 -2.054688 1.25 -2.015625 C 1.320312 -1.972656 1.382812 -1.9375 1.4375 -1.90625 C 1.5 -1.882812 1.585938 -1.847656 1.703125 -1.796875 C 1.910156 -1.710938 2.082031 -1.597656 2.21875 -1.453125 C 2.363281 -1.304688 2.4375 -1.140625 2.4375 -0.953125 C 2.4375 -0.773438 2.40625 -0.617188 2.34375 -0.484375 C 2.28125 -0.347656 2.191406 -0.238281 2.078125 -0.15625 C 1.960938 -0.0820312 1.835938 -0.03125 1.703125 0 C 1.566406 0.0390625 1.421875 0.0625 1.265625 0.0625 C 1.128906 0.0625 0.992188 0.046875 0.859375 0.015625 C 0.722656 -0.015625 0.609375 -0.0507812 0.515625 -0.09375 C 0.429688 -0.132812 0.351562 -0.171875 0.28125 -0.203125 C 0.21875 -0.242188 0.171875 -0.28125 0.140625 -0.3125 L 0.09375 -0.359375 L 0.4375 -0.953125 C 0.46875 -0.929688 0.507812 -0.898438 0.5625 -0.859375 C 0.613281 -0.816406 0.707031 -0.757812 0.84375 -0.6875 C 0.976562 -0.625 1.097656 -0.59375 1.203125 -0.59375 C 1.503906 -0.59375 1.65625 -0.695312 1.65625 -0.90625 C 1.65625 -0.945312 1.644531 -0.984375 1.625 -1.015625 C 1.601562 -1.054688 1.5625 -1.09375 1.5 -1.125 C 1.445312 -1.164062 1.398438 -1.195312 1.359375 -1.21875 C 1.316406 -1.238281 1.25 -1.269531 1.15625 -1.3125 C 1.0625 -1.363281 0.992188 -1.398438 0.953125 -1.421875 C 0.765625 -1.515625 0.617188 -1.628906 0.515625 -1.765625 C 0.410156 -1.910156 0.359375 -2.0625 0.359375 -2.21875 C 0.359375 -2.5 0.460938 -2.726562 0.671875 -2.90625 C 0.878906 -3.082031 1.113281 -3.171875 1.375 -3.171875 Z M 1.375 -3.171875" transform="translate(18.752 25.975)"/></g></g></g><g><g><g><path d="M 0.03125 -2.5 L 0.03125 -3.125 L 2.21875 -3.125 L 2.21875 -2.5 L 1.484375 -2.5 L 1.484375 0 L 0.765625 0 L 0.765625 -2.5 Z M 0.03125 -2.5" transform="translate(21.29 25.975)"/></g></g></g><g><g><g><path d="M 0.09375 -1.5625 C 0.09375 -2.007812 0.242188 -2.390625 0.546875 -2.703125 C 0.859375 -3.015625 1.226562 -3.171875 1.65625 -3.171875 C 2.09375 -3.171875 2.460938 -3.015625 2.765625 -2.703125 C 3.078125 -2.398438 3.234375 -2.019531 3.234375 -1.5625 C 3.234375 -1.101562 3.082031 -0.71875 2.78125 -0.40625 C 2.476562 -0.09375 2.101562 0.0625 1.65625 0.0625 C 1.195312 0.0625 0.820312 -0.09375 0.53125 -0.40625 C 0.238281 -0.71875 0.09375 -1.101562 0.09375 -1.5625 Z M 0.859375 -1.5625 C 0.859375 -1.394531 0.878906 -1.242188 0.921875 -1.109375 C 0.972656 -0.972656 1.0625 -0.859375 1.1875 -0.765625 C 1.320312 -0.671875 1.476562 -0.625 1.65625 -0.625 C 1.925781 -0.625 2.128906 -0.710938 2.265625 -0.890625 C 2.398438 -1.078125 2.46875 -1.300781 2.46875 -1.5625 C 2.46875 -1.8125 2.394531 -2.023438 2.25 -2.203125 C 2.113281 -2.390625 1.914062 -2.484375 1.65625 -2.484375 C 1.40625 -2.484375 1.207031 -2.390625 1.0625 -2.203125 C 0.925781 -2.023438 0.859375 -1.8125 0.859375 -1.5625 Z M 0.859375 -1.5625" transform="translate(23.542 25.975)"/></g></g></g><g><g><g><path d="M 0.234375 -3.125 L 1.359375 -3.125 C 1.679688 -3.125 1.941406 -3.039062 2.140625 -2.875 C 2.335938 -2.707031 2.4375 -2.46875 2.4375 -2.15625 C 2.4375 -1.84375 2.332031 -1.597656 2.125 -1.421875 C 1.925781 -1.242188 1.671875 -1.15625 1.359375 -1.15625 L 0.9375 -1.15625 L 0.9375 0 L 0.234375 0 Z M 0.9375 -1.71875 L 1.140625 -1.71875 C 1.296875 -1.71875 1.425781 -1.75 1.53125 -1.8125 C 1.632812 -1.882812 1.6875 -1.992188 1.6875 -2.140625 C 1.6875 -2.285156 1.632812 -2.390625 1.53125 -2.453125 C 1.425781 -2.515625 1.296875 -2.546875 1.140625 -2.546875 L 0.9375 -2.546875 Z M 0.9375 -1.71875" transform="translate(26.854 25.975)"/></g></g></g></svg>